M48
INCH,TZ
T1C0.025
T2C0.032
T3C0.040
%
G90
G05
T1
X68500Y-39600
X69500Y-39600
T2
X68000Y-39100
X68000Y-42100
X69000Y-39100
X69000Y-42100
X70000Y-39100
X70000Y-42100
X71000Y-39100
X71000Y-42100
T3
X67450Y-36800
X67450Y-37800
X68450Y-36800
X68450Y-37800
X69450Y-36800
X69450Y-37800
X70450Y-36800
X70450Y-37800
X71450Y-36800
X72450Y-36800
X73450Y-36800
X74450Y-36800
T0
M30
