G04 (created by PCBNEW (2013-07-07 BZR 4022)-stable) date 15/01/2015 17:01:17*
%MOIN*%
G04 Gerber Fmt 3.4, Leading zero omitted, Abs format*
%FSLAX34Y34*%
G01*
G70*
G90*
G04 APERTURE LIST*
%ADD10C,0.00590551*%
%ADD11R,0.06X0.06*%
%ADD12C,0.06*%
%ADD13R,0.055X0.055*%
%ADD14C,0.055*%
%ADD15R,0.0629921X0.0830709*%
%ADD16C,0.035*%
%ADD17C,0.01*%
G04 APERTURE END LIST*
G54D10*
G54D11*
X67450Y-36800D03*
G54D12*
X73450Y-36800D03*
X68450Y-36800D03*
X74450Y-36800D03*
X69450Y-36800D03*
X70450Y-36800D03*
X71450Y-36800D03*
X72450Y-36800D03*
X70450Y-37800D03*
X69450Y-37800D03*
X68450Y-37800D03*
X67450Y-37800D03*
G54D13*
X68000Y-42100D03*
G54D14*
X69000Y-42100D03*
X70000Y-42100D03*
X71000Y-42100D03*
X71000Y-39100D03*
X70000Y-39100D03*
X69000Y-39100D03*
X68000Y-39100D03*
G54D15*
X72650Y-37929D03*
X72650Y-41571D03*
X74150Y-37929D03*
X74150Y-41571D03*
G54D16*
X68500Y-39600D03*
X69500Y-39600D03*
G54D17*
X68000Y-39100D02*
X68150Y-39100D01*
X68150Y-39100D02*
X69450Y-37800D01*
X68000Y-42100D02*
X68000Y-40550D01*
X67950Y-37300D02*
X67450Y-36800D01*
X67950Y-38150D02*
X67950Y-37300D01*
X67450Y-38650D02*
X67950Y-38150D01*
X67450Y-40000D02*
X67450Y-38650D01*
X68000Y-40550D02*
X67450Y-40000D01*
X69000Y-39100D02*
X69700Y-38400D01*
X69950Y-37300D02*
X70450Y-36800D01*
X69950Y-38150D02*
X69950Y-37300D01*
X69850Y-38250D02*
X69950Y-38150D01*
X69700Y-38400D02*
X69850Y-38250D01*
X70000Y-39100D02*
X70000Y-38967D01*
X71450Y-37517D02*
X71450Y-36800D01*
X70000Y-38967D02*
X71450Y-37517D01*
X71000Y-39100D02*
X71000Y-38250D01*
X71000Y-38250D02*
X72450Y-36800D01*
X69000Y-40100D02*
X69000Y-42100D01*
X68500Y-39600D02*
X69000Y-40100D01*
X70000Y-42100D02*
X70000Y-40100D01*
X70000Y-40100D02*
X69500Y-39600D01*
X72700Y-41571D02*
X71528Y-41571D01*
X71528Y-41571D02*
X71000Y-42100D01*
X74250Y-41546D02*
X72725Y-41546D01*
X72725Y-41546D02*
X72700Y-41571D01*
X72650Y-37929D02*
X72650Y-37600D01*
X72650Y-37600D02*
X73450Y-36800D01*
X74150Y-37929D02*
X74150Y-37100D01*
X74150Y-37100D02*
X74450Y-36800D01*
M02*
