G04 (created by PCBNEW (2013-07-07 BZR 4022)-stable) date 15/01/2015 17:01:17*
%MOIN*%
G04 Gerber Fmt 3.4, Leading zero omitted, Abs format*
%FSLAX34Y34*%
G01*
G70*
G90*
G04 APERTURE LIST*
%ADD10C,0.00590551*%
%ADD11R,0.06X0.06*%
%ADD12C,0.06*%
%ADD13R,0.055X0.055*%
%ADD14C,0.055*%
%ADD15C,0.035*%
%ADD16C,0.01*%
G04 APERTURE END LIST*
G54D10*
G54D11*
X67450Y-36800D03*
G54D12*
X73450Y-36800D03*
X68450Y-36800D03*
X74450Y-36800D03*
X69450Y-36800D03*
X70450Y-36800D03*
X71450Y-36800D03*
X72450Y-36800D03*
X70450Y-37800D03*
X69450Y-37800D03*
X68450Y-37800D03*
X67450Y-37800D03*
G54D13*
X68000Y-42100D03*
G54D14*
X69000Y-42100D03*
X70000Y-42100D03*
X71000Y-42100D03*
X71000Y-39100D03*
X70000Y-39100D03*
X69000Y-39100D03*
X68000Y-39100D03*
G54D15*
X68500Y-39600D03*
X69500Y-39600D03*
G54D16*
X68450Y-36800D02*
X68450Y-37000D01*
X68500Y-38800D02*
X68500Y-39600D01*
X68950Y-38350D02*
X68500Y-38800D01*
X68950Y-37500D02*
X68950Y-38350D01*
X68450Y-37000D02*
X68950Y-37500D01*
X69950Y-37300D02*
X69450Y-36800D01*
X69950Y-37600D02*
X69950Y-37300D01*
X69950Y-38150D02*
X69950Y-37600D01*
X69500Y-38600D02*
X69950Y-38150D01*
X69500Y-39600D02*
X69500Y-38600D01*
G54D10*
G36*
X74730Y-42430D02*
X71529Y-42430D01*
X71401Y-42430D01*
X71367Y-42397D01*
X71460Y-42372D01*
X71529Y-42175D01*
X71518Y-41967D01*
X71460Y-41827D01*
X71367Y-41802D01*
X71297Y-41873D01*
X71297Y-41732D01*
X71272Y-41639D01*
X71075Y-41570D01*
X70867Y-41581D01*
X70727Y-41639D01*
X70702Y-41732D01*
X71000Y-42029D01*
X71297Y-41732D01*
X71297Y-41873D01*
X71070Y-42100D01*
X71076Y-42105D01*
X71005Y-42176D01*
X71000Y-42170D01*
X70994Y-42176D01*
X70923Y-42105D01*
X70929Y-42100D01*
X70632Y-41802D01*
X70539Y-41827D01*
X70500Y-41937D01*
X70445Y-41803D01*
X70297Y-41655D01*
X70104Y-41575D01*
X69896Y-41574D01*
X69703Y-41654D01*
X69555Y-41802D01*
X69499Y-41935D01*
X69445Y-41803D01*
X69297Y-41655D01*
X69104Y-41575D01*
X68896Y-41574D01*
X68703Y-41654D01*
X68555Y-41802D01*
X68525Y-41874D01*
X68525Y-41775D01*
X68487Y-41683D01*
X68416Y-41613D01*
X68324Y-41575D01*
X68225Y-41574D01*
X67675Y-41574D01*
X67583Y-41612D01*
X67513Y-41683D01*
X67475Y-41775D01*
X67474Y-41874D01*
X67474Y-42424D01*
X67477Y-42430D01*
X67169Y-42430D01*
X67169Y-38283D01*
X67368Y-38354D01*
X67586Y-38343D01*
X67737Y-38281D01*
X67765Y-38185D01*
X67450Y-37870D01*
X67444Y-37876D01*
X67373Y-37805D01*
X67379Y-37800D01*
X67373Y-37794D01*
X67444Y-37723D01*
X67450Y-37729D01*
X67765Y-37414D01*
X67746Y-37350D01*
X67799Y-37350D01*
X67891Y-37312D01*
X67961Y-37241D01*
X67999Y-37149D01*
X67999Y-37127D01*
X68138Y-37265D01*
X68219Y-37299D01*
X68138Y-37333D01*
X67984Y-37488D01*
X67952Y-37563D01*
X67931Y-37512D01*
X67835Y-37484D01*
X67520Y-37800D01*
X67835Y-38115D01*
X67931Y-38087D01*
X67950Y-38032D01*
X67983Y-38111D01*
X68138Y-38265D01*
X68340Y-38349D01*
X68525Y-38350D01*
X68287Y-38587D01*
X68254Y-38637D01*
X68104Y-38575D01*
X67896Y-38574D01*
X67703Y-38654D01*
X67555Y-38802D01*
X67475Y-38995D01*
X67474Y-39203D01*
X67554Y-39397D01*
X67702Y-39544D01*
X67895Y-39624D01*
X68074Y-39625D01*
X68074Y-39684D01*
X68139Y-39840D01*
X68258Y-39960D01*
X68415Y-40024D01*
X68584Y-40025D01*
X68740Y-39960D01*
X68860Y-39841D01*
X68924Y-39684D01*
X68924Y-39624D01*
X69074Y-39625D01*
X69074Y-39684D01*
X69139Y-39840D01*
X69258Y-39960D01*
X69415Y-40024D01*
X69584Y-40025D01*
X69740Y-39960D01*
X69860Y-39841D01*
X69924Y-39684D01*
X69924Y-39624D01*
X70103Y-39625D01*
X70297Y-39545D01*
X70444Y-39397D01*
X70500Y-39264D01*
X70554Y-39397D01*
X70702Y-39544D01*
X70895Y-39624D01*
X71103Y-39625D01*
X71297Y-39545D01*
X71444Y-39397D01*
X71524Y-39204D01*
X71525Y-38996D01*
X71445Y-38803D01*
X71297Y-38655D01*
X71104Y-38575D01*
X70896Y-38574D01*
X70703Y-38654D01*
X70555Y-38802D01*
X70499Y-38935D01*
X70445Y-38803D01*
X70297Y-38655D01*
X70104Y-38575D01*
X69949Y-38574D01*
X70162Y-38362D01*
X70207Y-38294D01*
X70340Y-38349D01*
X70558Y-38350D01*
X70761Y-38266D01*
X70915Y-38111D01*
X70999Y-37909D01*
X71000Y-37691D01*
X70916Y-37488D01*
X70761Y-37334D01*
X70680Y-37300D01*
X70761Y-37266D01*
X70915Y-37111D01*
X70949Y-37030D01*
X70983Y-37111D01*
X71138Y-37265D01*
X71340Y-37349D01*
X71558Y-37350D01*
X71761Y-37266D01*
X71915Y-37111D01*
X71949Y-37030D01*
X71983Y-37111D01*
X72138Y-37265D01*
X72340Y-37349D01*
X72558Y-37350D01*
X72761Y-37266D01*
X72915Y-37111D01*
X72949Y-37030D01*
X72983Y-37111D01*
X73138Y-37265D01*
X73340Y-37349D01*
X73558Y-37350D01*
X73761Y-37266D01*
X73915Y-37111D01*
X73949Y-37030D01*
X73983Y-37111D01*
X74138Y-37265D01*
X74340Y-37349D01*
X74558Y-37350D01*
X74730Y-37279D01*
X74730Y-42430D01*
X74730Y-42430D01*
G37*
G54D16*
X74730Y-42430D02*
X71529Y-42430D01*
X71401Y-42430D01*
X71367Y-42397D01*
X71460Y-42372D01*
X71529Y-42175D01*
X71518Y-41967D01*
X71460Y-41827D01*
X71367Y-41802D01*
X71297Y-41873D01*
X71297Y-41732D01*
X71272Y-41639D01*
X71075Y-41570D01*
X70867Y-41581D01*
X70727Y-41639D01*
X70702Y-41732D01*
X71000Y-42029D01*
X71297Y-41732D01*
X71297Y-41873D01*
X71070Y-42100D01*
X71076Y-42105D01*
X71005Y-42176D01*
X71000Y-42170D01*
X70994Y-42176D01*
X70923Y-42105D01*
X70929Y-42100D01*
X70632Y-41802D01*
X70539Y-41827D01*
X70500Y-41937D01*
X70445Y-41803D01*
X70297Y-41655D01*
X70104Y-41575D01*
X69896Y-41574D01*
X69703Y-41654D01*
X69555Y-41802D01*
X69499Y-41935D01*
X69445Y-41803D01*
X69297Y-41655D01*
X69104Y-41575D01*
X68896Y-41574D01*
X68703Y-41654D01*
X68555Y-41802D01*
X68525Y-41874D01*
X68525Y-41775D01*
X68487Y-41683D01*
X68416Y-41613D01*
X68324Y-41575D01*
X68225Y-41574D01*
X67675Y-41574D01*
X67583Y-41612D01*
X67513Y-41683D01*
X67475Y-41775D01*
X67474Y-41874D01*
X67474Y-42424D01*
X67477Y-42430D01*
X67169Y-42430D01*
X67169Y-38283D01*
X67368Y-38354D01*
X67586Y-38343D01*
X67737Y-38281D01*
X67765Y-38185D01*
X67450Y-37870D01*
X67444Y-37876D01*
X67373Y-37805D01*
X67379Y-37800D01*
X67373Y-37794D01*
X67444Y-37723D01*
X67450Y-37729D01*
X67765Y-37414D01*
X67746Y-37350D01*
X67799Y-37350D01*
X67891Y-37312D01*
X67961Y-37241D01*
X67999Y-37149D01*
X67999Y-37127D01*
X68138Y-37265D01*
X68219Y-37299D01*
X68138Y-37333D01*
X67984Y-37488D01*
X67952Y-37563D01*
X67931Y-37512D01*
X67835Y-37484D01*
X67520Y-37800D01*
X67835Y-38115D01*
X67931Y-38087D01*
X67950Y-38032D01*
X67983Y-38111D01*
X68138Y-38265D01*
X68340Y-38349D01*
X68525Y-38350D01*
X68287Y-38587D01*
X68254Y-38637D01*
X68104Y-38575D01*
X67896Y-38574D01*
X67703Y-38654D01*
X67555Y-38802D01*
X67475Y-38995D01*
X67474Y-39203D01*
X67554Y-39397D01*
X67702Y-39544D01*
X67895Y-39624D01*
X68074Y-39625D01*
X68074Y-39684D01*
X68139Y-39840D01*
X68258Y-39960D01*
X68415Y-40024D01*
X68584Y-40025D01*
X68740Y-39960D01*
X68860Y-39841D01*
X68924Y-39684D01*
X68924Y-39624D01*
X69074Y-39625D01*
X69074Y-39684D01*
X69139Y-39840D01*
X69258Y-39960D01*
X69415Y-40024D01*
X69584Y-40025D01*
X69740Y-39960D01*
X69860Y-39841D01*
X69924Y-39684D01*
X69924Y-39624D01*
X70103Y-39625D01*
X70297Y-39545D01*
X70444Y-39397D01*
X70500Y-39264D01*
X70554Y-39397D01*
X70702Y-39544D01*
X70895Y-39624D01*
X71103Y-39625D01*
X71297Y-39545D01*
X71444Y-39397D01*
X71524Y-39204D01*
X71525Y-38996D01*
X71445Y-38803D01*
X71297Y-38655D01*
X71104Y-38575D01*
X70896Y-38574D01*
X70703Y-38654D01*
X70555Y-38802D01*
X70499Y-38935D01*
X70445Y-38803D01*
X70297Y-38655D01*
X70104Y-38575D01*
X69949Y-38574D01*
X70162Y-38362D01*
X70207Y-38294D01*
X70340Y-38349D01*
X70558Y-38350D01*
X70761Y-38266D01*
X70915Y-38111D01*
X70999Y-37909D01*
X71000Y-37691D01*
X70916Y-37488D01*
X70761Y-37334D01*
X70680Y-37300D01*
X70761Y-37266D01*
X70915Y-37111D01*
X70949Y-37030D01*
X70983Y-37111D01*
X71138Y-37265D01*
X71340Y-37349D01*
X71558Y-37350D01*
X71761Y-37266D01*
X71915Y-37111D01*
X71949Y-37030D01*
X71983Y-37111D01*
X72138Y-37265D01*
X72340Y-37349D01*
X72558Y-37350D01*
X72761Y-37266D01*
X72915Y-37111D01*
X72949Y-37030D01*
X72983Y-37111D01*
X73138Y-37265D01*
X73340Y-37349D01*
X73558Y-37350D01*
X73761Y-37266D01*
X73915Y-37111D01*
X73949Y-37030D01*
X73983Y-37111D01*
X74138Y-37265D01*
X74340Y-37349D01*
X74558Y-37350D01*
X74730Y-37279D01*
X74730Y-42430D01*
M02*
