G04 (created by PCBNEW (2013-07-07 BZR 4022)-stable) date 07/07/2014 09:14:03*
%MOIN*%
G04 Gerber Fmt 3.4, Leading zero omitted, Abs format*
%FSLAX34Y34*%
G01*
G70*
G90*
G04 APERTURE LIST*
%ADD10C,0.00590551*%
%ADD11C,0.011811*%
%ADD12C,0.0001*%
G04 APERTURE END LIST*
G54D10*
G54D11*
X26802Y-15439D02*
X26802Y-14848D01*
X26662Y-14848D01*
X26577Y-14876D01*
X26521Y-14932D01*
X26493Y-14989D01*
X26465Y-15101D01*
X26465Y-15185D01*
X26493Y-15298D01*
X26521Y-15354D01*
X26577Y-15410D01*
X26662Y-15439D01*
X26802Y-15439D01*
X26212Y-15439D02*
X26212Y-15045D01*
X26212Y-14848D02*
X26240Y-14876D01*
X26212Y-14904D01*
X26184Y-14876D01*
X26212Y-14848D01*
X26212Y-14904D01*
X25706Y-15410D02*
X25762Y-15439D01*
X25874Y-15439D01*
X25931Y-15410D01*
X25959Y-15354D01*
X25959Y-15129D01*
X25931Y-15073D01*
X25874Y-15045D01*
X25762Y-15045D01*
X25706Y-15073D01*
X25678Y-15129D01*
X25678Y-15185D01*
X25959Y-15242D01*
X25171Y-15045D02*
X25171Y-15523D01*
X25200Y-15579D01*
X25228Y-15607D01*
X25284Y-15635D01*
X25368Y-15635D01*
X25424Y-15607D01*
X25171Y-15410D02*
X25228Y-15439D01*
X25340Y-15439D01*
X25396Y-15410D01*
X25424Y-15382D01*
X25453Y-15326D01*
X25453Y-15157D01*
X25424Y-15101D01*
X25396Y-15073D01*
X25340Y-15045D01*
X25228Y-15045D01*
X25171Y-15073D01*
X24806Y-15439D02*
X24862Y-15410D01*
X24890Y-15382D01*
X24918Y-15326D01*
X24918Y-15157D01*
X24890Y-15101D01*
X24862Y-15073D01*
X24806Y-15045D01*
X24721Y-15045D01*
X24665Y-15073D01*
X24637Y-15101D01*
X24609Y-15157D01*
X24609Y-15326D01*
X24637Y-15382D01*
X24665Y-15410D01*
X24721Y-15439D01*
X24806Y-15439D01*
X23568Y-15439D02*
X23765Y-15157D01*
X23906Y-15439D02*
X23906Y-14848D01*
X23681Y-14848D01*
X23625Y-14876D01*
X23597Y-14904D01*
X23568Y-14960D01*
X23568Y-15045D01*
X23597Y-15101D01*
X23625Y-15129D01*
X23681Y-15157D01*
X23906Y-15157D01*
G54D12*
G36*
X23683Y-11546D02*
X23583Y-11570D01*
X23517Y-11585D01*
X23517Y-11230D01*
X23517Y-11050D01*
X23317Y-11006D01*
X23161Y-10969D01*
X23056Y-10933D01*
X22986Y-10889D01*
X22938Y-10828D01*
X22896Y-10742D01*
X22845Y-10625D01*
X22795Y-10514D01*
X22778Y-10477D01*
X22754Y-10419D01*
X22749Y-10371D01*
X22771Y-10314D01*
X22823Y-10230D01*
X22858Y-10177D01*
X22927Y-10074D01*
X22982Y-9990D01*
X23012Y-9943D01*
X23005Y-9896D01*
X22956Y-9819D01*
X22913Y-9767D01*
X22842Y-9690D01*
X22796Y-9656D01*
X22756Y-9658D01*
X22705Y-9688D01*
X22704Y-9689D01*
X22624Y-9740D01*
X22519Y-9807D01*
X22459Y-9844D01*
X22302Y-9942D01*
X22034Y-9833D01*
X21911Y-9782D01*
X21814Y-9737D01*
X21757Y-9706D01*
X21750Y-9700D01*
X21736Y-9656D01*
X21713Y-9566D01*
X21686Y-9447D01*
X21682Y-9430D01*
X21652Y-9308D01*
X21621Y-9213D01*
X21593Y-9162D01*
X21590Y-9160D01*
X21520Y-9139D01*
X21424Y-9135D01*
X21333Y-9147D01*
X21276Y-9173D01*
X21275Y-9175D01*
X21252Y-9227D01*
X21225Y-9324D01*
X21201Y-9439D01*
X21172Y-9560D01*
X21137Y-9658D01*
X21105Y-9709D01*
X21047Y-9745D01*
X20949Y-9794D01*
X20830Y-9847D01*
X20825Y-9849D01*
X20600Y-9943D01*
X20442Y-9845D01*
X20334Y-9777D01*
X20236Y-9715D01*
X20195Y-9688D01*
X20136Y-9654D01*
X20092Y-9654D01*
X20034Y-9693D01*
X20006Y-9717D01*
X19924Y-9796D01*
X19887Y-9868D01*
X19896Y-9949D01*
X19949Y-10055D01*
X20001Y-10135D01*
X20068Y-10238D01*
X20107Y-10319D01*
X20117Y-10395D01*
X20099Y-10485D01*
X20053Y-10604D01*
X20002Y-10717D01*
X19961Y-10805D01*
X19925Y-10868D01*
X19880Y-10911D01*
X19814Y-10943D01*
X19715Y-10970D01*
X19569Y-10999D01*
X19475Y-11018D01*
X19413Y-11033D01*
X19380Y-11060D01*
X19368Y-11118D01*
X19367Y-11220D01*
X19371Y-11322D01*
X19394Y-11390D01*
X19445Y-11433D01*
X19539Y-11461D01*
X19686Y-11484D01*
X19698Y-11486D01*
X19800Y-11506D01*
X19874Y-11532D01*
X19894Y-11546D01*
X19918Y-11592D01*
X19960Y-11684D01*
X20010Y-11804D01*
X20028Y-11849D01*
X20134Y-12114D01*
X20040Y-12265D01*
X19976Y-12367D01*
X19919Y-12457D01*
X19898Y-12491D01*
X19875Y-12537D01*
X19881Y-12579D01*
X19922Y-12635D01*
X19981Y-12697D01*
X20046Y-12763D01*
X20097Y-12798D01*
X20147Y-12800D01*
X20214Y-12769D01*
X20312Y-12703D01*
X20380Y-12654D01*
X20480Y-12588D01*
X20547Y-12561D01*
X20597Y-12565D01*
X20608Y-12571D01*
X20678Y-12592D01*
X20713Y-12589D01*
X20739Y-12554D01*
X20781Y-12472D01*
X20832Y-12360D01*
X20886Y-12232D01*
X20936Y-12105D01*
X20975Y-11994D01*
X20997Y-11917D01*
X21000Y-11896D01*
X20979Y-11851D01*
X20927Y-11778D01*
X20896Y-11740D01*
X20776Y-11570D01*
X20713Y-11390D01*
X20700Y-11233D01*
X20729Y-11022D01*
X20810Y-10840D01*
X20932Y-10693D01*
X21088Y-10584D01*
X21266Y-10517D01*
X21457Y-10496D01*
X21651Y-10525D01*
X21840Y-10608D01*
X21972Y-10708D01*
X22093Y-10860D01*
X22166Y-11048D01*
X22183Y-11136D01*
X22184Y-11338D01*
X22124Y-11533D01*
X22001Y-11728D01*
X21999Y-11730D01*
X21866Y-11898D01*
X21968Y-12153D01*
X22038Y-12328D01*
X22091Y-12449D01*
X22133Y-12526D01*
X22170Y-12567D01*
X22209Y-12583D01*
X22257Y-12581D01*
X22275Y-12579D01*
X22352Y-12577D01*
X22430Y-12604D01*
X22533Y-12668D01*
X22550Y-12681D01*
X22646Y-12744D01*
X22728Y-12787D01*
X22768Y-12800D01*
X22821Y-12777D01*
X22895Y-12720D01*
X22932Y-12685D01*
X23043Y-12570D01*
X22899Y-12348D01*
X22754Y-12127D01*
X22815Y-11972D01*
X22864Y-11843D01*
X22912Y-11712D01*
X22924Y-11676D01*
X22956Y-11596D01*
X22995Y-11550D01*
X23059Y-11521D01*
X23162Y-11498D01*
X23317Y-11465D01*
X23419Y-11439D01*
X23479Y-11411D01*
X23507Y-11371D01*
X23516Y-11312D01*
X23517Y-11230D01*
X23517Y-11585D01*
X23493Y-11591D01*
X23371Y-11617D01*
X23293Y-11633D01*
X23103Y-11671D01*
X23035Y-11853D01*
X22997Y-11963D01*
X22973Y-12053D01*
X22967Y-12093D01*
X22984Y-12148D01*
X23031Y-12238D01*
X23096Y-12344D01*
X23100Y-12350D01*
X23165Y-12453D01*
X23213Y-12536D01*
X23233Y-12583D01*
X23233Y-12584D01*
X23210Y-12626D01*
X23150Y-12697D01*
X23067Y-12783D01*
X22975Y-12869D01*
X22890Y-12943D01*
X22825Y-12990D01*
X22801Y-13000D01*
X22752Y-12983D01*
X22665Y-12937D01*
X22559Y-12872D01*
X22546Y-12864D01*
X22437Y-12795D01*
X22364Y-12758D01*
X22310Y-12747D01*
X22254Y-12758D01*
X22218Y-12770D01*
X22121Y-12794D01*
X22068Y-12782D01*
X22044Y-12740D01*
X22000Y-12650D01*
X21944Y-12525D01*
X21883Y-12383D01*
X21800Y-12187D01*
X21741Y-12043D01*
X21702Y-11942D01*
X21684Y-11873D01*
X21685Y-11827D01*
X21702Y-11793D01*
X21736Y-11762D01*
X21783Y-11725D01*
X21783Y-11724D01*
X21923Y-11571D01*
X22004Y-11395D01*
X22026Y-11205D01*
X21984Y-11013D01*
X21970Y-10980D01*
X21868Y-10829D01*
X21728Y-10721D01*
X21564Y-10660D01*
X21390Y-10647D01*
X21220Y-10688D01*
X21074Y-10779D01*
X20946Y-10931D01*
X20877Y-11104D01*
X20866Y-11286D01*
X20915Y-11468D01*
X21022Y-11638D01*
X21079Y-11698D01*
X21149Y-11773D01*
X21193Y-11837D01*
X21200Y-11859D01*
X21187Y-11909D01*
X21154Y-12005D01*
X21105Y-12134D01*
X21046Y-12282D01*
X20984Y-12433D01*
X20924Y-12574D01*
X20872Y-12690D01*
X20834Y-12768D01*
X20820Y-12790D01*
X20779Y-12811D01*
X20713Y-12795D01*
X20675Y-12778D01*
X20618Y-12752D01*
X20571Y-12746D01*
X20516Y-12764D01*
X20436Y-12811D01*
X20356Y-12862D01*
X20248Y-12929D01*
X20157Y-12978D01*
X20101Y-12999D01*
X20097Y-13000D01*
X20052Y-12977D01*
X19976Y-12917D01*
X19882Y-12831D01*
X19841Y-12791D01*
X19634Y-12582D01*
X19783Y-12359D01*
X19854Y-12249D01*
X19906Y-12157D01*
X19932Y-12100D01*
X19933Y-12093D01*
X19918Y-12017D01*
X19882Y-11913D01*
X19833Y-11806D01*
X19784Y-11719D01*
X19752Y-11680D01*
X19686Y-11652D01*
X19584Y-11626D01*
X19522Y-11615D01*
X19376Y-11594D01*
X19283Y-11568D01*
X19230Y-11525D01*
X19206Y-11450D01*
X19200Y-11330D01*
X19200Y-11236D01*
X19203Y-11101D01*
X19211Y-10994D01*
X19223Y-10929D01*
X19229Y-10919D01*
X19275Y-10903D01*
X19367Y-10880D01*
X19486Y-10853D01*
X19502Y-10849D01*
X19626Y-10820D01*
X19726Y-10790D01*
X19783Y-10766D01*
X19786Y-10764D01*
X19820Y-10716D01*
X19866Y-10628D01*
X19899Y-10551D01*
X19972Y-10372D01*
X19802Y-10129D01*
X19631Y-9887D01*
X19840Y-9677D01*
X19940Y-9582D01*
X20029Y-9510D01*
X20093Y-9470D01*
X20109Y-9467D01*
X20165Y-9485D01*
X20254Y-9535D01*
X20355Y-9604D01*
X20481Y-9689D01*
X20580Y-9730D01*
X20676Y-9731D01*
X20790Y-9695D01*
X20841Y-9674D01*
X20927Y-9632D01*
X20977Y-9589D01*
X21007Y-9524D01*
X21032Y-9415D01*
X21032Y-9411D01*
X21058Y-9286D01*
X21083Y-9171D01*
X21095Y-9117D01*
X21119Y-9017D01*
X21413Y-9007D01*
X21569Y-9006D01*
X21685Y-9015D01*
X21748Y-9032D01*
X21750Y-9034D01*
X21777Y-9083D01*
X21807Y-9178D01*
X21834Y-9300D01*
X21835Y-9310D01*
X21865Y-9458D01*
X21901Y-9557D01*
X21956Y-9622D01*
X22041Y-9672D01*
X22120Y-9705D01*
X22199Y-9732D01*
X22262Y-9744D01*
X22323Y-9733D01*
X22399Y-9697D01*
X22502Y-9630D01*
X22610Y-9556D01*
X22803Y-9421D01*
X23018Y-9635D01*
X23113Y-9733D01*
X23187Y-9815D01*
X23228Y-9870D01*
X23233Y-9883D01*
X23216Y-9925D01*
X23169Y-10006D01*
X23103Y-10111D01*
X23083Y-10141D01*
X23013Y-10249D01*
X22961Y-10336D01*
X22934Y-10389D01*
X22933Y-10395D01*
X22946Y-10439D01*
X22979Y-10524D01*
X23015Y-10610D01*
X23063Y-10712D01*
X23105Y-10771D01*
X23164Y-10804D01*
X23261Y-10827D01*
X23290Y-10833D01*
X23415Y-10859D01*
X23530Y-10884D01*
X23583Y-10896D01*
X23683Y-10921D01*
X23683Y-11233D01*
X23683Y-11546D01*
X23683Y-11546D01*
X23683Y-11546D01*
G37*
M02*
