G04 (created by PCBNEW (2013-07-07 BZR 4022)-stable) date 07/07/2014 09:14:03*
%MOIN*%
G04 Gerber Fmt 3.4, Leading zero omitted, Abs format*
%FSLAX34Y34*%
G01*
G70*
G90*
G04 APERTURE LIST*
%ADD10C,0.00590551*%
%ADD11C,0.011811*%
%ADD12C,0.005*%
%ADD13C,0.006*%
%ADD14C,0.007*%
G04 APERTURE END LIST*
G54D10*
G54D11*
X19390Y-15807D02*
X19390Y-15295D01*
X19512Y-15295D01*
X19585Y-15319D01*
X19634Y-15368D01*
X19658Y-15417D01*
X19683Y-15514D01*
X19683Y-15587D01*
X19658Y-15685D01*
X19634Y-15734D01*
X19585Y-15782D01*
X19512Y-15807D01*
X19390Y-15807D01*
X19878Y-15660D02*
X20121Y-15660D01*
X19829Y-15807D02*
X20000Y-15295D01*
X20170Y-15807D01*
X20633Y-15758D02*
X20609Y-15782D01*
X20536Y-15807D01*
X20487Y-15807D01*
X20414Y-15782D01*
X20365Y-15734D01*
X20341Y-15685D01*
X20316Y-15587D01*
X20316Y-15514D01*
X20341Y-15417D01*
X20365Y-15368D01*
X20414Y-15319D01*
X20487Y-15295D01*
X20536Y-15295D01*
X20609Y-15319D01*
X20633Y-15344D01*
X19195Y-16129D02*
X19317Y-16641D01*
X19415Y-16276D01*
X19512Y-16641D01*
X19634Y-16129D01*
X19829Y-16641D02*
X19829Y-16300D01*
X19829Y-16129D02*
X19805Y-16154D01*
X19829Y-16178D01*
X19853Y-16154D01*
X19829Y-16129D01*
X19829Y-16178D01*
X20073Y-16300D02*
X20073Y-16641D01*
X20073Y-16349D02*
X20097Y-16324D01*
X20146Y-16300D01*
X20219Y-16300D01*
X20268Y-16324D01*
X20292Y-16373D01*
X20292Y-16641D01*
X20755Y-16300D02*
X20755Y-16714D01*
X20731Y-16763D01*
X20706Y-16788D01*
X20658Y-16812D01*
X20584Y-16812D01*
X20536Y-16788D01*
X20755Y-16617D02*
X20706Y-16641D01*
X20609Y-16641D01*
X20560Y-16617D01*
X20536Y-16593D01*
X20511Y-16544D01*
X20511Y-16398D01*
X20536Y-16349D01*
X20560Y-16324D01*
X20609Y-16300D01*
X20706Y-16300D01*
X20755Y-16324D01*
G54D12*
X26450Y-8800D02*
X26450Y-8750D01*
X26450Y-8750D02*
X24350Y-8750D01*
X24350Y-10250D02*
X26450Y-10250D01*
X26450Y-10250D02*
X26450Y-8800D01*
X26450Y-9700D02*
X26250Y-9700D01*
X26250Y-9700D02*
X26250Y-9300D01*
X26250Y-9300D02*
X26450Y-9300D01*
X24350Y-10250D02*
X24350Y-8750D01*
X26400Y-12150D02*
X26500Y-12150D01*
X26500Y-12150D02*
X26500Y-11250D01*
X26500Y-11250D02*
X26400Y-11250D01*
X26400Y-12150D02*
X26400Y-11250D01*
X26400Y-11250D02*
X25750Y-11250D01*
X25050Y-12150D02*
X24400Y-12150D01*
X24400Y-12150D02*
X24400Y-11250D01*
X24400Y-11250D02*
X25050Y-11250D01*
X25750Y-12150D02*
X26400Y-12150D01*
X20650Y-9000D02*
X19750Y-9000D01*
X19750Y-9000D02*
X19750Y-9650D01*
X20650Y-10350D02*
X20650Y-11000D01*
X20650Y-11000D02*
X19750Y-11000D01*
X19750Y-11000D02*
X19750Y-10350D01*
X20650Y-9650D02*
X20650Y-9000D01*
X19300Y-11250D02*
X19300Y-12150D01*
X19300Y-12150D02*
X19950Y-12150D01*
X20650Y-11250D02*
X21300Y-11250D01*
X21300Y-11250D02*
X21300Y-12150D01*
X21300Y-12150D02*
X20650Y-12150D01*
X19950Y-11250D02*
X19300Y-11250D01*
X20450Y-12400D02*
X19550Y-12400D01*
X19550Y-12400D02*
X19550Y-13050D01*
X20450Y-13750D02*
X20450Y-14400D01*
X20450Y-14400D02*
X19550Y-14400D01*
X19550Y-14400D02*
X19550Y-13750D01*
X20450Y-13050D02*
X20450Y-12400D01*
X21450Y-11200D02*
X22350Y-11200D01*
X22350Y-11200D02*
X22350Y-10550D01*
X21450Y-9850D02*
X21450Y-9200D01*
X21450Y-9200D02*
X22350Y-9200D01*
X22350Y-9200D02*
X22350Y-9850D01*
X21450Y-10550D02*
X21450Y-11200D01*
X23450Y-9200D02*
X22550Y-9200D01*
X22550Y-9200D02*
X22550Y-9850D01*
X23450Y-10550D02*
X23450Y-11200D01*
X23450Y-11200D02*
X22550Y-11200D01*
X22550Y-11200D02*
X22550Y-10550D01*
X23450Y-9850D02*
X23450Y-9200D01*
X23500Y-12250D02*
X23500Y-11350D01*
X23500Y-11350D02*
X22850Y-11350D01*
X22150Y-12250D02*
X21500Y-12250D01*
X21500Y-12250D02*
X21500Y-11350D01*
X21500Y-11350D02*
X22150Y-11350D01*
X22850Y-12250D02*
X23500Y-12250D01*
X26750Y-12300D02*
X25850Y-12300D01*
X25850Y-12300D02*
X25850Y-12950D01*
X26750Y-13650D02*
X26750Y-14300D01*
X26750Y-14300D02*
X25850Y-14300D01*
X25850Y-14300D02*
X25850Y-13650D01*
X26750Y-12950D02*
X26750Y-12300D01*
G54D10*
X27175Y-6525D02*
X19000Y-6525D01*
X26025Y-7525D02*
X27175Y-7525D01*
X27175Y-7525D02*
X27175Y-6525D01*
X23000Y-7525D02*
X19000Y-7525D01*
X19000Y-6525D02*
X19000Y-8525D01*
X19000Y-8525D02*
X23000Y-8525D01*
X23000Y-8525D02*
X23000Y-7525D01*
X23000Y-7525D02*
X26000Y-7525D01*
X24187Y-17651D02*
X24187Y-18360D01*
X24029Y-17651D02*
X24029Y-18360D01*
X23872Y-17651D02*
X23872Y-18360D01*
X23557Y-17651D02*
X23557Y-18360D01*
X23400Y-17651D02*
X23400Y-18360D01*
X23242Y-17651D02*
X23242Y-18360D01*
X23085Y-17651D02*
X23085Y-18360D01*
X22927Y-17651D02*
X22927Y-18360D01*
X22612Y-17651D02*
X22612Y-18360D01*
X22455Y-17651D02*
X22455Y-18360D01*
X22297Y-17651D02*
X22297Y-18360D01*
X22140Y-17651D02*
X22140Y-18360D01*
X22140Y-18360D02*
X24266Y-18360D01*
X24266Y-18360D02*
X24344Y-18360D01*
X24344Y-18360D02*
X24344Y-17651D01*
X24344Y-17651D02*
X22140Y-17651D01*
X22770Y-17888D02*
X22770Y-18675D01*
X22770Y-18675D02*
X23714Y-18675D01*
X23714Y-18675D02*
X23714Y-17888D01*
X22770Y-17494D02*
X20880Y-17494D01*
X20880Y-17494D02*
X20880Y-12376D01*
X20880Y-12376D02*
X25604Y-12376D01*
X25604Y-12376D02*
X25604Y-17494D01*
X25604Y-17494D02*
X23714Y-17494D01*
X22770Y-17494D02*
X23714Y-17494D01*
X23714Y-17494D02*
X23714Y-17888D01*
X22770Y-17888D02*
X22770Y-17494D01*
G54D13*
X24650Y-10032D02*
X24650Y-9582D01*
X24757Y-9582D01*
X24821Y-9603D01*
X24864Y-9646D01*
X24885Y-9689D01*
X24907Y-9775D01*
X24907Y-9839D01*
X24885Y-9925D01*
X24864Y-9967D01*
X24821Y-10010D01*
X24757Y-10032D01*
X24650Y-10032D01*
X25078Y-9903D02*
X25292Y-9903D01*
X25035Y-10032D02*
X25185Y-9582D01*
X25335Y-10032D01*
X25742Y-9989D02*
X25721Y-10010D01*
X25657Y-10032D01*
X25614Y-10032D01*
X25550Y-10010D01*
X25507Y-9967D01*
X25485Y-9925D01*
X25464Y-9839D01*
X25464Y-9775D01*
X25485Y-9689D01*
X25507Y-9646D01*
X25550Y-9603D01*
X25614Y-9582D01*
X25657Y-9582D01*
X25721Y-9603D01*
X25742Y-9625D01*
X26171Y-10032D02*
X25914Y-10032D01*
X26042Y-10032D02*
X26042Y-9582D01*
X26000Y-9646D01*
X25957Y-9689D01*
X25914Y-9710D01*
G54D12*
X25492Y-11750D02*
X25507Y-11764D01*
X25521Y-11807D01*
X25521Y-11835D01*
X25507Y-11878D01*
X25478Y-11907D01*
X25450Y-11921D01*
X25392Y-11935D01*
X25350Y-11935D01*
X25292Y-11921D01*
X25264Y-11907D01*
X25235Y-11878D01*
X25221Y-11835D01*
X25221Y-11807D01*
X25235Y-11764D01*
X25250Y-11750D01*
X25250Y-11635D02*
X25235Y-11621D01*
X25221Y-11592D01*
X25221Y-11521D01*
X25235Y-11492D01*
X25250Y-11478D01*
X25278Y-11464D01*
X25307Y-11464D01*
X25350Y-11478D01*
X25521Y-11650D01*
X25521Y-11464D01*
X20150Y-10121D02*
X20050Y-9978D01*
X19978Y-10121D02*
X19978Y-9821D01*
X20092Y-9821D01*
X20121Y-9835D01*
X20135Y-9850D01*
X20150Y-9878D01*
X20150Y-9921D01*
X20135Y-9950D01*
X20121Y-9964D01*
X20092Y-9978D01*
X19978Y-9978D01*
X20264Y-9850D02*
X20278Y-9835D01*
X20307Y-9821D01*
X20378Y-9821D01*
X20407Y-9835D01*
X20421Y-9850D01*
X20435Y-9878D01*
X20435Y-9907D01*
X20421Y-9950D01*
X20250Y-10121D01*
X20435Y-10121D01*
X20421Y-11750D02*
X20278Y-11850D01*
X20421Y-11921D02*
X20121Y-11921D01*
X20121Y-11807D01*
X20135Y-11778D01*
X20150Y-11764D01*
X20178Y-11750D01*
X20221Y-11750D01*
X20250Y-11764D01*
X20264Y-11778D01*
X20278Y-11807D01*
X20278Y-11921D01*
X20421Y-11464D02*
X20421Y-11635D01*
X20421Y-11550D02*
X20121Y-11550D01*
X20164Y-11578D01*
X20192Y-11607D01*
X20207Y-11635D01*
X19950Y-13492D02*
X19935Y-13507D01*
X19892Y-13521D01*
X19864Y-13521D01*
X19821Y-13507D01*
X19792Y-13478D01*
X19778Y-13450D01*
X19764Y-13392D01*
X19764Y-13350D01*
X19778Y-13292D01*
X19792Y-13264D01*
X19821Y-13235D01*
X19864Y-13221D01*
X19892Y-13221D01*
X19935Y-13235D01*
X19950Y-13250D01*
X20050Y-13221D02*
X20235Y-13221D01*
X20135Y-13335D01*
X20178Y-13335D01*
X20207Y-13350D01*
X20221Y-13364D01*
X20235Y-13392D01*
X20235Y-13464D01*
X20221Y-13492D01*
X20207Y-13507D01*
X20178Y-13521D01*
X20092Y-13521D01*
X20064Y-13507D01*
X20050Y-13492D01*
X21850Y-10321D02*
X21750Y-10178D01*
X21678Y-10321D02*
X21678Y-10021D01*
X21792Y-10021D01*
X21821Y-10035D01*
X21835Y-10050D01*
X21850Y-10078D01*
X21850Y-10121D01*
X21835Y-10150D01*
X21821Y-10164D01*
X21792Y-10178D01*
X21678Y-10178D01*
X22107Y-10121D02*
X22107Y-10321D01*
X22035Y-10007D02*
X21964Y-10221D01*
X22150Y-10221D01*
X22950Y-10321D02*
X22850Y-10178D01*
X22778Y-10321D02*
X22778Y-10021D01*
X22892Y-10021D01*
X22921Y-10035D01*
X22935Y-10050D01*
X22950Y-10078D01*
X22950Y-10121D01*
X22935Y-10150D01*
X22921Y-10164D01*
X22892Y-10178D01*
X22778Y-10178D01*
X23050Y-10021D02*
X23235Y-10021D01*
X23135Y-10135D01*
X23178Y-10135D01*
X23207Y-10150D01*
X23221Y-10164D01*
X23235Y-10192D01*
X23235Y-10264D01*
X23221Y-10292D01*
X23207Y-10307D01*
X23178Y-10321D01*
X23092Y-10321D01*
X23064Y-10307D01*
X23050Y-10292D01*
X22592Y-11850D02*
X22607Y-11864D01*
X22621Y-11907D01*
X22621Y-11935D01*
X22607Y-11978D01*
X22578Y-12007D01*
X22550Y-12021D01*
X22492Y-12035D01*
X22450Y-12035D01*
X22392Y-12021D01*
X22364Y-12007D01*
X22335Y-11978D01*
X22321Y-11935D01*
X22321Y-11907D01*
X22335Y-11864D01*
X22350Y-11850D01*
X22421Y-11592D02*
X22621Y-11592D01*
X22307Y-11664D02*
X22521Y-11735D01*
X22521Y-11550D01*
X26250Y-13392D02*
X26235Y-13407D01*
X26192Y-13421D01*
X26164Y-13421D01*
X26121Y-13407D01*
X26092Y-13378D01*
X26078Y-13350D01*
X26064Y-13292D01*
X26064Y-13250D01*
X26078Y-13192D01*
X26092Y-13164D01*
X26121Y-13135D01*
X26164Y-13121D01*
X26192Y-13121D01*
X26235Y-13135D01*
X26250Y-13150D01*
X26535Y-13421D02*
X26364Y-13421D01*
X26450Y-13421D02*
X26450Y-13121D01*
X26421Y-13164D01*
X26392Y-13192D01*
X26364Y-13207D01*
G54D14*
X22533Y-6361D02*
X22533Y-5961D01*
X22685Y-5961D01*
X22723Y-5980D01*
X22742Y-6000D01*
X22761Y-6038D01*
X22761Y-6095D01*
X22742Y-6133D01*
X22723Y-6152D01*
X22685Y-6171D01*
X22533Y-6171D01*
X22914Y-6247D02*
X23104Y-6247D01*
X22876Y-6361D02*
X23009Y-5961D01*
X23142Y-6361D01*
X23276Y-6361D02*
X23276Y-5961D01*
X23428Y-5961D01*
X23466Y-5980D01*
X23485Y-6000D01*
X23504Y-6038D01*
X23504Y-6095D01*
X23485Y-6133D01*
X23466Y-6152D01*
X23428Y-6171D01*
X23276Y-6171D01*
X23885Y-6361D02*
X23657Y-6361D01*
X23771Y-6361D02*
X23771Y-5961D01*
X23733Y-6019D01*
X23695Y-6057D01*
X23657Y-6076D01*
G54D10*
X25068Y-14265D02*
X25068Y-14546D01*
X25050Y-14603D01*
X25012Y-14640D01*
X24956Y-14659D01*
X24918Y-14659D01*
X25462Y-14659D02*
X25237Y-14659D01*
X25349Y-14659D02*
X25349Y-14265D01*
X25312Y-14321D01*
X25274Y-14359D01*
X25237Y-14378D01*
M02*
