G04 (created by PCBNEW (2013-07-07 BZR 4022)-stable) date 07/07/2014 09:14:03*
%MOIN*%
G04 Gerber Fmt 3.4, Leading zero omitted, Abs format*
%FSLAX34Y34*%
G01*
G70*
G90*
G04 APERTURE LIST*
%ADD10C,0.00590551*%
%ADD11R,0.0236X0.0551*%
%ADD12R,0.06X0.08*%
%ADD13R,0.08X0.06*%
%ADD14R,0.06X0.06*%
%ADD15C,0.06*%
%ADD16C,0.11811*%
%ADD17C,0.0787402*%
G04 APERTURE END LIST*
G54D10*
G54D11*
X26150Y-10550D03*
X26150Y-8450D03*
X25650Y-10550D03*
X25150Y-10550D03*
X24650Y-10550D03*
X25650Y-8450D03*
X25150Y-8450D03*
X24650Y-8450D03*
G54D12*
X26050Y-11700D03*
X24750Y-11700D03*
G54D13*
X20200Y-9350D03*
X20200Y-10650D03*
G54D12*
X19650Y-11700D03*
X20950Y-11700D03*
G54D13*
X20000Y-12750D03*
X20000Y-14050D03*
X21900Y-10850D03*
X21900Y-9550D03*
X23000Y-9550D03*
X23000Y-10850D03*
G54D12*
X23150Y-11800D03*
X21850Y-11800D03*
G54D13*
X26300Y-12650D03*
X26300Y-13950D03*
G54D14*
X19500Y-7000D03*
G54D15*
X25500Y-7000D03*
X20500Y-7000D03*
X26500Y-7000D03*
X21500Y-7000D03*
X22500Y-7000D03*
X23500Y-7000D03*
X24500Y-7000D03*
X22500Y-8000D03*
X21500Y-8000D03*
X20500Y-8000D03*
X19500Y-8000D03*
G54D16*
X24187Y-13793D03*
X24187Y-16549D03*
G54D17*
X25014Y-12927D03*
X21549Y-13400D03*
M02*
