G04 (created by PCBNEW (2013-07-07 BZR 4022)-stable) date 01/09/2014 21:36:03*
%MOIN*%
G04 Gerber Fmt 3.4, Leading zero omitted, Abs format*
%FSLAX34Y34*%
G01*
G70*
G90*
G04 APERTURE LIST*
%ADD10C,0.00590551*%
%ADD11C,0.00787402*%
%ADD12C,0.011811*%
%ADD13C,0.005*%
%ADD14C,0.0125*%
%ADD15C,0.0047*%
%ADD16C,0.012*%
%ADD17C,0.006*%
G04 APERTURE END LIST*
G54D10*
G54D11*
X76299Y-40787D02*
X76456Y-40787D01*
X76141Y-40944D02*
X76299Y-40787D01*
X75433Y-40944D02*
X76141Y-40944D01*
X75275Y-40787D02*
X75433Y-40944D01*
X74409Y-40787D02*
X75275Y-40787D01*
X60866Y-44803D02*
X62125Y-44803D01*
X60708Y-44960D02*
X60866Y-44803D01*
X60157Y-44960D02*
X60708Y-44960D01*
X60000Y-44803D02*
X60157Y-44960D01*
X87817Y-45121D02*
X87817Y-44334D01*
X88117Y-44334D01*
X88192Y-44371D01*
X88230Y-44409D01*
X88267Y-44484D01*
X88267Y-44596D01*
X88230Y-44671D01*
X88192Y-44709D01*
X88117Y-44746D01*
X87817Y-44746D01*
X88980Y-45121D02*
X88605Y-45121D01*
X88605Y-44334D01*
X89617Y-45121D02*
X89242Y-45121D01*
X89242Y-44334D01*
X74416Y-40633D02*
X74416Y-39846D01*
X74604Y-39846D01*
X74716Y-39883D01*
X74791Y-39958D01*
X74829Y-40033D01*
X74866Y-40183D01*
X74866Y-40296D01*
X74829Y-40446D01*
X74791Y-40521D01*
X74716Y-40596D01*
X74604Y-40633D01*
X74416Y-40633D01*
X75166Y-40408D02*
X75541Y-40408D01*
X75091Y-40633D02*
X75354Y-39846D01*
X75616Y-40633D01*
X76329Y-40558D02*
X76291Y-40596D01*
X76179Y-40633D01*
X76104Y-40633D01*
X75991Y-40596D01*
X75916Y-40521D01*
X75879Y-40446D01*
X75841Y-40296D01*
X75841Y-40183D01*
X75879Y-40033D01*
X75916Y-39958D01*
X75991Y-39883D01*
X76104Y-39846D01*
X76179Y-39846D01*
X76291Y-39883D01*
X76329Y-39921D01*
X60127Y-44424D02*
X60502Y-44424D01*
X60052Y-44649D02*
X60314Y-43862D01*
X60577Y-44649D01*
X60839Y-44649D02*
X60839Y-43862D01*
X61027Y-43862D01*
X61139Y-43899D01*
X61214Y-43974D01*
X61252Y-44049D01*
X61289Y-44199D01*
X61289Y-44311D01*
X61252Y-44461D01*
X61214Y-44536D01*
X61139Y-44611D01*
X61027Y-44649D01*
X60839Y-44649D01*
X62077Y-44574D02*
X62039Y-44611D01*
X61927Y-44649D01*
X61852Y-44649D01*
X61739Y-44611D01*
X61664Y-44536D01*
X61627Y-44461D01*
X61589Y-44311D01*
X61589Y-44199D01*
X61627Y-44049D01*
X61664Y-43974D01*
X61739Y-43899D01*
X61852Y-43862D01*
X61927Y-43862D01*
X62039Y-43899D01*
X62077Y-43937D01*
G54D12*
X75832Y-44985D02*
X75804Y-45014D01*
X75719Y-45042D01*
X75663Y-45042D01*
X75579Y-45014D01*
X75523Y-44957D01*
X75494Y-44901D01*
X75466Y-44789D01*
X75466Y-44704D01*
X75494Y-44592D01*
X75523Y-44535D01*
X75579Y-44479D01*
X75663Y-44451D01*
X75719Y-44451D01*
X75804Y-44479D01*
X75832Y-44507D01*
X76085Y-45042D02*
X76085Y-44451D01*
X76338Y-45042D02*
X76338Y-44732D01*
X76310Y-44676D01*
X76254Y-44648D01*
X76169Y-44648D01*
X76113Y-44676D01*
X76085Y-44704D01*
X76704Y-45042D02*
X76647Y-45014D01*
X76619Y-44985D01*
X76591Y-44929D01*
X76591Y-44760D01*
X76619Y-44704D01*
X76647Y-44676D01*
X76704Y-44648D01*
X76788Y-44648D01*
X76844Y-44676D01*
X76872Y-44704D01*
X76901Y-44760D01*
X76901Y-44929D01*
X76872Y-44985D01*
X76844Y-45014D01*
X76788Y-45042D01*
X76704Y-45042D01*
X77238Y-45042D02*
X77182Y-45014D01*
X77154Y-44957D01*
X77154Y-44451D01*
X77716Y-44648D02*
X77716Y-45042D01*
X77463Y-44648D02*
X77463Y-44957D01*
X77491Y-45014D01*
X77547Y-45042D01*
X77632Y-45042D01*
X77688Y-45014D01*
X77716Y-44985D01*
X78082Y-45042D02*
X78025Y-45014D01*
X77997Y-44957D01*
X77997Y-44451D01*
X78560Y-45042D02*
X78560Y-44732D01*
X78532Y-44676D01*
X78475Y-44648D01*
X78363Y-44648D01*
X78307Y-44676D01*
X78560Y-45014D02*
X78503Y-45042D01*
X78363Y-45042D01*
X78307Y-45014D01*
X78278Y-44957D01*
X78278Y-44901D01*
X78307Y-44845D01*
X78363Y-44817D01*
X78503Y-44817D01*
X78560Y-44789D01*
X75466Y-45818D02*
X75748Y-45818D01*
X75410Y-45987D02*
X75607Y-45396D01*
X75804Y-45987D01*
X76254Y-45593D02*
X76254Y-45987D01*
X76001Y-45593D02*
X76001Y-45902D01*
X76029Y-45958D01*
X76085Y-45987D01*
X76169Y-45987D01*
X76226Y-45958D01*
X76254Y-45930D01*
X76788Y-45987D02*
X76788Y-45396D01*
X76788Y-45958D02*
X76732Y-45987D01*
X76619Y-45987D01*
X76563Y-45958D01*
X76535Y-45930D01*
X76507Y-45874D01*
X76507Y-45705D01*
X76535Y-45649D01*
X76563Y-45621D01*
X76619Y-45593D01*
X76732Y-45593D01*
X76788Y-45621D01*
X77069Y-45987D02*
X77069Y-45593D01*
X77069Y-45396D02*
X77041Y-45424D01*
X77069Y-45452D01*
X77097Y-45424D01*
X77069Y-45396D01*
X77069Y-45452D01*
X77435Y-45987D02*
X77379Y-45958D01*
X77350Y-45930D01*
X77322Y-45874D01*
X77322Y-45705D01*
X77350Y-45649D01*
X77379Y-45621D01*
X77435Y-45593D01*
X77519Y-45593D01*
X77575Y-45621D01*
X77604Y-45649D01*
X77632Y-45705D01*
X77632Y-45874D01*
X77604Y-45930D01*
X77575Y-45958D01*
X77519Y-45987D01*
X77435Y-45987D01*
G54D13*
X86983Y-40241D02*
X83883Y-40241D01*
X83883Y-40241D02*
X83883Y-42041D01*
X83883Y-42041D02*
X86983Y-42041D01*
X86983Y-42041D02*
X86983Y-40241D01*
X84294Y-41741D02*
G75*
G03X84294Y-41741I-111J0D01*
G74*
G01*
X78499Y-42155D02*
G75*
G03X78499Y-42155I-111J0D01*
G74*
G01*
X76637Y-43655D02*
X78637Y-43655D01*
X78637Y-43655D02*
X78637Y-41855D01*
X78637Y-41855D02*
X76637Y-41855D01*
X76637Y-41855D02*
X76637Y-43655D01*
X62751Y-40817D02*
G75*
G03X62751Y-40817I-111J0D01*
G74*
G01*
X60889Y-42317D02*
X62889Y-42317D01*
X62889Y-42317D02*
X62889Y-40517D01*
X62889Y-40517D02*
X60889Y-40517D01*
X60889Y-40517D02*
X60889Y-42317D01*
G54D10*
X80400Y-46375D02*
X79900Y-46375D01*
X79900Y-42375D02*
X79900Y-46375D01*
X80400Y-46375D02*
X80900Y-46375D01*
X80900Y-46375D02*
X80900Y-38375D01*
X80900Y-38375D02*
X80850Y-38375D01*
X79900Y-42375D02*
X79900Y-38375D01*
X80875Y-38375D02*
X78875Y-38375D01*
X78875Y-38375D02*
X78875Y-42375D01*
X78875Y-42375D02*
X79875Y-42375D01*
X81400Y-38375D02*
X81900Y-38375D01*
X81900Y-42375D02*
X81900Y-38375D01*
X81400Y-38375D02*
X80900Y-38375D01*
X80900Y-38375D02*
X80900Y-46375D01*
X80900Y-46375D02*
X80950Y-46375D01*
X81900Y-42375D02*
X81900Y-46375D01*
X80925Y-46375D02*
X82925Y-46375D01*
X82925Y-46375D02*
X82925Y-42375D01*
X82925Y-42375D02*
X81925Y-42375D01*
X59400Y-46375D02*
X58900Y-46375D01*
X58900Y-42375D02*
X58900Y-46375D01*
X59400Y-46375D02*
X59900Y-46375D01*
X59900Y-46375D02*
X59900Y-38375D01*
X59900Y-38375D02*
X59850Y-38375D01*
X58900Y-42375D02*
X58900Y-38375D01*
X59875Y-38375D02*
X57875Y-38375D01*
X57875Y-38375D02*
X57875Y-42375D01*
X57875Y-42375D02*
X58875Y-42375D01*
X71692Y-47480D02*
X71692Y-47086D01*
X73661Y-47480D02*
X73661Y-47086D01*
X73464Y-47086D02*
X71889Y-47086D01*
X71889Y-46299D02*
X71889Y-47086D01*
X71889Y-47086D02*
X71692Y-47086D01*
X73661Y-47086D02*
X73464Y-47086D01*
X73464Y-47086D02*
X73464Y-46299D01*
X71692Y-47480D02*
X73661Y-47480D01*
X75039Y-46299D02*
X70314Y-46299D01*
X70314Y-46299D02*
X70314Y-41968D01*
X70314Y-41968D02*
X75039Y-41968D01*
X75039Y-41968D02*
X75039Y-46299D01*
X65787Y-47480D02*
X65787Y-47086D01*
X67755Y-47480D02*
X67755Y-47086D01*
X67559Y-47086D02*
X65984Y-47086D01*
X65984Y-46299D02*
X65984Y-47086D01*
X65984Y-47086D02*
X65787Y-47086D01*
X67755Y-47086D02*
X67559Y-47086D01*
X67559Y-47086D02*
X67559Y-46299D01*
X65787Y-47480D02*
X67755Y-47480D01*
X69133Y-46299D02*
X64409Y-46299D01*
X64409Y-46299D02*
X64409Y-41968D01*
X64409Y-41968D02*
X69133Y-41968D01*
X69133Y-41968D02*
X69133Y-46299D01*
G54D13*
X86040Y-43724D02*
X86040Y-43624D01*
X86040Y-43624D02*
X85140Y-43624D01*
X85140Y-43624D02*
X85140Y-43724D01*
X86040Y-43724D02*
X85140Y-43724D01*
X85140Y-43724D02*
X85140Y-44374D01*
X86040Y-45074D02*
X86040Y-45724D01*
X86040Y-45724D02*
X85140Y-45724D01*
X85140Y-45724D02*
X85140Y-45074D01*
X86040Y-44374D02*
X86040Y-43724D01*
X85016Y-43724D02*
X84116Y-43724D01*
X84116Y-43724D02*
X84116Y-44374D01*
X85016Y-45074D02*
X85016Y-45724D01*
X85016Y-45724D02*
X84116Y-45724D01*
X84116Y-45724D02*
X84116Y-45074D01*
X85016Y-44374D02*
X85016Y-43724D01*
X87385Y-38526D02*
X87385Y-39426D01*
X87385Y-39426D02*
X88035Y-39426D01*
X88735Y-38526D02*
X89385Y-38526D01*
X89385Y-38526D02*
X89385Y-39426D01*
X89385Y-39426D02*
X88735Y-39426D01*
X88035Y-38526D02*
X87385Y-38526D01*
X84826Y-38526D02*
X84826Y-39426D01*
X84826Y-39426D02*
X85476Y-39426D01*
X86176Y-38526D02*
X86826Y-38526D01*
X86826Y-38526D02*
X86826Y-39426D01*
X86826Y-39426D02*
X86176Y-39426D01*
X85476Y-38526D02*
X84826Y-38526D01*
X84661Y-39426D02*
X84661Y-38526D01*
X84661Y-38526D02*
X84011Y-38526D01*
X83311Y-39426D02*
X82661Y-39426D01*
X82661Y-39426D02*
X82661Y-38526D01*
X82661Y-38526D02*
X83311Y-38526D01*
X84011Y-39426D02*
X84661Y-39426D01*
X87064Y-43724D02*
X86164Y-43724D01*
X86164Y-43724D02*
X86164Y-44374D01*
X87064Y-45074D02*
X87064Y-45724D01*
X87064Y-45724D02*
X86164Y-45724D01*
X86164Y-45724D02*
X86164Y-45074D01*
X87064Y-44374D02*
X87064Y-43724D01*
G54D14*
X89779Y-43179D02*
X89779Y-40679D01*
X87779Y-43179D02*
X87779Y-40679D01*
X88779Y-39679D02*
G75*
G03X87779Y-40679I0J-1000D01*
G74*
G01*
X89779Y-40679D02*
G75*
G03X88779Y-39679I-1000J0D01*
G74*
G01*
X87779Y-43179D02*
G75*
G03X88779Y-44179I1000J0D01*
G74*
G01*
X88779Y-44179D02*
G75*
G03X89779Y-43179I0J1000D01*
G74*
G01*
G54D13*
X73298Y-41679D02*
X73348Y-41679D01*
X73348Y-41679D02*
X73348Y-39579D01*
X71848Y-39579D02*
X71848Y-41679D01*
X71848Y-41679D02*
X73298Y-41679D01*
X72398Y-41679D02*
X72398Y-41479D01*
X72398Y-41479D02*
X72798Y-41479D01*
X72798Y-41479D02*
X72798Y-41679D01*
X71848Y-39579D02*
X73348Y-39579D01*
X76479Y-40448D02*
X76479Y-40548D01*
X76479Y-40548D02*
X77379Y-40548D01*
X77379Y-40548D02*
X77379Y-40448D01*
X76479Y-40448D02*
X77379Y-40448D01*
X77379Y-40448D02*
X77379Y-39798D01*
X76479Y-39098D02*
X76479Y-38448D01*
X76479Y-38448D02*
X77379Y-38448D01*
X77379Y-38448D02*
X77379Y-39098D01*
X76479Y-39798D02*
X76479Y-40448D01*
X75803Y-39347D02*
X75803Y-38447D01*
X75803Y-38447D02*
X75153Y-38447D01*
X74453Y-39347D02*
X73803Y-39347D01*
X73803Y-39347D02*
X73803Y-38447D01*
X73803Y-38447D02*
X74453Y-38447D01*
X75153Y-39347D02*
X75803Y-39347D01*
X69864Y-40606D02*
X70764Y-40606D01*
X70764Y-40606D02*
X70764Y-39956D01*
X69864Y-39256D02*
X69864Y-38606D01*
X69864Y-38606D02*
X70764Y-38606D01*
X70764Y-38606D02*
X70764Y-39256D01*
X69864Y-39956D02*
X69864Y-40606D01*
X73598Y-39347D02*
X73598Y-38447D01*
X73598Y-38447D02*
X72948Y-38447D01*
X72248Y-39347D02*
X71598Y-39347D01*
X71598Y-39347D02*
X71598Y-38447D01*
X71598Y-38447D02*
X72248Y-38447D01*
X72948Y-39347D02*
X73598Y-39347D01*
X69741Y-38606D02*
X68841Y-38606D01*
X68841Y-38606D02*
X68841Y-39256D01*
X69741Y-39956D02*
X69741Y-40606D01*
X69741Y-40606D02*
X68841Y-40606D01*
X68841Y-40606D02*
X68841Y-39956D01*
X69741Y-39256D02*
X69741Y-38606D01*
X75534Y-43283D02*
X75534Y-43383D01*
X75534Y-43383D02*
X76434Y-43383D01*
X76434Y-43383D02*
X76434Y-43283D01*
X75534Y-43283D02*
X76434Y-43283D01*
X76434Y-43283D02*
X76434Y-42633D01*
X75534Y-41933D02*
X75534Y-41283D01*
X75534Y-41283D02*
X76434Y-41283D01*
X76434Y-41283D02*
X76434Y-41933D01*
X75534Y-42633D02*
X75534Y-43283D01*
X62700Y-38526D02*
X62600Y-38526D01*
X62600Y-38526D02*
X62600Y-39426D01*
X62600Y-39426D02*
X62700Y-39426D01*
X62700Y-38526D02*
X62700Y-39426D01*
X62700Y-39426D02*
X63350Y-39426D01*
X64050Y-38526D02*
X64700Y-38526D01*
X64700Y-38526D02*
X64700Y-39426D01*
X64700Y-39426D02*
X64050Y-39426D01*
X63350Y-38526D02*
X62700Y-38526D01*
X62338Y-39426D02*
X62438Y-39426D01*
X62438Y-39426D02*
X62438Y-38526D01*
X62438Y-38526D02*
X62338Y-38526D01*
X62338Y-39426D02*
X62338Y-38526D01*
X62338Y-38526D02*
X61688Y-38526D01*
X60988Y-39426D02*
X60338Y-39426D01*
X60338Y-39426D02*
X60338Y-38526D01*
X60338Y-38526D02*
X60988Y-38526D01*
X61688Y-39426D02*
X62338Y-39426D01*
X64984Y-38526D02*
X64884Y-38526D01*
X64884Y-38526D02*
X64884Y-39426D01*
X64884Y-39426D02*
X64984Y-39426D01*
X64984Y-38526D02*
X64984Y-39426D01*
X64984Y-39426D02*
X65634Y-39426D01*
X66334Y-38526D02*
X66984Y-38526D01*
X66984Y-38526D02*
X66984Y-39426D01*
X66984Y-39426D02*
X66334Y-39426D01*
X65634Y-38526D02*
X64984Y-38526D01*
X65220Y-40731D02*
X65120Y-40731D01*
X65120Y-40731D02*
X65120Y-41631D01*
X65120Y-41631D02*
X65220Y-41631D01*
X65220Y-40731D02*
X65220Y-41631D01*
X65220Y-41631D02*
X65870Y-41631D01*
X66570Y-40731D02*
X67220Y-40731D01*
X67220Y-40731D02*
X67220Y-41631D01*
X67220Y-41631D02*
X66570Y-41631D01*
X65870Y-40731D02*
X65220Y-40731D01*
X65220Y-39707D02*
X65120Y-39707D01*
X65120Y-39707D02*
X65120Y-40607D01*
X65120Y-40607D02*
X65220Y-40607D01*
X65220Y-39707D02*
X65220Y-40607D01*
X65220Y-40607D02*
X65870Y-40607D01*
X66570Y-39707D02*
X67220Y-39707D01*
X67220Y-39707D02*
X67220Y-40607D01*
X67220Y-40607D02*
X66570Y-40607D01*
X65870Y-39707D02*
X65220Y-39707D01*
X64229Y-43330D02*
X63329Y-43330D01*
X63329Y-43330D02*
X63329Y-43980D01*
X64229Y-44680D02*
X64229Y-45330D01*
X64229Y-45330D02*
X63329Y-45330D01*
X63329Y-45330D02*
X63329Y-44680D01*
X64229Y-43980D02*
X64229Y-43330D01*
X63205Y-43330D02*
X62305Y-43330D01*
X62305Y-43330D02*
X62305Y-43980D01*
X63205Y-44680D02*
X63205Y-45330D01*
X63205Y-45330D02*
X62305Y-45330D01*
X62305Y-45330D02*
X62305Y-44680D01*
X63205Y-43980D02*
X63205Y-43330D01*
X63015Y-40731D02*
X63015Y-41631D01*
X63015Y-41631D02*
X63665Y-41631D01*
X64365Y-40731D02*
X65015Y-40731D01*
X65015Y-40731D02*
X65015Y-41631D01*
X65015Y-41631D02*
X64365Y-41631D01*
X63665Y-40731D02*
X63015Y-40731D01*
X63015Y-39707D02*
X63015Y-40607D01*
X63015Y-40607D02*
X63665Y-40607D01*
X64365Y-39707D02*
X65015Y-39707D01*
X65015Y-39707D02*
X65015Y-40607D01*
X65015Y-40607D02*
X64365Y-40607D01*
X63665Y-39707D02*
X63015Y-39707D01*
G54D15*
X84945Y-41469D02*
X84945Y-41154D01*
X85065Y-41154D01*
X85095Y-41169D01*
X85110Y-41184D01*
X85125Y-41214D01*
X85125Y-41259D01*
X85110Y-41289D01*
X85095Y-41304D01*
X85065Y-41319D01*
X84945Y-41319D01*
X85410Y-41469D02*
X85260Y-41469D01*
X85260Y-41154D01*
X85665Y-41469D02*
X85515Y-41469D01*
X85515Y-41154D01*
X85935Y-41469D02*
X85755Y-41469D01*
X85845Y-41469D02*
X85845Y-41154D01*
X85815Y-41199D01*
X85785Y-41229D01*
X85755Y-41244D01*
X77244Y-42631D02*
X77244Y-42355D01*
X77300Y-42355D01*
X77334Y-42368D01*
X77356Y-42395D01*
X77368Y-42421D01*
X77379Y-42473D01*
X77379Y-42513D01*
X77368Y-42565D01*
X77356Y-42592D01*
X77334Y-42618D01*
X77300Y-42631D01*
X77244Y-42631D01*
X77469Y-42552D02*
X77581Y-42552D01*
X77446Y-42631D02*
X77525Y-42355D01*
X77604Y-42631D01*
X77817Y-42605D02*
X77806Y-42618D01*
X77772Y-42631D01*
X77750Y-42631D01*
X77716Y-42618D01*
X77693Y-42592D01*
X77682Y-42565D01*
X77671Y-42513D01*
X77671Y-42473D01*
X77682Y-42421D01*
X77693Y-42395D01*
X77716Y-42368D01*
X77750Y-42355D01*
X77772Y-42355D01*
X77806Y-42368D01*
X77817Y-42381D01*
X78042Y-42631D02*
X77907Y-42631D01*
X77974Y-42631D02*
X77974Y-42355D01*
X77952Y-42395D01*
X77929Y-42421D01*
X77907Y-42434D01*
X61485Y-41250D02*
X61597Y-41250D01*
X61462Y-41329D02*
X61541Y-41053D01*
X61620Y-41329D01*
X61698Y-41329D02*
X61698Y-41053D01*
X61754Y-41053D01*
X61788Y-41066D01*
X61811Y-41092D01*
X61822Y-41118D01*
X61833Y-41171D01*
X61833Y-41210D01*
X61822Y-41263D01*
X61811Y-41289D01*
X61788Y-41315D01*
X61754Y-41329D01*
X61698Y-41329D01*
X62069Y-41302D02*
X62058Y-41315D01*
X62024Y-41329D01*
X62002Y-41329D01*
X61968Y-41315D01*
X61945Y-41289D01*
X61934Y-41263D01*
X61923Y-41210D01*
X61923Y-41171D01*
X61934Y-41118D01*
X61945Y-41092D01*
X61968Y-41066D01*
X62002Y-41053D01*
X62024Y-41053D01*
X62058Y-41066D01*
X62069Y-41079D01*
X62294Y-41329D02*
X62159Y-41329D01*
X62226Y-41329D02*
X62226Y-41053D01*
X62204Y-41092D01*
X62181Y-41118D01*
X62159Y-41131D01*
G54D10*
X72349Y-48230D02*
X72349Y-48511D01*
X72330Y-48567D01*
X72292Y-48605D01*
X72236Y-48623D01*
X72199Y-48623D01*
X72742Y-48623D02*
X72517Y-48623D01*
X72630Y-48623D02*
X72630Y-48230D01*
X72592Y-48286D01*
X72555Y-48323D01*
X72517Y-48342D01*
X66443Y-48230D02*
X66443Y-48511D01*
X66424Y-48567D01*
X66387Y-48605D01*
X66331Y-48623D01*
X66293Y-48623D01*
X66612Y-48267D02*
X66631Y-48248D01*
X66668Y-48230D01*
X66762Y-48230D01*
X66799Y-48248D01*
X66818Y-48267D01*
X66837Y-48305D01*
X66837Y-48342D01*
X66818Y-48398D01*
X66593Y-48623D01*
X66837Y-48623D01*
G54D13*
X85571Y-44876D02*
X85557Y-44890D01*
X85514Y-44904D01*
X85486Y-44904D01*
X85443Y-44890D01*
X85414Y-44861D01*
X85400Y-44833D01*
X85386Y-44776D01*
X85386Y-44733D01*
X85400Y-44676D01*
X85414Y-44647D01*
X85443Y-44618D01*
X85486Y-44604D01*
X85514Y-44604D01*
X85557Y-44618D01*
X85571Y-44633D01*
X85857Y-44904D02*
X85686Y-44904D01*
X85771Y-44904D02*
X85771Y-44604D01*
X85743Y-44647D01*
X85714Y-44676D01*
X85686Y-44690D01*
X84574Y-44876D02*
X84560Y-44890D01*
X84517Y-44904D01*
X84488Y-44904D01*
X84446Y-44890D01*
X84417Y-44861D01*
X84403Y-44833D01*
X84388Y-44776D01*
X84388Y-44733D01*
X84403Y-44676D01*
X84417Y-44647D01*
X84446Y-44618D01*
X84488Y-44604D01*
X84517Y-44604D01*
X84560Y-44618D01*
X84574Y-44633D01*
X84688Y-44633D02*
X84703Y-44618D01*
X84731Y-44604D01*
X84803Y-44604D01*
X84831Y-44618D01*
X84846Y-44633D01*
X84860Y-44661D01*
X84860Y-44690D01*
X84846Y-44733D01*
X84674Y-44904D01*
X84860Y-44904D01*
X88518Y-39026D02*
X88532Y-39040D01*
X88546Y-39083D01*
X88546Y-39112D01*
X88532Y-39154D01*
X88503Y-39183D01*
X88475Y-39197D01*
X88418Y-39212D01*
X88375Y-39212D01*
X88318Y-39197D01*
X88289Y-39183D01*
X88260Y-39154D01*
X88246Y-39112D01*
X88246Y-39083D01*
X88260Y-39040D01*
X88275Y-39026D01*
X88246Y-38926D02*
X88246Y-38740D01*
X88360Y-38840D01*
X88360Y-38797D01*
X88375Y-38769D01*
X88389Y-38754D01*
X88418Y-38740D01*
X88489Y-38740D01*
X88518Y-38754D01*
X88532Y-38769D01*
X88546Y-38797D01*
X88546Y-38883D01*
X88532Y-38912D01*
X88518Y-38926D01*
X85919Y-39026D02*
X85933Y-39040D01*
X85948Y-39083D01*
X85948Y-39112D01*
X85933Y-39154D01*
X85905Y-39183D01*
X85876Y-39197D01*
X85819Y-39212D01*
X85776Y-39212D01*
X85719Y-39197D01*
X85691Y-39183D01*
X85662Y-39154D01*
X85648Y-39112D01*
X85648Y-39083D01*
X85662Y-39040D01*
X85676Y-39026D01*
X85748Y-38769D02*
X85948Y-38769D01*
X85633Y-38840D02*
X85848Y-38912D01*
X85848Y-38726D01*
X83793Y-39026D02*
X83807Y-39040D01*
X83822Y-39083D01*
X83822Y-39112D01*
X83807Y-39154D01*
X83779Y-39183D01*
X83750Y-39197D01*
X83693Y-39212D01*
X83650Y-39212D01*
X83593Y-39197D01*
X83565Y-39183D01*
X83536Y-39154D01*
X83522Y-39112D01*
X83522Y-39083D01*
X83536Y-39040D01*
X83550Y-39026D01*
X83522Y-38754D02*
X83522Y-38897D01*
X83665Y-38912D01*
X83650Y-38897D01*
X83636Y-38869D01*
X83636Y-38797D01*
X83650Y-38769D01*
X83665Y-38754D01*
X83693Y-38740D01*
X83765Y-38740D01*
X83793Y-38754D01*
X83807Y-38769D01*
X83822Y-38797D01*
X83822Y-38869D01*
X83807Y-38897D01*
X83793Y-38912D01*
X86569Y-44876D02*
X86554Y-44890D01*
X86511Y-44904D01*
X86483Y-44904D01*
X86440Y-44890D01*
X86411Y-44861D01*
X86397Y-44833D01*
X86383Y-44776D01*
X86383Y-44733D01*
X86397Y-44676D01*
X86411Y-44647D01*
X86440Y-44618D01*
X86483Y-44604D01*
X86511Y-44604D01*
X86554Y-44618D01*
X86569Y-44633D01*
X86826Y-44604D02*
X86769Y-44604D01*
X86740Y-44618D01*
X86726Y-44633D01*
X86697Y-44676D01*
X86683Y-44733D01*
X86683Y-44847D01*
X86697Y-44876D01*
X86711Y-44890D01*
X86740Y-44904D01*
X86797Y-44904D01*
X86826Y-44890D01*
X86840Y-44876D01*
X86854Y-44847D01*
X86854Y-44776D01*
X86840Y-44747D01*
X86826Y-44733D01*
X86797Y-44718D01*
X86740Y-44718D01*
X86711Y-44733D01*
X86697Y-44747D01*
X86683Y-44776D01*
G54D16*
X88333Y-41611D02*
X88733Y-42211D01*
X88733Y-41611D02*
X88333Y-42211D01*
X89276Y-42211D02*
X88933Y-42211D01*
X89104Y-42211D02*
X89104Y-41611D01*
X89047Y-41697D01*
X88990Y-41754D01*
X88933Y-41782D01*
G54D17*
X71980Y-40972D02*
X72344Y-40972D01*
X72387Y-40951D01*
X72409Y-40929D01*
X72430Y-40887D01*
X72430Y-40801D01*
X72409Y-40758D01*
X72387Y-40737D01*
X72344Y-40715D01*
X71980Y-40715D01*
X72430Y-40265D02*
X72430Y-40522D01*
X72430Y-40394D02*
X71980Y-40394D01*
X72044Y-40437D01*
X72087Y-40479D01*
X72109Y-40522D01*
G54D13*
X76879Y-39541D02*
X76864Y-39555D01*
X76821Y-39570D01*
X76793Y-39570D01*
X76750Y-39555D01*
X76721Y-39527D01*
X76707Y-39498D01*
X76693Y-39441D01*
X76693Y-39398D01*
X76707Y-39341D01*
X76721Y-39313D01*
X76750Y-39284D01*
X76793Y-39270D01*
X76821Y-39270D01*
X76864Y-39284D01*
X76879Y-39298D01*
X77050Y-39398D02*
X77021Y-39384D01*
X77007Y-39370D01*
X76993Y-39341D01*
X76993Y-39327D01*
X77007Y-39298D01*
X77021Y-39284D01*
X77050Y-39270D01*
X77107Y-39270D01*
X77136Y-39284D01*
X77150Y-39298D01*
X77164Y-39327D01*
X77164Y-39341D01*
X77150Y-39370D01*
X77136Y-39384D01*
X77107Y-39398D01*
X77050Y-39398D01*
X77021Y-39413D01*
X77007Y-39427D01*
X76993Y-39455D01*
X76993Y-39513D01*
X77007Y-39541D01*
X77021Y-39555D01*
X77050Y-39570D01*
X77107Y-39570D01*
X77136Y-39555D01*
X77150Y-39541D01*
X77164Y-39513D01*
X77164Y-39455D01*
X77150Y-39427D01*
X77136Y-39413D01*
X77107Y-39398D01*
X74924Y-38947D02*
X74781Y-39047D01*
X74924Y-39119D02*
X74624Y-39119D01*
X74624Y-39004D01*
X74638Y-38976D01*
X74653Y-38961D01*
X74681Y-38947D01*
X74724Y-38947D01*
X74753Y-38961D01*
X74767Y-38976D01*
X74781Y-39004D01*
X74781Y-39119D01*
X74924Y-38661D02*
X74924Y-38833D01*
X74924Y-38747D02*
X74624Y-38747D01*
X74667Y-38776D01*
X74696Y-38804D01*
X74710Y-38833D01*
X70264Y-39727D02*
X70164Y-39584D01*
X70093Y-39727D02*
X70093Y-39427D01*
X70207Y-39427D01*
X70236Y-39442D01*
X70250Y-39456D01*
X70264Y-39484D01*
X70264Y-39527D01*
X70250Y-39556D01*
X70236Y-39570D01*
X70207Y-39584D01*
X70093Y-39584D01*
X70379Y-39456D02*
X70393Y-39442D01*
X70422Y-39427D01*
X70493Y-39427D01*
X70522Y-39442D01*
X70536Y-39456D01*
X70550Y-39484D01*
X70550Y-39513D01*
X70536Y-39556D01*
X70364Y-39727D01*
X70550Y-39727D01*
X72691Y-38947D02*
X72705Y-38961D01*
X72719Y-39004D01*
X72719Y-39033D01*
X72705Y-39076D01*
X72676Y-39104D01*
X72648Y-39119D01*
X72591Y-39133D01*
X72548Y-39133D01*
X72491Y-39119D01*
X72462Y-39104D01*
X72434Y-39076D01*
X72419Y-39033D01*
X72419Y-39004D01*
X72434Y-38961D01*
X72448Y-38947D01*
X72719Y-38804D02*
X72719Y-38747D01*
X72705Y-38719D01*
X72691Y-38704D01*
X72648Y-38676D01*
X72591Y-38661D01*
X72476Y-38661D01*
X72448Y-38676D01*
X72434Y-38690D01*
X72419Y-38719D01*
X72419Y-38776D01*
X72434Y-38804D01*
X72448Y-38819D01*
X72476Y-38833D01*
X72548Y-38833D01*
X72576Y-38819D01*
X72591Y-38804D01*
X72605Y-38776D01*
X72605Y-38719D01*
X72591Y-38690D01*
X72576Y-38676D01*
X72548Y-38661D01*
X69098Y-39699D02*
X69084Y-39713D01*
X69041Y-39727D01*
X69012Y-39727D01*
X68969Y-39713D01*
X68941Y-39684D01*
X68927Y-39656D01*
X68912Y-39599D01*
X68912Y-39556D01*
X68927Y-39499D01*
X68941Y-39470D01*
X68969Y-39442D01*
X69012Y-39427D01*
X69041Y-39427D01*
X69084Y-39442D01*
X69098Y-39456D01*
X69384Y-39727D02*
X69212Y-39727D01*
X69298Y-39727D02*
X69298Y-39427D01*
X69269Y-39470D01*
X69241Y-39499D01*
X69212Y-39513D01*
X69569Y-39427D02*
X69598Y-39427D01*
X69627Y-39442D01*
X69641Y-39456D01*
X69655Y-39484D01*
X69669Y-39542D01*
X69669Y-39613D01*
X69655Y-39670D01*
X69641Y-39699D01*
X69627Y-39713D01*
X69598Y-39727D01*
X69569Y-39727D01*
X69541Y-39713D01*
X69527Y-39699D01*
X69512Y-39670D01*
X69498Y-39613D01*
X69498Y-39542D01*
X69512Y-39484D01*
X69527Y-39456D01*
X69541Y-39442D01*
X69569Y-39427D01*
X75934Y-42376D02*
X75919Y-42390D01*
X75877Y-42404D01*
X75848Y-42404D01*
X75805Y-42390D01*
X75777Y-42362D01*
X75762Y-42333D01*
X75748Y-42276D01*
X75748Y-42233D01*
X75762Y-42176D01*
X75777Y-42147D01*
X75805Y-42119D01*
X75848Y-42104D01*
X75877Y-42104D01*
X75919Y-42119D01*
X75934Y-42133D01*
X76034Y-42104D02*
X76234Y-42104D01*
X76105Y-42404D01*
X63793Y-39169D02*
X63807Y-39183D01*
X63822Y-39226D01*
X63822Y-39254D01*
X63807Y-39297D01*
X63779Y-39326D01*
X63750Y-39340D01*
X63693Y-39354D01*
X63650Y-39354D01*
X63593Y-39340D01*
X63565Y-39326D01*
X63536Y-39297D01*
X63522Y-39254D01*
X63522Y-39226D01*
X63536Y-39183D01*
X63550Y-39169D01*
X63822Y-38883D02*
X63822Y-39054D01*
X63822Y-38969D02*
X63522Y-38969D01*
X63565Y-38997D01*
X63593Y-39026D01*
X63607Y-39054D01*
X63522Y-38783D02*
X63522Y-38583D01*
X63822Y-38712D01*
X61431Y-39169D02*
X61445Y-39183D01*
X61460Y-39226D01*
X61460Y-39254D01*
X61445Y-39297D01*
X61417Y-39326D01*
X61388Y-39340D01*
X61331Y-39354D01*
X61288Y-39354D01*
X61231Y-39340D01*
X61202Y-39326D01*
X61174Y-39297D01*
X61160Y-39254D01*
X61160Y-39226D01*
X61174Y-39183D01*
X61188Y-39169D01*
X61460Y-38883D02*
X61460Y-39054D01*
X61460Y-38969D02*
X61160Y-38969D01*
X61202Y-38997D01*
X61231Y-39026D01*
X61245Y-39054D01*
X61160Y-38626D02*
X61160Y-38683D01*
X61174Y-38712D01*
X61188Y-38726D01*
X61231Y-38754D01*
X61288Y-38769D01*
X61402Y-38769D01*
X61431Y-38754D01*
X61445Y-38740D01*
X61460Y-38712D01*
X61460Y-38654D01*
X61445Y-38626D01*
X61431Y-38612D01*
X61402Y-38597D01*
X61331Y-38597D01*
X61302Y-38612D01*
X61288Y-38626D01*
X61274Y-38654D01*
X61274Y-38712D01*
X61288Y-38740D01*
X61302Y-38754D01*
X61331Y-38769D01*
X66077Y-39169D02*
X66091Y-39183D01*
X66105Y-39226D01*
X66105Y-39254D01*
X66091Y-39297D01*
X66062Y-39326D01*
X66034Y-39340D01*
X65977Y-39354D01*
X65934Y-39354D01*
X65877Y-39340D01*
X65848Y-39326D01*
X65819Y-39297D01*
X65805Y-39254D01*
X65805Y-39226D01*
X65819Y-39183D01*
X65834Y-39169D01*
X66105Y-38883D02*
X66105Y-39054D01*
X66105Y-38969D02*
X65805Y-38969D01*
X65848Y-38997D01*
X65877Y-39026D01*
X65891Y-39054D01*
X65805Y-38612D02*
X65805Y-38754D01*
X65948Y-38769D01*
X65934Y-38754D01*
X65919Y-38726D01*
X65919Y-38654D01*
X65934Y-38626D01*
X65948Y-38612D01*
X65977Y-38597D01*
X66048Y-38597D01*
X66077Y-38612D01*
X66091Y-38626D01*
X66105Y-38654D01*
X66105Y-38726D01*
X66091Y-38754D01*
X66077Y-38769D01*
X66313Y-41373D02*
X66327Y-41388D01*
X66341Y-41431D01*
X66341Y-41459D01*
X66327Y-41502D01*
X66299Y-41531D01*
X66270Y-41545D01*
X66213Y-41559D01*
X66170Y-41559D01*
X66113Y-41545D01*
X66084Y-41531D01*
X66056Y-41502D01*
X66041Y-41459D01*
X66041Y-41431D01*
X66056Y-41388D01*
X66070Y-41373D01*
X66341Y-41088D02*
X66341Y-41259D01*
X66341Y-41173D02*
X66041Y-41173D01*
X66084Y-41202D01*
X66113Y-41231D01*
X66127Y-41259D01*
X66341Y-40802D02*
X66341Y-40973D01*
X66341Y-40888D02*
X66041Y-40888D01*
X66084Y-40916D01*
X66113Y-40945D01*
X66127Y-40973D01*
X66313Y-40350D02*
X66327Y-40364D01*
X66341Y-40407D01*
X66341Y-40436D01*
X66327Y-40478D01*
X66299Y-40507D01*
X66270Y-40521D01*
X66213Y-40536D01*
X66170Y-40536D01*
X66113Y-40521D01*
X66084Y-40507D01*
X66056Y-40478D01*
X66041Y-40436D01*
X66041Y-40407D01*
X66056Y-40364D01*
X66070Y-40350D01*
X66341Y-40064D02*
X66341Y-40236D01*
X66341Y-40150D02*
X66041Y-40150D01*
X66084Y-40178D01*
X66113Y-40207D01*
X66127Y-40236D01*
X66070Y-39950D02*
X66056Y-39936D01*
X66041Y-39907D01*
X66041Y-39836D01*
X66056Y-39807D01*
X66070Y-39793D01*
X66099Y-39778D01*
X66127Y-39778D01*
X66170Y-39793D01*
X66341Y-39964D01*
X66341Y-39778D01*
X63586Y-44423D02*
X63572Y-44437D01*
X63529Y-44452D01*
X63500Y-44452D01*
X63458Y-44437D01*
X63429Y-44409D01*
X63415Y-44380D01*
X63400Y-44323D01*
X63400Y-44280D01*
X63415Y-44223D01*
X63429Y-44194D01*
X63458Y-44166D01*
X63500Y-44152D01*
X63529Y-44152D01*
X63572Y-44166D01*
X63586Y-44180D01*
X63872Y-44452D02*
X63700Y-44452D01*
X63786Y-44452D02*
X63786Y-44152D01*
X63758Y-44194D01*
X63729Y-44223D01*
X63700Y-44237D01*
X63972Y-44152D02*
X64158Y-44152D01*
X64058Y-44266D01*
X64100Y-44266D01*
X64129Y-44280D01*
X64143Y-44294D01*
X64158Y-44323D01*
X64158Y-44394D01*
X64143Y-44423D01*
X64129Y-44437D01*
X64100Y-44452D01*
X64015Y-44452D01*
X63986Y-44437D01*
X63972Y-44423D01*
X62563Y-44423D02*
X62548Y-44437D01*
X62505Y-44452D01*
X62477Y-44452D01*
X62434Y-44437D01*
X62405Y-44409D01*
X62391Y-44380D01*
X62377Y-44323D01*
X62377Y-44280D01*
X62391Y-44223D01*
X62405Y-44194D01*
X62434Y-44166D01*
X62477Y-44152D01*
X62505Y-44152D01*
X62548Y-44166D01*
X62563Y-44180D01*
X62848Y-44452D02*
X62677Y-44452D01*
X62763Y-44452D02*
X62763Y-44152D01*
X62734Y-44194D01*
X62705Y-44223D01*
X62677Y-44237D01*
X63105Y-44252D02*
X63105Y-44452D01*
X63034Y-44137D02*
X62963Y-44352D01*
X63148Y-44352D01*
X64137Y-41231D02*
X63994Y-41331D01*
X64137Y-41402D02*
X63837Y-41402D01*
X63837Y-41288D01*
X63851Y-41259D01*
X63865Y-41245D01*
X63894Y-41231D01*
X63937Y-41231D01*
X63965Y-41245D01*
X63980Y-41259D01*
X63994Y-41288D01*
X63994Y-41402D01*
X63837Y-41131D02*
X63837Y-40945D01*
X63951Y-41045D01*
X63951Y-41002D01*
X63965Y-40973D01*
X63980Y-40959D01*
X64008Y-40945D01*
X64080Y-40945D01*
X64108Y-40959D01*
X64122Y-40973D01*
X64137Y-41002D01*
X64137Y-41088D01*
X64122Y-41116D01*
X64108Y-41131D01*
X64137Y-40207D02*
X63994Y-40307D01*
X64137Y-40378D02*
X63837Y-40378D01*
X63837Y-40264D01*
X63851Y-40236D01*
X63865Y-40221D01*
X63894Y-40207D01*
X63937Y-40207D01*
X63965Y-40221D01*
X63980Y-40236D01*
X63994Y-40264D01*
X63994Y-40378D01*
X63937Y-39950D02*
X64137Y-39950D01*
X63822Y-40021D02*
X64037Y-40093D01*
X64037Y-39907D01*
M02*
