G04 (created by PCBNEW (2013-07-07 BZR 4022)-stable) date 06/09/2014 14:39:09*
%MOIN*%
G04 Gerber Fmt 3.4, Leading zero omitted, Abs format*
%FSLAX34Y34*%
G01*
G70*
G90*
G04 APERTURE LIST*
%ADD10C,0.00590551*%
%ADD11C,0.0001*%
G04 APERTURE END LIST*
G54D10*
G54D11*
G36*
X65469Y-33207D02*
X65468Y-33335D01*
X65463Y-33419D01*
X65452Y-33470D01*
X65433Y-33498D01*
X65413Y-33513D01*
X65356Y-33532D01*
X65269Y-33554D01*
X65269Y-33118D01*
X65267Y-32996D01*
X65255Y-32879D01*
X65232Y-32788D01*
X65205Y-32748D01*
X65150Y-32726D01*
X65050Y-32698D01*
X64925Y-32668D01*
X64907Y-32663D01*
X64720Y-32623D01*
X64588Y-32592D01*
X64498Y-32565D01*
X64440Y-32534D01*
X64401Y-32496D01*
X64372Y-32444D01*
X64340Y-32374D01*
X64286Y-32254D01*
X64218Y-32105D01*
X64150Y-31959D01*
X64149Y-31955D01*
X64035Y-31712D01*
X64254Y-31376D01*
X64340Y-31241D01*
X64409Y-31122D01*
X64456Y-31033D01*
X64472Y-30987D01*
X64455Y-30933D01*
X64401Y-30859D01*
X64305Y-30756D01*
X64201Y-30656D01*
X64084Y-30547D01*
X63730Y-30781D01*
X63594Y-30870D01*
X63477Y-30943D01*
X63391Y-30994D01*
X63348Y-31016D01*
X63346Y-31016D01*
X63297Y-31003D01*
X63203Y-30968D01*
X63079Y-30918D01*
X62941Y-30860D01*
X62803Y-30799D01*
X62682Y-30743D01*
X62592Y-30699D01*
X62548Y-30672D01*
X62524Y-30623D01*
X62492Y-30524D01*
X62457Y-30388D01*
X62426Y-30249D01*
X62382Y-30054D01*
X62341Y-29920D01*
X62304Y-29843D01*
X62288Y-29827D01*
X62215Y-29800D01*
X62103Y-29786D01*
X61975Y-29784D01*
X61858Y-29794D01*
X61775Y-29817D01*
X61764Y-29824D01*
X61728Y-29882D01*
X61688Y-30002D01*
X61647Y-30178D01*
X61640Y-30216D01*
X61610Y-30365D01*
X61583Y-30494D01*
X61563Y-30586D01*
X61555Y-30620D01*
X61519Y-30653D01*
X61433Y-30706D01*
X61309Y-30771D01*
X61157Y-30841D01*
X61143Y-30848D01*
X60748Y-31022D01*
X60636Y-30964D01*
X60558Y-30919D01*
X60445Y-30848D01*
X60317Y-30762D01*
X60264Y-30725D01*
X60142Y-30641D01*
X60060Y-30591D01*
X60007Y-30570D01*
X59967Y-30572D01*
X59930Y-30591D01*
X59867Y-30642D01*
X59785Y-30716D01*
X59701Y-30800D01*
X59629Y-30879D01*
X59583Y-30938D01*
X59573Y-30958D01*
X59592Y-31018D01*
X59643Y-31117D01*
X59719Y-31245D01*
X59812Y-31388D01*
X59854Y-31447D01*
X59926Y-31553D01*
X59980Y-31638D01*
X60005Y-31690D01*
X60007Y-31695D01*
X59993Y-31743D01*
X59959Y-31835D01*
X59908Y-31958D01*
X59848Y-32098D01*
X59785Y-32240D01*
X59725Y-32371D01*
X59674Y-32476D01*
X59638Y-32542D01*
X59627Y-32556D01*
X59580Y-32571D01*
X59484Y-32594D01*
X59355Y-32620D01*
X59274Y-32636D01*
X59091Y-32668D01*
X58963Y-32695D01*
X58880Y-32724D01*
X58834Y-32763D01*
X58812Y-32820D01*
X58807Y-32903D01*
X58807Y-33007D01*
X58811Y-33136D01*
X58820Y-33242D01*
X58833Y-33305D01*
X58836Y-33310D01*
X58878Y-33334D01*
X58972Y-33365D01*
X59102Y-33399D01*
X59234Y-33427D01*
X59384Y-33459D01*
X59511Y-33490D01*
X59600Y-33517D01*
X59634Y-33533D01*
X59659Y-33578D01*
X59699Y-33669D01*
X59746Y-33787D01*
X59757Y-33816D01*
X59814Y-33962D01*
X59876Y-34109D01*
X59929Y-34224D01*
X59930Y-34227D01*
X60010Y-34388D01*
X59792Y-34723D01*
X59707Y-34856D01*
X59637Y-34971D01*
X59590Y-35054D01*
X59573Y-35094D01*
X59595Y-35132D01*
X59652Y-35201D01*
X59730Y-35287D01*
X59816Y-35376D01*
X59896Y-35453D01*
X59955Y-35503D01*
X59979Y-35516D01*
X60014Y-35498D01*
X60093Y-35451D01*
X60204Y-35380D01*
X60330Y-35297D01*
X60657Y-35078D01*
X60766Y-35130D01*
X60848Y-35165D01*
X60905Y-35182D01*
X60910Y-35183D01*
X60942Y-35152D01*
X60993Y-35065D01*
X61058Y-34929D01*
X61136Y-34749D01*
X61222Y-34534D01*
X61277Y-34387D01*
X61406Y-34042D01*
X61239Y-33855D01*
X61102Y-33690D01*
X61010Y-33543D01*
X60955Y-33396D01*
X60929Y-33225D01*
X60923Y-33049D01*
X60926Y-32890D01*
X60935Y-32776D01*
X60957Y-32683D01*
X60994Y-32590D01*
X61017Y-32542D01*
X61144Y-32346D01*
X61317Y-32171D01*
X61515Y-32035D01*
X61626Y-31984D01*
X61824Y-31934D01*
X62047Y-31917D01*
X62264Y-31932D01*
X62409Y-31966D01*
X62590Y-32054D01*
X62769Y-32186D01*
X62924Y-32344D01*
X63022Y-32485D01*
X63070Y-32582D01*
X63101Y-32672D01*
X63120Y-32777D01*
X63131Y-32919D01*
X63134Y-32988D01*
X63139Y-33146D01*
X63135Y-33258D01*
X63120Y-33346D01*
X63091Y-33430D01*
X63065Y-33488D01*
X63000Y-33608D01*
X62910Y-33745D01*
X62823Y-33862D01*
X62767Y-33929D01*
X62725Y-33982D01*
X62700Y-34031D01*
X62691Y-34085D01*
X62701Y-34155D01*
X62730Y-34250D01*
X62780Y-34379D01*
X62852Y-34552D01*
X62932Y-34743D01*
X63006Y-34917D01*
X63060Y-35038D01*
X63100Y-35114D01*
X63131Y-35155D01*
X63159Y-35168D01*
X63187Y-35163D01*
X63359Y-35136D01*
X63530Y-35172D01*
X63628Y-35224D01*
X63736Y-35299D01*
X63858Y-35383D01*
X63903Y-35414D01*
X63991Y-35471D01*
X64058Y-35508D01*
X64081Y-35516D01*
X64118Y-35494D01*
X64188Y-35437D01*
X64280Y-35355D01*
X64307Y-35329D01*
X64392Y-35247D01*
X64448Y-35182D01*
X64473Y-35123D01*
X64465Y-35056D01*
X64425Y-34969D01*
X64351Y-34850D01*
X64254Y-34703D01*
X64066Y-34420D01*
X64219Y-34040D01*
X64279Y-33889D01*
X64328Y-33757D01*
X64361Y-33658D01*
X64373Y-33607D01*
X64376Y-33574D01*
X64392Y-33549D01*
X64432Y-33527D01*
X64505Y-33503D01*
X64622Y-33474D01*
X64792Y-33436D01*
X64813Y-33431D01*
X65007Y-33384D01*
X65146Y-33340D01*
X65223Y-33301D01*
X65234Y-33290D01*
X65258Y-33223D01*
X65269Y-33118D01*
X65269Y-33554D01*
X65250Y-33559D01*
X65109Y-33590D01*
X64965Y-33619D01*
X64579Y-33691D01*
X64527Y-33812D01*
X64457Y-33983D01*
X64399Y-34141D01*
X64359Y-34272D01*
X64340Y-34360D01*
X64340Y-34371D01*
X64358Y-34427D01*
X64406Y-34523D01*
X64477Y-34646D01*
X64557Y-34770D01*
X64642Y-34901D01*
X64711Y-35013D01*
X64757Y-35095D01*
X64773Y-35133D01*
X64750Y-35172D01*
X64689Y-35244D01*
X64601Y-35340D01*
X64496Y-35448D01*
X64387Y-35556D01*
X64283Y-35654D01*
X64196Y-35731D01*
X64137Y-35776D01*
X64121Y-35783D01*
X64077Y-35765D01*
X63991Y-35717D01*
X63876Y-35646D01*
X63753Y-35566D01*
X63620Y-35480D01*
X63504Y-35411D01*
X63418Y-35365D01*
X63376Y-35350D01*
X63309Y-35367D01*
X63240Y-35399D01*
X63123Y-35443D01*
X63028Y-35433D01*
X62970Y-35376D01*
X62939Y-35312D01*
X62890Y-35199D01*
X62827Y-35049D01*
X62755Y-34877D01*
X62679Y-34694D01*
X62606Y-34513D01*
X62540Y-34348D01*
X62486Y-34211D01*
X62451Y-34115D01*
X62447Y-34104D01*
X62392Y-33943D01*
X62491Y-33872D01*
X62671Y-33713D01*
X62820Y-33522D01*
X62878Y-33419D01*
X62927Y-33264D01*
X62949Y-33077D01*
X62944Y-32885D01*
X62911Y-32717D01*
X62898Y-32680D01*
X62783Y-32487D01*
X62624Y-32332D01*
X62432Y-32218D01*
X62218Y-32147D01*
X61995Y-32123D01*
X61774Y-32148D01*
X61567Y-32226D01*
X61434Y-32315D01*
X61290Y-32476D01*
X61186Y-32677D01*
X61129Y-32903D01*
X61120Y-33138D01*
X61155Y-33335D01*
X61191Y-33443D01*
X61239Y-33532D01*
X61311Y-33623D01*
X61420Y-33734D01*
X61429Y-33743D01*
X61533Y-33846D01*
X61596Y-33917D01*
X61626Y-33970D01*
X61632Y-34019D01*
X61627Y-34055D01*
X61607Y-34122D01*
X61566Y-34236D01*
X61509Y-34385D01*
X61441Y-34557D01*
X61366Y-34741D01*
X61289Y-34925D01*
X61215Y-35098D01*
X61149Y-35248D01*
X61096Y-35365D01*
X61059Y-35435D01*
X61050Y-35449D01*
X61014Y-35476D01*
X60970Y-35473D01*
X60895Y-35436D01*
X60874Y-35424D01*
X60782Y-35378D01*
X60706Y-35352D01*
X60687Y-35349D01*
X60638Y-35367D01*
X60548Y-35415D01*
X60432Y-35486D01*
X60344Y-35544D01*
X60217Y-35628D01*
X60104Y-35699D01*
X60021Y-35746D01*
X59989Y-35761D01*
X59952Y-35760D01*
X59900Y-35734D01*
X59827Y-35677D01*
X59724Y-35581D01*
X59595Y-35454D01*
X59268Y-35126D01*
X59504Y-34779D01*
X59594Y-34643D01*
X59668Y-34524D01*
X59719Y-34433D01*
X59740Y-34384D01*
X59740Y-34383D01*
X59728Y-34331D01*
X59697Y-34234D01*
X59652Y-34108D01*
X59621Y-34025D01*
X59569Y-33892D01*
X59524Y-33798D01*
X59475Y-33735D01*
X59407Y-33693D01*
X59307Y-33662D01*
X59163Y-33633D01*
X59050Y-33613D01*
X58918Y-33587D01*
X58790Y-33560D01*
X58732Y-33546D01*
X58607Y-33513D01*
X58607Y-33035D01*
X58607Y-32556D01*
X58765Y-32521D01*
X58878Y-32496D01*
X59026Y-32466D01*
X59177Y-32436D01*
X59184Y-32434D01*
X59311Y-32408D01*
X59413Y-32384D01*
X59471Y-32366D01*
X59477Y-32364D01*
X59512Y-32320D01*
X59564Y-32230D01*
X59623Y-32109D01*
X59683Y-31974D01*
X59723Y-31874D01*
X59783Y-31715D01*
X59526Y-31329D01*
X59270Y-30944D01*
X59563Y-30643D01*
X59681Y-30526D01*
X59787Y-30425D01*
X59871Y-30352D01*
X59922Y-30317D01*
X59923Y-30316D01*
X59964Y-30305D01*
X60008Y-30310D01*
X60066Y-30335D01*
X60148Y-30385D01*
X60264Y-30467D01*
X60386Y-30557D01*
X60512Y-30648D01*
X60601Y-30706D01*
X60668Y-30735D01*
X60729Y-30745D01*
X60791Y-30741D01*
X60929Y-30712D01*
X61074Y-30660D01*
X61208Y-30594D01*
X61313Y-30523D01*
X61370Y-30456D01*
X61372Y-30453D01*
X61393Y-30383D01*
X61421Y-30266D01*
X61451Y-30120D01*
X61472Y-30007D01*
X61499Y-29859D01*
X61525Y-29734D01*
X61546Y-29647D01*
X61556Y-29617D01*
X61595Y-29604D01*
X61686Y-29594D01*
X61812Y-29587D01*
X61958Y-29583D01*
X62109Y-29583D01*
X62249Y-29586D01*
X62362Y-29593D01*
X62431Y-29603D01*
X62468Y-29621D01*
X62500Y-29656D01*
X62528Y-29720D01*
X62558Y-29820D01*
X62591Y-29966D01*
X62630Y-30167D01*
X62638Y-30208D01*
X62669Y-30347D01*
X62701Y-30462D01*
X62730Y-30535D01*
X62744Y-30552D01*
X62795Y-30578D01*
X62891Y-30618D01*
X63013Y-30667D01*
X63051Y-30682D01*
X63189Y-30732D01*
X63281Y-30756D01*
X63343Y-30758D01*
X63380Y-30745D01*
X63456Y-30701D01*
X63566Y-30630D01*
X63694Y-30545D01*
X63820Y-30459D01*
X63925Y-30385D01*
X63977Y-30345D01*
X64072Y-30296D01*
X64132Y-30297D01*
X64178Y-30327D01*
X64255Y-30394D01*
X64354Y-30486D01*
X64462Y-30592D01*
X64568Y-30701D01*
X64663Y-30802D01*
X64734Y-30884D01*
X64770Y-30936D01*
X64773Y-30945D01*
X64756Y-30983D01*
X64708Y-31065D01*
X64637Y-31179D01*
X64551Y-31314D01*
X64540Y-31330D01*
X64451Y-31469D01*
X64378Y-31592D01*
X64327Y-31687D01*
X64307Y-31740D01*
X64307Y-31743D01*
X64323Y-31823D01*
X64365Y-31940D01*
X64423Y-32071D01*
X64488Y-32196D01*
X64549Y-32295D01*
X64586Y-32337D01*
X64686Y-32392D01*
X64845Y-32436D01*
X64913Y-32448D01*
X65059Y-32474D01*
X65203Y-32503D01*
X65307Y-32528D01*
X65457Y-32568D01*
X65466Y-33024D01*
X65469Y-33207D01*
X65469Y-33207D01*
X65469Y-33207D01*
G37*
M02*
