M48
INCH,TZ
T1C0.025
T2C0.030
T3C0.040
T4C0.063
%
G90
G05
T1
X60472Y-41654
X60630Y-41024
X61024Y-41496
X61969Y-40945
X62047Y-41732
X62205Y-39685
X63858Y-42047
X64016Y-39764
X65984Y-39055
X69370Y-40945
X70315Y-40866
X73071Y-39921
X73937Y-41969
X74409Y-41024
X75197Y-41732
X75197Y-43465
X75197Y-44173
X75748Y-42283
X76457Y-42205
X77087Y-42756
X77244Y-40945
X77638Y-40630
X82362Y-38898
X83071Y-45591
X83386Y-40394
X83386Y-42677
X83780Y-44016
X83780Y-44646
X83858Y-45354
X85827Y-39134
X86142Y-42913
X86693Y-42835
X87087Y-38819
X87244Y-40394
X87402Y-45354
X89370Y-39764
T2
X88780Y-40929
X88780Y-42929
T3
X58400Y-38875
X58400Y-39875
X58400Y-40875
X58400Y-41875
X59400Y-38875
X59400Y-39875
X59400Y-40875
X59400Y-41875
X59400Y-42875
X59400Y-43875
X59400Y-44875
X59400Y-45875
X79400Y-38875
X79400Y-39875
X79400Y-40875
X79400Y-41875
X80400Y-38875
X80400Y-39875
X80400Y-40875
X80400Y-41875
X80400Y-42875
X80400Y-43875
X80400Y-44875
X80400Y-45875
X81400Y-38875
X81400Y-39875
X81400Y-40875
X81400Y-41875
X81400Y-42875
X81400Y-43875
X81400Y-44875
X81400Y-45875
X82400Y-42875
X82400Y-43875
X82400Y-44875
X82400Y-45875
T4
X64803Y-42756
X65787Y-42756
X66772Y-44724
X67756Y-42756
X68740Y-42756
X70709Y-42756
X71693Y-42756
X72677Y-44724
X73661Y-42756
X74646Y-42756
T0
M30
