G04 (created by PCBNEW (2013-07-07 BZR 4022)-stable) date 06/09/2014 14:39:09*
%MOIN*%
G04 Gerber Fmt 3.4, Leading zero omitted, Abs format*
%FSLAX34Y34*%
G01*
G70*
G90*
G04 APERTURE LIST*
%ADD10C,0.00590551*%
%ADD11C,0.011811*%
%ADD12R,0.06X0.06*%
%ADD13C,0.06*%
%ADD14C,0.0787402*%
%ADD15C,0.056*%
%ADD16C,0.035*%
%ADD17C,0.01*%
%ADD18C,0.008*%
G04 APERTURE END LIST*
G54D10*
G54D11*
X49329Y-36447D02*
X49487Y-36222D01*
X49599Y-36447D02*
X49599Y-35974D01*
X49419Y-35974D01*
X49374Y-35997D01*
X49352Y-36019D01*
X49329Y-36064D01*
X49329Y-36132D01*
X49352Y-36177D01*
X49374Y-36199D01*
X49419Y-36222D01*
X49599Y-36222D01*
X48947Y-36424D02*
X48992Y-36447D01*
X49082Y-36447D01*
X49127Y-36424D01*
X49149Y-36379D01*
X49149Y-36199D01*
X49127Y-36154D01*
X49082Y-36132D01*
X48992Y-36132D01*
X48947Y-36154D01*
X48924Y-36199D01*
X48924Y-36244D01*
X49149Y-36289D01*
X48767Y-36132D02*
X48654Y-36447D01*
X48542Y-36132D01*
X47754Y-36447D02*
X48024Y-36447D01*
X47889Y-36447D02*
X47889Y-35974D01*
X47934Y-36042D01*
X47979Y-36087D01*
X48024Y-36109D01*
X47552Y-36402D02*
X47529Y-36424D01*
X47552Y-36447D01*
X47574Y-36424D01*
X47552Y-36402D01*
X47552Y-36447D01*
X47237Y-35974D02*
X47192Y-35974D01*
X47147Y-35997D01*
X47125Y-36019D01*
X47102Y-36064D01*
X47080Y-36154D01*
X47080Y-36267D01*
X47102Y-36357D01*
X47125Y-36402D01*
X47147Y-36424D01*
X47192Y-36447D01*
X47237Y-36447D01*
X47282Y-36424D01*
X47304Y-36402D01*
X47327Y-36357D01*
X47349Y-36267D01*
X47349Y-36154D01*
X47327Y-36064D01*
X47304Y-36019D01*
X47282Y-35997D01*
X47237Y-35974D01*
G54D12*
X56051Y-29181D03*
G54D13*
X56051Y-35181D03*
X56051Y-30181D03*
X56051Y-36181D03*
X56051Y-31181D03*
X56051Y-32181D03*
X56051Y-33181D03*
X56051Y-34181D03*
X55051Y-32181D03*
X55051Y-31181D03*
X55051Y-30181D03*
X55051Y-29181D03*
G54D12*
X57051Y-36181D03*
G54D13*
X57051Y-30181D03*
X57051Y-35181D03*
X57051Y-29181D03*
X57051Y-34181D03*
X57051Y-33181D03*
X57051Y-32181D03*
X57051Y-31181D03*
X58051Y-33181D03*
X58051Y-34181D03*
X58051Y-35181D03*
X58051Y-36181D03*
G54D12*
X35051Y-29181D03*
G54D13*
X35051Y-35181D03*
X35051Y-30181D03*
X35051Y-36181D03*
X35051Y-31181D03*
X35051Y-32181D03*
X35051Y-33181D03*
X35051Y-34181D03*
X34051Y-32181D03*
X34051Y-31181D03*
X34051Y-30181D03*
X34051Y-29181D03*
G54D14*
X49312Y-33061D03*
X47344Y-33061D03*
X50296Y-33061D03*
X46359Y-33061D03*
X48328Y-35030D03*
G54D15*
X64430Y-33235D03*
X64430Y-31235D03*
G54D12*
X45351Y-32206D03*
X45351Y-33206D03*
X45351Y-35206D03*
X45351Y-34206D03*
G54D14*
X43335Y-33056D03*
X41366Y-33056D03*
X44319Y-33056D03*
X40382Y-33056D03*
X42351Y-35024D03*
G54D16*
X37855Y-29991D03*
X36281Y-31329D03*
X62895Y-30699D03*
X61477Y-29439D03*
X59036Y-30699D03*
X59036Y-32983D03*
X59430Y-34321D03*
X41635Y-29361D03*
X36674Y-31802D03*
X36123Y-31959D03*
X37619Y-31250D03*
X49588Y-32274D03*
X52895Y-31250D03*
X58721Y-35896D03*
X59430Y-34951D03*
X62344Y-33140D03*
X37451Y-35456D03*
X43101Y-29356D03*
X39666Y-30069D03*
X39509Y-32353D03*
X58013Y-29203D03*
X37698Y-32038D03*
X51399Y-32589D03*
X45021Y-31250D03*
X48721Y-30227D03*
X53288Y-30935D03*
X52737Y-33061D03*
X61792Y-33219D03*
X65021Y-30069D03*
X62737Y-29124D03*
X59509Y-35660D03*
X63052Y-35660D03*
X48751Y-32606D03*
X50451Y-29856D03*
X48751Y-30806D03*
X48701Y-31856D03*
X45966Y-31172D03*
X50060Y-31329D03*
X50847Y-32038D03*
X52107Y-32510D03*
X50847Y-34479D03*
X50847Y-33770D03*
G54D17*
X37619Y-29991D02*
X37855Y-29991D01*
X36281Y-31329D02*
X37619Y-29991D01*
G54D18*
X62737Y-30699D02*
X62895Y-30699D01*
X61477Y-29439D02*
X62737Y-30699D01*
X59036Y-32983D02*
X59036Y-30699D01*
X58051Y-34181D02*
X58051Y-33969D01*
X58051Y-33969D02*
X59036Y-32983D01*
X59289Y-34181D02*
X58051Y-34181D01*
X59430Y-34321D02*
X59289Y-34181D01*
G54D17*
X39036Y-29991D02*
X39273Y-29754D01*
X41241Y-29754D02*
X41635Y-29361D01*
X39273Y-29754D02*
X41241Y-29754D01*
X37619Y-31250D02*
X37777Y-31250D01*
X37777Y-31250D02*
X39036Y-29991D01*
X34248Y-32181D02*
X34784Y-31644D01*
X34784Y-31644D02*
X35808Y-31644D01*
X35808Y-31644D02*
X36123Y-31959D01*
X34051Y-32181D02*
X34248Y-32181D01*
X37619Y-31565D02*
X37619Y-31250D01*
X37383Y-31802D02*
X37619Y-31565D01*
X36832Y-31802D02*
X37383Y-31802D01*
X36674Y-31802D02*
X36832Y-31802D01*
X51477Y-31250D02*
X52895Y-31250D01*
X50611Y-31250D02*
X51477Y-31250D01*
X49588Y-32274D02*
X50611Y-31250D01*
X53825Y-32181D02*
X55051Y-32181D01*
X52895Y-31250D02*
X53825Y-32181D01*
G54D18*
X57571Y-35660D02*
X57051Y-36181D01*
X58485Y-35660D02*
X57571Y-35660D01*
X58721Y-35896D02*
X58485Y-35660D01*
X60532Y-34951D02*
X59430Y-34951D01*
X62344Y-33140D02*
X60532Y-34951D01*
G54D17*
X55051Y-29181D02*
X55051Y-29312D01*
X57540Y-29676D02*
X58013Y-29203D01*
X55414Y-29676D02*
X57540Y-29676D01*
X55051Y-29312D02*
X55414Y-29676D01*
G54D18*
X48751Y-32606D02*
X48701Y-32556D01*
X49701Y-29856D02*
X50451Y-29856D01*
X48751Y-30806D02*
X49701Y-29856D01*
X48701Y-32556D02*
X48701Y-31856D01*
G54D17*
X49903Y-31172D02*
X45966Y-31172D01*
X50060Y-31329D02*
X49903Y-31172D01*
X51635Y-32038D02*
X50847Y-32038D01*
X52107Y-32510D02*
X51635Y-32038D01*
X50847Y-33770D02*
X50847Y-34479D01*
G54D10*
G36*
X34723Y-29731D02*
X34585Y-29869D01*
X34551Y-29950D01*
X34517Y-29869D01*
X34363Y-29715D01*
X34287Y-29683D01*
X34338Y-29662D01*
X34366Y-29566D01*
X34051Y-29251D01*
X34045Y-29257D01*
X33974Y-29186D01*
X33980Y-29181D01*
X33974Y-29175D01*
X34045Y-29104D01*
X34051Y-29110D01*
X34056Y-29104D01*
X34127Y-29175D01*
X34121Y-29181D01*
X34437Y-29496D01*
X34501Y-29477D01*
X34501Y-29530D01*
X34539Y-29622D01*
X34609Y-29692D01*
X34701Y-29731D01*
X34723Y-29731D01*
X34723Y-29731D01*
G37*
G54D17*
X34723Y-29731D02*
X34585Y-29869D01*
X34551Y-29950D01*
X34517Y-29869D01*
X34363Y-29715D01*
X34287Y-29683D01*
X34338Y-29662D01*
X34366Y-29566D01*
X34051Y-29251D01*
X34045Y-29257D01*
X33974Y-29186D01*
X33980Y-29181D01*
X33974Y-29175D01*
X34045Y-29104D01*
X34051Y-29110D01*
X34056Y-29104D01*
X34127Y-29175D01*
X34121Y-29181D01*
X34437Y-29496D01*
X34501Y-29477D01*
X34501Y-29530D01*
X34539Y-29622D01*
X34609Y-29692D01*
X34701Y-29731D01*
X34723Y-29731D01*
G54D10*
G36*
X55723Y-29731D02*
X55585Y-29869D01*
X55551Y-29950D01*
X55517Y-29869D01*
X55363Y-29715D01*
X55287Y-29683D01*
X55338Y-29662D01*
X55366Y-29566D01*
X55051Y-29251D01*
X54980Y-29322D01*
X54735Y-29566D01*
X54763Y-29662D01*
X54818Y-29682D01*
X54739Y-29714D01*
X54585Y-29869D01*
X54501Y-30071D01*
X54501Y-30289D01*
X54584Y-30492D01*
X54739Y-30647D01*
X54820Y-30681D01*
X54739Y-30714D01*
X54585Y-30869D01*
X54501Y-31071D01*
X54501Y-31289D01*
X54584Y-31492D01*
X54739Y-31647D01*
X54820Y-31681D01*
X54739Y-31714D01*
X54585Y-31869D01*
X54580Y-31881D01*
X53949Y-31881D01*
X53320Y-31251D01*
X53320Y-31166D01*
X53255Y-31010D01*
X53136Y-30890D01*
X52980Y-30826D01*
X52811Y-30825D01*
X52654Y-30890D01*
X52594Y-30950D01*
X51477Y-30950D01*
X50611Y-30950D01*
X50496Y-30973D01*
X50399Y-31038D01*
X50385Y-31053D01*
X50301Y-30969D01*
X50145Y-30904D01*
X50032Y-30904D01*
X50017Y-30895D01*
X49903Y-30872D01*
X49176Y-30872D01*
X49176Y-30791D01*
X49821Y-30146D01*
X50140Y-30146D01*
X50210Y-30216D01*
X50366Y-30280D01*
X50535Y-30281D01*
X50691Y-30216D01*
X50811Y-30097D01*
X50876Y-29940D01*
X50876Y-29771D01*
X50811Y-29615D01*
X50692Y-29495D01*
X50536Y-29431D01*
X50366Y-29430D01*
X50210Y-29495D01*
X50140Y-29566D01*
X49701Y-29566D01*
X49590Y-29588D01*
X49496Y-29651D01*
X48765Y-30381D01*
X48666Y-30380D01*
X48510Y-30445D01*
X48391Y-30565D01*
X48326Y-30721D01*
X48326Y-30872D01*
X46267Y-30872D01*
X46207Y-30812D01*
X46050Y-30747D01*
X45881Y-30747D01*
X45725Y-30811D01*
X45605Y-30931D01*
X45541Y-31087D01*
X45540Y-31256D01*
X45605Y-31412D01*
X45725Y-31532D01*
X45881Y-31597D01*
X46050Y-31597D01*
X46206Y-31532D01*
X46267Y-31472D01*
X48517Y-31472D01*
X48460Y-31495D01*
X48341Y-31615D01*
X48276Y-31771D01*
X48276Y-31940D01*
X48340Y-32096D01*
X48411Y-32167D01*
X48411Y-32344D01*
X48391Y-32365D01*
X48326Y-32521D01*
X48326Y-32565D01*
X48230Y-32565D01*
X48047Y-32641D01*
X47922Y-32765D01*
X47902Y-32717D01*
X47797Y-32678D01*
X47727Y-32749D01*
X47727Y-32608D01*
X47688Y-32503D01*
X47448Y-32413D01*
X47192Y-32423D01*
X46999Y-32503D01*
X46960Y-32608D01*
X47344Y-32991D01*
X47727Y-32608D01*
X47727Y-32749D01*
X47414Y-33061D01*
X47797Y-33445D01*
X47902Y-33406D01*
X47921Y-33356D01*
X48046Y-33482D01*
X48229Y-33557D01*
X48426Y-33558D01*
X48608Y-33482D01*
X48733Y-33358D01*
X48753Y-33406D01*
X48858Y-33445D01*
X49241Y-33061D01*
X49236Y-33056D01*
X49306Y-32985D01*
X49312Y-32991D01*
X49318Y-32985D01*
X49388Y-33056D01*
X49383Y-33061D01*
X49766Y-33445D01*
X49768Y-33444D01*
X49931Y-33607D01*
X50168Y-33705D01*
X50423Y-33705D01*
X50422Y-33854D01*
X50487Y-34011D01*
X50547Y-34071D01*
X50547Y-34178D01*
X50487Y-34238D01*
X50423Y-34394D01*
X50422Y-34545D01*
X50395Y-34534D01*
X50198Y-34534D01*
X50016Y-34609D01*
X49876Y-34749D01*
X49800Y-34931D01*
X49800Y-35128D01*
X49875Y-35311D01*
X50015Y-35450D01*
X50188Y-35522D01*
X50021Y-35591D01*
X50021Y-35498D01*
X49695Y-35498D01*
X49695Y-33515D01*
X49312Y-33132D01*
X48929Y-33515D01*
X48968Y-33620D01*
X49208Y-33709D01*
X49464Y-33700D01*
X49656Y-33620D01*
X49695Y-33515D01*
X49695Y-35498D01*
X48976Y-35498D01*
X48976Y-35134D01*
X48966Y-34878D01*
X48887Y-34686D01*
X48782Y-34647D01*
X48711Y-34718D01*
X48711Y-34576D01*
X48672Y-34471D01*
X48432Y-34382D01*
X48176Y-34391D01*
X47984Y-34471D01*
X47945Y-34576D01*
X48328Y-34959D01*
X48711Y-34576D01*
X48711Y-34718D01*
X48398Y-35030D01*
X48782Y-35413D01*
X48887Y-35374D01*
X48976Y-35134D01*
X48976Y-35498D01*
X48706Y-35498D01*
X48711Y-35484D01*
X48328Y-35101D01*
X48257Y-35171D01*
X48257Y-35030D01*
X47874Y-34647D01*
X47769Y-34686D01*
X47727Y-34800D01*
X47727Y-33515D01*
X47344Y-33132D01*
X46960Y-33515D01*
X46999Y-33620D01*
X47239Y-33709D01*
X47495Y-33700D01*
X47688Y-33620D01*
X47727Y-33515D01*
X47727Y-34800D01*
X47680Y-34926D01*
X47689Y-35182D01*
X47769Y-35374D01*
X47874Y-35413D01*
X48257Y-35030D01*
X48257Y-35171D01*
X47945Y-35484D01*
X47950Y-35498D01*
X46680Y-35498D01*
X46680Y-35634D01*
X46641Y-35594D01*
X46467Y-35522D01*
X46640Y-35451D01*
X46780Y-35311D01*
X46855Y-35129D01*
X46855Y-34932D01*
X46780Y-34749D01*
X46641Y-34610D01*
X46458Y-34534D01*
X46261Y-34534D01*
X46079Y-34609D01*
X45939Y-34749D01*
X45898Y-34848D01*
X45863Y-34764D01*
X45804Y-34706D01*
X45862Y-34647D01*
X45901Y-34556D01*
X45901Y-34456D01*
X45901Y-33856D01*
X45863Y-33764D01*
X45804Y-33706D01*
X45862Y-33647D01*
X45901Y-33556D01*
X45901Y-33513D01*
X45994Y-33607D01*
X46231Y-33705D01*
X46487Y-33705D01*
X46723Y-33607D01*
X46888Y-33444D01*
X46890Y-33445D01*
X47273Y-33061D01*
X46890Y-32678D01*
X46887Y-32679D01*
X46724Y-32516D01*
X46488Y-32418D01*
X46232Y-32418D01*
X45995Y-32515D01*
X45814Y-32696D01*
X45808Y-32710D01*
X45804Y-32706D01*
X45862Y-32647D01*
X45901Y-32556D01*
X45901Y-32456D01*
X45901Y-31856D01*
X45863Y-31764D01*
X45792Y-31694D01*
X45701Y-31656D01*
X45601Y-31656D01*
X45001Y-31656D01*
X44909Y-31693D01*
X44839Y-31764D01*
X44801Y-31856D01*
X44801Y-31955D01*
X44801Y-32555D01*
X44839Y-32647D01*
X44897Y-32706D01*
X44879Y-32724D01*
X44865Y-32691D01*
X44684Y-32510D01*
X44448Y-32412D01*
X44192Y-32412D01*
X43955Y-32510D01*
X43791Y-32673D01*
X43789Y-32673D01*
X43718Y-32743D01*
X43718Y-32602D01*
X43679Y-32497D01*
X43439Y-32408D01*
X43183Y-32417D01*
X42991Y-32497D01*
X42952Y-32602D01*
X43335Y-32985D01*
X43718Y-32602D01*
X43718Y-32743D01*
X43406Y-33056D01*
X43789Y-33439D01*
X43791Y-33438D01*
X43954Y-33601D01*
X44191Y-33699D01*
X44447Y-33699D01*
X44683Y-33602D01*
X44801Y-33484D01*
X44801Y-33555D01*
X44839Y-33647D01*
X44897Y-33706D01*
X44839Y-33764D01*
X44801Y-33856D01*
X44801Y-33955D01*
X44801Y-34555D01*
X44839Y-34647D01*
X44897Y-34706D01*
X44839Y-34764D01*
X44801Y-34856D01*
X44801Y-34890D01*
X44740Y-34743D01*
X44600Y-34604D01*
X44418Y-34528D01*
X44221Y-34528D01*
X44038Y-34603D01*
X43899Y-34743D01*
X43823Y-34925D01*
X43823Y-35122D01*
X43898Y-35305D01*
X44038Y-35444D01*
X44211Y-35516D01*
X44038Y-35588D01*
X43899Y-35727D01*
X43823Y-35909D01*
X43823Y-36107D01*
X43851Y-36175D01*
X43718Y-36041D01*
X43718Y-33509D01*
X43335Y-33126D01*
X43264Y-33197D01*
X43264Y-33056D01*
X42881Y-32673D01*
X42776Y-32711D01*
X42758Y-32761D01*
X42632Y-32635D01*
X42450Y-32560D01*
X42252Y-32559D01*
X42070Y-32635D01*
X41945Y-32759D01*
X41925Y-32711D01*
X41820Y-32673D01*
X41749Y-32743D01*
X41749Y-32602D01*
X41711Y-32497D01*
X41470Y-32408D01*
X41215Y-32417D01*
X41022Y-32497D01*
X40983Y-32602D01*
X41366Y-32985D01*
X41749Y-32602D01*
X41749Y-32743D01*
X41437Y-33056D01*
X41820Y-33439D01*
X41925Y-33400D01*
X41944Y-33350D01*
X42069Y-33476D01*
X42251Y-33552D01*
X42449Y-33552D01*
X42631Y-33476D01*
X42756Y-33352D01*
X42776Y-33400D01*
X42881Y-33439D01*
X43264Y-33056D01*
X43264Y-33197D01*
X42952Y-33509D01*
X42991Y-33614D01*
X43231Y-33704D01*
X43487Y-33694D01*
X43679Y-33614D01*
X43718Y-33509D01*
X43718Y-36041D01*
X43491Y-35815D01*
X43404Y-35756D01*
X43301Y-35736D01*
X42999Y-35736D01*
X42999Y-35128D01*
X42989Y-34872D01*
X42909Y-34680D01*
X42804Y-34641D01*
X42734Y-34712D01*
X42734Y-34570D01*
X42695Y-34465D01*
X42455Y-34376D01*
X42199Y-34386D01*
X42006Y-34465D01*
X41968Y-34570D01*
X42351Y-34953D01*
X42734Y-34570D01*
X42734Y-34712D01*
X42421Y-35024D01*
X42804Y-35407D01*
X42909Y-35368D01*
X42999Y-35128D01*
X42999Y-35736D01*
X42734Y-35736D01*
X42734Y-35478D01*
X42351Y-35095D01*
X42280Y-35165D01*
X42280Y-35024D01*
X41897Y-34641D01*
X41792Y-34680D01*
X41749Y-34794D01*
X41749Y-33509D01*
X41366Y-33126D01*
X41296Y-33197D01*
X41296Y-33056D01*
X40913Y-32673D01*
X40910Y-32673D01*
X40747Y-32510D01*
X40511Y-32412D01*
X40255Y-32412D01*
X40018Y-32510D01*
X39837Y-32690D01*
X39739Y-32927D01*
X39738Y-33183D01*
X39836Y-33420D01*
X40017Y-33601D01*
X40253Y-33699D01*
X40510Y-33699D01*
X40746Y-33602D01*
X40910Y-33438D01*
X40913Y-33439D01*
X41296Y-33056D01*
X41296Y-33197D01*
X40983Y-33509D01*
X41022Y-33614D01*
X41262Y-33704D01*
X41518Y-33694D01*
X41711Y-33614D01*
X41749Y-33509D01*
X41749Y-34794D01*
X41703Y-34920D01*
X41712Y-35176D01*
X41792Y-35368D01*
X41897Y-35407D01*
X42280Y-35024D01*
X42280Y-35165D01*
X41968Y-35478D01*
X42006Y-35583D01*
X42246Y-35672D01*
X42502Y-35663D01*
X42695Y-35583D01*
X42734Y-35478D01*
X42734Y-35736D01*
X42401Y-35736D01*
X42297Y-35756D01*
X42210Y-35815D01*
X42039Y-35986D01*
X41101Y-35986D01*
X40997Y-36006D01*
X40968Y-36026D01*
X40910Y-36065D01*
X40878Y-36097D01*
X40878Y-35910D01*
X40803Y-35728D01*
X40663Y-35588D01*
X40490Y-35516D01*
X40663Y-35445D01*
X40802Y-35305D01*
X40878Y-35123D01*
X40878Y-34926D01*
X40803Y-34743D01*
X40663Y-34604D01*
X40481Y-34528D01*
X40284Y-34528D01*
X40101Y-34603D01*
X39962Y-34743D01*
X39886Y-34925D01*
X39886Y-35122D01*
X39961Y-35305D01*
X40101Y-35444D01*
X40274Y-35516D01*
X40101Y-35588D01*
X39962Y-35727D01*
X39886Y-35909D01*
X39886Y-36107D01*
X39961Y-36289D01*
X40008Y-36336D01*
X35582Y-36336D01*
X35601Y-36290D01*
X35601Y-36072D01*
X35517Y-35869D01*
X35363Y-35715D01*
X35281Y-35681D01*
X35362Y-35647D01*
X35517Y-35493D01*
X35601Y-35290D01*
X35601Y-35072D01*
X35517Y-34869D01*
X35363Y-34715D01*
X35281Y-34681D01*
X35362Y-34647D01*
X35517Y-34493D01*
X35601Y-34290D01*
X35601Y-34072D01*
X35517Y-33869D01*
X35363Y-33715D01*
X35281Y-33681D01*
X35362Y-33647D01*
X35517Y-33493D01*
X35601Y-33290D01*
X35601Y-33072D01*
X35517Y-32869D01*
X35363Y-32715D01*
X35281Y-32681D01*
X35362Y-32647D01*
X35517Y-32493D01*
X35601Y-32290D01*
X35601Y-32072D01*
X35548Y-31944D01*
X35684Y-31944D01*
X35698Y-31958D01*
X35698Y-32043D01*
X35763Y-32200D01*
X35882Y-32319D01*
X36038Y-32384D01*
X36207Y-32384D01*
X36363Y-32320D01*
X36483Y-32200D01*
X36489Y-32185D01*
X36589Y-32227D01*
X36758Y-32227D01*
X36915Y-32162D01*
X36975Y-32102D01*
X37383Y-32102D01*
X37383Y-32102D01*
X37498Y-32079D01*
X37498Y-32079D01*
X37595Y-32014D01*
X37831Y-31778D01*
X37896Y-31680D01*
X37919Y-31565D01*
X37919Y-31565D01*
X37919Y-31551D01*
X37979Y-31492D01*
X37993Y-31458D01*
X39249Y-30203D01*
X39249Y-30203D01*
X39249Y-30203D01*
X39397Y-30054D01*
X41241Y-30054D01*
X41241Y-30054D01*
X41356Y-30032D01*
X41356Y-30032D01*
X41453Y-29967D01*
X41634Y-29786D01*
X41719Y-29786D01*
X41875Y-29721D01*
X41995Y-29602D01*
X42060Y-29446D01*
X42060Y-29277D01*
X41995Y-29120D01*
X41876Y-29001D01*
X41720Y-28936D01*
X41551Y-28936D01*
X41394Y-29000D01*
X41275Y-29120D01*
X41210Y-29276D01*
X41210Y-29361D01*
X41117Y-29454D01*
X39273Y-29454D01*
X39158Y-29477D01*
X39061Y-29542D01*
X38824Y-29778D01*
X38824Y-29778D01*
X37756Y-30847D01*
X37704Y-30826D01*
X37535Y-30825D01*
X37379Y-30890D01*
X37259Y-31009D01*
X37194Y-31166D01*
X37194Y-31335D01*
X37259Y-31491D01*
X37264Y-31496D01*
X37259Y-31502D01*
X36975Y-31502D01*
X36915Y-31442D01*
X36759Y-31377D01*
X36705Y-31377D01*
X36706Y-31328D01*
X37663Y-30371D01*
X37770Y-30416D01*
X37939Y-30416D01*
X38096Y-30351D01*
X38215Y-30232D01*
X38280Y-30076D01*
X38280Y-29906D01*
X38216Y-29750D01*
X38096Y-29631D01*
X37940Y-29566D01*
X37771Y-29566D01*
X37615Y-29630D01*
X37538Y-29707D01*
X37538Y-29707D01*
X37504Y-29713D01*
X37407Y-29778D01*
X36281Y-30904D01*
X36196Y-30904D01*
X36040Y-30969D01*
X35920Y-31088D01*
X35856Y-31244D01*
X35856Y-31354D01*
X35808Y-31344D01*
X35578Y-31344D01*
X35601Y-31290D01*
X35601Y-31072D01*
X35517Y-30869D01*
X35363Y-30715D01*
X35281Y-30681D01*
X35362Y-30647D01*
X35517Y-30493D01*
X35601Y-30290D01*
X35601Y-30072D01*
X35517Y-29869D01*
X35379Y-29731D01*
X35400Y-29731D01*
X35492Y-29693D01*
X35562Y-29622D01*
X35601Y-29531D01*
X35601Y-29431D01*
X35601Y-28831D01*
X35596Y-28819D01*
X42250Y-28819D01*
X42353Y-28799D01*
X42379Y-28781D01*
X53245Y-28781D01*
X53271Y-28799D01*
X53375Y-28819D01*
X54620Y-28819D01*
X54619Y-28820D01*
X54665Y-28865D01*
X54569Y-28893D01*
X54496Y-29099D01*
X54507Y-29317D01*
X54569Y-29468D01*
X54665Y-29496D01*
X54980Y-29181D01*
X54974Y-29175D01*
X55045Y-29104D01*
X55051Y-29110D01*
X55056Y-29104D01*
X55127Y-29175D01*
X55121Y-29181D01*
X55437Y-29496D01*
X55501Y-29477D01*
X55501Y-29530D01*
X55539Y-29622D01*
X55609Y-29692D01*
X55701Y-29731D01*
X55723Y-29731D01*
X55723Y-29731D01*
G37*
G54D17*
X55723Y-29731D02*
X55585Y-29869D01*
X55551Y-29950D01*
X55517Y-29869D01*
X55363Y-29715D01*
X55287Y-29683D01*
X55338Y-29662D01*
X55366Y-29566D01*
X55051Y-29251D01*
X54980Y-29322D01*
X54735Y-29566D01*
X54763Y-29662D01*
X54818Y-29682D01*
X54739Y-29714D01*
X54585Y-29869D01*
X54501Y-30071D01*
X54501Y-30289D01*
X54584Y-30492D01*
X54739Y-30647D01*
X54820Y-30681D01*
X54739Y-30714D01*
X54585Y-30869D01*
X54501Y-31071D01*
X54501Y-31289D01*
X54584Y-31492D01*
X54739Y-31647D01*
X54820Y-31681D01*
X54739Y-31714D01*
X54585Y-31869D01*
X54580Y-31881D01*
X53949Y-31881D01*
X53320Y-31251D01*
X53320Y-31166D01*
X53255Y-31010D01*
X53136Y-30890D01*
X52980Y-30826D01*
X52811Y-30825D01*
X52654Y-30890D01*
X52594Y-30950D01*
X51477Y-30950D01*
X50611Y-30950D01*
X50496Y-30973D01*
X50399Y-31038D01*
X50385Y-31053D01*
X50301Y-30969D01*
X50145Y-30904D01*
X50032Y-30904D01*
X50017Y-30895D01*
X49903Y-30872D01*
X49176Y-30872D01*
X49176Y-30791D01*
X49821Y-30146D01*
X50140Y-30146D01*
X50210Y-30216D01*
X50366Y-30280D01*
X50535Y-30281D01*
X50691Y-30216D01*
X50811Y-30097D01*
X50876Y-29940D01*
X50876Y-29771D01*
X50811Y-29615D01*
X50692Y-29495D01*
X50536Y-29431D01*
X50366Y-29430D01*
X50210Y-29495D01*
X50140Y-29566D01*
X49701Y-29566D01*
X49590Y-29588D01*
X49496Y-29651D01*
X48765Y-30381D01*
X48666Y-30380D01*
X48510Y-30445D01*
X48391Y-30565D01*
X48326Y-30721D01*
X48326Y-30872D01*
X46267Y-30872D01*
X46207Y-30812D01*
X46050Y-30747D01*
X45881Y-30747D01*
X45725Y-30811D01*
X45605Y-30931D01*
X45541Y-31087D01*
X45540Y-31256D01*
X45605Y-31412D01*
X45725Y-31532D01*
X45881Y-31597D01*
X46050Y-31597D01*
X46206Y-31532D01*
X46267Y-31472D01*
X48517Y-31472D01*
X48460Y-31495D01*
X48341Y-31615D01*
X48276Y-31771D01*
X48276Y-31940D01*
X48340Y-32096D01*
X48411Y-32167D01*
X48411Y-32344D01*
X48391Y-32365D01*
X48326Y-32521D01*
X48326Y-32565D01*
X48230Y-32565D01*
X48047Y-32641D01*
X47922Y-32765D01*
X47902Y-32717D01*
X47797Y-32678D01*
X47727Y-32749D01*
X47727Y-32608D01*
X47688Y-32503D01*
X47448Y-32413D01*
X47192Y-32423D01*
X46999Y-32503D01*
X46960Y-32608D01*
X47344Y-32991D01*
X47727Y-32608D01*
X47727Y-32749D01*
X47414Y-33061D01*
X47797Y-33445D01*
X47902Y-33406D01*
X47921Y-33356D01*
X48046Y-33482D01*
X48229Y-33557D01*
X48426Y-33558D01*
X48608Y-33482D01*
X48733Y-33358D01*
X48753Y-33406D01*
X48858Y-33445D01*
X49241Y-33061D01*
X49236Y-33056D01*
X49306Y-32985D01*
X49312Y-32991D01*
X49318Y-32985D01*
X49388Y-33056D01*
X49383Y-33061D01*
X49766Y-33445D01*
X49768Y-33444D01*
X49931Y-33607D01*
X50168Y-33705D01*
X50423Y-33705D01*
X50422Y-33854D01*
X50487Y-34011D01*
X50547Y-34071D01*
X50547Y-34178D01*
X50487Y-34238D01*
X50423Y-34394D01*
X50422Y-34545D01*
X50395Y-34534D01*
X50198Y-34534D01*
X50016Y-34609D01*
X49876Y-34749D01*
X49800Y-34931D01*
X49800Y-35128D01*
X49875Y-35311D01*
X50015Y-35450D01*
X50188Y-35522D01*
X50021Y-35591D01*
X50021Y-35498D01*
X49695Y-35498D01*
X49695Y-33515D01*
X49312Y-33132D01*
X48929Y-33515D01*
X48968Y-33620D01*
X49208Y-33709D01*
X49464Y-33700D01*
X49656Y-33620D01*
X49695Y-33515D01*
X49695Y-35498D01*
X48976Y-35498D01*
X48976Y-35134D01*
X48966Y-34878D01*
X48887Y-34686D01*
X48782Y-34647D01*
X48711Y-34718D01*
X48711Y-34576D01*
X48672Y-34471D01*
X48432Y-34382D01*
X48176Y-34391D01*
X47984Y-34471D01*
X47945Y-34576D01*
X48328Y-34959D01*
X48711Y-34576D01*
X48711Y-34718D01*
X48398Y-35030D01*
X48782Y-35413D01*
X48887Y-35374D01*
X48976Y-35134D01*
X48976Y-35498D01*
X48706Y-35498D01*
X48711Y-35484D01*
X48328Y-35101D01*
X48257Y-35171D01*
X48257Y-35030D01*
X47874Y-34647D01*
X47769Y-34686D01*
X47727Y-34800D01*
X47727Y-33515D01*
X47344Y-33132D01*
X46960Y-33515D01*
X46999Y-33620D01*
X47239Y-33709D01*
X47495Y-33700D01*
X47688Y-33620D01*
X47727Y-33515D01*
X47727Y-34800D01*
X47680Y-34926D01*
X47689Y-35182D01*
X47769Y-35374D01*
X47874Y-35413D01*
X48257Y-35030D01*
X48257Y-35171D01*
X47945Y-35484D01*
X47950Y-35498D01*
X46680Y-35498D01*
X46680Y-35634D01*
X46641Y-35594D01*
X46467Y-35522D01*
X46640Y-35451D01*
X46780Y-35311D01*
X46855Y-35129D01*
X46855Y-34932D01*
X46780Y-34749D01*
X46641Y-34610D01*
X46458Y-34534D01*
X46261Y-34534D01*
X46079Y-34609D01*
X45939Y-34749D01*
X45898Y-34848D01*
X45863Y-34764D01*
X45804Y-34706D01*
X45862Y-34647D01*
X45901Y-34556D01*
X45901Y-34456D01*
X45901Y-33856D01*
X45863Y-33764D01*
X45804Y-33706D01*
X45862Y-33647D01*
X45901Y-33556D01*
X45901Y-33513D01*
X45994Y-33607D01*
X46231Y-33705D01*
X46487Y-33705D01*
X46723Y-33607D01*
X46888Y-33444D01*
X46890Y-33445D01*
X47273Y-33061D01*
X46890Y-32678D01*
X46887Y-32679D01*
X46724Y-32516D01*
X46488Y-32418D01*
X46232Y-32418D01*
X45995Y-32515D01*
X45814Y-32696D01*
X45808Y-32710D01*
X45804Y-32706D01*
X45862Y-32647D01*
X45901Y-32556D01*
X45901Y-32456D01*
X45901Y-31856D01*
X45863Y-31764D01*
X45792Y-31694D01*
X45701Y-31656D01*
X45601Y-31656D01*
X45001Y-31656D01*
X44909Y-31693D01*
X44839Y-31764D01*
X44801Y-31856D01*
X44801Y-31955D01*
X44801Y-32555D01*
X44839Y-32647D01*
X44897Y-32706D01*
X44879Y-32724D01*
X44865Y-32691D01*
X44684Y-32510D01*
X44448Y-32412D01*
X44192Y-32412D01*
X43955Y-32510D01*
X43791Y-32673D01*
X43789Y-32673D01*
X43718Y-32743D01*
X43718Y-32602D01*
X43679Y-32497D01*
X43439Y-32408D01*
X43183Y-32417D01*
X42991Y-32497D01*
X42952Y-32602D01*
X43335Y-32985D01*
X43718Y-32602D01*
X43718Y-32743D01*
X43406Y-33056D01*
X43789Y-33439D01*
X43791Y-33438D01*
X43954Y-33601D01*
X44191Y-33699D01*
X44447Y-33699D01*
X44683Y-33602D01*
X44801Y-33484D01*
X44801Y-33555D01*
X44839Y-33647D01*
X44897Y-33706D01*
X44839Y-33764D01*
X44801Y-33856D01*
X44801Y-33955D01*
X44801Y-34555D01*
X44839Y-34647D01*
X44897Y-34706D01*
X44839Y-34764D01*
X44801Y-34856D01*
X44801Y-34890D01*
X44740Y-34743D01*
X44600Y-34604D01*
X44418Y-34528D01*
X44221Y-34528D01*
X44038Y-34603D01*
X43899Y-34743D01*
X43823Y-34925D01*
X43823Y-35122D01*
X43898Y-35305D01*
X44038Y-35444D01*
X44211Y-35516D01*
X44038Y-35588D01*
X43899Y-35727D01*
X43823Y-35909D01*
X43823Y-36107D01*
X43851Y-36175D01*
X43718Y-36041D01*
X43718Y-33509D01*
X43335Y-33126D01*
X43264Y-33197D01*
X43264Y-33056D01*
X42881Y-32673D01*
X42776Y-32711D01*
X42758Y-32761D01*
X42632Y-32635D01*
X42450Y-32560D01*
X42252Y-32559D01*
X42070Y-32635D01*
X41945Y-32759D01*
X41925Y-32711D01*
X41820Y-32673D01*
X41749Y-32743D01*
X41749Y-32602D01*
X41711Y-32497D01*
X41470Y-32408D01*
X41215Y-32417D01*
X41022Y-32497D01*
X40983Y-32602D01*
X41366Y-32985D01*
X41749Y-32602D01*
X41749Y-32743D01*
X41437Y-33056D01*
X41820Y-33439D01*
X41925Y-33400D01*
X41944Y-33350D01*
X42069Y-33476D01*
X42251Y-33552D01*
X42449Y-33552D01*
X42631Y-33476D01*
X42756Y-33352D01*
X42776Y-33400D01*
X42881Y-33439D01*
X43264Y-33056D01*
X43264Y-33197D01*
X42952Y-33509D01*
X42991Y-33614D01*
X43231Y-33704D01*
X43487Y-33694D01*
X43679Y-33614D01*
X43718Y-33509D01*
X43718Y-36041D01*
X43491Y-35815D01*
X43404Y-35756D01*
X43301Y-35736D01*
X42999Y-35736D01*
X42999Y-35128D01*
X42989Y-34872D01*
X42909Y-34680D01*
X42804Y-34641D01*
X42734Y-34712D01*
X42734Y-34570D01*
X42695Y-34465D01*
X42455Y-34376D01*
X42199Y-34386D01*
X42006Y-34465D01*
X41968Y-34570D01*
X42351Y-34953D01*
X42734Y-34570D01*
X42734Y-34712D01*
X42421Y-35024D01*
X42804Y-35407D01*
X42909Y-35368D01*
X42999Y-35128D01*
X42999Y-35736D01*
X42734Y-35736D01*
X42734Y-35478D01*
X42351Y-35095D01*
X42280Y-35165D01*
X42280Y-35024D01*
X41897Y-34641D01*
X41792Y-34680D01*
X41749Y-34794D01*
X41749Y-33509D01*
X41366Y-33126D01*
X41296Y-33197D01*
X41296Y-33056D01*
X40913Y-32673D01*
X40910Y-32673D01*
X40747Y-32510D01*
X40511Y-32412D01*
X40255Y-32412D01*
X40018Y-32510D01*
X39837Y-32690D01*
X39739Y-32927D01*
X39738Y-33183D01*
X39836Y-33420D01*
X40017Y-33601D01*
X40253Y-33699D01*
X40510Y-33699D01*
X40746Y-33602D01*
X40910Y-33438D01*
X40913Y-33439D01*
X41296Y-33056D01*
X41296Y-33197D01*
X40983Y-33509D01*
X41022Y-33614D01*
X41262Y-33704D01*
X41518Y-33694D01*
X41711Y-33614D01*
X41749Y-33509D01*
X41749Y-34794D01*
X41703Y-34920D01*
X41712Y-35176D01*
X41792Y-35368D01*
X41897Y-35407D01*
X42280Y-35024D01*
X42280Y-35165D01*
X41968Y-35478D01*
X42006Y-35583D01*
X42246Y-35672D01*
X42502Y-35663D01*
X42695Y-35583D01*
X42734Y-35478D01*
X42734Y-35736D01*
X42401Y-35736D01*
X42297Y-35756D01*
X42210Y-35815D01*
X42039Y-35986D01*
X41101Y-35986D01*
X40997Y-36006D01*
X40968Y-36026D01*
X40910Y-36065D01*
X40878Y-36097D01*
X40878Y-35910D01*
X40803Y-35728D01*
X40663Y-35588D01*
X40490Y-35516D01*
X40663Y-35445D01*
X40802Y-35305D01*
X40878Y-35123D01*
X40878Y-34926D01*
X40803Y-34743D01*
X40663Y-34604D01*
X40481Y-34528D01*
X40284Y-34528D01*
X40101Y-34603D01*
X39962Y-34743D01*
X39886Y-34925D01*
X39886Y-35122D01*
X39961Y-35305D01*
X40101Y-35444D01*
X40274Y-35516D01*
X40101Y-35588D01*
X39962Y-35727D01*
X39886Y-35909D01*
X39886Y-36107D01*
X39961Y-36289D01*
X40008Y-36336D01*
X35582Y-36336D01*
X35601Y-36290D01*
X35601Y-36072D01*
X35517Y-35869D01*
X35363Y-35715D01*
X35281Y-35681D01*
X35362Y-35647D01*
X35517Y-35493D01*
X35601Y-35290D01*
X35601Y-35072D01*
X35517Y-34869D01*
X35363Y-34715D01*
X35281Y-34681D01*
X35362Y-34647D01*
X35517Y-34493D01*
X35601Y-34290D01*
X35601Y-34072D01*
X35517Y-33869D01*
X35363Y-33715D01*
X35281Y-33681D01*
X35362Y-33647D01*
X35517Y-33493D01*
X35601Y-33290D01*
X35601Y-33072D01*
X35517Y-32869D01*
X35363Y-32715D01*
X35281Y-32681D01*
X35362Y-32647D01*
X35517Y-32493D01*
X35601Y-32290D01*
X35601Y-32072D01*
X35548Y-31944D01*
X35684Y-31944D01*
X35698Y-31958D01*
X35698Y-32043D01*
X35763Y-32200D01*
X35882Y-32319D01*
X36038Y-32384D01*
X36207Y-32384D01*
X36363Y-32320D01*
X36483Y-32200D01*
X36489Y-32185D01*
X36589Y-32227D01*
X36758Y-32227D01*
X36915Y-32162D01*
X36975Y-32102D01*
X37383Y-32102D01*
X37383Y-32102D01*
X37498Y-32079D01*
X37498Y-32079D01*
X37595Y-32014D01*
X37831Y-31778D01*
X37896Y-31680D01*
X37919Y-31565D01*
X37919Y-31565D01*
X37919Y-31551D01*
X37979Y-31492D01*
X37993Y-31458D01*
X39249Y-30203D01*
X39249Y-30203D01*
X39249Y-30203D01*
X39397Y-30054D01*
X41241Y-30054D01*
X41241Y-30054D01*
X41356Y-30032D01*
X41356Y-30032D01*
X41453Y-29967D01*
X41634Y-29786D01*
X41719Y-29786D01*
X41875Y-29721D01*
X41995Y-29602D01*
X42060Y-29446D01*
X42060Y-29277D01*
X41995Y-29120D01*
X41876Y-29001D01*
X41720Y-28936D01*
X41551Y-28936D01*
X41394Y-29000D01*
X41275Y-29120D01*
X41210Y-29276D01*
X41210Y-29361D01*
X41117Y-29454D01*
X39273Y-29454D01*
X39158Y-29477D01*
X39061Y-29542D01*
X38824Y-29778D01*
X38824Y-29778D01*
X37756Y-30847D01*
X37704Y-30826D01*
X37535Y-30825D01*
X37379Y-30890D01*
X37259Y-31009D01*
X37194Y-31166D01*
X37194Y-31335D01*
X37259Y-31491D01*
X37264Y-31496D01*
X37259Y-31502D01*
X36975Y-31502D01*
X36915Y-31442D01*
X36759Y-31377D01*
X36705Y-31377D01*
X36706Y-31328D01*
X37663Y-30371D01*
X37770Y-30416D01*
X37939Y-30416D01*
X38096Y-30351D01*
X38215Y-30232D01*
X38280Y-30076D01*
X38280Y-29906D01*
X38216Y-29750D01*
X38096Y-29631D01*
X37940Y-29566D01*
X37771Y-29566D01*
X37615Y-29630D01*
X37538Y-29707D01*
X37538Y-29707D01*
X37504Y-29713D01*
X37407Y-29778D01*
X36281Y-30904D01*
X36196Y-30904D01*
X36040Y-30969D01*
X35920Y-31088D01*
X35856Y-31244D01*
X35856Y-31354D01*
X35808Y-31344D01*
X35578Y-31344D01*
X35601Y-31290D01*
X35601Y-31072D01*
X35517Y-30869D01*
X35363Y-30715D01*
X35281Y-30681D01*
X35362Y-30647D01*
X35517Y-30493D01*
X35601Y-30290D01*
X35601Y-30072D01*
X35517Y-29869D01*
X35379Y-29731D01*
X35400Y-29731D01*
X35492Y-29693D01*
X35562Y-29622D01*
X35601Y-29531D01*
X35601Y-29431D01*
X35601Y-28831D01*
X35596Y-28819D01*
X42250Y-28819D01*
X42353Y-28799D01*
X42379Y-28781D01*
X53245Y-28781D01*
X53271Y-28799D01*
X53375Y-28819D01*
X54620Y-28819D01*
X54619Y-28820D01*
X54665Y-28865D01*
X54569Y-28893D01*
X54496Y-29099D01*
X54507Y-29317D01*
X54569Y-29468D01*
X54665Y-29496D01*
X54980Y-29181D01*
X54974Y-29175D01*
X55045Y-29104D01*
X55051Y-29110D01*
X55056Y-29104D01*
X55127Y-29175D01*
X55121Y-29181D01*
X55437Y-29496D01*
X55501Y-29477D01*
X55501Y-29530D01*
X55539Y-29622D01*
X55609Y-29692D01*
X55701Y-29731D01*
X55723Y-29731D01*
G54D10*
G36*
X55820Y-35681D02*
X55739Y-35714D01*
X55585Y-35869D01*
X55501Y-36071D01*
X55501Y-36289D01*
X55520Y-36336D01*
X50676Y-36336D01*
X50717Y-36296D01*
X50792Y-36113D01*
X50792Y-35916D01*
X50717Y-35734D01*
X50578Y-35594D01*
X50404Y-35522D01*
X50577Y-35451D01*
X50717Y-35311D01*
X50792Y-35129D01*
X50792Y-34932D01*
X50781Y-34904D01*
X50932Y-34904D01*
X51088Y-34839D01*
X51208Y-34720D01*
X51272Y-34564D01*
X51273Y-34395D01*
X51208Y-34238D01*
X51147Y-34178D01*
X51147Y-34071D01*
X51208Y-34011D01*
X51272Y-33855D01*
X51273Y-33686D01*
X51208Y-33530D01*
X51089Y-33410D01*
X50932Y-33345D01*
X50875Y-33345D01*
X50940Y-33190D01*
X50940Y-32934D01*
X50842Y-32697D01*
X50661Y-32516D01*
X50425Y-32418D01*
X50169Y-32418D01*
X49951Y-32508D01*
X50013Y-32359D01*
X50013Y-32273D01*
X50486Y-31800D01*
X50423Y-31953D01*
X50422Y-32122D01*
X50487Y-32278D01*
X50606Y-32398D01*
X50763Y-32463D01*
X50932Y-32463D01*
X51088Y-32398D01*
X51148Y-32338D01*
X51511Y-32338D01*
X51682Y-32510D01*
X51682Y-32594D01*
X51747Y-32751D01*
X51866Y-32870D01*
X52022Y-32935D01*
X52191Y-32935D01*
X52348Y-32871D01*
X52467Y-32751D01*
X52532Y-32595D01*
X52532Y-32426D01*
X52468Y-32270D01*
X52348Y-32150D01*
X52192Y-32085D01*
X52107Y-32085D01*
X51847Y-31826D01*
X51750Y-31761D01*
X51635Y-31738D01*
X51148Y-31738D01*
X51089Y-31678D01*
X50932Y-31613D01*
X50763Y-31613D01*
X50610Y-31676D01*
X50735Y-31550D01*
X51477Y-31550D01*
X52594Y-31550D01*
X52654Y-31611D01*
X52810Y-31675D01*
X52895Y-31675D01*
X53613Y-32393D01*
X53613Y-32393D01*
X53710Y-32458D01*
X53825Y-32481D01*
X54579Y-32481D01*
X54584Y-32492D01*
X54739Y-32647D01*
X54941Y-32730D01*
X55160Y-32731D01*
X55362Y-32647D01*
X55517Y-32493D01*
X55551Y-32411D01*
X55584Y-32492D01*
X55739Y-32647D01*
X55820Y-32681D01*
X55739Y-32714D01*
X55585Y-32869D01*
X55501Y-33071D01*
X55501Y-33289D01*
X55584Y-33492D01*
X55739Y-33647D01*
X55820Y-33681D01*
X55739Y-33714D01*
X55585Y-33869D01*
X55501Y-34071D01*
X55501Y-34289D01*
X55584Y-34492D01*
X55739Y-34647D01*
X55820Y-34681D01*
X55739Y-34714D01*
X55585Y-34869D01*
X55501Y-35071D01*
X55501Y-35289D01*
X55584Y-35492D01*
X55739Y-35647D01*
X55820Y-35681D01*
X55820Y-35681D01*
G37*
G54D17*
X55820Y-35681D02*
X55739Y-35714D01*
X55585Y-35869D01*
X55501Y-36071D01*
X55501Y-36289D01*
X55520Y-36336D01*
X50676Y-36336D01*
X50717Y-36296D01*
X50792Y-36113D01*
X50792Y-35916D01*
X50717Y-35734D01*
X50578Y-35594D01*
X50404Y-35522D01*
X50577Y-35451D01*
X50717Y-35311D01*
X50792Y-35129D01*
X50792Y-34932D01*
X50781Y-34904D01*
X50932Y-34904D01*
X51088Y-34839D01*
X51208Y-34720D01*
X51272Y-34564D01*
X51273Y-34395D01*
X51208Y-34238D01*
X51147Y-34178D01*
X51147Y-34071D01*
X51208Y-34011D01*
X51272Y-33855D01*
X51273Y-33686D01*
X51208Y-33530D01*
X51089Y-33410D01*
X50932Y-33345D01*
X50875Y-33345D01*
X50940Y-33190D01*
X50940Y-32934D01*
X50842Y-32697D01*
X50661Y-32516D01*
X50425Y-32418D01*
X50169Y-32418D01*
X49951Y-32508D01*
X50013Y-32359D01*
X50013Y-32273D01*
X50486Y-31800D01*
X50423Y-31953D01*
X50422Y-32122D01*
X50487Y-32278D01*
X50606Y-32398D01*
X50763Y-32463D01*
X50932Y-32463D01*
X51088Y-32398D01*
X51148Y-32338D01*
X51511Y-32338D01*
X51682Y-32510D01*
X51682Y-32594D01*
X51747Y-32751D01*
X51866Y-32870D01*
X52022Y-32935D01*
X52191Y-32935D01*
X52348Y-32871D01*
X52467Y-32751D01*
X52532Y-32595D01*
X52532Y-32426D01*
X52468Y-32270D01*
X52348Y-32150D01*
X52192Y-32085D01*
X52107Y-32085D01*
X51847Y-31826D01*
X51750Y-31761D01*
X51635Y-31738D01*
X51148Y-31738D01*
X51089Y-31678D01*
X50932Y-31613D01*
X50763Y-31613D01*
X50610Y-31676D01*
X50735Y-31550D01*
X51477Y-31550D01*
X52594Y-31550D01*
X52654Y-31611D01*
X52810Y-31675D01*
X52895Y-31675D01*
X53613Y-32393D01*
X53613Y-32393D01*
X53710Y-32458D01*
X53825Y-32481D01*
X54579Y-32481D01*
X54584Y-32492D01*
X54739Y-32647D01*
X54941Y-32730D01*
X55160Y-32731D01*
X55362Y-32647D01*
X55517Y-32493D01*
X55551Y-32411D01*
X55584Y-32492D01*
X55739Y-32647D01*
X55820Y-32681D01*
X55739Y-32714D01*
X55585Y-32869D01*
X55501Y-33071D01*
X55501Y-33289D01*
X55584Y-33492D01*
X55739Y-33647D01*
X55820Y-33681D01*
X55739Y-33714D01*
X55585Y-33869D01*
X55501Y-34071D01*
X55501Y-34289D01*
X55584Y-34492D01*
X55739Y-34647D01*
X55820Y-34681D01*
X55739Y-34714D01*
X55585Y-34869D01*
X55501Y-35071D01*
X55501Y-35289D01*
X55584Y-35492D01*
X55739Y-35647D01*
X55820Y-35681D01*
G54D10*
G36*
X58127Y-36186D02*
X58056Y-36257D01*
X58051Y-36251D01*
X58045Y-36257D01*
X57974Y-36186D01*
X57980Y-36181D01*
X57974Y-36175D01*
X58045Y-36104D01*
X58051Y-36110D01*
X58056Y-36104D01*
X58127Y-36175D01*
X58121Y-36181D01*
X58127Y-36186D01*
X58127Y-36186D01*
G37*
G54D17*
X58127Y-36186D02*
X58056Y-36257D01*
X58051Y-36251D01*
X58045Y-36257D01*
X57974Y-36186D01*
X57980Y-36181D01*
X57974Y-36175D01*
X58045Y-36104D01*
X58051Y-36110D01*
X58056Y-36104D01*
X58127Y-36175D01*
X58121Y-36181D01*
X58127Y-36186D01*
G54D10*
G36*
X65405Y-35938D02*
X65183Y-36159D01*
X65124Y-36119D01*
X65021Y-36099D01*
X64960Y-36099D01*
X64960Y-33130D01*
X64960Y-31130D01*
X64880Y-30935D01*
X64731Y-30786D01*
X64536Y-30705D01*
X64325Y-30705D01*
X64130Y-30785D01*
X63981Y-30934D01*
X63900Y-31129D01*
X63900Y-31340D01*
X63981Y-31535D01*
X64130Y-31684D01*
X64324Y-31765D01*
X64535Y-31765D01*
X64730Y-31684D01*
X64879Y-31535D01*
X64960Y-31341D01*
X64960Y-31130D01*
X64960Y-33130D01*
X64880Y-32935D01*
X64731Y-32786D01*
X64536Y-32705D01*
X64325Y-32705D01*
X64130Y-32785D01*
X63981Y-32934D01*
X63900Y-33129D01*
X63900Y-33340D01*
X63981Y-33535D01*
X64130Y-33684D01*
X64324Y-33765D01*
X64535Y-33765D01*
X64730Y-33684D01*
X64879Y-33535D01*
X64960Y-33341D01*
X64960Y-33130D01*
X64960Y-36099D01*
X64470Y-36099D01*
X64366Y-36119D01*
X64279Y-36178D01*
X64122Y-36335D01*
X63446Y-36335D01*
X63320Y-36335D01*
X63320Y-30615D01*
X63255Y-30459D01*
X63136Y-30339D01*
X62980Y-30274D01*
X62811Y-30274D01*
X62748Y-30300D01*
X61902Y-29454D01*
X61902Y-29355D01*
X61838Y-29199D01*
X61718Y-29079D01*
X61562Y-29014D01*
X61393Y-29014D01*
X61237Y-29079D01*
X61117Y-29198D01*
X61052Y-29355D01*
X61052Y-29524D01*
X61117Y-29680D01*
X61236Y-29800D01*
X61392Y-29864D01*
X61492Y-29864D01*
X62511Y-30883D01*
X62534Y-30940D01*
X62654Y-31059D01*
X62810Y-31124D01*
X62979Y-31124D01*
X63135Y-31060D01*
X63255Y-30940D01*
X63320Y-30784D01*
X63320Y-30615D01*
X63320Y-36335D01*
X62455Y-36335D01*
X62219Y-36099D01*
X62132Y-36041D01*
X62029Y-36020D01*
X60060Y-36020D01*
X59957Y-36041D01*
X59928Y-36060D01*
X59869Y-36099D01*
X59633Y-36336D01*
X58579Y-36336D01*
X58591Y-36302D01*
X58637Y-36321D01*
X58806Y-36321D01*
X58962Y-36257D01*
X59082Y-36137D01*
X59146Y-35981D01*
X59147Y-35812D01*
X59082Y-35656D01*
X58963Y-35536D01*
X58806Y-35471D01*
X58707Y-35471D01*
X58690Y-35455D01*
X58596Y-35392D01*
X58561Y-35385D01*
X58601Y-35290D01*
X58601Y-35072D01*
X58517Y-34869D01*
X58363Y-34715D01*
X58281Y-34681D01*
X58362Y-34647D01*
X58517Y-34493D01*
X58526Y-34471D01*
X59032Y-34471D01*
X59070Y-34562D01*
X59144Y-34636D01*
X59070Y-34710D01*
X59005Y-34866D01*
X59005Y-35035D01*
X59070Y-35192D01*
X59189Y-35311D01*
X59345Y-35376D01*
X59514Y-35376D01*
X59671Y-35312D01*
X59741Y-35241D01*
X60532Y-35241D01*
X60643Y-35219D01*
X60738Y-35156D01*
X62329Y-33565D01*
X62428Y-33565D01*
X62584Y-33501D01*
X62704Y-33381D01*
X62768Y-33225D01*
X62769Y-33056D01*
X62704Y-32900D01*
X62585Y-32780D01*
X62428Y-32715D01*
X62259Y-32715D01*
X62103Y-32780D01*
X61983Y-32899D01*
X61919Y-33055D01*
X61919Y-33155D01*
X60412Y-34661D01*
X59741Y-34661D01*
X59716Y-34636D01*
X59790Y-34562D01*
X59855Y-34406D01*
X59855Y-34237D01*
X59791Y-34081D01*
X59671Y-33961D01*
X59515Y-33896D01*
X59346Y-33896D01*
X59337Y-33900D01*
X59289Y-33891D01*
X58539Y-33891D01*
X59022Y-33408D01*
X59121Y-33408D01*
X59277Y-33343D01*
X59397Y-33224D01*
X59461Y-33068D01*
X59462Y-32899D01*
X59397Y-32742D01*
X59326Y-32672D01*
X59326Y-31010D01*
X59397Y-30940D01*
X59461Y-30784D01*
X59462Y-30615D01*
X59397Y-30459D01*
X59277Y-30339D01*
X59121Y-30274D01*
X58952Y-30274D01*
X58796Y-30339D01*
X58676Y-30458D01*
X58612Y-30614D01*
X58611Y-30783D01*
X58676Y-30940D01*
X58746Y-31010D01*
X58746Y-32672D01*
X58676Y-32742D01*
X58612Y-32898D01*
X58611Y-32998D01*
X58582Y-33027D01*
X58517Y-32869D01*
X58363Y-32715D01*
X58160Y-32631D01*
X57942Y-32630D01*
X57739Y-32714D01*
X57585Y-32869D01*
X57551Y-32950D01*
X57517Y-32869D01*
X57363Y-32715D01*
X57281Y-32681D01*
X57362Y-32647D01*
X57517Y-32493D01*
X57601Y-32290D01*
X57601Y-32072D01*
X57517Y-31869D01*
X57363Y-31715D01*
X57281Y-31681D01*
X57362Y-31647D01*
X57517Y-31493D01*
X57601Y-31290D01*
X57601Y-31072D01*
X57517Y-30869D01*
X57363Y-30715D01*
X57281Y-30681D01*
X57362Y-30647D01*
X57517Y-30493D01*
X57601Y-30290D01*
X57601Y-30072D01*
X57517Y-29869D01*
X57363Y-29715D01*
X57281Y-29681D01*
X57362Y-29647D01*
X57517Y-29493D01*
X57601Y-29290D01*
X57601Y-29072D01*
X57517Y-28869D01*
X57467Y-28819D01*
X63650Y-28819D01*
X63753Y-28799D01*
X63779Y-28781D01*
X65199Y-28781D01*
X65330Y-28911D01*
X65330Y-29015D01*
X65275Y-29096D01*
X65255Y-29200D01*
X65255Y-33925D01*
X65275Y-34028D01*
X65334Y-34115D01*
X65405Y-34186D01*
X65405Y-35938D01*
X65405Y-35938D01*
G37*
G54D17*
X65405Y-35938D02*
X65183Y-36159D01*
X65124Y-36119D01*
X65021Y-36099D01*
X64960Y-36099D01*
X64960Y-33130D01*
X64960Y-31130D01*
X64880Y-30935D01*
X64731Y-30786D01*
X64536Y-30705D01*
X64325Y-30705D01*
X64130Y-30785D01*
X63981Y-30934D01*
X63900Y-31129D01*
X63900Y-31340D01*
X63981Y-31535D01*
X64130Y-31684D01*
X64324Y-31765D01*
X64535Y-31765D01*
X64730Y-31684D01*
X64879Y-31535D01*
X64960Y-31341D01*
X64960Y-31130D01*
X64960Y-33130D01*
X64880Y-32935D01*
X64731Y-32786D01*
X64536Y-32705D01*
X64325Y-32705D01*
X64130Y-32785D01*
X63981Y-32934D01*
X63900Y-33129D01*
X63900Y-33340D01*
X63981Y-33535D01*
X64130Y-33684D01*
X64324Y-33765D01*
X64535Y-33765D01*
X64730Y-33684D01*
X64879Y-33535D01*
X64960Y-33341D01*
X64960Y-33130D01*
X64960Y-36099D01*
X64470Y-36099D01*
X64366Y-36119D01*
X64279Y-36178D01*
X64122Y-36335D01*
X63446Y-36335D01*
X63320Y-36335D01*
X63320Y-30615D01*
X63255Y-30459D01*
X63136Y-30339D01*
X62980Y-30274D01*
X62811Y-30274D01*
X62748Y-30300D01*
X61902Y-29454D01*
X61902Y-29355D01*
X61838Y-29199D01*
X61718Y-29079D01*
X61562Y-29014D01*
X61393Y-29014D01*
X61237Y-29079D01*
X61117Y-29198D01*
X61052Y-29355D01*
X61052Y-29524D01*
X61117Y-29680D01*
X61236Y-29800D01*
X61392Y-29864D01*
X61492Y-29864D01*
X62511Y-30883D01*
X62534Y-30940D01*
X62654Y-31059D01*
X62810Y-31124D01*
X62979Y-31124D01*
X63135Y-31060D01*
X63255Y-30940D01*
X63320Y-30784D01*
X63320Y-30615D01*
X63320Y-36335D01*
X62455Y-36335D01*
X62219Y-36099D01*
X62132Y-36041D01*
X62029Y-36020D01*
X60060Y-36020D01*
X59957Y-36041D01*
X59928Y-36060D01*
X59869Y-36099D01*
X59633Y-36336D01*
X58579Y-36336D01*
X58591Y-36302D01*
X58637Y-36321D01*
X58806Y-36321D01*
X58962Y-36257D01*
X59082Y-36137D01*
X59146Y-35981D01*
X59147Y-35812D01*
X59082Y-35656D01*
X58963Y-35536D01*
X58806Y-35471D01*
X58707Y-35471D01*
X58690Y-35455D01*
X58596Y-35392D01*
X58561Y-35385D01*
X58601Y-35290D01*
X58601Y-35072D01*
X58517Y-34869D01*
X58363Y-34715D01*
X58281Y-34681D01*
X58362Y-34647D01*
X58517Y-34493D01*
X58526Y-34471D01*
X59032Y-34471D01*
X59070Y-34562D01*
X59144Y-34636D01*
X59070Y-34710D01*
X59005Y-34866D01*
X59005Y-35035D01*
X59070Y-35192D01*
X59189Y-35311D01*
X59345Y-35376D01*
X59514Y-35376D01*
X59671Y-35312D01*
X59741Y-35241D01*
X60532Y-35241D01*
X60643Y-35219D01*
X60738Y-35156D01*
X62329Y-33565D01*
X62428Y-33565D01*
X62584Y-33501D01*
X62704Y-33381D01*
X62768Y-33225D01*
X62769Y-33056D01*
X62704Y-32900D01*
X62585Y-32780D01*
X62428Y-32715D01*
X62259Y-32715D01*
X62103Y-32780D01*
X61983Y-32899D01*
X61919Y-33055D01*
X61919Y-33155D01*
X60412Y-34661D01*
X59741Y-34661D01*
X59716Y-34636D01*
X59790Y-34562D01*
X59855Y-34406D01*
X59855Y-34237D01*
X59791Y-34081D01*
X59671Y-33961D01*
X59515Y-33896D01*
X59346Y-33896D01*
X59337Y-33900D01*
X59289Y-33891D01*
X58539Y-33891D01*
X59022Y-33408D01*
X59121Y-33408D01*
X59277Y-33343D01*
X59397Y-33224D01*
X59461Y-33068D01*
X59462Y-32899D01*
X59397Y-32742D01*
X59326Y-32672D01*
X59326Y-31010D01*
X59397Y-30940D01*
X59461Y-30784D01*
X59462Y-30615D01*
X59397Y-30459D01*
X59277Y-30339D01*
X59121Y-30274D01*
X58952Y-30274D01*
X58796Y-30339D01*
X58676Y-30458D01*
X58612Y-30614D01*
X58611Y-30783D01*
X58676Y-30940D01*
X58746Y-31010D01*
X58746Y-32672D01*
X58676Y-32742D01*
X58612Y-32898D01*
X58611Y-32998D01*
X58582Y-33027D01*
X58517Y-32869D01*
X58363Y-32715D01*
X58160Y-32631D01*
X57942Y-32630D01*
X57739Y-32714D01*
X57585Y-32869D01*
X57551Y-32950D01*
X57517Y-32869D01*
X57363Y-32715D01*
X57281Y-32681D01*
X57362Y-32647D01*
X57517Y-32493D01*
X57601Y-32290D01*
X57601Y-32072D01*
X57517Y-31869D01*
X57363Y-31715D01*
X57281Y-31681D01*
X57362Y-31647D01*
X57517Y-31493D01*
X57601Y-31290D01*
X57601Y-31072D01*
X57517Y-30869D01*
X57363Y-30715D01*
X57281Y-30681D01*
X57362Y-30647D01*
X57517Y-30493D01*
X57601Y-30290D01*
X57601Y-30072D01*
X57517Y-29869D01*
X57363Y-29715D01*
X57281Y-29681D01*
X57362Y-29647D01*
X57517Y-29493D01*
X57601Y-29290D01*
X57601Y-29072D01*
X57517Y-28869D01*
X57467Y-28819D01*
X63650Y-28819D01*
X63753Y-28799D01*
X63779Y-28781D01*
X65199Y-28781D01*
X65330Y-28911D01*
X65330Y-29015D01*
X65275Y-29096D01*
X65255Y-29200D01*
X65255Y-33925D01*
X65275Y-34028D01*
X65334Y-34115D01*
X65405Y-34186D01*
X65405Y-35938D01*
M02*
