M48
INCH,TZ
T1C0.025
T2C0.030
T3C0.040
T4C0.063
%
G90
G05
T1
X36124Y-31960
X36281Y-31330
X36675Y-31802
X37451Y-35456
X37620Y-31251
X37698Y-32038
X37856Y-29991
X39509Y-32353
X39667Y-30070
X41635Y-29361
X43101Y-29356
X45021Y-31251
X45966Y-31172
X48701Y-31856
X48722Y-30227
X48751Y-30806
X48751Y-32606
X49588Y-32275
X50061Y-31330
X50451Y-29856
X50848Y-32038
X50848Y-33771
X50848Y-34479
X51399Y-32590
X52108Y-32511
X52738Y-33062
X52895Y-31251
X53289Y-30936
X58013Y-29204
X58722Y-35897
X59037Y-30700
X59037Y-32983
X59431Y-34322
X59431Y-34952
X59509Y-35660
X61478Y-29440
X61793Y-33219
X62344Y-33141
X62738Y-29125
X62895Y-30700
X63053Y-35660
X65021Y-30070
T2
X64431Y-31235
X64431Y-33235
T3
X34051Y-29181
X34051Y-30181
X34051Y-31181
X34051Y-32181
X35051Y-29181
X35051Y-30181
X35051Y-31181
X35051Y-32181
X35051Y-33181
X35051Y-34181
X35051Y-35181
X35051Y-36181
X45351Y-32206
X45351Y-33206
X45351Y-34206
X45351Y-35206
X55051Y-29181
X55051Y-30181
X55051Y-31181
X55051Y-32181
X56051Y-29181
X56051Y-30181
X56051Y-31181
X56051Y-32181
X56051Y-33181
X56051Y-34181
X56051Y-35181
X56051Y-36181
X57051Y-29181
X57051Y-30181
X57051Y-31181
X57051Y-32181
X57051Y-33181
X57051Y-34181
X57051Y-35181
X57051Y-36181
X58051Y-33181
X58051Y-34181
X58051Y-35181
X58051Y-36181
T4
X40383Y-33056
X41367Y-33056
X42351Y-35025
X43335Y-33056
X44320Y-33056
X46360Y-33062
X47344Y-33062
X48328Y-35030
X49313Y-33062
X50297Y-33062
T0
M30
