G04 (created by PCBNEW (2013-07-07 BZR 4022)-stable) date 01/09/2014 21:36:03*
%MOIN*%
G04 Gerber Fmt 3.4, Leading zero omitted, Abs format*
%FSLAX34Y34*%
G01*
G70*
G90*
G04 APERTURE LIST*
%ADD10C,0.00590551*%
%ADD11R,0.06X0.06*%
%ADD12C,0.06*%
%ADD13C,0.0787402*%
%ADD14C,0.056*%
%ADD15C,0.035*%
%ADD16C,0.01*%
%ADD17C,0.008*%
G04 APERTURE END LIST*
G54D10*
G54D11*
X80400Y-38875D03*
G54D12*
X80400Y-44875D03*
X80400Y-39875D03*
X80400Y-45875D03*
X80400Y-40875D03*
X80400Y-41875D03*
X80400Y-42875D03*
X80400Y-43875D03*
X79400Y-41875D03*
X79400Y-40875D03*
X79400Y-39875D03*
X79400Y-38875D03*
G54D11*
X81400Y-45875D03*
G54D12*
X81400Y-39875D03*
X81400Y-44875D03*
X81400Y-38875D03*
X81400Y-43875D03*
X81400Y-42875D03*
X81400Y-41875D03*
X81400Y-40875D03*
X82400Y-42875D03*
X82400Y-43875D03*
X82400Y-44875D03*
X82400Y-45875D03*
G54D11*
X59400Y-38875D03*
G54D12*
X59400Y-44875D03*
X59400Y-39875D03*
X59400Y-45875D03*
X59400Y-40875D03*
X59400Y-41875D03*
X59400Y-42875D03*
X59400Y-43875D03*
X58400Y-41875D03*
X58400Y-40875D03*
X58400Y-39875D03*
X58400Y-38875D03*
G54D13*
X73661Y-42755D03*
X71692Y-42755D03*
X74645Y-42755D03*
X70708Y-42755D03*
X72677Y-44724D03*
X67755Y-42755D03*
X65787Y-42755D03*
X68740Y-42755D03*
X64803Y-42755D03*
X66771Y-44724D03*
G54D14*
X88779Y-42929D03*
X88779Y-40929D03*
G54D15*
X62204Y-39685D03*
X60629Y-41023D03*
X87244Y-40393D03*
X85826Y-39133D03*
X83385Y-40393D03*
X83385Y-42677D03*
X83779Y-44015D03*
X65984Y-39055D03*
X61023Y-41496D03*
X60472Y-41653D03*
X61968Y-40944D03*
X73937Y-41968D03*
X77244Y-40944D03*
X83070Y-45590D03*
X83779Y-44645D03*
X86692Y-42834D03*
X64015Y-39763D03*
X63858Y-42047D03*
X82362Y-38897D03*
X62047Y-41732D03*
X75748Y-42283D03*
X69370Y-40944D03*
X73070Y-39921D03*
X77637Y-40629D03*
X77086Y-42755D03*
X86141Y-42913D03*
X89370Y-39763D03*
X87086Y-38818D03*
X83858Y-45354D03*
X87401Y-45354D03*
X70314Y-40866D03*
X74409Y-41023D03*
X75196Y-41732D03*
X76456Y-42204D03*
X75196Y-44173D03*
X75196Y-43464D03*
G54D16*
X61968Y-39685D02*
X62204Y-39685D01*
X60629Y-41023D02*
X61968Y-39685D01*
G54D17*
X87086Y-40393D02*
X87244Y-40393D01*
X85826Y-39133D02*
X87086Y-40393D01*
X83385Y-42677D02*
X83385Y-40393D01*
X82400Y-43875D02*
X82400Y-43662D01*
X82400Y-43662D02*
X83385Y-42677D01*
X83638Y-43875D02*
X82400Y-43875D01*
X83779Y-44015D02*
X83638Y-43875D01*
G54D16*
X63385Y-39685D02*
X63622Y-39448D01*
X65590Y-39448D02*
X65984Y-39055D01*
X63622Y-39448D02*
X65590Y-39448D01*
X61968Y-40944D02*
X62125Y-40944D01*
X62125Y-40944D02*
X63385Y-39685D01*
X58597Y-41875D02*
X59133Y-41338D01*
X59133Y-41338D02*
X60157Y-41338D01*
X60157Y-41338D02*
X60472Y-41653D01*
X58400Y-41875D02*
X58597Y-41875D01*
X61968Y-41259D02*
X61968Y-40944D01*
X61732Y-41496D02*
X61968Y-41259D01*
X61181Y-41496D02*
X61732Y-41496D01*
X61023Y-41496D02*
X61181Y-41496D01*
X75826Y-40944D02*
X77244Y-40944D01*
X74960Y-40944D02*
X75826Y-40944D01*
X73937Y-41968D02*
X74960Y-40944D01*
X78174Y-41875D02*
X79400Y-41875D01*
X77244Y-40944D02*
X78174Y-41875D01*
G54D17*
X81920Y-45354D02*
X81400Y-45875D01*
X82834Y-45354D02*
X81920Y-45354D01*
X83070Y-45590D02*
X82834Y-45354D01*
X84881Y-44645D02*
X83779Y-44645D01*
X86692Y-42834D02*
X84881Y-44645D01*
G54D16*
X79400Y-38875D02*
X79400Y-39006D01*
X81889Y-39370D02*
X82362Y-38897D01*
X79763Y-39370D02*
X81889Y-39370D01*
X79400Y-39006D02*
X79763Y-39370D01*
X74251Y-40866D02*
X70314Y-40866D01*
X74409Y-41023D02*
X74251Y-40866D01*
X75984Y-41732D02*
X75196Y-41732D01*
X76456Y-42204D02*
X75984Y-41732D01*
X75196Y-43464D02*
X75196Y-44173D01*
G54D10*
G36*
X59072Y-39424D02*
X58934Y-39563D01*
X58900Y-39644D01*
X58866Y-39563D01*
X58711Y-39409D01*
X58636Y-39377D01*
X58687Y-39356D01*
X58715Y-39260D01*
X58400Y-38945D01*
X58394Y-38951D01*
X58323Y-38880D01*
X58329Y-38875D01*
X58323Y-38869D01*
X58394Y-38798D01*
X58400Y-38804D01*
X58405Y-38798D01*
X58476Y-38869D01*
X58470Y-38875D01*
X58785Y-39190D01*
X58849Y-39171D01*
X58849Y-39224D01*
X58887Y-39316D01*
X58958Y-39386D01*
X59050Y-39424D01*
X59072Y-39424D01*
X59072Y-39424D01*
G37*
G54D16*
X59072Y-39424D02*
X58934Y-39563D01*
X58900Y-39644D01*
X58866Y-39563D01*
X58711Y-39409D01*
X58636Y-39377D01*
X58687Y-39356D01*
X58715Y-39260D01*
X58400Y-38945D01*
X58394Y-38951D01*
X58323Y-38880D01*
X58329Y-38875D01*
X58323Y-38869D01*
X58394Y-38798D01*
X58400Y-38804D01*
X58405Y-38798D01*
X58476Y-38869D01*
X58470Y-38875D01*
X58785Y-39190D01*
X58849Y-39171D01*
X58849Y-39224D01*
X58887Y-39316D01*
X58958Y-39386D01*
X59050Y-39424D01*
X59072Y-39424D01*
G54D10*
G36*
X80072Y-39424D02*
X79934Y-39563D01*
X79900Y-39644D01*
X79866Y-39563D01*
X79711Y-39409D01*
X79636Y-39377D01*
X79687Y-39356D01*
X79715Y-39260D01*
X79400Y-38945D01*
X79084Y-39260D01*
X79112Y-39356D01*
X79167Y-39375D01*
X79088Y-39408D01*
X78934Y-39563D01*
X78850Y-39765D01*
X78849Y-39983D01*
X78933Y-40186D01*
X79088Y-40340D01*
X79169Y-40374D01*
X79088Y-40408D01*
X78934Y-40563D01*
X78850Y-40765D01*
X78849Y-40983D01*
X78933Y-41186D01*
X79088Y-41340D01*
X79169Y-41374D01*
X79088Y-41408D01*
X78934Y-41563D01*
X78929Y-41575D01*
X78298Y-41575D01*
X77669Y-40945D01*
X77669Y-40860D01*
X77604Y-40704D01*
X77485Y-40584D01*
X77329Y-40519D01*
X77159Y-40519D01*
X77003Y-40584D01*
X76943Y-40644D01*
X75826Y-40644D01*
X74960Y-40644D01*
X74845Y-40667D01*
X74748Y-40732D01*
X74734Y-40747D01*
X74650Y-40663D01*
X74494Y-40598D01*
X74381Y-40598D01*
X74366Y-40588D01*
X74251Y-40566D01*
X70616Y-40566D01*
X70556Y-40506D01*
X70399Y-40441D01*
X70230Y-40441D01*
X70074Y-40505D01*
X69954Y-40625D01*
X69890Y-40781D01*
X69889Y-40950D01*
X69954Y-41106D01*
X70073Y-41226D01*
X70230Y-41291D01*
X70399Y-41291D01*
X70555Y-41226D01*
X70616Y-41166D01*
X74008Y-41166D01*
X74048Y-41264D01*
X74132Y-41348D01*
X73937Y-41543D01*
X73852Y-41543D01*
X73696Y-41607D01*
X73576Y-41727D01*
X73512Y-41883D01*
X73511Y-42052D01*
X73538Y-42116D01*
X73509Y-42117D01*
X73317Y-42197D01*
X73278Y-42302D01*
X73661Y-42685D01*
X73666Y-42679D01*
X73737Y-42750D01*
X73732Y-42755D01*
X74115Y-43138D01*
X74117Y-43138D01*
X74280Y-43301D01*
X74517Y-43399D01*
X74771Y-43399D01*
X74771Y-43548D01*
X74836Y-43704D01*
X74896Y-43765D01*
X74896Y-43872D01*
X74836Y-43932D01*
X74771Y-44088D01*
X74771Y-44239D01*
X74744Y-44228D01*
X74547Y-44228D01*
X74365Y-44303D01*
X74225Y-44443D01*
X74149Y-44625D01*
X74149Y-44822D01*
X74224Y-45005D01*
X74364Y-45144D01*
X74537Y-45216D01*
X74365Y-45287D01*
X74225Y-45427D01*
X74149Y-45609D01*
X74149Y-45806D01*
X74224Y-45989D01*
X74265Y-46029D01*
X74044Y-46029D01*
X74044Y-43209D01*
X73661Y-42826D01*
X73590Y-42897D01*
X73590Y-42755D01*
X73207Y-42372D01*
X73102Y-42411D01*
X73084Y-42461D01*
X72958Y-42335D01*
X72776Y-42259D01*
X72578Y-42259D01*
X72396Y-42335D01*
X72271Y-42459D01*
X72251Y-42411D01*
X72146Y-42372D01*
X72075Y-42443D01*
X72075Y-42302D01*
X72037Y-42197D01*
X71797Y-42107D01*
X71541Y-42117D01*
X71348Y-42197D01*
X71309Y-42302D01*
X71692Y-42685D01*
X72075Y-42302D01*
X72075Y-42443D01*
X71763Y-42755D01*
X72146Y-43138D01*
X72251Y-43100D01*
X72270Y-43050D01*
X72395Y-43176D01*
X72578Y-43251D01*
X72775Y-43252D01*
X72957Y-43176D01*
X73082Y-43052D01*
X73102Y-43100D01*
X73207Y-43138D01*
X73590Y-42755D01*
X73590Y-42897D01*
X73278Y-43209D01*
X73317Y-43314D01*
X73557Y-43403D01*
X73813Y-43394D01*
X74005Y-43314D01*
X74044Y-43209D01*
X74044Y-46029D01*
X73325Y-46029D01*
X73325Y-44828D01*
X73315Y-44572D01*
X73235Y-44380D01*
X73130Y-44341D01*
X73060Y-44412D01*
X73060Y-44270D01*
X73021Y-44165D01*
X72781Y-44076D01*
X72525Y-44085D01*
X72332Y-44165D01*
X72294Y-44270D01*
X72677Y-44653D01*
X73060Y-44270D01*
X73060Y-44412D01*
X72747Y-44724D01*
X73130Y-45107D01*
X73235Y-45068D01*
X73325Y-44828D01*
X73325Y-46029D01*
X73060Y-46029D01*
X73060Y-45178D01*
X72677Y-44795D01*
X72606Y-44865D01*
X72606Y-44724D01*
X72223Y-44341D01*
X72118Y-44380D01*
X72075Y-44494D01*
X72075Y-43209D01*
X71692Y-42826D01*
X71622Y-42897D01*
X71622Y-42755D01*
X71239Y-42372D01*
X71236Y-42373D01*
X71073Y-42210D01*
X70837Y-42112D01*
X70581Y-42112D01*
X70344Y-42209D01*
X70163Y-42390D01*
X70065Y-42627D01*
X70064Y-42883D01*
X70162Y-43120D01*
X70343Y-43301D01*
X70580Y-43399D01*
X70836Y-43399D01*
X71072Y-43301D01*
X71236Y-43138D01*
X71239Y-43138D01*
X71622Y-42755D01*
X71622Y-42897D01*
X71309Y-43209D01*
X71348Y-43314D01*
X71588Y-43403D01*
X71844Y-43394D01*
X72037Y-43314D01*
X72075Y-43209D01*
X72075Y-44494D01*
X72029Y-44620D01*
X72038Y-44876D01*
X72118Y-45068D01*
X72223Y-45107D01*
X72606Y-44724D01*
X72606Y-44865D01*
X72294Y-45178D01*
X72332Y-45283D01*
X72573Y-45372D01*
X72828Y-45362D01*
X73021Y-45283D01*
X73060Y-45178D01*
X73060Y-46029D01*
X71089Y-46029D01*
X71128Y-45990D01*
X71204Y-45807D01*
X71204Y-45610D01*
X71129Y-45428D01*
X70990Y-45288D01*
X70816Y-45216D01*
X70989Y-45145D01*
X71128Y-45005D01*
X71204Y-44823D01*
X71204Y-44626D01*
X71129Y-44443D01*
X70990Y-44304D01*
X70807Y-44228D01*
X70610Y-44228D01*
X70428Y-44303D01*
X70288Y-44443D01*
X70212Y-44625D01*
X70212Y-44822D01*
X70287Y-45005D01*
X70427Y-45144D01*
X70600Y-45216D01*
X70428Y-45287D01*
X70288Y-45427D01*
X70212Y-45609D01*
X70212Y-45806D01*
X70287Y-45989D01*
X70328Y-46029D01*
X69383Y-46029D01*
X69383Y-42628D01*
X69286Y-42391D01*
X69105Y-42210D01*
X68868Y-42112D01*
X68612Y-42112D01*
X68376Y-42209D01*
X68211Y-42373D01*
X68209Y-42372D01*
X68138Y-42443D01*
X68138Y-42302D01*
X68100Y-42197D01*
X67860Y-42107D01*
X67604Y-42117D01*
X67411Y-42197D01*
X67372Y-42302D01*
X67755Y-42685D01*
X68138Y-42302D01*
X68138Y-42443D01*
X67826Y-42755D01*
X68209Y-43138D01*
X68212Y-43138D01*
X68375Y-43301D01*
X68611Y-43399D01*
X68867Y-43399D01*
X69104Y-43301D01*
X69285Y-43121D01*
X69383Y-42884D01*
X69383Y-42628D01*
X69383Y-46029D01*
X69120Y-46029D01*
X69160Y-45990D01*
X69236Y-45807D01*
X69236Y-45610D01*
X69160Y-45428D01*
X69021Y-45288D01*
X68848Y-45216D01*
X69020Y-45145D01*
X69160Y-45005D01*
X69236Y-44823D01*
X69236Y-44626D01*
X69160Y-44443D01*
X69021Y-44304D01*
X68839Y-44228D01*
X68641Y-44228D01*
X68459Y-44303D01*
X68319Y-44443D01*
X68244Y-44625D01*
X68244Y-44822D01*
X68319Y-45005D01*
X68458Y-45144D01*
X68631Y-45216D01*
X68459Y-45287D01*
X68319Y-45427D01*
X68244Y-45609D01*
X68244Y-45806D01*
X68319Y-45989D01*
X68359Y-46029D01*
X68138Y-46029D01*
X68138Y-43209D01*
X67755Y-42826D01*
X67685Y-42897D01*
X67685Y-42755D01*
X67302Y-42372D01*
X67197Y-42411D01*
X67178Y-42461D01*
X67053Y-42335D01*
X66870Y-42259D01*
X66673Y-42259D01*
X66491Y-42335D01*
X66366Y-42459D01*
X66346Y-42411D01*
X66241Y-42372D01*
X66170Y-42443D01*
X66170Y-42302D01*
X66131Y-42197D01*
X65891Y-42107D01*
X65635Y-42117D01*
X65443Y-42197D01*
X65404Y-42302D01*
X65787Y-42685D01*
X66170Y-42302D01*
X66170Y-42443D01*
X65858Y-42755D01*
X66241Y-43138D01*
X66346Y-43100D01*
X66364Y-43050D01*
X66490Y-43176D01*
X66672Y-43251D01*
X66869Y-43252D01*
X67052Y-43176D01*
X67177Y-43052D01*
X67197Y-43100D01*
X67302Y-43138D01*
X67685Y-42755D01*
X67685Y-42897D01*
X67372Y-43209D01*
X67411Y-43314D01*
X67651Y-43403D01*
X67907Y-43394D01*
X68100Y-43314D01*
X68138Y-43209D01*
X68138Y-46029D01*
X67419Y-46029D01*
X67419Y-44828D01*
X67410Y-44572D01*
X67330Y-44380D01*
X67225Y-44341D01*
X67154Y-44412D01*
X67154Y-44270D01*
X67115Y-44165D01*
X66875Y-44076D01*
X66619Y-44085D01*
X66427Y-44165D01*
X66388Y-44270D01*
X66771Y-44653D01*
X67154Y-44270D01*
X67154Y-44412D01*
X66842Y-44724D01*
X67225Y-45107D01*
X67330Y-45068D01*
X67419Y-44828D01*
X67419Y-46029D01*
X67154Y-46029D01*
X67154Y-45178D01*
X66771Y-44795D01*
X66700Y-44865D01*
X66700Y-44724D01*
X66317Y-44341D01*
X66212Y-44380D01*
X66170Y-44494D01*
X66170Y-43209D01*
X65787Y-42826D01*
X65716Y-42897D01*
X65716Y-42755D01*
X65333Y-42372D01*
X65331Y-42373D01*
X65168Y-42210D01*
X64931Y-42112D01*
X64675Y-42112D01*
X64438Y-42209D01*
X64257Y-42390D01*
X64159Y-42627D01*
X64159Y-42883D01*
X64257Y-43120D01*
X64438Y-43301D01*
X64674Y-43399D01*
X64930Y-43399D01*
X65167Y-43301D01*
X65331Y-43138D01*
X65333Y-43138D01*
X65716Y-42755D01*
X65716Y-42897D01*
X65404Y-43209D01*
X65443Y-43314D01*
X65683Y-43403D01*
X65939Y-43394D01*
X66131Y-43314D01*
X66170Y-43209D01*
X66170Y-44494D01*
X66123Y-44620D01*
X66133Y-44876D01*
X66212Y-45068D01*
X66317Y-45107D01*
X66700Y-44724D01*
X66700Y-44865D01*
X66388Y-45178D01*
X66427Y-45283D01*
X66667Y-45372D01*
X66923Y-45362D01*
X67115Y-45283D01*
X67154Y-45178D01*
X67154Y-46029D01*
X65183Y-46029D01*
X65223Y-45990D01*
X65299Y-45807D01*
X65299Y-45610D01*
X65223Y-45428D01*
X65084Y-45288D01*
X64911Y-45216D01*
X65083Y-45145D01*
X65223Y-45005D01*
X65299Y-44823D01*
X65299Y-44626D01*
X65223Y-44443D01*
X65084Y-44304D01*
X64902Y-44228D01*
X64704Y-44228D01*
X64522Y-44303D01*
X64382Y-44443D01*
X64307Y-44625D01*
X64307Y-44822D01*
X64382Y-45005D01*
X64521Y-45144D01*
X64694Y-45216D01*
X64522Y-45287D01*
X64382Y-45427D01*
X64307Y-45609D01*
X64307Y-45806D01*
X64382Y-45989D01*
X64422Y-46029D01*
X59931Y-46029D01*
X59949Y-45984D01*
X59950Y-45766D01*
X59866Y-45563D01*
X59711Y-45409D01*
X59630Y-45375D01*
X59711Y-45341D01*
X59865Y-45186D01*
X59949Y-44984D01*
X59950Y-44766D01*
X59866Y-44563D01*
X59711Y-44409D01*
X59630Y-44375D01*
X59711Y-44341D01*
X59865Y-44186D01*
X59949Y-43984D01*
X59950Y-43766D01*
X59866Y-43563D01*
X59711Y-43409D01*
X59630Y-43375D01*
X59711Y-43341D01*
X59865Y-43186D01*
X59949Y-42984D01*
X59950Y-42766D01*
X59866Y-42563D01*
X59711Y-42409D01*
X59630Y-42375D01*
X59711Y-42341D01*
X59865Y-42186D01*
X59949Y-41984D01*
X59950Y-41766D01*
X59897Y-41638D01*
X60033Y-41638D01*
X60047Y-41652D01*
X60047Y-41737D01*
X60111Y-41893D01*
X60231Y-42013D01*
X60387Y-42078D01*
X60556Y-42078D01*
X60712Y-42014D01*
X60832Y-41894D01*
X60838Y-41879D01*
X60938Y-41920D01*
X61107Y-41921D01*
X61264Y-41856D01*
X61324Y-41796D01*
X61732Y-41796D01*
X61732Y-41796D01*
X61847Y-41773D01*
X61847Y-41773D01*
X61944Y-41708D01*
X62180Y-41471D01*
X62245Y-41374D01*
X62268Y-41259D01*
X62268Y-41259D01*
X62268Y-41245D01*
X62328Y-41185D01*
X62342Y-41152D01*
X63597Y-39897D01*
X63597Y-39897D01*
X63597Y-39897D01*
X63746Y-39748D01*
X65590Y-39748D01*
X65590Y-39748D01*
X65705Y-39725D01*
X65705Y-39725D01*
X65802Y-39660D01*
X65983Y-39480D01*
X66068Y-39480D01*
X66224Y-39415D01*
X66344Y-39296D01*
X66409Y-39140D01*
X66409Y-38970D01*
X66344Y-38814D01*
X66225Y-38695D01*
X66069Y-38630D01*
X65900Y-38630D01*
X65743Y-38694D01*
X65624Y-38814D01*
X65559Y-38970D01*
X65559Y-39055D01*
X65466Y-39148D01*
X63622Y-39148D01*
X63507Y-39171D01*
X63409Y-39236D01*
X63173Y-39472D01*
X63173Y-39472D01*
X62105Y-40541D01*
X62053Y-40519D01*
X61884Y-40519D01*
X61728Y-40584D01*
X61608Y-40703D01*
X61543Y-40859D01*
X61543Y-41029D01*
X61607Y-41185D01*
X61613Y-41190D01*
X61608Y-41196D01*
X61324Y-41196D01*
X61264Y-41135D01*
X61108Y-41071D01*
X61054Y-41071D01*
X61054Y-41022D01*
X62012Y-40065D01*
X62119Y-40109D01*
X62288Y-40110D01*
X62445Y-40045D01*
X62564Y-39926D01*
X62629Y-39769D01*
X62629Y-39600D01*
X62565Y-39444D01*
X62445Y-39324D01*
X62289Y-39260D01*
X62120Y-39259D01*
X61964Y-39324D01*
X61887Y-39401D01*
X61887Y-39401D01*
X61853Y-39407D01*
X61756Y-39472D01*
X60630Y-40598D01*
X60545Y-40598D01*
X60389Y-40663D01*
X60269Y-40782D01*
X60204Y-40938D01*
X60204Y-41048D01*
X60157Y-41038D01*
X59927Y-41038D01*
X59949Y-40984D01*
X59950Y-40766D01*
X59866Y-40563D01*
X59711Y-40409D01*
X59630Y-40375D01*
X59711Y-40341D01*
X59865Y-40186D01*
X59949Y-39984D01*
X59950Y-39766D01*
X59866Y-39563D01*
X59727Y-39425D01*
X59749Y-39425D01*
X59841Y-39387D01*
X59911Y-39316D01*
X59949Y-39224D01*
X59950Y-39125D01*
X59950Y-38616D01*
X78908Y-38616D01*
X78845Y-38793D01*
X78856Y-39011D01*
X78918Y-39162D01*
X79014Y-39190D01*
X79329Y-38875D01*
X79323Y-38869D01*
X79394Y-38798D01*
X79400Y-38804D01*
X79405Y-38798D01*
X79476Y-38869D01*
X79470Y-38875D01*
X79785Y-39190D01*
X79849Y-39171D01*
X79849Y-39224D01*
X79887Y-39316D01*
X79958Y-39386D01*
X80050Y-39424D01*
X80072Y-39424D01*
X80072Y-39424D01*
G37*
G54D16*
X80072Y-39424D02*
X79934Y-39563D01*
X79900Y-39644D01*
X79866Y-39563D01*
X79711Y-39409D01*
X79636Y-39377D01*
X79687Y-39356D01*
X79715Y-39260D01*
X79400Y-38945D01*
X79084Y-39260D01*
X79112Y-39356D01*
X79167Y-39375D01*
X79088Y-39408D01*
X78934Y-39563D01*
X78850Y-39765D01*
X78849Y-39983D01*
X78933Y-40186D01*
X79088Y-40340D01*
X79169Y-40374D01*
X79088Y-40408D01*
X78934Y-40563D01*
X78850Y-40765D01*
X78849Y-40983D01*
X78933Y-41186D01*
X79088Y-41340D01*
X79169Y-41374D01*
X79088Y-41408D01*
X78934Y-41563D01*
X78929Y-41575D01*
X78298Y-41575D01*
X77669Y-40945D01*
X77669Y-40860D01*
X77604Y-40704D01*
X77485Y-40584D01*
X77329Y-40519D01*
X77159Y-40519D01*
X77003Y-40584D01*
X76943Y-40644D01*
X75826Y-40644D01*
X74960Y-40644D01*
X74845Y-40667D01*
X74748Y-40732D01*
X74734Y-40747D01*
X74650Y-40663D01*
X74494Y-40598D01*
X74381Y-40598D01*
X74366Y-40588D01*
X74251Y-40566D01*
X70616Y-40566D01*
X70556Y-40506D01*
X70399Y-40441D01*
X70230Y-40441D01*
X70074Y-40505D01*
X69954Y-40625D01*
X69890Y-40781D01*
X69889Y-40950D01*
X69954Y-41106D01*
X70073Y-41226D01*
X70230Y-41291D01*
X70399Y-41291D01*
X70555Y-41226D01*
X70616Y-41166D01*
X74008Y-41166D01*
X74048Y-41264D01*
X74132Y-41348D01*
X73937Y-41543D01*
X73852Y-41543D01*
X73696Y-41607D01*
X73576Y-41727D01*
X73512Y-41883D01*
X73511Y-42052D01*
X73538Y-42116D01*
X73509Y-42117D01*
X73317Y-42197D01*
X73278Y-42302D01*
X73661Y-42685D01*
X73666Y-42679D01*
X73737Y-42750D01*
X73732Y-42755D01*
X74115Y-43138D01*
X74117Y-43138D01*
X74280Y-43301D01*
X74517Y-43399D01*
X74771Y-43399D01*
X74771Y-43548D01*
X74836Y-43704D01*
X74896Y-43765D01*
X74896Y-43872D01*
X74836Y-43932D01*
X74771Y-44088D01*
X74771Y-44239D01*
X74744Y-44228D01*
X74547Y-44228D01*
X74365Y-44303D01*
X74225Y-44443D01*
X74149Y-44625D01*
X74149Y-44822D01*
X74224Y-45005D01*
X74364Y-45144D01*
X74537Y-45216D01*
X74365Y-45287D01*
X74225Y-45427D01*
X74149Y-45609D01*
X74149Y-45806D01*
X74224Y-45989D01*
X74265Y-46029D01*
X74044Y-46029D01*
X74044Y-43209D01*
X73661Y-42826D01*
X73590Y-42897D01*
X73590Y-42755D01*
X73207Y-42372D01*
X73102Y-42411D01*
X73084Y-42461D01*
X72958Y-42335D01*
X72776Y-42259D01*
X72578Y-42259D01*
X72396Y-42335D01*
X72271Y-42459D01*
X72251Y-42411D01*
X72146Y-42372D01*
X72075Y-42443D01*
X72075Y-42302D01*
X72037Y-42197D01*
X71797Y-42107D01*
X71541Y-42117D01*
X71348Y-42197D01*
X71309Y-42302D01*
X71692Y-42685D01*
X72075Y-42302D01*
X72075Y-42443D01*
X71763Y-42755D01*
X72146Y-43138D01*
X72251Y-43100D01*
X72270Y-43050D01*
X72395Y-43176D01*
X72578Y-43251D01*
X72775Y-43252D01*
X72957Y-43176D01*
X73082Y-43052D01*
X73102Y-43100D01*
X73207Y-43138D01*
X73590Y-42755D01*
X73590Y-42897D01*
X73278Y-43209D01*
X73317Y-43314D01*
X73557Y-43403D01*
X73813Y-43394D01*
X74005Y-43314D01*
X74044Y-43209D01*
X74044Y-46029D01*
X73325Y-46029D01*
X73325Y-44828D01*
X73315Y-44572D01*
X73235Y-44380D01*
X73130Y-44341D01*
X73060Y-44412D01*
X73060Y-44270D01*
X73021Y-44165D01*
X72781Y-44076D01*
X72525Y-44085D01*
X72332Y-44165D01*
X72294Y-44270D01*
X72677Y-44653D01*
X73060Y-44270D01*
X73060Y-44412D01*
X72747Y-44724D01*
X73130Y-45107D01*
X73235Y-45068D01*
X73325Y-44828D01*
X73325Y-46029D01*
X73060Y-46029D01*
X73060Y-45178D01*
X72677Y-44795D01*
X72606Y-44865D01*
X72606Y-44724D01*
X72223Y-44341D01*
X72118Y-44380D01*
X72075Y-44494D01*
X72075Y-43209D01*
X71692Y-42826D01*
X71622Y-42897D01*
X71622Y-42755D01*
X71239Y-42372D01*
X71236Y-42373D01*
X71073Y-42210D01*
X70837Y-42112D01*
X70581Y-42112D01*
X70344Y-42209D01*
X70163Y-42390D01*
X70065Y-42627D01*
X70064Y-42883D01*
X70162Y-43120D01*
X70343Y-43301D01*
X70580Y-43399D01*
X70836Y-43399D01*
X71072Y-43301D01*
X71236Y-43138D01*
X71239Y-43138D01*
X71622Y-42755D01*
X71622Y-42897D01*
X71309Y-43209D01*
X71348Y-43314D01*
X71588Y-43403D01*
X71844Y-43394D01*
X72037Y-43314D01*
X72075Y-43209D01*
X72075Y-44494D01*
X72029Y-44620D01*
X72038Y-44876D01*
X72118Y-45068D01*
X72223Y-45107D01*
X72606Y-44724D01*
X72606Y-44865D01*
X72294Y-45178D01*
X72332Y-45283D01*
X72573Y-45372D01*
X72828Y-45362D01*
X73021Y-45283D01*
X73060Y-45178D01*
X73060Y-46029D01*
X71089Y-46029D01*
X71128Y-45990D01*
X71204Y-45807D01*
X71204Y-45610D01*
X71129Y-45428D01*
X70990Y-45288D01*
X70816Y-45216D01*
X70989Y-45145D01*
X71128Y-45005D01*
X71204Y-44823D01*
X71204Y-44626D01*
X71129Y-44443D01*
X70990Y-44304D01*
X70807Y-44228D01*
X70610Y-44228D01*
X70428Y-44303D01*
X70288Y-44443D01*
X70212Y-44625D01*
X70212Y-44822D01*
X70287Y-45005D01*
X70427Y-45144D01*
X70600Y-45216D01*
X70428Y-45287D01*
X70288Y-45427D01*
X70212Y-45609D01*
X70212Y-45806D01*
X70287Y-45989D01*
X70328Y-46029D01*
X69383Y-46029D01*
X69383Y-42628D01*
X69286Y-42391D01*
X69105Y-42210D01*
X68868Y-42112D01*
X68612Y-42112D01*
X68376Y-42209D01*
X68211Y-42373D01*
X68209Y-42372D01*
X68138Y-42443D01*
X68138Y-42302D01*
X68100Y-42197D01*
X67860Y-42107D01*
X67604Y-42117D01*
X67411Y-42197D01*
X67372Y-42302D01*
X67755Y-42685D01*
X68138Y-42302D01*
X68138Y-42443D01*
X67826Y-42755D01*
X68209Y-43138D01*
X68212Y-43138D01*
X68375Y-43301D01*
X68611Y-43399D01*
X68867Y-43399D01*
X69104Y-43301D01*
X69285Y-43121D01*
X69383Y-42884D01*
X69383Y-42628D01*
X69383Y-46029D01*
X69120Y-46029D01*
X69160Y-45990D01*
X69236Y-45807D01*
X69236Y-45610D01*
X69160Y-45428D01*
X69021Y-45288D01*
X68848Y-45216D01*
X69020Y-45145D01*
X69160Y-45005D01*
X69236Y-44823D01*
X69236Y-44626D01*
X69160Y-44443D01*
X69021Y-44304D01*
X68839Y-44228D01*
X68641Y-44228D01*
X68459Y-44303D01*
X68319Y-44443D01*
X68244Y-44625D01*
X68244Y-44822D01*
X68319Y-45005D01*
X68458Y-45144D01*
X68631Y-45216D01*
X68459Y-45287D01*
X68319Y-45427D01*
X68244Y-45609D01*
X68244Y-45806D01*
X68319Y-45989D01*
X68359Y-46029D01*
X68138Y-46029D01*
X68138Y-43209D01*
X67755Y-42826D01*
X67685Y-42897D01*
X67685Y-42755D01*
X67302Y-42372D01*
X67197Y-42411D01*
X67178Y-42461D01*
X67053Y-42335D01*
X66870Y-42259D01*
X66673Y-42259D01*
X66491Y-42335D01*
X66366Y-42459D01*
X66346Y-42411D01*
X66241Y-42372D01*
X66170Y-42443D01*
X66170Y-42302D01*
X66131Y-42197D01*
X65891Y-42107D01*
X65635Y-42117D01*
X65443Y-42197D01*
X65404Y-42302D01*
X65787Y-42685D01*
X66170Y-42302D01*
X66170Y-42443D01*
X65858Y-42755D01*
X66241Y-43138D01*
X66346Y-43100D01*
X66364Y-43050D01*
X66490Y-43176D01*
X66672Y-43251D01*
X66869Y-43252D01*
X67052Y-43176D01*
X67177Y-43052D01*
X67197Y-43100D01*
X67302Y-43138D01*
X67685Y-42755D01*
X67685Y-42897D01*
X67372Y-43209D01*
X67411Y-43314D01*
X67651Y-43403D01*
X67907Y-43394D01*
X68100Y-43314D01*
X68138Y-43209D01*
X68138Y-46029D01*
X67419Y-46029D01*
X67419Y-44828D01*
X67410Y-44572D01*
X67330Y-44380D01*
X67225Y-44341D01*
X67154Y-44412D01*
X67154Y-44270D01*
X67115Y-44165D01*
X66875Y-44076D01*
X66619Y-44085D01*
X66427Y-44165D01*
X66388Y-44270D01*
X66771Y-44653D01*
X67154Y-44270D01*
X67154Y-44412D01*
X66842Y-44724D01*
X67225Y-45107D01*
X67330Y-45068D01*
X67419Y-44828D01*
X67419Y-46029D01*
X67154Y-46029D01*
X67154Y-45178D01*
X66771Y-44795D01*
X66700Y-44865D01*
X66700Y-44724D01*
X66317Y-44341D01*
X66212Y-44380D01*
X66170Y-44494D01*
X66170Y-43209D01*
X65787Y-42826D01*
X65716Y-42897D01*
X65716Y-42755D01*
X65333Y-42372D01*
X65331Y-42373D01*
X65168Y-42210D01*
X64931Y-42112D01*
X64675Y-42112D01*
X64438Y-42209D01*
X64257Y-42390D01*
X64159Y-42627D01*
X64159Y-42883D01*
X64257Y-43120D01*
X64438Y-43301D01*
X64674Y-43399D01*
X64930Y-43399D01*
X65167Y-43301D01*
X65331Y-43138D01*
X65333Y-43138D01*
X65716Y-42755D01*
X65716Y-42897D01*
X65404Y-43209D01*
X65443Y-43314D01*
X65683Y-43403D01*
X65939Y-43394D01*
X66131Y-43314D01*
X66170Y-43209D01*
X66170Y-44494D01*
X66123Y-44620D01*
X66133Y-44876D01*
X66212Y-45068D01*
X66317Y-45107D01*
X66700Y-44724D01*
X66700Y-44865D01*
X66388Y-45178D01*
X66427Y-45283D01*
X66667Y-45372D01*
X66923Y-45362D01*
X67115Y-45283D01*
X67154Y-45178D01*
X67154Y-46029D01*
X65183Y-46029D01*
X65223Y-45990D01*
X65299Y-45807D01*
X65299Y-45610D01*
X65223Y-45428D01*
X65084Y-45288D01*
X64911Y-45216D01*
X65083Y-45145D01*
X65223Y-45005D01*
X65299Y-44823D01*
X65299Y-44626D01*
X65223Y-44443D01*
X65084Y-44304D01*
X64902Y-44228D01*
X64704Y-44228D01*
X64522Y-44303D01*
X64382Y-44443D01*
X64307Y-44625D01*
X64307Y-44822D01*
X64382Y-45005D01*
X64521Y-45144D01*
X64694Y-45216D01*
X64522Y-45287D01*
X64382Y-45427D01*
X64307Y-45609D01*
X64307Y-45806D01*
X64382Y-45989D01*
X64422Y-46029D01*
X59931Y-46029D01*
X59949Y-45984D01*
X59950Y-45766D01*
X59866Y-45563D01*
X59711Y-45409D01*
X59630Y-45375D01*
X59711Y-45341D01*
X59865Y-45186D01*
X59949Y-44984D01*
X59950Y-44766D01*
X59866Y-44563D01*
X59711Y-44409D01*
X59630Y-44375D01*
X59711Y-44341D01*
X59865Y-44186D01*
X59949Y-43984D01*
X59950Y-43766D01*
X59866Y-43563D01*
X59711Y-43409D01*
X59630Y-43375D01*
X59711Y-43341D01*
X59865Y-43186D01*
X59949Y-42984D01*
X59950Y-42766D01*
X59866Y-42563D01*
X59711Y-42409D01*
X59630Y-42375D01*
X59711Y-42341D01*
X59865Y-42186D01*
X59949Y-41984D01*
X59950Y-41766D01*
X59897Y-41638D01*
X60033Y-41638D01*
X60047Y-41652D01*
X60047Y-41737D01*
X60111Y-41893D01*
X60231Y-42013D01*
X60387Y-42078D01*
X60556Y-42078D01*
X60712Y-42014D01*
X60832Y-41894D01*
X60838Y-41879D01*
X60938Y-41920D01*
X61107Y-41921D01*
X61264Y-41856D01*
X61324Y-41796D01*
X61732Y-41796D01*
X61732Y-41796D01*
X61847Y-41773D01*
X61847Y-41773D01*
X61944Y-41708D01*
X62180Y-41471D01*
X62245Y-41374D01*
X62268Y-41259D01*
X62268Y-41259D01*
X62268Y-41245D01*
X62328Y-41185D01*
X62342Y-41152D01*
X63597Y-39897D01*
X63597Y-39897D01*
X63597Y-39897D01*
X63746Y-39748D01*
X65590Y-39748D01*
X65590Y-39748D01*
X65705Y-39725D01*
X65705Y-39725D01*
X65802Y-39660D01*
X65983Y-39480D01*
X66068Y-39480D01*
X66224Y-39415D01*
X66344Y-39296D01*
X66409Y-39140D01*
X66409Y-38970D01*
X66344Y-38814D01*
X66225Y-38695D01*
X66069Y-38630D01*
X65900Y-38630D01*
X65743Y-38694D01*
X65624Y-38814D01*
X65559Y-38970D01*
X65559Y-39055D01*
X65466Y-39148D01*
X63622Y-39148D01*
X63507Y-39171D01*
X63409Y-39236D01*
X63173Y-39472D01*
X63173Y-39472D01*
X62105Y-40541D01*
X62053Y-40519D01*
X61884Y-40519D01*
X61728Y-40584D01*
X61608Y-40703D01*
X61543Y-40859D01*
X61543Y-41029D01*
X61607Y-41185D01*
X61613Y-41190D01*
X61608Y-41196D01*
X61324Y-41196D01*
X61264Y-41135D01*
X61108Y-41071D01*
X61054Y-41071D01*
X61054Y-41022D01*
X62012Y-40065D01*
X62119Y-40109D01*
X62288Y-40110D01*
X62445Y-40045D01*
X62564Y-39926D01*
X62629Y-39769D01*
X62629Y-39600D01*
X62565Y-39444D01*
X62445Y-39324D01*
X62289Y-39260D01*
X62120Y-39259D01*
X61964Y-39324D01*
X61887Y-39401D01*
X61887Y-39401D01*
X61853Y-39407D01*
X61756Y-39472D01*
X60630Y-40598D01*
X60545Y-40598D01*
X60389Y-40663D01*
X60269Y-40782D01*
X60204Y-40938D01*
X60204Y-41048D01*
X60157Y-41038D01*
X59927Y-41038D01*
X59949Y-40984D01*
X59950Y-40766D01*
X59866Y-40563D01*
X59711Y-40409D01*
X59630Y-40375D01*
X59711Y-40341D01*
X59865Y-40186D01*
X59949Y-39984D01*
X59950Y-39766D01*
X59866Y-39563D01*
X59727Y-39425D01*
X59749Y-39425D01*
X59841Y-39387D01*
X59911Y-39316D01*
X59949Y-39224D01*
X59950Y-39125D01*
X59950Y-38616D01*
X78908Y-38616D01*
X78845Y-38793D01*
X78856Y-39011D01*
X78918Y-39162D01*
X79014Y-39190D01*
X79329Y-38875D01*
X79323Y-38869D01*
X79394Y-38798D01*
X79400Y-38804D01*
X79405Y-38798D01*
X79476Y-38869D01*
X79470Y-38875D01*
X79785Y-39190D01*
X79849Y-39171D01*
X79849Y-39224D01*
X79887Y-39316D01*
X79958Y-39386D01*
X80050Y-39424D01*
X80072Y-39424D01*
G54D10*
G36*
X80169Y-45374D02*
X80088Y-45408D01*
X79934Y-45563D01*
X79850Y-45765D01*
X79849Y-45983D01*
X79868Y-46029D01*
X75026Y-46029D01*
X75065Y-45990D01*
X75141Y-45807D01*
X75141Y-45610D01*
X75066Y-45428D01*
X74927Y-45288D01*
X74753Y-45216D01*
X74926Y-45145D01*
X75065Y-45005D01*
X75141Y-44823D01*
X75141Y-44626D01*
X75130Y-44598D01*
X75281Y-44598D01*
X75437Y-44533D01*
X75556Y-44414D01*
X75621Y-44258D01*
X75621Y-44089D01*
X75557Y-43932D01*
X75496Y-43872D01*
X75496Y-43765D01*
X75556Y-43705D01*
X75621Y-43549D01*
X75621Y-43380D01*
X75557Y-43224D01*
X75437Y-43104D01*
X75281Y-43039D01*
X75224Y-43039D01*
X75289Y-42884D01*
X75289Y-42628D01*
X75191Y-42391D01*
X75010Y-42210D01*
X74774Y-42112D01*
X74518Y-42112D01*
X74300Y-42202D01*
X74361Y-42053D01*
X74362Y-41967D01*
X74835Y-41494D01*
X74771Y-41647D01*
X74771Y-41816D01*
X74836Y-41972D01*
X74955Y-42092D01*
X75111Y-42157D01*
X75281Y-42157D01*
X75437Y-42092D01*
X75497Y-42032D01*
X75859Y-42032D01*
X76031Y-42203D01*
X76031Y-42288D01*
X76096Y-42445D01*
X76215Y-42564D01*
X76371Y-42629D01*
X76540Y-42629D01*
X76697Y-42565D01*
X76816Y-42445D01*
X76881Y-42289D01*
X76881Y-42120D01*
X76817Y-41964D01*
X76697Y-41844D01*
X76541Y-41779D01*
X76455Y-41779D01*
X76196Y-41520D01*
X76099Y-41455D01*
X75984Y-41432D01*
X75497Y-41432D01*
X75437Y-41372D01*
X75281Y-41307D01*
X75112Y-41307D01*
X74959Y-41370D01*
X75084Y-41244D01*
X75826Y-41244D01*
X76943Y-41244D01*
X77003Y-41304D01*
X77159Y-41369D01*
X77244Y-41369D01*
X77962Y-42087D01*
X77962Y-42087D01*
X78059Y-42152D01*
X78174Y-42175D01*
X78928Y-42175D01*
X78933Y-42186D01*
X79088Y-42340D01*
X79290Y-42424D01*
X79508Y-42425D01*
X79711Y-42341D01*
X79865Y-42186D01*
X79899Y-42105D01*
X79933Y-42186D01*
X80088Y-42340D01*
X80169Y-42374D01*
X80088Y-42408D01*
X79934Y-42563D01*
X79850Y-42765D01*
X79849Y-42983D01*
X79933Y-43186D01*
X80088Y-43340D01*
X80169Y-43374D01*
X80088Y-43408D01*
X79934Y-43563D01*
X79850Y-43765D01*
X79849Y-43983D01*
X79933Y-44186D01*
X80088Y-44340D01*
X80169Y-44374D01*
X80088Y-44408D01*
X79934Y-44563D01*
X79850Y-44765D01*
X79849Y-44983D01*
X79933Y-45186D01*
X80088Y-45340D01*
X80169Y-45374D01*
X80169Y-45374D01*
G37*
G54D16*
X80169Y-45374D02*
X80088Y-45408D01*
X79934Y-45563D01*
X79850Y-45765D01*
X79849Y-45983D01*
X79868Y-46029D01*
X75026Y-46029D01*
X75065Y-45990D01*
X75141Y-45807D01*
X75141Y-45610D01*
X75066Y-45428D01*
X74927Y-45288D01*
X74753Y-45216D01*
X74926Y-45145D01*
X75065Y-45005D01*
X75141Y-44823D01*
X75141Y-44626D01*
X75130Y-44598D01*
X75281Y-44598D01*
X75437Y-44533D01*
X75556Y-44414D01*
X75621Y-44258D01*
X75621Y-44089D01*
X75557Y-43932D01*
X75496Y-43872D01*
X75496Y-43765D01*
X75556Y-43705D01*
X75621Y-43549D01*
X75621Y-43380D01*
X75557Y-43224D01*
X75437Y-43104D01*
X75281Y-43039D01*
X75224Y-43039D01*
X75289Y-42884D01*
X75289Y-42628D01*
X75191Y-42391D01*
X75010Y-42210D01*
X74774Y-42112D01*
X74518Y-42112D01*
X74300Y-42202D01*
X74361Y-42053D01*
X74362Y-41967D01*
X74835Y-41494D01*
X74771Y-41647D01*
X74771Y-41816D01*
X74836Y-41972D01*
X74955Y-42092D01*
X75111Y-42157D01*
X75281Y-42157D01*
X75437Y-42092D01*
X75497Y-42032D01*
X75859Y-42032D01*
X76031Y-42203D01*
X76031Y-42288D01*
X76096Y-42445D01*
X76215Y-42564D01*
X76371Y-42629D01*
X76540Y-42629D01*
X76697Y-42565D01*
X76816Y-42445D01*
X76881Y-42289D01*
X76881Y-42120D01*
X76817Y-41964D01*
X76697Y-41844D01*
X76541Y-41779D01*
X76455Y-41779D01*
X76196Y-41520D01*
X76099Y-41455D01*
X75984Y-41432D01*
X75497Y-41432D01*
X75437Y-41372D01*
X75281Y-41307D01*
X75112Y-41307D01*
X74959Y-41370D01*
X75084Y-41244D01*
X75826Y-41244D01*
X76943Y-41244D01*
X77003Y-41304D01*
X77159Y-41369D01*
X77244Y-41369D01*
X77962Y-42087D01*
X77962Y-42087D01*
X78059Y-42152D01*
X78174Y-42175D01*
X78928Y-42175D01*
X78933Y-42186D01*
X79088Y-42340D01*
X79290Y-42424D01*
X79508Y-42425D01*
X79711Y-42341D01*
X79865Y-42186D01*
X79899Y-42105D01*
X79933Y-42186D01*
X80088Y-42340D01*
X80169Y-42374D01*
X80088Y-42408D01*
X79934Y-42563D01*
X79850Y-42765D01*
X79849Y-42983D01*
X79933Y-43186D01*
X80088Y-43340D01*
X80169Y-43374D01*
X80088Y-43408D01*
X79934Y-43563D01*
X79850Y-43765D01*
X79849Y-43983D01*
X79933Y-44186D01*
X80088Y-44340D01*
X80169Y-44374D01*
X80088Y-44408D01*
X79934Y-44563D01*
X79850Y-44765D01*
X79849Y-44983D01*
X79933Y-45186D01*
X80088Y-45340D01*
X80169Y-45374D01*
G54D10*
G36*
X82476Y-45880D02*
X82405Y-45951D01*
X82400Y-45945D01*
X82394Y-45951D01*
X82323Y-45880D01*
X82329Y-45875D01*
X82323Y-45869D01*
X82394Y-45798D01*
X82400Y-45804D01*
X82405Y-45798D01*
X82476Y-45869D01*
X82470Y-45875D01*
X82476Y-45880D01*
X82476Y-45880D01*
G37*
G54D16*
X82476Y-45880D02*
X82405Y-45951D01*
X82400Y-45945D01*
X82394Y-45951D01*
X82323Y-45880D01*
X82329Y-45875D01*
X82323Y-45869D01*
X82394Y-45798D01*
X82400Y-45804D01*
X82405Y-45798D01*
X82476Y-45869D01*
X82470Y-45875D01*
X82476Y-45880D01*
G54D10*
G36*
X89792Y-45259D02*
X89730Y-45321D01*
X89730Y-45321D01*
X89730Y-45321D01*
X89309Y-45742D01*
X89309Y-42824D01*
X89309Y-40824D01*
X89229Y-40629D01*
X89080Y-40480D01*
X88885Y-40399D01*
X88674Y-40399D01*
X88479Y-40479D01*
X88330Y-40628D01*
X88249Y-40823D01*
X88249Y-41034D01*
X88329Y-41228D01*
X88478Y-41378D01*
X88673Y-41459D01*
X88884Y-41459D01*
X89079Y-41378D01*
X89228Y-41229D01*
X89309Y-41035D01*
X89309Y-40824D01*
X89309Y-42824D01*
X89229Y-42629D01*
X89080Y-42480D01*
X88885Y-42399D01*
X88674Y-42399D01*
X88479Y-42479D01*
X88330Y-42628D01*
X88249Y-42823D01*
X88249Y-43034D01*
X88329Y-43228D01*
X88478Y-43378D01*
X88673Y-43459D01*
X88884Y-43459D01*
X89079Y-43378D01*
X89228Y-43229D01*
X89309Y-43035D01*
X89309Y-42824D01*
X89309Y-45742D01*
X89258Y-45793D01*
X88818Y-45793D01*
X88715Y-45813D01*
X88628Y-45872D01*
X88470Y-46029D01*
X87795Y-46029D01*
X87669Y-46029D01*
X87669Y-40309D01*
X87604Y-40153D01*
X87485Y-40033D01*
X87329Y-39968D01*
X87159Y-39968D01*
X87097Y-39994D01*
X86251Y-39148D01*
X86251Y-39049D01*
X86187Y-38893D01*
X86067Y-38773D01*
X85911Y-38708D01*
X85742Y-38708D01*
X85586Y-38773D01*
X85466Y-38892D01*
X85401Y-39048D01*
X85401Y-39218D01*
X85466Y-39374D01*
X85585Y-39493D01*
X85741Y-39558D01*
X85841Y-39558D01*
X86860Y-40577D01*
X86883Y-40634D01*
X87003Y-40753D01*
X87159Y-40818D01*
X87328Y-40818D01*
X87484Y-40754D01*
X87604Y-40634D01*
X87669Y-40478D01*
X87669Y-40309D01*
X87669Y-46029D01*
X86804Y-46029D01*
X86568Y-45793D01*
X86481Y-45735D01*
X86377Y-45714D01*
X84409Y-45714D01*
X84306Y-45735D01*
X84277Y-45754D01*
X84218Y-45793D01*
X83982Y-46029D01*
X82928Y-46029D01*
X82940Y-45996D01*
X82985Y-46015D01*
X83155Y-46015D01*
X83311Y-45951D01*
X83430Y-45831D01*
X83495Y-45675D01*
X83495Y-45506D01*
X83431Y-45350D01*
X83311Y-45230D01*
X83155Y-45165D01*
X83055Y-45165D01*
X83039Y-45149D01*
X82945Y-45086D01*
X82910Y-45079D01*
X82949Y-44984D01*
X82950Y-44766D01*
X82866Y-44563D01*
X82711Y-44409D01*
X82630Y-44375D01*
X82711Y-44341D01*
X82865Y-44186D01*
X82875Y-44165D01*
X83381Y-44165D01*
X83419Y-44256D01*
X83493Y-44330D01*
X83419Y-44404D01*
X83354Y-44560D01*
X83354Y-44729D01*
X83419Y-44886D01*
X83538Y-45005D01*
X83694Y-45070D01*
X83863Y-45070D01*
X84019Y-45006D01*
X84090Y-44935D01*
X84881Y-44935D01*
X84992Y-44913D01*
X85086Y-44850D01*
X86678Y-43259D01*
X86777Y-43259D01*
X86933Y-43195D01*
X87053Y-43075D01*
X87117Y-42919D01*
X87117Y-42750D01*
X87053Y-42594D01*
X86933Y-42474D01*
X86777Y-42409D01*
X86608Y-42409D01*
X86452Y-42474D01*
X86332Y-42593D01*
X86267Y-42749D01*
X86267Y-42849D01*
X84761Y-44355D01*
X84090Y-44355D01*
X84065Y-44330D01*
X84139Y-44256D01*
X84204Y-44100D01*
X84204Y-43931D01*
X84140Y-43775D01*
X84020Y-43655D01*
X83864Y-43590D01*
X83695Y-43590D01*
X83686Y-43594D01*
X83638Y-43585D01*
X82888Y-43585D01*
X83370Y-43102D01*
X83469Y-43102D01*
X83626Y-43037D01*
X83745Y-42918D01*
X83810Y-42762D01*
X83810Y-42592D01*
X83746Y-42436D01*
X83675Y-42366D01*
X83675Y-40704D01*
X83745Y-40634D01*
X83810Y-40478D01*
X83810Y-40309D01*
X83746Y-40153D01*
X83626Y-40033D01*
X83470Y-39968D01*
X83301Y-39968D01*
X83145Y-40033D01*
X83025Y-40152D01*
X82960Y-40308D01*
X82960Y-40477D01*
X83025Y-40634D01*
X83095Y-40704D01*
X83095Y-42366D01*
X83025Y-42436D01*
X82960Y-42592D01*
X82960Y-42692D01*
X82931Y-42721D01*
X82866Y-42563D01*
X82711Y-42409D01*
X82509Y-42325D01*
X82291Y-42324D01*
X82088Y-42408D01*
X81934Y-42563D01*
X81900Y-42644D01*
X81866Y-42563D01*
X81711Y-42409D01*
X81630Y-42375D01*
X81711Y-42341D01*
X81865Y-42186D01*
X81949Y-41984D01*
X81950Y-41766D01*
X81866Y-41563D01*
X81711Y-41409D01*
X81630Y-41375D01*
X81711Y-41341D01*
X81865Y-41186D01*
X81949Y-40984D01*
X81950Y-40766D01*
X81866Y-40563D01*
X81711Y-40409D01*
X81630Y-40375D01*
X81711Y-40341D01*
X81865Y-40186D01*
X81949Y-39984D01*
X81950Y-39766D01*
X81866Y-39563D01*
X81711Y-39409D01*
X81630Y-39375D01*
X81711Y-39341D01*
X81865Y-39186D01*
X81949Y-38984D01*
X81950Y-38766D01*
X81888Y-38616D01*
X89585Y-38616D01*
X89336Y-38864D01*
X89278Y-38951D01*
X89257Y-39055D01*
X89257Y-39527D01*
X89278Y-39630D01*
X89336Y-39718D01*
X89572Y-39954D01*
X89572Y-43622D01*
X89593Y-43725D01*
X89651Y-43812D01*
X89792Y-43953D01*
X89792Y-45259D01*
X89792Y-45259D01*
G37*
G54D16*
X89792Y-45259D02*
X89730Y-45321D01*
X89730Y-45321D01*
X89730Y-45321D01*
X89309Y-45742D01*
X89309Y-42824D01*
X89309Y-40824D01*
X89229Y-40629D01*
X89080Y-40480D01*
X88885Y-40399D01*
X88674Y-40399D01*
X88479Y-40479D01*
X88330Y-40628D01*
X88249Y-40823D01*
X88249Y-41034D01*
X88329Y-41228D01*
X88478Y-41378D01*
X88673Y-41459D01*
X88884Y-41459D01*
X89079Y-41378D01*
X89228Y-41229D01*
X89309Y-41035D01*
X89309Y-40824D01*
X89309Y-42824D01*
X89229Y-42629D01*
X89080Y-42480D01*
X88885Y-42399D01*
X88674Y-42399D01*
X88479Y-42479D01*
X88330Y-42628D01*
X88249Y-42823D01*
X88249Y-43034D01*
X88329Y-43228D01*
X88478Y-43378D01*
X88673Y-43459D01*
X88884Y-43459D01*
X89079Y-43378D01*
X89228Y-43229D01*
X89309Y-43035D01*
X89309Y-42824D01*
X89309Y-45742D01*
X89258Y-45793D01*
X88818Y-45793D01*
X88715Y-45813D01*
X88628Y-45872D01*
X88470Y-46029D01*
X87795Y-46029D01*
X87669Y-46029D01*
X87669Y-40309D01*
X87604Y-40153D01*
X87485Y-40033D01*
X87329Y-39968D01*
X87159Y-39968D01*
X87097Y-39994D01*
X86251Y-39148D01*
X86251Y-39049D01*
X86187Y-38893D01*
X86067Y-38773D01*
X85911Y-38708D01*
X85742Y-38708D01*
X85586Y-38773D01*
X85466Y-38892D01*
X85401Y-39048D01*
X85401Y-39218D01*
X85466Y-39374D01*
X85585Y-39493D01*
X85741Y-39558D01*
X85841Y-39558D01*
X86860Y-40577D01*
X86883Y-40634D01*
X87003Y-40753D01*
X87159Y-40818D01*
X87328Y-40818D01*
X87484Y-40754D01*
X87604Y-40634D01*
X87669Y-40478D01*
X87669Y-40309D01*
X87669Y-46029D01*
X86804Y-46029D01*
X86568Y-45793D01*
X86481Y-45735D01*
X86377Y-45714D01*
X84409Y-45714D01*
X84306Y-45735D01*
X84277Y-45754D01*
X84218Y-45793D01*
X83982Y-46029D01*
X82928Y-46029D01*
X82940Y-45996D01*
X82985Y-46015D01*
X83155Y-46015D01*
X83311Y-45951D01*
X83430Y-45831D01*
X83495Y-45675D01*
X83495Y-45506D01*
X83431Y-45350D01*
X83311Y-45230D01*
X83155Y-45165D01*
X83055Y-45165D01*
X83039Y-45149D01*
X82945Y-45086D01*
X82910Y-45079D01*
X82949Y-44984D01*
X82950Y-44766D01*
X82866Y-44563D01*
X82711Y-44409D01*
X82630Y-44375D01*
X82711Y-44341D01*
X82865Y-44186D01*
X82875Y-44165D01*
X83381Y-44165D01*
X83419Y-44256D01*
X83493Y-44330D01*
X83419Y-44404D01*
X83354Y-44560D01*
X83354Y-44729D01*
X83419Y-44886D01*
X83538Y-45005D01*
X83694Y-45070D01*
X83863Y-45070D01*
X84019Y-45006D01*
X84090Y-44935D01*
X84881Y-44935D01*
X84992Y-44913D01*
X85086Y-44850D01*
X86678Y-43259D01*
X86777Y-43259D01*
X86933Y-43195D01*
X87053Y-43075D01*
X87117Y-42919D01*
X87117Y-42750D01*
X87053Y-42594D01*
X86933Y-42474D01*
X86777Y-42409D01*
X86608Y-42409D01*
X86452Y-42474D01*
X86332Y-42593D01*
X86267Y-42749D01*
X86267Y-42849D01*
X84761Y-44355D01*
X84090Y-44355D01*
X84065Y-44330D01*
X84139Y-44256D01*
X84204Y-44100D01*
X84204Y-43931D01*
X84140Y-43775D01*
X84020Y-43655D01*
X83864Y-43590D01*
X83695Y-43590D01*
X83686Y-43594D01*
X83638Y-43585D01*
X82888Y-43585D01*
X83370Y-43102D01*
X83469Y-43102D01*
X83626Y-43037D01*
X83745Y-42918D01*
X83810Y-42762D01*
X83810Y-42592D01*
X83746Y-42436D01*
X83675Y-42366D01*
X83675Y-40704D01*
X83745Y-40634D01*
X83810Y-40478D01*
X83810Y-40309D01*
X83746Y-40153D01*
X83626Y-40033D01*
X83470Y-39968D01*
X83301Y-39968D01*
X83145Y-40033D01*
X83025Y-40152D01*
X82960Y-40308D01*
X82960Y-40477D01*
X83025Y-40634D01*
X83095Y-40704D01*
X83095Y-42366D01*
X83025Y-42436D01*
X82960Y-42592D01*
X82960Y-42692D01*
X82931Y-42721D01*
X82866Y-42563D01*
X82711Y-42409D01*
X82509Y-42325D01*
X82291Y-42324D01*
X82088Y-42408D01*
X81934Y-42563D01*
X81900Y-42644D01*
X81866Y-42563D01*
X81711Y-42409D01*
X81630Y-42375D01*
X81711Y-42341D01*
X81865Y-42186D01*
X81949Y-41984D01*
X81950Y-41766D01*
X81866Y-41563D01*
X81711Y-41409D01*
X81630Y-41375D01*
X81711Y-41341D01*
X81865Y-41186D01*
X81949Y-40984D01*
X81950Y-40766D01*
X81866Y-40563D01*
X81711Y-40409D01*
X81630Y-40375D01*
X81711Y-40341D01*
X81865Y-40186D01*
X81949Y-39984D01*
X81950Y-39766D01*
X81866Y-39563D01*
X81711Y-39409D01*
X81630Y-39375D01*
X81711Y-39341D01*
X81865Y-39186D01*
X81949Y-38984D01*
X81950Y-38766D01*
X81888Y-38616D01*
X89585Y-38616D01*
X89336Y-38864D01*
X89278Y-38951D01*
X89257Y-39055D01*
X89257Y-39527D01*
X89278Y-39630D01*
X89336Y-39718D01*
X89572Y-39954D01*
X89572Y-43622D01*
X89593Y-43725D01*
X89651Y-43812D01*
X89792Y-43953D01*
X89792Y-45259D01*
M02*
