G04 (created by PCBNEW (2013-07-07 BZR 4022)-stable) date 06/09/2014 14:39:09*
%MOIN*%
G04 Gerber Fmt 3.4, Leading zero omitted, Abs format*
%FSLAX34Y34*%
G01*
G70*
G90*
G04 APERTURE LIST*
%ADD10C,0.00590551*%
%ADD11C,0.00393701*%
G04 APERTURE END LIST*
G54D10*
G54D11*
X65600Y-28800D02*
X65575Y-28775D01*
X65600Y-29125D02*
X65600Y-28800D01*
X65525Y-29200D02*
X65600Y-29125D01*
X65525Y-33925D02*
X65525Y-29200D01*
X65675Y-34075D02*
X65525Y-33925D01*
X65675Y-36050D02*
X65675Y-34075D01*
X65250Y-36475D02*
X65675Y-36050D01*
X65125Y-36475D02*
X65250Y-36475D01*
X65025Y-36375D02*
X65125Y-36475D01*
X65350Y-28550D02*
X65575Y-28775D01*
X65350Y-27900D02*
X65350Y-28550D01*
X64300Y-27900D02*
X65350Y-27900D01*
X63650Y-28550D02*
X64300Y-27900D01*
X53375Y-28550D02*
X63650Y-28550D01*
X52900Y-28075D02*
X53375Y-28550D01*
X42725Y-28075D02*
X52900Y-28075D01*
X42250Y-28550D02*
X42725Y-28075D01*
X33525Y-28550D02*
X42250Y-28550D01*
X33525Y-32900D02*
X33525Y-28550D01*
X44001Y-36606D02*
X59751Y-36606D01*
X40751Y-36606D02*
X34551Y-36606D01*
X43901Y-36606D02*
X44001Y-36606D01*
X43301Y-36006D02*
X43901Y-36606D01*
X42401Y-36006D02*
X43301Y-36006D01*
X42151Y-36256D02*
X42401Y-36006D01*
X41101Y-36256D02*
X42151Y-36256D01*
X40751Y-36606D02*
X41101Y-36256D01*
X64470Y-36369D02*
X65021Y-36369D01*
X64233Y-36605D02*
X64470Y-36369D01*
X63446Y-36605D02*
X64233Y-36605D01*
X62344Y-36605D02*
X63446Y-36605D01*
X62029Y-36290D02*
X62344Y-36605D01*
X60060Y-36290D02*
X62029Y-36290D01*
X59745Y-36605D02*
X60060Y-36290D01*
X34233Y-36290D02*
X34548Y-36605D01*
X34233Y-36211D02*
X34233Y-36290D01*
X34233Y-34872D02*
X34233Y-36211D01*
X33918Y-34558D02*
X34233Y-34872D01*
X33918Y-33298D02*
X33918Y-34558D01*
X33525Y-32904D02*
X33918Y-33298D01*
M02*
