G04 (created by PCBNEW (2013-07-07 BZR 4022)-stable) date 06/09/2014 14:39:09*
%MOIN*%
G04 Gerber Fmt 3.4, Leading zero omitted, Abs format*
%FSLAX34Y34*%
G01*
G70*
G90*
G04 APERTURE LIST*
%ADD10C,0.00590551*%
%ADD11R,0.0165X0.0579*%
%ADD12R,0.06X0.06*%
%ADD13C,0.06*%
%ADD14C,0.0787402*%
%ADD15C,0.0492126*%
%ADD16R,0.08X0.06*%
%ADD17R,0.06X0.08*%
%ADD18C,0.056*%
%ADD19R,0.0551X0.0236*%
G04 APERTURE END LIST*
G54D10*
G54D11*
X60956Y-32549D03*
X61212Y-32549D03*
X61468Y-32549D03*
X61724Y-32549D03*
X60192Y-30347D03*
X60188Y-32549D03*
X60444Y-32549D03*
X60700Y-32549D03*
X61980Y-30345D03*
X61724Y-30345D03*
X61468Y-30345D03*
X61212Y-30345D03*
X60956Y-30345D03*
X60700Y-30345D03*
X61980Y-32549D03*
X60444Y-30347D03*
X59932Y-32549D03*
X62236Y-32549D03*
X62236Y-30345D03*
X59932Y-30345D03*
X59677Y-32549D03*
X62491Y-32549D03*
X62491Y-30345D03*
X59677Y-30345D03*
X53416Y-31959D03*
X53160Y-31959D03*
X52904Y-31959D03*
X52648Y-31959D03*
X54180Y-34161D03*
X54184Y-31959D03*
X53928Y-31959D03*
X53672Y-31959D03*
X52392Y-34163D03*
X52648Y-34163D03*
X52904Y-34163D03*
X53160Y-34163D03*
X53416Y-34163D03*
X53672Y-34163D03*
X52392Y-31959D03*
X53928Y-34161D03*
X37540Y-30621D03*
X37284Y-30621D03*
X37028Y-30621D03*
X36772Y-30621D03*
X36772Y-32825D03*
X38308Y-30621D03*
X38052Y-30621D03*
X37796Y-30621D03*
X37028Y-32825D03*
X37284Y-32825D03*
X37540Y-32825D03*
X37796Y-32825D03*
X38052Y-32825D03*
X38308Y-32825D03*
G54D12*
X56051Y-29181D03*
G54D13*
X56051Y-35181D03*
X56051Y-30181D03*
X56051Y-36181D03*
X56051Y-31181D03*
X56051Y-32181D03*
X56051Y-33181D03*
X56051Y-34181D03*
X55051Y-32181D03*
X55051Y-31181D03*
X55051Y-30181D03*
X55051Y-29181D03*
G54D12*
X57051Y-36181D03*
G54D13*
X57051Y-30181D03*
X57051Y-35181D03*
X57051Y-29181D03*
X57051Y-34181D03*
X57051Y-33181D03*
X57051Y-32181D03*
X57051Y-31181D03*
X58051Y-33181D03*
X58051Y-34181D03*
X58051Y-35181D03*
X58051Y-36181D03*
G54D12*
X35051Y-29181D03*
G54D13*
X35051Y-35181D03*
X35051Y-30181D03*
X35051Y-36181D03*
X35051Y-31181D03*
X35051Y-32181D03*
X35051Y-33181D03*
X35051Y-34181D03*
X34051Y-32181D03*
X34051Y-31181D03*
X34051Y-30181D03*
X34051Y-29181D03*
G54D14*
X49312Y-33061D03*
X47344Y-33061D03*
X50296Y-33061D03*
X46359Y-33061D03*
X48328Y-35030D03*
G54D15*
X50296Y-35030D03*
X46359Y-35030D03*
X50296Y-36014D03*
X46359Y-36014D03*
X48328Y-33061D03*
G54D16*
X61241Y-34380D03*
X61241Y-35680D03*
X60218Y-34380D03*
X60218Y-35680D03*
G54D17*
X63386Y-29282D03*
X64686Y-29282D03*
X60827Y-29282D03*
X62127Y-29282D03*
X59962Y-29282D03*
X58662Y-29282D03*
G54D16*
X62265Y-34380D03*
X62265Y-35680D03*
G54D18*
X64430Y-33235D03*
X64430Y-31235D03*
G54D19*
X47199Y-31685D03*
X49299Y-31685D03*
X47199Y-31185D03*
X47199Y-30685D03*
X47199Y-30185D03*
X49299Y-31185D03*
X49299Y-30685D03*
X49299Y-30185D03*
G54D16*
X52580Y-30404D03*
X52580Y-29104D03*
G54D17*
X51104Y-29203D03*
X49804Y-29203D03*
G54D16*
X45966Y-30562D03*
X45966Y-29262D03*
G54D17*
X48899Y-29203D03*
X47599Y-29203D03*
G54D16*
X44942Y-29262D03*
X44942Y-30562D03*
X51635Y-33239D03*
X51635Y-31939D03*
G54D17*
X38701Y-29282D03*
X40001Y-29282D03*
X37639Y-29282D03*
X36339Y-29282D03*
X40985Y-29282D03*
X42285Y-29282D03*
X41221Y-31487D03*
X42521Y-31487D03*
X41221Y-30463D03*
X42521Y-30463D03*
G54D16*
X39430Y-33986D03*
X39430Y-35286D03*
X38407Y-33986D03*
X38407Y-35286D03*
G54D17*
X39016Y-31487D03*
X40316Y-31487D03*
X39016Y-30463D03*
X40316Y-30463D03*
G54D12*
X45351Y-32206D03*
X45351Y-33206D03*
X45351Y-35206D03*
X45351Y-34206D03*
G54D14*
X43335Y-33056D03*
X41366Y-33056D03*
X44319Y-33056D03*
X40382Y-33056D03*
X42351Y-35024D03*
G54D15*
X44319Y-35024D03*
X40382Y-35024D03*
X44319Y-36008D03*
X40382Y-36008D03*
X42351Y-33056D03*
M02*
