G04 (created by PCBNEW (2013-07-07 BZR 4022)-stable) date 06/09/2014 14:39:09*
%MOIN*%
G04 Gerber Fmt 3.4, Leading zero omitted, Abs format*
%FSLAX34Y34*%
G01*
G70*
G90*
G04 APERTURE LIST*
%ADD10C,0.00590551*%
%ADD11C,0.011811*%
%ADD12R,0.0165X0.0579*%
%ADD13R,0.06X0.06*%
%ADD14C,0.06*%
%ADD15C,0.0787402*%
%ADD16R,0.08X0.06*%
%ADD17R,0.06X0.08*%
%ADD18C,0.056*%
%ADD19R,0.0551X0.0236*%
%ADD20C,0.035*%
%ADD21C,0.01*%
%ADD22C,0.016*%
%ADD23C,0.008*%
G04 APERTURE END LIST*
G54D10*
G54D11*
X35780Y-36371D02*
X35780Y-35781D01*
X35921Y-35781D01*
X36005Y-35809D01*
X36061Y-35865D01*
X36089Y-35921D01*
X36117Y-36034D01*
X36117Y-36118D01*
X36089Y-36231D01*
X36061Y-36287D01*
X36005Y-36343D01*
X35921Y-36371D01*
X35780Y-36371D01*
X36371Y-36371D02*
X36371Y-35978D01*
X36371Y-35781D02*
X36342Y-35809D01*
X36371Y-35837D01*
X36399Y-35809D01*
X36371Y-35781D01*
X36371Y-35837D01*
X36877Y-36343D02*
X36820Y-36371D01*
X36708Y-36371D01*
X36652Y-36343D01*
X36624Y-36287D01*
X36624Y-36062D01*
X36652Y-36006D01*
X36708Y-35978D01*
X36820Y-35978D01*
X36877Y-36006D01*
X36905Y-36062D01*
X36905Y-36118D01*
X36624Y-36175D01*
X37411Y-35978D02*
X37411Y-36456D01*
X37383Y-36512D01*
X37355Y-36540D01*
X37299Y-36568D01*
X37214Y-36568D01*
X37158Y-36540D01*
X37411Y-36343D02*
X37355Y-36371D01*
X37242Y-36371D01*
X37186Y-36343D01*
X37158Y-36315D01*
X37130Y-36259D01*
X37130Y-36090D01*
X37158Y-36034D01*
X37186Y-36006D01*
X37242Y-35978D01*
X37355Y-35978D01*
X37411Y-36006D01*
X37777Y-36371D02*
X37720Y-36343D01*
X37692Y-36315D01*
X37664Y-36259D01*
X37664Y-36090D01*
X37692Y-36034D01*
X37720Y-36006D01*
X37777Y-35978D01*
X37861Y-35978D01*
X37917Y-36006D01*
X37945Y-36034D01*
X37973Y-36090D01*
X37973Y-36259D01*
X37945Y-36315D01*
X37917Y-36343D01*
X37861Y-36371D01*
X37777Y-36371D01*
X39014Y-36371D02*
X38817Y-36090D01*
X38676Y-36371D02*
X38676Y-35781D01*
X38901Y-35781D01*
X38958Y-35809D01*
X38986Y-35837D01*
X39014Y-35893D01*
X39014Y-35978D01*
X38986Y-36034D01*
X38958Y-36062D01*
X38901Y-36090D01*
X38676Y-36090D01*
G54D12*
X60956Y-32549D03*
X61212Y-32549D03*
X61468Y-32549D03*
X61724Y-32549D03*
X60192Y-30347D03*
X60188Y-32549D03*
X60444Y-32549D03*
X60700Y-32549D03*
X61980Y-30345D03*
X61724Y-30345D03*
X61468Y-30345D03*
X61212Y-30345D03*
X60956Y-30345D03*
X60700Y-30345D03*
X61980Y-32549D03*
X60444Y-30347D03*
X59932Y-32549D03*
X62236Y-32549D03*
X62236Y-30345D03*
X59932Y-30345D03*
X59677Y-32549D03*
X62491Y-32549D03*
X62491Y-30345D03*
X59677Y-30345D03*
X53416Y-31959D03*
X53160Y-31959D03*
X52904Y-31959D03*
X52648Y-31959D03*
X54180Y-34161D03*
X54184Y-31959D03*
X53928Y-31959D03*
X53672Y-31959D03*
X52392Y-34163D03*
X52648Y-34163D03*
X52904Y-34163D03*
X53160Y-34163D03*
X53416Y-34163D03*
X53672Y-34163D03*
X52392Y-31959D03*
X53928Y-34161D03*
X37540Y-30621D03*
X37284Y-30621D03*
X37028Y-30621D03*
X36772Y-30621D03*
X36772Y-32825D03*
X38308Y-30621D03*
X38052Y-30621D03*
X37796Y-30621D03*
X37028Y-32825D03*
X37284Y-32825D03*
X37540Y-32825D03*
X37796Y-32825D03*
X38052Y-32825D03*
X38308Y-32825D03*
G54D13*
X56051Y-29181D03*
G54D14*
X56051Y-35181D03*
X56051Y-30181D03*
X56051Y-36181D03*
X56051Y-31181D03*
X56051Y-32181D03*
X56051Y-33181D03*
X56051Y-34181D03*
X55051Y-32181D03*
X55051Y-31181D03*
X55051Y-30181D03*
X55051Y-29181D03*
G54D13*
X57051Y-36181D03*
G54D14*
X57051Y-30181D03*
X57051Y-35181D03*
X57051Y-29181D03*
X57051Y-34181D03*
X57051Y-33181D03*
X57051Y-32181D03*
X57051Y-31181D03*
X58051Y-33181D03*
X58051Y-34181D03*
X58051Y-35181D03*
X58051Y-36181D03*
G54D13*
X35051Y-29181D03*
G54D14*
X35051Y-35181D03*
X35051Y-30181D03*
X35051Y-36181D03*
X35051Y-31181D03*
X35051Y-32181D03*
X35051Y-33181D03*
X35051Y-34181D03*
X34051Y-32181D03*
X34051Y-31181D03*
X34051Y-30181D03*
X34051Y-29181D03*
G54D15*
X49312Y-33061D03*
X47344Y-33061D03*
X50296Y-33061D03*
X46359Y-33061D03*
X48328Y-35030D03*
G54D16*
X61241Y-34380D03*
X61241Y-35680D03*
X60218Y-34380D03*
X60218Y-35680D03*
G54D17*
X63386Y-29282D03*
X64686Y-29282D03*
X60827Y-29282D03*
X62127Y-29282D03*
X59962Y-29282D03*
X58662Y-29282D03*
G54D16*
X62265Y-34380D03*
X62265Y-35680D03*
G54D18*
X64430Y-33235D03*
X64430Y-31235D03*
G54D19*
X47199Y-31685D03*
X49299Y-31685D03*
X47199Y-31185D03*
X47199Y-30685D03*
X47199Y-30185D03*
X49299Y-31185D03*
X49299Y-30685D03*
X49299Y-30185D03*
G54D16*
X52580Y-30404D03*
X52580Y-29104D03*
G54D17*
X51104Y-29203D03*
X49804Y-29203D03*
G54D16*
X45966Y-30562D03*
X45966Y-29262D03*
G54D17*
X48899Y-29203D03*
X47599Y-29203D03*
G54D16*
X44942Y-29262D03*
X44942Y-30562D03*
X51635Y-33239D03*
X51635Y-31939D03*
G54D17*
X38701Y-29282D03*
X40001Y-29282D03*
X37639Y-29282D03*
X36339Y-29282D03*
X40985Y-29282D03*
X42285Y-29282D03*
X41221Y-31487D03*
X42521Y-31487D03*
X41221Y-30463D03*
X42521Y-30463D03*
G54D16*
X39430Y-33986D03*
X39430Y-35286D03*
X38407Y-33986D03*
X38407Y-35286D03*
G54D17*
X39016Y-31487D03*
X40316Y-31487D03*
X39016Y-30463D03*
X40316Y-30463D03*
G54D13*
X45351Y-32206D03*
X45351Y-33206D03*
X45351Y-35206D03*
X45351Y-34206D03*
G54D15*
X43335Y-33056D03*
X41366Y-33056D03*
X44319Y-33056D03*
X40382Y-33056D03*
X42351Y-35024D03*
G54D20*
X37855Y-29991D03*
X36281Y-31329D03*
X62895Y-30699D03*
X61477Y-29439D03*
X59036Y-30699D03*
X59036Y-32983D03*
X59430Y-34321D03*
X41635Y-29361D03*
X36674Y-31802D03*
X36123Y-31959D03*
X37619Y-31250D03*
X49588Y-32274D03*
X52895Y-31250D03*
X58721Y-35896D03*
X59430Y-34951D03*
X62344Y-33140D03*
X37451Y-35456D03*
X43101Y-29356D03*
X39666Y-30069D03*
X39509Y-32353D03*
X58013Y-29203D03*
X37698Y-32038D03*
X51399Y-32589D03*
X45021Y-31250D03*
X48721Y-30227D03*
X53288Y-30935D03*
X52737Y-33061D03*
X61792Y-33219D03*
X65021Y-30069D03*
X62737Y-29124D03*
X59509Y-35660D03*
X63052Y-35660D03*
X48751Y-32606D03*
X50451Y-29856D03*
X48751Y-30806D03*
X48701Y-31856D03*
X45966Y-31172D03*
X50060Y-31329D03*
X50847Y-32038D03*
X52107Y-32510D03*
X50847Y-34479D03*
X50847Y-33770D03*
G54D21*
X34051Y-31181D02*
X34051Y-31225D01*
X37639Y-29774D02*
X37639Y-29282D01*
X37855Y-29991D02*
X37639Y-29774D01*
X35966Y-31644D02*
X36281Y-31329D01*
X34470Y-31644D02*
X35966Y-31644D01*
X34051Y-31225D02*
X34470Y-31644D01*
X37540Y-30621D02*
X37540Y-29381D01*
X37540Y-29381D02*
X37639Y-29282D01*
G54D22*
X60700Y-30345D02*
X60700Y-29410D01*
X60700Y-29410D02*
X60827Y-29282D01*
X63386Y-29282D02*
X63367Y-29282D01*
X62491Y-30158D02*
X62491Y-30345D01*
X63367Y-29282D02*
X62491Y-30158D01*
X59962Y-29282D02*
X60827Y-29282D01*
X61241Y-34380D02*
X62265Y-34380D01*
X60218Y-34380D02*
X61241Y-34380D01*
G54D23*
X60827Y-29282D02*
X61320Y-29282D01*
X62541Y-30345D02*
X62491Y-30345D01*
X62895Y-30699D02*
X62541Y-30345D01*
X61320Y-29282D02*
X61477Y-29439D01*
X60700Y-29410D02*
X60827Y-29282D01*
X59962Y-29301D02*
X59962Y-29282D01*
X59036Y-30227D02*
X59962Y-29301D01*
X59036Y-30699D02*
X59036Y-30227D01*
X61241Y-34380D02*
X61241Y-33613D01*
X61241Y-33613D02*
X61468Y-33386D01*
X61468Y-33386D02*
X61468Y-32549D01*
X59470Y-32549D02*
X59677Y-32549D01*
X59036Y-32983D02*
X59470Y-32549D01*
X60218Y-34380D02*
X59489Y-34380D01*
X59489Y-34380D02*
X59430Y-34321D01*
G54D21*
X41556Y-29282D02*
X40985Y-29282D01*
X41635Y-29361D02*
X41556Y-29282D01*
X36123Y-31959D02*
X36281Y-31802D01*
X36281Y-31802D02*
X36674Y-31802D01*
X37796Y-31073D02*
X37796Y-30621D01*
X37619Y-31250D02*
X37796Y-31073D01*
X52895Y-31250D02*
X52895Y-30719D01*
X52895Y-30719D02*
X52580Y-30404D01*
X47199Y-31685D02*
X47199Y-31854D01*
X47619Y-32274D02*
X49588Y-32274D01*
X47199Y-31854D02*
X47619Y-32274D01*
X52904Y-31959D02*
X52904Y-31260D01*
X52904Y-31260D02*
X52895Y-31250D01*
G54D23*
X36772Y-32825D02*
X35695Y-32825D01*
X35695Y-32825D02*
X35051Y-32181D01*
X37028Y-32825D02*
X37028Y-33337D01*
X35404Y-33534D02*
X35051Y-33181D01*
X36832Y-33534D02*
X35404Y-33534D01*
X37028Y-33337D02*
X36832Y-33534D01*
X35051Y-36181D02*
X35051Y-35994D01*
X37796Y-33248D02*
X37796Y-32825D01*
X35051Y-35994D02*
X37796Y-33248D01*
X36772Y-30621D02*
X35610Y-30621D01*
X35610Y-30621D02*
X35051Y-31181D01*
X35051Y-34181D02*
X36411Y-34181D01*
X37284Y-33308D02*
X37284Y-32825D01*
X36411Y-34181D02*
X37284Y-33308D01*
X35051Y-35181D02*
X35126Y-35181D01*
X37540Y-33278D02*
X37540Y-32825D01*
X36478Y-34341D02*
X37540Y-33278D01*
X35966Y-34341D02*
X36478Y-34341D01*
X35126Y-35181D02*
X35966Y-34341D01*
X37028Y-30621D02*
X37028Y-30109D01*
X36832Y-29912D02*
X35319Y-29912D01*
X37028Y-30109D02*
X36832Y-29912D01*
X35319Y-29912D02*
X35051Y-30181D01*
G54D21*
X54184Y-31959D02*
X54233Y-31959D01*
X55508Y-31723D02*
X56051Y-31181D01*
X54470Y-31723D02*
X55508Y-31723D01*
X54233Y-31959D02*
X54470Y-31723D01*
X53416Y-34163D02*
X53416Y-34764D01*
X53833Y-35181D02*
X56051Y-35181D01*
X53416Y-34764D02*
X53833Y-35181D01*
X53928Y-31959D02*
X53928Y-31398D01*
X55532Y-30699D02*
X56051Y-30181D01*
X54627Y-30699D02*
X55532Y-30699D01*
X53928Y-31398D02*
X54627Y-30699D01*
X53928Y-34161D02*
X53928Y-34549D01*
X55336Y-33896D02*
X56051Y-33181D01*
X55336Y-34243D02*
X55336Y-33896D01*
X54807Y-34771D02*
X55336Y-34243D01*
X54150Y-34771D02*
X54807Y-34771D01*
X53928Y-34549D02*
X54150Y-34771D01*
X53672Y-31959D02*
X53672Y-30709D01*
X55556Y-29676D02*
X56051Y-29181D01*
X54706Y-29676D02*
X55556Y-29676D01*
X53672Y-30709D02*
X54706Y-29676D01*
X55280Y-34951D02*
X56051Y-34181D01*
X54076Y-34951D02*
X55280Y-34951D01*
X53672Y-34163D02*
X53672Y-34548D01*
X53672Y-34548D02*
X54076Y-34951D01*
X49299Y-31185D02*
X49299Y-31685D01*
X49299Y-31685D02*
X49629Y-31685D01*
X49629Y-31685D02*
X50296Y-32353D01*
X50296Y-32353D02*
X50296Y-33061D01*
X47199Y-30685D02*
X47199Y-31185D01*
X47199Y-31185D02*
X46660Y-31185D01*
X46660Y-31185D02*
X46359Y-31487D01*
X46359Y-31487D02*
X46359Y-33061D01*
X54180Y-34161D02*
X54180Y-34059D01*
X56051Y-32189D02*
X56051Y-32181D01*
X54180Y-34059D02*
X56051Y-32189D01*
X52904Y-34163D02*
X52904Y-34725D01*
X54360Y-36181D02*
X56051Y-36181D01*
X52904Y-34725D02*
X54360Y-36181D01*
G54D23*
X62491Y-32549D02*
X62491Y-32993D01*
X58721Y-35660D02*
X58721Y-35896D01*
X59430Y-34951D02*
X58721Y-35660D01*
X62491Y-32993D02*
X62344Y-33140D01*
X60700Y-32549D02*
X60700Y-32894D01*
X57561Y-33691D02*
X57051Y-33181D01*
X58643Y-33691D02*
X57561Y-33691D01*
X59036Y-33298D02*
X58643Y-33691D01*
X60296Y-33298D02*
X59036Y-33298D01*
X60700Y-32894D02*
X60296Y-33298D01*
X60956Y-32549D02*
X60956Y-32865D01*
X57506Y-34636D02*
X57051Y-34181D01*
X58643Y-34636D02*
X57506Y-34636D01*
X58800Y-34479D02*
X58643Y-34636D01*
X58800Y-33770D02*
X58800Y-34479D01*
X59113Y-33458D02*
X58800Y-33770D01*
X60363Y-33458D02*
X59113Y-33458D01*
X60956Y-32865D02*
X60363Y-33458D01*
X62236Y-30345D02*
X62236Y-30650D01*
X57258Y-30181D02*
X57051Y-30181D01*
X58249Y-31172D02*
X57258Y-30181D01*
X61714Y-31172D02*
X58249Y-31172D01*
X62236Y-30650D02*
X61714Y-31172D01*
X61980Y-30345D02*
X61980Y-30679D01*
X57619Y-29749D02*
X57051Y-29181D01*
X57619Y-30316D02*
X57619Y-29749D01*
X58315Y-31012D02*
X57619Y-30316D01*
X61647Y-31012D02*
X58315Y-31012D01*
X61980Y-30679D02*
X61647Y-31012D01*
X59932Y-32549D02*
X59932Y-32224D01*
X57193Y-32038D02*
X57051Y-32181D01*
X59745Y-32038D02*
X57193Y-32038D01*
X59932Y-32224D02*
X59745Y-32038D01*
X60188Y-32549D02*
X60188Y-32244D01*
X57748Y-31878D02*
X57051Y-31181D01*
X59821Y-31878D02*
X57748Y-31878D01*
X60188Y-32244D02*
X59821Y-31878D01*
X61212Y-32549D02*
X61212Y-32933D01*
X57530Y-35660D02*
X57051Y-35181D01*
X58485Y-35660D02*
X57530Y-35660D01*
X58960Y-35185D02*
X58485Y-35660D01*
X58960Y-34164D02*
X58960Y-35185D01*
X59433Y-33691D02*
X58960Y-34164D01*
X60454Y-33691D02*
X59433Y-33691D01*
X61212Y-32933D02*
X60454Y-33691D01*
X38407Y-35286D02*
X37620Y-35286D01*
X37620Y-35286D02*
X37451Y-35456D01*
X42285Y-29282D02*
X43027Y-29282D01*
X43027Y-29282D02*
X43101Y-29356D01*
G54D21*
X39666Y-30069D02*
X39666Y-32195D01*
X40001Y-29734D02*
X39666Y-30069D01*
X40001Y-29282D02*
X40001Y-29734D01*
X39666Y-32195D02*
X39509Y-32353D01*
G54D23*
X58092Y-29282D02*
X58013Y-29203D01*
X58092Y-29282D02*
X58662Y-29282D01*
G54D21*
X37610Y-31714D02*
X37610Y-31950D01*
X37610Y-31950D02*
X37698Y-32038D01*
X37284Y-30621D02*
X37284Y-31624D01*
X38052Y-31271D02*
X38052Y-30621D01*
X37601Y-31723D02*
X37610Y-31714D01*
X37610Y-31714D02*
X38052Y-31271D01*
X37383Y-31723D02*
X37601Y-31723D01*
X37284Y-31624D02*
X37383Y-31723D01*
X34051Y-29181D02*
X34053Y-29181D01*
X35945Y-29676D02*
X36339Y-29282D01*
X34548Y-29676D02*
X35945Y-29676D01*
X34053Y-29181D02*
X34548Y-29676D01*
X38407Y-35286D02*
X39430Y-35286D01*
X37284Y-30621D02*
X37284Y-30124D01*
X36442Y-29282D02*
X36339Y-29282D01*
X37284Y-30124D02*
X36442Y-29282D01*
X51635Y-32274D02*
X51635Y-32353D01*
X51635Y-32353D02*
X51399Y-32589D01*
X52580Y-29104D02*
X54974Y-29104D01*
X54974Y-29104D02*
X55051Y-29181D01*
X44942Y-30562D02*
X44942Y-31172D01*
X44942Y-31172D02*
X45021Y-31250D01*
X47599Y-29203D02*
X47698Y-29203D01*
X48763Y-30185D02*
X48721Y-30227D01*
X48763Y-30185D02*
X49299Y-30185D01*
X47698Y-29203D02*
X48721Y-30227D01*
X53416Y-31959D02*
X53416Y-31063D01*
X53416Y-31063D02*
X53288Y-30935D01*
X51635Y-31939D02*
X51635Y-32274D01*
X53131Y-33061D02*
X52737Y-33061D01*
X53092Y-33573D02*
X53092Y-33101D01*
X53416Y-32776D02*
X53416Y-32510D01*
X53416Y-32510D02*
X53416Y-31959D01*
X53092Y-33101D02*
X53131Y-33061D01*
X53131Y-33061D02*
X53416Y-32776D01*
X52392Y-34163D02*
X52392Y-33721D01*
X53160Y-33642D02*
X53160Y-34163D01*
X53052Y-33534D02*
X53092Y-33573D01*
X53092Y-33573D02*
X53160Y-33642D01*
X52580Y-33534D02*
X53052Y-33534D01*
X52392Y-33721D02*
X52580Y-33534D01*
X52392Y-34163D02*
X50414Y-34163D01*
X50414Y-34163D02*
X49312Y-33061D01*
G54D22*
X58051Y-36181D02*
X58376Y-36181D01*
X59529Y-36369D02*
X60218Y-35680D01*
X58564Y-36369D02*
X59529Y-36369D01*
X58376Y-36181D02*
X58564Y-36369D01*
G54D23*
X60444Y-32549D02*
X60444Y-32048D01*
X61724Y-32127D02*
X61724Y-32549D01*
X61556Y-31959D02*
X61724Y-32127D01*
X60532Y-31959D02*
X61556Y-31959D01*
X60444Y-32048D02*
X60532Y-31959D01*
X61724Y-32549D02*
X61724Y-33150D01*
X61724Y-33150D02*
X61792Y-33219D01*
X61724Y-30345D02*
X61468Y-30345D01*
X61724Y-30345D02*
X61724Y-29686D01*
X61724Y-29686D02*
X62127Y-29282D01*
X64686Y-29282D02*
X64686Y-29735D01*
X64686Y-29735D02*
X65021Y-30069D01*
X62127Y-29282D02*
X62580Y-29282D01*
X62580Y-29282D02*
X62737Y-29124D01*
X60218Y-35680D02*
X59529Y-35680D01*
X59529Y-35680D02*
X59509Y-35660D01*
X62265Y-35680D02*
X63032Y-35680D01*
X63032Y-35680D02*
X63052Y-35660D01*
X61241Y-35680D02*
X62265Y-35680D01*
X60218Y-35680D02*
X61241Y-35680D01*
X61980Y-32549D02*
X61980Y-32008D01*
X62753Y-31235D02*
X64430Y-31235D01*
X61980Y-32008D02*
X62753Y-31235D01*
X62236Y-32549D02*
X62236Y-32146D01*
X64430Y-32471D02*
X64430Y-33235D01*
X63918Y-31959D02*
X64430Y-32471D01*
X62422Y-31959D02*
X63918Y-31959D01*
X62236Y-32146D02*
X62422Y-31959D01*
X48751Y-33406D02*
X48751Y-32606D01*
X48401Y-33756D02*
X48751Y-33406D01*
X45351Y-33206D02*
X45901Y-33756D01*
X51103Y-29203D02*
X51104Y-29203D01*
X50451Y-29856D02*
X51103Y-29203D01*
X48751Y-31806D02*
X48751Y-30806D01*
X48701Y-31856D02*
X48751Y-31806D01*
X45901Y-33756D02*
X48401Y-33756D01*
G54D21*
X52648Y-31959D02*
X52648Y-31555D01*
X51104Y-30483D02*
X51104Y-29203D01*
X51635Y-31014D02*
X51104Y-30483D01*
X52107Y-31014D02*
X51635Y-31014D01*
X52648Y-31555D02*
X52107Y-31014D01*
G54D23*
X45351Y-32206D02*
X45351Y-31787D01*
G54D21*
X45966Y-31172D02*
X45966Y-30562D01*
X52392Y-31959D02*
X52392Y-32225D01*
X52392Y-32225D02*
X52107Y-32510D01*
G54D23*
X45351Y-31787D02*
X45966Y-31172D01*
G54D21*
X50139Y-31329D02*
X50060Y-31329D01*
X50847Y-32038D02*
X50139Y-31329D01*
X49804Y-29203D02*
X49804Y-30562D01*
X49680Y-30685D02*
X49299Y-30685D01*
X49804Y-30562D02*
X49680Y-30685D01*
X49804Y-29203D02*
X48899Y-29203D01*
X45966Y-29262D02*
X46275Y-29262D01*
X46275Y-29262D02*
X47199Y-30185D01*
X44942Y-29262D02*
X45966Y-29262D01*
X51635Y-33239D02*
X51379Y-33239D01*
X52648Y-34725D02*
X52648Y-34163D01*
X52580Y-34794D02*
X52648Y-34725D01*
X51162Y-34794D02*
X52580Y-34794D01*
X50847Y-34479D02*
X51162Y-34794D01*
X51379Y-33239D02*
X50847Y-33770D01*
X44391Y-32117D02*
X44391Y-33061D01*
X42521Y-30384D02*
X42658Y-30384D01*
X42658Y-30384D02*
X44391Y-32117D01*
X41162Y-32353D02*
X40454Y-33061D01*
X41714Y-32353D02*
X41162Y-32353D01*
X42521Y-31408D02*
X42521Y-31545D01*
X42521Y-31545D02*
X41714Y-32353D01*
X40316Y-30384D02*
X41221Y-30384D01*
X40316Y-31408D02*
X41221Y-31408D01*
G54D23*
X39430Y-33986D02*
X45131Y-33986D01*
X45131Y-33986D02*
X45351Y-34206D01*
G54D21*
X38308Y-32825D02*
X38308Y-32865D01*
X38308Y-32865D02*
X39430Y-33986D01*
X39016Y-31408D02*
X39016Y-32117D01*
X39016Y-32117D02*
X38308Y-32825D01*
G54D23*
X43851Y-35556D02*
X45001Y-35556D01*
X38407Y-34361D02*
X38551Y-34506D01*
X38551Y-34506D02*
X40751Y-34506D01*
X40751Y-34506D02*
X41901Y-35656D01*
X41901Y-35656D02*
X43751Y-35656D01*
X43751Y-35656D02*
X43851Y-35556D01*
X38407Y-33986D02*
X38407Y-34361D01*
X45001Y-35556D02*
X45351Y-35206D01*
G54D21*
X38052Y-32825D02*
X38052Y-33632D01*
X38052Y-33632D02*
X38407Y-33986D01*
X39016Y-30463D02*
X39016Y-30562D01*
X38052Y-31526D02*
X38052Y-32825D01*
X39016Y-30562D02*
X38052Y-31526D01*
X38701Y-29282D02*
X38701Y-29617D01*
X38308Y-30010D02*
X38308Y-30621D01*
X38701Y-29617D02*
X38308Y-30010D01*
M02*
