G04 (created by PCBNEW (2013-07-07 BZR 4022)-stable) date 03/07/2014 16:21:05*
%MOIN*%
G04 Gerber Fmt 3.4, Leading zero omitted, Abs format*
%FSLAX34Y34*%
G01*
G70*
G90*
G04 APERTURE LIST*
%ADD10C,0.00590551*%
%ADD11C,0.00984252*%
%ADD12C,0.011811*%
%ADD13C,0.00787402*%
%ADD14C,0.005*%
%ADD15C,0.0065*%
%ADD16C,0.006*%
%ADD17C,0.015*%
%ADD18C,0.0001*%
%ADD19C,0.0047*%
%ADD20C,0.0059*%
%ADD21C,0.007*%
%ADD22C,0.01125*%
%ADD23C,0.012*%
G04 APERTURE END LIST*
G54D10*
X64096Y-37440D02*
X64078Y-37496D01*
X64059Y-37515D01*
X64021Y-37534D01*
X63965Y-37534D01*
X63928Y-37515D01*
X63909Y-37496D01*
X63890Y-37459D01*
X63890Y-37309D01*
X64284Y-37309D01*
X64284Y-37440D01*
X64265Y-37478D01*
X64246Y-37496D01*
X64209Y-37515D01*
X64171Y-37515D01*
X64134Y-37496D01*
X64115Y-37478D01*
X64096Y-37440D01*
X64096Y-37309D01*
X64246Y-37684D02*
X64265Y-37703D01*
X64284Y-37740D01*
X64284Y-37834D01*
X64265Y-37871D01*
X64246Y-37890D01*
X64209Y-37909D01*
X64171Y-37909D01*
X64115Y-37890D01*
X63890Y-37665D01*
X63890Y-37909D01*
G54D11*
X58634Y-32859D02*
X58446Y-32859D01*
X58446Y-32465D01*
X58746Y-32503D02*
X58765Y-32484D01*
X58803Y-32465D01*
X58896Y-32465D01*
X58934Y-32484D01*
X58953Y-32503D01*
X58971Y-32540D01*
X58971Y-32578D01*
X58953Y-32634D01*
X58728Y-32859D01*
X58971Y-32859D01*
X57734Y-32859D02*
X57546Y-32859D01*
X57546Y-32465D01*
X58071Y-32859D02*
X57846Y-32859D01*
X57959Y-32859D02*
X57959Y-32465D01*
X57921Y-32521D01*
X57884Y-32559D01*
X57846Y-32578D01*
G54D10*
X64046Y-34240D02*
X64028Y-34296D01*
X64009Y-34315D01*
X63971Y-34334D01*
X63915Y-34334D01*
X63878Y-34315D01*
X63859Y-34296D01*
X63840Y-34259D01*
X63840Y-34109D01*
X64234Y-34109D01*
X64234Y-34240D01*
X64215Y-34278D01*
X64196Y-34296D01*
X64159Y-34315D01*
X64121Y-34315D01*
X64084Y-34296D01*
X64065Y-34278D01*
X64046Y-34240D01*
X64046Y-34109D01*
X63840Y-34709D02*
X63840Y-34484D01*
X63840Y-34596D02*
X64234Y-34596D01*
X64178Y-34559D01*
X64140Y-34521D01*
X64121Y-34484D01*
G54D12*
X62671Y-31498D02*
X62728Y-31498D01*
X62784Y-31526D01*
X62812Y-31554D01*
X62840Y-31610D01*
X62868Y-31723D01*
X62868Y-31864D01*
X62840Y-31976D01*
X62812Y-32032D01*
X62784Y-32060D01*
X62728Y-32089D01*
X62671Y-32089D01*
X62615Y-32060D01*
X62587Y-32032D01*
X62559Y-31976D01*
X62531Y-31864D01*
X62531Y-31723D01*
X62559Y-31610D01*
X62587Y-31554D01*
X62615Y-31526D01*
X62671Y-31498D01*
X56840Y-32448D02*
X56559Y-32448D01*
X56531Y-32729D01*
X56559Y-32701D01*
X56615Y-32673D01*
X56756Y-32673D01*
X56812Y-32701D01*
X56840Y-32729D01*
X56868Y-32785D01*
X56868Y-32926D01*
X56840Y-32982D01*
X56812Y-33010D01*
X56756Y-33039D01*
X56615Y-33039D01*
X56559Y-33010D01*
X56531Y-32982D01*
X51637Y-33039D02*
X51300Y-33039D01*
X51468Y-33039D02*
X51468Y-32448D01*
X51412Y-32532D01*
X51356Y-32589D01*
X51300Y-32617D01*
X52003Y-32448D02*
X52059Y-32448D01*
X52115Y-32476D01*
X52143Y-32504D01*
X52171Y-32560D01*
X52199Y-32673D01*
X52199Y-32814D01*
X52171Y-32926D01*
X52143Y-32982D01*
X52115Y-33010D01*
X52059Y-33039D01*
X52003Y-33039D01*
X51946Y-33010D01*
X51918Y-32982D01*
X51890Y-32926D01*
X51862Y-32814D01*
X51862Y-32673D01*
X51890Y-32560D01*
X51918Y-32504D01*
X51946Y-32476D01*
X52003Y-32448D01*
X46587Y-33039D02*
X46250Y-33039D01*
X46418Y-33039D02*
X46418Y-32448D01*
X46362Y-32532D01*
X46306Y-32589D01*
X46250Y-32617D01*
X47121Y-32448D02*
X46840Y-32448D01*
X46812Y-32729D01*
X46840Y-32701D01*
X46896Y-32673D01*
X47037Y-32673D01*
X47093Y-32701D01*
X47121Y-32729D01*
X47149Y-32785D01*
X47149Y-32926D01*
X47121Y-32982D01*
X47093Y-33010D01*
X47037Y-33039D01*
X46896Y-33039D01*
X46840Y-33010D01*
X46812Y-32982D01*
X45882Y-31932D02*
X45854Y-31960D01*
X45770Y-31989D01*
X45714Y-31989D01*
X45629Y-31960D01*
X45573Y-31904D01*
X45545Y-31848D01*
X45517Y-31735D01*
X45517Y-31651D01*
X45545Y-31539D01*
X45573Y-31482D01*
X45629Y-31426D01*
X45714Y-31398D01*
X45770Y-31398D01*
X45854Y-31426D01*
X45882Y-31454D01*
G54D13*
X41628Y-56309D02*
X41628Y-55915D01*
X41722Y-55915D01*
X41778Y-55934D01*
X41815Y-55971D01*
X41834Y-56009D01*
X41853Y-56084D01*
X41853Y-56140D01*
X41834Y-56215D01*
X41815Y-56253D01*
X41778Y-56290D01*
X41722Y-56309D01*
X41628Y-56309D01*
X42190Y-56046D02*
X42190Y-56309D01*
X42022Y-56046D02*
X42022Y-56253D01*
X42040Y-56290D01*
X42078Y-56309D01*
X42134Y-56309D01*
X42171Y-56290D01*
X42190Y-56271D01*
X42546Y-56309D02*
X42546Y-56103D01*
X42528Y-56065D01*
X42490Y-56046D01*
X42415Y-56046D01*
X42378Y-56065D01*
X42546Y-56290D02*
X42509Y-56309D01*
X42415Y-56309D01*
X42378Y-56290D01*
X42359Y-56253D01*
X42359Y-56215D01*
X42378Y-56178D01*
X42415Y-56159D01*
X42509Y-56159D01*
X42546Y-56140D01*
X42790Y-56309D02*
X42753Y-56290D01*
X42734Y-56253D01*
X42734Y-55915D01*
X43240Y-56309D02*
X43240Y-55915D01*
X43371Y-56196D01*
X43503Y-55915D01*
X43503Y-56309D01*
X43746Y-56309D02*
X43709Y-56290D01*
X43690Y-56271D01*
X43671Y-56234D01*
X43671Y-56121D01*
X43690Y-56084D01*
X43709Y-56065D01*
X43746Y-56046D01*
X43803Y-56046D01*
X43840Y-56065D01*
X43859Y-56084D01*
X43878Y-56121D01*
X43878Y-56234D01*
X43859Y-56271D01*
X43840Y-56290D01*
X43803Y-56309D01*
X43746Y-56309D01*
X44046Y-56046D02*
X44046Y-56309D01*
X44046Y-56084D02*
X44065Y-56065D01*
X44102Y-56046D01*
X44159Y-56046D01*
X44196Y-56065D01*
X44215Y-56103D01*
X44215Y-56309D01*
X44459Y-56309D02*
X44421Y-56290D01*
X44402Y-56271D01*
X44384Y-56234D01*
X44384Y-56121D01*
X44402Y-56084D01*
X44421Y-56065D01*
X44459Y-56046D01*
X44515Y-56046D01*
X44552Y-56065D01*
X44571Y-56084D01*
X44590Y-56121D01*
X44590Y-56234D01*
X44571Y-56271D01*
X44552Y-56290D01*
X44515Y-56309D01*
X44459Y-56309D01*
X40828Y-58190D02*
X40884Y-58209D01*
X40978Y-58209D01*
X41015Y-58190D01*
X41034Y-58171D01*
X41053Y-58134D01*
X41053Y-58096D01*
X41034Y-58059D01*
X41015Y-58040D01*
X40978Y-58021D01*
X40903Y-58003D01*
X40865Y-57984D01*
X40847Y-57965D01*
X40828Y-57928D01*
X40828Y-57890D01*
X40847Y-57853D01*
X40865Y-57834D01*
X40903Y-57815D01*
X40997Y-57815D01*
X41053Y-57834D01*
X41222Y-58209D02*
X41222Y-57946D01*
X41222Y-57815D02*
X41203Y-57834D01*
X41222Y-57853D01*
X41240Y-57834D01*
X41222Y-57815D01*
X41222Y-57853D01*
X41409Y-57946D02*
X41409Y-58209D01*
X41409Y-57984D02*
X41428Y-57965D01*
X41465Y-57946D01*
X41522Y-57946D01*
X41559Y-57965D01*
X41578Y-58003D01*
X41578Y-58209D01*
X41934Y-57946D02*
X41934Y-58265D01*
X41915Y-58303D01*
X41896Y-58321D01*
X41859Y-58340D01*
X41803Y-58340D01*
X41765Y-58321D01*
X41934Y-58190D02*
X41896Y-58209D01*
X41821Y-58209D01*
X41784Y-58190D01*
X41765Y-58171D01*
X41747Y-58134D01*
X41747Y-58021D01*
X41765Y-57984D01*
X41784Y-57965D01*
X41821Y-57946D01*
X41896Y-57946D01*
X41934Y-57965D01*
X42178Y-58209D02*
X42140Y-58190D01*
X42121Y-58153D01*
X42121Y-57815D01*
X42478Y-58190D02*
X42440Y-58209D01*
X42365Y-58209D01*
X42328Y-58190D01*
X42309Y-58153D01*
X42309Y-58003D01*
X42328Y-57965D01*
X42365Y-57946D01*
X42440Y-57946D01*
X42478Y-57965D01*
X42496Y-58003D01*
X42496Y-58040D01*
X42309Y-58078D01*
X42946Y-58190D02*
X43003Y-58209D01*
X43096Y-58209D01*
X43134Y-58190D01*
X43153Y-58171D01*
X43171Y-58134D01*
X43171Y-58096D01*
X43153Y-58059D01*
X43134Y-58040D01*
X43096Y-58021D01*
X43021Y-58003D01*
X42984Y-57984D01*
X42965Y-57965D01*
X42946Y-57928D01*
X42946Y-57890D01*
X42965Y-57853D01*
X42984Y-57834D01*
X43021Y-57815D01*
X43115Y-57815D01*
X43171Y-57834D01*
X43284Y-57946D02*
X43434Y-57946D01*
X43340Y-57815D02*
X43340Y-58153D01*
X43359Y-58190D01*
X43396Y-58209D01*
X43434Y-58209D01*
X43715Y-58190D02*
X43678Y-58209D01*
X43603Y-58209D01*
X43565Y-58190D01*
X43546Y-58153D01*
X43546Y-58003D01*
X43565Y-57965D01*
X43603Y-57946D01*
X43678Y-57946D01*
X43715Y-57965D01*
X43734Y-58003D01*
X43734Y-58040D01*
X43546Y-58078D01*
X43902Y-58209D02*
X43902Y-57946D01*
X43902Y-58021D02*
X43921Y-57984D01*
X43940Y-57965D01*
X43977Y-57946D01*
X44015Y-57946D01*
X44296Y-58190D02*
X44259Y-58209D01*
X44184Y-58209D01*
X44146Y-58190D01*
X44127Y-58153D01*
X44127Y-58003D01*
X44146Y-57965D01*
X44184Y-57946D01*
X44259Y-57946D01*
X44296Y-57965D01*
X44315Y-58003D01*
X44315Y-58040D01*
X44127Y-58078D01*
X44540Y-58209D02*
X44502Y-58190D01*
X44484Y-58171D01*
X44465Y-58134D01*
X44465Y-58021D01*
X44484Y-57984D01*
X44502Y-57965D01*
X44540Y-57946D01*
X44596Y-57946D01*
X44634Y-57965D01*
X44652Y-57984D01*
X44671Y-58021D01*
X44671Y-58134D01*
X44652Y-58171D01*
X44634Y-58190D01*
X44596Y-58209D01*
X44540Y-58209D01*
X27628Y-37709D02*
X27628Y-37315D01*
X27722Y-37315D01*
X27778Y-37334D01*
X27815Y-37371D01*
X27834Y-37409D01*
X27853Y-37484D01*
X27853Y-37540D01*
X27834Y-37615D01*
X27815Y-37653D01*
X27778Y-37690D01*
X27722Y-37709D01*
X27628Y-37709D01*
X28190Y-37446D02*
X28190Y-37709D01*
X28022Y-37446D02*
X28022Y-37653D01*
X28040Y-37690D01*
X28078Y-37709D01*
X28134Y-37709D01*
X28171Y-37690D01*
X28190Y-37671D01*
X28546Y-37709D02*
X28546Y-37503D01*
X28528Y-37465D01*
X28490Y-37446D01*
X28415Y-37446D01*
X28378Y-37465D01*
X28546Y-37690D02*
X28509Y-37709D01*
X28415Y-37709D01*
X28378Y-37690D01*
X28359Y-37653D01*
X28359Y-37615D01*
X28378Y-37578D01*
X28415Y-37559D01*
X28509Y-37559D01*
X28546Y-37540D01*
X28790Y-37709D02*
X28753Y-37690D01*
X28734Y-37653D01*
X28734Y-37315D01*
X29240Y-37709D02*
X29240Y-37315D01*
X29371Y-37596D01*
X29503Y-37315D01*
X29503Y-37709D01*
X29746Y-37709D02*
X29709Y-37690D01*
X29690Y-37671D01*
X29671Y-37634D01*
X29671Y-37521D01*
X29690Y-37484D01*
X29709Y-37465D01*
X29746Y-37446D01*
X29803Y-37446D01*
X29840Y-37465D01*
X29859Y-37484D01*
X29878Y-37521D01*
X29878Y-37634D01*
X29859Y-37671D01*
X29840Y-37690D01*
X29803Y-37709D01*
X29746Y-37709D01*
X30046Y-37446D02*
X30046Y-37709D01*
X30046Y-37484D02*
X30065Y-37465D01*
X30102Y-37446D01*
X30159Y-37446D01*
X30196Y-37465D01*
X30215Y-37503D01*
X30215Y-37709D01*
X30459Y-37709D02*
X30421Y-37690D01*
X30402Y-37671D01*
X30384Y-37634D01*
X30384Y-37521D01*
X30402Y-37484D01*
X30421Y-37465D01*
X30459Y-37446D01*
X30515Y-37446D01*
X30552Y-37465D01*
X30571Y-37484D01*
X30590Y-37521D01*
X30590Y-37634D01*
X30571Y-37671D01*
X30552Y-37690D01*
X30515Y-37709D01*
X30459Y-37709D01*
X34028Y-37640D02*
X34084Y-37659D01*
X34178Y-37659D01*
X34215Y-37640D01*
X34234Y-37621D01*
X34253Y-37584D01*
X34253Y-37546D01*
X34234Y-37509D01*
X34215Y-37490D01*
X34178Y-37471D01*
X34103Y-37453D01*
X34065Y-37434D01*
X34047Y-37415D01*
X34028Y-37378D01*
X34028Y-37340D01*
X34047Y-37303D01*
X34065Y-37284D01*
X34103Y-37265D01*
X34197Y-37265D01*
X34253Y-37284D01*
X34422Y-37659D02*
X34422Y-37396D01*
X34422Y-37265D02*
X34403Y-37284D01*
X34422Y-37303D01*
X34440Y-37284D01*
X34422Y-37265D01*
X34422Y-37303D01*
X34609Y-37396D02*
X34609Y-37659D01*
X34609Y-37434D02*
X34628Y-37415D01*
X34665Y-37396D01*
X34722Y-37396D01*
X34759Y-37415D01*
X34778Y-37453D01*
X34778Y-37659D01*
X35134Y-37396D02*
X35134Y-37715D01*
X35115Y-37753D01*
X35096Y-37771D01*
X35059Y-37790D01*
X35003Y-37790D01*
X34965Y-37771D01*
X35134Y-37640D02*
X35096Y-37659D01*
X35021Y-37659D01*
X34984Y-37640D01*
X34965Y-37621D01*
X34947Y-37584D01*
X34947Y-37471D01*
X34965Y-37434D01*
X34984Y-37415D01*
X35021Y-37396D01*
X35096Y-37396D01*
X35134Y-37415D01*
X35378Y-37659D02*
X35340Y-37640D01*
X35321Y-37603D01*
X35321Y-37265D01*
X35678Y-37640D02*
X35640Y-37659D01*
X35565Y-37659D01*
X35528Y-37640D01*
X35509Y-37603D01*
X35509Y-37453D01*
X35528Y-37415D01*
X35565Y-37396D01*
X35640Y-37396D01*
X35678Y-37415D01*
X35696Y-37453D01*
X35696Y-37490D01*
X35509Y-37528D01*
X36146Y-37640D02*
X36203Y-37659D01*
X36296Y-37659D01*
X36334Y-37640D01*
X36353Y-37621D01*
X36371Y-37584D01*
X36371Y-37546D01*
X36353Y-37509D01*
X36334Y-37490D01*
X36296Y-37471D01*
X36221Y-37453D01*
X36184Y-37434D01*
X36165Y-37415D01*
X36146Y-37378D01*
X36146Y-37340D01*
X36165Y-37303D01*
X36184Y-37284D01*
X36221Y-37265D01*
X36315Y-37265D01*
X36371Y-37284D01*
X36484Y-37396D02*
X36634Y-37396D01*
X36540Y-37265D02*
X36540Y-37603D01*
X36559Y-37640D01*
X36596Y-37659D01*
X36634Y-37659D01*
X36915Y-37640D02*
X36878Y-37659D01*
X36803Y-37659D01*
X36765Y-37640D01*
X36746Y-37603D01*
X36746Y-37453D01*
X36765Y-37415D01*
X36803Y-37396D01*
X36878Y-37396D01*
X36915Y-37415D01*
X36934Y-37453D01*
X36934Y-37490D01*
X36746Y-37528D01*
X37102Y-37659D02*
X37102Y-37396D01*
X37102Y-37471D02*
X37121Y-37434D01*
X37140Y-37415D01*
X37177Y-37396D01*
X37215Y-37396D01*
X37496Y-37640D02*
X37459Y-37659D01*
X37384Y-37659D01*
X37346Y-37640D01*
X37327Y-37603D01*
X37327Y-37453D01*
X37346Y-37415D01*
X37384Y-37396D01*
X37459Y-37396D01*
X37496Y-37415D01*
X37515Y-37453D01*
X37515Y-37490D01*
X37327Y-37528D01*
X37740Y-37659D02*
X37702Y-37640D01*
X37684Y-37621D01*
X37665Y-37584D01*
X37665Y-37471D01*
X37684Y-37434D01*
X37702Y-37415D01*
X37740Y-37396D01*
X37796Y-37396D01*
X37834Y-37415D01*
X37852Y-37434D01*
X37871Y-37471D01*
X37871Y-37584D01*
X37852Y-37621D01*
X37834Y-37640D01*
X37796Y-37659D01*
X37740Y-37659D01*
G54D12*
X55987Y-56139D02*
X55706Y-56139D01*
X55706Y-55548D01*
X56409Y-56110D02*
X56353Y-56139D01*
X56241Y-56139D01*
X56184Y-56110D01*
X56156Y-56054D01*
X56156Y-55829D01*
X56184Y-55773D01*
X56241Y-55745D01*
X56353Y-55745D01*
X56409Y-55773D01*
X56437Y-55829D01*
X56437Y-55885D01*
X56156Y-55942D01*
X56606Y-55745D02*
X56831Y-55745D01*
X56691Y-56139D02*
X56691Y-55632D01*
X56719Y-55576D01*
X56775Y-55548D01*
X56831Y-55548D01*
X56944Y-55745D02*
X57169Y-55745D01*
X57028Y-55548D02*
X57028Y-56054D01*
X57056Y-56110D01*
X57112Y-56139D01*
X57169Y-56139D01*
X57787Y-55520D02*
X57281Y-56279D01*
X57956Y-56110D02*
X58040Y-56139D01*
X58181Y-56139D01*
X58237Y-56110D01*
X58265Y-56082D01*
X58293Y-56026D01*
X58293Y-55970D01*
X58265Y-55914D01*
X58237Y-55885D01*
X58181Y-55857D01*
X58068Y-55829D01*
X58012Y-55801D01*
X57984Y-55773D01*
X57956Y-55717D01*
X57956Y-55660D01*
X57984Y-55604D01*
X58012Y-55576D01*
X58068Y-55548D01*
X58209Y-55548D01*
X58293Y-55576D01*
X58547Y-56139D02*
X58547Y-55745D01*
X58547Y-55548D02*
X58518Y-55576D01*
X58547Y-55604D01*
X58575Y-55576D01*
X58547Y-55548D01*
X58547Y-55604D01*
X58828Y-55745D02*
X58828Y-56139D01*
X58828Y-55801D02*
X58856Y-55773D01*
X58912Y-55745D01*
X58996Y-55745D01*
X59053Y-55773D01*
X59081Y-55829D01*
X59081Y-56139D01*
X59615Y-55745D02*
X59615Y-56223D01*
X59587Y-56279D01*
X59559Y-56307D01*
X59503Y-56335D01*
X59418Y-56335D01*
X59362Y-56307D01*
X59615Y-56110D02*
X59559Y-56139D01*
X59446Y-56139D01*
X59390Y-56110D01*
X59362Y-56082D01*
X59334Y-56026D01*
X59334Y-55857D01*
X59362Y-55801D01*
X59390Y-55773D01*
X59446Y-55745D01*
X59559Y-55745D01*
X59615Y-55773D01*
X59981Y-56139D02*
X59924Y-56110D01*
X59896Y-56054D01*
X59896Y-55548D01*
X60431Y-56110D02*
X60374Y-56139D01*
X60262Y-56139D01*
X60206Y-56110D01*
X60178Y-56054D01*
X60178Y-55829D01*
X60206Y-55773D01*
X60262Y-55745D01*
X60374Y-55745D01*
X60431Y-55773D01*
X60459Y-55829D01*
X60459Y-55885D01*
X60178Y-55942D01*
X61134Y-56110D02*
X61218Y-56139D01*
X61359Y-56139D01*
X61415Y-56110D01*
X61443Y-56082D01*
X61471Y-56026D01*
X61471Y-55970D01*
X61443Y-55914D01*
X61415Y-55885D01*
X61359Y-55857D01*
X61246Y-55829D01*
X61190Y-55801D01*
X61162Y-55773D01*
X61134Y-55717D01*
X61134Y-55660D01*
X61162Y-55604D01*
X61190Y-55576D01*
X61246Y-55548D01*
X61387Y-55548D01*
X61471Y-55576D01*
X61640Y-55745D02*
X61865Y-55745D01*
X61724Y-55548D02*
X61724Y-56054D01*
X61752Y-56110D01*
X61809Y-56139D01*
X61865Y-56139D01*
X62287Y-56110D02*
X62230Y-56139D01*
X62118Y-56139D01*
X62062Y-56110D01*
X62034Y-56054D01*
X62034Y-55829D01*
X62062Y-55773D01*
X62118Y-55745D01*
X62230Y-55745D01*
X62287Y-55773D01*
X62315Y-55829D01*
X62315Y-55885D01*
X62034Y-55942D01*
X62568Y-56139D02*
X62568Y-55745D01*
X62568Y-55857D02*
X62596Y-55801D01*
X62624Y-55773D01*
X62680Y-55745D01*
X62737Y-55745D01*
X63158Y-56110D02*
X63102Y-56139D01*
X62990Y-56139D01*
X62933Y-56110D01*
X62905Y-56054D01*
X62905Y-55829D01*
X62933Y-55773D01*
X62990Y-55745D01*
X63102Y-55745D01*
X63158Y-55773D01*
X63187Y-55829D01*
X63187Y-55885D01*
X62905Y-55942D01*
X63524Y-56139D02*
X63468Y-56110D01*
X63440Y-56082D01*
X63412Y-56026D01*
X63412Y-55857D01*
X63440Y-55801D01*
X63468Y-55773D01*
X63524Y-55745D01*
X63608Y-55745D01*
X63665Y-55773D01*
X63693Y-55801D01*
X63721Y-55857D01*
X63721Y-56026D01*
X63693Y-56082D01*
X63665Y-56110D01*
X63608Y-56139D01*
X63524Y-56139D01*
X47764Y-56144D02*
X47567Y-55863D01*
X47426Y-56144D02*
X47426Y-55553D01*
X47651Y-55553D01*
X47708Y-55582D01*
X47736Y-55610D01*
X47764Y-55666D01*
X47764Y-55750D01*
X47736Y-55807D01*
X47708Y-55835D01*
X47651Y-55863D01*
X47426Y-55863D01*
X48017Y-56144D02*
X48017Y-55750D01*
X48017Y-55553D02*
X47989Y-55582D01*
X48017Y-55610D01*
X48045Y-55582D01*
X48017Y-55553D01*
X48017Y-55610D01*
X48551Y-55750D02*
X48551Y-56228D01*
X48523Y-56285D01*
X48495Y-56313D01*
X48439Y-56341D01*
X48354Y-56341D01*
X48298Y-56313D01*
X48551Y-56116D02*
X48495Y-56144D01*
X48383Y-56144D01*
X48326Y-56116D01*
X48298Y-56088D01*
X48270Y-56032D01*
X48270Y-55863D01*
X48298Y-55807D01*
X48326Y-55778D01*
X48383Y-55750D01*
X48495Y-55750D01*
X48551Y-55778D01*
X48832Y-56144D02*
X48832Y-55553D01*
X49086Y-56144D02*
X49086Y-55835D01*
X49057Y-55778D01*
X49001Y-55750D01*
X48917Y-55750D01*
X48861Y-55778D01*
X48832Y-55807D01*
X49282Y-55750D02*
X49507Y-55750D01*
X49367Y-55553D02*
X49367Y-56060D01*
X49395Y-56116D01*
X49451Y-56144D01*
X49507Y-56144D01*
X26504Y-33309D02*
X26307Y-33028D01*
X26167Y-33309D02*
X26167Y-32719D01*
X26392Y-32719D01*
X26448Y-32747D01*
X26476Y-32775D01*
X26504Y-32831D01*
X26504Y-32916D01*
X26476Y-32972D01*
X26448Y-33000D01*
X26392Y-33028D01*
X26167Y-33028D01*
X26757Y-33309D02*
X26757Y-32916D01*
X26757Y-32719D02*
X26729Y-32747D01*
X26757Y-32775D01*
X26785Y-32747D01*
X26757Y-32719D01*
X26757Y-32775D01*
X27291Y-32916D02*
X27291Y-33394D01*
X27263Y-33450D01*
X27235Y-33478D01*
X27179Y-33506D01*
X27095Y-33506D01*
X27038Y-33478D01*
X27291Y-33281D02*
X27235Y-33309D01*
X27123Y-33309D01*
X27066Y-33281D01*
X27038Y-33253D01*
X27010Y-33197D01*
X27010Y-33028D01*
X27038Y-32972D01*
X27066Y-32944D01*
X27123Y-32916D01*
X27235Y-32916D01*
X27291Y-32944D01*
X27573Y-33309D02*
X27573Y-32719D01*
X27826Y-33309D02*
X27826Y-33000D01*
X27798Y-32944D01*
X27741Y-32916D01*
X27657Y-32916D01*
X27601Y-32944D01*
X27573Y-32972D01*
X28023Y-32916D02*
X28248Y-32916D01*
X28107Y-32719D02*
X28107Y-33225D01*
X28135Y-33281D01*
X28191Y-33309D01*
X28248Y-33309D01*
X35137Y-33339D02*
X34856Y-33339D01*
X34856Y-32748D01*
X35559Y-33310D02*
X35503Y-33339D01*
X35391Y-33339D01*
X35334Y-33310D01*
X35306Y-33254D01*
X35306Y-33029D01*
X35334Y-32973D01*
X35391Y-32945D01*
X35503Y-32945D01*
X35559Y-32973D01*
X35587Y-33029D01*
X35587Y-33085D01*
X35306Y-33142D01*
X35756Y-32945D02*
X35981Y-32945D01*
X35841Y-33339D02*
X35841Y-32832D01*
X35869Y-32776D01*
X35925Y-32748D01*
X35981Y-32748D01*
X36094Y-32945D02*
X36319Y-32945D01*
X36178Y-32748D02*
X36178Y-33254D01*
X36206Y-33310D01*
X36262Y-33339D01*
X36319Y-33339D01*
X36937Y-32720D02*
X36431Y-33479D01*
X37106Y-33310D02*
X37190Y-33339D01*
X37331Y-33339D01*
X37387Y-33310D01*
X37415Y-33282D01*
X37443Y-33226D01*
X37443Y-33170D01*
X37415Y-33114D01*
X37387Y-33085D01*
X37331Y-33057D01*
X37218Y-33029D01*
X37162Y-33001D01*
X37134Y-32973D01*
X37106Y-32917D01*
X37106Y-32860D01*
X37134Y-32804D01*
X37162Y-32776D01*
X37218Y-32748D01*
X37359Y-32748D01*
X37443Y-32776D01*
X37697Y-33339D02*
X37697Y-32945D01*
X37697Y-32748D02*
X37668Y-32776D01*
X37697Y-32804D01*
X37725Y-32776D01*
X37697Y-32748D01*
X37697Y-32804D01*
X37978Y-32945D02*
X37978Y-33339D01*
X37978Y-33001D02*
X38006Y-32973D01*
X38062Y-32945D01*
X38146Y-32945D01*
X38203Y-32973D01*
X38231Y-33029D01*
X38231Y-33339D01*
X38765Y-32945D02*
X38765Y-33423D01*
X38737Y-33479D01*
X38709Y-33507D01*
X38653Y-33535D01*
X38568Y-33535D01*
X38512Y-33507D01*
X38765Y-33310D02*
X38709Y-33339D01*
X38596Y-33339D01*
X38540Y-33310D01*
X38512Y-33282D01*
X38484Y-33226D01*
X38484Y-33057D01*
X38512Y-33001D01*
X38540Y-32973D01*
X38596Y-32945D01*
X38709Y-32945D01*
X38765Y-32973D01*
X39131Y-33339D02*
X39074Y-33310D01*
X39046Y-33254D01*
X39046Y-32748D01*
X39581Y-33310D02*
X39524Y-33339D01*
X39412Y-33339D01*
X39356Y-33310D01*
X39328Y-33254D01*
X39328Y-33029D01*
X39356Y-32973D01*
X39412Y-32945D01*
X39524Y-32945D01*
X39581Y-32973D01*
X39609Y-33029D01*
X39609Y-33085D01*
X39328Y-33142D01*
X40284Y-33310D02*
X40368Y-33339D01*
X40509Y-33339D01*
X40565Y-33310D01*
X40593Y-33282D01*
X40621Y-33226D01*
X40621Y-33170D01*
X40593Y-33114D01*
X40565Y-33085D01*
X40509Y-33057D01*
X40396Y-33029D01*
X40340Y-33001D01*
X40312Y-32973D01*
X40284Y-32917D01*
X40284Y-32860D01*
X40312Y-32804D01*
X40340Y-32776D01*
X40396Y-32748D01*
X40537Y-32748D01*
X40621Y-32776D01*
X40790Y-32945D02*
X41015Y-32945D01*
X40874Y-32748D02*
X40874Y-33254D01*
X40902Y-33310D01*
X40959Y-33339D01*
X41015Y-33339D01*
X41437Y-33310D02*
X41380Y-33339D01*
X41268Y-33339D01*
X41212Y-33310D01*
X41184Y-33254D01*
X41184Y-33029D01*
X41212Y-32973D01*
X41268Y-32945D01*
X41380Y-32945D01*
X41437Y-32973D01*
X41465Y-33029D01*
X41465Y-33085D01*
X41184Y-33142D01*
X41718Y-33339D02*
X41718Y-32945D01*
X41718Y-33057D02*
X41746Y-33001D01*
X41774Y-32973D01*
X41830Y-32945D01*
X41887Y-32945D01*
X42308Y-33310D02*
X42252Y-33339D01*
X42140Y-33339D01*
X42083Y-33310D01*
X42055Y-33254D01*
X42055Y-33029D01*
X42083Y-32973D01*
X42140Y-32945D01*
X42252Y-32945D01*
X42308Y-32973D01*
X42337Y-33029D01*
X42337Y-33085D01*
X42055Y-33142D01*
X42674Y-33339D02*
X42618Y-33310D01*
X42590Y-33282D01*
X42562Y-33226D01*
X42562Y-33057D01*
X42590Y-33001D01*
X42618Y-32973D01*
X42674Y-32945D01*
X42758Y-32945D01*
X42815Y-32973D01*
X42843Y-33001D01*
X42871Y-33057D01*
X42871Y-33226D01*
X42843Y-33282D01*
X42815Y-33310D01*
X42758Y-33339D01*
X42674Y-33339D01*
X56851Y-25871D02*
X56910Y-25533D01*
X56612Y-25633D02*
X57029Y-25215D01*
X57189Y-25374D01*
X57208Y-25434D01*
X57208Y-25474D01*
X57189Y-25533D01*
X57129Y-25593D01*
X57069Y-25613D01*
X57029Y-25613D01*
X56970Y-25593D01*
X56811Y-25434D01*
X57208Y-26189D02*
X57149Y-26170D01*
X57069Y-26090D01*
X57049Y-26030D01*
X57069Y-25971D01*
X57228Y-25812D01*
X57288Y-25792D01*
X57348Y-25812D01*
X57427Y-25891D01*
X57447Y-25951D01*
X57427Y-26010D01*
X57387Y-26050D01*
X57149Y-25891D01*
X57626Y-26090D02*
X57447Y-26468D01*
X57825Y-26289D01*
X58242Y-27263D02*
X58004Y-27025D01*
X58123Y-27144D02*
X58541Y-26726D01*
X58441Y-26746D01*
X58362Y-26746D01*
X58302Y-26726D01*
X58461Y-27402D02*
X58461Y-27442D01*
X58421Y-27442D01*
X58421Y-27402D01*
X58461Y-27402D01*
X58421Y-27442D01*
X59117Y-27303D02*
X59157Y-27343D01*
X59177Y-27402D01*
X59177Y-27442D01*
X59157Y-27502D01*
X59098Y-27601D01*
X58998Y-27701D01*
X58899Y-27760D01*
X58839Y-27780D01*
X58799Y-27780D01*
X58740Y-27760D01*
X58700Y-27721D01*
X58680Y-27661D01*
X58680Y-27621D01*
X58700Y-27561D01*
X58759Y-27462D01*
X58859Y-27363D01*
X58958Y-27303D01*
X59018Y-27283D01*
X59058Y-27283D01*
X59117Y-27303D01*
X57106Y-43597D02*
X56910Y-43597D01*
X56910Y-43906D02*
X56910Y-43316D01*
X57191Y-43316D01*
X57388Y-43878D02*
X57472Y-43906D01*
X57613Y-43906D01*
X57669Y-43878D01*
X57697Y-43850D01*
X57725Y-43794D01*
X57725Y-43738D01*
X57697Y-43681D01*
X57669Y-43653D01*
X57613Y-43625D01*
X57500Y-43597D01*
X57444Y-43569D01*
X57416Y-43541D01*
X57388Y-43484D01*
X57388Y-43428D01*
X57416Y-43372D01*
X57444Y-43344D01*
X57500Y-43316D01*
X57641Y-43316D01*
X57725Y-43344D01*
X57950Y-43372D02*
X57978Y-43344D01*
X58034Y-43316D01*
X58175Y-43316D01*
X58231Y-43344D01*
X58259Y-43372D01*
X58288Y-43428D01*
X58288Y-43484D01*
X58259Y-43569D01*
X57922Y-43906D01*
X58288Y-43906D01*
X57106Y-42597D02*
X56910Y-42597D01*
X56910Y-42906D02*
X56910Y-42316D01*
X57191Y-42316D01*
X57388Y-42878D02*
X57472Y-42906D01*
X57613Y-42906D01*
X57669Y-42878D01*
X57697Y-42850D01*
X57725Y-42794D01*
X57725Y-42738D01*
X57697Y-42681D01*
X57669Y-42653D01*
X57613Y-42625D01*
X57500Y-42597D01*
X57444Y-42569D01*
X57416Y-42541D01*
X57388Y-42484D01*
X57388Y-42428D01*
X57416Y-42372D01*
X57444Y-42344D01*
X57500Y-42316D01*
X57641Y-42316D01*
X57725Y-42344D01*
X58288Y-42906D02*
X57950Y-42906D01*
X58119Y-42906D02*
X58119Y-42316D01*
X58063Y-42400D01*
X58006Y-42456D01*
X57950Y-42484D01*
X57121Y-41978D02*
X57205Y-42006D01*
X57346Y-42006D01*
X57402Y-41978D01*
X57430Y-41950D01*
X57458Y-41894D01*
X57458Y-41838D01*
X57430Y-41781D01*
X57402Y-41753D01*
X57346Y-41725D01*
X57233Y-41697D01*
X57177Y-41669D01*
X57149Y-41641D01*
X57121Y-41584D01*
X57121Y-41528D01*
X57149Y-41472D01*
X57177Y-41444D01*
X57233Y-41416D01*
X57374Y-41416D01*
X57458Y-41444D01*
X58049Y-42006D02*
X57852Y-41725D01*
X57711Y-42006D02*
X57711Y-41416D01*
X57936Y-41416D01*
X57992Y-41444D01*
X58020Y-41472D01*
X58049Y-41528D01*
X58049Y-41613D01*
X58020Y-41669D01*
X57992Y-41697D01*
X57936Y-41725D01*
X57711Y-41725D01*
X56980Y-40950D02*
X56952Y-40978D01*
X56867Y-41006D01*
X56811Y-41006D01*
X56727Y-40978D01*
X56671Y-40922D01*
X56642Y-40866D01*
X56614Y-40753D01*
X56614Y-40669D01*
X56642Y-40556D01*
X56671Y-40500D01*
X56727Y-40444D01*
X56811Y-40416D01*
X56867Y-40416D01*
X56952Y-40444D01*
X56980Y-40472D01*
X57205Y-40978D02*
X57289Y-41006D01*
X57430Y-41006D01*
X57486Y-40978D01*
X57514Y-40950D01*
X57542Y-40894D01*
X57542Y-40838D01*
X57514Y-40781D01*
X57486Y-40753D01*
X57430Y-40725D01*
X57317Y-40697D01*
X57261Y-40669D01*
X57233Y-40641D01*
X57205Y-40584D01*
X57205Y-40528D01*
X57233Y-40472D01*
X57261Y-40444D01*
X57317Y-40416D01*
X57458Y-40416D01*
X57542Y-40444D01*
X57795Y-40697D02*
X57992Y-40697D01*
X58077Y-41006D02*
X57795Y-41006D01*
X57795Y-40416D01*
X58077Y-40416D01*
X58611Y-41006D02*
X58330Y-41006D01*
X58330Y-40416D01*
X43346Y-30267D02*
X43936Y-30341D01*
X43739Y-30598D02*
X43346Y-30548D01*
X43683Y-30591D02*
X43711Y-30622D01*
X43739Y-30682D01*
X43739Y-30766D01*
X43711Y-30819D01*
X43655Y-30840D01*
X43346Y-30801D01*
X43739Y-31132D02*
X43149Y-31058D01*
X43711Y-31128D02*
X43739Y-31188D01*
X43739Y-31301D01*
X43711Y-31353D01*
X43683Y-31378D01*
X43627Y-31399D01*
X43458Y-31378D01*
X43402Y-31343D01*
X43374Y-31311D01*
X43346Y-31251D01*
X43346Y-31139D01*
X43374Y-31086D01*
X43739Y-31919D02*
X43346Y-31870D01*
X43739Y-31666D02*
X43430Y-31628D01*
X43374Y-31649D01*
X43346Y-31701D01*
X43346Y-31786D01*
X43374Y-31845D01*
X43402Y-31877D01*
X43739Y-32116D02*
X43739Y-32341D01*
X43936Y-32225D02*
X43430Y-32162D01*
X43374Y-32183D01*
X43346Y-32236D01*
X43346Y-32292D01*
X45933Y-62668D02*
X45933Y-62556D01*
X45961Y-62503D01*
X46017Y-62454D01*
X46130Y-62440D01*
X46327Y-62465D01*
X46439Y-62507D01*
X46495Y-62570D01*
X46524Y-62630D01*
X46524Y-62742D01*
X46495Y-62795D01*
X46439Y-62844D01*
X46327Y-62858D01*
X46130Y-62834D01*
X46017Y-62791D01*
X45961Y-62728D01*
X45933Y-62668D01*
X46130Y-61934D02*
X46524Y-61983D01*
X46130Y-62187D02*
X46439Y-62226D01*
X46495Y-62204D01*
X46524Y-62152D01*
X46524Y-62067D01*
X46495Y-62008D01*
X46467Y-61976D01*
X46130Y-61737D02*
X46130Y-61512D01*
X45933Y-61628D02*
X46439Y-61691D01*
X46495Y-61670D01*
X46524Y-61617D01*
X46524Y-61561D01*
X46130Y-61315D02*
X46720Y-61389D01*
X46158Y-61319D02*
X46130Y-61259D01*
X46130Y-61146D01*
X46158Y-61094D01*
X46186Y-61069D01*
X46242Y-61048D01*
X46411Y-61069D01*
X46467Y-61104D01*
X46495Y-61136D01*
X46524Y-61196D01*
X46524Y-61308D01*
X46495Y-61361D01*
X46130Y-60528D02*
X46524Y-60577D01*
X46130Y-60781D02*
X46439Y-60819D01*
X46495Y-60798D01*
X46524Y-60746D01*
X46524Y-60661D01*
X46495Y-60602D01*
X46467Y-60570D01*
X46130Y-60331D02*
X46130Y-60106D01*
X45933Y-60222D02*
X46439Y-60285D01*
X46495Y-60264D01*
X46524Y-60211D01*
X46524Y-60155D01*
G54D14*
X47046Y-36367D02*
G75*
G03X47046Y-36367I-111J0D01*
G74*
G01*
X48685Y-34867D02*
X46685Y-34867D01*
X46685Y-34867D02*
X46685Y-36667D01*
X46685Y-36667D02*
X48685Y-36667D01*
X48685Y-36667D02*
X48685Y-34867D01*
G54D15*
X53185Y-35067D02*
X50185Y-35067D01*
X50185Y-36467D02*
X53185Y-36467D01*
X53185Y-35067D02*
X53185Y-36467D01*
G54D16*
X50185Y-36467D02*
X50185Y-35067D01*
G54D14*
X50526Y-36267D02*
G75*
G03X50526Y-36267I-141J0D01*
G74*
G01*
X50185Y-35517D02*
X50485Y-35517D01*
X50485Y-35517D02*
X50485Y-36017D01*
X50485Y-36017D02*
X50185Y-36017D01*
X44885Y-54797D02*
X44885Y-53237D01*
X44885Y-53237D02*
X42985Y-53237D01*
X42985Y-53237D02*
X42985Y-54797D01*
X42985Y-54797D02*
X44885Y-54797D01*
X44685Y-54797D02*
X44685Y-55227D01*
X44185Y-54797D02*
X44185Y-55227D01*
X43685Y-54797D02*
X43685Y-55227D01*
X43185Y-55227D02*
X43185Y-54797D01*
X43185Y-53237D02*
X43185Y-52807D01*
X43685Y-52807D02*
X43685Y-53237D01*
X44185Y-52807D02*
X44185Y-53237D01*
X44685Y-52807D02*
X44685Y-53237D01*
X44781Y-53527D02*
G75*
G03X44781Y-53527I-186J0D01*
G74*
G01*
X26435Y-34067D02*
X26335Y-34067D01*
X26335Y-34067D02*
X26335Y-34967D01*
X26335Y-34967D02*
X26435Y-34967D01*
X26435Y-34067D02*
X26435Y-34967D01*
X26435Y-34967D02*
X27085Y-34967D01*
X27785Y-34067D02*
X28435Y-34067D01*
X28435Y-34067D02*
X28435Y-34967D01*
X28435Y-34967D02*
X27785Y-34967D01*
X27085Y-34067D02*
X26435Y-34067D01*
X45685Y-39267D02*
X45785Y-39267D01*
X45785Y-39267D02*
X45785Y-38367D01*
X45785Y-38367D02*
X45685Y-38367D01*
X45685Y-39267D02*
X45685Y-38367D01*
X45685Y-38367D02*
X45035Y-38367D01*
X44335Y-39267D02*
X43685Y-39267D01*
X43685Y-39267D02*
X43685Y-38367D01*
X43685Y-38367D02*
X44335Y-38367D01*
X45035Y-39267D02*
X45685Y-39267D01*
X49685Y-43317D02*
X49585Y-43317D01*
X49585Y-43317D02*
X49585Y-44217D01*
X49585Y-44217D02*
X49685Y-44217D01*
X49685Y-43317D02*
X49685Y-44217D01*
X49685Y-44217D02*
X50335Y-44217D01*
X51035Y-43317D02*
X51685Y-43317D01*
X51685Y-43317D02*
X51685Y-44217D01*
X51685Y-44217D02*
X51035Y-44217D01*
X50335Y-43317D02*
X49685Y-43317D01*
X35185Y-34067D02*
X35085Y-34067D01*
X35085Y-34067D02*
X35085Y-34967D01*
X35085Y-34967D02*
X35185Y-34967D01*
X35185Y-34067D02*
X35185Y-34967D01*
X35185Y-34967D02*
X35835Y-34967D01*
X36535Y-34067D02*
X37185Y-34067D01*
X37185Y-34067D02*
X37185Y-34967D01*
X37185Y-34967D02*
X36535Y-34967D01*
X35835Y-34067D02*
X35185Y-34067D01*
X53935Y-33317D02*
X53835Y-33317D01*
X53835Y-33317D02*
X53835Y-34217D01*
X53835Y-34217D02*
X53935Y-34217D01*
X53935Y-33317D02*
X53935Y-34217D01*
X53935Y-34217D02*
X54585Y-34217D01*
X55285Y-33317D02*
X55935Y-33317D01*
X55935Y-33317D02*
X55935Y-34217D01*
X55935Y-34217D02*
X55285Y-34217D01*
X54585Y-33317D02*
X53935Y-33317D01*
X53935Y-34317D02*
X53835Y-34317D01*
X53835Y-34317D02*
X53835Y-35217D01*
X53835Y-35217D02*
X53935Y-35217D01*
X53935Y-34317D02*
X53935Y-35217D01*
X53935Y-35217D02*
X54585Y-35217D01*
X55285Y-34317D02*
X55935Y-34317D01*
X55935Y-34317D02*
X55935Y-35217D01*
X55935Y-35217D02*
X55285Y-35217D01*
X54585Y-34317D02*
X53935Y-34317D01*
X37685Y-40467D02*
X37785Y-40467D01*
X37785Y-40467D02*
X37785Y-39567D01*
X37785Y-39567D02*
X37685Y-39567D01*
X37685Y-40467D02*
X37685Y-39567D01*
X37685Y-39567D02*
X37035Y-39567D01*
X36335Y-40467D02*
X35685Y-40467D01*
X35685Y-40467D02*
X35685Y-39567D01*
X35685Y-39567D02*
X36335Y-39567D01*
X37035Y-40467D02*
X37685Y-40467D01*
X47135Y-39017D02*
X47135Y-38917D01*
X47135Y-38917D02*
X46235Y-38917D01*
X46235Y-38917D02*
X46235Y-39017D01*
X47135Y-39017D02*
X46235Y-39017D01*
X46235Y-39017D02*
X46235Y-39667D01*
X47135Y-40367D02*
X47135Y-41017D01*
X47135Y-41017D02*
X46235Y-41017D01*
X46235Y-41017D02*
X46235Y-40367D01*
X47135Y-39667D02*
X47135Y-39017D01*
X50135Y-39017D02*
X50135Y-38917D01*
X50135Y-38917D02*
X49235Y-38917D01*
X49235Y-38917D02*
X49235Y-39017D01*
X50135Y-39017D02*
X49235Y-39017D01*
X49235Y-39017D02*
X49235Y-39667D01*
X50135Y-40367D02*
X50135Y-41017D01*
X50135Y-41017D02*
X49235Y-41017D01*
X49235Y-41017D02*
X49235Y-40367D01*
X50135Y-39667D02*
X50135Y-39017D01*
X53935Y-37317D02*
X53935Y-38217D01*
X53935Y-38217D02*
X54585Y-38217D01*
X55285Y-37317D02*
X55935Y-37317D01*
X55935Y-37317D02*
X55935Y-38217D01*
X55935Y-38217D02*
X55285Y-38217D01*
X54585Y-37317D02*
X53935Y-37317D01*
X30935Y-34067D02*
X30935Y-34967D01*
X30935Y-34967D02*
X31585Y-34967D01*
X32285Y-34067D02*
X32935Y-34067D01*
X32935Y-34067D02*
X32935Y-34967D01*
X32935Y-34967D02*
X32285Y-34967D01*
X31585Y-34067D02*
X30935Y-34067D01*
X49135Y-39017D02*
X48235Y-39017D01*
X48235Y-39017D02*
X48235Y-39667D01*
X49135Y-40367D02*
X49135Y-41017D01*
X49135Y-41017D02*
X48235Y-41017D01*
X48235Y-41017D02*
X48235Y-40367D01*
X49135Y-39667D02*
X49135Y-39017D01*
X48135Y-39017D02*
X47235Y-39017D01*
X47235Y-39017D02*
X47235Y-39667D01*
X48135Y-40367D02*
X48135Y-41017D01*
X48135Y-41017D02*
X47235Y-41017D01*
X47235Y-41017D02*
X47235Y-40367D01*
X48135Y-39667D02*
X48135Y-39017D01*
X53935Y-35317D02*
X53935Y-36217D01*
X53935Y-36217D02*
X54585Y-36217D01*
X55285Y-35317D02*
X55935Y-35317D01*
X55935Y-35317D02*
X55935Y-36217D01*
X55935Y-36217D02*
X55285Y-36217D01*
X54585Y-35317D02*
X53935Y-35317D01*
X53935Y-36317D02*
X53935Y-37217D01*
X53935Y-37217D02*
X54585Y-37217D01*
X55285Y-36317D02*
X55935Y-36317D01*
X55935Y-36317D02*
X55935Y-37217D01*
X55935Y-37217D02*
X55285Y-37217D01*
X54585Y-36317D02*
X53935Y-36317D01*
X45685Y-38267D02*
X45685Y-37367D01*
X45685Y-37367D02*
X45035Y-37367D01*
X44335Y-38267D02*
X43685Y-38267D01*
X43685Y-38267D02*
X43685Y-37367D01*
X43685Y-37367D02*
X44335Y-37367D01*
X45035Y-38267D02*
X45685Y-38267D01*
X53935Y-38317D02*
X53935Y-39217D01*
X53935Y-39217D02*
X54585Y-39217D01*
X55285Y-38317D02*
X55935Y-38317D01*
X55935Y-38317D02*
X55935Y-39217D01*
X55935Y-39217D02*
X55285Y-39217D01*
X54585Y-38317D02*
X53935Y-38317D01*
X42485Y-61767D02*
X43385Y-61767D01*
X43385Y-61767D02*
X43385Y-61117D01*
X42485Y-60417D02*
X42485Y-59767D01*
X42485Y-59767D02*
X43385Y-59767D01*
X43385Y-59767D02*
X43385Y-60417D01*
X42485Y-61117D02*
X42485Y-61767D01*
X42435Y-58567D02*
X42435Y-59467D01*
X42435Y-59467D02*
X43085Y-59467D01*
X43785Y-58567D02*
X44435Y-58567D01*
X44435Y-58567D02*
X44435Y-59467D01*
X44435Y-59467D02*
X43785Y-59467D01*
X43085Y-58567D02*
X42435Y-58567D01*
X44385Y-59767D02*
X43485Y-59767D01*
X43485Y-59767D02*
X43485Y-60417D01*
X44385Y-61117D02*
X44385Y-61767D01*
X44385Y-61767D02*
X43485Y-61767D01*
X43485Y-61767D02*
X43485Y-61117D01*
X44385Y-60417D02*
X44385Y-59767D01*
X39485Y-61767D02*
X40385Y-61767D01*
X40385Y-61767D02*
X40385Y-61117D01*
X39485Y-60417D02*
X39485Y-59767D01*
X39485Y-59767D02*
X40385Y-59767D01*
X40385Y-59767D02*
X40385Y-60417D01*
X39485Y-61117D02*
X39485Y-61767D01*
X39435Y-58567D02*
X39435Y-59467D01*
X39435Y-59467D02*
X40085Y-59467D01*
X40785Y-58567D02*
X41435Y-58567D01*
X41435Y-58567D02*
X41435Y-59467D01*
X41435Y-59467D02*
X40785Y-59467D01*
X40085Y-58567D02*
X39435Y-58567D01*
X41385Y-59767D02*
X40485Y-59767D01*
X40485Y-59767D02*
X40485Y-60417D01*
X41385Y-61117D02*
X41385Y-61767D01*
X41385Y-61767D02*
X40485Y-61767D01*
X40485Y-61767D02*
X40485Y-61117D01*
X41385Y-60417D02*
X41385Y-59767D01*
X26435Y-40317D02*
X26435Y-41217D01*
X26435Y-41217D02*
X27085Y-41217D01*
X27785Y-40317D02*
X28435Y-40317D01*
X28435Y-40317D02*
X28435Y-41217D01*
X28435Y-41217D02*
X27785Y-41217D01*
X27085Y-40317D02*
X26435Y-40317D01*
X32185Y-39717D02*
X32185Y-38817D01*
X32185Y-38817D02*
X31535Y-38817D01*
X30835Y-39717D02*
X30185Y-39717D01*
X30185Y-39717D02*
X30185Y-38817D01*
X30185Y-38817D02*
X30835Y-38817D01*
X31535Y-39717D02*
X32185Y-39717D01*
X33185Y-41967D02*
X33185Y-41067D01*
X33185Y-41067D02*
X32535Y-41067D01*
X31835Y-41967D02*
X31185Y-41967D01*
X31185Y-41967D02*
X31185Y-41067D01*
X31185Y-41067D02*
X31835Y-41067D01*
X32535Y-41967D02*
X33185Y-41967D01*
X33185Y-40967D02*
X33185Y-40067D01*
X33185Y-40067D02*
X32535Y-40067D01*
X31835Y-40967D02*
X31185Y-40967D01*
X31185Y-40967D02*
X31185Y-40067D01*
X31185Y-40067D02*
X31835Y-40067D01*
X32535Y-40967D02*
X33185Y-40967D01*
X28685Y-34067D02*
X28685Y-34967D01*
X28685Y-34967D02*
X29335Y-34967D01*
X30035Y-34067D02*
X30685Y-34067D01*
X30685Y-34067D02*
X30685Y-34967D01*
X30685Y-34967D02*
X30035Y-34967D01*
X29335Y-34067D02*
X28685Y-34067D01*
X34435Y-39717D02*
X34435Y-38817D01*
X34435Y-38817D02*
X33785Y-38817D01*
X33085Y-39717D02*
X32435Y-39717D01*
X32435Y-39717D02*
X32435Y-38817D01*
X32435Y-38817D02*
X33085Y-38817D01*
X33785Y-39717D02*
X34435Y-39717D01*
X35735Y-42767D02*
X36635Y-42767D01*
X36635Y-42767D02*
X36635Y-42117D01*
X35735Y-41417D02*
X35735Y-40767D01*
X35735Y-40767D02*
X36635Y-40767D01*
X36635Y-40767D02*
X36635Y-41417D01*
X35735Y-42117D02*
X35735Y-42767D01*
X36735Y-42767D02*
X37635Y-42767D01*
X37635Y-42767D02*
X37635Y-42117D01*
X36735Y-41417D02*
X36735Y-40767D01*
X36735Y-40767D02*
X37635Y-40767D01*
X37635Y-40767D02*
X37635Y-41417D01*
X36735Y-42117D02*
X36735Y-42767D01*
X26435Y-49317D02*
X26435Y-50217D01*
X26435Y-50217D02*
X27085Y-50217D01*
X27785Y-49317D02*
X28435Y-49317D01*
X28435Y-49317D02*
X28435Y-50217D01*
X28435Y-50217D02*
X27785Y-50217D01*
X27085Y-49317D02*
X26435Y-49317D01*
X40635Y-48017D02*
X39735Y-48017D01*
X39735Y-48017D02*
X39735Y-48667D01*
X40635Y-49367D02*
X40635Y-50017D01*
X40635Y-50017D02*
X39735Y-50017D01*
X39735Y-50017D02*
X39735Y-49367D01*
X40635Y-48667D02*
X40635Y-48017D01*
X39635Y-48017D02*
X38735Y-48017D01*
X38735Y-48017D02*
X38735Y-48667D01*
X39635Y-49367D02*
X39635Y-50017D01*
X39635Y-50017D02*
X38735Y-50017D01*
X38735Y-50017D02*
X38735Y-49367D01*
X39635Y-48667D02*
X39635Y-48017D01*
X35635Y-48017D02*
X34735Y-48017D01*
X34735Y-48017D02*
X34735Y-48667D01*
X35635Y-49367D02*
X35635Y-50017D01*
X35635Y-50017D02*
X34735Y-50017D01*
X34735Y-50017D02*
X34735Y-49367D01*
X35635Y-48667D02*
X35635Y-48017D01*
X48635Y-48017D02*
X47735Y-48017D01*
X47735Y-48017D02*
X47735Y-48667D01*
X48635Y-49367D02*
X48635Y-50017D01*
X48635Y-50017D02*
X47735Y-50017D01*
X47735Y-50017D02*
X47735Y-49367D01*
X48635Y-48667D02*
X48635Y-48017D01*
X44635Y-48017D02*
X43735Y-48017D01*
X43735Y-48017D02*
X43735Y-48667D01*
X44635Y-49367D02*
X44635Y-50017D01*
X44635Y-50017D02*
X43735Y-50017D01*
X43735Y-50017D02*
X43735Y-49367D01*
X44635Y-48667D02*
X44635Y-48017D01*
X37435Y-34067D02*
X37435Y-34967D01*
X37435Y-34967D02*
X38085Y-34967D01*
X38785Y-34067D02*
X39435Y-34067D01*
X39435Y-34067D02*
X39435Y-34967D01*
X39435Y-34967D02*
X38785Y-34967D01*
X38085Y-34067D02*
X37435Y-34067D01*
X35635Y-40767D02*
X34735Y-40767D01*
X34735Y-40767D02*
X34735Y-41417D01*
X35635Y-42117D02*
X35635Y-42767D01*
X35635Y-42767D02*
X34735Y-42767D01*
X34735Y-42767D02*
X34735Y-42117D01*
X35635Y-41417D02*
X35635Y-40767D01*
X39685Y-34067D02*
X39685Y-34967D01*
X39685Y-34967D02*
X40335Y-34967D01*
X41035Y-34067D02*
X41685Y-34067D01*
X41685Y-34067D02*
X41685Y-34967D01*
X41685Y-34967D02*
X41035Y-34967D01*
X40335Y-34067D02*
X39685Y-34067D01*
G54D16*
X60785Y-42167D02*
X60785Y-43167D01*
X60785Y-43167D02*
X58785Y-43167D01*
X58785Y-43167D02*
X58785Y-42167D01*
X58785Y-42167D02*
X60785Y-42167D01*
X26450Y-36500D02*
X26450Y-35500D01*
X26450Y-35500D02*
X28450Y-35500D01*
X28450Y-35500D02*
X28450Y-36500D01*
X28450Y-36500D02*
X26450Y-36500D01*
X35200Y-36250D02*
X35200Y-35250D01*
X35200Y-35250D02*
X37200Y-35250D01*
X37200Y-35250D02*
X37200Y-36250D01*
X37200Y-36250D02*
X35200Y-36250D01*
X60785Y-40167D02*
X60785Y-41167D01*
X60785Y-41167D02*
X58785Y-41167D01*
X58785Y-41167D02*
X58785Y-40167D01*
X58785Y-40167D02*
X60785Y-40167D01*
X60785Y-41167D02*
X60785Y-42167D01*
X60785Y-42167D02*
X58785Y-42167D01*
X58785Y-42167D02*
X58785Y-41167D01*
X58785Y-41167D02*
X60785Y-41167D01*
X60785Y-43167D02*
X60785Y-44167D01*
X60785Y-44167D02*
X58785Y-44167D01*
X58785Y-44167D02*
X58785Y-43167D01*
X58785Y-43167D02*
X60785Y-43167D01*
G54D10*
X55185Y-31267D02*
X51185Y-31267D01*
X58185Y-31267D02*
X62185Y-31267D01*
X62185Y-32267D02*
X62185Y-30267D01*
X62185Y-30267D02*
X58185Y-30267D01*
X58185Y-30267D02*
X58185Y-31267D01*
X58185Y-31267D02*
X55185Y-31267D01*
X54185Y-31267D02*
X54185Y-30267D01*
X54185Y-30267D02*
X50185Y-30267D01*
X50185Y-30267D02*
X50185Y-31267D01*
X51185Y-31267D02*
X46185Y-31267D01*
X46185Y-31267D02*
X46185Y-32267D01*
X46185Y-32267D02*
X62185Y-32267D01*
X55185Y-52267D02*
X51185Y-52267D01*
X58185Y-52267D02*
X62185Y-52267D01*
X62185Y-53267D02*
X62185Y-51267D01*
X62185Y-51267D02*
X58185Y-51267D01*
X58185Y-51267D02*
X58185Y-52267D01*
X58185Y-52267D02*
X55185Y-52267D01*
X54185Y-52267D02*
X54185Y-51267D01*
X54185Y-51267D02*
X50185Y-51267D01*
X50185Y-51267D02*
X50185Y-52267D01*
X51185Y-52267D02*
X46185Y-52267D01*
X46185Y-52267D02*
X46185Y-53267D01*
X46185Y-53267D02*
X62185Y-53267D01*
X39370Y-30610D02*
X38188Y-30314D01*
X38188Y-30610D02*
X36220Y-30610D01*
X41338Y-30610D02*
X39370Y-30610D01*
X38188Y-28149D02*
X38090Y-28149D01*
X38090Y-28149D02*
X36220Y-28149D01*
X41338Y-28149D02*
X39370Y-28149D01*
X39370Y-28149D02*
X38188Y-27755D01*
X38188Y-25885D02*
X36220Y-25885D01*
X41338Y-25885D02*
X39370Y-25885D01*
X39370Y-25885D02*
X38188Y-25393D01*
X34744Y-32578D02*
X34744Y-23129D01*
X34744Y-23129D02*
X34842Y-23129D01*
X41338Y-20866D02*
X41338Y-23129D01*
X36417Y-20866D02*
X36417Y-23129D01*
X37992Y-20866D02*
X37992Y-23129D01*
X39665Y-20866D02*
X39665Y-23129D01*
X40255Y-20078D02*
X37696Y-20078D01*
X37696Y-20078D02*
X37696Y-20866D01*
X37696Y-20866D02*
X40255Y-20866D01*
X40255Y-20866D02*
X40255Y-20078D01*
X41535Y-23129D02*
X41535Y-20866D01*
X41535Y-20866D02*
X36220Y-20866D01*
X36220Y-20866D02*
X36220Y-23129D01*
X42913Y-23129D02*
X42913Y-32578D01*
X42913Y-32578D02*
X34744Y-32578D01*
X34842Y-23129D02*
X42913Y-23129D01*
X30708Y-30610D02*
X29527Y-30314D01*
X29527Y-30610D02*
X27559Y-30610D01*
X32677Y-30610D02*
X30708Y-30610D01*
X29527Y-28149D02*
X29429Y-28149D01*
X29429Y-28149D02*
X27559Y-28149D01*
X32677Y-28149D02*
X30708Y-28149D01*
X30708Y-28149D02*
X29527Y-27755D01*
X29527Y-25885D02*
X27559Y-25885D01*
X32677Y-25885D02*
X30708Y-25885D01*
X30708Y-25885D02*
X29527Y-25393D01*
X26082Y-32578D02*
X26082Y-23129D01*
X26082Y-23129D02*
X26181Y-23129D01*
X32677Y-20866D02*
X32677Y-23129D01*
X27755Y-20866D02*
X27755Y-23129D01*
X29330Y-20866D02*
X29330Y-23129D01*
X31003Y-20866D02*
X31003Y-23129D01*
X31594Y-20078D02*
X29035Y-20078D01*
X29035Y-20078D02*
X29035Y-20866D01*
X29035Y-20866D02*
X31594Y-20866D01*
X31594Y-20866D02*
X31594Y-20078D01*
X32874Y-23129D02*
X32874Y-20866D01*
X32874Y-20866D02*
X27559Y-20866D01*
X27559Y-20866D02*
X27559Y-23129D01*
X34251Y-23129D02*
X34251Y-32578D01*
X34251Y-32578D02*
X26082Y-32578D01*
X26181Y-23129D02*
X34251Y-23129D01*
X59185Y-58216D02*
X60366Y-58511D01*
X60366Y-58216D02*
X62334Y-58216D01*
X57216Y-58216D02*
X59185Y-58216D01*
X60366Y-60677D02*
X60464Y-60677D01*
X60464Y-60677D02*
X62334Y-60677D01*
X57216Y-60677D02*
X59185Y-60677D01*
X59185Y-60677D02*
X60366Y-61070D01*
X60366Y-62940D02*
X62334Y-62940D01*
X57216Y-62940D02*
X59185Y-62940D01*
X59185Y-62940D02*
X60366Y-63433D01*
X63811Y-56248D02*
X63811Y-65696D01*
X63811Y-65696D02*
X63712Y-65696D01*
X57216Y-67960D02*
X57216Y-65696D01*
X62137Y-67960D02*
X62137Y-65696D01*
X60562Y-67960D02*
X60562Y-65696D01*
X58889Y-67960D02*
X58889Y-65696D01*
X58299Y-68748D02*
X60858Y-68748D01*
X60858Y-68748D02*
X60858Y-67960D01*
X60858Y-67960D02*
X58299Y-67960D01*
X58299Y-67960D02*
X58299Y-68748D01*
X57019Y-65696D02*
X57019Y-67960D01*
X57019Y-67960D02*
X62334Y-67960D01*
X62334Y-67960D02*
X62334Y-65696D01*
X55641Y-65696D02*
X55641Y-56248D01*
X55641Y-56248D02*
X63811Y-56248D01*
X63712Y-65696D02*
X55641Y-65696D01*
X50685Y-58216D02*
X51866Y-58511D01*
X51866Y-58216D02*
X53834Y-58216D01*
X48716Y-58216D02*
X50685Y-58216D01*
X51866Y-60677D02*
X51964Y-60677D01*
X51964Y-60677D02*
X53834Y-60677D01*
X48716Y-60677D02*
X50685Y-60677D01*
X50685Y-60677D02*
X51866Y-61070D01*
X51866Y-62940D02*
X53834Y-62940D01*
X48716Y-62940D02*
X50685Y-62940D01*
X50685Y-62940D02*
X51866Y-63433D01*
X55311Y-56248D02*
X55311Y-65696D01*
X55311Y-65696D02*
X55212Y-65696D01*
X48716Y-67960D02*
X48716Y-65696D01*
X53637Y-67960D02*
X53637Y-65696D01*
X52062Y-67960D02*
X52062Y-65696D01*
X50389Y-67960D02*
X50389Y-65696D01*
X49799Y-68748D02*
X52358Y-68748D01*
X52358Y-68748D02*
X52358Y-67960D01*
X52358Y-67960D02*
X49799Y-67960D01*
X49799Y-67960D02*
X49799Y-68748D01*
X48519Y-65696D02*
X48519Y-67960D01*
X48519Y-67960D02*
X53834Y-67960D01*
X53834Y-67960D02*
X53834Y-65696D01*
X47141Y-65696D02*
X47141Y-56248D01*
X47141Y-56248D02*
X55311Y-56248D01*
X55212Y-65696D02*
X47141Y-65696D01*
G54D17*
X49185Y-46267D02*
X34185Y-46267D01*
X34185Y-46267D02*
X34185Y-44267D01*
X34185Y-44267D02*
X49185Y-44267D01*
X49185Y-44267D02*
X49185Y-46267D01*
X49185Y-45767D02*
X48685Y-45767D01*
X48685Y-45767D02*
X48685Y-44767D01*
X48685Y-44767D02*
X49185Y-44767D01*
G54D10*
X53185Y-54267D02*
X57185Y-54267D01*
X50185Y-54267D02*
X46185Y-54267D01*
X46185Y-53267D02*
X46185Y-55267D01*
X46185Y-55267D02*
X50185Y-55267D01*
X50185Y-55267D02*
X50185Y-54267D01*
X50185Y-54267D02*
X53185Y-54267D01*
X54185Y-54267D02*
X54185Y-55267D01*
X54185Y-55267D02*
X58185Y-55267D01*
X58185Y-55267D02*
X58185Y-54267D01*
X57185Y-54267D02*
X62185Y-54267D01*
X62185Y-54267D02*
X62185Y-53267D01*
X62185Y-53267D02*
X46185Y-53267D01*
G54D18*
G36*
X40185Y-57534D02*
X34401Y-57534D01*
X28618Y-57534D01*
X28618Y-56734D01*
X28618Y-55934D01*
X34401Y-55934D01*
X40185Y-55934D01*
X40185Y-56734D01*
X40185Y-57534D01*
X40185Y-57534D01*
X40185Y-57534D01*
G37*
G36*
X30041Y-55317D02*
X30028Y-55331D01*
X30002Y-55334D01*
X29988Y-55334D01*
X29929Y-55304D01*
X29904Y-55251D01*
X29885Y-55201D01*
X29846Y-55176D01*
X29808Y-55172D01*
X29808Y-55008D01*
X29799Y-54959D01*
X29755Y-54829D01*
X29723Y-54762D01*
X29700Y-54753D01*
X29693Y-54767D01*
X29669Y-54832D01*
X29634Y-54920D01*
X29632Y-54926D01*
X29588Y-55034D01*
X29705Y-55034D01*
X29782Y-55029D01*
X29808Y-55008D01*
X29808Y-55172D01*
X29768Y-55168D01*
X29716Y-55167D01*
X29614Y-55171D01*
X29558Y-55189D01*
X29527Y-55230D01*
X29518Y-55251D01*
X29469Y-55317D01*
X29421Y-55334D01*
X29394Y-55330D01*
X29383Y-55310D01*
X29387Y-55265D01*
X29411Y-55184D01*
X29454Y-55056D01*
X29486Y-54966D01*
X29538Y-54820D01*
X29580Y-54698D01*
X29608Y-54614D01*
X29618Y-54580D01*
X29646Y-54571D01*
X29707Y-54573D01*
X29748Y-54584D01*
X29782Y-54611D01*
X29816Y-54666D01*
X29857Y-54760D01*
X29911Y-54904D01*
X29922Y-54934D01*
X29981Y-55098D01*
X30019Y-55210D01*
X30039Y-55280D01*
X30041Y-55317D01*
X30041Y-55317D01*
X30041Y-55317D01*
G37*
G36*
X30654Y-55334D02*
X30461Y-55333D01*
X30345Y-55327D01*
X30249Y-55312D01*
X30210Y-55298D01*
X30178Y-55267D01*
X30160Y-55210D01*
X30152Y-55112D01*
X30151Y-55013D01*
X30153Y-54885D01*
X30160Y-54811D01*
X30176Y-54778D01*
X30204Y-54772D01*
X30210Y-54773D01*
X30242Y-54792D01*
X30262Y-54841D01*
X30274Y-54935D01*
X30278Y-55009D01*
X30288Y-55234D01*
X30403Y-55234D01*
X30518Y-55234D01*
X30518Y-54998D01*
X30520Y-54875D01*
X30528Y-54805D01*
X30545Y-54775D01*
X30576Y-54773D01*
X30606Y-54789D01*
X30625Y-54831D01*
X30637Y-54913D01*
X30644Y-55047D01*
X30644Y-55059D01*
X30654Y-55334D01*
X30654Y-55334D01*
X30654Y-55334D01*
G37*
G36*
X31318Y-55334D02*
X31185Y-55333D01*
X31185Y-55234D01*
X31185Y-55048D01*
X31185Y-54863D01*
X31076Y-54873D01*
X31013Y-54883D01*
X30980Y-54908D01*
X30965Y-54967D01*
X30958Y-55059D01*
X30948Y-55234D01*
X31066Y-55234D01*
X31185Y-55234D01*
X31185Y-55333D01*
X31126Y-55333D01*
X31010Y-55327D01*
X30915Y-55311D01*
X30876Y-55298D01*
X30842Y-55262D01*
X30824Y-55196D01*
X30818Y-55082D01*
X30818Y-55054D01*
X30821Y-54937D01*
X30833Y-54867D01*
X30861Y-54827D01*
X30898Y-54802D01*
X30991Y-54775D01*
X31082Y-54774D01*
X31148Y-54779D01*
X31177Y-54757D01*
X31184Y-54691D01*
X31185Y-54661D01*
X31191Y-54576D01*
X31215Y-54540D01*
X31251Y-54534D01*
X31279Y-54538D01*
X31298Y-54557D01*
X31310Y-54602D01*
X31315Y-54685D01*
X31318Y-54816D01*
X31318Y-54934D01*
X31318Y-55334D01*
X31318Y-55334D01*
X31318Y-55334D01*
G37*
G36*
X31581Y-55194D02*
X31578Y-55276D01*
X31566Y-55317D01*
X31543Y-55332D01*
X31519Y-55334D01*
X31486Y-55329D01*
X31466Y-55305D01*
X31456Y-55250D01*
X31452Y-55151D01*
X31451Y-55048D01*
X31453Y-54909D01*
X31458Y-54825D01*
X31471Y-54784D01*
X31494Y-54772D01*
X31510Y-54773D01*
X31539Y-54789D01*
X31558Y-54831D01*
X31570Y-54913D01*
X31577Y-55047D01*
X31578Y-55059D01*
X31581Y-55194D01*
X31581Y-55194D01*
X31581Y-55194D01*
G37*
G36*
X32251Y-55062D02*
X32245Y-55174D01*
X32228Y-55261D01*
X32211Y-55294D01*
X32151Y-55319D01*
X32118Y-55323D01*
X32118Y-55234D01*
X32118Y-55048D01*
X32118Y-54863D01*
X32010Y-54873D01*
X31946Y-54883D01*
X31913Y-54908D01*
X31898Y-54967D01*
X31891Y-55059D01*
X31881Y-55234D01*
X31999Y-55234D01*
X32118Y-55234D01*
X32118Y-55323D01*
X32052Y-55331D01*
X31941Y-55329D01*
X31845Y-55312D01*
X31810Y-55298D01*
X31776Y-55262D01*
X31757Y-55196D01*
X31751Y-55082D01*
X31751Y-55054D01*
X31754Y-54938D01*
X31765Y-54870D01*
X31792Y-54831D01*
X31836Y-54806D01*
X31977Y-54770D01*
X32112Y-54786D01*
X32177Y-54819D01*
X32221Y-54861D01*
X32243Y-54922D01*
X32251Y-55022D01*
X32251Y-55062D01*
X32251Y-55062D01*
X32251Y-55062D01*
G37*
G36*
X33185Y-55062D02*
X33178Y-55174D01*
X33161Y-55261D01*
X33145Y-55294D01*
X33084Y-55319D01*
X33051Y-55323D01*
X33051Y-55234D01*
X33051Y-55048D01*
X33051Y-54863D01*
X32943Y-54873D01*
X32880Y-54883D01*
X32846Y-54908D01*
X32831Y-54967D01*
X32824Y-55059D01*
X32814Y-55234D01*
X32933Y-55234D01*
X33051Y-55234D01*
X33051Y-55323D01*
X32985Y-55331D01*
X32875Y-55329D01*
X32779Y-55312D01*
X32743Y-55298D01*
X32708Y-55261D01*
X32690Y-55193D01*
X32685Y-55075D01*
X32685Y-55061D01*
X32694Y-54918D01*
X32729Y-54829D01*
X32799Y-54783D01*
X32911Y-54768D01*
X32919Y-54768D01*
X33049Y-54784D01*
X33132Y-54837D01*
X33174Y-54938D01*
X33185Y-55062D01*
X33185Y-55062D01*
X33185Y-55062D01*
G37*
G36*
X33814Y-54839D02*
X33790Y-54940D01*
X33736Y-55091D01*
X33729Y-55108D01*
X33678Y-55229D01*
X33637Y-55299D01*
X33597Y-55329D01*
X33567Y-55334D01*
X33525Y-55323D01*
X33488Y-55284D01*
X33448Y-55204D01*
X33405Y-55092D01*
X33354Y-54945D01*
X33327Y-54849D01*
X33323Y-54795D01*
X33340Y-54771D01*
X33364Y-54767D01*
X33399Y-54797D01*
X33444Y-54878D01*
X33488Y-54987D01*
X33566Y-55207D01*
X33646Y-54987D01*
X33694Y-54875D01*
X33738Y-54797D01*
X33772Y-54767D01*
X33807Y-54784D01*
X33814Y-54839D01*
X33814Y-54839D01*
X33814Y-54839D01*
G37*
G36*
X34385Y-55284D02*
X34368Y-55314D01*
X34309Y-55330D01*
X34210Y-55333D01*
X34098Y-55326D01*
X34007Y-55310D01*
X33976Y-55298D01*
X33942Y-55261D01*
X33924Y-55193D01*
X33918Y-55075D01*
X33918Y-55061D01*
X33928Y-54917D01*
X33964Y-54828D01*
X34032Y-54781D01*
X34135Y-54768D01*
X34264Y-54792D01*
X34349Y-54861D01*
X34384Y-54969D01*
X34385Y-54986D01*
X34385Y-55101D01*
X34251Y-55101D01*
X34251Y-54932D01*
X34238Y-54882D01*
X34186Y-54871D01*
X34160Y-54873D01*
X34084Y-54902D01*
X34057Y-54942D01*
X34065Y-54984D01*
X34118Y-55000D01*
X34149Y-55001D01*
X34223Y-54991D01*
X34250Y-54954D01*
X34251Y-54932D01*
X34251Y-55101D01*
X34218Y-55101D01*
X34118Y-55104D01*
X34068Y-55119D01*
X34052Y-55152D01*
X34051Y-55167D01*
X34060Y-55207D01*
X34097Y-55227D01*
X34179Y-55234D01*
X34218Y-55234D01*
X34323Y-55239D01*
X34374Y-55258D01*
X34385Y-55284D01*
X34385Y-55284D01*
X34385Y-55284D01*
G37*
G36*
X34878Y-54842D02*
X34871Y-54884D01*
X34818Y-54900D01*
X34787Y-54901D01*
X34685Y-54901D01*
X34685Y-55117D01*
X34682Y-55234D01*
X34673Y-55300D01*
X34652Y-55328D01*
X34616Y-55334D01*
X34583Y-55329D01*
X34564Y-55307D01*
X34555Y-55253D01*
X34555Y-55154D01*
X34558Y-55059D01*
X34568Y-54784D01*
X34717Y-54784D01*
X34816Y-54790D01*
X34865Y-54813D01*
X34878Y-54842D01*
X34878Y-54842D01*
X34878Y-54842D01*
G37*
G36*
X35718Y-55284D02*
X35704Y-55311D01*
X35655Y-55327D01*
X35558Y-55333D01*
X35485Y-55334D01*
X35251Y-55334D01*
X35251Y-54951D01*
X35251Y-54567D01*
X35485Y-54567D01*
X35612Y-54570D01*
X35686Y-54581D01*
X35715Y-54603D01*
X35718Y-54615D01*
X35692Y-54649D01*
X35611Y-54669D01*
X35560Y-54674D01*
X35463Y-54684D01*
X35414Y-54704D01*
X35395Y-54747D01*
X35391Y-54776D01*
X35389Y-54834D01*
X35414Y-54860D01*
X35483Y-54867D01*
X35516Y-54867D01*
X35604Y-54873D01*
X35643Y-54895D01*
X35651Y-54932D01*
X35636Y-54977D01*
X35579Y-55000D01*
X35526Y-55007D01*
X35443Y-55020D01*
X35405Y-55052D01*
X35391Y-55122D01*
X35391Y-55126D01*
X35380Y-55234D01*
X35549Y-55234D01*
X35655Y-55239D01*
X35707Y-55257D01*
X35718Y-55284D01*
X35718Y-55284D01*
X35718Y-55284D01*
G37*
G36*
X36185Y-55297D02*
X36157Y-55325D01*
X36092Y-55331D01*
X36014Y-55315D01*
X35976Y-55298D01*
X35939Y-55257D01*
X35921Y-55178D01*
X35918Y-55086D01*
X35911Y-54967D01*
X35888Y-54904D01*
X35868Y-54888D01*
X35823Y-54844D01*
X35818Y-54818D01*
X35844Y-54773D01*
X35868Y-54767D01*
X35912Y-54742D01*
X35918Y-54721D01*
X35940Y-54669D01*
X35988Y-54652D01*
X36032Y-54677D01*
X36041Y-54697D01*
X36084Y-54759D01*
X36121Y-54778D01*
X36176Y-54812D01*
X36174Y-54858D01*
X36118Y-54891D01*
X36076Y-54914D01*
X36056Y-54966D01*
X36051Y-55066D01*
X36051Y-55067D01*
X36056Y-55168D01*
X36076Y-55220D01*
X36117Y-55243D01*
X36118Y-55243D01*
X36172Y-55273D01*
X36185Y-55297D01*
X36185Y-55297D01*
X36185Y-55297D01*
G37*
G36*
X36818Y-55089D02*
X36816Y-55216D01*
X36809Y-55289D01*
X36792Y-55324D01*
X36761Y-55334D01*
X36751Y-55334D01*
X36716Y-55328D01*
X36696Y-55299D01*
X36687Y-55235D01*
X36685Y-55120D01*
X36685Y-55098D01*
X36685Y-54863D01*
X36576Y-54873D01*
X36468Y-54884D01*
X36458Y-55109D01*
X36450Y-55229D01*
X36438Y-55297D01*
X36416Y-55328D01*
X36383Y-55334D01*
X36355Y-55330D01*
X36337Y-55309D01*
X36326Y-55262D01*
X36320Y-55178D01*
X36318Y-55044D01*
X36318Y-54934D01*
X36318Y-54765D01*
X36322Y-54652D01*
X36329Y-54583D01*
X36343Y-54548D01*
X36365Y-54535D01*
X36385Y-54534D01*
X36429Y-54546D01*
X36448Y-54593D01*
X36451Y-54661D01*
X36455Y-54744D01*
X36476Y-54777D01*
X36530Y-54777D01*
X36554Y-54774D01*
X36656Y-54777D01*
X36737Y-54802D01*
X36779Y-54830D01*
X36803Y-54870D01*
X36815Y-54938D01*
X36818Y-55052D01*
X36818Y-55089D01*
X36818Y-55089D01*
X36818Y-55089D01*
G37*
G36*
X37451Y-55284D02*
X37434Y-55314D01*
X37375Y-55330D01*
X37276Y-55333D01*
X37164Y-55326D01*
X37074Y-55310D01*
X37043Y-55298D01*
X37008Y-55261D01*
X36990Y-55193D01*
X36985Y-55075D01*
X36985Y-55061D01*
X36995Y-54917D01*
X37030Y-54828D01*
X37099Y-54781D01*
X37202Y-54768D01*
X37330Y-54792D01*
X37416Y-54861D01*
X37451Y-54969D01*
X37451Y-54986D01*
X37451Y-55101D01*
X37318Y-55101D01*
X37318Y-54932D01*
X37305Y-54882D01*
X37253Y-54871D01*
X37226Y-54873D01*
X37150Y-54902D01*
X37124Y-54942D01*
X37131Y-54984D01*
X37185Y-55000D01*
X37215Y-55001D01*
X37289Y-54991D01*
X37316Y-54954D01*
X37318Y-54932D01*
X37318Y-55101D01*
X37285Y-55101D01*
X37185Y-55104D01*
X37135Y-55119D01*
X37119Y-55152D01*
X37118Y-55167D01*
X37127Y-55207D01*
X37164Y-55227D01*
X37246Y-55234D01*
X37285Y-55234D01*
X37389Y-55239D01*
X37441Y-55258D01*
X37451Y-55284D01*
X37451Y-55284D01*
X37451Y-55284D01*
G37*
G36*
X37911Y-54842D02*
X37904Y-54884D01*
X37851Y-54900D01*
X37820Y-54901D01*
X37718Y-54901D01*
X37718Y-55117D01*
X37716Y-55234D01*
X37707Y-55300D01*
X37686Y-55328D01*
X37650Y-55334D01*
X37617Y-55329D01*
X37597Y-55307D01*
X37589Y-55253D01*
X37589Y-55154D01*
X37591Y-55059D01*
X37601Y-54785D01*
X37751Y-54784D01*
X37849Y-54790D01*
X37898Y-54813D01*
X37911Y-54842D01*
X37911Y-54842D01*
X37911Y-54842D01*
G37*
G36*
X38518Y-55101D02*
X38516Y-55224D01*
X38508Y-55294D01*
X38489Y-55326D01*
X38456Y-55334D01*
X38451Y-55334D01*
X38416Y-55328D01*
X38396Y-55299D01*
X38387Y-55235D01*
X38385Y-55120D01*
X38385Y-55098D01*
X38385Y-54863D01*
X38276Y-54873D01*
X38168Y-54884D01*
X38158Y-55109D01*
X38150Y-55229D01*
X38138Y-55297D01*
X38116Y-55328D01*
X38083Y-55334D01*
X38051Y-55328D01*
X38032Y-55302D01*
X38022Y-55243D01*
X38018Y-55137D01*
X38018Y-55056D01*
X38018Y-54779D01*
X38193Y-54775D01*
X38341Y-54780D01*
X38438Y-54813D01*
X38492Y-54883D01*
X38515Y-55000D01*
X38518Y-55101D01*
X38518Y-55101D01*
X38518Y-55101D01*
G37*
G36*
X39151Y-55284D02*
X39134Y-55314D01*
X39075Y-55330D01*
X38976Y-55333D01*
X38864Y-55326D01*
X38774Y-55310D01*
X38743Y-55298D01*
X38709Y-55262D01*
X38691Y-55196D01*
X38685Y-55082D01*
X38685Y-55054D01*
X38687Y-54938D01*
X38698Y-54870D01*
X38725Y-54831D01*
X38769Y-54806D01*
X38904Y-54770D01*
X39020Y-54785D01*
X39105Y-54846D01*
X39148Y-54946D01*
X39151Y-54986D01*
X39151Y-55101D01*
X39018Y-55101D01*
X39018Y-54934D01*
X39002Y-54885D01*
X38944Y-54868D01*
X38918Y-54867D01*
X38845Y-54878D01*
X38819Y-54917D01*
X38818Y-54934D01*
X38834Y-54983D01*
X38892Y-55000D01*
X38918Y-55001D01*
X38991Y-54990D01*
X39017Y-54951D01*
X39018Y-54934D01*
X39018Y-55101D01*
X38985Y-55101D01*
X38885Y-55104D01*
X38835Y-55119D01*
X38819Y-55152D01*
X38818Y-55167D01*
X38827Y-55207D01*
X38864Y-55227D01*
X38946Y-55234D01*
X38985Y-55234D01*
X39089Y-55239D01*
X39141Y-55258D01*
X39151Y-55284D01*
X39151Y-55284D01*
X39151Y-55284D01*
G37*
G36*
X39618Y-55284D02*
X39591Y-55321D01*
X39525Y-55332D01*
X39443Y-55314D01*
X39410Y-55298D01*
X39373Y-55257D01*
X39355Y-55181D01*
X39351Y-55082D01*
X39347Y-54972D01*
X39331Y-54916D01*
X39301Y-54901D01*
X39260Y-54873D01*
X39251Y-54834D01*
X39272Y-54780D01*
X39301Y-54767D01*
X39345Y-54742D01*
X39351Y-54721D01*
X39374Y-54669D01*
X39422Y-54652D01*
X39465Y-54677D01*
X39474Y-54697D01*
X39517Y-54759D01*
X39554Y-54778D01*
X39610Y-54812D01*
X39607Y-54858D01*
X39551Y-54891D01*
X39510Y-54913D01*
X39490Y-54965D01*
X39485Y-55063D01*
X39485Y-55071D01*
X39488Y-55170D01*
X39504Y-55218D01*
X39538Y-55233D01*
X39551Y-55234D01*
X39605Y-55255D01*
X39618Y-55284D01*
X39618Y-55284D01*
X39618Y-55284D01*
G37*
G36*
X31585Y-54601D02*
X31560Y-54656D01*
X31508Y-54666D01*
X31473Y-54645D01*
X31450Y-54588D01*
X31480Y-54543D01*
X31518Y-54534D01*
X31574Y-54557D01*
X31585Y-54601D01*
X31585Y-54601D01*
X31585Y-54601D01*
G37*
G36*
X31251Y-54067D02*
X31228Y-54161D01*
X31187Y-54199D01*
X31095Y-54225D01*
X30976Y-54231D01*
X30863Y-54218D01*
X30810Y-54198D01*
X30761Y-54149D01*
X30751Y-54117D01*
X30772Y-54061D01*
X30817Y-54046D01*
X30857Y-54079D01*
X30917Y-54122D01*
X31003Y-54134D01*
X31083Y-54126D01*
X31114Y-54096D01*
X31118Y-54067D01*
X31108Y-54025D01*
X31066Y-54005D01*
X30976Y-54001D01*
X30972Y-54001D01*
X30849Y-53985D01*
X30776Y-53943D01*
X30758Y-53880D01*
X30777Y-53833D01*
X30797Y-53772D01*
X30784Y-53750D01*
X30760Y-53705D01*
X30751Y-53634D01*
X30779Y-53533D01*
X30863Y-53467D01*
X31004Y-53437D01*
X31075Y-53434D01*
X31186Y-53442D01*
X31246Y-53463D01*
X31247Y-53494D01*
X31223Y-53514D01*
X31208Y-53555D01*
X31210Y-53632D01*
X31211Y-53634D01*
X31200Y-53737D01*
X31134Y-53804D01*
X31085Y-53815D01*
X31085Y-53634D01*
X31069Y-53585D01*
X31010Y-53568D01*
X30985Y-53567D01*
X30911Y-53578D01*
X30886Y-53617D01*
X30885Y-53634D01*
X30900Y-53683D01*
X30959Y-53700D01*
X30985Y-53701D01*
X31058Y-53690D01*
X31083Y-53651D01*
X31085Y-53634D01*
X31085Y-53815D01*
X31016Y-53832D01*
X30993Y-53833D01*
X30919Y-53842D01*
X30885Y-53865D01*
X30885Y-53867D01*
X30914Y-53889D01*
X30986Y-53900D01*
X31003Y-53901D01*
X31139Y-53917D01*
X31221Y-53967D01*
X31251Y-54054D01*
X31251Y-54067D01*
X31251Y-54067D01*
X31251Y-54067D01*
G37*
G36*
X39318Y-54067D02*
X39294Y-54161D01*
X39253Y-54199D01*
X39161Y-54225D01*
X39042Y-54231D01*
X38930Y-54218D01*
X38876Y-54198D01*
X38826Y-54144D01*
X38824Y-54082D01*
X38851Y-54050D01*
X38898Y-54054D01*
X38937Y-54082D01*
X39008Y-54120D01*
X39087Y-54134D01*
X39159Y-54123D01*
X39184Y-54082D01*
X39185Y-54067D01*
X39174Y-54025D01*
X39133Y-54005D01*
X39042Y-54001D01*
X39039Y-54001D01*
X38916Y-53985D01*
X38843Y-53943D01*
X38825Y-53880D01*
X38844Y-53833D01*
X38864Y-53772D01*
X38850Y-53750D01*
X38827Y-53705D01*
X38818Y-53634D01*
X38846Y-53533D01*
X38930Y-53467D01*
X39070Y-53437D01*
X39142Y-53434D01*
X39253Y-53442D01*
X39312Y-53463D01*
X39314Y-53494D01*
X39290Y-53514D01*
X39275Y-53555D01*
X39277Y-53632D01*
X39277Y-53634D01*
X39266Y-53737D01*
X39201Y-53804D01*
X39151Y-53815D01*
X39151Y-53634D01*
X39135Y-53585D01*
X39077Y-53568D01*
X39051Y-53567D01*
X38978Y-53578D01*
X38952Y-53617D01*
X38951Y-53634D01*
X38967Y-53683D01*
X39025Y-53700D01*
X39051Y-53701D01*
X39124Y-53690D01*
X39150Y-53651D01*
X39151Y-53634D01*
X39151Y-53815D01*
X39083Y-53832D01*
X39060Y-53833D01*
X38986Y-53842D01*
X38951Y-53865D01*
X38951Y-53867D01*
X38981Y-53889D01*
X39053Y-53900D01*
X39070Y-53901D01*
X39206Y-53917D01*
X39287Y-53967D01*
X39317Y-54054D01*
X39318Y-54067D01*
X39318Y-54067D01*
X39318Y-54067D01*
G37*
G36*
X30318Y-53635D02*
X30315Y-53795D01*
X30298Y-53900D01*
X30256Y-53961D01*
X30187Y-53987D01*
X30187Y-53901D01*
X30178Y-53626D01*
X30168Y-53351D01*
X30010Y-53340D01*
X29851Y-53330D01*
X29851Y-53615D01*
X29851Y-53901D01*
X30019Y-53901D01*
X30187Y-53901D01*
X30187Y-53987D01*
X30177Y-53991D01*
X30049Y-54000D01*
X29953Y-54001D01*
X29718Y-54001D01*
X29718Y-53617D01*
X29718Y-53234D01*
X29965Y-53234D01*
X30114Y-53238D01*
X30214Y-53256D01*
X30274Y-53301D01*
X30305Y-53383D01*
X30316Y-53512D01*
X30318Y-53635D01*
X30318Y-53635D01*
X30318Y-53635D01*
G37*
G36*
X30585Y-53715D02*
X30583Y-53853D01*
X30578Y-53938D01*
X30565Y-53982D01*
X30541Y-53998D01*
X30516Y-54001D01*
X30483Y-53996D01*
X30464Y-53973D01*
X30455Y-53919D01*
X30455Y-53821D01*
X30458Y-53726D01*
X30465Y-53587D01*
X30476Y-53502D01*
X30495Y-53458D01*
X30523Y-53441D01*
X30526Y-53440D01*
X30555Y-53441D01*
X30572Y-53467D01*
X30581Y-53529D01*
X30584Y-53639D01*
X30585Y-53715D01*
X30585Y-53715D01*
X30585Y-53715D01*
G37*
G36*
X31518Y-53715D02*
X31517Y-53853D01*
X31511Y-53938D01*
X31498Y-53982D01*
X31474Y-53998D01*
X31450Y-54001D01*
X31417Y-53996D01*
X31397Y-53973D01*
X31389Y-53919D01*
X31389Y-53821D01*
X31391Y-53726D01*
X31398Y-53587D01*
X31410Y-53502D01*
X31428Y-53458D01*
X31457Y-53441D01*
X31460Y-53440D01*
X31488Y-53441D01*
X31505Y-53467D01*
X31514Y-53529D01*
X31518Y-53639D01*
X31518Y-53715D01*
X31518Y-53715D01*
X31518Y-53715D01*
G37*
G36*
X32018Y-53951D02*
X31991Y-53988D01*
X31925Y-53999D01*
X31843Y-53981D01*
X31810Y-53964D01*
X31772Y-53923D01*
X31755Y-53845D01*
X31751Y-53752D01*
X31744Y-53634D01*
X31722Y-53571D01*
X31701Y-53555D01*
X31657Y-53511D01*
X31651Y-53485D01*
X31677Y-53440D01*
X31701Y-53434D01*
X31745Y-53409D01*
X31751Y-53387D01*
X31778Y-53337D01*
X31804Y-53321D01*
X31863Y-53303D01*
X31883Y-53324D01*
X31885Y-53363D01*
X31913Y-53422D01*
X31951Y-53443D01*
X32005Y-53480D01*
X32018Y-53514D01*
X31990Y-53558D01*
X31951Y-53567D01*
X31911Y-53576D01*
X31891Y-53613D01*
X31885Y-53695D01*
X31885Y-53734D01*
X31888Y-53834D01*
X31903Y-53884D01*
X31936Y-53900D01*
X31951Y-53901D01*
X32005Y-53921D01*
X32018Y-53951D01*
X32018Y-53951D01*
X32018Y-53951D01*
G37*
G36*
X32551Y-53992D02*
X32444Y-53992D01*
X32444Y-53862D01*
X32443Y-53859D01*
X32405Y-53823D01*
X32338Y-53806D01*
X32268Y-53809D01*
X32223Y-53832D01*
X32218Y-53848D01*
X32240Y-53886D01*
X32313Y-53900D01*
X32337Y-53901D01*
X32422Y-53891D01*
X32444Y-53862D01*
X32444Y-53992D01*
X32376Y-53993D01*
X32269Y-53991D01*
X32186Y-53984D01*
X32160Y-53978D01*
X32131Y-53937D01*
X32118Y-53858D01*
X32118Y-53849D01*
X32139Y-53749D01*
X32207Y-53690D01*
X32327Y-53668D01*
X32352Y-53667D01*
X32426Y-53656D01*
X32445Y-53630D01*
X32412Y-53599D01*
X32334Y-53573D01*
X32299Y-53567D01*
X32201Y-53542D01*
X32168Y-53502D01*
X32168Y-53501D01*
X32197Y-53463D01*
X32268Y-53442D01*
X32360Y-53440D01*
X32449Y-53459D01*
X32474Y-53470D01*
X32514Y-53498D01*
X32538Y-53540D01*
X32548Y-53612D01*
X32551Y-53730D01*
X32551Y-53752D01*
X32551Y-53992D01*
X32551Y-53992D01*
X32551Y-53992D01*
G37*
G36*
X32985Y-53951D02*
X32957Y-53988D01*
X32892Y-53999D01*
X32810Y-53981D01*
X32776Y-53964D01*
X32750Y-53941D01*
X32733Y-53897D01*
X32723Y-53821D01*
X32719Y-53701D01*
X32718Y-53566D01*
X32719Y-53405D01*
X32722Y-53301D01*
X32731Y-53239D01*
X32747Y-53210D01*
X32772Y-53201D01*
X32785Y-53201D01*
X32814Y-53205D01*
X32834Y-53226D01*
X32845Y-53275D01*
X32850Y-53365D01*
X32851Y-53507D01*
X32851Y-53551D01*
X32852Y-53707D01*
X32856Y-53808D01*
X32865Y-53866D01*
X32883Y-53893D01*
X32909Y-53900D01*
X32918Y-53901D01*
X32972Y-53921D01*
X32985Y-53951D01*
X32985Y-53951D01*
X32985Y-53951D01*
G37*
G36*
X33918Y-53786D02*
X33909Y-53891D01*
X33877Y-53949D01*
X33853Y-53966D01*
X33766Y-53991D01*
X33647Y-53999D01*
X33526Y-53992D01*
X33429Y-53970D01*
X33402Y-53955D01*
X33359Y-53895D01*
X33361Y-53855D01*
X33400Y-53811D01*
X33450Y-53804D01*
X33482Y-53834D01*
X33485Y-53851D01*
X33504Y-53883D01*
X33570Y-53898D01*
X33637Y-53901D01*
X33729Y-53898D01*
X33772Y-53883D01*
X33782Y-53842D01*
X33778Y-53792D01*
X33767Y-53725D01*
X33737Y-53691D01*
X33668Y-53677D01*
X33618Y-53673D01*
X33494Y-53655D01*
X33423Y-53614D01*
X33391Y-53537D01*
X33385Y-53433D01*
X33390Y-53333D01*
X33416Y-53274D01*
X33476Y-53244D01*
X33583Y-53234D01*
X33648Y-53234D01*
X33779Y-53247D01*
X33871Y-53284D01*
X33912Y-53339D01*
X33908Y-53379D01*
X33869Y-53423D01*
X33819Y-53431D01*
X33787Y-53400D01*
X33785Y-53384D01*
X33762Y-53349D01*
X33689Y-53335D01*
X33651Y-53334D01*
X33566Y-53338D01*
X33528Y-53359D01*
X33518Y-53412D01*
X33518Y-53434D01*
X33524Y-53501D01*
X33557Y-53528D01*
X33636Y-53534D01*
X33778Y-53555D01*
X33871Y-53619D01*
X33914Y-53728D01*
X33918Y-53786D01*
X33918Y-53786D01*
X33918Y-53786D01*
G37*
G36*
X34585Y-53759D02*
X34583Y-53884D01*
X34575Y-53957D01*
X34558Y-53991D01*
X34527Y-54000D01*
X34518Y-54001D01*
X34483Y-53994D01*
X34463Y-53966D01*
X34454Y-53902D01*
X34451Y-53787D01*
X34451Y-53765D01*
X34451Y-53530D01*
X34343Y-53540D01*
X34235Y-53551D01*
X34225Y-53776D01*
X34217Y-53896D01*
X34205Y-53964D01*
X34182Y-53994D01*
X34150Y-54001D01*
X34118Y-53995D01*
X34098Y-53969D01*
X34088Y-53909D01*
X34085Y-53804D01*
X34085Y-53723D01*
X34085Y-53446D01*
X34270Y-53441D01*
X34414Y-53444D01*
X34507Y-53469D01*
X34558Y-53528D01*
X34581Y-53632D01*
X34585Y-53759D01*
X34585Y-53759D01*
X34585Y-53759D01*
G37*
G36*
X35185Y-53992D02*
X35077Y-53994D01*
X35077Y-53862D01*
X35076Y-53859D01*
X35038Y-53823D01*
X34971Y-53806D01*
X34901Y-53809D01*
X34856Y-53832D01*
X34851Y-53848D01*
X34873Y-53886D01*
X34947Y-53900D01*
X34971Y-53901D01*
X35055Y-53891D01*
X35077Y-53862D01*
X35077Y-53994D01*
X35008Y-53996D01*
X34899Y-53991D01*
X34817Y-53974D01*
X34791Y-53960D01*
X34761Y-53899D01*
X34751Y-53828D01*
X34779Y-53737D01*
X34861Y-53683D01*
X34985Y-53667D01*
X35060Y-53656D01*
X35078Y-53630D01*
X35045Y-53599D01*
X34967Y-53573D01*
X34932Y-53567D01*
X34835Y-53542D01*
X34801Y-53502D01*
X34801Y-53501D01*
X34830Y-53463D01*
X34901Y-53442D01*
X34993Y-53440D01*
X35083Y-53459D01*
X35107Y-53470D01*
X35148Y-53498D01*
X35171Y-53540D01*
X35182Y-53612D01*
X35184Y-53730D01*
X35185Y-53752D01*
X35185Y-53992D01*
X35185Y-53992D01*
X35185Y-53992D01*
G37*
G36*
X35811Y-53973D02*
X35801Y-53995D01*
X35755Y-54000D01*
X35752Y-54001D01*
X35690Y-53975D01*
X35623Y-53913D01*
X35613Y-53901D01*
X35557Y-53838D01*
X35515Y-53827D01*
X35495Y-53839D01*
X35457Y-53902D01*
X35451Y-53938D01*
X35426Y-53991D01*
X35385Y-54001D01*
X35356Y-53997D01*
X35337Y-53977D01*
X35326Y-53932D01*
X35320Y-53849D01*
X35318Y-53718D01*
X35318Y-53601D01*
X35318Y-53432D01*
X35322Y-53318D01*
X35329Y-53250D01*
X35343Y-53215D01*
X35365Y-53202D01*
X35385Y-53201D01*
X35419Y-53207D01*
X35439Y-53234D01*
X35449Y-53298D01*
X35451Y-53411D01*
X35451Y-53441D01*
X35451Y-53681D01*
X35578Y-53557D01*
X35676Y-53473D01*
X35746Y-53434D01*
X35781Y-53439D01*
X35775Y-53485D01*
X35721Y-53570D01*
X35697Y-53600D01*
X35609Y-53704D01*
X35714Y-53833D01*
X35783Y-53923D01*
X35811Y-53973D01*
X35811Y-53973D01*
X35811Y-53973D01*
G37*
G36*
X36385Y-53951D02*
X36368Y-53981D01*
X36309Y-53996D01*
X36210Y-53999D01*
X36098Y-53993D01*
X36007Y-53976D01*
X35976Y-53964D01*
X35941Y-53927D01*
X35923Y-53856D01*
X35918Y-53735D01*
X35918Y-53734D01*
X35922Y-53617D01*
X35938Y-53546D01*
X35973Y-53500D01*
X35992Y-53486D01*
X36115Y-53438D01*
X36254Y-53454D01*
X36300Y-53473D01*
X36358Y-53512D01*
X36381Y-53576D01*
X36385Y-53639D01*
X36385Y-53767D01*
X36251Y-53767D01*
X36251Y-53598D01*
X36238Y-53549D01*
X36186Y-53538D01*
X36160Y-53540D01*
X36084Y-53568D01*
X36057Y-53609D01*
X36065Y-53651D01*
X36118Y-53666D01*
X36149Y-53667D01*
X36223Y-53658D01*
X36250Y-53621D01*
X36251Y-53598D01*
X36251Y-53767D01*
X36218Y-53767D01*
X36118Y-53771D01*
X36068Y-53786D01*
X36052Y-53818D01*
X36051Y-53834D01*
X36060Y-53874D01*
X36097Y-53894D01*
X36179Y-53900D01*
X36218Y-53901D01*
X36323Y-53906D01*
X36374Y-53924D01*
X36385Y-53951D01*
X36385Y-53951D01*
X36385Y-53951D01*
G37*
G36*
X37757Y-53289D02*
X37748Y-53345D01*
X37728Y-53435D01*
X37695Y-53568D01*
X37648Y-53751D01*
X37615Y-53876D01*
X37584Y-53961D01*
X37541Y-53996D01*
X37503Y-54001D01*
X37461Y-53994D01*
X37431Y-53964D01*
X37404Y-53898D01*
X37373Y-53782D01*
X37367Y-53759D01*
X37336Y-53637D01*
X37309Y-53540D01*
X37291Y-53487D01*
X37290Y-53485D01*
X37274Y-53499D01*
X37247Y-53566D01*
X37213Y-53671D01*
X37200Y-53718D01*
X37162Y-53851D01*
X37132Y-53932D01*
X37100Y-53974D01*
X37061Y-53991D01*
X37047Y-53994D01*
X37008Y-53994D01*
X36980Y-53977D01*
X36955Y-53932D01*
X36928Y-53845D01*
X36893Y-53706D01*
X36888Y-53686D01*
X36853Y-53541D01*
X36823Y-53416D01*
X36801Y-53327D01*
X36794Y-53301D01*
X36796Y-53248D01*
X36842Y-53234D01*
X36877Y-53244D01*
X36906Y-53284D01*
X36934Y-53365D01*
X36968Y-53499D01*
X36998Y-53619D01*
X37027Y-53707D01*
X37049Y-53748D01*
X37054Y-53749D01*
X37073Y-53711D01*
X37101Y-53625D01*
X37132Y-53508D01*
X37138Y-53484D01*
X37170Y-53356D01*
X37197Y-53281D01*
X37226Y-53244D01*
X37264Y-53234D01*
X37272Y-53234D01*
X37306Y-53240D01*
X37336Y-53263D01*
X37364Y-53314D01*
X37395Y-53402D01*
X37434Y-53537D01*
X37477Y-53701D01*
X37492Y-53756D01*
X37505Y-53774D01*
X37520Y-53747D01*
X37542Y-53669D01*
X37568Y-53560D01*
X37606Y-53407D01*
X37636Y-53310D01*
X37663Y-53257D01*
X37693Y-53237D01*
X37726Y-53239D01*
X37744Y-53245D01*
X37755Y-53259D01*
X37757Y-53289D01*
X37757Y-53289D01*
X37757Y-53289D01*
G37*
G36*
X38018Y-53715D02*
X38017Y-53853D01*
X38011Y-53938D01*
X37998Y-53982D01*
X37974Y-53998D01*
X37950Y-54001D01*
X37917Y-53996D01*
X37897Y-53973D01*
X37889Y-53919D01*
X37889Y-53821D01*
X37891Y-53726D01*
X37898Y-53587D01*
X37910Y-53502D01*
X37928Y-53458D01*
X37957Y-53441D01*
X37960Y-53440D01*
X37988Y-53441D01*
X38005Y-53467D01*
X38014Y-53529D01*
X38018Y-53639D01*
X38018Y-53715D01*
X38018Y-53715D01*
X38018Y-53715D01*
G37*
G36*
X38651Y-53755D02*
X38650Y-53881D01*
X38642Y-53955D01*
X38625Y-53990D01*
X38595Y-54000D01*
X38585Y-54001D01*
X38550Y-53994D01*
X38530Y-53966D01*
X38520Y-53902D01*
X38518Y-53787D01*
X38518Y-53765D01*
X38518Y-53530D01*
X38410Y-53540D01*
X38301Y-53551D01*
X38291Y-53776D01*
X38284Y-53896D01*
X38271Y-53964D01*
X38249Y-53994D01*
X38216Y-54001D01*
X38184Y-53995D01*
X38165Y-53969D01*
X38155Y-53910D01*
X38151Y-53804D01*
X38151Y-53722D01*
X38151Y-53444D01*
X38310Y-53440D01*
X38427Y-53446D01*
X38532Y-53464D01*
X38560Y-53472D01*
X38607Y-53495D01*
X38634Y-53526D01*
X38647Y-53582D01*
X38651Y-53681D01*
X38651Y-53755D01*
X38651Y-53755D01*
X38651Y-53755D01*
G37*
G36*
X30585Y-53267D02*
X30560Y-53322D01*
X30508Y-53332D01*
X30473Y-53312D01*
X30450Y-53255D01*
X30480Y-53210D01*
X30518Y-53201D01*
X30574Y-53224D01*
X30585Y-53267D01*
X30585Y-53267D01*
X30585Y-53267D01*
G37*
G36*
X31518Y-53267D02*
X31494Y-53322D01*
X31441Y-53332D01*
X31407Y-53312D01*
X31384Y-53255D01*
X31413Y-53210D01*
X31451Y-53201D01*
X31507Y-53224D01*
X31518Y-53267D01*
X31518Y-53267D01*
X31518Y-53267D01*
G37*
G36*
X38018Y-53267D02*
X37994Y-53322D01*
X37941Y-53332D01*
X37907Y-53312D01*
X37884Y-53255D01*
X37913Y-53210D01*
X37951Y-53201D01*
X38007Y-53224D01*
X38018Y-53267D01*
X38018Y-53267D01*
X38018Y-53267D01*
G37*
G36*
X40185Y-52801D02*
X34401Y-52801D01*
X28618Y-52801D01*
X28618Y-52001D01*
X28618Y-51201D01*
X34401Y-51201D01*
X40185Y-51201D01*
X40185Y-52001D01*
X40185Y-52801D01*
X40185Y-52801D01*
X40185Y-52801D01*
G37*
G54D16*
X33800Y-37000D02*
X33800Y-38000D01*
X33800Y-38000D02*
X30800Y-38000D01*
X30800Y-38000D02*
X30800Y-37000D01*
X30800Y-37000D02*
X33800Y-37000D01*
X32800Y-38000D02*
X32800Y-37000D01*
X45950Y-58650D02*
X44950Y-58650D01*
X44950Y-58650D02*
X44950Y-55650D01*
X44950Y-55650D02*
X45950Y-55650D01*
X45950Y-55650D02*
X45950Y-58650D01*
X44950Y-57650D02*
X45950Y-57650D01*
G54D14*
X25585Y-42267D02*
X25585Y-48267D01*
X25585Y-48267D02*
X32685Y-48267D01*
X32685Y-48267D02*
X32685Y-42267D01*
X32685Y-42267D02*
X25585Y-42267D01*
G54D10*
X61700Y-34200D02*
X61600Y-34200D01*
X61600Y-34200D02*
X61600Y-34500D01*
X61600Y-34500D02*
X61700Y-34500D01*
X61700Y-34100D02*
X61700Y-34600D01*
X61400Y-35300D02*
X62400Y-35300D01*
X61900Y-34500D02*
X61900Y-35300D01*
X61900Y-33400D02*
X61900Y-34200D01*
X61400Y-33400D02*
X62400Y-33400D01*
X62527Y-34362D02*
G75*
G03X62527Y-34362I-630J0D01*
G74*
G01*
X60125Y-32885D02*
X60125Y-35838D01*
X60125Y-35838D02*
X63668Y-35838D01*
X63668Y-35838D02*
X63668Y-32885D01*
X63668Y-32885D02*
X60125Y-32885D01*
X61700Y-37350D02*
X61600Y-37350D01*
X61600Y-37350D02*
X61600Y-37650D01*
X61600Y-37650D02*
X61700Y-37650D01*
X61700Y-37250D02*
X61700Y-37750D01*
X61400Y-38450D02*
X62400Y-38450D01*
X61900Y-37650D02*
X61900Y-38450D01*
X61900Y-36550D02*
X61900Y-37350D01*
X61400Y-36550D02*
X62400Y-36550D01*
X62527Y-37512D02*
G75*
G03X62527Y-37512I-630J0D01*
G74*
G01*
X60125Y-36035D02*
X60125Y-38988D01*
X60125Y-38988D02*
X63668Y-38988D01*
X63668Y-38988D02*
X63668Y-36035D01*
X63668Y-36035D02*
X60125Y-36035D01*
G54D14*
X58150Y-33100D02*
X58150Y-33000D01*
X58150Y-33000D02*
X57250Y-33000D01*
X57250Y-33000D02*
X57250Y-33100D01*
X58150Y-33100D02*
X57250Y-33100D01*
X57250Y-33100D02*
X57250Y-33750D01*
X58150Y-34450D02*
X58150Y-35100D01*
X58150Y-35100D02*
X57250Y-35100D01*
X57250Y-35100D02*
X57250Y-34450D01*
X58150Y-33750D02*
X58150Y-33100D01*
X59150Y-33100D02*
X59150Y-33000D01*
X59150Y-33000D02*
X58250Y-33000D01*
X58250Y-33000D02*
X58250Y-33100D01*
X59150Y-33100D02*
X58250Y-33100D01*
X58250Y-33100D02*
X58250Y-33750D01*
X59150Y-34450D02*
X59150Y-35100D01*
X59150Y-35100D02*
X58250Y-35100D01*
X58250Y-35100D02*
X58250Y-34450D01*
X59150Y-33750D02*
X59150Y-33100D01*
X58850Y-35250D02*
X57950Y-35250D01*
X57950Y-35250D02*
X57950Y-35900D01*
X58850Y-36600D02*
X58850Y-37250D01*
X58850Y-37250D02*
X57950Y-37250D01*
X57950Y-37250D02*
X57950Y-36600D01*
X58850Y-35900D02*
X58850Y-35250D01*
X59850Y-35250D02*
X58950Y-35250D01*
X58950Y-35250D02*
X58950Y-35900D01*
X59850Y-36600D02*
X59850Y-37250D01*
X59850Y-37250D02*
X58950Y-37250D01*
X58950Y-37250D02*
X58950Y-36600D01*
X59850Y-35900D02*
X59850Y-35250D01*
X62650Y-39200D02*
X61750Y-39200D01*
X61750Y-39200D02*
X61750Y-39850D01*
X62650Y-40550D02*
X62650Y-41200D01*
X62650Y-41200D02*
X61750Y-41200D01*
X61750Y-41200D02*
X61750Y-40550D01*
X62650Y-39850D02*
X62650Y-39200D01*
X63700Y-39200D02*
X62800Y-39200D01*
X62800Y-39200D02*
X62800Y-39850D01*
X63700Y-40550D02*
X63700Y-41200D01*
X63700Y-41200D02*
X62800Y-41200D01*
X62800Y-41200D02*
X62800Y-40550D01*
X63700Y-39850D02*
X63700Y-39200D01*
G54D19*
X47280Y-36000D02*
X47392Y-36000D01*
X47257Y-36079D02*
X47336Y-35803D01*
X47415Y-36079D01*
X47493Y-36079D02*
X47493Y-35803D01*
X47550Y-35803D01*
X47583Y-35816D01*
X47606Y-35842D01*
X47617Y-35869D01*
X47628Y-35921D01*
X47628Y-35961D01*
X47617Y-36013D01*
X47606Y-36040D01*
X47583Y-36066D01*
X47550Y-36079D01*
X47493Y-36079D01*
X47864Y-36053D02*
X47853Y-36066D01*
X47819Y-36079D01*
X47797Y-36079D01*
X47763Y-36066D01*
X47741Y-36040D01*
X47729Y-36013D01*
X47718Y-35961D01*
X47718Y-35921D01*
X47729Y-35869D01*
X47741Y-35842D01*
X47763Y-35816D01*
X47797Y-35803D01*
X47819Y-35803D01*
X47853Y-35816D01*
X47864Y-35829D01*
X48089Y-36079D02*
X47954Y-36079D01*
X48022Y-36079D02*
X48022Y-35803D01*
X47999Y-35842D01*
X47977Y-35869D01*
X47954Y-35882D01*
G54D14*
X51220Y-35639D02*
X51220Y-35339D01*
X51335Y-35339D01*
X51363Y-35353D01*
X51377Y-35367D01*
X51392Y-35396D01*
X51392Y-35439D01*
X51377Y-35467D01*
X51363Y-35482D01*
X51335Y-35496D01*
X51220Y-35496D01*
X51663Y-35639D02*
X51520Y-35639D01*
X51520Y-35339D01*
X51906Y-35639D02*
X51763Y-35639D01*
X51763Y-35339D01*
X52163Y-35639D02*
X51992Y-35639D01*
X52077Y-35639D02*
X52077Y-35339D01*
X52049Y-35382D01*
X52020Y-35410D01*
X51992Y-35424D01*
G54D20*
X43443Y-54537D02*
X43443Y-54242D01*
X43513Y-54242D01*
X43555Y-54256D01*
X43583Y-54284D01*
X43597Y-54312D01*
X43611Y-54368D01*
X43611Y-54410D01*
X43597Y-54466D01*
X43583Y-54494D01*
X43555Y-54523D01*
X43513Y-54537D01*
X43443Y-54537D01*
X43724Y-54452D02*
X43864Y-54452D01*
X43696Y-54537D02*
X43794Y-54242D01*
X43892Y-54537D01*
X44159Y-54509D02*
X44145Y-54523D01*
X44103Y-54537D01*
X44075Y-54537D01*
X44033Y-54523D01*
X44005Y-54494D01*
X43991Y-54466D01*
X43977Y-54410D01*
X43977Y-54368D01*
X43991Y-54312D01*
X44005Y-54284D01*
X44033Y-54256D01*
X44075Y-54242D01*
X44103Y-54242D01*
X44145Y-54256D01*
X44159Y-54270D01*
X44440Y-54537D02*
X44272Y-54537D01*
X44356Y-54537D02*
X44356Y-54242D01*
X44328Y-54284D01*
X44300Y-54312D01*
X44272Y-54326D01*
G54D14*
X27527Y-34710D02*
X27542Y-34724D01*
X27556Y-34767D01*
X27556Y-34796D01*
X27542Y-34839D01*
X27513Y-34867D01*
X27485Y-34882D01*
X27427Y-34896D01*
X27385Y-34896D01*
X27327Y-34882D01*
X27299Y-34867D01*
X27270Y-34839D01*
X27256Y-34796D01*
X27256Y-34767D01*
X27270Y-34724D01*
X27285Y-34710D01*
X27556Y-34424D02*
X27556Y-34596D01*
X27556Y-34510D02*
X27256Y-34510D01*
X27299Y-34539D01*
X27327Y-34567D01*
X27342Y-34596D01*
X27285Y-34310D02*
X27270Y-34296D01*
X27256Y-34267D01*
X27256Y-34196D01*
X27270Y-34167D01*
X27285Y-34153D01*
X27313Y-34139D01*
X27342Y-34139D01*
X27385Y-34153D01*
X27556Y-34324D01*
X27556Y-34139D01*
X44777Y-38867D02*
X44792Y-38882D01*
X44806Y-38924D01*
X44806Y-38953D01*
X44792Y-38996D01*
X44763Y-39024D01*
X44735Y-39039D01*
X44677Y-39053D01*
X44635Y-39053D01*
X44577Y-39039D01*
X44549Y-39024D01*
X44520Y-38996D01*
X44506Y-38953D01*
X44506Y-38924D01*
X44520Y-38882D01*
X44535Y-38867D01*
X44635Y-38696D02*
X44620Y-38724D01*
X44606Y-38739D01*
X44577Y-38753D01*
X44563Y-38753D01*
X44535Y-38739D01*
X44520Y-38724D01*
X44506Y-38696D01*
X44506Y-38639D01*
X44520Y-38610D01*
X44535Y-38596D01*
X44563Y-38582D01*
X44577Y-38582D01*
X44606Y-38596D01*
X44620Y-38610D01*
X44635Y-38639D01*
X44635Y-38696D01*
X44649Y-38724D01*
X44663Y-38739D01*
X44692Y-38753D01*
X44749Y-38753D01*
X44777Y-38739D01*
X44792Y-38724D01*
X44806Y-38696D01*
X44806Y-38639D01*
X44792Y-38610D01*
X44777Y-38596D01*
X44749Y-38582D01*
X44692Y-38582D01*
X44663Y-38596D01*
X44649Y-38610D01*
X44635Y-38639D01*
X50635Y-43860D02*
X50620Y-43874D01*
X50577Y-43889D01*
X50549Y-43889D01*
X50506Y-43874D01*
X50477Y-43846D01*
X50463Y-43817D01*
X50449Y-43760D01*
X50449Y-43717D01*
X50463Y-43660D01*
X50477Y-43632D01*
X50506Y-43603D01*
X50549Y-43589D01*
X50577Y-43589D01*
X50620Y-43603D01*
X50635Y-43617D01*
X50892Y-43589D02*
X50835Y-43589D01*
X50806Y-43603D01*
X50792Y-43617D01*
X50763Y-43660D01*
X50749Y-43717D01*
X50749Y-43832D01*
X50763Y-43860D01*
X50777Y-43874D01*
X50806Y-43889D01*
X50863Y-43889D01*
X50892Y-43874D01*
X50906Y-43860D01*
X50920Y-43832D01*
X50920Y-43760D01*
X50906Y-43732D01*
X50892Y-43717D01*
X50863Y-43703D01*
X50806Y-43703D01*
X50777Y-43717D01*
X50763Y-43732D01*
X50749Y-43760D01*
X36377Y-34517D02*
X36392Y-34532D01*
X36406Y-34574D01*
X36406Y-34603D01*
X36392Y-34646D01*
X36363Y-34674D01*
X36335Y-34689D01*
X36277Y-34703D01*
X36235Y-34703D01*
X36177Y-34689D01*
X36149Y-34674D01*
X36120Y-34646D01*
X36106Y-34603D01*
X36106Y-34574D01*
X36120Y-34532D01*
X36135Y-34517D01*
X36406Y-34374D02*
X36406Y-34317D01*
X36392Y-34289D01*
X36377Y-34274D01*
X36335Y-34246D01*
X36277Y-34232D01*
X36163Y-34232D01*
X36135Y-34246D01*
X36120Y-34260D01*
X36106Y-34289D01*
X36106Y-34346D01*
X36120Y-34374D01*
X36135Y-34389D01*
X36163Y-34403D01*
X36235Y-34403D01*
X36263Y-34389D01*
X36277Y-34374D01*
X36292Y-34346D01*
X36292Y-34289D01*
X36277Y-34260D01*
X36263Y-34246D01*
X36235Y-34232D01*
X55027Y-33960D02*
X55042Y-33974D01*
X55056Y-34017D01*
X55056Y-34046D01*
X55042Y-34089D01*
X55013Y-34117D01*
X54985Y-34132D01*
X54927Y-34146D01*
X54885Y-34146D01*
X54827Y-34132D01*
X54799Y-34117D01*
X54770Y-34089D01*
X54756Y-34046D01*
X54756Y-34017D01*
X54770Y-33974D01*
X54785Y-33960D01*
X55056Y-33674D02*
X55056Y-33846D01*
X55056Y-33760D02*
X54756Y-33760D01*
X54799Y-33789D01*
X54827Y-33817D01*
X54842Y-33846D01*
X54856Y-33417D02*
X55056Y-33417D01*
X54742Y-33489D02*
X54956Y-33560D01*
X54956Y-33374D01*
X55027Y-34960D02*
X55042Y-34974D01*
X55056Y-35017D01*
X55056Y-35046D01*
X55042Y-35089D01*
X55013Y-35117D01*
X54985Y-35132D01*
X54927Y-35146D01*
X54885Y-35146D01*
X54827Y-35132D01*
X54799Y-35117D01*
X54770Y-35089D01*
X54756Y-35046D01*
X54756Y-35017D01*
X54770Y-34974D01*
X54785Y-34960D01*
X55056Y-34674D02*
X55056Y-34846D01*
X55056Y-34760D02*
X54756Y-34760D01*
X54799Y-34789D01*
X54827Y-34817D01*
X54842Y-34846D01*
X54756Y-34403D02*
X54756Y-34546D01*
X54899Y-34560D01*
X54885Y-34546D01*
X54870Y-34517D01*
X54870Y-34446D01*
X54885Y-34417D01*
X54899Y-34403D01*
X54927Y-34389D01*
X54999Y-34389D01*
X55027Y-34403D01*
X55042Y-34417D01*
X55056Y-34446D01*
X55056Y-34517D01*
X55042Y-34546D01*
X55027Y-34560D01*
X36777Y-40067D02*
X36792Y-40082D01*
X36806Y-40124D01*
X36806Y-40153D01*
X36792Y-40196D01*
X36763Y-40224D01*
X36735Y-40239D01*
X36677Y-40253D01*
X36635Y-40253D01*
X36577Y-40239D01*
X36549Y-40224D01*
X36520Y-40196D01*
X36506Y-40153D01*
X36506Y-40124D01*
X36520Y-40082D01*
X36535Y-40067D01*
X36506Y-39967D02*
X36506Y-39767D01*
X36806Y-39896D01*
X46442Y-40110D02*
X46427Y-40124D01*
X46385Y-40139D01*
X46356Y-40139D01*
X46313Y-40124D01*
X46285Y-40096D01*
X46270Y-40067D01*
X46256Y-40010D01*
X46256Y-39967D01*
X46270Y-39910D01*
X46285Y-39882D01*
X46313Y-39853D01*
X46356Y-39839D01*
X46385Y-39839D01*
X46427Y-39853D01*
X46442Y-39867D01*
X46556Y-39867D02*
X46570Y-39853D01*
X46599Y-39839D01*
X46670Y-39839D01*
X46699Y-39853D01*
X46713Y-39867D01*
X46727Y-39896D01*
X46727Y-39924D01*
X46713Y-39967D01*
X46542Y-40139D01*
X46727Y-40139D01*
X46827Y-39839D02*
X47013Y-39839D01*
X46913Y-39953D01*
X46956Y-39953D01*
X46985Y-39967D01*
X46999Y-39982D01*
X47013Y-40010D01*
X47013Y-40082D01*
X46999Y-40110D01*
X46985Y-40124D01*
X46956Y-40139D01*
X46870Y-40139D01*
X46842Y-40124D01*
X46827Y-40110D01*
X49492Y-40110D02*
X49477Y-40124D01*
X49435Y-40139D01*
X49406Y-40139D01*
X49363Y-40124D01*
X49335Y-40096D01*
X49320Y-40067D01*
X49306Y-40010D01*
X49306Y-39967D01*
X49320Y-39910D01*
X49335Y-39882D01*
X49363Y-39853D01*
X49406Y-39839D01*
X49435Y-39839D01*
X49477Y-39853D01*
X49492Y-39867D01*
X49606Y-39867D02*
X49620Y-39853D01*
X49649Y-39839D01*
X49720Y-39839D01*
X49749Y-39853D01*
X49763Y-39867D01*
X49777Y-39896D01*
X49777Y-39924D01*
X49763Y-39967D01*
X49592Y-40139D01*
X49777Y-40139D01*
X49963Y-39839D02*
X49992Y-39839D01*
X50020Y-39853D01*
X50035Y-39867D01*
X50049Y-39896D01*
X50063Y-39953D01*
X50063Y-40024D01*
X50049Y-40082D01*
X50035Y-40110D01*
X50020Y-40124D01*
X49992Y-40139D01*
X49963Y-40139D01*
X49935Y-40124D01*
X49920Y-40110D01*
X49906Y-40082D01*
X49892Y-40024D01*
X49892Y-39953D01*
X49906Y-39896D01*
X49920Y-39867D01*
X49935Y-39853D01*
X49963Y-39839D01*
X55027Y-37960D02*
X55042Y-37974D01*
X55056Y-38017D01*
X55056Y-38046D01*
X55042Y-38089D01*
X55013Y-38117D01*
X54985Y-38132D01*
X54927Y-38146D01*
X54885Y-38146D01*
X54827Y-38132D01*
X54799Y-38117D01*
X54770Y-38089D01*
X54756Y-38046D01*
X54756Y-38017D01*
X54770Y-37974D01*
X54785Y-37960D01*
X55056Y-37674D02*
X55056Y-37846D01*
X55056Y-37760D02*
X54756Y-37760D01*
X54799Y-37789D01*
X54827Y-37817D01*
X54842Y-37846D01*
X54885Y-37503D02*
X54870Y-37532D01*
X54856Y-37546D01*
X54827Y-37560D01*
X54813Y-37560D01*
X54785Y-37546D01*
X54770Y-37532D01*
X54756Y-37503D01*
X54756Y-37446D01*
X54770Y-37417D01*
X54785Y-37403D01*
X54813Y-37389D01*
X54827Y-37389D01*
X54856Y-37403D01*
X54870Y-37417D01*
X54885Y-37446D01*
X54885Y-37503D01*
X54899Y-37532D01*
X54913Y-37546D01*
X54942Y-37560D01*
X54999Y-37560D01*
X55027Y-37546D01*
X55042Y-37532D01*
X55056Y-37503D01*
X55056Y-37446D01*
X55042Y-37417D01*
X55027Y-37403D01*
X54999Y-37389D01*
X54942Y-37389D01*
X54913Y-37403D01*
X54899Y-37417D01*
X54885Y-37446D01*
X32027Y-34710D02*
X32042Y-34724D01*
X32056Y-34767D01*
X32056Y-34796D01*
X32042Y-34839D01*
X32013Y-34867D01*
X31985Y-34882D01*
X31927Y-34896D01*
X31885Y-34896D01*
X31827Y-34882D01*
X31799Y-34867D01*
X31770Y-34839D01*
X31756Y-34796D01*
X31756Y-34767D01*
X31770Y-34724D01*
X31785Y-34710D01*
X32056Y-34424D02*
X32056Y-34596D01*
X32056Y-34510D02*
X31756Y-34510D01*
X31799Y-34539D01*
X31827Y-34567D01*
X31842Y-34596D01*
X31756Y-34324D02*
X31756Y-34139D01*
X31870Y-34239D01*
X31870Y-34196D01*
X31885Y-34167D01*
X31899Y-34153D01*
X31927Y-34139D01*
X31999Y-34139D01*
X32027Y-34153D01*
X32042Y-34167D01*
X32056Y-34196D01*
X32056Y-34282D01*
X32042Y-34310D01*
X32027Y-34324D01*
X48492Y-40110D02*
X48477Y-40124D01*
X48435Y-40139D01*
X48406Y-40139D01*
X48363Y-40124D01*
X48335Y-40096D01*
X48320Y-40067D01*
X48306Y-40010D01*
X48306Y-39967D01*
X48320Y-39910D01*
X48335Y-39882D01*
X48363Y-39853D01*
X48406Y-39839D01*
X48435Y-39839D01*
X48477Y-39853D01*
X48492Y-39867D01*
X48606Y-39867D02*
X48620Y-39853D01*
X48649Y-39839D01*
X48720Y-39839D01*
X48749Y-39853D01*
X48763Y-39867D01*
X48777Y-39896D01*
X48777Y-39924D01*
X48763Y-39967D01*
X48592Y-40139D01*
X48777Y-40139D01*
X49063Y-40139D02*
X48892Y-40139D01*
X48977Y-40139D02*
X48977Y-39839D01*
X48949Y-39882D01*
X48920Y-39910D01*
X48892Y-39924D01*
X47492Y-40110D02*
X47477Y-40124D01*
X47435Y-40139D01*
X47406Y-40139D01*
X47363Y-40124D01*
X47335Y-40096D01*
X47320Y-40067D01*
X47306Y-40010D01*
X47306Y-39967D01*
X47320Y-39910D01*
X47335Y-39882D01*
X47363Y-39853D01*
X47406Y-39839D01*
X47435Y-39839D01*
X47477Y-39853D01*
X47492Y-39867D01*
X47606Y-39867D02*
X47620Y-39853D01*
X47649Y-39839D01*
X47720Y-39839D01*
X47749Y-39853D01*
X47763Y-39867D01*
X47777Y-39896D01*
X47777Y-39924D01*
X47763Y-39967D01*
X47592Y-40139D01*
X47777Y-40139D01*
X47892Y-39867D02*
X47906Y-39853D01*
X47935Y-39839D01*
X48006Y-39839D01*
X48035Y-39853D01*
X48049Y-39867D01*
X48063Y-39896D01*
X48063Y-39924D01*
X48049Y-39967D01*
X47877Y-40139D01*
X48063Y-40139D01*
X55027Y-35960D02*
X55042Y-35974D01*
X55056Y-36017D01*
X55056Y-36046D01*
X55042Y-36089D01*
X55013Y-36117D01*
X54985Y-36132D01*
X54927Y-36146D01*
X54885Y-36146D01*
X54827Y-36132D01*
X54799Y-36117D01*
X54770Y-36089D01*
X54756Y-36046D01*
X54756Y-36017D01*
X54770Y-35974D01*
X54785Y-35960D01*
X55056Y-35674D02*
X55056Y-35846D01*
X55056Y-35760D02*
X54756Y-35760D01*
X54799Y-35789D01*
X54827Y-35817D01*
X54842Y-35846D01*
X54756Y-35417D02*
X54756Y-35474D01*
X54770Y-35503D01*
X54785Y-35517D01*
X54827Y-35546D01*
X54885Y-35560D01*
X54999Y-35560D01*
X55027Y-35546D01*
X55042Y-35532D01*
X55056Y-35503D01*
X55056Y-35446D01*
X55042Y-35417D01*
X55027Y-35403D01*
X54999Y-35389D01*
X54927Y-35389D01*
X54899Y-35403D01*
X54885Y-35417D01*
X54870Y-35446D01*
X54870Y-35503D01*
X54885Y-35532D01*
X54899Y-35546D01*
X54927Y-35560D01*
X55027Y-36960D02*
X55042Y-36974D01*
X55056Y-37017D01*
X55056Y-37046D01*
X55042Y-37089D01*
X55013Y-37117D01*
X54985Y-37132D01*
X54927Y-37146D01*
X54885Y-37146D01*
X54827Y-37132D01*
X54799Y-37117D01*
X54770Y-37089D01*
X54756Y-37046D01*
X54756Y-37017D01*
X54770Y-36974D01*
X54785Y-36960D01*
X55056Y-36674D02*
X55056Y-36846D01*
X55056Y-36760D02*
X54756Y-36760D01*
X54799Y-36789D01*
X54827Y-36817D01*
X54842Y-36846D01*
X54756Y-36574D02*
X54756Y-36374D01*
X55056Y-36503D01*
X44777Y-38010D02*
X44792Y-38024D01*
X44806Y-38067D01*
X44806Y-38096D01*
X44792Y-38139D01*
X44763Y-38167D01*
X44735Y-38182D01*
X44677Y-38196D01*
X44635Y-38196D01*
X44577Y-38182D01*
X44549Y-38167D01*
X44520Y-38139D01*
X44506Y-38096D01*
X44506Y-38067D01*
X44520Y-38024D01*
X44535Y-38010D01*
X44806Y-37724D02*
X44806Y-37896D01*
X44806Y-37810D02*
X44506Y-37810D01*
X44549Y-37839D01*
X44577Y-37867D01*
X44592Y-37896D01*
X44506Y-37539D02*
X44506Y-37510D01*
X44520Y-37482D01*
X44535Y-37467D01*
X44563Y-37453D01*
X44620Y-37439D01*
X44692Y-37439D01*
X44749Y-37453D01*
X44777Y-37467D01*
X44792Y-37482D01*
X44806Y-37510D01*
X44806Y-37539D01*
X44792Y-37567D01*
X44777Y-37582D01*
X44749Y-37596D01*
X44692Y-37610D01*
X44620Y-37610D01*
X44563Y-37596D01*
X44535Y-37582D01*
X44520Y-37567D01*
X44506Y-37539D01*
X55027Y-38960D02*
X55042Y-38974D01*
X55056Y-39017D01*
X55056Y-39046D01*
X55042Y-39089D01*
X55013Y-39117D01*
X54985Y-39132D01*
X54927Y-39146D01*
X54885Y-39146D01*
X54827Y-39132D01*
X54799Y-39117D01*
X54770Y-39089D01*
X54756Y-39046D01*
X54756Y-39017D01*
X54770Y-38974D01*
X54785Y-38960D01*
X55056Y-38674D02*
X55056Y-38846D01*
X55056Y-38760D02*
X54756Y-38760D01*
X54799Y-38789D01*
X54827Y-38817D01*
X54842Y-38846D01*
X55056Y-38532D02*
X55056Y-38474D01*
X55042Y-38446D01*
X55027Y-38432D01*
X54985Y-38403D01*
X54927Y-38389D01*
X54813Y-38389D01*
X54785Y-38403D01*
X54770Y-38417D01*
X54756Y-38446D01*
X54756Y-38503D01*
X54770Y-38532D01*
X54785Y-38546D01*
X54813Y-38560D01*
X54885Y-38560D01*
X54913Y-38546D01*
X54927Y-38532D01*
X54942Y-38503D01*
X54942Y-38446D01*
X54927Y-38417D01*
X54913Y-38403D01*
X54885Y-38389D01*
X42742Y-60889D02*
X42642Y-60746D01*
X42570Y-60889D02*
X42570Y-60589D01*
X42685Y-60589D01*
X42713Y-60603D01*
X42727Y-60617D01*
X42742Y-60646D01*
X42742Y-60689D01*
X42727Y-60717D01*
X42713Y-60732D01*
X42685Y-60746D01*
X42570Y-60746D01*
X43027Y-60889D02*
X42856Y-60889D01*
X42942Y-60889D02*
X42942Y-60589D01*
X42913Y-60632D01*
X42885Y-60660D01*
X42856Y-60674D01*
X43313Y-60889D02*
X43142Y-60889D01*
X43227Y-60889D02*
X43227Y-60589D01*
X43199Y-60632D01*
X43170Y-60660D01*
X43142Y-60674D01*
X43556Y-59210D02*
X43413Y-59310D01*
X43556Y-59382D02*
X43256Y-59382D01*
X43256Y-59267D01*
X43270Y-59239D01*
X43285Y-59224D01*
X43313Y-59210D01*
X43356Y-59210D01*
X43385Y-59224D01*
X43399Y-59239D01*
X43413Y-59267D01*
X43413Y-59382D01*
X43556Y-58924D02*
X43556Y-59096D01*
X43556Y-59010D02*
X43256Y-59010D01*
X43299Y-59039D01*
X43327Y-59067D01*
X43342Y-59096D01*
X43256Y-58739D02*
X43256Y-58710D01*
X43270Y-58682D01*
X43285Y-58667D01*
X43313Y-58653D01*
X43370Y-58639D01*
X43442Y-58639D01*
X43499Y-58653D01*
X43527Y-58667D01*
X43542Y-58682D01*
X43556Y-58710D01*
X43556Y-58739D01*
X43542Y-58767D01*
X43527Y-58782D01*
X43499Y-58796D01*
X43442Y-58810D01*
X43370Y-58810D01*
X43313Y-58796D01*
X43285Y-58782D01*
X43270Y-58767D01*
X43256Y-58739D01*
X43742Y-60860D02*
X43727Y-60874D01*
X43685Y-60889D01*
X43656Y-60889D01*
X43613Y-60874D01*
X43585Y-60846D01*
X43570Y-60817D01*
X43556Y-60760D01*
X43556Y-60717D01*
X43570Y-60660D01*
X43585Y-60632D01*
X43613Y-60603D01*
X43656Y-60589D01*
X43685Y-60589D01*
X43727Y-60603D01*
X43742Y-60617D01*
X43856Y-60617D02*
X43870Y-60603D01*
X43899Y-60589D01*
X43970Y-60589D01*
X43999Y-60603D01*
X44013Y-60617D01*
X44027Y-60646D01*
X44027Y-60674D01*
X44013Y-60717D01*
X43842Y-60889D01*
X44027Y-60889D01*
X44285Y-60689D02*
X44285Y-60889D01*
X44213Y-60574D02*
X44142Y-60789D01*
X44327Y-60789D01*
X39742Y-60889D02*
X39642Y-60746D01*
X39570Y-60889D02*
X39570Y-60589D01*
X39685Y-60589D01*
X39713Y-60603D01*
X39727Y-60617D01*
X39742Y-60646D01*
X39742Y-60689D01*
X39727Y-60717D01*
X39713Y-60732D01*
X39685Y-60746D01*
X39570Y-60746D01*
X40027Y-60889D02*
X39856Y-60889D01*
X39942Y-60889D02*
X39942Y-60589D01*
X39913Y-60632D01*
X39885Y-60660D01*
X39856Y-60674D01*
X40127Y-60589D02*
X40313Y-60589D01*
X40213Y-60703D01*
X40256Y-60703D01*
X40285Y-60717D01*
X40299Y-60732D01*
X40313Y-60760D01*
X40313Y-60832D01*
X40299Y-60860D01*
X40285Y-60874D01*
X40256Y-60889D01*
X40170Y-60889D01*
X40142Y-60874D01*
X40127Y-60860D01*
X40556Y-59210D02*
X40413Y-59310D01*
X40556Y-59382D02*
X40256Y-59382D01*
X40256Y-59267D01*
X40270Y-59239D01*
X40285Y-59224D01*
X40313Y-59210D01*
X40356Y-59210D01*
X40385Y-59224D01*
X40399Y-59239D01*
X40413Y-59267D01*
X40413Y-59382D01*
X40556Y-58924D02*
X40556Y-59096D01*
X40556Y-59010D02*
X40256Y-59010D01*
X40299Y-59039D01*
X40327Y-59067D01*
X40342Y-59096D01*
X40285Y-58810D02*
X40270Y-58796D01*
X40256Y-58767D01*
X40256Y-58696D01*
X40270Y-58667D01*
X40285Y-58653D01*
X40313Y-58639D01*
X40342Y-58639D01*
X40385Y-58653D01*
X40556Y-58824D01*
X40556Y-58639D01*
X40742Y-60860D02*
X40727Y-60874D01*
X40685Y-60889D01*
X40656Y-60889D01*
X40613Y-60874D01*
X40585Y-60846D01*
X40570Y-60817D01*
X40556Y-60760D01*
X40556Y-60717D01*
X40570Y-60660D01*
X40585Y-60632D01*
X40613Y-60603D01*
X40656Y-60589D01*
X40685Y-60589D01*
X40727Y-60603D01*
X40742Y-60617D01*
X40856Y-60617D02*
X40870Y-60603D01*
X40899Y-60589D01*
X40970Y-60589D01*
X40999Y-60603D01*
X41013Y-60617D01*
X41027Y-60646D01*
X41027Y-60674D01*
X41013Y-60717D01*
X40842Y-60889D01*
X41027Y-60889D01*
X41299Y-60589D02*
X41156Y-60589D01*
X41142Y-60732D01*
X41156Y-60717D01*
X41185Y-60703D01*
X41256Y-60703D01*
X41285Y-60717D01*
X41299Y-60732D01*
X41313Y-60760D01*
X41313Y-60832D01*
X41299Y-60860D01*
X41285Y-60874D01*
X41256Y-60889D01*
X41185Y-60889D01*
X41156Y-60874D01*
X41142Y-60860D01*
X27556Y-40817D02*
X27413Y-40917D01*
X27556Y-40989D02*
X27256Y-40989D01*
X27256Y-40874D01*
X27270Y-40846D01*
X27285Y-40832D01*
X27313Y-40817D01*
X27356Y-40817D01*
X27385Y-40832D01*
X27399Y-40846D01*
X27413Y-40874D01*
X27413Y-40989D01*
X27256Y-40717D02*
X27256Y-40532D01*
X27370Y-40632D01*
X27370Y-40589D01*
X27385Y-40560D01*
X27399Y-40546D01*
X27427Y-40532D01*
X27499Y-40532D01*
X27527Y-40546D01*
X27542Y-40560D01*
X27556Y-40589D01*
X27556Y-40674D01*
X27542Y-40703D01*
X27527Y-40717D01*
X31277Y-39317D02*
X31292Y-39332D01*
X31306Y-39374D01*
X31306Y-39403D01*
X31292Y-39446D01*
X31263Y-39474D01*
X31235Y-39489D01*
X31177Y-39503D01*
X31135Y-39503D01*
X31077Y-39489D01*
X31049Y-39474D01*
X31020Y-39446D01*
X31006Y-39403D01*
X31006Y-39374D01*
X31020Y-39332D01*
X31035Y-39317D01*
X31306Y-39032D02*
X31306Y-39203D01*
X31306Y-39117D02*
X31006Y-39117D01*
X31049Y-39146D01*
X31077Y-39174D01*
X31092Y-39203D01*
X32306Y-41567D02*
X32163Y-41667D01*
X32306Y-41739D02*
X32006Y-41739D01*
X32006Y-41624D01*
X32020Y-41596D01*
X32035Y-41582D01*
X32063Y-41567D01*
X32106Y-41567D01*
X32135Y-41582D01*
X32149Y-41596D01*
X32163Y-41624D01*
X32163Y-41739D01*
X32035Y-41453D02*
X32020Y-41439D01*
X32006Y-41410D01*
X32006Y-41339D01*
X32020Y-41310D01*
X32035Y-41296D01*
X32063Y-41282D01*
X32092Y-41282D01*
X32135Y-41296D01*
X32306Y-41467D01*
X32306Y-41282D01*
X32306Y-40567D02*
X32163Y-40667D01*
X32306Y-40739D02*
X32006Y-40739D01*
X32006Y-40624D01*
X32020Y-40596D01*
X32035Y-40582D01*
X32063Y-40567D01*
X32106Y-40567D01*
X32135Y-40582D01*
X32149Y-40596D01*
X32163Y-40624D01*
X32163Y-40739D01*
X32306Y-40282D02*
X32306Y-40453D01*
X32306Y-40367D02*
X32006Y-40367D01*
X32049Y-40396D01*
X32077Y-40424D01*
X32092Y-40453D01*
X29806Y-34567D02*
X29663Y-34667D01*
X29806Y-34739D02*
X29506Y-34739D01*
X29506Y-34624D01*
X29520Y-34596D01*
X29535Y-34582D01*
X29563Y-34567D01*
X29606Y-34567D01*
X29635Y-34582D01*
X29649Y-34596D01*
X29663Y-34624D01*
X29663Y-34739D01*
X29806Y-34424D02*
X29806Y-34367D01*
X29792Y-34339D01*
X29777Y-34324D01*
X29735Y-34296D01*
X29677Y-34282D01*
X29563Y-34282D01*
X29535Y-34296D01*
X29520Y-34310D01*
X29506Y-34339D01*
X29506Y-34396D01*
X29520Y-34424D01*
X29535Y-34439D01*
X29563Y-34453D01*
X29635Y-34453D01*
X29663Y-34439D01*
X29677Y-34424D01*
X29692Y-34396D01*
X29692Y-34339D01*
X29677Y-34310D01*
X29663Y-34296D01*
X29635Y-34282D01*
X33556Y-39317D02*
X33556Y-39460D01*
X33256Y-39460D01*
X33556Y-39060D02*
X33556Y-39232D01*
X33556Y-39146D02*
X33256Y-39146D01*
X33299Y-39174D01*
X33327Y-39203D01*
X33342Y-39232D01*
X36135Y-41889D02*
X36035Y-41746D01*
X35963Y-41889D02*
X35963Y-41589D01*
X36077Y-41589D01*
X36106Y-41603D01*
X36120Y-41617D01*
X36135Y-41646D01*
X36135Y-41689D01*
X36120Y-41717D01*
X36106Y-41732D01*
X36077Y-41746D01*
X35963Y-41746D01*
X36406Y-41589D02*
X36263Y-41589D01*
X36249Y-41732D01*
X36263Y-41717D01*
X36292Y-41703D01*
X36363Y-41703D01*
X36392Y-41717D01*
X36406Y-41732D01*
X36420Y-41760D01*
X36420Y-41832D01*
X36406Y-41860D01*
X36392Y-41874D01*
X36363Y-41889D01*
X36292Y-41889D01*
X36263Y-41874D01*
X36249Y-41860D01*
X37135Y-41889D02*
X37035Y-41746D01*
X36963Y-41889D02*
X36963Y-41589D01*
X37077Y-41589D01*
X37106Y-41603D01*
X37120Y-41617D01*
X37135Y-41646D01*
X37135Y-41689D01*
X37120Y-41717D01*
X37106Y-41732D01*
X37077Y-41746D01*
X36963Y-41746D01*
X37392Y-41589D02*
X37335Y-41589D01*
X37306Y-41603D01*
X37292Y-41617D01*
X37263Y-41660D01*
X37249Y-41717D01*
X37249Y-41832D01*
X37263Y-41860D01*
X37277Y-41874D01*
X37306Y-41889D01*
X37363Y-41889D01*
X37392Y-41874D01*
X37406Y-41860D01*
X37420Y-41832D01*
X37420Y-41760D01*
X37406Y-41732D01*
X37392Y-41717D01*
X37363Y-41703D01*
X37306Y-41703D01*
X37277Y-41717D01*
X37263Y-41732D01*
X37249Y-41760D01*
X27556Y-49817D02*
X27413Y-49917D01*
X27556Y-49989D02*
X27256Y-49989D01*
X27256Y-49874D01*
X27270Y-49846D01*
X27285Y-49832D01*
X27313Y-49817D01*
X27356Y-49817D01*
X27385Y-49832D01*
X27399Y-49846D01*
X27413Y-49874D01*
X27413Y-49989D01*
X27256Y-49717D02*
X27256Y-49517D01*
X27556Y-49646D01*
X40135Y-49110D02*
X40120Y-49124D01*
X40077Y-49139D01*
X40049Y-49139D01*
X40006Y-49124D01*
X39977Y-49096D01*
X39963Y-49067D01*
X39949Y-49010D01*
X39949Y-48967D01*
X39963Y-48910D01*
X39977Y-48882D01*
X40006Y-48853D01*
X40049Y-48839D01*
X40077Y-48839D01*
X40120Y-48853D01*
X40135Y-48867D01*
X40249Y-48867D02*
X40263Y-48853D01*
X40292Y-48839D01*
X40363Y-48839D01*
X40392Y-48853D01*
X40406Y-48867D01*
X40420Y-48896D01*
X40420Y-48924D01*
X40406Y-48967D01*
X40235Y-49139D01*
X40420Y-49139D01*
X39135Y-49110D02*
X39120Y-49124D01*
X39077Y-49139D01*
X39049Y-49139D01*
X39006Y-49124D01*
X38977Y-49096D01*
X38963Y-49067D01*
X38949Y-49010D01*
X38949Y-48967D01*
X38963Y-48910D01*
X38977Y-48882D01*
X39006Y-48853D01*
X39049Y-48839D01*
X39077Y-48839D01*
X39120Y-48853D01*
X39135Y-48867D01*
X39235Y-48839D02*
X39420Y-48839D01*
X39320Y-48953D01*
X39363Y-48953D01*
X39392Y-48967D01*
X39406Y-48982D01*
X39420Y-49010D01*
X39420Y-49082D01*
X39406Y-49110D01*
X39392Y-49124D01*
X39363Y-49139D01*
X39277Y-49139D01*
X39249Y-49124D01*
X39235Y-49110D01*
X35135Y-49110D02*
X35120Y-49124D01*
X35077Y-49139D01*
X35049Y-49139D01*
X35006Y-49124D01*
X34977Y-49096D01*
X34963Y-49067D01*
X34949Y-49010D01*
X34949Y-48967D01*
X34963Y-48910D01*
X34977Y-48882D01*
X35006Y-48853D01*
X35049Y-48839D01*
X35077Y-48839D01*
X35120Y-48853D01*
X35135Y-48867D01*
X35392Y-48939D02*
X35392Y-49139D01*
X35320Y-48824D02*
X35249Y-49039D01*
X35435Y-49039D01*
X48135Y-49110D02*
X48120Y-49124D01*
X48077Y-49139D01*
X48049Y-49139D01*
X48006Y-49124D01*
X47977Y-49096D01*
X47963Y-49067D01*
X47949Y-49010D01*
X47949Y-48967D01*
X47963Y-48910D01*
X47977Y-48882D01*
X48006Y-48853D01*
X48049Y-48839D01*
X48077Y-48839D01*
X48120Y-48853D01*
X48135Y-48867D01*
X48406Y-48839D02*
X48263Y-48839D01*
X48249Y-48982D01*
X48263Y-48967D01*
X48292Y-48953D01*
X48363Y-48953D01*
X48392Y-48967D01*
X48406Y-48982D01*
X48420Y-49010D01*
X48420Y-49082D01*
X48406Y-49110D01*
X48392Y-49124D01*
X48363Y-49139D01*
X48292Y-49139D01*
X48263Y-49124D01*
X48249Y-49110D01*
X43977Y-48853D02*
X43949Y-48839D01*
X43906Y-48839D01*
X43863Y-48853D01*
X43835Y-48882D01*
X43820Y-48910D01*
X43806Y-48967D01*
X43806Y-49010D01*
X43820Y-49067D01*
X43835Y-49096D01*
X43863Y-49124D01*
X43906Y-49139D01*
X43935Y-49139D01*
X43977Y-49124D01*
X43992Y-49110D01*
X43992Y-49010D01*
X43935Y-49010D01*
X44106Y-49124D02*
X44149Y-49139D01*
X44220Y-49139D01*
X44249Y-49124D01*
X44263Y-49110D01*
X44277Y-49082D01*
X44277Y-49053D01*
X44263Y-49024D01*
X44249Y-49010D01*
X44220Y-48996D01*
X44163Y-48982D01*
X44135Y-48967D01*
X44120Y-48953D01*
X44106Y-48924D01*
X44106Y-48896D01*
X44120Y-48867D01*
X44135Y-48853D01*
X44163Y-48839D01*
X44235Y-48839D01*
X44277Y-48853D01*
X44563Y-49139D02*
X44392Y-49139D01*
X44477Y-49139D02*
X44477Y-48839D01*
X44449Y-48882D01*
X44420Y-48910D01*
X44392Y-48924D01*
X38606Y-34517D02*
X38463Y-34617D01*
X38606Y-34689D02*
X38306Y-34689D01*
X38306Y-34574D01*
X38320Y-34546D01*
X38335Y-34532D01*
X38363Y-34517D01*
X38406Y-34517D01*
X38435Y-34532D01*
X38449Y-34546D01*
X38463Y-34574D01*
X38463Y-34689D01*
X38435Y-34346D02*
X38420Y-34374D01*
X38406Y-34389D01*
X38377Y-34403D01*
X38363Y-34403D01*
X38335Y-34389D01*
X38320Y-34374D01*
X38306Y-34346D01*
X38306Y-34289D01*
X38320Y-34260D01*
X38335Y-34246D01*
X38363Y-34232D01*
X38377Y-34232D01*
X38406Y-34246D01*
X38420Y-34260D01*
X38435Y-34289D01*
X38435Y-34346D01*
X38449Y-34374D01*
X38463Y-34389D01*
X38492Y-34403D01*
X38549Y-34403D01*
X38577Y-34389D01*
X38592Y-34374D01*
X38606Y-34346D01*
X38606Y-34289D01*
X38592Y-34260D01*
X38577Y-34246D01*
X38549Y-34232D01*
X38492Y-34232D01*
X38463Y-34246D01*
X38449Y-34260D01*
X38435Y-34289D01*
X35135Y-41889D02*
X35035Y-41746D01*
X34963Y-41889D02*
X34963Y-41589D01*
X35077Y-41589D01*
X35106Y-41603D01*
X35120Y-41617D01*
X35135Y-41646D01*
X35135Y-41689D01*
X35120Y-41717D01*
X35106Y-41732D01*
X35077Y-41746D01*
X34963Y-41746D01*
X35392Y-41689D02*
X35392Y-41889D01*
X35320Y-41574D02*
X35249Y-41789D01*
X35435Y-41789D01*
X40777Y-34660D02*
X40792Y-34674D01*
X40806Y-34717D01*
X40806Y-34746D01*
X40792Y-34789D01*
X40763Y-34817D01*
X40735Y-34832D01*
X40677Y-34846D01*
X40635Y-34846D01*
X40577Y-34832D01*
X40549Y-34817D01*
X40520Y-34789D01*
X40506Y-34746D01*
X40506Y-34717D01*
X40520Y-34674D01*
X40535Y-34660D01*
X40806Y-34374D02*
X40806Y-34546D01*
X40806Y-34460D02*
X40506Y-34460D01*
X40549Y-34489D01*
X40577Y-34517D01*
X40592Y-34546D01*
X40806Y-34089D02*
X40806Y-34260D01*
X40806Y-34174D02*
X40506Y-34174D01*
X40549Y-34203D01*
X40577Y-34232D01*
X40592Y-34260D01*
G54D16*
X61035Y-42489D02*
X61035Y-42703D01*
X61020Y-42746D01*
X60992Y-42774D01*
X60949Y-42789D01*
X60920Y-42789D01*
X61177Y-42789D02*
X61177Y-42489D01*
X61292Y-42489D01*
X61320Y-42503D01*
X61335Y-42517D01*
X61349Y-42546D01*
X61349Y-42589D01*
X61335Y-42617D01*
X61320Y-42632D01*
X61292Y-42646D01*
X61177Y-42646D01*
X61463Y-42517D02*
X61477Y-42503D01*
X61506Y-42489D01*
X61577Y-42489D01*
X61606Y-42503D01*
X61620Y-42517D01*
X61635Y-42546D01*
X61635Y-42574D01*
X61620Y-42617D01*
X61449Y-42789D01*
X61635Y-42789D01*
X27228Y-35371D02*
X27228Y-35071D01*
X27342Y-35071D01*
X27371Y-35085D01*
X27385Y-35100D01*
X27400Y-35128D01*
X27400Y-35171D01*
X27385Y-35200D01*
X27371Y-35214D01*
X27342Y-35228D01*
X27228Y-35228D01*
X27514Y-35100D02*
X27528Y-35085D01*
X27557Y-35071D01*
X27628Y-35071D01*
X27657Y-35085D01*
X27671Y-35100D01*
X27685Y-35128D01*
X27685Y-35157D01*
X27671Y-35200D01*
X27500Y-35371D01*
X27685Y-35371D01*
X35978Y-35121D02*
X35978Y-34821D01*
X36092Y-34821D01*
X36121Y-34835D01*
X36135Y-34850D01*
X36150Y-34878D01*
X36150Y-34921D01*
X36135Y-34950D01*
X36121Y-34964D01*
X36092Y-34978D01*
X35978Y-34978D01*
X36435Y-35121D02*
X36264Y-35121D01*
X36350Y-35121D02*
X36350Y-34821D01*
X36321Y-34864D01*
X36292Y-34892D01*
X36264Y-34907D01*
X61035Y-40489D02*
X61035Y-40703D01*
X61020Y-40746D01*
X60992Y-40774D01*
X60949Y-40789D01*
X60920Y-40789D01*
X61177Y-40789D02*
X61177Y-40489D01*
X61292Y-40489D01*
X61320Y-40503D01*
X61335Y-40517D01*
X61349Y-40546D01*
X61349Y-40589D01*
X61335Y-40617D01*
X61320Y-40632D01*
X61292Y-40646D01*
X61177Y-40646D01*
X61606Y-40589D02*
X61606Y-40789D01*
X61535Y-40474D02*
X61463Y-40689D01*
X61649Y-40689D01*
X61035Y-41489D02*
X61035Y-41703D01*
X61020Y-41746D01*
X60992Y-41774D01*
X60949Y-41789D01*
X60920Y-41789D01*
X61177Y-41789D02*
X61177Y-41489D01*
X61292Y-41489D01*
X61320Y-41503D01*
X61335Y-41517D01*
X61349Y-41546D01*
X61349Y-41589D01*
X61335Y-41617D01*
X61320Y-41632D01*
X61292Y-41646D01*
X61177Y-41646D01*
X61449Y-41489D02*
X61635Y-41489D01*
X61535Y-41603D01*
X61577Y-41603D01*
X61606Y-41617D01*
X61620Y-41632D01*
X61635Y-41660D01*
X61635Y-41732D01*
X61620Y-41760D01*
X61606Y-41774D01*
X61577Y-41789D01*
X61492Y-41789D01*
X61463Y-41774D01*
X61449Y-41760D01*
X61035Y-43489D02*
X61035Y-43703D01*
X61020Y-43746D01*
X60992Y-43774D01*
X60949Y-43789D01*
X60920Y-43789D01*
X61177Y-43789D02*
X61177Y-43489D01*
X61292Y-43489D01*
X61320Y-43503D01*
X61335Y-43517D01*
X61349Y-43546D01*
X61349Y-43589D01*
X61335Y-43617D01*
X61320Y-43632D01*
X61292Y-43646D01*
X61177Y-43646D01*
X61635Y-43789D02*
X61463Y-43789D01*
X61549Y-43789D02*
X61549Y-43489D01*
X61520Y-43532D01*
X61492Y-43560D01*
X61463Y-43574D01*
G54D21*
X54518Y-30929D02*
X54518Y-30529D01*
X54670Y-30529D01*
X54708Y-30548D01*
X54727Y-30567D01*
X54746Y-30605D01*
X54746Y-30662D01*
X54727Y-30701D01*
X54708Y-30720D01*
X54670Y-30739D01*
X54518Y-30739D01*
X54899Y-30815D02*
X55089Y-30815D01*
X54861Y-30929D02*
X54994Y-30529D01*
X55127Y-30929D01*
X55261Y-30929D02*
X55261Y-30529D01*
X55413Y-30529D01*
X55451Y-30548D01*
X55470Y-30567D01*
X55489Y-30605D01*
X55489Y-30662D01*
X55470Y-30701D01*
X55451Y-30720D01*
X55413Y-30739D01*
X55261Y-30739D01*
X55870Y-30929D02*
X55642Y-30929D01*
X55756Y-30929D02*
X55756Y-30529D01*
X55718Y-30586D01*
X55680Y-30624D01*
X55642Y-30643D01*
X56518Y-51929D02*
X56518Y-51529D01*
X56670Y-51529D01*
X56708Y-51548D01*
X56727Y-51567D01*
X56746Y-51605D01*
X56746Y-51662D01*
X56727Y-51701D01*
X56708Y-51720D01*
X56670Y-51739D01*
X56518Y-51739D01*
X56899Y-51815D02*
X57089Y-51815D01*
X56861Y-51929D02*
X56994Y-51529D01*
X57127Y-51929D01*
X57261Y-51929D02*
X57261Y-51529D01*
X57413Y-51529D01*
X57451Y-51548D01*
X57470Y-51567D01*
X57489Y-51605D01*
X57489Y-51662D01*
X57470Y-51701D01*
X57451Y-51720D01*
X57413Y-51739D01*
X57261Y-51739D01*
X57642Y-51567D02*
X57661Y-51548D01*
X57699Y-51529D01*
X57794Y-51529D01*
X57832Y-51548D01*
X57851Y-51567D01*
X57870Y-51605D01*
X57870Y-51643D01*
X57851Y-51701D01*
X57623Y-51929D01*
X57870Y-51929D01*
G54D10*
X40612Y-27690D02*
X40893Y-27690D01*
X40949Y-27709D01*
X40987Y-27746D01*
X41005Y-27802D01*
X41005Y-27840D01*
X41005Y-27296D02*
X41005Y-27521D01*
X41005Y-27409D02*
X40612Y-27409D01*
X40668Y-27446D01*
X40705Y-27484D01*
X40724Y-27521D01*
X36871Y-30132D02*
X36871Y-29907D01*
X37265Y-30019D02*
X36871Y-30019D01*
X37265Y-27634D02*
X37078Y-27765D01*
X37265Y-27859D02*
X36871Y-27859D01*
X36871Y-27709D01*
X36890Y-27671D01*
X36909Y-27652D01*
X36946Y-27634D01*
X37003Y-27634D01*
X37040Y-27652D01*
X37059Y-27671D01*
X37078Y-27709D01*
X37078Y-27859D01*
X37246Y-25309D02*
X37265Y-25253D01*
X37265Y-25159D01*
X37246Y-25121D01*
X37228Y-25103D01*
X37190Y-25084D01*
X37153Y-25084D01*
X37115Y-25103D01*
X37096Y-25121D01*
X37078Y-25159D01*
X37059Y-25234D01*
X37040Y-25271D01*
X37021Y-25290D01*
X36984Y-25309D01*
X36946Y-25309D01*
X36909Y-25290D01*
X36890Y-25271D01*
X36871Y-25234D01*
X36871Y-25140D01*
X36890Y-25084D01*
X31950Y-27690D02*
X32231Y-27690D01*
X32288Y-27709D01*
X32325Y-27746D01*
X32344Y-27802D01*
X32344Y-27840D01*
X31988Y-27521D02*
X31969Y-27502D01*
X31950Y-27465D01*
X31950Y-27371D01*
X31969Y-27334D01*
X31988Y-27315D01*
X32025Y-27296D01*
X32063Y-27296D01*
X32119Y-27315D01*
X32344Y-27540D01*
X32344Y-27296D01*
X28210Y-30132D02*
X28210Y-29907D01*
X28604Y-30019D02*
X28210Y-30019D01*
X28604Y-27634D02*
X28416Y-27765D01*
X28604Y-27859D02*
X28210Y-27859D01*
X28210Y-27709D01*
X28229Y-27671D01*
X28248Y-27652D01*
X28285Y-27634D01*
X28341Y-27634D01*
X28379Y-27652D01*
X28398Y-27671D01*
X28416Y-27709D01*
X28416Y-27859D01*
X28585Y-25309D02*
X28604Y-25253D01*
X28604Y-25159D01*
X28585Y-25121D01*
X28566Y-25103D01*
X28529Y-25084D01*
X28491Y-25084D01*
X28454Y-25103D01*
X28435Y-25121D01*
X28416Y-25159D01*
X28398Y-25234D01*
X28379Y-25271D01*
X28360Y-25290D01*
X28323Y-25309D01*
X28285Y-25309D01*
X28248Y-25290D01*
X28229Y-25271D01*
X28210Y-25234D01*
X28210Y-25140D01*
X28229Y-25084D01*
X57474Y-61398D02*
X57755Y-61398D01*
X57811Y-61417D01*
X57849Y-61455D01*
X57868Y-61511D01*
X57868Y-61548D01*
X57474Y-61248D02*
X57474Y-61005D01*
X57624Y-61136D01*
X57624Y-61080D01*
X57643Y-61042D01*
X57661Y-61023D01*
X57699Y-61005D01*
X57793Y-61005D01*
X57830Y-61023D01*
X57849Y-61042D01*
X57868Y-61080D01*
X57868Y-61192D01*
X57849Y-61230D01*
X57830Y-61248D01*
X61214Y-58919D02*
X61214Y-58694D01*
X61608Y-58807D02*
X61214Y-58807D01*
X61608Y-60949D02*
X61420Y-61080D01*
X61608Y-61173D02*
X61214Y-61173D01*
X61214Y-61023D01*
X61233Y-60986D01*
X61251Y-60967D01*
X61289Y-60949D01*
X61345Y-60949D01*
X61383Y-60967D01*
X61401Y-60986D01*
X61420Y-61023D01*
X61420Y-61173D01*
X61589Y-63742D02*
X61608Y-63686D01*
X61608Y-63592D01*
X61589Y-63554D01*
X61570Y-63536D01*
X61533Y-63517D01*
X61495Y-63517D01*
X61458Y-63536D01*
X61439Y-63554D01*
X61420Y-63592D01*
X61401Y-63667D01*
X61383Y-63704D01*
X61364Y-63723D01*
X61326Y-63742D01*
X61289Y-63742D01*
X61251Y-63723D01*
X61233Y-63704D01*
X61214Y-63667D01*
X61214Y-63573D01*
X61233Y-63517D01*
X48974Y-61398D02*
X49255Y-61398D01*
X49311Y-61417D01*
X49349Y-61455D01*
X49368Y-61511D01*
X49368Y-61548D01*
X49105Y-61042D02*
X49368Y-61042D01*
X48955Y-61136D02*
X49236Y-61230D01*
X49236Y-60986D01*
X52714Y-58919D02*
X52714Y-58694D01*
X53108Y-58807D02*
X52714Y-58807D01*
X53108Y-60949D02*
X52920Y-61080D01*
X53108Y-61173D02*
X52714Y-61173D01*
X52714Y-61023D01*
X52733Y-60986D01*
X52751Y-60967D01*
X52789Y-60949D01*
X52845Y-60949D01*
X52883Y-60967D01*
X52901Y-60986D01*
X52920Y-61023D01*
X52920Y-61173D01*
X53089Y-63742D02*
X53108Y-63686D01*
X53108Y-63592D01*
X53089Y-63554D01*
X53070Y-63536D01*
X53033Y-63517D01*
X52995Y-63517D01*
X52958Y-63536D01*
X52939Y-63554D01*
X52920Y-63592D01*
X52901Y-63667D01*
X52883Y-63704D01*
X52864Y-63723D01*
X52826Y-63742D01*
X52789Y-63742D01*
X52751Y-63723D01*
X52733Y-63704D01*
X52714Y-63667D01*
X52714Y-63573D01*
X52733Y-63517D01*
G54D22*
X45842Y-44910D02*
X45842Y-45396D01*
X45863Y-45453D01*
X45885Y-45482D01*
X45927Y-45510D01*
X46013Y-45510D01*
X46056Y-45482D01*
X46077Y-45453D01*
X46099Y-45396D01*
X46099Y-44910D01*
X46549Y-45510D02*
X46292Y-45510D01*
X46420Y-45510D02*
X46420Y-44910D01*
X46377Y-44996D01*
X46335Y-45053D01*
X46292Y-45082D01*
G54D23*
G54D21*
X50418Y-54829D02*
X50418Y-54429D01*
X50570Y-54429D01*
X50608Y-54448D01*
X50627Y-54467D01*
X50646Y-54505D01*
X50646Y-54562D01*
X50627Y-54601D01*
X50608Y-54620D01*
X50570Y-54639D01*
X50418Y-54639D01*
X50799Y-54715D02*
X50989Y-54715D01*
X50761Y-54829D02*
X50894Y-54429D01*
X51027Y-54829D01*
X51161Y-54829D02*
X51161Y-54429D01*
X51313Y-54429D01*
X51351Y-54448D01*
X51370Y-54467D01*
X51389Y-54505D01*
X51389Y-54562D01*
X51370Y-54601D01*
X51351Y-54620D01*
X51313Y-54639D01*
X51161Y-54639D01*
X51523Y-54429D02*
X51770Y-54429D01*
X51637Y-54582D01*
X51694Y-54582D01*
X51732Y-54601D01*
X51751Y-54620D01*
X51770Y-54658D01*
X51770Y-54753D01*
X51751Y-54791D01*
X51732Y-54810D01*
X51694Y-54829D01*
X51580Y-54829D01*
X51542Y-54810D01*
X51523Y-54791D01*
G54D16*
X31904Y-38511D02*
X31904Y-38111D01*
X32133Y-38511D02*
X31961Y-38283D01*
X32133Y-38111D02*
X31904Y-38340D01*
X32514Y-38511D02*
X32285Y-38511D01*
X32400Y-38511D02*
X32400Y-38111D01*
X32361Y-38169D01*
X32323Y-38207D01*
X32285Y-38226D01*
X44761Y-57345D02*
X44361Y-57345D01*
X44761Y-57116D02*
X44533Y-57288D01*
X44361Y-57116D02*
X44590Y-57345D01*
X44400Y-56964D02*
X44380Y-56945D01*
X44361Y-56907D01*
X44361Y-56811D01*
X44380Y-56773D01*
X44400Y-56754D01*
X44438Y-56735D01*
X44476Y-56735D01*
X44533Y-56754D01*
X44761Y-56983D01*
X44761Y-56735D01*
G54D23*
X26763Y-46174D02*
X26763Y-45974D01*
X27077Y-45889D02*
X27077Y-46174D01*
X26477Y-46174D01*
X26477Y-45889D01*
X26477Y-45717D02*
X26477Y-45374D01*
X27077Y-45546D02*
X26477Y-45546D01*
X27077Y-45174D02*
X26477Y-45174D01*
X26763Y-45174D02*
X26763Y-44832D01*
X27077Y-44832D02*
X26477Y-44832D01*
X27077Y-44232D02*
X27077Y-44574D01*
X27077Y-44403D02*
X26477Y-44403D01*
X26563Y-44460D01*
X26620Y-44517D01*
X26649Y-44574D01*
G54D10*
X64240Y-35024D02*
X64259Y-34968D01*
X64259Y-34874D01*
X64240Y-34837D01*
X64221Y-34818D01*
X64184Y-34799D01*
X64146Y-34799D01*
X64109Y-34818D01*
X64090Y-34837D01*
X64071Y-34874D01*
X64053Y-34949D01*
X64034Y-34987D01*
X64015Y-35006D01*
X63978Y-35024D01*
X63940Y-35024D01*
X63903Y-35006D01*
X63884Y-34987D01*
X63865Y-34949D01*
X63865Y-34856D01*
X63884Y-34799D01*
X63865Y-34668D02*
X64259Y-34574D01*
X63978Y-34499D01*
X64259Y-34425D01*
X63865Y-34331D01*
X64259Y-33975D02*
X64259Y-34200D01*
X64259Y-34087D02*
X63865Y-34087D01*
X63921Y-34125D01*
X63959Y-34162D01*
X63978Y-34200D01*
X61175Y-35290D02*
X61231Y-35309D01*
X61325Y-35309D01*
X61362Y-35290D01*
X61381Y-35271D01*
X61400Y-35234D01*
X61400Y-35196D01*
X61381Y-35159D01*
X61362Y-35140D01*
X61325Y-35121D01*
X61250Y-35103D01*
X61212Y-35084D01*
X61193Y-35065D01*
X61175Y-35028D01*
X61175Y-34990D01*
X61193Y-34953D01*
X61212Y-34934D01*
X61250Y-34915D01*
X61343Y-34915D01*
X61400Y-34934D01*
X61531Y-34915D02*
X61625Y-35309D01*
X61700Y-35028D01*
X61774Y-35309D01*
X61868Y-34915D01*
X61999Y-34953D02*
X62018Y-34934D01*
X62056Y-34915D01*
X62149Y-34915D01*
X62187Y-34934D01*
X62206Y-34953D01*
X62224Y-34990D01*
X62224Y-35028D01*
X62206Y-35084D01*
X61981Y-35309D01*
X62224Y-35309D01*
G54D14*
X57821Y-34321D02*
X57521Y-34321D01*
X57521Y-34250D01*
X57535Y-34207D01*
X57564Y-34178D01*
X57592Y-34164D01*
X57650Y-34150D01*
X57692Y-34150D01*
X57750Y-34164D01*
X57778Y-34178D01*
X57807Y-34207D01*
X57821Y-34250D01*
X57821Y-34321D01*
X57821Y-33864D02*
X57821Y-34035D01*
X57821Y-33950D02*
X57521Y-33950D01*
X57564Y-33978D01*
X57592Y-34007D01*
X57607Y-34035D01*
X58821Y-34321D02*
X58521Y-34321D01*
X58521Y-34250D01*
X58535Y-34207D01*
X58564Y-34178D01*
X58592Y-34164D01*
X58650Y-34150D01*
X58692Y-34150D01*
X58750Y-34164D01*
X58778Y-34178D01*
X58807Y-34207D01*
X58821Y-34250D01*
X58821Y-34321D01*
X58550Y-34035D02*
X58535Y-34021D01*
X58521Y-33992D01*
X58521Y-33921D01*
X58535Y-33892D01*
X58550Y-33878D01*
X58578Y-33864D01*
X58607Y-33864D01*
X58650Y-33878D01*
X58821Y-34050D01*
X58821Y-33864D01*
X58521Y-36442D02*
X58378Y-36542D01*
X58521Y-36614D02*
X58221Y-36614D01*
X58221Y-36500D01*
X58235Y-36471D01*
X58250Y-36457D01*
X58278Y-36442D01*
X58321Y-36442D01*
X58350Y-36457D01*
X58364Y-36471D01*
X58378Y-36500D01*
X58378Y-36614D01*
X58521Y-36157D02*
X58521Y-36328D01*
X58521Y-36242D02*
X58221Y-36242D01*
X58264Y-36271D01*
X58292Y-36300D01*
X58307Y-36328D01*
X58221Y-35900D02*
X58221Y-35957D01*
X58235Y-35985D01*
X58250Y-36000D01*
X58292Y-36028D01*
X58350Y-36042D01*
X58464Y-36042D01*
X58492Y-36028D01*
X58507Y-36014D01*
X58521Y-35985D01*
X58521Y-35928D01*
X58507Y-35900D01*
X58492Y-35885D01*
X58464Y-35871D01*
X58392Y-35871D01*
X58364Y-35885D01*
X58350Y-35900D01*
X58335Y-35928D01*
X58335Y-35985D01*
X58350Y-36014D01*
X58364Y-36028D01*
X58392Y-36042D01*
X59521Y-36442D02*
X59378Y-36542D01*
X59521Y-36614D02*
X59221Y-36614D01*
X59221Y-36500D01*
X59235Y-36471D01*
X59250Y-36457D01*
X59278Y-36442D01*
X59321Y-36442D01*
X59350Y-36457D01*
X59364Y-36471D01*
X59378Y-36500D01*
X59378Y-36614D01*
X59521Y-36157D02*
X59521Y-36328D01*
X59521Y-36242D02*
X59221Y-36242D01*
X59264Y-36271D01*
X59292Y-36300D01*
X59307Y-36328D01*
X59221Y-36057D02*
X59221Y-35857D01*
X59521Y-35985D01*
X62321Y-40392D02*
X62178Y-40492D01*
X62321Y-40564D02*
X62021Y-40564D01*
X62021Y-40450D01*
X62035Y-40421D01*
X62050Y-40407D01*
X62078Y-40392D01*
X62121Y-40392D01*
X62150Y-40407D01*
X62164Y-40421D01*
X62178Y-40450D01*
X62178Y-40564D01*
X62321Y-40107D02*
X62321Y-40278D01*
X62321Y-40192D02*
X62021Y-40192D01*
X62064Y-40221D01*
X62092Y-40250D01*
X62107Y-40278D01*
X62021Y-39835D02*
X62021Y-39978D01*
X62164Y-39992D01*
X62150Y-39978D01*
X62135Y-39950D01*
X62135Y-39878D01*
X62150Y-39850D01*
X62164Y-39835D01*
X62192Y-39821D01*
X62264Y-39821D01*
X62292Y-39835D01*
X62307Y-39850D01*
X62321Y-39878D01*
X62321Y-39950D01*
X62307Y-39978D01*
X62292Y-39992D01*
X63371Y-40392D02*
X63228Y-40492D01*
X63371Y-40564D02*
X63071Y-40564D01*
X63071Y-40450D01*
X63085Y-40421D01*
X63100Y-40407D01*
X63128Y-40392D01*
X63171Y-40392D01*
X63200Y-40407D01*
X63214Y-40421D01*
X63228Y-40450D01*
X63228Y-40564D01*
X63371Y-40107D02*
X63371Y-40278D01*
X63371Y-40192D02*
X63071Y-40192D01*
X63114Y-40221D01*
X63142Y-40250D01*
X63157Y-40278D01*
X63171Y-39850D02*
X63371Y-39850D01*
X63057Y-39921D02*
X63271Y-39992D01*
X63271Y-39807D01*
M02*
