G04 (created by PCBNEW (2013-07-07 BZR 4022)-stable) date 03/07/2014 16:21:05*
%MOIN*%
G04 Gerber Fmt 3.4, Leading zero omitted, Abs format*
%FSLAX34Y34*%
G01*
G70*
G90*
G04 APERTURE LIST*
%ADD10C,0.00590551*%
%ADD11C,0.011811*%
%ADD12C,0.0001*%
%ADD13R,0.0165X0.0579*%
%ADD14R,0.016X0.05*%
%ADD15R,0.025X0.05*%
%ADD16R,0.06X0.08*%
%ADD17R,0.08X0.06*%
%ADD18R,0.06X0.06*%
%ADD19C,0.06*%
%ADD20R,0.0984252X0.0984252*%
%ADD21C,0.0984252*%
%ADD22O,0.062X0.09*%
%ADD23R,0.062X0.09*%
%ADD24C,0.1437*%
%ADD25R,0.0591X0.0591*%
%ADD26C,0.0591*%
%ADD27C,0.0905512*%
%ADD28C,0.0787402*%
%ADD29C,0.035*%
%ADD30C,0.01*%
%ADD31C,0.02*%
%ADD32C,0.015*%
%ADD33C,0.012*%
%ADD34C,0.017*%
G04 APERTURE END LIST*
G54D10*
G54D11*
X33713Y-62897D02*
X33797Y-62925D01*
X33826Y-62953D01*
X33854Y-63009D01*
X33854Y-63094D01*
X33826Y-63150D01*
X33797Y-63178D01*
X33741Y-63206D01*
X33516Y-63206D01*
X33516Y-62616D01*
X33713Y-62616D01*
X33769Y-62644D01*
X33797Y-62672D01*
X33826Y-62728D01*
X33826Y-62784D01*
X33797Y-62841D01*
X33769Y-62869D01*
X33713Y-62897D01*
X33516Y-62897D01*
X34051Y-62813D02*
X34191Y-63206D01*
X34332Y-62813D02*
X34191Y-63206D01*
X34135Y-63347D01*
X34107Y-63375D01*
X34051Y-63403D01*
X35007Y-63206D02*
X35007Y-62616D01*
X35147Y-62616D01*
X35232Y-62644D01*
X35288Y-62700D01*
X35316Y-62756D01*
X35344Y-62869D01*
X35344Y-62953D01*
X35316Y-63066D01*
X35288Y-63122D01*
X35232Y-63178D01*
X35147Y-63206D01*
X35007Y-63206D01*
X35597Y-63206D02*
X35597Y-62813D01*
X35597Y-62616D02*
X35569Y-62644D01*
X35597Y-62672D01*
X35625Y-62644D01*
X35597Y-62616D01*
X35597Y-62672D01*
X36103Y-63178D02*
X36047Y-63206D01*
X35935Y-63206D01*
X35878Y-63178D01*
X35850Y-63122D01*
X35850Y-62897D01*
X35878Y-62841D01*
X35935Y-62813D01*
X36047Y-62813D01*
X36103Y-62841D01*
X36132Y-62897D01*
X36132Y-62953D01*
X35850Y-63009D01*
X36638Y-62813D02*
X36638Y-63291D01*
X36610Y-63347D01*
X36582Y-63375D01*
X36525Y-63403D01*
X36441Y-63403D01*
X36385Y-63375D01*
X36638Y-63178D02*
X36582Y-63206D01*
X36469Y-63206D01*
X36413Y-63178D01*
X36385Y-63150D01*
X36357Y-63094D01*
X36357Y-62925D01*
X36385Y-62869D01*
X36413Y-62841D01*
X36469Y-62813D01*
X36582Y-62813D01*
X36638Y-62841D01*
X37003Y-63206D02*
X36947Y-63178D01*
X36919Y-63150D01*
X36891Y-63094D01*
X36891Y-62925D01*
X36919Y-62869D01*
X36947Y-62841D01*
X37003Y-62813D01*
X37088Y-62813D01*
X37144Y-62841D01*
X37172Y-62869D01*
X37200Y-62925D01*
X37200Y-63094D01*
X37172Y-63150D01*
X37144Y-63178D01*
X37088Y-63206D01*
X37003Y-63206D01*
X38241Y-63206D02*
X38044Y-62925D01*
X37903Y-63206D02*
X37903Y-62616D01*
X38128Y-62616D01*
X38184Y-62644D01*
X38213Y-62672D01*
X38241Y-62728D01*
X38241Y-62813D01*
X38213Y-62869D01*
X38184Y-62897D01*
X38128Y-62925D01*
X37903Y-62925D01*
X38578Y-63206D02*
X38522Y-63178D01*
X38494Y-63150D01*
X38466Y-63094D01*
X38466Y-62925D01*
X38494Y-62869D01*
X38522Y-62841D01*
X38578Y-62813D01*
X38662Y-62813D01*
X38719Y-62841D01*
X38747Y-62869D01*
X38775Y-62925D01*
X38775Y-63094D01*
X38747Y-63150D01*
X38719Y-63178D01*
X38662Y-63206D01*
X38578Y-63206D01*
X39000Y-63178D02*
X39056Y-63206D01*
X39169Y-63206D01*
X39225Y-63178D01*
X39253Y-63122D01*
X39253Y-63094D01*
X39225Y-63038D01*
X39169Y-63009D01*
X39084Y-63009D01*
X39028Y-62981D01*
X39000Y-62925D01*
X39000Y-62897D01*
X39028Y-62841D01*
X39084Y-62813D01*
X39169Y-62813D01*
X39225Y-62841D01*
X39759Y-63206D02*
X39759Y-62897D01*
X39731Y-62841D01*
X39675Y-62813D01*
X39562Y-62813D01*
X39506Y-62841D01*
X39759Y-63178D02*
X39703Y-63206D01*
X39562Y-63206D01*
X39506Y-63178D01*
X39478Y-63122D01*
X39478Y-63066D01*
X39506Y-63009D01*
X39562Y-62981D01*
X39703Y-62981D01*
X39759Y-62953D01*
X40125Y-63206D02*
X40069Y-63178D01*
X40040Y-63122D01*
X40040Y-62616D01*
X40575Y-63178D02*
X40519Y-63206D01*
X40406Y-63206D01*
X40350Y-63178D01*
X40322Y-63122D01*
X40322Y-62897D01*
X40350Y-62841D01*
X40406Y-62813D01*
X40519Y-62813D01*
X40575Y-62841D01*
X40603Y-62897D01*
X40603Y-62953D01*
X40322Y-63009D01*
X40828Y-63178D02*
X40884Y-63206D01*
X40997Y-63206D01*
X41053Y-63178D01*
X41081Y-63122D01*
X41081Y-63094D01*
X41053Y-63038D01*
X40997Y-63009D01*
X40912Y-63009D01*
X40856Y-62981D01*
X40828Y-62925D01*
X40828Y-62897D01*
X40856Y-62841D01*
X40912Y-62813D01*
X40997Y-62813D01*
X41053Y-62841D01*
G54D12*
G36*
X50135Y-28568D02*
X50134Y-28748D01*
X50132Y-28873D01*
X50125Y-28952D01*
X50114Y-28998D01*
X50095Y-29020D01*
X50066Y-29030D01*
X50060Y-29032D01*
X49993Y-29045D01*
X49881Y-29067D01*
X49746Y-29093D01*
X49701Y-29102D01*
X49532Y-29135D01*
X49414Y-29165D01*
X49334Y-29203D01*
X49276Y-29261D01*
X49228Y-29348D01*
X49175Y-29476D01*
X49154Y-29528D01*
X49028Y-29847D01*
X49242Y-30157D01*
X49330Y-30285D01*
X49406Y-30396D01*
X49459Y-30476D01*
X49481Y-30510D01*
X49470Y-30555D01*
X49407Y-30642D01*
X49293Y-30770D01*
X49198Y-30869D01*
X49081Y-30985D01*
X48980Y-31083D01*
X48904Y-31151D01*
X48863Y-31183D01*
X48860Y-31184D01*
X48822Y-31166D01*
X48742Y-31118D01*
X48631Y-31047D01*
X48512Y-30967D01*
X48383Y-30882D01*
X48273Y-30812D01*
X48196Y-30766D01*
X48162Y-30751D01*
X48116Y-30765D01*
X48036Y-30800D01*
X47997Y-30819D01*
X47907Y-30858D01*
X47837Y-30874D01*
X47820Y-30873D01*
X47787Y-30835D01*
X47742Y-30754D01*
X47710Y-30679D01*
X47673Y-30587D01*
X47617Y-30449D01*
X47547Y-30279D01*
X47470Y-30092D01*
X47419Y-29967D01*
X47198Y-29434D01*
X47325Y-29334D01*
X47502Y-29180D01*
X47623Y-29031D01*
X47698Y-28872D01*
X47734Y-28687D01*
X47741Y-28524D01*
X47711Y-28291D01*
X47623Y-28087D01*
X47475Y-27910D01*
X47318Y-27788D01*
X47248Y-27746D01*
X47180Y-27720D01*
X47096Y-27707D01*
X46977Y-27701D01*
X46868Y-27701D01*
X46714Y-27702D01*
X46609Y-27710D01*
X46532Y-27727D01*
X46466Y-27758D01*
X46418Y-27788D01*
X46225Y-27944D01*
X46093Y-28121D01*
X46018Y-28326D01*
X45995Y-28552D01*
X46020Y-28794D01*
X46097Y-29000D01*
X46232Y-29179D01*
X46352Y-29284D01*
X46461Y-29374D01*
X46518Y-29440D01*
X46531Y-29491D01*
X46507Y-29536D01*
X46482Y-29580D01*
X46441Y-29669D01*
X46392Y-29784D01*
X46385Y-29801D01*
X46330Y-29937D01*
X46275Y-30069D01*
X46235Y-30167D01*
X46196Y-30261D01*
X46142Y-30392D01*
X46083Y-30537D01*
X46065Y-30580D01*
X46011Y-30705D01*
X45961Y-30805D01*
X45924Y-30864D01*
X45913Y-30874D01*
X45862Y-30868D01*
X45779Y-30838D01*
X45739Y-30819D01*
X45651Y-30778D01*
X45588Y-30753D01*
X45574Y-30751D01*
X45536Y-30768D01*
X45455Y-30816D01*
X45344Y-30887D01*
X45224Y-30967D01*
X45096Y-31053D01*
X44986Y-31122D01*
X44909Y-31169D01*
X44876Y-31184D01*
X44843Y-31161D01*
X44773Y-31100D01*
X44677Y-31007D01*
X44563Y-30894D01*
X44538Y-30869D01*
X44392Y-30715D01*
X44298Y-30603D01*
X44255Y-30533D01*
X44254Y-30510D01*
X44283Y-30467D01*
X44340Y-30381D01*
X44418Y-30267D01*
X44494Y-30157D01*
X44707Y-29847D01*
X44581Y-29528D01*
X44524Y-29385D01*
X44475Y-29285D01*
X44423Y-29220D01*
X44351Y-29176D01*
X44247Y-29145D01*
X44096Y-29114D01*
X44035Y-29102D01*
X43895Y-29075D01*
X43774Y-29051D01*
X43691Y-29035D01*
X43676Y-29032D01*
X43646Y-29023D01*
X43625Y-29004D01*
X43612Y-28964D01*
X43605Y-28892D01*
X43602Y-28777D01*
X43601Y-28609D01*
X43601Y-28568D01*
X43601Y-28378D01*
X43606Y-28243D01*
X43623Y-28153D01*
X43661Y-28097D01*
X43727Y-28063D01*
X43829Y-28041D01*
X43973Y-28019D01*
X43985Y-28018D01*
X44167Y-27989D01*
X44296Y-27963D01*
X44386Y-27930D01*
X44450Y-27883D01*
X44500Y-27812D01*
X44551Y-27711D01*
X44580Y-27647D01*
X44635Y-27518D01*
X44677Y-27407D01*
X44699Y-27330D01*
X44701Y-27315D01*
X44683Y-27261D01*
X44633Y-27169D01*
X44561Y-27055D01*
X44518Y-26992D01*
X44405Y-26834D01*
X44326Y-26720D01*
X44284Y-26634D01*
X44276Y-26565D01*
X44303Y-26497D01*
X44367Y-26419D01*
X44465Y-26315D01*
X44524Y-26254D01*
X44661Y-26113D01*
X44766Y-26019D01*
X44848Y-25968D01*
X44916Y-25954D01*
X44980Y-25973D01*
X45038Y-26011D01*
X45102Y-26057D01*
X45202Y-26128D01*
X45322Y-26212D01*
X45371Y-26245D01*
X45625Y-26419D01*
X45877Y-26318D01*
X45999Y-26271D01*
X46099Y-26236D01*
X46159Y-26218D01*
X46166Y-26217D01*
X46196Y-26203D01*
X46224Y-26154D01*
X46252Y-26063D01*
X46283Y-25920D01*
X46314Y-25751D01*
X46340Y-25604D01*
X46363Y-25476D01*
X46381Y-25385D01*
X46386Y-25359D01*
X46395Y-25329D01*
X46414Y-25309D01*
X46453Y-25295D01*
X46523Y-25288D01*
X46635Y-25285D01*
X46800Y-25284D01*
X46868Y-25284D01*
X47052Y-25284D01*
X47180Y-25287D01*
X47263Y-25292D01*
X47312Y-25303D01*
X47336Y-25321D01*
X47347Y-25348D01*
X47350Y-25359D01*
X47362Y-25424D01*
X47383Y-25535D01*
X47408Y-25675D01*
X47421Y-25751D01*
X47457Y-25943D01*
X47488Y-26078D01*
X47516Y-26163D01*
X47544Y-26207D01*
X47570Y-26217D01*
X47616Y-26229D01*
X47707Y-26260D01*
X47825Y-26305D01*
X47859Y-26318D01*
X48111Y-26419D01*
X48364Y-26245D01*
X48487Y-26161D01*
X48598Y-26083D01*
X48678Y-26026D01*
X48697Y-26011D01*
X48766Y-25968D01*
X48831Y-25954D01*
X48900Y-25973D01*
X48985Y-26032D01*
X49095Y-26133D01*
X49212Y-26254D01*
X49327Y-26374D01*
X49407Y-26463D01*
X49451Y-26534D01*
X49460Y-26600D01*
X49434Y-26677D01*
X49372Y-26776D01*
X49275Y-26912D01*
X49218Y-26992D01*
X49138Y-27112D01*
X49075Y-27217D01*
X49040Y-27292D01*
X49035Y-27315D01*
X49048Y-27373D01*
X49083Y-27473D01*
X49134Y-27597D01*
X49155Y-27647D01*
X49211Y-27766D01*
X49260Y-27851D01*
X49315Y-27909D01*
X49390Y-27948D01*
X49498Y-27976D01*
X49653Y-28003D01*
X49751Y-28018D01*
X49899Y-28040D01*
X50003Y-28062D01*
X50071Y-28094D01*
X50110Y-28149D01*
X50129Y-28236D01*
X50134Y-28367D01*
X50135Y-28554D01*
X50135Y-28568D01*
X50135Y-28568D01*
X50135Y-28568D01*
G37*
G54D13*
X47685Y-36869D03*
X47941Y-36869D03*
X48197Y-36869D03*
X48453Y-36869D03*
X48453Y-34665D03*
X46917Y-36869D03*
X47173Y-36869D03*
X47429Y-36869D03*
X48197Y-34665D03*
X47941Y-34665D03*
X47685Y-34665D03*
X47429Y-34665D03*
X47173Y-34665D03*
X46917Y-34665D03*
G54D14*
X50535Y-36817D03*
X50785Y-36817D03*
X51045Y-36817D03*
X51305Y-36817D03*
X51555Y-36817D03*
X51815Y-36817D03*
X52075Y-36817D03*
X52325Y-36817D03*
X52585Y-36817D03*
X52835Y-36817D03*
X52835Y-34717D03*
X52585Y-34717D03*
X52325Y-34717D03*
X52075Y-34717D03*
X51815Y-34717D03*
X51555Y-34717D03*
X51305Y-34717D03*
X51045Y-34717D03*
X50785Y-34717D03*
X50535Y-34717D03*
G54D15*
X44685Y-52917D03*
X44185Y-52917D03*
X43685Y-52917D03*
X43185Y-52917D03*
X43185Y-55117D03*
X43685Y-55117D03*
X44185Y-55117D03*
X44685Y-55117D03*
G54D16*
X26785Y-34517D03*
X28085Y-34517D03*
X45335Y-38817D03*
X44035Y-38817D03*
X50035Y-43767D03*
X51335Y-43767D03*
X35535Y-34517D03*
X36835Y-34517D03*
X54285Y-33767D03*
X55585Y-33767D03*
X54285Y-34767D03*
X55585Y-34767D03*
X37335Y-40017D03*
X36035Y-40017D03*
G54D17*
X46685Y-39367D03*
X46685Y-40667D03*
X49685Y-39367D03*
X49685Y-40667D03*
G54D16*
X54285Y-37767D03*
X55585Y-37767D03*
X31285Y-34517D03*
X32585Y-34517D03*
G54D17*
X48685Y-39367D03*
X48685Y-40667D03*
X47685Y-39367D03*
X47685Y-40667D03*
G54D16*
X54285Y-35767D03*
X55585Y-35767D03*
X54285Y-36767D03*
X55585Y-36767D03*
X45335Y-37817D03*
X44035Y-37817D03*
X54285Y-38767D03*
X55585Y-38767D03*
G54D17*
X42935Y-61417D03*
X42935Y-60117D03*
G54D16*
X42785Y-59017D03*
X44085Y-59017D03*
G54D17*
X43935Y-60117D03*
X43935Y-61417D03*
X39935Y-61417D03*
X39935Y-60117D03*
G54D16*
X39785Y-59017D03*
X41085Y-59017D03*
G54D17*
X40935Y-60117D03*
X40935Y-61417D03*
G54D16*
X26785Y-40767D03*
X28085Y-40767D03*
X31835Y-39267D03*
X30535Y-39267D03*
X32835Y-41517D03*
X31535Y-41517D03*
X32835Y-40517D03*
X31535Y-40517D03*
X29035Y-34517D03*
X30335Y-34517D03*
X34085Y-39267D03*
X32785Y-39267D03*
G54D17*
X36185Y-42417D03*
X36185Y-41117D03*
X37185Y-42417D03*
X37185Y-41117D03*
G54D16*
X26785Y-49767D03*
X28085Y-49767D03*
G54D17*
X40185Y-48367D03*
X40185Y-49667D03*
X39185Y-48367D03*
X39185Y-49667D03*
X35185Y-48367D03*
X35185Y-49667D03*
X48185Y-48367D03*
X48185Y-49667D03*
X44185Y-48367D03*
X44185Y-49667D03*
G54D16*
X37785Y-34517D03*
X39085Y-34517D03*
G54D17*
X35185Y-41117D03*
X35185Y-42417D03*
G54D16*
X40035Y-34517D03*
X41335Y-34517D03*
G54D18*
X60285Y-42667D03*
G54D19*
X59285Y-42667D03*
G54D18*
X26950Y-36000D03*
G54D19*
X27950Y-36000D03*
G54D18*
X35700Y-35750D03*
G54D19*
X36700Y-35750D03*
G54D18*
X60285Y-40667D03*
G54D19*
X59285Y-40667D03*
G54D18*
X60285Y-41667D03*
G54D19*
X59285Y-41667D03*
G54D18*
X60285Y-43667D03*
G54D19*
X59285Y-43667D03*
G54D18*
X61685Y-31767D03*
G54D19*
X55685Y-31767D03*
X60685Y-31767D03*
X54685Y-31767D03*
X59685Y-31767D03*
X53685Y-31767D03*
X58685Y-31767D03*
X52685Y-31767D03*
X57685Y-31767D03*
X51685Y-31767D03*
X56685Y-31767D03*
X50685Y-31767D03*
X49685Y-31767D03*
X48685Y-31767D03*
X47685Y-31767D03*
X46685Y-31767D03*
X50685Y-30767D03*
X51685Y-30767D03*
X52685Y-30767D03*
X53685Y-30767D03*
X58685Y-30767D03*
X59685Y-30767D03*
X60685Y-30767D03*
X61685Y-30767D03*
G54D18*
X61685Y-52767D03*
G54D19*
X55685Y-52767D03*
X60685Y-52767D03*
X54685Y-52767D03*
X59685Y-52767D03*
X53685Y-52767D03*
X58685Y-52767D03*
X52685Y-52767D03*
X57685Y-52767D03*
X51685Y-52767D03*
X56685Y-52767D03*
X50685Y-52767D03*
X49685Y-52767D03*
X48685Y-52767D03*
X47685Y-52767D03*
X46685Y-52767D03*
X50685Y-51767D03*
X51685Y-51767D03*
X52685Y-51767D03*
X53685Y-51767D03*
X58685Y-51767D03*
X59685Y-51767D03*
X60685Y-51767D03*
X61685Y-51767D03*
G54D20*
X42224Y-25885D03*
X42224Y-28248D03*
X42224Y-30610D03*
G54D21*
X35433Y-25885D03*
X35433Y-28248D03*
X35433Y-30610D03*
G54D20*
X33562Y-25885D03*
X33562Y-28248D03*
X33562Y-30610D03*
G54D21*
X26771Y-25885D03*
X26771Y-28248D03*
X26771Y-30610D03*
G54D20*
X56330Y-62940D03*
X56330Y-60578D03*
X56330Y-58216D03*
G54D21*
X63122Y-62940D03*
X63122Y-60578D03*
X63122Y-58216D03*
G54D20*
X47830Y-62940D03*
X47830Y-60578D03*
X47830Y-58216D03*
G54D21*
X54622Y-62940D03*
X54622Y-60578D03*
X54622Y-58216D03*
G54D22*
X47185Y-43767D03*
X46185Y-43767D03*
X45185Y-43767D03*
X44185Y-43767D03*
X43185Y-43767D03*
X42185Y-43767D03*
X41185Y-43767D03*
X40185Y-43767D03*
X39185Y-43767D03*
X38185Y-43767D03*
X37185Y-43767D03*
X36185Y-43767D03*
X35185Y-43767D03*
G54D23*
X48185Y-43767D03*
G54D22*
X35185Y-46767D03*
X36185Y-46767D03*
X37185Y-46767D03*
X38185Y-46767D03*
X39185Y-46767D03*
X40185Y-46767D03*
X41185Y-46767D03*
X42185Y-46767D03*
X43185Y-46767D03*
X44185Y-46767D03*
X45185Y-46767D03*
X46185Y-46767D03*
X47185Y-46767D03*
X48185Y-46767D03*
G54D18*
X46685Y-53767D03*
G54D19*
X52685Y-53767D03*
X47685Y-53767D03*
X53685Y-53767D03*
X48685Y-53767D03*
X54685Y-53767D03*
X49685Y-53767D03*
X55685Y-53767D03*
X50685Y-53767D03*
X56685Y-53767D03*
X51685Y-53767D03*
X57685Y-53767D03*
X58685Y-53767D03*
X59685Y-53767D03*
X60685Y-53767D03*
X61685Y-53767D03*
X57685Y-54767D03*
X56685Y-54767D03*
X55685Y-54767D03*
X54685Y-54767D03*
X49685Y-54767D03*
X48685Y-54767D03*
X47685Y-54767D03*
X46685Y-54767D03*
G54D18*
X33300Y-37500D03*
G54D19*
X32300Y-37500D03*
X31300Y-37500D03*
G54D18*
X45450Y-58150D03*
G54D19*
X45450Y-57150D03*
X45450Y-56150D03*
G54D24*
X28685Y-47517D03*
X28685Y-43017D03*
G54D25*
X31185Y-43517D03*
G54D26*
X32185Y-44017D03*
X31185Y-44517D03*
X32185Y-45017D03*
X31185Y-45517D03*
X32185Y-46017D03*
X31185Y-46517D03*
X32185Y-47017D03*
X27085Y-42667D03*
X27085Y-43642D03*
X27085Y-46867D03*
X27085Y-47867D03*
G54D27*
X29885Y-42217D03*
X29885Y-48317D03*
G54D28*
X60715Y-33476D03*
X63077Y-33476D03*
X60715Y-35248D03*
X63077Y-35248D03*
X60715Y-36626D03*
X63077Y-36626D03*
X60715Y-38398D03*
X63077Y-38398D03*
G54D17*
X57700Y-33450D03*
X57700Y-34750D03*
X58700Y-33450D03*
X58700Y-34750D03*
X58400Y-35600D03*
X58400Y-36900D03*
X59400Y-35600D03*
X59400Y-36900D03*
X62200Y-39550D03*
X62200Y-40850D03*
X63250Y-39550D03*
X63250Y-40850D03*
G54D29*
X50135Y-33317D03*
X45535Y-32317D03*
X58485Y-48417D03*
X49285Y-38067D03*
X49485Y-36867D03*
X52385Y-38067D03*
X51585Y-48417D03*
X50535Y-48417D03*
X53285Y-38067D03*
X51085Y-38067D03*
X52935Y-50767D03*
X51935Y-41017D03*
X52685Y-42767D03*
X50635Y-50717D03*
X51950Y-32800D03*
X50000Y-36350D03*
X51050Y-37450D03*
X42935Y-51267D03*
X43185Y-50767D03*
X55500Y-32850D03*
X51835Y-44667D03*
X51485Y-35867D03*
X46685Y-36067D03*
X44935Y-49767D03*
X42435Y-54267D03*
X38935Y-61517D03*
X44935Y-61517D03*
X29185Y-49767D03*
X50685Y-40767D03*
X43935Y-37267D03*
X49185Y-49767D03*
X40935Y-49767D03*
X36185Y-49767D03*
X35685Y-39267D03*
X28185Y-39767D03*
X56435Y-34767D03*
X56435Y-36767D03*
X56435Y-38767D03*
X41185Y-33517D03*
X32685Y-33517D03*
X43185Y-56767D03*
X43185Y-58017D03*
X45550Y-59650D03*
X35935Y-45517D03*
X33400Y-36200D03*
X56385Y-35917D03*
X52835Y-35717D03*
G54D30*
X50535Y-34717D02*
X50535Y-34267D01*
X50835Y-33967D02*
X52325Y-33967D01*
X50535Y-34267D02*
X50835Y-33967D01*
X48185Y-46767D02*
X48185Y-48367D01*
X50535Y-36817D02*
X49535Y-36817D01*
X49535Y-36817D02*
X49485Y-36867D01*
X52325Y-36817D02*
X52325Y-38007D01*
X52325Y-38007D02*
X52385Y-38067D01*
G54D31*
X49685Y-39367D02*
X49685Y-38467D01*
X49685Y-38467D02*
X49285Y-38067D01*
X48185Y-48367D02*
X50485Y-48367D01*
X51685Y-48517D02*
X51685Y-51767D01*
X51585Y-48417D02*
X51685Y-48517D01*
X50485Y-48367D02*
X50535Y-48417D01*
G54D32*
X54285Y-33767D02*
X54285Y-33367D01*
X55185Y-32467D02*
X55185Y-30667D01*
X54285Y-33367D02*
X55185Y-32467D01*
X49285Y-38067D02*
X51085Y-38067D01*
X53585Y-37767D02*
X54285Y-37767D01*
X53285Y-38067D02*
X53585Y-37767D01*
X47885Y-38067D02*
X49285Y-38067D01*
G54D30*
X47685Y-37867D02*
X47885Y-38067D01*
X47685Y-36869D02*
X47685Y-37867D01*
G54D32*
X52325Y-34717D02*
X52325Y-33967D01*
X52325Y-33967D02*
X52325Y-32407D01*
X52185Y-31267D02*
X51685Y-30767D01*
X52185Y-32267D02*
X52185Y-31267D01*
X52325Y-32407D02*
X52185Y-32267D01*
G54D33*
X62200Y-40850D02*
X62200Y-50600D01*
X62200Y-50600D02*
X62250Y-50650D01*
X62200Y-40850D02*
X63250Y-40850D01*
X50685Y-51767D02*
X50685Y-52057D01*
X59185Y-52267D02*
X58685Y-51767D01*
X59185Y-53117D02*
X59185Y-52267D01*
X59035Y-53267D02*
X59185Y-53117D01*
X51285Y-53267D02*
X59035Y-53267D01*
X51235Y-53317D02*
X51285Y-53267D01*
X51235Y-52607D02*
X51235Y-53317D01*
X50685Y-52057D02*
X51235Y-52607D01*
G54D32*
X46685Y-39767D02*
X46935Y-40017D01*
X46935Y-40017D02*
X50935Y-40017D01*
X50935Y-40017D02*
X51935Y-41017D01*
X52685Y-42767D02*
X52935Y-43017D01*
X52935Y-43017D02*
X52935Y-50767D01*
X46685Y-39367D02*
X46685Y-39767D01*
X46685Y-39367D02*
X46685Y-38767D01*
X47429Y-38023D02*
X47429Y-36869D01*
X46685Y-38767D02*
X47429Y-38023D01*
X46685Y-39367D02*
X47685Y-39367D01*
G54D33*
X51045Y-36817D02*
X51045Y-37445D01*
X51550Y-32800D02*
X51950Y-32800D01*
X50000Y-34350D02*
X51550Y-32800D01*
X50000Y-36350D02*
X50000Y-34350D01*
X51045Y-37445D02*
X51050Y-37450D01*
G54D32*
X47685Y-34665D02*
X47685Y-31767D01*
X47941Y-34665D02*
X47941Y-33761D01*
X48685Y-33017D02*
X48685Y-31767D01*
X47941Y-33761D02*
X48685Y-33017D01*
X47429Y-34665D02*
X47429Y-33761D01*
G54D33*
X46685Y-33017D02*
X46685Y-31767D01*
G54D32*
X47429Y-33761D02*
X46685Y-33017D01*
X48453Y-34665D02*
X48453Y-33871D01*
X50557Y-31767D02*
X50685Y-31767D01*
X48453Y-33871D02*
X50557Y-31767D01*
X52935Y-36767D02*
X52885Y-36767D01*
X52685Y-32267D02*
X53435Y-33017D01*
X53435Y-33017D02*
X53435Y-36267D01*
X53435Y-36267D02*
X52935Y-36767D01*
X52685Y-31767D02*
X52685Y-32267D01*
X52885Y-36767D02*
X52835Y-36817D01*
X48197Y-34665D02*
X48197Y-33816D01*
X49685Y-32328D02*
X49685Y-31767D01*
X48197Y-33816D02*
X49685Y-32328D01*
X48453Y-36869D02*
X48453Y-36749D01*
X50935Y-32517D02*
X51685Y-31767D01*
X50185Y-32517D02*
X50935Y-32517D01*
X48935Y-33767D02*
X50185Y-32517D01*
X48935Y-36267D02*
X48935Y-33767D01*
X48453Y-36749D02*
X48935Y-36267D01*
X39085Y-34517D02*
X39085Y-33867D01*
X47173Y-34005D02*
X47173Y-34665D01*
X46185Y-33017D02*
X47173Y-34005D01*
X39935Y-33017D02*
X46185Y-33017D01*
X39085Y-33867D02*
X39935Y-33017D01*
G54D34*
X39085Y-34517D02*
X40035Y-34517D01*
G54D32*
X46917Y-34665D02*
X46917Y-35035D01*
X31285Y-35117D02*
X31285Y-34517D01*
X32935Y-36767D02*
X31285Y-35117D01*
X37185Y-36767D02*
X32935Y-36767D01*
X38685Y-35267D02*
X37185Y-36767D01*
X46685Y-35267D02*
X38685Y-35267D01*
X46917Y-35035D02*
X46685Y-35267D01*
G54D34*
X30335Y-34517D02*
X31285Y-34517D01*
G54D32*
X43685Y-52917D02*
X43685Y-52517D01*
X47715Y-51797D02*
X48685Y-52767D01*
X44405Y-51797D02*
X47715Y-51797D01*
X43685Y-52517D02*
X44405Y-51797D01*
X43185Y-52917D02*
X43185Y-52267D01*
X48495Y-51577D02*
X49685Y-52767D01*
X43875Y-51577D02*
X48495Y-51577D01*
X43185Y-52267D02*
X43875Y-51577D01*
X44185Y-52917D02*
X44185Y-52767D01*
X46935Y-52017D02*
X47685Y-52767D01*
X44935Y-52017D02*
X46935Y-52017D01*
X44685Y-52267D02*
X44935Y-52017D01*
X44185Y-52767D02*
X44685Y-52267D01*
X44685Y-52917D02*
X46535Y-52917D01*
X46535Y-52917D02*
X46685Y-52767D01*
X43185Y-46767D02*
X43185Y-50017D01*
X48685Y-50767D02*
X50685Y-52767D01*
X43935Y-50767D02*
X48685Y-50767D01*
X43185Y-50017D02*
X43935Y-50767D01*
G54D30*
X40185Y-43767D02*
X40185Y-43517D01*
X57685Y-45758D02*
X57685Y-52767D01*
X53464Y-41537D02*
X57685Y-45758D01*
X42165Y-41537D02*
X53464Y-41537D01*
X40185Y-43517D02*
X42165Y-41537D01*
G54D32*
X45185Y-43767D02*
X45185Y-44767D01*
X51185Y-52267D02*
X51685Y-52767D01*
X51185Y-47017D02*
X51185Y-52267D01*
X49685Y-45517D02*
X51185Y-47017D01*
X45935Y-45517D02*
X49685Y-45517D01*
X45185Y-44767D02*
X45935Y-45517D01*
X27085Y-46867D02*
X27117Y-46867D01*
X27700Y-48167D02*
X28800Y-49267D01*
X27700Y-47450D02*
X27700Y-48167D01*
X27117Y-46867D02*
X27700Y-47450D01*
X42655Y-50987D02*
X42935Y-51267D01*
X31155Y-50987D02*
X42655Y-50987D01*
X30935Y-50767D02*
X31155Y-50987D01*
X30935Y-50517D02*
X30935Y-50767D01*
X29685Y-49267D02*
X30935Y-50517D01*
X28800Y-49267D02*
X29685Y-49267D01*
G54D34*
X27085Y-42642D02*
X27085Y-42735D01*
X27608Y-43258D02*
X27608Y-44691D01*
X27085Y-42735D02*
X27608Y-43258D01*
G54D32*
X31185Y-48267D02*
X27608Y-44691D01*
X31185Y-50517D02*
X31185Y-48267D01*
X31435Y-50767D02*
X31185Y-50517D01*
X43185Y-50767D02*
X31435Y-50767D01*
G54D30*
X43185Y-43767D02*
X43185Y-43617D01*
X54685Y-43479D02*
X54685Y-52767D01*
X53273Y-42067D02*
X54685Y-43479D01*
X44735Y-42067D02*
X53273Y-42067D01*
X43185Y-43617D02*
X44735Y-42067D01*
X42185Y-43767D02*
X42185Y-43467D01*
X55685Y-44238D02*
X55685Y-52767D01*
X53323Y-41877D02*
X55685Y-44238D01*
X43775Y-41877D02*
X53323Y-41877D01*
X42185Y-43467D02*
X43775Y-41877D01*
G54D33*
X58085Y-45917D02*
X58085Y-52167D01*
X58085Y-52167D02*
X58685Y-52767D01*
G54D30*
X39185Y-43767D02*
X39185Y-43567D01*
X53535Y-41367D02*
X58085Y-45917D01*
X41385Y-41367D02*
X53535Y-41367D01*
X39185Y-43567D02*
X41385Y-41367D01*
X41185Y-43767D02*
X41185Y-43267D01*
X56685Y-44998D02*
X56685Y-52767D01*
X53394Y-41707D02*
X56685Y-44998D01*
X42745Y-41707D02*
X53394Y-41707D01*
X41185Y-43267D02*
X42745Y-41707D01*
G54D33*
X57700Y-33450D02*
X57100Y-33450D01*
X56500Y-32850D02*
X55500Y-32850D01*
X57100Y-33450D02*
X56500Y-32850D01*
X55685Y-31767D02*
X55685Y-31935D01*
X58700Y-33000D02*
X58700Y-33450D01*
X58350Y-32650D02*
X58700Y-33000D01*
X56400Y-32650D02*
X58350Y-32650D01*
X55685Y-31935D02*
X56400Y-32650D01*
X63250Y-39550D02*
X63550Y-39550D01*
X63900Y-34298D02*
X63077Y-33476D01*
X63900Y-39200D02*
X63900Y-34298D01*
X63550Y-39550D02*
X63900Y-39200D01*
X57685Y-31767D02*
X57685Y-31935D01*
X59509Y-32269D02*
X60715Y-33476D01*
X58019Y-32269D02*
X59509Y-32269D01*
X57685Y-31935D02*
X58019Y-32269D01*
X60715Y-33476D02*
X63077Y-33476D01*
X62200Y-39550D02*
X62200Y-37026D01*
X62200Y-37026D02*
X61800Y-36626D01*
X56685Y-31767D02*
X56685Y-31885D01*
X61800Y-35100D02*
X61800Y-36626D01*
X61250Y-34550D02*
X61800Y-35100D01*
X60550Y-34550D02*
X61250Y-34550D01*
X59900Y-33900D02*
X60550Y-34550D01*
X59900Y-33400D02*
X59900Y-33900D01*
X58959Y-32459D02*
X59900Y-33400D01*
X57259Y-32459D02*
X58959Y-32459D01*
X56685Y-31885D02*
X57259Y-32459D01*
X60715Y-36626D02*
X61800Y-36626D01*
X61800Y-36626D02*
X63077Y-36626D01*
X59400Y-36900D02*
X59400Y-37082D01*
X59400Y-37082D02*
X60715Y-38398D01*
X58400Y-36900D02*
X59400Y-36900D01*
G54D30*
X51335Y-43767D02*
X51335Y-44167D01*
X51335Y-44167D02*
X51835Y-44667D01*
G54D32*
X51555Y-34717D02*
X51305Y-34717D01*
X51305Y-34717D02*
X51305Y-35687D01*
G54D30*
X51485Y-35867D02*
X51485Y-36217D01*
G54D32*
X51305Y-35687D02*
X51485Y-35867D01*
G54D30*
X47173Y-36279D02*
X46897Y-36279D01*
X46897Y-36279D02*
X46685Y-36067D01*
X52585Y-36817D02*
X52585Y-36417D01*
X51305Y-36397D02*
X51305Y-36817D01*
X51435Y-36267D02*
X51485Y-36217D01*
X51485Y-36217D02*
X51305Y-36397D01*
X52435Y-36267D02*
X51435Y-36267D01*
X52585Y-36417D02*
X52435Y-36267D01*
G54D32*
X44935Y-49767D02*
X48085Y-49767D01*
X44835Y-49667D02*
X44935Y-49767D01*
X44185Y-49667D02*
X44835Y-49667D01*
X48085Y-49767D02*
X48185Y-49667D01*
X43685Y-55117D02*
X43685Y-54517D01*
X43435Y-54267D02*
X42435Y-54267D01*
X43685Y-54517D02*
X43435Y-54267D01*
X39935Y-61417D02*
X39035Y-61417D01*
X39035Y-61417D02*
X38935Y-61517D01*
X43935Y-61417D02*
X44835Y-61417D01*
X44835Y-61417D02*
X44935Y-61517D01*
X42935Y-61417D02*
X43935Y-61417D01*
X40935Y-61417D02*
X42935Y-61417D01*
X39935Y-61417D02*
X40935Y-61417D01*
X28085Y-49767D02*
X29185Y-49767D01*
X49685Y-40667D02*
X50585Y-40667D01*
X50585Y-40667D02*
X50685Y-40767D01*
X48685Y-40667D02*
X49685Y-40667D01*
X47685Y-40667D02*
X48685Y-40667D01*
X46685Y-40667D02*
X47685Y-40667D01*
X44035Y-38017D02*
X44035Y-37367D01*
X44035Y-37367D02*
X43935Y-37267D01*
X44035Y-38017D02*
X44035Y-39017D01*
X47173Y-36869D02*
X47173Y-36279D01*
X47941Y-36273D02*
X47941Y-36869D01*
X47685Y-36017D02*
X47941Y-36273D01*
X47435Y-36017D02*
X47685Y-36017D01*
X47173Y-36279D02*
X47435Y-36017D01*
X48185Y-49667D02*
X49085Y-49667D01*
X49085Y-49667D02*
X49185Y-49767D01*
X40185Y-49667D02*
X40835Y-49667D01*
X40835Y-49667D02*
X40935Y-49767D01*
X39185Y-49667D02*
X40185Y-49667D01*
X35185Y-49667D02*
X36085Y-49667D01*
X36085Y-49667D02*
X36185Y-49767D01*
X36035Y-40017D02*
X36035Y-39617D01*
X36035Y-39617D02*
X35685Y-39267D01*
X36035Y-40017D02*
X35685Y-40017D01*
X35185Y-40517D02*
X35185Y-41117D01*
X35685Y-40017D02*
X35185Y-40517D01*
X28085Y-40767D02*
X28085Y-39867D01*
X28085Y-39867D02*
X28185Y-39767D01*
X28085Y-40767D02*
X29035Y-40767D01*
X29035Y-40767D02*
X30535Y-39267D01*
X55585Y-34767D02*
X56435Y-34767D01*
X55585Y-36767D02*
X56435Y-36767D01*
X55585Y-38767D02*
X56435Y-38767D01*
X55585Y-37767D02*
X55585Y-38767D01*
X55585Y-36767D02*
X55585Y-37767D01*
X55585Y-35767D02*
X55585Y-36767D01*
X55585Y-34767D02*
X55585Y-35767D01*
X55585Y-33767D02*
X55585Y-34767D01*
G54D34*
X41335Y-34517D02*
X41335Y-33667D01*
X41335Y-33667D02*
X41185Y-33517D01*
X32585Y-34517D02*
X32585Y-33617D01*
X32585Y-33617D02*
X32685Y-33517D01*
G54D30*
X51555Y-36817D02*
X51555Y-38437D01*
X56785Y-43667D02*
X59285Y-43667D01*
X51555Y-38437D02*
X56785Y-43667D01*
X52075Y-36817D02*
X52075Y-38476D01*
X55265Y-41667D02*
X59285Y-41667D01*
X52075Y-38476D02*
X55265Y-41667D01*
G54D34*
X45450Y-56150D02*
X48900Y-56150D01*
X48900Y-56150D02*
X50966Y-58216D01*
X50966Y-58216D02*
X54622Y-58216D01*
G54D32*
X42785Y-59017D02*
X42785Y-58417D01*
X44685Y-55767D02*
X44685Y-55117D01*
X44185Y-56267D02*
X44685Y-55767D01*
X43685Y-56267D02*
X44185Y-56267D01*
X43185Y-56767D02*
X43685Y-56267D01*
X42785Y-58417D02*
X43185Y-58017D01*
X42935Y-60117D02*
X42935Y-59167D01*
X42935Y-59167D02*
X42785Y-59017D01*
X39785Y-59017D02*
X39785Y-58667D01*
X43185Y-55517D02*
X43185Y-55117D01*
X42435Y-56267D02*
X43185Y-55517D01*
X42185Y-56267D02*
X42435Y-56267D01*
X39785Y-58667D02*
X42185Y-56267D01*
X39785Y-59017D02*
X39785Y-59967D01*
X39785Y-59967D02*
X39935Y-60117D01*
G54D34*
X61950Y-61750D02*
X63122Y-60578D01*
X46850Y-61750D02*
X61950Y-61750D01*
X45600Y-60500D02*
X46850Y-61750D01*
X45600Y-59700D02*
X45600Y-60500D01*
X45550Y-59650D02*
X45600Y-59700D01*
X41085Y-59017D02*
X41085Y-58464D01*
X42400Y-57150D02*
X45450Y-57150D01*
X41085Y-58464D02*
X42400Y-57150D01*
G54D32*
X40935Y-60117D02*
X40935Y-59167D01*
X40935Y-59167D02*
X41085Y-59017D01*
X44085Y-59017D02*
X46685Y-59017D01*
X61820Y-59517D02*
X63122Y-58216D01*
X47185Y-59517D02*
X61820Y-59517D01*
X46685Y-59017D02*
X47185Y-59517D01*
X43935Y-60117D02*
X43935Y-59167D01*
X43935Y-59167D02*
X44085Y-59017D01*
G54D33*
X58700Y-34750D02*
X59100Y-34750D01*
X59400Y-35050D02*
X59400Y-35600D01*
X59100Y-34750D02*
X59400Y-35050D01*
X57700Y-34750D02*
X57700Y-34900D01*
X57700Y-34900D02*
X58400Y-35600D01*
G54D34*
X26785Y-40767D02*
X26785Y-41264D01*
X26350Y-42907D02*
X27085Y-43642D01*
X26350Y-41700D02*
X26350Y-42907D01*
X26785Y-41264D02*
X26350Y-41700D01*
G54D32*
X26785Y-49767D02*
X26785Y-48167D01*
X26785Y-48167D02*
X27085Y-47867D01*
X37335Y-40017D02*
X37335Y-40967D01*
X37335Y-40967D02*
X37185Y-41117D01*
X36185Y-41117D02*
X37185Y-41117D01*
X32185Y-46017D02*
X32435Y-46017D01*
X32935Y-45517D02*
X35935Y-45517D01*
X32435Y-46017D02*
X32935Y-45517D01*
X36185Y-42417D02*
X36185Y-43767D01*
X31185Y-43517D02*
X31185Y-41867D01*
X31185Y-41867D02*
X31535Y-41517D01*
X31185Y-44517D02*
X30935Y-44517D01*
X37185Y-47767D02*
X37185Y-46767D01*
X35935Y-49017D02*
X37185Y-47767D01*
X32685Y-49017D02*
X35935Y-49017D01*
X30435Y-46767D02*
X32685Y-49017D01*
X30435Y-45017D02*
X30435Y-46767D01*
X30935Y-44517D02*
X30435Y-45017D01*
X31185Y-44517D02*
X30685Y-44517D01*
X30685Y-41367D02*
X31535Y-40517D01*
X30685Y-42517D02*
X30685Y-41367D01*
X30435Y-42767D02*
X30685Y-42517D01*
X30435Y-44267D02*
X30435Y-42767D01*
X30685Y-44517D02*
X30435Y-44267D01*
G54D30*
X50035Y-43767D02*
X48185Y-43767D01*
G54D32*
X35185Y-42417D02*
X35185Y-43767D01*
X44185Y-48367D02*
X44185Y-46767D01*
X32185Y-45017D02*
X36435Y-45017D01*
X37185Y-44267D02*
X37185Y-43767D01*
X36435Y-45017D02*
X37185Y-44267D01*
X37185Y-42417D02*
X37185Y-43767D01*
X32185Y-44017D02*
X32185Y-42167D01*
X32185Y-42167D02*
X32835Y-41517D01*
X32835Y-40517D02*
X32835Y-41517D01*
X32785Y-39267D02*
X32785Y-40467D01*
X32785Y-40467D02*
X32835Y-40517D01*
X31835Y-39267D02*
X32785Y-39267D01*
G54D34*
X35535Y-34517D02*
X35535Y-30712D01*
X35535Y-30712D02*
X35433Y-30610D01*
X35685Y-35767D02*
X35685Y-34667D01*
X35685Y-34667D02*
X35535Y-34517D01*
X34500Y-29181D02*
X35433Y-28248D01*
X34500Y-35100D02*
X34500Y-29181D01*
X33400Y-36200D02*
X34500Y-35100D01*
X26771Y-30610D02*
X27210Y-30610D01*
X29700Y-35900D02*
X31300Y-37500D01*
X29700Y-33100D02*
X29700Y-35900D01*
X27210Y-30610D02*
X29700Y-33100D01*
X32300Y-37500D02*
X32200Y-37500D01*
X29050Y-38100D02*
X26950Y-36000D01*
X31600Y-38100D02*
X29050Y-38100D01*
X32200Y-37500D02*
X31600Y-38100D01*
X26950Y-36000D02*
X26950Y-34682D01*
X26950Y-34682D02*
X26785Y-34517D01*
G54D30*
X51815Y-36817D02*
X51815Y-38457D01*
X56025Y-42667D02*
X59285Y-42667D01*
X51815Y-38457D02*
X56025Y-42667D01*
X52585Y-34717D02*
X52585Y-35467D01*
X59285Y-38817D02*
X59285Y-40667D01*
X56385Y-35917D02*
X59285Y-38817D01*
X52585Y-35467D02*
X52835Y-35717D01*
G54D32*
X45335Y-38017D02*
X46185Y-38017D01*
X46917Y-37285D02*
X46917Y-36869D01*
X46185Y-38017D02*
X46917Y-37285D01*
X45335Y-38017D02*
X45335Y-39017D01*
G54D34*
X36835Y-34517D02*
X37785Y-34517D01*
X28085Y-34517D02*
X29035Y-34517D01*
G54D32*
X48197Y-36869D02*
X48197Y-37279D01*
X50785Y-37167D02*
X50785Y-36817D01*
X50435Y-37517D02*
X50785Y-37167D01*
X48435Y-37517D02*
X50435Y-37517D01*
X48197Y-37279D02*
X48435Y-37517D01*
G54D10*
G36*
X50454Y-36867D02*
X50267Y-36867D01*
X50205Y-36930D01*
X50204Y-37018D01*
X50205Y-37117D01*
X50236Y-37192D01*
X48785Y-37192D01*
X48785Y-37109D01*
X48785Y-36876D01*
X49164Y-36497D01*
X49164Y-36497D01*
X49164Y-36497D01*
X49235Y-36392D01*
X49235Y-36392D01*
X49260Y-36267D01*
X49260Y-33902D01*
X49724Y-33437D01*
X49774Y-33558D01*
X49893Y-33677D01*
X50050Y-33742D01*
X50168Y-33742D01*
X49780Y-34130D01*
X49713Y-34231D01*
X49690Y-34350D01*
X49690Y-36058D01*
X49639Y-36108D01*
X49575Y-36265D01*
X49574Y-36434D01*
X49639Y-36590D01*
X49758Y-36710D01*
X49915Y-36774D01*
X50084Y-36775D01*
X50219Y-36719D01*
X50267Y-36767D01*
X50454Y-36767D01*
X50454Y-36867D01*
X50454Y-36867D01*
G37*
G54D30*
X50454Y-36867D02*
X50267Y-36867D01*
X50205Y-36930D01*
X50204Y-37018D01*
X50205Y-37117D01*
X50236Y-37192D01*
X48785Y-37192D01*
X48785Y-37109D01*
X48785Y-36876D01*
X49164Y-36497D01*
X49164Y-36497D01*
X49164Y-36497D01*
X49235Y-36392D01*
X49235Y-36392D01*
X49260Y-36267D01*
X49260Y-33902D01*
X49724Y-33437D01*
X49774Y-33558D01*
X49893Y-33677D01*
X50050Y-33742D01*
X50168Y-33742D01*
X49780Y-34130D01*
X49713Y-34231D01*
X49690Y-34350D01*
X49690Y-36058D01*
X49639Y-36108D01*
X49575Y-36265D01*
X49574Y-36434D01*
X49639Y-36590D01*
X49758Y-36710D01*
X49915Y-36774D01*
X50084Y-36775D01*
X50219Y-36719D01*
X50267Y-36767D01*
X50454Y-36767D01*
X50454Y-36867D01*
G54D10*
G36*
X50860Y-48967D02*
X48835Y-48967D01*
X48835Y-48717D01*
X48835Y-48018D01*
X48797Y-47926D01*
X48745Y-47874D01*
X48745Y-46957D01*
X48745Y-46817D01*
X48745Y-46717D01*
X48745Y-46577D01*
X48683Y-46367D01*
X48545Y-46196D01*
X48353Y-46091D01*
X48321Y-46084D01*
X48235Y-46132D01*
X48235Y-46717D01*
X48745Y-46717D01*
X48745Y-46817D01*
X48235Y-46817D01*
X48235Y-47402D01*
X48321Y-47450D01*
X48353Y-47444D01*
X48545Y-47339D01*
X48683Y-47168D01*
X48745Y-46957D01*
X48745Y-47874D01*
X48726Y-47855D01*
X48634Y-47817D01*
X48535Y-47817D01*
X48297Y-47817D01*
X48235Y-47880D01*
X48235Y-48317D01*
X48772Y-48317D01*
X48835Y-48255D01*
X48835Y-48018D01*
X48835Y-48717D01*
X48835Y-48480D01*
X48772Y-48417D01*
X48235Y-48417D01*
X48235Y-48855D01*
X48297Y-48917D01*
X48535Y-48917D01*
X48634Y-48917D01*
X48726Y-48879D01*
X48797Y-48809D01*
X48835Y-48717D01*
X48835Y-48967D01*
X48135Y-48967D01*
X48135Y-48855D01*
X48135Y-48417D01*
X48135Y-48317D01*
X48135Y-47880D01*
X48135Y-47402D01*
X48135Y-46817D01*
X48127Y-46817D01*
X48127Y-46717D01*
X48135Y-46717D01*
X48135Y-46132D01*
X48048Y-46084D01*
X48016Y-46091D01*
X47824Y-46196D01*
X47686Y-46367D01*
X47684Y-46373D01*
X47581Y-46218D01*
X47399Y-46096D01*
X47185Y-46054D01*
X46970Y-46096D01*
X46789Y-46218D01*
X46685Y-46373D01*
X46581Y-46218D01*
X46399Y-46096D01*
X46185Y-46054D01*
X45970Y-46096D01*
X45789Y-46218D01*
X45685Y-46373D01*
X45683Y-46367D01*
X45545Y-46196D01*
X45353Y-46091D01*
X45321Y-46084D01*
X45235Y-46132D01*
X45235Y-46717D01*
X45242Y-46717D01*
X45242Y-46817D01*
X45235Y-46817D01*
X45235Y-47402D01*
X45321Y-47450D01*
X45353Y-47444D01*
X45545Y-47339D01*
X45683Y-47168D01*
X45685Y-47161D01*
X45789Y-47317D01*
X45970Y-47438D01*
X46185Y-47481D01*
X46399Y-47438D01*
X46581Y-47317D01*
X46685Y-47161D01*
X46789Y-47317D01*
X46970Y-47438D01*
X47185Y-47481D01*
X47399Y-47438D01*
X47581Y-47317D01*
X47684Y-47161D01*
X47686Y-47168D01*
X47824Y-47339D01*
X48016Y-47444D01*
X48048Y-47450D01*
X48135Y-47402D01*
X48135Y-47880D01*
X48072Y-47817D01*
X47834Y-47817D01*
X47735Y-47817D01*
X47643Y-47855D01*
X47572Y-47926D01*
X47534Y-48018D01*
X47535Y-48255D01*
X47597Y-48317D01*
X48135Y-48317D01*
X48135Y-48417D01*
X47597Y-48417D01*
X47535Y-48480D01*
X47534Y-48717D01*
X47572Y-48809D01*
X47643Y-48879D01*
X47735Y-48917D01*
X47834Y-48917D01*
X48072Y-48917D01*
X48135Y-48855D01*
X48135Y-48967D01*
X43510Y-48967D01*
X43510Y-47364D01*
X43581Y-47317D01*
X43685Y-47161D01*
X43789Y-47317D01*
X43860Y-47364D01*
X43860Y-47817D01*
X43735Y-47817D01*
X43643Y-47855D01*
X43573Y-47925D01*
X43535Y-48017D01*
X43534Y-48117D01*
X43534Y-48717D01*
X43572Y-48809D01*
X43643Y-48879D01*
X43735Y-48917D01*
X43834Y-48917D01*
X44634Y-48917D01*
X44726Y-48879D01*
X44796Y-48809D01*
X44834Y-48717D01*
X44835Y-48618D01*
X44835Y-48018D01*
X44797Y-47926D01*
X44726Y-47855D01*
X44634Y-47817D01*
X44535Y-47817D01*
X44510Y-47817D01*
X44510Y-47364D01*
X44581Y-47317D01*
X44684Y-47161D01*
X44686Y-47168D01*
X44824Y-47339D01*
X45016Y-47444D01*
X45048Y-47450D01*
X45135Y-47402D01*
X45135Y-46817D01*
X45127Y-46817D01*
X45127Y-46717D01*
X45135Y-46717D01*
X45135Y-46132D01*
X45048Y-46084D01*
X45016Y-46091D01*
X44824Y-46196D01*
X44686Y-46367D01*
X44684Y-46373D01*
X44581Y-46218D01*
X44399Y-46096D01*
X44185Y-46054D01*
X43970Y-46096D01*
X43789Y-46218D01*
X43685Y-46373D01*
X43581Y-46218D01*
X43399Y-46096D01*
X43185Y-46054D01*
X42970Y-46096D01*
X42789Y-46218D01*
X42685Y-46373D01*
X42581Y-46218D01*
X42399Y-46096D01*
X42185Y-46054D01*
X41970Y-46096D01*
X41789Y-46218D01*
X41685Y-46373D01*
X41581Y-46218D01*
X41399Y-46096D01*
X41185Y-46054D01*
X40970Y-46096D01*
X40789Y-46218D01*
X40685Y-46373D01*
X40683Y-46367D01*
X40545Y-46196D01*
X40353Y-46091D01*
X40321Y-46084D01*
X40235Y-46132D01*
X40235Y-46717D01*
X40242Y-46717D01*
X40242Y-46817D01*
X40235Y-46817D01*
X40235Y-47402D01*
X40321Y-47450D01*
X40353Y-47444D01*
X40545Y-47339D01*
X40683Y-47168D01*
X40685Y-47161D01*
X40789Y-47317D01*
X40970Y-47438D01*
X41185Y-47481D01*
X41399Y-47438D01*
X41581Y-47317D01*
X41685Y-47161D01*
X41789Y-47317D01*
X41970Y-47438D01*
X42185Y-47481D01*
X42399Y-47438D01*
X42581Y-47317D01*
X42685Y-47161D01*
X42789Y-47317D01*
X42860Y-47364D01*
X42860Y-48967D01*
X40835Y-48967D01*
X40835Y-48717D01*
X40835Y-48018D01*
X40797Y-47926D01*
X40726Y-47855D01*
X40634Y-47817D01*
X40535Y-47817D01*
X40297Y-47817D01*
X40235Y-47880D01*
X40235Y-48317D01*
X40772Y-48317D01*
X40835Y-48255D01*
X40835Y-48018D01*
X40835Y-48717D01*
X40835Y-48480D01*
X40772Y-48417D01*
X40235Y-48417D01*
X40235Y-48855D01*
X40297Y-48917D01*
X40535Y-48917D01*
X40634Y-48917D01*
X40726Y-48879D01*
X40797Y-48809D01*
X40835Y-48717D01*
X40835Y-48967D01*
X40135Y-48967D01*
X40135Y-48855D01*
X40135Y-48417D01*
X40135Y-48317D01*
X40135Y-47880D01*
X40135Y-47402D01*
X40135Y-46817D01*
X40135Y-46717D01*
X40135Y-46132D01*
X40048Y-46084D01*
X40016Y-46091D01*
X39824Y-46196D01*
X39686Y-46367D01*
X39685Y-46373D01*
X39683Y-46367D01*
X39545Y-46196D01*
X39353Y-46091D01*
X39321Y-46084D01*
X39235Y-46132D01*
X39235Y-46717D01*
X39625Y-46717D01*
X39745Y-46717D01*
X40135Y-46717D01*
X40135Y-46817D01*
X39745Y-46817D01*
X39625Y-46817D01*
X39235Y-46817D01*
X39235Y-47402D01*
X39321Y-47450D01*
X39353Y-47444D01*
X39545Y-47339D01*
X39683Y-47168D01*
X39685Y-47162D01*
X39686Y-47168D01*
X39824Y-47339D01*
X40016Y-47444D01*
X40048Y-47450D01*
X40135Y-47402D01*
X40135Y-47880D01*
X40072Y-47817D01*
X39834Y-47817D01*
X39735Y-47817D01*
X39685Y-47838D01*
X39634Y-47817D01*
X39535Y-47817D01*
X39297Y-47817D01*
X39235Y-47880D01*
X39235Y-48317D01*
X39597Y-48317D01*
X39772Y-48317D01*
X40135Y-48317D01*
X40135Y-48417D01*
X39772Y-48417D01*
X39597Y-48417D01*
X39235Y-48417D01*
X39235Y-48855D01*
X39297Y-48917D01*
X39535Y-48917D01*
X39634Y-48917D01*
X39685Y-48896D01*
X39735Y-48917D01*
X39834Y-48917D01*
X40072Y-48917D01*
X40135Y-48855D01*
X40135Y-48967D01*
X39135Y-48967D01*
X39135Y-48855D01*
X39135Y-48417D01*
X39135Y-48317D01*
X39135Y-47880D01*
X39072Y-47817D01*
X38834Y-47817D01*
X38735Y-47817D01*
X38643Y-47855D01*
X38572Y-47926D01*
X38534Y-48018D01*
X38535Y-48255D01*
X38597Y-48317D01*
X39135Y-48317D01*
X39135Y-48417D01*
X38597Y-48417D01*
X38535Y-48480D01*
X38534Y-48717D01*
X38572Y-48809D01*
X38643Y-48879D01*
X38735Y-48917D01*
X38834Y-48917D01*
X39072Y-48917D01*
X39135Y-48855D01*
X39135Y-48967D01*
X36444Y-48967D01*
X37414Y-47997D01*
X37485Y-47892D01*
X37485Y-47892D01*
X37510Y-47767D01*
X37510Y-47364D01*
X37581Y-47317D01*
X37685Y-47161D01*
X37789Y-47317D01*
X37970Y-47438D01*
X38185Y-47481D01*
X38399Y-47438D01*
X38581Y-47317D01*
X38684Y-47161D01*
X38686Y-47168D01*
X38824Y-47339D01*
X39016Y-47444D01*
X39048Y-47450D01*
X39135Y-47402D01*
X39135Y-46817D01*
X39127Y-46817D01*
X39127Y-46717D01*
X39135Y-46717D01*
X39135Y-46132D01*
X39048Y-46084D01*
X39016Y-46091D01*
X38824Y-46196D01*
X38686Y-46367D01*
X38684Y-46373D01*
X38581Y-46218D01*
X38399Y-46096D01*
X38185Y-46054D01*
X37970Y-46096D01*
X37789Y-46218D01*
X37685Y-46373D01*
X37581Y-46218D01*
X37399Y-46096D01*
X37185Y-46054D01*
X36970Y-46096D01*
X36789Y-46218D01*
X36685Y-46373D01*
X36581Y-46218D01*
X36399Y-46096D01*
X36185Y-46054D01*
X35970Y-46096D01*
X35789Y-46218D01*
X35685Y-46373D01*
X35683Y-46367D01*
X35545Y-46196D01*
X35353Y-46091D01*
X35321Y-46084D01*
X35235Y-46132D01*
X35235Y-46717D01*
X35242Y-46717D01*
X35242Y-46817D01*
X35235Y-46817D01*
X35235Y-47402D01*
X35321Y-47450D01*
X35353Y-47444D01*
X35545Y-47339D01*
X35683Y-47168D01*
X35685Y-47161D01*
X35789Y-47317D01*
X35970Y-47438D01*
X36185Y-47481D01*
X36399Y-47438D01*
X36581Y-47317D01*
X36685Y-47161D01*
X36789Y-47317D01*
X36860Y-47364D01*
X36860Y-47633D01*
X35835Y-48658D01*
X35835Y-48018D01*
X35797Y-47926D01*
X35726Y-47855D01*
X35634Y-47817D01*
X35535Y-47817D01*
X35297Y-47817D01*
X35235Y-47880D01*
X35235Y-48317D01*
X35772Y-48317D01*
X35835Y-48255D01*
X35835Y-48018D01*
X35835Y-48658D01*
X35835Y-48658D01*
X35835Y-48480D01*
X35772Y-48417D01*
X35235Y-48417D01*
X35235Y-48425D01*
X35135Y-48425D01*
X35135Y-48417D01*
X35135Y-48317D01*
X35135Y-47880D01*
X35135Y-47402D01*
X35135Y-46817D01*
X35135Y-46717D01*
X35135Y-46132D01*
X35048Y-46084D01*
X35016Y-46091D01*
X34824Y-46196D01*
X34686Y-46367D01*
X34625Y-46577D01*
X34625Y-46717D01*
X35135Y-46717D01*
X35135Y-46817D01*
X34625Y-46817D01*
X34625Y-46957D01*
X34686Y-47168D01*
X34824Y-47339D01*
X35016Y-47444D01*
X35048Y-47450D01*
X35135Y-47402D01*
X35135Y-47880D01*
X35072Y-47817D01*
X34834Y-47817D01*
X34735Y-47817D01*
X34643Y-47855D01*
X34572Y-47926D01*
X34534Y-48018D01*
X34535Y-48255D01*
X34597Y-48317D01*
X35135Y-48317D01*
X35135Y-48417D01*
X34597Y-48417D01*
X34535Y-48480D01*
X34535Y-48692D01*
X32819Y-48692D01*
X31190Y-47063D01*
X31293Y-47063D01*
X31493Y-46980D01*
X31647Y-46827D01*
X31730Y-46626D01*
X31730Y-46409D01*
X31647Y-46209D01*
X31494Y-46055D01*
X31403Y-46017D01*
X31493Y-45980D01*
X31647Y-45827D01*
X31730Y-45626D01*
X31730Y-45409D01*
X31647Y-45209D01*
X31494Y-45055D01*
X31403Y-45017D01*
X31493Y-44980D01*
X31647Y-44827D01*
X31730Y-44626D01*
X31730Y-44409D01*
X31647Y-44209D01*
X31502Y-44063D01*
X31530Y-44063D01*
X31621Y-44025D01*
X31639Y-44007D01*
X31639Y-44125D01*
X31722Y-44326D01*
X31875Y-44479D01*
X31966Y-44517D01*
X31876Y-44554D01*
X31722Y-44708D01*
X31639Y-44908D01*
X31639Y-45125D01*
X31722Y-45326D01*
X31875Y-45479D01*
X31966Y-45517D01*
X31876Y-45554D01*
X31722Y-45708D01*
X31639Y-45908D01*
X31639Y-46125D01*
X31722Y-46326D01*
X31875Y-46479D01*
X31966Y-46517D01*
X31876Y-46554D01*
X31722Y-46708D01*
X31639Y-46908D01*
X31639Y-47125D01*
X31722Y-47326D01*
X31875Y-47479D01*
X32076Y-47563D01*
X32293Y-47563D01*
X32493Y-47480D01*
X32647Y-47327D01*
X32730Y-47126D01*
X32730Y-46909D01*
X32647Y-46709D01*
X32494Y-46555D01*
X32403Y-46517D01*
X32493Y-46480D01*
X32647Y-46327D01*
X32691Y-46221D01*
X33069Y-45842D01*
X35658Y-45842D01*
X35693Y-45877D01*
X35850Y-45942D01*
X36019Y-45942D01*
X36175Y-45878D01*
X36295Y-45758D01*
X36359Y-45602D01*
X36360Y-45433D01*
X36322Y-45342D01*
X36435Y-45342D01*
X36559Y-45317D01*
X36559Y-45317D01*
X36664Y-45247D01*
X37414Y-44497D01*
X37414Y-44497D01*
X37414Y-44497D01*
X37485Y-44392D01*
X37485Y-44392D01*
X37487Y-44379D01*
X37581Y-44317D01*
X37685Y-44161D01*
X37789Y-44317D01*
X37970Y-44438D01*
X38185Y-44481D01*
X38399Y-44438D01*
X38581Y-44317D01*
X38685Y-44161D01*
X38789Y-44317D01*
X38970Y-44438D01*
X39185Y-44481D01*
X39399Y-44438D01*
X39581Y-44317D01*
X39685Y-44161D01*
X39789Y-44317D01*
X39970Y-44438D01*
X40185Y-44481D01*
X40399Y-44438D01*
X40581Y-44317D01*
X40685Y-44161D01*
X40789Y-44317D01*
X40970Y-44438D01*
X41185Y-44481D01*
X41399Y-44438D01*
X41581Y-44317D01*
X41685Y-44161D01*
X41789Y-44317D01*
X41970Y-44438D01*
X42185Y-44481D01*
X42399Y-44438D01*
X42581Y-44317D01*
X42685Y-44161D01*
X42789Y-44317D01*
X42970Y-44438D01*
X43185Y-44481D01*
X43399Y-44438D01*
X43581Y-44317D01*
X43685Y-44161D01*
X43789Y-44317D01*
X43970Y-44438D01*
X44185Y-44481D01*
X44399Y-44438D01*
X44581Y-44317D01*
X44685Y-44161D01*
X44789Y-44317D01*
X44860Y-44364D01*
X44860Y-44767D01*
X44884Y-44892D01*
X44955Y-44997D01*
X45705Y-45747D01*
X45705Y-45747D01*
X45810Y-45817D01*
X45810Y-45817D01*
X45910Y-45837D01*
X45935Y-45842D01*
X45935Y-45842D01*
X45935Y-45842D01*
X49550Y-45842D01*
X50860Y-47152D01*
X50860Y-48967D01*
X50860Y-48967D01*
G37*
G54D30*
X50860Y-48967D02*
X48835Y-48967D01*
X48835Y-48717D01*
X48835Y-48018D01*
X48797Y-47926D01*
X48745Y-47874D01*
X48745Y-46957D01*
X48745Y-46817D01*
X48745Y-46717D01*
X48745Y-46577D01*
X48683Y-46367D01*
X48545Y-46196D01*
X48353Y-46091D01*
X48321Y-46084D01*
X48235Y-46132D01*
X48235Y-46717D01*
X48745Y-46717D01*
X48745Y-46817D01*
X48235Y-46817D01*
X48235Y-47402D01*
X48321Y-47450D01*
X48353Y-47444D01*
X48545Y-47339D01*
X48683Y-47168D01*
X48745Y-46957D01*
X48745Y-47874D01*
X48726Y-47855D01*
X48634Y-47817D01*
X48535Y-47817D01*
X48297Y-47817D01*
X48235Y-47880D01*
X48235Y-48317D01*
X48772Y-48317D01*
X48835Y-48255D01*
X48835Y-48018D01*
X48835Y-48717D01*
X48835Y-48480D01*
X48772Y-48417D01*
X48235Y-48417D01*
X48235Y-48855D01*
X48297Y-48917D01*
X48535Y-48917D01*
X48634Y-48917D01*
X48726Y-48879D01*
X48797Y-48809D01*
X48835Y-48717D01*
X48835Y-48967D01*
X48135Y-48967D01*
X48135Y-48855D01*
X48135Y-48417D01*
X48135Y-48317D01*
X48135Y-47880D01*
X48135Y-47402D01*
X48135Y-46817D01*
X48127Y-46817D01*
X48127Y-46717D01*
X48135Y-46717D01*
X48135Y-46132D01*
X48048Y-46084D01*
X48016Y-46091D01*
X47824Y-46196D01*
X47686Y-46367D01*
X47684Y-46373D01*
X47581Y-46218D01*
X47399Y-46096D01*
X47185Y-46054D01*
X46970Y-46096D01*
X46789Y-46218D01*
X46685Y-46373D01*
X46581Y-46218D01*
X46399Y-46096D01*
X46185Y-46054D01*
X45970Y-46096D01*
X45789Y-46218D01*
X45685Y-46373D01*
X45683Y-46367D01*
X45545Y-46196D01*
X45353Y-46091D01*
X45321Y-46084D01*
X45235Y-46132D01*
X45235Y-46717D01*
X45242Y-46717D01*
X45242Y-46817D01*
X45235Y-46817D01*
X45235Y-47402D01*
X45321Y-47450D01*
X45353Y-47444D01*
X45545Y-47339D01*
X45683Y-47168D01*
X45685Y-47161D01*
X45789Y-47317D01*
X45970Y-47438D01*
X46185Y-47481D01*
X46399Y-47438D01*
X46581Y-47317D01*
X46685Y-47161D01*
X46789Y-47317D01*
X46970Y-47438D01*
X47185Y-47481D01*
X47399Y-47438D01*
X47581Y-47317D01*
X47684Y-47161D01*
X47686Y-47168D01*
X47824Y-47339D01*
X48016Y-47444D01*
X48048Y-47450D01*
X48135Y-47402D01*
X48135Y-47880D01*
X48072Y-47817D01*
X47834Y-47817D01*
X47735Y-47817D01*
X47643Y-47855D01*
X47572Y-47926D01*
X47534Y-48018D01*
X47535Y-48255D01*
X47597Y-48317D01*
X48135Y-48317D01*
X48135Y-48417D01*
X47597Y-48417D01*
X47535Y-48480D01*
X47534Y-48717D01*
X47572Y-48809D01*
X47643Y-48879D01*
X47735Y-48917D01*
X47834Y-48917D01*
X48072Y-48917D01*
X48135Y-48855D01*
X48135Y-48967D01*
X43510Y-48967D01*
X43510Y-47364D01*
X43581Y-47317D01*
X43685Y-47161D01*
X43789Y-47317D01*
X43860Y-47364D01*
X43860Y-47817D01*
X43735Y-47817D01*
X43643Y-47855D01*
X43573Y-47925D01*
X43535Y-48017D01*
X43534Y-48117D01*
X43534Y-48717D01*
X43572Y-48809D01*
X43643Y-48879D01*
X43735Y-48917D01*
X43834Y-48917D01*
X44634Y-48917D01*
X44726Y-48879D01*
X44796Y-48809D01*
X44834Y-48717D01*
X44835Y-48618D01*
X44835Y-48018D01*
X44797Y-47926D01*
X44726Y-47855D01*
X44634Y-47817D01*
X44535Y-47817D01*
X44510Y-47817D01*
X44510Y-47364D01*
X44581Y-47317D01*
X44684Y-47161D01*
X44686Y-47168D01*
X44824Y-47339D01*
X45016Y-47444D01*
X45048Y-47450D01*
X45135Y-47402D01*
X45135Y-46817D01*
X45127Y-46817D01*
X45127Y-46717D01*
X45135Y-46717D01*
X45135Y-46132D01*
X45048Y-46084D01*
X45016Y-46091D01*
X44824Y-46196D01*
X44686Y-46367D01*
X44684Y-46373D01*
X44581Y-46218D01*
X44399Y-46096D01*
X44185Y-46054D01*
X43970Y-46096D01*
X43789Y-46218D01*
X43685Y-46373D01*
X43581Y-46218D01*
X43399Y-46096D01*
X43185Y-46054D01*
X42970Y-46096D01*
X42789Y-46218D01*
X42685Y-46373D01*
X42581Y-46218D01*
X42399Y-46096D01*
X42185Y-46054D01*
X41970Y-46096D01*
X41789Y-46218D01*
X41685Y-46373D01*
X41581Y-46218D01*
X41399Y-46096D01*
X41185Y-46054D01*
X40970Y-46096D01*
X40789Y-46218D01*
X40685Y-46373D01*
X40683Y-46367D01*
X40545Y-46196D01*
X40353Y-46091D01*
X40321Y-46084D01*
X40235Y-46132D01*
X40235Y-46717D01*
X40242Y-46717D01*
X40242Y-46817D01*
X40235Y-46817D01*
X40235Y-47402D01*
X40321Y-47450D01*
X40353Y-47444D01*
X40545Y-47339D01*
X40683Y-47168D01*
X40685Y-47161D01*
X40789Y-47317D01*
X40970Y-47438D01*
X41185Y-47481D01*
X41399Y-47438D01*
X41581Y-47317D01*
X41685Y-47161D01*
X41789Y-47317D01*
X41970Y-47438D01*
X42185Y-47481D01*
X42399Y-47438D01*
X42581Y-47317D01*
X42685Y-47161D01*
X42789Y-47317D01*
X42860Y-47364D01*
X42860Y-48967D01*
X40835Y-48967D01*
X40835Y-48717D01*
X40835Y-48018D01*
X40797Y-47926D01*
X40726Y-47855D01*
X40634Y-47817D01*
X40535Y-47817D01*
X40297Y-47817D01*
X40235Y-47880D01*
X40235Y-48317D01*
X40772Y-48317D01*
X40835Y-48255D01*
X40835Y-48018D01*
X40835Y-48717D01*
X40835Y-48480D01*
X40772Y-48417D01*
X40235Y-48417D01*
X40235Y-48855D01*
X40297Y-48917D01*
X40535Y-48917D01*
X40634Y-48917D01*
X40726Y-48879D01*
X40797Y-48809D01*
X40835Y-48717D01*
X40835Y-48967D01*
X40135Y-48967D01*
X40135Y-48855D01*
X40135Y-48417D01*
X40135Y-48317D01*
X40135Y-47880D01*
X40135Y-47402D01*
X40135Y-46817D01*
X40135Y-46717D01*
X40135Y-46132D01*
X40048Y-46084D01*
X40016Y-46091D01*
X39824Y-46196D01*
X39686Y-46367D01*
X39685Y-46373D01*
X39683Y-46367D01*
X39545Y-46196D01*
X39353Y-46091D01*
X39321Y-46084D01*
X39235Y-46132D01*
X39235Y-46717D01*
X39625Y-46717D01*
X39745Y-46717D01*
X40135Y-46717D01*
X40135Y-46817D01*
X39745Y-46817D01*
X39625Y-46817D01*
X39235Y-46817D01*
X39235Y-47402D01*
X39321Y-47450D01*
X39353Y-47444D01*
X39545Y-47339D01*
X39683Y-47168D01*
X39685Y-47162D01*
X39686Y-47168D01*
X39824Y-47339D01*
X40016Y-47444D01*
X40048Y-47450D01*
X40135Y-47402D01*
X40135Y-47880D01*
X40072Y-47817D01*
X39834Y-47817D01*
X39735Y-47817D01*
X39685Y-47838D01*
X39634Y-47817D01*
X39535Y-47817D01*
X39297Y-47817D01*
X39235Y-47880D01*
X39235Y-48317D01*
X39597Y-48317D01*
X39772Y-48317D01*
X40135Y-48317D01*
X40135Y-48417D01*
X39772Y-48417D01*
X39597Y-48417D01*
X39235Y-48417D01*
X39235Y-48855D01*
X39297Y-48917D01*
X39535Y-48917D01*
X39634Y-48917D01*
X39685Y-48896D01*
X39735Y-48917D01*
X39834Y-48917D01*
X40072Y-48917D01*
X40135Y-48855D01*
X40135Y-48967D01*
X39135Y-48967D01*
X39135Y-48855D01*
X39135Y-48417D01*
X39135Y-48317D01*
X39135Y-47880D01*
X39072Y-47817D01*
X38834Y-47817D01*
X38735Y-47817D01*
X38643Y-47855D01*
X38572Y-47926D01*
X38534Y-48018D01*
X38535Y-48255D01*
X38597Y-48317D01*
X39135Y-48317D01*
X39135Y-48417D01*
X38597Y-48417D01*
X38535Y-48480D01*
X38534Y-48717D01*
X38572Y-48809D01*
X38643Y-48879D01*
X38735Y-48917D01*
X38834Y-48917D01*
X39072Y-48917D01*
X39135Y-48855D01*
X39135Y-48967D01*
X36444Y-48967D01*
X37414Y-47997D01*
X37485Y-47892D01*
X37485Y-47892D01*
X37510Y-47767D01*
X37510Y-47364D01*
X37581Y-47317D01*
X37685Y-47161D01*
X37789Y-47317D01*
X37970Y-47438D01*
X38185Y-47481D01*
X38399Y-47438D01*
X38581Y-47317D01*
X38684Y-47161D01*
X38686Y-47168D01*
X38824Y-47339D01*
X39016Y-47444D01*
X39048Y-47450D01*
X39135Y-47402D01*
X39135Y-46817D01*
X39127Y-46817D01*
X39127Y-46717D01*
X39135Y-46717D01*
X39135Y-46132D01*
X39048Y-46084D01*
X39016Y-46091D01*
X38824Y-46196D01*
X38686Y-46367D01*
X38684Y-46373D01*
X38581Y-46218D01*
X38399Y-46096D01*
X38185Y-46054D01*
X37970Y-46096D01*
X37789Y-46218D01*
X37685Y-46373D01*
X37581Y-46218D01*
X37399Y-46096D01*
X37185Y-46054D01*
X36970Y-46096D01*
X36789Y-46218D01*
X36685Y-46373D01*
X36581Y-46218D01*
X36399Y-46096D01*
X36185Y-46054D01*
X35970Y-46096D01*
X35789Y-46218D01*
X35685Y-46373D01*
X35683Y-46367D01*
X35545Y-46196D01*
X35353Y-46091D01*
X35321Y-46084D01*
X35235Y-46132D01*
X35235Y-46717D01*
X35242Y-46717D01*
X35242Y-46817D01*
X35235Y-46817D01*
X35235Y-47402D01*
X35321Y-47450D01*
X35353Y-47444D01*
X35545Y-47339D01*
X35683Y-47168D01*
X35685Y-47161D01*
X35789Y-47317D01*
X35970Y-47438D01*
X36185Y-47481D01*
X36399Y-47438D01*
X36581Y-47317D01*
X36685Y-47161D01*
X36789Y-47317D01*
X36860Y-47364D01*
X36860Y-47633D01*
X35835Y-48658D01*
X35835Y-48018D01*
X35797Y-47926D01*
X35726Y-47855D01*
X35634Y-47817D01*
X35535Y-47817D01*
X35297Y-47817D01*
X35235Y-47880D01*
X35235Y-48317D01*
X35772Y-48317D01*
X35835Y-48255D01*
X35835Y-48018D01*
X35835Y-48658D01*
X35835Y-48658D01*
X35835Y-48480D01*
X35772Y-48417D01*
X35235Y-48417D01*
X35235Y-48425D01*
X35135Y-48425D01*
X35135Y-48417D01*
X35135Y-48317D01*
X35135Y-47880D01*
X35135Y-47402D01*
X35135Y-46817D01*
X35135Y-46717D01*
X35135Y-46132D01*
X35048Y-46084D01*
X35016Y-46091D01*
X34824Y-46196D01*
X34686Y-46367D01*
X34625Y-46577D01*
X34625Y-46717D01*
X35135Y-46717D01*
X35135Y-46817D01*
X34625Y-46817D01*
X34625Y-46957D01*
X34686Y-47168D01*
X34824Y-47339D01*
X35016Y-47444D01*
X35048Y-47450D01*
X35135Y-47402D01*
X35135Y-47880D01*
X35072Y-47817D01*
X34834Y-47817D01*
X34735Y-47817D01*
X34643Y-47855D01*
X34572Y-47926D01*
X34534Y-48018D01*
X34535Y-48255D01*
X34597Y-48317D01*
X35135Y-48317D01*
X35135Y-48417D01*
X34597Y-48417D01*
X34535Y-48480D01*
X34535Y-48692D01*
X32819Y-48692D01*
X31190Y-47063D01*
X31293Y-47063D01*
X31493Y-46980D01*
X31647Y-46827D01*
X31730Y-46626D01*
X31730Y-46409D01*
X31647Y-46209D01*
X31494Y-46055D01*
X31403Y-46017D01*
X31493Y-45980D01*
X31647Y-45827D01*
X31730Y-45626D01*
X31730Y-45409D01*
X31647Y-45209D01*
X31494Y-45055D01*
X31403Y-45017D01*
X31493Y-44980D01*
X31647Y-44827D01*
X31730Y-44626D01*
X31730Y-44409D01*
X31647Y-44209D01*
X31502Y-44063D01*
X31530Y-44063D01*
X31621Y-44025D01*
X31639Y-44007D01*
X31639Y-44125D01*
X31722Y-44326D01*
X31875Y-44479D01*
X31966Y-44517D01*
X31876Y-44554D01*
X31722Y-44708D01*
X31639Y-44908D01*
X31639Y-45125D01*
X31722Y-45326D01*
X31875Y-45479D01*
X31966Y-45517D01*
X31876Y-45554D01*
X31722Y-45708D01*
X31639Y-45908D01*
X31639Y-46125D01*
X31722Y-46326D01*
X31875Y-46479D01*
X31966Y-46517D01*
X31876Y-46554D01*
X31722Y-46708D01*
X31639Y-46908D01*
X31639Y-47125D01*
X31722Y-47326D01*
X31875Y-47479D01*
X32076Y-47563D01*
X32293Y-47563D01*
X32493Y-47480D01*
X32647Y-47327D01*
X32730Y-47126D01*
X32730Y-46909D01*
X32647Y-46709D01*
X32494Y-46555D01*
X32403Y-46517D01*
X32493Y-46480D01*
X32647Y-46327D01*
X32691Y-46221D01*
X33069Y-45842D01*
X35658Y-45842D01*
X35693Y-45877D01*
X35850Y-45942D01*
X36019Y-45942D01*
X36175Y-45878D01*
X36295Y-45758D01*
X36359Y-45602D01*
X36360Y-45433D01*
X36322Y-45342D01*
X36435Y-45342D01*
X36559Y-45317D01*
X36559Y-45317D01*
X36664Y-45247D01*
X37414Y-44497D01*
X37414Y-44497D01*
X37414Y-44497D01*
X37485Y-44392D01*
X37485Y-44392D01*
X37487Y-44379D01*
X37581Y-44317D01*
X37685Y-44161D01*
X37789Y-44317D01*
X37970Y-44438D01*
X38185Y-44481D01*
X38399Y-44438D01*
X38581Y-44317D01*
X38685Y-44161D01*
X38789Y-44317D01*
X38970Y-44438D01*
X39185Y-44481D01*
X39399Y-44438D01*
X39581Y-44317D01*
X39685Y-44161D01*
X39789Y-44317D01*
X39970Y-44438D01*
X40185Y-44481D01*
X40399Y-44438D01*
X40581Y-44317D01*
X40685Y-44161D01*
X40789Y-44317D01*
X40970Y-44438D01*
X41185Y-44481D01*
X41399Y-44438D01*
X41581Y-44317D01*
X41685Y-44161D01*
X41789Y-44317D01*
X41970Y-44438D01*
X42185Y-44481D01*
X42399Y-44438D01*
X42581Y-44317D01*
X42685Y-44161D01*
X42789Y-44317D01*
X42970Y-44438D01*
X43185Y-44481D01*
X43399Y-44438D01*
X43581Y-44317D01*
X43685Y-44161D01*
X43789Y-44317D01*
X43970Y-44438D01*
X44185Y-44481D01*
X44399Y-44438D01*
X44581Y-44317D01*
X44685Y-44161D01*
X44789Y-44317D01*
X44860Y-44364D01*
X44860Y-44767D01*
X44884Y-44892D01*
X44955Y-44997D01*
X45705Y-45747D01*
X45705Y-45747D01*
X45810Y-45817D01*
X45810Y-45817D01*
X45910Y-45837D01*
X45935Y-45842D01*
X45935Y-45842D01*
X45935Y-45842D01*
X49550Y-45842D01*
X50860Y-47152D01*
X50860Y-48967D01*
G54D10*
G36*
X52610Y-48967D02*
X52260Y-48967D01*
X52260Y-44583D01*
X52195Y-44427D01*
X52076Y-44307D01*
X51919Y-44242D01*
X51874Y-44242D01*
X51884Y-44217D01*
X51885Y-44118D01*
X51885Y-43318D01*
X51847Y-43226D01*
X51776Y-43155D01*
X51684Y-43117D01*
X51585Y-43117D01*
X50985Y-43117D01*
X50893Y-43155D01*
X50823Y-43225D01*
X50785Y-43317D01*
X50784Y-43417D01*
X50784Y-44217D01*
X50822Y-44309D01*
X50893Y-44379D01*
X50985Y-44417D01*
X51084Y-44417D01*
X51160Y-44417D01*
X51410Y-44666D01*
X51409Y-44751D01*
X51474Y-44908D01*
X51593Y-45027D01*
X51750Y-45092D01*
X51919Y-45092D01*
X52075Y-45028D01*
X52195Y-44908D01*
X52259Y-44752D01*
X52260Y-44583D01*
X52260Y-48967D01*
X51510Y-48967D01*
X51510Y-47017D01*
X51485Y-46893D01*
X51485Y-46893D01*
X51414Y-46787D01*
X51414Y-46787D01*
X49914Y-45287D01*
X49809Y-45217D01*
X49685Y-45192D01*
X46069Y-45192D01*
X45510Y-44633D01*
X45510Y-44364D01*
X45581Y-44317D01*
X45685Y-44161D01*
X45789Y-44317D01*
X45970Y-44438D01*
X46185Y-44481D01*
X46399Y-44438D01*
X46581Y-44317D01*
X46685Y-44161D01*
X46789Y-44317D01*
X46970Y-44438D01*
X47185Y-44481D01*
X47399Y-44438D01*
X47581Y-44317D01*
X47624Y-44251D01*
X47624Y-44267D01*
X47662Y-44359D01*
X47733Y-44429D01*
X47825Y-44467D01*
X47924Y-44467D01*
X48544Y-44467D01*
X48636Y-44429D01*
X48706Y-44359D01*
X48744Y-44267D01*
X48745Y-44168D01*
X48745Y-44067D01*
X49484Y-44067D01*
X49484Y-44217D01*
X49522Y-44309D01*
X49593Y-44379D01*
X49685Y-44417D01*
X49784Y-44417D01*
X50384Y-44417D01*
X50476Y-44379D01*
X50546Y-44309D01*
X50584Y-44217D01*
X50585Y-44118D01*
X50585Y-43318D01*
X50547Y-43226D01*
X50476Y-43155D01*
X50384Y-43117D01*
X50285Y-43117D01*
X49685Y-43117D01*
X49593Y-43155D01*
X49523Y-43225D01*
X49485Y-43317D01*
X49484Y-43417D01*
X49484Y-43467D01*
X48745Y-43467D01*
X48745Y-43268D01*
X48707Y-43176D01*
X48636Y-43105D01*
X48544Y-43067D01*
X48445Y-43067D01*
X47825Y-43067D01*
X47733Y-43105D01*
X47663Y-43175D01*
X47625Y-43267D01*
X47625Y-43283D01*
X47581Y-43218D01*
X47399Y-43096D01*
X47185Y-43054D01*
X46970Y-43096D01*
X46789Y-43218D01*
X46685Y-43373D01*
X46581Y-43218D01*
X46399Y-43096D01*
X46185Y-43054D01*
X45970Y-43096D01*
X45789Y-43218D01*
X45685Y-43373D01*
X45581Y-43218D01*
X45399Y-43096D01*
X45185Y-43054D01*
X44970Y-43096D01*
X44789Y-43218D01*
X44685Y-43373D01*
X44581Y-43218D01*
X44399Y-43096D01*
X44185Y-43054D01*
X44170Y-43056D01*
X44859Y-42367D01*
X52540Y-42367D01*
X52444Y-42407D01*
X52324Y-42526D01*
X52260Y-42682D01*
X52259Y-42851D01*
X52324Y-43008D01*
X52443Y-43127D01*
X52600Y-43192D01*
X52610Y-43192D01*
X52610Y-48967D01*
X52610Y-48967D01*
G37*
G54D30*
X52610Y-48967D02*
X52260Y-48967D01*
X52260Y-44583D01*
X52195Y-44427D01*
X52076Y-44307D01*
X51919Y-44242D01*
X51874Y-44242D01*
X51884Y-44217D01*
X51885Y-44118D01*
X51885Y-43318D01*
X51847Y-43226D01*
X51776Y-43155D01*
X51684Y-43117D01*
X51585Y-43117D01*
X50985Y-43117D01*
X50893Y-43155D01*
X50823Y-43225D01*
X50785Y-43317D01*
X50784Y-43417D01*
X50784Y-44217D01*
X50822Y-44309D01*
X50893Y-44379D01*
X50985Y-44417D01*
X51084Y-44417D01*
X51160Y-44417D01*
X51410Y-44666D01*
X51409Y-44751D01*
X51474Y-44908D01*
X51593Y-45027D01*
X51750Y-45092D01*
X51919Y-45092D01*
X52075Y-45028D01*
X52195Y-44908D01*
X52259Y-44752D01*
X52260Y-44583D01*
X52260Y-48967D01*
X51510Y-48967D01*
X51510Y-47017D01*
X51485Y-46893D01*
X51485Y-46893D01*
X51414Y-46787D01*
X51414Y-46787D01*
X49914Y-45287D01*
X49809Y-45217D01*
X49685Y-45192D01*
X46069Y-45192D01*
X45510Y-44633D01*
X45510Y-44364D01*
X45581Y-44317D01*
X45685Y-44161D01*
X45789Y-44317D01*
X45970Y-44438D01*
X46185Y-44481D01*
X46399Y-44438D01*
X46581Y-44317D01*
X46685Y-44161D01*
X46789Y-44317D01*
X46970Y-44438D01*
X47185Y-44481D01*
X47399Y-44438D01*
X47581Y-44317D01*
X47624Y-44251D01*
X47624Y-44267D01*
X47662Y-44359D01*
X47733Y-44429D01*
X47825Y-44467D01*
X47924Y-44467D01*
X48544Y-44467D01*
X48636Y-44429D01*
X48706Y-44359D01*
X48744Y-44267D01*
X48745Y-44168D01*
X48745Y-44067D01*
X49484Y-44067D01*
X49484Y-44217D01*
X49522Y-44309D01*
X49593Y-44379D01*
X49685Y-44417D01*
X49784Y-44417D01*
X50384Y-44417D01*
X50476Y-44379D01*
X50546Y-44309D01*
X50584Y-44217D01*
X50585Y-44118D01*
X50585Y-43318D01*
X50547Y-43226D01*
X50476Y-43155D01*
X50384Y-43117D01*
X50285Y-43117D01*
X49685Y-43117D01*
X49593Y-43155D01*
X49523Y-43225D01*
X49485Y-43317D01*
X49484Y-43417D01*
X49484Y-43467D01*
X48745Y-43467D01*
X48745Y-43268D01*
X48707Y-43176D01*
X48636Y-43105D01*
X48544Y-43067D01*
X48445Y-43067D01*
X47825Y-43067D01*
X47733Y-43105D01*
X47663Y-43175D01*
X47625Y-43267D01*
X47625Y-43283D01*
X47581Y-43218D01*
X47399Y-43096D01*
X47185Y-43054D01*
X46970Y-43096D01*
X46789Y-43218D01*
X46685Y-43373D01*
X46581Y-43218D01*
X46399Y-43096D01*
X46185Y-43054D01*
X45970Y-43096D01*
X45789Y-43218D01*
X45685Y-43373D01*
X45581Y-43218D01*
X45399Y-43096D01*
X45185Y-43054D01*
X44970Y-43096D01*
X44789Y-43218D01*
X44685Y-43373D01*
X44581Y-43218D01*
X44399Y-43096D01*
X44185Y-43054D01*
X44170Y-43056D01*
X44859Y-42367D01*
X52540Y-42367D01*
X52444Y-42407D01*
X52324Y-42526D01*
X52260Y-42682D01*
X52259Y-42851D01*
X52324Y-43008D01*
X52443Y-43127D01*
X52600Y-43192D01*
X52610Y-43192D01*
X52610Y-48967D01*
G54D10*
G36*
X53110Y-34309D02*
X53056Y-34255D01*
X52964Y-34217D01*
X52865Y-34217D01*
X52705Y-34217D01*
X52705Y-34217D01*
X52615Y-34217D01*
X52455Y-34217D01*
X52455Y-34217D01*
X52454Y-34217D01*
X52427Y-34217D01*
X52407Y-34237D01*
X52363Y-34255D01*
X52330Y-34289D01*
X52296Y-34255D01*
X52235Y-34230D01*
X52222Y-34217D01*
X52195Y-34217D01*
X52195Y-34217D01*
X52105Y-34217D01*
X51945Y-34217D01*
X51945Y-34217D01*
X51944Y-34217D01*
X51845Y-34217D01*
X51685Y-34217D01*
X51685Y-34217D01*
X51684Y-34217D01*
X51585Y-34217D01*
X51425Y-34217D01*
X51425Y-34217D01*
X51335Y-34217D01*
X51175Y-34217D01*
X51175Y-34217D01*
X51174Y-34217D01*
X51075Y-34217D01*
X50915Y-34217D01*
X50915Y-34217D01*
X50914Y-34217D01*
X50815Y-34217D01*
X50664Y-34217D01*
X50655Y-34217D01*
X50655Y-34217D01*
X50637Y-34217D01*
X50624Y-34230D01*
X50585Y-34246D01*
X50585Y-34217D01*
X50570Y-34217D01*
X51668Y-33119D01*
X51708Y-33160D01*
X51865Y-33224D01*
X52034Y-33225D01*
X52190Y-33160D01*
X52310Y-33041D01*
X52374Y-32884D01*
X52375Y-32715D01*
X52310Y-32559D01*
X52191Y-32439D01*
X52034Y-32375D01*
X51865Y-32374D01*
X51709Y-32439D01*
X51658Y-32490D01*
X51550Y-32490D01*
X51549Y-32490D01*
X51526Y-32494D01*
X51431Y-32513D01*
X51333Y-32579D01*
X51594Y-32317D01*
X51793Y-32317D01*
X51996Y-32234D01*
X52151Y-32079D01*
X52185Y-31997D01*
X52218Y-32078D01*
X52360Y-32220D01*
X52360Y-32267D01*
X52384Y-32392D01*
X52455Y-32497D01*
X53110Y-33152D01*
X53110Y-34309D01*
X53110Y-34309D01*
G37*
G54D30*
X53110Y-34309D02*
X53056Y-34255D01*
X52964Y-34217D01*
X52865Y-34217D01*
X52705Y-34217D01*
X52705Y-34217D01*
X52615Y-34217D01*
X52455Y-34217D01*
X52455Y-34217D01*
X52454Y-34217D01*
X52427Y-34217D01*
X52407Y-34237D01*
X52363Y-34255D01*
X52330Y-34289D01*
X52296Y-34255D01*
X52235Y-34230D01*
X52222Y-34217D01*
X52195Y-34217D01*
X52195Y-34217D01*
X52105Y-34217D01*
X51945Y-34217D01*
X51945Y-34217D01*
X51944Y-34217D01*
X51845Y-34217D01*
X51685Y-34217D01*
X51685Y-34217D01*
X51684Y-34217D01*
X51585Y-34217D01*
X51425Y-34217D01*
X51425Y-34217D01*
X51335Y-34217D01*
X51175Y-34217D01*
X51175Y-34217D01*
X51174Y-34217D01*
X51075Y-34217D01*
X50915Y-34217D01*
X50915Y-34217D01*
X50914Y-34217D01*
X50815Y-34217D01*
X50664Y-34217D01*
X50655Y-34217D01*
X50655Y-34217D01*
X50637Y-34217D01*
X50624Y-34230D01*
X50585Y-34246D01*
X50585Y-34217D01*
X50570Y-34217D01*
X51668Y-33119D01*
X51708Y-33160D01*
X51865Y-33224D01*
X52034Y-33225D01*
X52190Y-33160D01*
X52310Y-33041D01*
X52374Y-32884D01*
X52375Y-32715D01*
X52310Y-32559D01*
X52191Y-32439D01*
X52034Y-32375D01*
X51865Y-32374D01*
X51709Y-32439D01*
X51658Y-32490D01*
X51550Y-32490D01*
X51549Y-32490D01*
X51526Y-32494D01*
X51431Y-32513D01*
X51333Y-32579D01*
X51594Y-32317D01*
X51793Y-32317D01*
X51996Y-32234D01*
X52151Y-32079D01*
X52185Y-31997D01*
X52218Y-32078D01*
X52360Y-32220D01*
X52360Y-32267D01*
X52384Y-32392D01*
X52455Y-32497D01*
X53110Y-33152D01*
X53110Y-34309D01*
G54D10*
G36*
X59054Y-41167D02*
X58973Y-41201D01*
X58819Y-41355D01*
X58814Y-41367D01*
X55390Y-41367D01*
X54835Y-40812D01*
X54835Y-39118D01*
X54835Y-38417D01*
X54834Y-38317D01*
X54814Y-38267D01*
X54834Y-38217D01*
X54835Y-38118D01*
X54835Y-37417D01*
X54834Y-37317D01*
X54814Y-37267D01*
X54834Y-37217D01*
X54835Y-37118D01*
X54835Y-36417D01*
X54834Y-36317D01*
X54814Y-36267D01*
X54834Y-36217D01*
X54835Y-36118D01*
X54835Y-35417D01*
X54834Y-35317D01*
X54814Y-35267D01*
X54834Y-35217D01*
X54835Y-35118D01*
X54835Y-34417D01*
X54834Y-34317D01*
X54814Y-34267D01*
X54834Y-34217D01*
X54835Y-34118D01*
X54835Y-33417D01*
X54834Y-33317D01*
X54796Y-33225D01*
X54726Y-33155D01*
X54634Y-33117D01*
X54397Y-33117D01*
X54335Y-33180D01*
X54335Y-33717D01*
X54772Y-33717D01*
X54835Y-33655D01*
X54835Y-33417D01*
X54835Y-34118D01*
X54835Y-33880D01*
X54772Y-33817D01*
X54335Y-33817D01*
X54335Y-34180D01*
X54335Y-34355D01*
X54335Y-34717D01*
X54772Y-34717D01*
X54835Y-34655D01*
X54835Y-34417D01*
X54835Y-35118D01*
X54835Y-34880D01*
X54772Y-34817D01*
X54335Y-34817D01*
X54335Y-35180D01*
X54335Y-35355D01*
X54335Y-35717D01*
X54772Y-35717D01*
X54835Y-35655D01*
X54835Y-35417D01*
X54835Y-36118D01*
X54835Y-35880D01*
X54772Y-35817D01*
X54335Y-35817D01*
X54335Y-36180D01*
X54335Y-36355D01*
X54335Y-36717D01*
X54772Y-36717D01*
X54835Y-36655D01*
X54835Y-36417D01*
X54835Y-37118D01*
X54835Y-36880D01*
X54772Y-36817D01*
X54335Y-36817D01*
X54335Y-37180D01*
X54335Y-37355D01*
X54335Y-37717D01*
X54772Y-37717D01*
X54835Y-37655D01*
X54835Y-37417D01*
X54835Y-38118D01*
X54835Y-37880D01*
X54772Y-37817D01*
X54335Y-37817D01*
X54335Y-38180D01*
X54335Y-38355D01*
X54335Y-38717D01*
X54772Y-38717D01*
X54835Y-38655D01*
X54835Y-38417D01*
X54835Y-39118D01*
X54835Y-38880D01*
X54772Y-38817D01*
X54335Y-38817D01*
X54335Y-39355D01*
X54397Y-39417D01*
X54634Y-39417D01*
X54726Y-39379D01*
X54796Y-39309D01*
X54834Y-39217D01*
X54835Y-39118D01*
X54835Y-40812D01*
X54235Y-40212D01*
X54235Y-39355D01*
X54235Y-38817D01*
X54235Y-38717D01*
X54235Y-38355D01*
X54235Y-38180D01*
X54235Y-37817D01*
X54235Y-37717D01*
X54235Y-37355D01*
X54235Y-37180D01*
X54235Y-36817D01*
X53797Y-36817D01*
X53735Y-36880D01*
X53734Y-37118D01*
X53735Y-37217D01*
X53755Y-37267D01*
X53735Y-37317D01*
X53734Y-37417D01*
X53735Y-37655D01*
X53797Y-37717D01*
X54235Y-37717D01*
X54235Y-37817D01*
X53797Y-37817D01*
X53735Y-37880D01*
X53734Y-38118D01*
X53735Y-38217D01*
X53755Y-38267D01*
X53735Y-38317D01*
X53734Y-38417D01*
X53735Y-38655D01*
X53797Y-38717D01*
X54235Y-38717D01*
X54235Y-38817D01*
X53797Y-38817D01*
X53735Y-38880D01*
X53734Y-39118D01*
X53735Y-39217D01*
X53773Y-39309D01*
X53843Y-39379D01*
X53935Y-39417D01*
X54172Y-39417D01*
X54235Y-39355D01*
X54235Y-40212D01*
X52375Y-38352D01*
X52375Y-37317D01*
X52375Y-37317D01*
X52375Y-37284D01*
X52407Y-37298D01*
X52427Y-37317D01*
X52454Y-37317D01*
X52454Y-37317D01*
X52455Y-37317D01*
X52554Y-37317D01*
X52714Y-37317D01*
X52714Y-37317D01*
X52804Y-37317D01*
X52964Y-37317D01*
X53056Y-37279D01*
X53126Y-37209D01*
X53164Y-37117D01*
X53165Y-37018D01*
X53165Y-36997D01*
X53664Y-36497D01*
X53664Y-36497D01*
X53664Y-36497D01*
X53707Y-36434D01*
X53735Y-36392D01*
X53734Y-36417D01*
X53735Y-36655D01*
X53797Y-36717D01*
X54235Y-36717D01*
X54235Y-36355D01*
X54235Y-36180D01*
X54235Y-35817D01*
X54227Y-35817D01*
X54227Y-35717D01*
X54235Y-35717D01*
X54235Y-35355D01*
X54235Y-35180D01*
X54235Y-34817D01*
X54227Y-34817D01*
X54227Y-34717D01*
X54235Y-34717D01*
X54235Y-34355D01*
X54235Y-34180D01*
X54235Y-33817D01*
X54227Y-33817D01*
X54227Y-33717D01*
X54235Y-33717D01*
X54235Y-33180D01*
X54172Y-33117D01*
X53935Y-33117D01*
X53843Y-33155D01*
X53773Y-33225D01*
X53760Y-33257D01*
X53760Y-33017D01*
X53760Y-33017D01*
X53760Y-33017D01*
X53755Y-32992D01*
X53735Y-32893D01*
X53735Y-32893D01*
X53664Y-32787D01*
X53664Y-32787D01*
X53053Y-32176D01*
X53151Y-32079D01*
X53185Y-31997D01*
X53218Y-32078D01*
X53373Y-32233D01*
X53575Y-32317D01*
X53793Y-32317D01*
X53996Y-32234D01*
X54151Y-32079D01*
X54185Y-31997D01*
X54218Y-32078D01*
X54373Y-32233D01*
X54575Y-32317D01*
X54793Y-32317D01*
X54996Y-32234D01*
X55151Y-32079D01*
X55185Y-31997D01*
X55218Y-32078D01*
X55373Y-32233D01*
X55575Y-32317D01*
X55629Y-32317D01*
X55851Y-32540D01*
X55791Y-32540D01*
X55741Y-32489D01*
X55584Y-32425D01*
X55415Y-32424D01*
X55259Y-32489D01*
X55139Y-32608D01*
X55075Y-32765D01*
X55074Y-32934D01*
X55139Y-33090D01*
X55186Y-33137D01*
X55143Y-33155D01*
X55073Y-33225D01*
X55035Y-33317D01*
X55034Y-33417D01*
X55034Y-34217D01*
X55055Y-34267D01*
X55035Y-34317D01*
X55034Y-34417D01*
X55034Y-35217D01*
X55055Y-35267D01*
X55035Y-35317D01*
X55034Y-35417D01*
X55034Y-36217D01*
X55055Y-36267D01*
X55035Y-36317D01*
X55034Y-36417D01*
X55034Y-37217D01*
X55055Y-37267D01*
X55035Y-37317D01*
X55034Y-37417D01*
X55034Y-38217D01*
X55055Y-38267D01*
X55035Y-38317D01*
X55034Y-38417D01*
X55034Y-39217D01*
X55072Y-39309D01*
X55143Y-39379D01*
X55235Y-39417D01*
X55334Y-39417D01*
X55934Y-39417D01*
X56026Y-39379D01*
X56096Y-39309D01*
X56134Y-39217D01*
X56135Y-39118D01*
X56135Y-39092D01*
X56158Y-39092D01*
X56193Y-39127D01*
X56350Y-39192D01*
X56519Y-39192D01*
X56675Y-39128D01*
X56795Y-39008D01*
X56859Y-38852D01*
X56860Y-38683D01*
X56795Y-38527D01*
X56676Y-38407D01*
X56519Y-38342D01*
X56350Y-38342D01*
X56194Y-38407D01*
X56159Y-38442D01*
X56135Y-38442D01*
X56135Y-38318D01*
X56114Y-38267D01*
X56134Y-38217D01*
X56135Y-38118D01*
X56135Y-37318D01*
X56114Y-37267D01*
X56134Y-37217D01*
X56135Y-37118D01*
X56135Y-37092D01*
X56158Y-37092D01*
X56193Y-37127D01*
X56350Y-37192D01*
X56519Y-37192D01*
X56675Y-37128D01*
X56795Y-37008D01*
X56859Y-36852D01*
X56859Y-36816D01*
X58985Y-38941D01*
X58985Y-40196D01*
X58973Y-40201D01*
X58819Y-40355D01*
X58735Y-40557D01*
X58734Y-40776D01*
X58818Y-40978D01*
X58973Y-41133D01*
X59054Y-41167D01*
X59054Y-41167D01*
G37*
G54D30*
X59054Y-41167D02*
X58973Y-41201D01*
X58819Y-41355D01*
X58814Y-41367D01*
X55390Y-41367D01*
X54835Y-40812D01*
X54835Y-39118D01*
X54835Y-38417D01*
X54834Y-38317D01*
X54814Y-38267D01*
X54834Y-38217D01*
X54835Y-38118D01*
X54835Y-37417D01*
X54834Y-37317D01*
X54814Y-37267D01*
X54834Y-37217D01*
X54835Y-37118D01*
X54835Y-36417D01*
X54834Y-36317D01*
X54814Y-36267D01*
X54834Y-36217D01*
X54835Y-36118D01*
X54835Y-35417D01*
X54834Y-35317D01*
X54814Y-35267D01*
X54834Y-35217D01*
X54835Y-35118D01*
X54835Y-34417D01*
X54834Y-34317D01*
X54814Y-34267D01*
X54834Y-34217D01*
X54835Y-34118D01*
X54835Y-33417D01*
X54834Y-33317D01*
X54796Y-33225D01*
X54726Y-33155D01*
X54634Y-33117D01*
X54397Y-33117D01*
X54335Y-33180D01*
X54335Y-33717D01*
X54772Y-33717D01*
X54835Y-33655D01*
X54835Y-33417D01*
X54835Y-34118D01*
X54835Y-33880D01*
X54772Y-33817D01*
X54335Y-33817D01*
X54335Y-34180D01*
X54335Y-34355D01*
X54335Y-34717D01*
X54772Y-34717D01*
X54835Y-34655D01*
X54835Y-34417D01*
X54835Y-35118D01*
X54835Y-34880D01*
X54772Y-34817D01*
X54335Y-34817D01*
X54335Y-35180D01*
X54335Y-35355D01*
X54335Y-35717D01*
X54772Y-35717D01*
X54835Y-35655D01*
X54835Y-35417D01*
X54835Y-36118D01*
X54835Y-35880D01*
X54772Y-35817D01*
X54335Y-35817D01*
X54335Y-36180D01*
X54335Y-36355D01*
X54335Y-36717D01*
X54772Y-36717D01*
X54835Y-36655D01*
X54835Y-36417D01*
X54835Y-37118D01*
X54835Y-36880D01*
X54772Y-36817D01*
X54335Y-36817D01*
X54335Y-37180D01*
X54335Y-37355D01*
X54335Y-37717D01*
X54772Y-37717D01*
X54835Y-37655D01*
X54835Y-37417D01*
X54835Y-38118D01*
X54835Y-37880D01*
X54772Y-37817D01*
X54335Y-37817D01*
X54335Y-38180D01*
X54335Y-38355D01*
X54335Y-38717D01*
X54772Y-38717D01*
X54835Y-38655D01*
X54835Y-38417D01*
X54835Y-39118D01*
X54835Y-38880D01*
X54772Y-38817D01*
X54335Y-38817D01*
X54335Y-39355D01*
X54397Y-39417D01*
X54634Y-39417D01*
X54726Y-39379D01*
X54796Y-39309D01*
X54834Y-39217D01*
X54835Y-39118D01*
X54835Y-40812D01*
X54235Y-40212D01*
X54235Y-39355D01*
X54235Y-38817D01*
X54235Y-38717D01*
X54235Y-38355D01*
X54235Y-38180D01*
X54235Y-37817D01*
X54235Y-37717D01*
X54235Y-37355D01*
X54235Y-37180D01*
X54235Y-36817D01*
X53797Y-36817D01*
X53735Y-36880D01*
X53734Y-37118D01*
X53735Y-37217D01*
X53755Y-37267D01*
X53735Y-37317D01*
X53734Y-37417D01*
X53735Y-37655D01*
X53797Y-37717D01*
X54235Y-37717D01*
X54235Y-37817D01*
X53797Y-37817D01*
X53735Y-37880D01*
X53734Y-38118D01*
X53735Y-38217D01*
X53755Y-38267D01*
X53735Y-38317D01*
X53734Y-38417D01*
X53735Y-38655D01*
X53797Y-38717D01*
X54235Y-38717D01*
X54235Y-38817D01*
X53797Y-38817D01*
X53735Y-38880D01*
X53734Y-39118D01*
X53735Y-39217D01*
X53773Y-39309D01*
X53843Y-39379D01*
X53935Y-39417D01*
X54172Y-39417D01*
X54235Y-39355D01*
X54235Y-40212D01*
X52375Y-38352D01*
X52375Y-37317D01*
X52375Y-37317D01*
X52375Y-37284D01*
X52407Y-37298D01*
X52427Y-37317D01*
X52454Y-37317D01*
X52454Y-37317D01*
X52455Y-37317D01*
X52554Y-37317D01*
X52714Y-37317D01*
X52714Y-37317D01*
X52804Y-37317D01*
X52964Y-37317D01*
X53056Y-37279D01*
X53126Y-37209D01*
X53164Y-37117D01*
X53165Y-37018D01*
X53165Y-36997D01*
X53664Y-36497D01*
X53664Y-36497D01*
X53664Y-36497D01*
X53707Y-36434D01*
X53735Y-36392D01*
X53734Y-36417D01*
X53735Y-36655D01*
X53797Y-36717D01*
X54235Y-36717D01*
X54235Y-36355D01*
X54235Y-36180D01*
X54235Y-35817D01*
X54227Y-35817D01*
X54227Y-35717D01*
X54235Y-35717D01*
X54235Y-35355D01*
X54235Y-35180D01*
X54235Y-34817D01*
X54227Y-34817D01*
X54227Y-34717D01*
X54235Y-34717D01*
X54235Y-34355D01*
X54235Y-34180D01*
X54235Y-33817D01*
X54227Y-33817D01*
X54227Y-33717D01*
X54235Y-33717D01*
X54235Y-33180D01*
X54172Y-33117D01*
X53935Y-33117D01*
X53843Y-33155D01*
X53773Y-33225D01*
X53760Y-33257D01*
X53760Y-33017D01*
X53760Y-33017D01*
X53760Y-33017D01*
X53755Y-32992D01*
X53735Y-32893D01*
X53735Y-32893D01*
X53664Y-32787D01*
X53664Y-32787D01*
X53053Y-32176D01*
X53151Y-32079D01*
X53185Y-31997D01*
X53218Y-32078D01*
X53373Y-32233D01*
X53575Y-32317D01*
X53793Y-32317D01*
X53996Y-32234D01*
X54151Y-32079D01*
X54185Y-31997D01*
X54218Y-32078D01*
X54373Y-32233D01*
X54575Y-32317D01*
X54793Y-32317D01*
X54996Y-32234D01*
X55151Y-32079D01*
X55185Y-31997D01*
X55218Y-32078D01*
X55373Y-32233D01*
X55575Y-32317D01*
X55629Y-32317D01*
X55851Y-32540D01*
X55791Y-32540D01*
X55741Y-32489D01*
X55584Y-32425D01*
X55415Y-32424D01*
X55259Y-32489D01*
X55139Y-32608D01*
X55075Y-32765D01*
X55074Y-32934D01*
X55139Y-33090D01*
X55186Y-33137D01*
X55143Y-33155D01*
X55073Y-33225D01*
X55035Y-33317D01*
X55034Y-33417D01*
X55034Y-34217D01*
X55055Y-34267D01*
X55035Y-34317D01*
X55034Y-34417D01*
X55034Y-35217D01*
X55055Y-35267D01*
X55035Y-35317D01*
X55034Y-35417D01*
X55034Y-36217D01*
X55055Y-36267D01*
X55035Y-36317D01*
X55034Y-36417D01*
X55034Y-37217D01*
X55055Y-37267D01*
X55035Y-37317D01*
X55034Y-37417D01*
X55034Y-38217D01*
X55055Y-38267D01*
X55035Y-38317D01*
X55034Y-38417D01*
X55034Y-39217D01*
X55072Y-39309D01*
X55143Y-39379D01*
X55235Y-39417D01*
X55334Y-39417D01*
X55934Y-39417D01*
X56026Y-39379D01*
X56096Y-39309D01*
X56134Y-39217D01*
X56135Y-39118D01*
X56135Y-39092D01*
X56158Y-39092D01*
X56193Y-39127D01*
X56350Y-39192D01*
X56519Y-39192D01*
X56675Y-39128D01*
X56795Y-39008D01*
X56859Y-38852D01*
X56860Y-38683D01*
X56795Y-38527D01*
X56676Y-38407D01*
X56519Y-38342D01*
X56350Y-38342D01*
X56194Y-38407D01*
X56159Y-38442D01*
X56135Y-38442D01*
X56135Y-38318D01*
X56114Y-38267D01*
X56134Y-38217D01*
X56135Y-38118D01*
X56135Y-37318D01*
X56114Y-37267D01*
X56134Y-37217D01*
X56135Y-37118D01*
X56135Y-37092D01*
X56158Y-37092D01*
X56193Y-37127D01*
X56350Y-37192D01*
X56519Y-37192D01*
X56675Y-37128D01*
X56795Y-37008D01*
X56859Y-36852D01*
X56859Y-36816D01*
X58985Y-38941D01*
X58985Y-40196D01*
X58973Y-40201D01*
X58819Y-40355D01*
X58735Y-40557D01*
X58734Y-40776D01*
X58818Y-40978D01*
X58973Y-41133D01*
X59054Y-41167D01*
G54D10*
G36*
X64135Y-34102D02*
X64119Y-34079D01*
X64119Y-34079D01*
X63699Y-33659D01*
X63721Y-33604D01*
X63721Y-33348D01*
X63623Y-33112D01*
X63443Y-32930D01*
X63206Y-32832D01*
X62950Y-32832D01*
X62713Y-32930D01*
X62532Y-33111D01*
X62509Y-33166D01*
X61284Y-33166D01*
X61261Y-33112D01*
X61080Y-32930D01*
X60844Y-32832D01*
X60588Y-32832D01*
X60533Y-32855D01*
X59936Y-32258D01*
X59996Y-32234D01*
X60151Y-32079D01*
X60185Y-31997D01*
X60218Y-32078D01*
X60373Y-32233D01*
X60575Y-32317D01*
X60793Y-32317D01*
X60996Y-32234D01*
X61134Y-32095D01*
X61134Y-32117D01*
X61172Y-32209D01*
X61243Y-32279D01*
X61335Y-32317D01*
X61434Y-32317D01*
X62034Y-32317D01*
X62126Y-32279D01*
X62196Y-32209D01*
X62234Y-32117D01*
X62235Y-32018D01*
X62235Y-31418D01*
X62197Y-31326D01*
X62126Y-31255D01*
X62034Y-31217D01*
X62012Y-31217D01*
X62151Y-31079D01*
X62234Y-30877D01*
X62235Y-30658D01*
X62151Y-30456D01*
X61996Y-30301D01*
X61794Y-30217D01*
X61576Y-30217D01*
X61373Y-30301D01*
X61219Y-30455D01*
X61185Y-30537D01*
X61151Y-30456D01*
X60996Y-30301D01*
X60794Y-30217D01*
X60576Y-30217D01*
X60373Y-30301D01*
X60219Y-30455D01*
X60187Y-30531D01*
X60166Y-30479D01*
X60070Y-30452D01*
X60000Y-30523D01*
X60000Y-30381D01*
X59972Y-30286D01*
X59766Y-30212D01*
X59548Y-30223D01*
X59397Y-30286D01*
X59369Y-30381D01*
X59685Y-30697D01*
X60000Y-30381D01*
X60000Y-30523D01*
X59755Y-30767D01*
X60070Y-31082D01*
X60166Y-31055D01*
X60186Y-31000D01*
X60218Y-31078D01*
X60373Y-31233D01*
X60454Y-31267D01*
X60373Y-31301D01*
X60219Y-31455D01*
X60185Y-31537D01*
X60151Y-31456D01*
X59996Y-31301D01*
X59921Y-31270D01*
X59972Y-31248D01*
X60000Y-31153D01*
X59685Y-30838D01*
X59369Y-31153D01*
X59397Y-31248D01*
X59452Y-31268D01*
X59373Y-31301D01*
X59219Y-31455D01*
X59185Y-31537D01*
X59151Y-31456D01*
X58996Y-31301D01*
X58915Y-31267D01*
X58996Y-31234D01*
X59151Y-31079D01*
X59182Y-31004D01*
X59203Y-31055D01*
X59299Y-31082D01*
X59614Y-30767D01*
X59299Y-30452D01*
X59203Y-30479D01*
X59184Y-30535D01*
X59151Y-30456D01*
X58996Y-30301D01*
X58794Y-30217D01*
X58576Y-30217D01*
X58373Y-30301D01*
X58219Y-30455D01*
X58135Y-30657D01*
X58134Y-30876D01*
X58218Y-31078D01*
X58373Y-31233D01*
X58454Y-31267D01*
X58373Y-31301D01*
X58219Y-31455D01*
X58185Y-31537D01*
X58151Y-31456D01*
X57996Y-31301D01*
X57794Y-31217D01*
X57576Y-31217D01*
X57373Y-31301D01*
X57219Y-31455D01*
X57185Y-31537D01*
X57151Y-31456D01*
X56996Y-31301D01*
X56794Y-31217D01*
X56576Y-31217D01*
X56373Y-31301D01*
X56219Y-31455D01*
X56185Y-31537D01*
X56151Y-31456D01*
X55996Y-31301D01*
X55794Y-31217D01*
X55576Y-31217D01*
X55373Y-31301D01*
X55219Y-31455D01*
X55185Y-31537D01*
X55151Y-31456D01*
X54996Y-31301D01*
X54794Y-31217D01*
X54576Y-31217D01*
X54373Y-31301D01*
X54219Y-31455D01*
X54185Y-31537D01*
X54151Y-31456D01*
X53996Y-31301D01*
X53915Y-31267D01*
X53996Y-31234D01*
X54151Y-31079D01*
X54234Y-30877D01*
X54235Y-30658D01*
X54151Y-30456D01*
X53996Y-30301D01*
X53794Y-30217D01*
X53576Y-30217D01*
X53373Y-30301D01*
X53219Y-30455D01*
X53185Y-30537D01*
X53151Y-30456D01*
X52996Y-30301D01*
X52794Y-30217D01*
X52576Y-30217D01*
X52373Y-30301D01*
X52219Y-30455D01*
X52187Y-30531D01*
X52166Y-30479D01*
X52070Y-30452D01*
X52000Y-30523D01*
X52000Y-30381D01*
X51972Y-30286D01*
X51766Y-30212D01*
X51548Y-30223D01*
X51397Y-30286D01*
X51369Y-30381D01*
X51685Y-30697D01*
X52000Y-30381D01*
X52000Y-30523D01*
X51755Y-30767D01*
X52070Y-31082D01*
X52166Y-31055D01*
X52186Y-31000D01*
X52218Y-31078D01*
X52373Y-31233D01*
X52454Y-31267D01*
X52373Y-31301D01*
X52219Y-31455D01*
X52185Y-31537D01*
X52151Y-31456D01*
X51996Y-31301D01*
X51921Y-31270D01*
X51972Y-31248D01*
X52000Y-31153D01*
X51685Y-30838D01*
X51369Y-31153D01*
X51397Y-31248D01*
X51452Y-31268D01*
X51373Y-31301D01*
X51219Y-31455D01*
X51185Y-31537D01*
X51151Y-31456D01*
X50996Y-31301D01*
X50915Y-31267D01*
X50996Y-31234D01*
X51151Y-31079D01*
X51182Y-31004D01*
X51203Y-31055D01*
X51299Y-31082D01*
X51614Y-30767D01*
X51299Y-30452D01*
X51203Y-30479D01*
X51184Y-30535D01*
X51151Y-30456D01*
X50996Y-30301D01*
X50794Y-30217D01*
X50576Y-30217D01*
X50373Y-30301D01*
X50219Y-30455D01*
X50135Y-30657D01*
X50134Y-30876D01*
X50218Y-31078D01*
X50373Y-31233D01*
X50454Y-31267D01*
X50373Y-31301D01*
X50219Y-31455D01*
X50185Y-31537D01*
X50151Y-31456D01*
X49996Y-31301D01*
X49794Y-31217D01*
X49576Y-31217D01*
X49373Y-31301D01*
X49219Y-31455D01*
X49185Y-31537D01*
X49151Y-31456D01*
X48996Y-31301D01*
X48794Y-31217D01*
X48576Y-31217D01*
X48373Y-31301D01*
X48219Y-31455D01*
X48185Y-31537D01*
X48151Y-31456D01*
X47996Y-31301D01*
X47794Y-31217D01*
X47576Y-31217D01*
X47373Y-31301D01*
X47219Y-31455D01*
X47185Y-31537D01*
X47151Y-31456D01*
X47085Y-31390D01*
X47085Y-28317D01*
X47066Y-28221D01*
X47012Y-28140D01*
X46930Y-28086D01*
X46835Y-28067D01*
X46739Y-28086D01*
X46657Y-28140D01*
X46603Y-28221D01*
X46584Y-28317D01*
X46603Y-28413D01*
X46657Y-28494D01*
X46739Y-28549D01*
X46835Y-28568D01*
X46930Y-28549D01*
X47012Y-28494D01*
X47066Y-28413D01*
X47085Y-28317D01*
X47085Y-31390D01*
X46996Y-31301D01*
X46794Y-31217D01*
X46576Y-31217D01*
X46373Y-31301D01*
X46219Y-31455D01*
X46135Y-31657D01*
X46134Y-31876D01*
X46218Y-32078D01*
X46373Y-32233D01*
X46375Y-32234D01*
X46375Y-32761D01*
X46309Y-32717D01*
X46185Y-32692D01*
X45740Y-32692D01*
X45775Y-32678D01*
X45895Y-32558D01*
X45959Y-32402D01*
X45960Y-32233D01*
X45895Y-32077D01*
X45776Y-31957D01*
X45619Y-31892D01*
X45450Y-31892D01*
X45294Y-31957D01*
X45174Y-32076D01*
X45110Y-32232D01*
X45109Y-32401D01*
X45174Y-32558D01*
X45293Y-32677D01*
X45329Y-32692D01*
X42966Y-32692D01*
X42966Y-31052D01*
X42966Y-30068D01*
X42966Y-28690D01*
X42966Y-27706D01*
X42966Y-26328D01*
X42966Y-25344D01*
X42928Y-25252D01*
X42858Y-25181D01*
X42766Y-25143D01*
X42667Y-25143D01*
X41682Y-25143D01*
X41590Y-25181D01*
X41520Y-25251D01*
X41482Y-25343D01*
X41482Y-25443D01*
X41482Y-26427D01*
X41520Y-26519D01*
X41590Y-26589D01*
X41682Y-26627D01*
X41781Y-26627D01*
X42766Y-26627D01*
X42857Y-26590D01*
X42928Y-26519D01*
X42966Y-26427D01*
X42966Y-26328D01*
X42966Y-27706D01*
X42928Y-27614D01*
X42858Y-27544D01*
X42766Y-27505D01*
X42667Y-27505D01*
X41682Y-27505D01*
X41590Y-27543D01*
X41520Y-27614D01*
X41482Y-27705D01*
X41482Y-27805D01*
X41482Y-28789D01*
X41520Y-28881D01*
X41590Y-28951D01*
X41682Y-28990D01*
X41781Y-28990D01*
X42766Y-28990D01*
X42857Y-28952D01*
X42928Y-28881D01*
X42966Y-28790D01*
X42966Y-28690D01*
X42966Y-30068D01*
X42928Y-29976D01*
X42858Y-29906D01*
X42766Y-29868D01*
X42667Y-29868D01*
X41682Y-29868D01*
X41590Y-29906D01*
X41520Y-29976D01*
X41482Y-30068D01*
X41482Y-30167D01*
X41482Y-31151D01*
X41520Y-31243D01*
X41590Y-31314D01*
X41682Y-31352D01*
X41781Y-31352D01*
X42766Y-31352D01*
X42857Y-31314D01*
X42928Y-31244D01*
X42966Y-31152D01*
X42966Y-31052D01*
X42966Y-32692D01*
X39935Y-32692D01*
X39810Y-32717D01*
X39705Y-32787D01*
X38855Y-33637D01*
X38784Y-33743D01*
X38760Y-33867D01*
X38735Y-33867D01*
X38643Y-33905D01*
X38573Y-33975D01*
X38535Y-34067D01*
X38534Y-34167D01*
X38534Y-34967D01*
X38540Y-34980D01*
X38455Y-35037D01*
X38455Y-35037D01*
X38335Y-35158D01*
X38335Y-34868D01*
X38335Y-34068D01*
X38297Y-33976D01*
X38226Y-33905D01*
X38134Y-33867D01*
X38035Y-33867D01*
X37435Y-33867D01*
X37343Y-33905D01*
X37310Y-33939D01*
X37276Y-33905D01*
X37184Y-33867D01*
X37085Y-33867D01*
X36485Y-33867D01*
X36393Y-33905D01*
X36323Y-33975D01*
X36285Y-34067D01*
X36284Y-34167D01*
X36284Y-34967D01*
X36322Y-35059D01*
X36393Y-35129D01*
X36485Y-35167D01*
X36584Y-35167D01*
X37184Y-35167D01*
X37276Y-35129D01*
X37310Y-35096D01*
X37343Y-35129D01*
X37435Y-35167D01*
X37534Y-35167D01*
X38134Y-35167D01*
X38226Y-35129D01*
X38296Y-35059D01*
X38334Y-34967D01*
X38335Y-34868D01*
X38335Y-35158D01*
X37050Y-36442D01*
X33758Y-36442D01*
X33760Y-36441D01*
X33824Y-36284D01*
X33824Y-36248D01*
X34736Y-35336D01*
X34736Y-35336D01*
X34785Y-35264D01*
X34809Y-35228D01*
X34809Y-35228D01*
X34834Y-35100D01*
X34835Y-35100D01*
X34835Y-31061D01*
X35012Y-31239D01*
X35200Y-31317D01*
X35200Y-33867D01*
X35185Y-33867D01*
X35093Y-33905D01*
X35023Y-33975D01*
X34985Y-34067D01*
X34984Y-34167D01*
X34984Y-34967D01*
X35022Y-35059D01*
X35093Y-35129D01*
X35185Y-35167D01*
X35284Y-35167D01*
X35350Y-35167D01*
X35350Y-35200D01*
X35258Y-35237D01*
X35188Y-35308D01*
X35150Y-35400D01*
X35149Y-35499D01*
X35149Y-36099D01*
X35187Y-36191D01*
X35258Y-36261D01*
X35350Y-36299D01*
X35449Y-36300D01*
X36049Y-36300D01*
X36141Y-36262D01*
X36211Y-36191D01*
X36249Y-36099D01*
X36249Y-36077D01*
X36388Y-36215D01*
X36590Y-36299D01*
X36808Y-36300D01*
X37011Y-36216D01*
X37165Y-36061D01*
X37249Y-35859D01*
X37250Y-35641D01*
X37166Y-35438D01*
X37011Y-35284D01*
X36809Y-35200D01*
X36591Y-35199D01*
X36388Y-35283D01*
X36250Y-35422D01*
X36250Y-35400D01*
X36212Y-35308D01*
X36141Y-35238D01*
X36049Y-35200D01*
X36020Y-35200D01*
X36020Y-35086D01*
X36046Y-35059D01*
X36084Y-34967D01*
X36085Y-34868D01*
X36085Y-34068D01*
X36047Y-33976D01*
X35976Y-33905D01*
X35884Y-33867D01*
X35870Y-33867D01*
X35870Y-31222D01*
X36061Y-31031D01*
X36175Y-30758D01*
X36175Y-30463D01*
X36062Y-30190D01*
X35854Y-29981D01*
X35581Y-29868D01*
X35286Y-29867D01*
X35013Y-29980D01*
X34835Y-30158D01*
X34835Y-29319D01*
X35200Y-28954D01*
X35284Y-28990D01*
X35580Y-28990D01*
X35852Y-28877D01*
X36061Y-28668D01*
X36175Y-28396D01*
X36175Y-28101D01*
X36175Y-25738D01*
X36062Y-25465D01*
X35854Y-25257D01*
X35581Y-25143D01*
X35286Y-25143D01*
X35013Y-25256D01*
X34804Y-25464D01*
X34691Y-25737D01*
X34690Y-26032D01*
X34803Y-26305D01*
X35012Y-26514D01*
X35284Y-26627D01*
X35580Y-26628D01*
X35852Y-26515D01*
X36061Y-26306D01*
X36175Y-26034D01*
X36175Y-25738D01*
X36175Y-28101D01*
X36062Y-27828D01*
X35854Y-27619D01*
X35581Y-27506D01*
X35286Y-27505D01*
X35013Y-27618D01*
X34804Y-27827D01*
X34691Y-28099D01*
X34690Y-28395D01*
X34726Y-28480D01*
X34305Y-28902D01*
X34305Y-28690D01*
X34305Y-27706D01*
X34305Y-26328D01*
X34305Y-25344D01*
X34267Y-25252D01*
X34196Y-25181D01*
X34105Y-25143D01*
X34005Y-25143D01*
X33021Y-25143D01*
X32929Y-25181D01*
X32859Y-25251D01*
X32820Y-25343D01*
X32820Y-25443D01*
X32820Y-26427D01*
X32858Y-26519D01*
X32929Y-26589D01*
X33020Y-26627D01*
X33120Y-26627D01*
X34104Y-26627D01*
X34196Y-26590D01*
X34266Y-26519D01*
X34305Y-26427D01*
X34305Y-26328D01*
X34305Y-27706D01*
X34267Y-27614D01*
X34196Y-27544D01*
X34105Y-27505D01*
X34005Y-27505D01*
X33021Y-27505D01*
X32929Y-27543D01*
X32859Y-27614D01*
X32820Y-27705D01*
X32820Y-27805D01*
X32820Y-28789D01*
X32858Y-28881D01*
X32929Y-28951D01*
X33020Y-28990D01*
X33120Y-28990D01*
X34104Y-28990D01*
X34196Y-28952D01*
X34266Y-28881D01*
X34305Y-28790D01*
X34305Y-28690D01*
X34305Y-28902D01*
X34263Y-28944D01*
X34190Y-29052D01*
X34165Y-29181D01*
X34165Y-29893D01*
X34105Y-29868D01*
X34005Y-29868D01*
X33021Y-29868D01*
X32929Y-29906D01*
X32859Y-29976D01*
X32820Y-30068D01*
X32820Y-30167D01*
X32820Y-31151D01*
X32858Y-31243D01*
X32929Y-31314D01*
X33020Y-31352D01*
X33120Y-31352D01*
X34104Y-31352D01*
X34165Y-31327D01*
X34165Y-34961D01*
X33351Y-35774D01*
X33315Y-35774D01*
X33159Y-35839D01*
X33135Y-35863D01*
X33135Y-34868D01*
X33135Y-34068D01*
X33097Y-33976D01*
X33026Y-33905D01*
X32935Y-33868D01*
X33045Y-33758D01*
X33109Y-33602D01*
X33110Y-33433D01*
X33045Y-33277D01*
X32926Y-33157D01*
X32769Y-33092D01*
X32600Y-33092D01*
X32444Y-33157D01*
X32324Y-33276D01*
X32260Y-33432D01*
X32259Y-33567D01*
X32250Y-33617D01*
X32250Y-33867D01*
X32235Y-33867D01*
X32143Y-33905D01*
X32073Y-33975D01*
X32035Y-34067D01*
X32034Y-34167D01*
X32034Y-34967D01*
X32072Y-35059D01*
X32143Y-35129D01*
X32235Y-35167D01*
X32334Y-35167D01*
X32934Y-35167D01*
X33026Y-35129D01*
X33096Y-35059D01*
X33134Y-34967D01*
X33135Y-34868D01*
X33135Y-35863D01*
X33039Y-35958D01*
X32975Y-36115D01*
X32974Y-36284D01*
X33019Y-36392D01*
X31741Y-35114D01*
X31796Y-35059D01*
X31834Y-34967D01*
X31835Y-34868D01*
X31835Y-34068D01*
X31797Y-33976D01*
X31726Y-33905D01*
X31634Y-33867D01*
X31535Y-33867D01*
X30935Y-33867D01*
X30843Y-33905D01*
X30810Y-33939D01*
X30776Y-33905D01*
X30684Y-33867D01*
X30585Y-33867D01*
X30035Y-33867D01*
X30035Y-33100D01*
X30009Y-32971D01*
X30009Y-32971D01*
X29985Y-32935D01*
X29936Y-32863D01*
X29936Y-32863D01*
X27513Y-30440D01*
X27513Y-28101D01*
X27513Y-25738D01*
X27401Y-25465D01*
X27192Y-25257D01*
X26919Y-25143D01*
X26624Y-25143D01*
X26351Y-25256D01*
X26142Y-25464D01*
X26029Y-25737D01*
X26029Y-26032D01*
X26142Y-26305D01*
X26350Y-26514D01*
X26623Y-26627D01*
X26918Y-26628D01*
X27191Y-26515D01*
X27400Y-26306D01*
X27513Y-26034D01*
X27513Y-25738D01*
X27513Y-28101D01*
X27401Y-27828D01*
X27192Y-27619D01*
X26919Y-27506D01*
X26624Y-27505D01*
X26351Y-27618D01*
X26142Y-27827D01*
X26029Y-28099D01*
X26029Y-28395D01*
X26142Y-28667D01*
X26350Y-28876D01*
X26623Y-28990D01*
X26918Y-28990D01*
X27191Y-28877D01*
X27400Y-28668D01*
X27513Y-28396D01*
X27513Y-28101D01*
X27513Y-30440D01*
X27497Y-30423D01*
X27401Y-30190D01*
X27192Y-29981D01*
X26919Y-29868D01*
X26624Y-29867D01*
X26351Y-29980D01*
X26142Y-30189D01*
X26029Y-30461D01*
X26029Y-30757D01*
X26142Y-31030D01*
X26350Y-31239D01*
X26623Y-31352D01*
X26918Y-31352D01*
X27191Y-31239D01*
X27278Y-31152D01*
X29365Y-33238D01*
X29365Y-33867D01*
X29285Y-33867D01*
X28685Y-33867D01*
X28593Y-33905D01*
X28560Y-33939D01*
X28526Y-33905D01*
X28434Y-33867D01*
X28335Y-33867D01*
X27735Y-33867D01*
X27643Y-33905D01*
X27573Y-33975D01*
X27535Y-34067D01*
X27534Y-34167D01*
X27534Y-34967D01*
X27572Y-35059D01*
X27643Y-35129D01*
X27735Y-35167D01*
X27834Y-35167D01*
X28434Y-35167D01*
X28526Y-35129D01*
X28560Y-35096D01*
X28593Y-35129D01*
X28685Y-35167D01*
X28784Y-35167D01*
X29365Y-35167D01*
X29365Y-35900D01*
X29390Y-36028D01*
X29463Y-36136D01*
X30750Y-37423D01*
X30749Y-37608D01*
X30814Y-37765D01*
X29188Y-37765D01*
X27973Y-36550D01*
X28058Y-36550D01*
X28261Y-36466D01*
X28415Y-36311D01*
X28499Y-36109D01*
X28500Y-35891D01*
X28416Y-35688D01*
X28261Y-35534D01*
X28059Y-35450D01*
X27841Y-35449D01*
X27638Y-35533D01*
X27500Y-35672D01*
X27500Y-35650D01*
X27462Y-35558D01*
X27391Y-35488D01*
X27299Y-35450D01*
X27285Y-35450D01*
X27285Y-35071D01*
X27296Y-35059D01*
X27334Y-34967D01*
X27335Y-34868D01*
X27335Y-34068D01*
X27297Y-33976D01*
X27226Y-33905D01*
X27134Y-33867D01*
X27035Y-33867D01*
X26435Y-33867D01*
X26343Y-33905D01*
X26273Y-33975D01*
X26235Y-34067D01*
X26234Y-34167D01*
X26234Y-34967D01*
X26272Y-35059D01*
X26343Y-35129D01*
X26435Y-35167D01*
X26534Y-35167D01*
X26615Y-35167D01*
X26615Y-35449D01*
X26600Y-35449D01*
X26508Y-35487D01*
X26438Y-35558D01*
X26400Y-35650D01*
X26399Y-35749D01*
X26399Y-36349D01*
X26437Y-36441D01*
X26508Y-36511D01*
X26600Y-36549D01*
X26699Y-36550D01*
X27026Y-36550D01*
X28813Y-38336D01*
X28921Y-38409D01*
X28921Y-38409D01*
X29050Y-38435D01*
X31600Y-38435D01*
X31728Y-38409D01*
X31728Y-38409D01*
X31836Y-38336D01*
X32143Y-38030D01*
X32190Y-38049D01*
X32408Y-38050D01*
X32611Y-37966D01*
X32749Y-37827D01*
X32749Y-37849D01*
X32787Y-37941D01*
X32858Y-38011D01*
X32950Y-38049D01*
X33049Y-38050D01*
X33649Y-38050D01*
X33741Y-38012D01*
X33811Y-37941D01*
X33849Y-37849D01*
X33850Y-37750D01*
X33850Y-37150D01*
X33826Y-37092D01*
X37185Y-37092D01*
X37309Y-37067D01*
X37309Y-37067D01*
X37414Y-36997D01*
X38819Y-35592D01*
X46685Y-35592D01*
X46809Y-35567D01*
X46809Y-35567D01*
X46914Y-35497D01*
X47146Y-35265D01*
X47146Y-35265D01*
X47146Y-35265D01*
X47187Y-35205D01*
X47305Y-35205D01*
X47305Y-35205D01*
X47396Y-35205D01*
X47561Y-35205D01*
X47561Y-35205D01*
X47652Y-35205D01*
X47817Y-35205D01*
X47817Y-35205D01*
X47908Y-35205D01*
X48073Y-35205D01*
X48073Y-35205D01*
X48164Y-35205D01*
X48329Y-35205D01*
X48329Y-35205D01*
X48420Y-35205D01*
X48585Y-35205D01*
X48610Y-35194D01*
X48610Y-36133D01*
X48412Y-36330D01*
X48321Y-36330D01*
X48320Y-36330D01*
X48266Y-36330D01*
X48266Y-36273D01*
X48241Y-36149D01*
X48241Y-36149D01*
X48213Y-36107D01*
X48170Y-36043D01*
X48170Y-36043D01*
X47914Y-35787D01*
X47809Y-35717D01*
X47685Y-35692D01*
X47435Y-35692D01*
X47435Y-35692D01*
X47410Y-35697D01*
X47310Y-35717D01*
X47205Y-35787D01*
X47205Y-35787D01*
X47080Y-35912D01*
X47045Y-35827D01*
X46926Y-35707D01*
X46769Y-35642D01*
X46600Y-35642D01*
X46444Y-35707D01*
X46324Y-35826D01*
X46260Y-35982D01*
X46259Y-36151D01*
X46324Y-36308D01*
X46443Y-36427D01*
X46600Y-36492D01*
X46600Y-36492D01*
X46584Y-36530D01*
X46584Y-36629D01*
X46584Y-37158D01*
X46050Y-37692D01*
X45885Y-37692D01*
X45885Y-37368D01*
X45847Y-37276D01*
X45776Y-37205D01*
X45684Y-37167D01*
X45585Y-37167D01*
X44985Y-37167D01*
X44893Y-37205D01*
X44823Y-37275D01*
X44785Y-37367D01*
X44784Y-37467D01*
X44784Y-38267D01*
X44805Y-38317D01*
X44785Y-38367D01*
X44784Y-38467D01*
X44784Y-39267D01*
X44822Y-39359D01*
X44893Y-39429D01*
X44985Y-39467D01*
X45084Y-39467D01*
X45684Y-39467D01*
X45776Y-39429D01*
X45846Y-39359D01*
X45884Y-39267D01*
X45885Y-39168D01*
X45885Y-38368D01*
X45874Y-38342D01*
X46185Y-38342D01*
X46309Y-38317D01*
X46309Y-38317D01*
X46414Y-38247D01*
X47104Y-37558D01*
X47104Y-37889D01*
X46455Y-38537D01*
X46384Y-38643D01*
X46360Y-38767D01*
X46360Y-38817D01*
X46235Y-38817D01*
X46143Y-38855D01*
X46073Y-38925D01*
X46035Y-39017D01*
X46034Y-39117D01*
X46034Y-39717D01*
X46072Y-39809D01*
X46143Y-39879D01*
X46235Y-39917D01*
X46334Y-39917D01*
X46401Y-39917D01*
X46455Y-39997D01*
X46575Y-40117D01*
X46235Y-40117D01*
X46143Y-40155D01*
X46073Y-40225D01*
X46035Y-40317D01*
X46034Y-40417D01*
X46034Y-41017D01*
X46055Y-41067D01*
X44585Y-41067D01*
X44585Y-39168D01*
X44585Y-38368D01*
X44564Y-38317D01*
X44584Y-38267D01*
X44585Y-38168D01*
X44585Y-37368D01*
X44547Y-37276D01*
X44476Y-37205D01*
X44384Y-37167D01*
X44353Y-37167D01*
X44295Y-37027D01*
X44176Y-36907D01*
X44019Y-36842D01*
X43850Y-36842D01*
X43694Y-36907D01*
X43574Y-37026D01*
X43510Y-37182D01*
X43510Y-37307D01*
X43485Y-37367D01*
X43484Y-37467D01*
X43484Y-38267D01*
X43505Y-38317D01*
X43485Y-38367D01*
X43484Y-38467D01*
X43484Y-39267D01*
X43522Y-39359D01*
X43593Y-39429D01*
X43685Y-39467D01*
X43784Y-39467D01*
X44384Y-39467D01*
X44476Y-39429D01*
X44546Y-39359D01*
X44584Y-39267D01*
X44585Y-39168D01*
X44585Y-41067D01*
X41385Y-41067D01*
X41270Y-41090D01*
X41172Y-41155D01*
X39259Y-43068D01*
X39185Y-43054D01*
X38970Y-43096D01*
X38789Y-43218D01*
X38685Y-43373D01*
X38581Y-43218D01*
X38399Y-43096D01*
X38185Y-43054D01*
X37970Y-43096D01*
X37885Y-43153D01*
X37885Y-40368D01*
X37885Y-39568D01*
X37847Y-39476D01*
X37776Y-39405D01*
X37684Y-39367D01*
X37585Y-39367D01*
X36985Y-39367D01*
X36893Y-39405D01*
X36823Y-39475D01*
X36785Y-39567D01*
X36784Y-39667D01*
X36784Y-40467D01*
X36822Y-40559D01*
X36831Y-40567D01*
X36735Y-40567D01*
X36685Y-40588D01*
X36634Y-40567D01*
X36538Y-40567D01*
X36546Y-40559D01*
X36584Y-40467D01*
X36585Y-40368D01*
X36585Y-39568D01*
X36547Y-39476D01*
X36476Y-39405D01*
X36384Y-39367D01*
X36285Y-39367D01*
X36244Y-39367D01*
X36110Y-39233D01*
X36110Y-39183D01*
X36045Y-39027D01*
X35926Y-38907D01*
X35769Y-38842D01*
X35600Y-38842D01*
X35444Y-38907D01*
X35324Y-39026D01*
X35260Y-39182D01*
X35259Y-39351D01*
X35324Y-39508D01*
X35443Y-39627D01*
X35485Y-39644D01*
X35484Y-39667D01*
X35484Y-39768D01*
X35455Y-39787D01*
X35455Y-39787D01*
X34955Y-40287D01*
X34884Y-40393D01*
X34860Y-40517D01*
X34860Y-40567D01*
X34735Y-40567D01*
X34643Y-40605D01*
X34635Y-40614D01*
X34635Y-39618D01*
X34635Y-38917D01*
X34634Y-38817D01*
X34596Y-38725D01*
X34526Y-38655D01*
X34434Y-38617D01*
X34197Y-38617D01*
X34135Y-38680D01*
X34135Y-39217D01*
X34572Y-39217D01*
X34635Y-39155D01*
X34635Y-38917D01*
X34635Y-39618D01*
X34635Y-39380D01*
X34572Y-39317D01*
X34135Y-39317D01*
X34135Y-39855D01*
X34197Y-39917D01*
X34434Y-39917D01*
X34526Y-39879D01*
X34596Y-39809D01*
X34634Y-39717D01*
X34635Y-39618D01*
X34635Y-40614D01*
X34573Y-40675D01*
X34535Y-40767D01*
X34534Y-40867D01*
X34534Y-41467D01*
X34572Y-41559D01*
X34643Y-41629D01*
X34735Y-41667D01*
X34834Y-41667D01*
X35634Y-41667D01*
X35685Y-41646D01*
X35735Y-41667D01*
X35834Y-41667D01*
X36634Y-41667D01*
X36685Y-41646D01*
X36735Y-41667D01*
X36834Y-41667D01*
X37634Y-41667D01*
X37726Y-41629D01*
X37796Y-41559D01*
X37834Y-41467D01*
X37835Y-41368D01*
X37835Y-40768D01*
X37797Y-40676D01*
X37758Y-40637D01*
X37776Y-40629D01*
X37846Y-40559D01*
X37884Y-40467D01*
X37885Y-40368D01*
X37885Y-43153D01*
X37789Y-43218D01*
X37685Y-43373D01*
X37581Y-43218D01*
X37510Y-43170D01*
X37510Y-42967D01*
X37634Y-42967D01*
X37726Y-42929D01*
X37796Y-42859D01*
X37834Y-42767D01*
X37835Y-42668D01*
X37835Y-42068D01*
X37797Y-41976D01*
X37726Y-41905D01*
X37634Y-41867D01*
X37535Y-41867D01*
X36735Y-41867D01*
X36685Y-41888D01*
X36634Y-41867D01*
X36535Y-41867D01*
X35735Y-41867D01*
X35685Y-41888D01*
X35634Y-41867D01*
X35535Y-41867D01*
X34735Y-41867D01*
X34643Y-41905D01*
X34573Y-41975D01*
X34535Y-42067D01*
X34534Y-42167D01*
X34534Y-42767D01*
X34572Y-42859D01*
X34643Y-42929D01*
X34735Y-42967D01*
X34834Y-42967D01*
X34860Y-42967D01*
X34860Y-43170D01*
X34789Y-43218D01*
X34667Y-43399D01*
X34625Y-43614D01*
X34625Y-43921D01*
X34667Y-44135D01*
X34789Y-44317D01*
X34970Y-44438D01*
X35185Y-44481D01*
X35399Y-44438D01*
X35581Y-44317D01*
X35685Y-44161D01*
X35789Y-44317D01*
X35970Y-44438D01*
X36185Y-44481D01*
X36399Y-44438D01*
X36581Y-44317D01*
X36685Y-44161D01*
X36743Y-44249D01*
X36300Y-44692D01*
X34035Y-44692D01*
X34035Y-39855D01*
X34035Y-39317D01*
X34035Y-39217D01*
X34035Y-38680D01*
X33972Y-38617D01*
X33735Y-38617D01*
X33643Y-38655D01*
X33573Y-38725D01*
X33535Y-38817D01*
X33534Y-38917D01*
X33535Y-39155D01*
X33597Y-39217D01*
X34035Y-39217D01*
X34035Y-39317D01*
X33597Y-39317D01*
X33535Y-39380D01*
X33534Y-39618D01*
X33535Y-39717D01*
X33573Y-39809D01*
X33643Y-39879D01*
X33735Y-39917D01*
X33972Y-39917D01*
X34035Y-39855D01*
X34035Y-44692D01*
X32631Y-44692D01*
X32494Y-44555D01*
X32403Y-44517D01*
X32493Y-44480D01*
X32647Y-44327D01*
X32730Y-44126D01*
X32730Y-43909D01*
X32647Y-43709D01*
X32510Y-43571D01*
X32510Y-42302D01*
X32644Y-42167D01*
X33184Y-42167D01*
X33276Y-42129D01*
X33346Y-42059D01*
X33384Y-41967D01*
X33385Y-41868D01*
X33385Y-41068D01*
X33364Y-41017D01*
X33384Y-40967D01*
X33385Y-40868D01*
X33385Y-40068D01*
X33347Y-39976D01*
X33276Y-39905D01*
X33220Y-39882D01*
X33226Y-39879D01*
X33296Y-39809D01*
X33334Y-39717D01*
X33335Y-39618D01*
X33335Y-38818D01*
X33297Y-38726D01*
X33226Y-38655D01*
X33134Y-38617D01*
X33035Y-38617D01*
X32435Y-38617D01*
X32343Y-38655D01*
X32310Y-38689D01*
X32276Y-38655D01*
X32184Y-38617D01*
X32085Y-38617D01*
X31485Y-38617D01*
X31393Y-38655D01*
X31323Y-38725D01*
X31285Y-38817D01*
X31284Y-38917D01*
X31284Y-39717D01*
X31322Y-39809D01*
X31381Y-39867D01*
X31185Y-39867D01*
X31093Y-39905D01*
X31085Y-39914D01*
X31085Y-39618D01*
X31085Y-38818D01*
X31047Y-38726D01*
X30976Y-38655D01*
X30884Y-38617D01*
X30785Y-38617D01*
X30185Y-38617D01*
X30093Y-38655D01*
X30023Y-38725D01*
X29985Y-38817D01*
X29984Y-38917D01*
X29984Y-39358D01*
X28900Y-40442D01*
X28635Y-40442D01*
X28635Y-40318D01*
X28597Y-40226D01*
X28526Y-40155D01*
X28435Y-40118D01*
X28545Y-40008D01*
X28609Y-39852D01*
X28610Y-39683D01*
X28545Y-39527D01*
X28426Y-39407D01*
X28269Y-39342D01*
X28100Y-39342D01*
X27944Y-39407D01*
X27824Y-39526D01*
X27760Y-39682D01*
X27759Y-39851D01*
X27762Y-39857D01*
X27760Y-39867D01*
X27760Y-40117D01*
X27735Y-40117D01*
X27643Y-40155D01*
X27573Y-40225D01*
X27535Y-40317D01*
X27534Y-40417D01*
X27534Y-41217D01*
X27572Y-41309D01*
X27643Y-41379D01*
X27735Y-41417D01*
X27834Y-41417D01*
X28434Y-41417D01*
X28526Y-41379D01*
X28596Y-41309D01*
X28634Y-41217D01*
X28635Y-41118D01*
X28635Y-41092D01*
X29035Y-41092D01*
X29159Y-41067D01*
X29159Y-41067D01*
X29264Y-40997D01*
X30344Y-39917D01*
X30884Y-39917D01*
X30976Y-39879D01*
X31046Y-39809D01*
X31084Y-39717D01*
X31085Y-39618D01*
X31085Y-39914D01*
X31023Y-39975D01*
X30985Y-40067D01*
X30984Y-40167D01*
X30984Y-40608D01*
X30455Y-41137D01*
X30384Y-41243D01*
X30360Y-41367D01*
X30360Y-41698D01*
X30283Y-41622D01*
X30025Y-41515D01*
X29745Y-41514D01*
X29487Y-41621D01*
X29289Y-41819D01*
X29182Y-42077D01*
X29182Y-42175D01*
X28878Y-42049D01*
X28493Y-42049D01*
X28137Y-42196D01*
X27864Y-42468D01*
X27716Y-42824D01*
X27716Y-42892D01*
X27621Y-42797D01*
X27630Y-42776D01*
X27630Y-42559D01*
X27547Y-42359D01*
X27394Y-42205D01*
X27194Y-42122D01*
X26977Y-42122D01*
X26776Y-42204D01*
X26685Y-42296D01*
X26685Y-41838D01*
X27021Y-41501D01*
X27021Y-41501D01*
X27021Y-41501D01*
X27078Y-41417D01*
X27134Y-41417D01*
X27226Y-41379D01*
X27296Y-41309D01*
X27334Y-41217D01*
X27335Y-41118D01*
X27335Y-40318D01*
X27297Y-40226D01*
X27226Y-40155D01*
X27134Y-40117D01*
X27035Y-40117D01*
X26435Y-40117D01*
X26343Y-40155D01*
X26273Y-40225D01*
X26235Y-40317D01*
X26234Y-40417D01*
X26234Y-41217D01*
X26271Y-41304D01*
X26113Y-41463D01*
X26040Y-41571D01*
X26015Y-41700D01*
X26015Y-42907D01*
X26040Y-43035D01*
X26113Y-43144D01*
X26539Y-43571D01*
X26539Y-43750D01*
X26622Y-43951D01*
X26775Y-44104D01*
X26976Y-44188D01*
X27193Y-44188D01*
X27273Y-44155D01*
X27273Y-44691D01*
X27299Y-44819D01*
X27371Y-44928D01*
X27414Y-44956D01*
X29098Y-46640D01*
X28878Y-46549D01*
X28493Y-46549D01*
X28137Y-46696D01*
X27864Y-46968D01*
X27809Y-47100D01*
X27630Y-46920D01*
X27630Y-46759D01*
X27547Y-46559D01*
X27394Y-46405D01*
X27194Y-46322D01*
X26977Y-46322D01*
X26776Y-46404D01*
X26622Y-46558D01*
X26539Y-46758D01*
X26539Y-46975D01*
X26622Y-47176D01*
X26775Y-47329D01*
X26866Y-47367D01*
X26776Y-47404D01*
X26622Y-47558D01*
X26539Y-47758D01*
X26539Y-47961D01*
X26484Y-48043D01*
X26460Y-48167D01*
X26460Y-48967D01*
X25985Y-48967D01*
X25985Y-25072D01*
X56919Y-25072D01*
X64135Y-32288D01*
X64135Y-34102D01*
X64135Y-34102D01*
G37*
G54D30*
X64135Y-34102D02*
X64119Y-34079D01*
X64119Y-34079D01*
X63699Y-33659D01*
X63721Y-33604D01*
X63721Y-33348D01*
X63623Y-33112D01*
X63443Y-32930D01*
X63206Y-32832D01*
X62950Y-32832D01*
X62713Y-32930D01*
X62532Y-33111D01*
X62509Y-33166D01*
X61284Y-33166D01*
X61261Y-33112D01*
X61080Y-32930D01*
X60844Y-32832D01*
X60588Y-32832D01*
X60533Y-32855D01*
X59936Y-32258D01*
X59996Y-32234D01*
X60151Y-32079D01*
X60185Y-31997D01*
X60218Y-32078D01*
X60373Y-32233D01*
X60575Y-32317D01*
X60793Y-32317D01*
X60996Y-32234D01*
X61134Y-32095D01*
X61134Y-32117D01*
X61172Y-32209D01*
X61243Y-32279D01*
X61335Y-32317D01*
X61434Y-32317D01*
X62034Y-32317D01*
X62126Y-32279D01*
X62196Y-32209D01*
X62234Y-32117D01*
X62235Y-32018D01*
X62235Y-31418D01*
X62197Y-31326D01*
X62126Y-31255D01*
X62034Y-31217D01*
X62012Y-31217D01*
X62151Y-31079D01*
X62234Y-30877D01*
X62235Y-30658D01*
X62151Y-30456D01*
X61996Y-30301D01*
X61794Y-30217D01*
X61576Y-30217D01*
X61373Y-30301D01*
X61219Y-30455D01*
X61185Y-30537D01*
X61151Y-30456D01*
X60996Y-30301D01*
X60794Y-30217D01*
X60576Y-30217D01*
X60373Y-30301D01*
X60219Y-30455D01*
X60187Y-30531D01*
X60166Y-30479D01*
X60070Y-30452D01*
X60000Y-30523D01*
X60000Y-30381D01*
X59972Y-30286D01*
X59766Y-30212D01*
X59548Y-30223D01*
X59397Y-30286D01*
X59369Y-30381D01*
X59685Y-30697D01*
X60000Y-30381D01*
X60000Y-30523D01*
X59755Y-30767D01*
X60070Y-31082D01*
X60166Y-31055D01*
X60186Y-31000D01*
X60218Y-31078D01*
X60373Y-31233D01*
X60454Y-31267D01*
X60373Y-31301D01*
X60219Y-31455D01*
X60185Y-31537D01*
X60151Y-31456D01*
X59996Y-31301D01*
X59921Y-31270D01*
X59972Y-31248D01*
X60000Y-31153D01*
X59685Y-30838D01*
X59369Y-31153D01*
X59397Y-31248D01*
X59452Y-31268D01*
X59373Y-31301D01*
X59219Y-31455D01*
X59185Y-31537D01*
X59151Y-31456D01*
X58996Y-31301D01*
X58915Y-31267D01*
X58996Y-31234D01*
X59151Y-31079D01*
X59182Y-31004D01*
X59203Y-31055D01*
X59299Y-31082D01*
X59614Y-30767D01*
X59299Y-30452D01*
X59203Y-30479D01*
X59184Y-30535D01*
X59151Y-30456D01*
X58996Y-30301D01*
X58794Y-30217D01*
X58576Y-30217D01*
X58373Y-30301D01*
X58219Y-30455D01*
X58135Y-30657D01*
X58134Y-30876D01*
X58218Y-31078D01*
X58373Y-31233D01*
X58454Y-31267D01*
X58373Y-31301D01*
X58219Y-31455D01*
X58185Y-31537D01*
X58151Y-31456D01*
X57996Y-31301D01*
X57794Y-31217D01*
X57576Y-31217D01*
X57373Y-31301D01*
X57219Y-31455D01*
X57185Y-31537D01*
X57151Y-31456D01*
X56996Y-31301D01*
X56794Y-31217D01*
X56576Y-31217D01*
X56373Y-31301D01*
X56219Y-31455D01*
X56185Y-31537D01*
X56151Y-31456D01*
X55996Y-31301D01*
X55794Y-31217D01*
X55576Y-31217D01*
X55373Y-31301D01*
X55219Y-31455D01*
X55185Y-31537D01*
X55151Y-31456D01*
X54996Y-31301D01*
X54794Y-31217D01*
X54576Y-31217D01*
X54373Y-31301D01*
X54219Y-31455D01*
X54185Y-31537D01*
X54151Y-31456D01*
X53996Y-31301D01*
X53915Y-31267D01*
X53996Y-31234D01*
X54151Y-31079D01*
X54234Y-30877D01*
X54235Y-30658D01*
X54151Y-30456D01*
X53996Y-30301D01*
X53794Y-30217D01*
X53576Y-30217D01*
X53373Y-30301D01*
X53219Y-30455D01*
X53185Y-30537D01*
X53151Y-30456D01*
X52996Y-30301D01*
X52794Y-30217D01*
X52576Y-30217D01*
X52373Y-30301D01*
X52219Y-30455D01*
X52187Y-30531D01*
X52166Y-30479D01*
X52070Y-30452D01*
X52000Y-30523D01*
X52000Y-30381D01*
X51972Y-30286D01*
X51766Y-30212D01*
X51548Y-30223D01*
X51397Y-30286D01*
X51369Y-30381D01*
X51685Y-30697D01*
X52000Y-30381D01*
X52000Y-30523D01*
X51755Y-30767D01*
X52070Y-31082D01*
X52166Y-31055D01*
X52186Y-31000D01*
X52218Y-31078D01*
X52373Y-31233D01*
X52454Y-31267D01*
X52373Y-31301D01*
X52219Y-31455D01*
X52185Y-31537D01*
X52151Y-31456D01*
X51996Y-31301D01*
X51921Y-31270D01*
X51972Y-31248D01*
X52000Y-31153D01*
X51685Y-30838D01*
X51369Y-31153D01*
X51397Y-31248D01*
X51452Y-31268D01*
X51373Y-31301D01*
X51219Y-31455D01*
X51185Y-31537D01*
X51151Y-31456D01*
X50996Y-31301D01*
X50915Y-31267D01*
X50996Y-31234D01*
X51151Y-31079D01*
X51182Y-31004D01*
X51203Y-31055D01*
X51299Y-31082D01*
X51614Y-30767D01*
X51299Y-30452D01*
X51203Y-30479D01*
X51184Y-30535D01*
X51151Y-30456D01*
X50996Y-30301D01*
X50794Y-30217D01*
X50576Y-30217D01*
X50373Y-30301D01*
X50219Y-30455D01*
X50135Y-30657D01*
X50134Y-30876D01*
X50218Y-31078D01*
X50373Y-31233D01*
X50454Y-31267D01*
X50373Y-31301D01*
X50219Y-31455D01*
X50185Y-31537D01*
X50151Y-31456D01*
X49996Y-31301D01*
X49794Y-31217D01*
X49576Y-31217D01*
X49373Y-31301D01*
X49219Y-31455D01*
X49185Y-31537D01*
X49151Y-31456D01*
X48996Y-31301D01*
X48794Y-31217D01*
X48576Y-31217D01*
X48373Y-31301D01*
X48219Y-31455D01*
X48185Y-31537D01*
X48151Y-31456D01*
X47996Y-31301D01*
X47794Y-31217D01*
X47576Y-31217D01*
X47373Y-31301D01*
X47219Y-31455D01*
X47185Y-31537D01*
X47151Y-31456D01*
X47085Y-31390D01*
X47085Y-28317D01*
X47066Y-28221D01*
X47012Y-28140D01*
X46930Y-28086D01*
X46835Y-28067D01*
X46739Y-28086D01*
X46657Y-28140D01*
X46603Y-28221D01*
X46584Y-28317D01*
X46603Y-28413D01*
X46657Y-28494D01*
X46739Y-28549D01*
X46835Y-28568D01*
X46930Y-28549D01*
X47012Y-28494D01*
X47066Y-28413D01*
X47085Y-28317D01*
X47085Y-31390D01*
X46996Y-31301D01*
X46794Y-31217D01*
X46576Y-31217D01*
X46373Y-31301D01*
X46219Y-31455D01*
X46135Y-31657D01*
X46134Y-31876D01*
X46218Y-32078D01*
X46373Y-32233D01*
X46375Y-32234D01*
X46375Y-32761D01*
X46309Y-32717D01*
X46185Y-32692D01*
X45740Y-32692D01*
X45775Y-32678D01*
X45895Y-32558D01*
X45959Y-32402D01*
X45960Y-32233D01*
X45895Y-32077D01*
X45776Y-31957D01*
X45619Y-31892D01*
X45450Y-31892D01*
X45294Y-31957D01*
X45174Y-32076D01*
X45110Y-32232D01*
X45109Y-32401D01*
X45174Y-32558D01*
X45293Y-32677D01*
X45329Y-32692D01*
X42966Y-32692D01*
X42966Y-31052D01*
X42966Y-30068D01*
X42966Y-28690D01*
X42966Y-27706D01*
X42966Y-26328D01*
X42966Y-25344D01*
X42928Y-25252D01*
X42858Y-25181D01*
X42766Y-25143D01*
X42667Y-25143D01*
X41682Y-25143D01*
X41590Y-25181D01*
X41520Y-25251D01*
X41482Y-25343D01*
X41482Y-25443D01*
X41482Y-26427D01*
X41520Y-26519D01*
X41590Y-26589D01*
X41682Y-26627D01*
X41781Y-26627D01*
X42766Y-26627D01*
X42857Y-26590D01*
X42928Y-26519D01*
X42966Y-26427D01*
X42966Y-26328D01*
X42966Y-27706D01*
X42928Y-27614D01*
X42858Y-27544D01*
X42766Y-27505D01*
X42667Y-27505D01*
X41682Y-27505D01*
X41590Y-27543D01*
X41520Y-27614D01*
X41482Y-27705D01*
X41482Y-27805D01*
X41482Y-28789D01*
X41520Y-28881D01*
X41590Y-28951D01*
X41682Y-28990D01*
X41781Y-28990D01*
X42766Y-28990D01*
X42857Y-28952D01*
X42928Y-28881D01*
X42966Y-28790D01*
X42966Y-28690D01*
X42966Y-30068D01*
X42928Y-29976D01*
X42858Y-29906D01*
X42766Y-29868D01*
X42667Y-29868D01*
X41682Y-29868D01*
X41590Y-29906D01*
X41520Y-29976D01*
X41482Y-30068D01*
X41482Y-30167D01*
X41482Y-31151D01*
X41520Y-31243D01*
X41590Y-31314D01*
X41682Y-31352D01*
X41781Y-31352D01*
X42766Y-31352D01*
X42857Y-31314D01*
X42928Y-31244D01*
X42966Y-31152D01*
X42966Y-31052D01*
X42966Y-32692D01*
X39935Y-32692D01*
X39810Y-32717D01*
X39705Y-32787D01*
X38855Y-33637D01*
X38784Y-33743D01*
X38760Y-33867D01*
X38735Y-33867D01*
X38643Y-33905D01*
X38573Y-33975D01*
X38535Y-34067D01*
X38534Y-34167D01*
X38534Y-34967D01*
X38540Y-34980D01*
X38455Y-35037D01*
X38455Y-35037D01*
X38335Y-35158D01*
X38335Y-34868D01*
X38335Y-34068D01*
X38297Y-33976D01*
X38226Y-33905D01*
X38134Y-33867D01*
X38035Y-33867D01*
X37435Y-33867D01*
X37343Y-33905D01*
X37310Y-33939D01*
X37276Y-33905D01*
X37184Y-33867D01*
X37085Y-33867D01*
X36485Y-33867D01*
X36393Y-33905D01*
X36323Y-33975D01*
X36285Y-34067D01*
X36284Y-34167D01*
X36284Y-34967D01*
X36322Y-35059D01*
X36393Y-35129D01*
X36485Y-35167D01*
X36584Y-35167D01*
X37184Y-35167D01*
X37276Y-35129D01*
X37310Y-35096D01*
X37343Y-35129D01*
X37435Y-35167D01*
X37534Y-35167D01*
X38134Y-35167D01*
X38226Y-35129D01*
X38296Y-35059D01*
X38334Y-34967D01*
X38335Y-34868D01*
X38335Y-35158D01*
X37050Y-36442D01*
X33758Y-36442D01*
X33760Y-36441D01*
X33824Y-36284D01*
X33824Y-36248D01*
X34736Y-35336D01*
X34736Y-35336D01*
X34785Y-35264D01*
X34809Y-35228D01*
X34809Y-35228D01*
X34834Y-35100D01*
X34835Y-35100D01*
X34835Y-31061D01*
X35012Y-31239D01*
X35200Y-31317D01*
X35200Y-33867D01*
X35185Y-33867D01*
X35093Y-33905D01*
X35023Y-33975D01*
X34985Y-34067D01*
X34984Y-34167D01*
X34984Y-34967D01*
X35022Y-35059D01*
X35093Y-35129D01*
X35185Y-35167D01*
X35284Y-35167D01*
X35350Y-35167D01*
X35350Y-35200D01*
X35258Y-35237D01*
X35188Y-35308D01*
X35150Y-35400D01*
X35149Y-35499D01*
X35149Y-36099D01*
X35187Y-36191D01*
X35258Y-36261D01*
X35350Y-36299D01*
X35449Y-36300D01*
X36049Y-36300D01*
X36141Y-36262D01*
X36211Y-36191D01*
X36249Y-36099D01*
X36249Y-36077D01*
X36388Y-36215D01*
X36590Y-36299D01*
X36808Y-36300D01*
X37011Y-36216D01*
X37165Y-36061D01*
X37249Y-35859D01*
X37250Y-35641D01*
X37166Y-35438D01*
X37011Y-35284D01*
X36809Y-35200D01*
X36591Y-35199D01*
X36388Y-35283D01*
X36250Y-35422D01*
X36250Y-35400D01*
X36212Y-35308D01*
X36141Y-35238D01*
X36049Y-35200D01*
X36020Y-35200D01*
X36020Y-35086D01*
X36046Y-35059D01*
X36084Y-34967D01*
X36085Y-34868D01*
X36085Y-34068D01*
X36047Y-33976D01*
X35976Y-33905D01*
X35884Y-33867D01*
X35870Y-33867D01*
X35870Y-31222D01*
X36061Y-31031D01*
X36175Y-30758D01*
X36175Y-30463D01*
X36062Y-30190D01*
X35854Y-29981D01*
X35581Y-29868D01*
X35286Y-29867D01*
X35013Y-29980D01*
X34835Y-30158D01*
X34835Y-29319D01*
X35200Y-28954D01*
X35284Y-28990D01*
X35580Y-28990D01*
X35852Y-28877D01*
X36061Y-28668D01*
X36175Y-28396D01*
X36175Y-28101D01*
X36175Y-25738D01*
X36062Y-25465D01*
X35854Y-25257D01*
X35581Y-25143D01*
X35286Y-25143D01*
X35013Y-25256D01*
X34804Y-25464D01*
X34691Y-25737D01*
X34690Y-26032D01*
X34803Y-26305D01*
X35012Y-26514D01*
X35284Y-26627D01*
X35580Y-26628D01*
X35852Y-26515D01*
X36061Y-26306D01*
X36175Y-26034D01*
X36175Y-25738D01*
X36175Y-28101D01*
X36062Y-27828D01*
X35854Y-27619D01*
X35581Y-27506D01*
X35286Y-27505D01*
X35013Y-27618D01*
X34804Y-27827D01*
X34691Y-28099D01*
X34690Y-28395D01*
X34726Y-28480D01*
X34305Y-28902D01*
X34305Y-28690D01*
X34305Y-27706D01*
X34305Y-26328D01*
X34305Y-25344D01*
X34267Y-25252D01*
X34196Y-25181D01*
X34105Y-25143D01*
X34005Y-25143D01*
X33021Y-25143D01*
X32929Y-25181D01*
X32859Y-25251D01*
X32820Y-25343D01*
X32820Y-25443D01*
X32820Y-26427D01*
X32858Y-26519D01*
X32929Y-26589D01*
X33020Y-26627D01*
X33120Y-26627D01*
X34104Y-26627D01*
X34196Y-26590D01*
X34266Y-26519D01*
X34305Y-26427D01*
X34305Y-26328D01*
X34305Y-27706D01*
X34267Y-27614D01*
X34196Y-27544D01*
X34105Y-27505D01*
X34005Y-27505D01*
X33021Y-27505D01*
X32929Y-27543D01*
X32859Y-27614D01*
X32820Y-27705D01*
X32820Y-27805D01*
X32820Y-28789D01*
X32858Y-28881D01*
X32929Y-28951D01*
X33020Y-28990D01*
X33120Y-28990D01*
X34104Y-28990D01*
X34196Y-28952D01*
X34266Y-28881D01*
X34305Y-28790D01*
X34305Y-28690D01*
X34305Y-28902D01*
X34263Y-28944D01*
X34190Y-29052D01*
X34165Y-29181D01*
X34165Y-29893D01*
X34105Y-29868D01*
X34005Y-29868D01*
X33021Y-29868D01*
X32929Y-29906D01*
X32859Y-29976D01*
X32820Y-30068D01*
X32820Y-30167D01*
X32820Y-31151D01*
X32858Y-31243D01*
X32929Y-31314D01*
X33020Y-31352D01*
X33120Y-31352D01*
X34104Y-31352D01*
X34165Y-31327D01*
X34165Y-34961D01*
X33351Y-35774D01*
X33315Y-35774D01*
X33159Y-35839D01*
X33135Y-35863D01*
X33135Y-34868D01*
X33135Y-34068D01*
X33097Y-33976D01*
X33026Y-33905D01*
X32935Y-33868D01*
X33045Y-33758D01*
X33109Y-33602D01*
X33110Y-33433D01*
X33045Y-33277D01*
X32926Y-33157D01*
X32769Y-33092D01*
X32600Y-33092D01*
X32444Y-33157D01*
X32324Y-33276D01*
X32260Y-33432D01*
X32259Y-33567D01*
X32250Y-33617D01*
X32250Y-33867D01*
X32235Y-33867D01*
X32143Y-33905D01*
X32073Y-33975D01*
X32035Y-34067D01*
X32034Y-34167D01*
X32034Y-34967D01*
X32072Y-35059D01*
X32143Y-35129D01*
X32235Y-35167D01*
X32334Y-35167D01*
X32934Y-35167D01*
X33026Y-35129D01*
X33096Y-35059D01*
X33134Y-34967D01*
X33135Y-34868D01*
X33135Y-35863D01*
X33039Y-35958D01*
X32975Y-36115D01*
X32974Y-36284D01*
X33019Y-36392D01*
X31741Y-35114D01*
X31796Y-35059D01*
X31834Y-34967D01*
X31835Y-34868D01*
X31835Y-34068D01*
X31797Y-33976D01*
X31726Y-33905D01*
X31634Y-33867D01*
X31535Y-33867D01*
X30935Y-33867D01*
X30843Y-33905D01*
X30810Y-33939D01*
X30776Y-33905D01*
X30684Y-33867D01*
X30585Y-33867D01*
X30035Y-33867D01*
X30035Y-33100D01*
X30009Y-32971D01*
X30009Y-32971D01*
X29985Y-32935D01*
X29936Y-32863D01*
X29936Y-32863D01*
X27513Y-30440D01*
X27513Y-28101D01*
X27513Y-25738D01*
X27401Y-25465D01*
X27192Y-25257D01*
X26919Y-25143D01*
X26624Y-25143D01*
X26351Y-25256D01*
X26142Y-25464D01*
X26029Y-25737D01*
X26029Y-26032D01*
X26142Y-26305D01*
X26350Y-26514D01*
X26623Y-26627D01*
X26918Y-26628D01*
X27191Y-26515D01*
X27400Y-26306D01*
X27513Y-26034D01*
X27513Y-25738D01*
X27513Y-28101D01*
X27401Y-27828D01*
X27192Y-27619D01*
X26919Y-27506D01*
X26624Y-27505D01*
X26351Y-27618D01*
X26142Y-27827D01*
X26029Y-28099D01*
X26029Y-28395D01*
X26142Y-28667D01*
X26350Y-28876D01*
X26623Y-28990D01*
X26918Y-28990D01*
X27191Y-28877D01*
X27400Y-28668D01*
X27513Y-28396D01*
X27513Y-28101D01*
X27513Y-30440D01*
X27497Y-30423D01*
X27401Y-30190D01*
X27192Y-29981D01*
X26919Y-29868D01*
X26624Y-29867D01*
X26351Y-29980D01*
X26142Y-30189D01*
X26029Y-30461D01*
X26029Y-30757D01*
X26142Y-31030D01*
X26350Y-31239D01*
X26623Y-31352D01*
X26918Y-31352D01*
X27191Y-31239D01*
X27278Y-31152D01*
X29365Y-33238D01*
X29365Y-33867D01*
X29285Y-33867D01*
X28685Y-33867D01*
X28593Y-33905D01*
X28560Y-33939D01*
X28526Y-33905D01*
X28434Y-33867D01*
X28335Y-33867D01*
X27735Y-33867D01*
X27643Y-33905D01*
X27573Y-33975D01*
X27535Y-34067D01*
X27534Y-34167D01*
X27534Y-34967D01*
X27572Y-35059D01*
X27643Y-35129D01*
X27735Y-35167D01*
X27834Y-35167D01*
X28434Y-35167D01*
X28526Y-35129D01*
X28560Y-35096D01*
X28593Y-35129D01*
X28685Y-35167D01*
X28784Y-35167D01*
X29365Y-35167D01*
X29365Y-35900D01*
X29390Y-36028D01*
X29463Y-36136D01*
X30750Y-37423D01*
X30749Y-37608D01*
X30814Y-37765D01*
X29188Y-37765D01*
X27973Y-36550D01*
X28058Y-36550D01*
X28261Y-36466D01*
X28415Y-36311D01*
X28499Y-36109D01*
X28500Y-35891D01*
X28416Y-35688D01*
X28261Y-35534D01*
X28059Y-35450D01*
X27841Y-35449D01*
X27638Y-35533D01*
X27500Y-35672D01*
X27500Y-35650D01*
X27462Y-35558D01*
X27391Y-35488D01*
X27299Y-35450D01*
X27285Y-35450D01*
X27285Y-35071D01*
X27296Y-35059D01*
X27334Y-34967D01*
X27335Y-34868D01*
X27335Y-34068D01*
X27297Y-33976D01*
X27226Y-33905D01*
X27134Y-33867D01*
X27035Y-33867D01*
X26435Y-33867D01*
X26343Y-33905D01*
X26273Y-33975D01*
X26235Y-34067D01*
X26234Y-34167D01*
X26234Y-34967D01*
X26272Y-35059D01*
X26343Y-35129D01*
X26435Y-35167D01*
X26534Y-35167D01*
X26615Y-35167D01*
X26615Y-35449D01*
X26600Y-35449D01*
X26508Y-35487D01*
X26438Y-35558D01*
X26400Y-35650D01*
X26399Y-35749D01*
X26399Y-36349D01*
X26437Y-36441D01*
X26508Y-36511D01*
X26600Y-36549D01*
X26699Y-36550D01*
X27026Y-36550D01*
X28813Y-38336D01*
X28921Y-38409D01*
X28921Y-38409D01*
X29050Y-38435D01*
X31600Y-38435D01*
X31728Y-38409D01*
X31728Y-38409D01*
X31836Y-38336D01*
X32143Y-38030D01*
X32190Y-38049D01*
X32408Y-38050D01*
X32611Y-37966D01*
X32749Y-37827D01*
X32749Y-37849D01*
X32787Y-37941D01*
X32858Y-38011D01*
X32950Y-38049D01*
X33049Y-38050D01*
X33649Y-38050D01*
X33741Y-38012D01*
X33811Y-37941D01*
X33849Y-37849D01*
X33850Y-37750D01*
X33850Y-37150D01*
X33826Y-37092D01*
X37185Y-37092D01*
X37309Y-37067D01*
X37309Y-37067D01*
X37414Y-36997D01*
X38819Y-35592D01*
X46685Y-35592D01*
X46809Y-35567D01*
X46809Y-35567D01*
X46914Y-35497D01*
X47146Y-35265D01*
X47146Y-35265D01*
X47146Y-35265D01*
X47187Y-35205D01*
X47305Y-35205D01*
X47305Y-35205D01*
X47396Y-35205D01*
X47561Y-35205D01*
X47561Y-35205D01*
X47652Y-35205D01*
X47817Y-35205D01*
X47817Y-35205D01*
X47908Y-35205D01*
X48073Y-35205D01*
X48073Y-35205D01*
X48164Y-35205D01*
X48329Y-35205D01*
X48329Y-35205D01*
X48420Y-35205D01*
X48585Y-35205D01*
X48610Y-35194D01*
X48610Y-36133D01*
X48412Y-36330D01*
X48321Y-36330D01*
X48320Y-36330D01*
X48266Y-36330D01*
X48266Y-36273D01*
X48241Y-36149D01*
X48241Y-36149D01*
X48213Y-36107D01*
X48170Y-36043D01*
X48170Y-36043D01*
X47914Y-35787D01*
X47809Y-35717D01*
X47685Y-35692D01*
X47435Y-35692D01*
X47435Y-35692D01*
X47410Y-35697D01*
X47310Y-35717D01*
X47205Y-35787D01*
X47205Y-35787D01*
X47080Y-35912D01*
X47045Y-35827D01*
X46926Y-35707D01*
X46769Y-35642D01*
X46600Y-35642D01*
X46444Y-35707D01*
X46324Y-35826D01*
X46260Y-35982D01*
X46259Y-36151D01*
X46324Y-36308D01*
X46443Y-36427D01*
X46600Y-36492D01*
X46600Y-36492D01*
X46584Y-36530D01*
X46584Y-36629D01*
X46584Y-37158D01*
X46050Y-37692D01*
X45885Y-37692D01*
X45885Y-37368D01*
X45847Y-37276D01*
X45776Y-37205D01*
X45684Y-37167D01*
X45585Y-37167D01*
X44985Y-37167D01*
X44893Y-37205D01*
X44823Y-37275D01*
X44785Y-37367D01*
X44784Y-37467D01*
X44784Y-38267D01*
X44805Y-38317D01*
X44785Y-38367D01*
X44784Y-38467D01*
X44784Y-39267D01*
X44822Y-39359D01*
X44893Y-39429D01*
X44985Y-39467D01*
X45084Y-39467D01*
X45684Y-39467D01*
X45776Y-39429D01*
X45846Y-39359D01*
X45884Y-39267D01*
X45885Y-39168D01*
X45885Y-38368D01*
X45874Y-38342D01*
X46185Y-38342D01*
X46309Y-38317D01*
X46309Y-38317D01*
X46414Y-38247D01*
X47104Y-37558D01*
X47104Y-37889D01*
X46455Y-38537D01*
X46384Y-38643D01*
X46360Y-38767D01*
X46360Y-38817D01*
X46235Y-38817D01*
X46143Y-38855D01*
X46073Y-38925D01*
X46035Y-39017D01*
X46034Y-39117D01*
X46034Y-39717D01*
X46072Y-39809D01*
X46143Y-39879D01*
X46235Y-39917D01*
X46334Y-39917D01*
X46401Y-39917D01*
X46455Y-39997D01*
X46575Y-40117D01*
X46235Y-40117D01*
X46143Y-40155D01*
X46073Y-40225D01*
X46035Y-40317D01*
X46034Y-40417D01*
X46034Y-41017D01*
X46055Y-41067D01*
X44585Y-41067D01*
X44585Y-39168D01*
X44585Y-38368D01*
X44564Y-38317D01*
X44584Y-38267D01*
X44585Y-38168D01*
X44585Y-37368D01*
X44547Y-37276D01*
X44476Y-37205D01*
X44384Y-37167D01*
X44353Y-37167D01*
X44295Y-37027D01*
X44176Y-36907D01*
X44019Y-36842D01*
X43850Y-36842D01*
X43694Y-36907D01*
X43574Y-37026D01*
X43510Y-37182D01*
X43510Y-37307D01*
X43485Y-37367D01*
X43484Y-37467D01*
X43484Y-38267D01*
X43505Y-38317D01*
X43485Y-38367D01*
X43484Y-38467D01*
X43484Y-39267D01*
X43522Y-39359D01*
X43593Y-39429D01*
X43685Y-39467D01*
X43784Y-39467D01*
X44384Y-39467D01*
X44476Y-39429D01*
X44546Y-39359D01*
X44584Y-39267D01*
X44585Y-39168D01*
X44585Y-41067D01*
X41385Y-41067D01*
X41270Y-41090D01*
X41172Y-41155D01*
X39259Y-43068D01*
X39185Y-43054D01*
X38970Y-43096D01*
X38789Y-43218D01*
X38685Y-43373D01*
X38581Y-43218D01*
X38399Y-43096D01*
X38185Y-43054D01*
X37970Y-43096D01*
X37885Y-43153D01*
X37885Y-40368D01*
X37885Y-39568D01*
X37847Y-39476D01*
X37776Y-39405D01*
X37684Y-39367D01*
X37585Y-39367D01*
X36985Y-39367D01*
X36893Y-39405D01*
X36823Y-39475D01*
X36785Y-39567D01*
X36784Y-39667D01*
X36784Y-40467D01*
X36822Y-40559D01*
X36831Y-40567D01*
X36735Y-40567D01*
X36685Y-40588D01*
X36634Y-40567D01*
X36538Y-40567D01*
X36546Y-40559D01*
X36584Y-40467D01*
X36585Y-40368D01*
X36585Y-39568D01*
X36547Y-39476D01*
X36476Y-39405D01*
X36384Y-39367D01*
X36285Y-39367D01*
X36244Y-39367D01*
X36110Y-39233D01*
X36110Y-39183D01*
X36045Y-39027D01*
X35926Y-38907D01*
X35769Y-38842D01*
X35600Y-38842D01*
X35444Y-38907D01*
X35324Y-39026D01*
X35260Y-39182D01*
X35259Y-39351D01*
X35324Y-39508D01*
X35443Y-39627D01*
X35485Y-39644D01*
X35484Y-39667D01*
X35484Y-39768D01*
X35455Y-39787D01*
X35455Y-39787D01*
X34955Y-40287D01*
X34884Y-40393D01*
X34860Y-40517D01*
X34860Y-40567D01*
X34735Y-40567D01*
X34643Y-40605D01*
X34635Y-40614D01*
X34635Y-39618D01*
X34635Y-38917D01*
X34634Y-38817D01*
X34596Y-38725D01*
X34526Y-38655D01*
X34434Y-38617D01*
X34197Y-38617D01*
X34135Y-38680D01*
X34135Y-39217D01*
X34572Y-39217D01*
X34635Y-39155D01*
X34635Y-38917D01*
X34635Y-39618D01*
X34635Y-39380D01*
X34572Y-39317D01*
X34135Y-39317D01*
X34135Y-39855D01*
X34197Y-39917D01*
X34434Y-39917D01*
X34526Y-39879D01*
X34596Y-39809D01*
X34634Y-39717D01*
X34635Y-39618D01*
X34635Y-40614D01*
X34573Y-40675D01*
X34535Y-40767D01*
X34534Y-40867D01*
X34534Y-41467D01*
X34572Y-41559D01*
X34643Y-41629D01*
X34735Y-41667D01*
X34834Y-41667D01*
X35634Y-41667D01*
X35685Y-41646D01*
X35735Y-41667D01*
X35834Y-41667D01*
X36634Y-41667D01*
X36685Y-41646D01*
X36735Y-41667D01*
X36834Y-41667D01*
X37634Y-41667D01*
X37726Y-41629D01*
X37796Y-41559D01*
X37834Y-41467D01*
X37835Y-41368D01*
X37835Y-40768D01*
X37797Y-40676D01*
X37758Y-40637D01*
X37776Y-40629D01*
X37846Y-40559D01*
X37884Y-40467D01*
X37885Y-40368D01*
X37885Y-43153D01*
X37789Y-43218D01*
X37685Y-43373D01*
X37581Y-43218D01*
X37510Y-43170D01*
X37510Y-42967D01*
X37634Y-42967D01*
X37726Y-42929D01*
X37796Y-42859D01*
X37834Y-42767D01*
X37835Y-42668D01*
X37835Y-42068D01*
X37797Y-41976D01*
X37726Y-41905D01*
X37634Y-41867D01*
X37535Y-41867D01*
X36735Y-41867D01*
X36685Y-41888D01*
X36634Y-41867D01*
X36535Y-41867D01*
X35735Y-41867D01*
X35685Y-41888D01*
X35634Y-41867D01*
X35535Y-41867D01*
X34735Y-41867D01*
X34643Y-41905D01*
X34573Y-41975D01*
X34535Y-42067D01*
X34534Y-42167D01*
X34534Y-42767D01*
X34572Y-42859D01*
X34643Y-42929D01*
X34735Y-42967D01*
X34834Y-42967D01*
X34860Y-42967D01*
X34860Y-43170D01*
X34789Y-43218D01*
X34667Y-43399D01*
X34625Y-43614D01*
X34625Y-43921D01*
X34667Y-44135D01*
X34789Y-44317D01*
X34970Y-44438D01*
X35185Y-44481D01*
X35399Y-44438D01*
X35581Y-44317D01*
X35685Y-44161D01*
X35789Y-44317D01*
X35970Y-44438D01*
X36185Y-44481D01*
X36399Y-44438D01*
X36581Y-44317D01*
X36685Y-44161D01*
X36743Y-44249D01*
X36300Y-44692D01*
X34035Y-44692D01*
X34035Y-39855D01*
X34035Y-39317D01*
X34035Y-39217D01*
X34035Y-38680D01*
X33972Y-38617D01*
X33735Y-38617D01*
X33643Y-38655D01*
X33573Y-38725D01*
X33535Y-38817D01*
X33534Y-38917D01*
X33535Y-39155D01*
X33597Y-39217D01*
X34035Y-39217D01*
X34035Y-39317D01*
X33597Y-39317D01*
X33535Y-39380D01*
X33534Y-39618D01*
X33535Y-39717D01*
X33573Y-39809D01*
X33643Y-39879D01*
X33735Y-39917D01*
X33972Y-39917D01*
X34035Y-39855D01*
X34035Y-44692D01*
X32631Y-44692D01*
X32494Y-44555D01*
X32403Y-44517D01*
X32493Y-44480D01*
X32647Y-44327D01*
X32730Y-44126D01*
X32730Y-43909D01*
X32647Y-43709D01*
X32510Y-43571D01*
X32510Y-42302D01*
X32644Y-42167D01*
X33184Y-42167D01*
X33276Y-42129D01*
X33346Y-42059D01*
X33384Y-41967D01*
X33385Y-41868D01*
X33385Y-41068D01*
X33364Y-41017D01*
X33384Y-40967D01*
X33385Y-40868D01*
X33385Y-40068D01*
X33347Y-39976D01*
X33276Y-39905D01*
X33220Y-39882D01*
X33226Y-39879D01*
X33296Y-39809D01*
X33334Y-39717D01*
X33335Y-39618D01*
X33335Y-38818D01*
X33297Y-38726D01*
X33226Y-38655D01*
X33134Y-38617D01*
X33035Y-38617D01*
X32435Y-38617D01*
X32343Y-38655D01*
X32310Y-38689D01*
X32276Y-38655D01*
X32184Y-38617D01*
X32085Y-38617D01*
X31485Y-38617D01*
X31393Y-38655D01*
X31323Y-38725D01*
X31285Y-38817D01*
X31284Y-38917D01*
X31284Y-39717D01*
X31322Y-39809D01*
X31381Y-39867D01*
X31185Y-39867D01*
X31093Y-39905D01*
X31085Y-39914D01*
X31085Y-39618D01*
X31085Y-38818D01*
X31047Y-38726D01*
X30976Y-38655D01*
X30884Y-38617D01*
X30785Y-38617D01*
X30185Y-38617D01*
X30093Y-38655D01*
X30023Y-38725D01*
X29985Y-38817D01*
X29984Y-38917D01*
X29984Y-39358D01*
X28900Y-40442D01*
X28635Y-40442D01*
X28635Y-40318D01*
X28597Y-40226D01*
X28526Y-40155D01*
X28435Y-40118D01*
X28545Y-40008D01*
X28609Y-39852D01*
X28610Y-39683D01*
X28545Y-39527D01*
X28426Y-39407D01*
X28269Y-39342D01*
X28100Y-39342D01*
X27944Y-39407D01*
X27824Y-39526D01*
X27760Y-39682D01*
X27759Y-39851D01*
X27762Y-39857D01*
X27760Y-39867D01*
X27760Y-40117D01*
X27735Y-40117D01*
X27643Y-40155D01*
X27573Y-40225D01*
X27535Y-40317D01*
X27534Y-40417D01*
X27534Y-41217D01*
X27572Y-41309D01*
X27643Y-41379D01*
X27735Y-41417D01*
X27834Y-41417D01*
X28434Y-41417D01*
X28526Y-41379D01*
X28596Y-41309D01*
X28634Y-41217D01*
X28635Y-41118D01*
X28635Y-41092D01*
X29035Y-41092D01*
X29159Y-41067D01*
X29159Y-41067D01*
X29264Y-40997D01*
X30344Y-39917D01*
X30884Y-39917D01*
X30976Y-39879D01*
X31046Y-39809D01*
X31084Y-39717D01*
X31085Y-39618D01*
X31085Y-39914D01*
X31023Y-39975D01*
X30985Y-40067D01*
X30984Y-40167D01*
X30984Y-40608D01*
X30455Y-41137D01*
X30384Y-41243D01*
X30360Y-41367D01*
X30360Y-41698D01*
X30283Y-41622D01*
X30025Y-41515D01*
X29745Y-41514D01*
X29487Y-41621D01*
X29289Y-41819D01*
X29182Y-42077D01*
X29182Y-42175D01*
X28878Y-42049D01*
X28493Y-42049D01*
X28137Y-42196D01*
X27864Y-42468D01*
X27716Y-42824D01*
X27716Y-42892D01*
X27621Y-42797D01*
X27630Y-42776D01*
X27630Y-42559D01*
X27547Y-42359D01*
X27394Y-42205D01*
X27194Y-42122D01*
X26977Y-42122D01*
X26776Y-42204D01*
X26685Y-42296D01*
X26685Y-41838D01*
X27021Y-41501D01*
X27021Y-41501D01*
X27021Y-41501D01*
X27078Y-41417D01*
X27134Y-41417D01*
X27226Y-41379D01*
X27296Y-41309D01*
X27334Y-41217D01*
X27335Y-41118D01*
X27335Y-40318D01*
X27297Y-40226D01*
X27226Y-40155D01*
X27134Y-40117D01*
X27035Y-40117D01*
X26435Y-40117D01*
X26343Y-40155D01*
X26273Y-40225D01*
X26235Y-40317D01*
X26234Y-40417D01*
X26234Y-41217D01*
X26271Y-41304D01*
X26113Y-41463D01*
X26040Y-41571D01*
X26015Y-41700D01*
X26015Y-42907D01*
X26040Y-43035D01*
X26113Y-43144D01*
X26539Y-43571D01*
X26539Y-43750D01*
X26622Y-43951D01*
X26775Y-44104D01*
X26976Y-44188D01*
X27193Y-44188D01*
X27273Y-44155D01*
X27273Y-44691D01*
X27299Y-44819D01*
X27371Y-44928D01*
X27414Y-44956D01*
X29098Y-46640D01*
X28878Y-46549D01*
X28493Y-46549D01*
X28137Y-46696D01*
X27864Y-46968D01*
X27809Y-47100D01*
X27630Y-46920D01*
X27630Y-46759D01*
X27547Y-46559D01*
X27394Y-46405D01*
X27194Y-46322D01*
X26977Y-46322D01*
X26776Y-46404D01*
X26622Y-46558D01*
X26539Y-46758D01*
X26539Y-46975D01*
X26622Y-47176D01*
X26775Y-47329D01*
X26866Y-47367D01*
X26776Y-47404D01*
X26622Y-47558D01*
X26539Y-47758D01*
X26539Y-47961D01*
X26484Y-48043D01*
X26460Y-48167D01*
X26460Y-48967D01*
X25985Y-48967D01*
X25985Y-25072D01*
X56919Y-25072D01*
X64135Y-32288D01*
X64135Y-34102D01*
G54D10*
G36*
X64135Y-48967D02*
X62510Y-48967D01*
X62510Y-41400D01*
X62649Y-41400D01*
X62725Y-41368D01*
X62800Y-41399D01*
X62899Y-41400D01*
X63699Y-41400D01*
X63791Y-41362D01*
X63861Y-41291D01*
X63899Y-41199D01*
X63900Y-41100D01*
X63900Y-40500D01*
X63862Y-40408D01*
X63791Y-40338D01*
X63699Y-40300D01*
X63600Y-40299D01*
X62800Y-40299D01*
X62724Y-40331D01*
X62649Y-40300D01*
X62550Y-40299D01*
X61750Y-40299D01*
X61658Y-40337D01*
X61588Y-40408D01*
X61550Y-40500D01*
X61549Y-40599D01*
X61549Y-41199D01*
X61587Y-41291D01*
X61658Y-41361D01*
X61750Y-41399D01*
X61849Y-41400D01*
X61890Y-41400D01*
X61890Y-48967D01*
X60835Y-48967D01*
X60835Y-43918D01*
X60835Y-43417D01*
X60834Y-43317D01*
X60796Y-43225D01*
X60738Y-43167D01*
X60796Y-43109D01*
X60834Y-43017D01*
X60835Y-42918D01*
X60835Y-42417D01*
X60834Y-42317D01*
X60796Y-42225D01*
X60738Y-42167D01*
X60796Y-42109D01*
X60834Y-42017D01*
X60835Y-41918D01*
X60835Y-41417D01*
X60834Y-41317D01*
X60796Y-41225D01*
X60738Y-41167D01*
X60796Y-41109D01*
X60834Y-41017D01*
X60835Y-40918D01*
X60835Y-40417D01*
X60834Y-40317D01*
X60796Y-40225D01*
X60726Y-40155D01*
X60634Y-40117D01*
X60397Y-40117D01*
X60335Y-40180D01*
X60335Y-40617D01*
X60772Y-40617D01*
X60835Y-40555D01*
X60835Y-40417D01*
X60835Y-40918D01*
X60835Y-40780D01*
X60772Y-40717D01*
X60335Y-40717D01*
X60335Y-41155D01*
X60347Y-41167D01*
X60335Y-41180D01*
X60335Y-41617D01*
X60772Y-41617D01*
X60835Y-41555D01*
X60835Y-41417D01*
X60835Y-41918D01*
X60835Y-41780D01*
X60772Y-41717D01*
X60335Y-41717D01*
X60335Y-42155D01*
X60347Y-42167D01*
X60335Y-42180D01*
X60335Y-42617D01*
X60772Y-42617D01*
X60835Y-42555D01*
X60835Y-42417D01*
X60835Y-42918D01*
X60835Y-42780D01*
X60772Y-42717D01*
X60335Y-42717D01*
X60335Y-43155D01*
X60347Y-43167D01*
X60335Y-43180D01*
X60335Y-43617D01*
X60772Y-43617D01*
X60835Y-43555D01*
X60835Y-43417D01*
X60835Y-43918D01*
X60835Y-43780D01*
X60772Y-43717D01*
X60335Y-43717D01*
X60335Y-44155D01*
X60397Y-44217D01*
X60634Y-44217D01*
X60726Y-44179D01*
X60796Y-44109D01*
X60834Y-44017D01*
X60835Y-43918D01*
X60835Y-48967D01*
X58395Y-48967D01*
X58395Y-45917D01*
X58371Y-45799D01*
X58304Y-45698D01*
X58261Y-45670D01*
X53747Y-41155D01*
X53649Y-41090D01*
X53535Y-41067D01*
X52359Y-41067D01*
X52360Y-40933D01*
X52295Y-40777D01*
X52176Y-40657D01*
X52019Y-40592D01*
X51969Y-40592D01*
X51164Y-39787D01*
X51059Y-39717D01*
X50935Y-39692D01*
X50335Y-39692D01*
X50335Y-39018D01*
X50297Y-38926D01*
X50226Y-38855D01*
X50134Y-38817D01*
X50035Y-38817D01*
X49797Y-38817D01*
X49735Y-38880D01*
X49735Y-39317D01*
X50272Y-39317D01*
X50335Y-39255D01*
X50335Y-39018D01*
X50335Y-39692D01*
X50335Y-39692D01*
X50335Y-39480D01*
X50272Y-39417D01*
X49735Y-39417D01*
X49735Y-39425D01*
X49635Y-39425D01*
X49635Y-39417D01*
X49635Y-39317D01*
X49635Y-38880D01*
X49572Y-38817D01*
X49334Y-38817D01*
X49235Y-38817D01*
X49185Y-38838D01*
X49134Y-38817D01*
X49035Y-38817D01*
X48797Y-38817D01*
X48735Y-38880D01*
X48735Y-39317D01*
X49097Y-39317D01*
X49272Y-39317D01*
X49635Y-39317D01*
X49635Y-39417D01*
X49272Y-39417D01*
X49097Y-39417D01*
X48735Y-39417D01*
X48735Y-39425D01*
X48635Y-39425D01*
X48635Y-39417D01*
X48627Y-39417D01*
X48627Y-39317D01*
X48635Y-39317D01*
X48635Y-38880D01*
X48572Y-38817D01*
X48334Y-38817D01*
X48235Y-38817D01*
X48185Y-38838D01*
X48134Y-38817D01*
X48035Y-38817D01*
X47235Y-38817D01*
X47185Y-38838D01*
X47134Y-38817D01*
X47094Y-38817D01*
X47658Y-38253D01*
X47658Y-38253D01*
X47658Y-38253D01*
X47701Y-38190D01*
X47729Y-38148D01*
X47729Y-38148D01*
X47754Y-38023D01*
X47754Y-37386D01*
X47774Y-37395D01*
X47788Y-37409D01*
X47817Y-37409D01*
X47817Y-37409D01*
X47900Y-37409D01*
X47967Y-37509D01*
X48205Y-37747D01*
X48205Y-37747D01*
X48310Y-37817D01*
X48310Y-37817D01*
X48435Y-37842D01*
X50435Y-37842D01*
X50559Y-37817D01*
X50559Y-37817D01*
X50664Y-37747D01*
X50705Y-37706D01*
X50808Y-37810D01*
X50965Y-37874D01*
X51134Y-37875D01*
X51255Y-37825D01*
X51255Y-38437D01*
X51277Y-38552D01*
X51342Y-38649D01*
X56572Y-43879D01*
X56572Y-43879D01*
X56670Y-43944D01*
X56785Y-43967D01*
X56785Y-43967D01*
X58813Y-43967D01*
X58818Y-43978D01*
X58973Y-44133D01*
X59175Y-44217D01*
X59393Y-44217D01*
X59596Y-44134D01*
X59735Y-43995D01*
X59735Y-44017D01*
X59773Y-44109D01*
X59843Y-44179D01*
X59935Y-44217D01*
X60172Y-44217D01*
X60235Y-44155D01*
X60235Y-43717D01*
X60227Y-43717D01*
X60227Y-43617D01*
X60235Y-43617D01*
X60235Y-43180D01*
X60222Y-43167D01*
X60235Y-43155D01*
X60235Y-42717D01*
X60227Y-42717D01*
X60227Y-42617D01*
X60235Y-42617D01*
X60235Y-42180D01*
X60222Y-42167D01*
X60235Y-42155D01*
X60235Y-41717D01*
X60227Y-41717D01*
X60227Y-41617D01*
X60235Y-41617D01*
X60235Y-41180D01*
X60222Y-41167D01*
X60235Y-41155D01*
X60235Y-40717D01*
X60227Y-40717D01*
X60227Y-40617D01*
X60235Y-40617D01*
X60235Y-40180D01*
X60172Y-40117D01*
X59935Y-40117D01*
X59843Y-40155D01*
X59773Y-40225D01*
X59735Y-40317D01*
X59735Y-40340D01*
X59596Y-40201D01*
X59585Y-40196D01*
X59585Y-38817D01*
X59562Y-38702D01*
X59497Y-38605D01*
X58341Y-37450D01*
X58849Y-37450D01*
X58900Y-37429D01*
X58950Y-37449D01*
X59049Y-37450D01*
X59329Y-37450D01*
X60094Y-38215D01*
X60072Y-38269D01*
X60071Y-38525D01*
X60169Y-38762D01*
X60350Y-38943D01*
X60587Y-39041D01*
X60843Y-39041D01*
X61079Y-38944D01*
X61261Y-38763D01*
X61359Y-38526D01*
X61359Y-38270D01*
X61261Y-38033D01*
X61080Y-37852D01*
X60844Y-37754D01*
X60588Y-37754D01*
X60533Y-37777D01*
X60037Y-37280D01*
X60049Y-37249D01*
X60050Y-37150D01*
X60050Y-36550D01*
X60050Y-35850D01*
X60050Y-35250D01*
X60012Y-35158D01*
X59941Y-35088D01*
X59849Y-35050D01*
X59750Y-35049D01*
X59709Y-35049D01*
X59705Y-35026D01*
X59686Y-34931D01*
X59686Y-34931D01*
X59619Y-34830D01*
X59619Y-34830D01*
X59350Y-34561D01*
X59350Y-34400D01*
X59312Y-34308D01*
X59241Y-34238D01*
X59149Y-34200D01*
X59050Y-34199D01*
X58250Y-34199D01*
X58199Y-34220D01*
X58149Y-34200D01*
X58050Y-34199D01*
X57250Y-34199D01*
X57158Y-34237D01*
X57088Y-34308D01*
X57050Y-34400D01*
X57049Y-34499D01*
X57049Y-35099D01*
X57087Y-35191D01*
X57158Y-35261D01*
X57250Y-35299D01*
X57349Y-35300D01*
X57661Y-35300D01*
X57749Y-35388D01*
X57749Y-35949D01*
X57787Y-36041D01*
X57858Y-36111D01*
X57950Y-36149D01*
X58049Y-36150D01*
X58849Y-36150D01*
X58900Y-36129D01*
X58950Y-36149D01*
X59049Y-36150D01*
X59849Y-36150D01*
X59941Y-36112D01*
X60011Y-36041D01*
X60049Y-35949D01*
X60050Y-35850D01*
X60050Y-36550D01*
X60012Y-36458D01*
X59941Y-36388D01*
X59849Y-36350D01*
X59750Y-36349D01*
X58950Y-36349D01*
X58899Y-36370D01*
X58849Y-36350D01*
X58750Y-36349D01*
X57950Y-36349D01*
X57858Y-36387D01*
X57788Y-36458D01*
X57750Y-36550D01*
X57749Y-36649D01*
X57749Y-36858D01*
X56810Y-35918D01*
X56810Y-35833D01*
X56745Y-35677D01*
X56626Y-35557D01*
X56469Y-35492D01*
X56300Y-35492D01*
X56144Y-35557D01*
X56135Y-35566D01*
X56135Y-35318D01*
X56114Y-35267D01*
X56134Y-35217D01*
X56135Y-35118D01*
X56135Y-35092D01*
X56158Y-35092D01*
X56193Y-35127D01*
X56350Y-35192D01*
X56519Y-35192D01*
X56675Y-35128D01*
X56795Y-35008D01*
X56859Y-34852D01*
X56860Y-34683D01*
X56795Y-34527D01*
X56676Y-34407D01*
X56519Y-34342D01*
X56350Y-34342D01*
X56194Y-34407D01*
X56159Y-34442D01*
X56135Y-34442D01*
X56135Y-34318D01*
X56114Y-34267D01*
X56134Y-34217D01*
X56135Y-34118D01*
X56135Y-33318D01*
X56097Y-33226D01*
X56030Y-33160D01*
X56371Y-33160D01*
X56880Y-33669D01*
X56981Y-33736D01*
X57049Y-33750D01*
X57049Y-33799D01*
X57087Y-33891D01*
X57158Y-33961D01*
X57250Y-33999D01*
X57349Y-34000D01*
X58149Y-34000D01*
X58200Y-33979D01*
X58250Y-33999D01*
X58349Y-34000D01*
X59149Y-34000D01*
X59241Y-33962D01*
X59311Y-33891D01*
X59349Y-33799D01*
X59350Y-33700D01*
X59350Y-33288D01*
X59590Y-33528D01*
X59590Y-33900D01*
X59613Y-34018D01*
X59680Y-34119D01*
X60307Y-34745D01*
X60170Y-34882D01*
X60072Y-35119D01*
X60071Y-35375D01*
X60169Y-35612D01*
X60350Y-35793D01*
X60587Y-35891D01*
X60843Y-35891D01*
X61079Y-35794D01*
X61261Y-35613D01*
X61359Y-35376D01*
X61359Y-35120D01*
X61343Y-35082D01*
X61490Y-35228D01*
X61490Y-36316D01*
X61284Y-36316D01*
X61261Y-36262D01*
X61080Y-36080D01*
X60844Y-35982D01*
X60588Y-35982D01*
X60351Y-36080D01*
X60170Y-36261D01*
X60072Y-36497D01*
X60071Y-36753D01*
X60169Y-36990D01*
X60350Y-37171D01*
X60587Y-37269D01*
X60843Y-37270D01*
X61079Y-37172D01*
X61261Y-36991D01*
X61284Y-36936D01*
X61671Y-36936D01*
X61890Y-37154D01*
X61890Y-38999D01*
X61750Y-38999D01*
X61658Y-39037D01*
X61588Y-39108D01*
X61550Y-39200D01*
X61549Y-39299D01*
X61549Y-39899D01*
X61587Y-39991D01*
X61658Y-40061D01*
X61750Y-40099D01*
X61849Y-40100D01*
X62649Y-40100D01*
X62725Y-40068D01*
X62800Y-40099D01*
X62899Y-40100D01*
X63699Y-40100D01*
X63791Y-40062D01*
X63861Y-39991D01*
X63899Y-39899D01*
X63900Y-39800D01*
X63900Y-39638D01*
X64119Y-39419D01*
X64119Y-39419D01*
X64119Y-39419D01*
X64135Y-39395D01*
X64135Y-48967D01*
X64135Y-48967D01*
G37*
G54D30*
X64135Y-48967D02*
X62510Y-48967D01*
X62510Y-41400D01*
X62649Y-41400D01*
X62725Y-41368D01*
X62800Y-41399D01*
X62899Y-41400D01*
X63699Y-41400D01*
X63791Y-41362D01*
X63861Y-41291D01*
X63899Y-41199D01*
X63900Y-41100D01*
X63900Y-40500D01*
X63862Y-40408D01*
X63791Y-40338D01*
X63699Y-40300D01*
X63600Y-40299D01*
X62800Y-40299D01*
X62724Y-40331D01*
X62649Y-40300D01*
X62550Y-40299D01*
X61750Y-40299D01*
X61658Y-40337D01*
X61588Y-40408D01*
X61550Y-40500D01*
X61549Y-40599D01*
X61549Y-41199D01*
X61587Y-41291D01*
X61658Y-41361D01*
X61750Y-41399D01*
X61849Y-41400D01*
X61890Y-41400D01*
X61890Y-48967D01*
X60835Y-48967D01*
X60835Y-43918D01*
X60835Y-43417D01*
X60834Y-43317D01*
X60796Y-43225D01*
X60738Y-43167D01*
X60796Y-43109D01*
X60834Y-43017D01*
X60835Y-42918D01*
X60835Y-42417D01*
X60834Y-42317D01*
X60796Y-42225D01*
X60738Y-42167D01*
X60796Y-42109D01*
X60834Y-42017D01*
X60835Y-41918D01*
X60835Y-41417D01*
X60834Y-41317D01*
X60796Y-41225D01*
X60738Y-41167D01*
X60796Y-41109D01*
X60834Y-41017D01*
X60835Y-40918D01*
X60835Y-40417D01*
X60834Y-40317D01*
X60796Y-40225D01*
X60726Y-40155D01*
X60634Y-40117D01*
X60397Y-40117D01*
X60335Y-40180D01*
X60335Y-40617D01*
X60772Y-40617D01*
X60835Y-40555D01*
X60835Y-40417D01*
X60835Y-40918D01*
X60835Y-40780D01*
X60772Y-40717D01*
X60335Y-40717D01*
X60335Y-41155D01*
X60347Y-41167D01*
X60335Y-41180D01*
X60335Y-41617D01*
X60772Y-41617D01*
X60835Y-41555D01*
X60835Y-41417D01*
X60835Y-41918D01*
X60835Y-41780D01*
X60772Y-41717D01*
X60335Y-41717D01*
X60335Y-42155D01*
X60347Y-42167D01*
X60335Y-42180D01*
X60335Y-42617D01*
X60772Y-42617D01*
X60835Y-42555D01*
X60835Y-42417D01*
X60835Y-42918D01*
X60835Y-42780D01*
X60772Y-42717D01*
X60335Y-42717D01*
X60335Y-43155D01*
X60347Y-43167D01*
X60335Y-43180D01*
X60335Y-43617D01*
X60772Y-43617D01*
X60835Y-43555D01*
X60835Y-43417D01*
X60835Y-43918D01*
X60835Y-43780D01*
X60772Y-43717D01*
X60335Y-43717D01*
X60335Y-44155D01*
X60397Y-44217D01*
X60634Y-44217D01*
X60726Y-44179D01*
X60796Y-44109D01*
X60834Y-44017D01*
X60835Y-43918D01*
X60835Y-48967D01*
X58395Y-48967D01*
X58395Y-45917D01*
X58371Y-45799D01*
X58304Y-45698D01*
X58261Y-45670D01*
X53747Y-41155D01*
X53649Y-41090D01*
X53535Y-41067D01*
X52359Y-41067D01*
X52360Y-40933D01*
X52295Y-40777D01*
X52176Y-40657D01*
X52019Y-40592D01*
X51969Y-40592D01*
X51164Y-39787D01*
X51059Y-39717D01*
X50935Y-39692D01*
X50335Y-39692D01*
X50335Y-39018D01*
X50297Y-38926D01*
X50226Y-38855D01*
X50134Y-38817D01*
X50035Y-38817D01*
X49797Y-38817D01*
X49735Y-38880D01*
X49735Y-39317D01*
X50272Y-39317D01*
X50335Y-39255D01*
X50335Y-39018D01*
X50335Y-39692D01*
X50335Y-39692D01*
X50335Y-39480D01*
X50272Y-39417D01*
X49735Y-39417D01*
X49735Y-39425D01*
X49635Y-39425D01*
X49635Y-39417D01*
X49635Y-39317D01*
X49635Y-38880D01*
X49572Y-38817D01*
X49334Y-38817D01*
X49235Y-38817D01*
X49185Y-38838D01*
X49134Y-38817D01*
X49035Y-38817D01*
X48797Y-38817D01*
X48735Y-38880D01*
X48735Y-39317D01*
X49097Y-39317D01*
X49272Y-39317D01*
X49635Y-39317D01*
X49635Y-39417D01*
X49272Y-39417D01*
X49097Y-39417D01*
X48735Y-39417D01*
X48735Y-39425D01*
X48635Y-39425D01*
X48635Y-39417D01*
X48627Y-39417D01*
X48627Y-39317D01*
X48635Y-39317D01*
X48635Y-38880D01*
X48572Y-38817D01*
X48334Y-38817D01*
X48235Y-38817D01*
X48185Y-38838D01*
X48134Y-38817D01*
X48035Y-38817D01*
X47235Y-38817D01*
X47185Y-38838D01*
X47134Y-38817D01*
X47094Y-38817D01*
X47658Y-38253D01*
X47658Y-38253D01*
X47658Y-38253D01*
X47701Y-38190D01*
X47729Y-38148D01*
X47729Y-38148D01*
X47754Y-38023D01*
X47754Y-37386D01*
X47774Y-37395D01*
X47788Y-37409D01*
X47817Y-37409D01*
X47817Y-37409D01*
X47900Y-37409D01*
X47967Y-37509D01*
X48205Y-37747D01*
X48205Y-37747D01*
X48310Y-37817D01*
X48310Y-37817D01*
X48435Y-37842D01*
X50435Y-37842D01*
X50559Y-37817D01*
X50559Y-37817D01*
X50664Y-37747D01*
X50705Y-37706D01*
X50808Y-37810D01*
X50965Y-37874D01*
X51134Y-37875D01*
X51255Y-37825D01*
X51255Y-38437D01*
X51277Y-38552D01*
X51342Y-38649D01*
X56572Y-43879D01*
X56572Y-43879D01*
X56670Y-43944D01*
X56785Y-43967D01*
X56785Y-43967D01*
X58813Y-43967D01*
X58818Y-43978D01*
X58973Y-44133D01*
X59175Y-44217D01*
X59393Y-44217D01*
X59596Y-44134D01*
X59735Y-43995D01*
X59735Y-44017D01*
X59773Y-44109D01*
X59843Y-44179D01*
X59935Y-44217D01*
X60172Y-44217D01*
X60235Y-44155D01*
X60235Y-43717D01*
X60227Y-43717D01*
X60227Y-43617D01*
X60235Y-43617D01*
X60235Y-43180D01*
X60222Y-43167D01*
X60235Y-43155D01*
X60235Y-42717D01*
X60227Y-42717D01*
X60227Y-42617D01*
X60235Y-42617D01*
X60235Y-42180D01*
X60222Y-42167D01*
X60235Y-42155D01*
X60235Y-41717D01*
X60227Y-41717D01*
X60227Y-41617D01*
X60235Y-41617D01*
X60235Y-41180D01*
X60222Y-41167D01*
X60235Y-41155D01*
X60235Y-40717D01*
X60227Y-40717D01*
X60227Y-40617D01*
X60235Y-40617D01*
X60235Y-40180D01*
X60172Y-40117D01*
X59935Y-40117D01*
X59843Y-40155D01*
X59773Y-40225D01*
X59735Y-40317D01*
X59735Y-40340D01*
X59596Y-40201D01*
X59585Y-40196D01*
X59585Y-38817D01*
X59562Y-38702D01*
X59497Y-38605D01*
X58341Y-37450D01*
X58849Y-37450D01*
X58900Y-37429D01*
X58950Y-37449D01*
X59049Y-37450D01*
X59329Y-37450D01*
X60094Y-38215D01*
X60072Y-38269D01*
X60071Y-38525D01*
X60169Y-38762D01*
X60350Y-38943D01*
X60587Y-39041D01*
X60843Y-39041D01*
X61079Y-38944D01*
X61261Y-38763D01*
X61359Y-38526D01*
X61359Y-38270D01*
X61261Y-38033D01*
X61080Y-37852D01*
X60844Y-37754D01*
X60588Y-37754D01*
X60533Y-37777D01*
X60037Y-37280D01*
X60049Y-37249D01*
X60050Y-37150D01*
X60050Y-36550D01*
X60050Y-35850D01*
X60050Y-35250D01*
X60012Y-35158D01*
X59941Y-35088D01*
X59849Y-35050D01*
X59750Y-35049D01*
X59709Y-35049D01*
X59705Y-35026D01*
X59686Y-34931D01*
X59686Y-34931D01*
X59619Y-34830D01*
X59619Y-34830D01*
X59350Y-34561D01*
X59350Y-34400D01*
X59312Y-34308D01*
X59241Y-34238D01*
X59149Y-34200D01*
X59050Y-34199D01*
X58250Y-34199D01*
X58199Y-34220D01*
X58149Y-34200D01*
X58050Y-34199D01*
X57250Y-34199D01*
X57158Y-34237D01*
X57088Y-34308D01*
X57050Y-34400D01*
X57049Y-34499D01*
X57049Y-35099D01*
X57087Y-35191D01*
X57158Y-35261D01*
X57250Y-35299D01*
X57349Y-35300D01*
X57661Y-35300D01*
X57749Y-35388D01*
X57749Y-35949D01*
X57787Y-36041D01*
X57858Y-36111D01*
X57950Y-36149D01*
X58049Y-36150D01*
X58849Y-36150D01*
X58900Y-36129D01*
X58950Y-36149D01*
X59049Y-36150D01*
X59849Y-36150D01*
X59941Y-36112D01*
X60011Y-36041D01*
X60049Y-35949D01*
X60050Y-35850D01*
X60050Y-36550D01*
X60012Y-36458D01*
X59941Y-36388D01*
X59849Y-36350D01*
X59750Y-36349D01*
X58950Y-36349D01*
X58899Y-36370D01*
X58849Y-36350D01*
X58750Y-36349D01*
X57950Y-36349D01*
X57858Y-36387D01*
X57788Y-36458D01*
X57750Y-36550D01*
X57749Y-36649D01*
X57749Y-36858D01*
X56810Y-35918D01*
X56810Y-35833D01*
X56745Y-35677D01*
X56626Y-35557D01*
X56469Y-35492D01*
X56300Y-35492D01*
X56144Y-35557D01*
X56135Y-35566D01*
X56135Y-35318D01*
X56114Y-35267D01*
X56134Y-35217D01*
X56135Y-35118D01*
X56135Y-35092D01*
X56158Y-35092D01*
X56193Y-35127D01*
X56350Y-35192D01*
X56519Y-35192D01*
X56675Y-35128D01*
X56795Y-35008D01*
X56859Y-34852D01*
X56860Y-34683D01*
X56795Y-34527D01*
X56676Y-34407D01*
X56519Y-34342D01*
X56350Y-34342D01*
X56194Y-34407D01*
X56159Y-34442D01*
X56135Y-34442D01*
X56135Y-34318D01*
X56114Y-34267D01*
X56134Y-34217D01*
X56135Y-34118D01*
X56135Y-33318D01*
X56097Y-33226D01*
X56030Y-33160D01*
X56371Y-33160D01*
X56880Y-33669D01*
X56981Y-33736D01*
X57049Y-33750D01*
X57049Y-33799D01*
X57087Y-33891D01*
X57158Y-33961D01*
X57250Y-33999D01*
X57349Y-34000D01*
X58149Y-34000D01*
X58200Y-33979D01*
X58250Y-33999D01*
X58349Y-34000D01*
X59149Y-34000D01*
X59241Y-33962D01*
X59311Y-33891D01*
X59349Y-33799D01*
X59350Y-33700D01*
X59350Y-33288D01*
X59590Y-33528D01*
X59590Y-33900D01*
X59613Y-34018D01*
X59680Y-34119D01*
X60307Y-34745D01*
X60170Y-34882D01*
X60072Y-35119D01*
X60071Y-35375D01*
X60169Y-35612D01*
X60350Y-35793D01*
X60587Y-35891D01*
X60843Y-35891D01*
X61079Y-35794D01*
X61261Y-35613D01*
X61359Y-35376D01*
X61359Y-35120D01*
X61343Y-35082D01*
X61490Y-35228D01*
X61490Y-36316D01*
X61284Y-36316D01*
X61261Y-36262D01*
X61080Y-36080D01*
X60844Y-35982D01*
X60588Y-35982D01*
X60351Y-36080D01*
X60170Y-36261D01*
X60072Y-36497D01*
X60071Y-36753D01*
X60169Y-36990D01*
X60350Y-37171D01*
X60587Y-37269D01*
X60843Y-37270D01*
X61079Y-37172D01*
X61261Y-36991D01*
X61284Y-36936D01*
X61671Y-36936D01*
X61890Y-37154D01*
X61890Y-38999D01*
X61750Y-38999D01*
X61658Y-39037D01*
X61588Y-39108D01*
X61550Y-39200D01*
X61549Y-39299D01*
X61549Y-39899D01*
X61587Y-39991D01*
X61658Y-40061D01*
X61750Y-40099D01*
X61849Y-40100D01*
X62649Y-40100D01*
X62725Y-40068D01*
X62800Y-40099D01*
X62899Y-40100D01*
X63699Y-40100D01*
X63791Y-40062D01*
X63861Y-39991D01*
X63899Y-39899D01*
X63900Y-39800D01*
X63900Y-39638D01*
X64119Y-39419D01*
X64119Y-39419D01*
X64119Y-39419D01*
X64135Y-39395D01*
X64135Y-48967D01*
G54D10*
G36*
X50860Y-51246D02*
X50766Y-51212D01*
X50548Y-51223D01*
X50397Y-51286D01*
X50369Y-51381D01*
X50685Y-51697D01*
X50690Y-51691D01*
X50761Y-51762D01*
X50755Y-51767D01*
X50761Y-51773D01*
X50690Y-51843D01*
X50685Y-51838D01*
X50679Y-51843D01*
X50608Y-51773D01*
X50614Y-51767D01*
X50299Y-51452D01*
X50203Y-51479D01*
X50130Y-51685D01*
X50133Y-51756D01*
X48914Y-50537D01*
X48809Y-50467D01*
X48685Y-50442D01*
X44069Y-50442D01*
X43944Y-50317D01*
X50860Y-50317D01*
X50860Y-51246D01*
X50860Y-51246D01*
G37*
G54D30*
X50860Y-51246D02*
X50766Y-51212D01*
X50548Y-51223D01*
X50397Y-51286D01*
X50369Y-51381D01*
X50685Y-51697D01*
X50690Y-51691D01*
X50761Y-51762D01*
X50755Y-51767D01*
X50761Y-51773D01*
X50690Y-51843D01*
X50685Y-51838D01*
X50679Y-51843D01*
X50608Y-51773D01*
X50614Y-51767D01*
X50299Y-51452D01*
X50203Y-51479D01*
X50130Y-51685D01*
X50133Y-51756D01*
X48914Y-50537D01*
X48809Y-50467D01*
X48685Y-50442D01*
X44069Y-50442D01*
X43944Y-50317D01*
X50860Y-50317D01*
X50860Y-51246D01*
G54D10*
G36*
X51454Y-53267D02*
X51373Y-53301D01*
X51219Y-53455D01*
X51185Y-53537D01*
X51151Y-53456D01*
X50996Y-53301D01*
X50915Y-53267D01*
X50996Y-53234D01*
X51151Y-53079D01*
X51185Y-52997D01*
X51218Y-53078D01*
X51373Y-53233D01*
X51454Y-53267D01*
X51454Y-53267D01*
G37*
G54D30*
X51454Y-53267D02*
X51373Y-53301D01*
X51219Y-53455D01*
X51185Y-53537D01*
X51151Y-53456D01*
X50996Y-53301D01*
X50915Y-53267D01*
X50996Y-53234D01*
X51151Y-53079D01*
X51185Y-52997D01*
X51218Y-53078D01*
X51373Y-53233D01*
X51454Y-53267D01*
G54D10*
G36*
X54385Y-52296D02*
X54373Y-52301D01*
X54219Y-52455D01*
X54185Y-52537D01*
X54151Y-52456D01*
X53996Y-52301D01*
X53915Y-52267D01*
X53996Y-52234D01*
X54151Y-52079D01*
X54234Y-51877D01*
X54235Y-51658D01*
X54151Y-51456D01*
X53996Y-51301D01*
X53794Y-51217D01*
X53576Y-51217D01*
X53373Y-51301D01*
X53219Y-51455D01*
X53185Y-51537D01*
X53151Y-51456D01*
X52996Y-51301D01*
X52794Y-51217D01*
X52576Y-51217D01*
X52373Y-51301D01*
X52219Y-51455D01*
X52185Y-51537D01*
X52151Y-51456D01*
X52035Y-51339D01*
X52035Y-50317D01*
X54385Y-50317D01*
X54385Y-52296D01*
X54385Y-52296D01*
G37*
G54D30*
X54385Y-52296D02*
X54373Y-52301D01*
X54219Y-52455D01*
X54185Y-52537D01*
X54151Y-52456D01*
X53996Y-52301D01*
X53915Y-52267D01*
X53996Y-52234D01*
X54151Y-52079D01*
X54234Y-51877D01*
X54235Y-51658D01*
X54151Y-51456D01*
X53996Y-51301D01*
X53794Y-51217D01*
X53576Y-51217D01*
X53373Y-51301D01*
X53219Y-51455D01*
X53185Y-51537D01*
X53151Y-51456D01*
X52996Y-51301D01*
X52794Y-51217D01*
X52576Y-51217D01*
X52373Y-51301D01*
X52219Y-51455D01*
X52185Y-51537D01*
X52151Y-51456D01*
X52035Y-51339D01*
X52035Y-50317D01*
X54385Y-50317D01*
X54385Y-52296D01*
G54D10*
G36*
X59454Y-53267D02*
X59373Y-53301D01*
X59219Y-53455D01*
X59185Y-53537D01*
X59151Y-53456D01*
X58996Y-53301D01*
X58915Y-53267D01*
X58996Y-53234D01*
X59151Y-53079D01*
X59185Y-52997D01*
X59218Y-53078D01*
X59373Y-53233D01*
X59454Y-53267D01*
X59454Y-53267D01*
G37*
G54D30*
X59454Y-53267D02*
X59373Y-53301D01*
X59219Y-53455D01*
X59185Y-53537D01*
X59151Y-53456D01*
X58996Y-53301D01*
X58915Y-53267D01*
X58996Y-53234D01*
X59151Y-53079D01*
X59185Y-52997D01*
X59218Y-53078D01*
X59373Y-53233D01*
X59454Y-53267D01*
G54D10*
G36*
X64135Y-63467D02*
X63644Y-63467D01*
X63750Y-63361D01*
X63864Y-63089D01*
X63864Y-62793D01*
X63864Y-60431D01*
X63751Y-60158D01*
X63542Y-59949D01*
X63270Y-59836D01*
X62975Y-59836D01*
X62702Y-59949D01*
X62493Y-60157D01*
X62380Y-60430D01*
X62379Y-60725D01*
X62415Y-60811D01*
X61812Y-61415D01*
X46988Y-61415D01*
X45935Y-60361D01*
X45935Y-59831D01*
X45974Y-59734D01*
X45975Y-59565D01*
X45910Y-59409D01*
X45843Y-59342D01*
X46550Y-59342D01*
X46955Y-59747D01*
X46955Y-59747D01*
X47018Y-59789D01*
X47060Y-59817D01*
X47060Y-59817D01*
X47185Y-59842D01*
X47274Y-59842D01*
X47197Y-59874D01*
X47126Y-59944D01*
X47088Y-60036D01*
X47088Y-60136D01*
X47088Y-61120D01*
X47126Y-61212D01*
X47196Y-61282D01*
X47288Y-61320D01*
X47388Y-61320D01*
X48372Y-61320D01*
X48464Y-61282D01*
X48534Y-61212D01*
X48572Y-61120D01*
X48572Y-61021D01*
X48572Y-60037D01*
X48534Y-59945D01*
X48464Y-59874D01*
X48387Y-59842D01*
X54459Y-59842D01*
X54202Y-59949D01*
X53993Y-60157D01*
X53880Y-60430D01*
X53879Y-60725D01*
X53992Y-60998D01*
X54201Y-61207D01*
X54473Y-61320D01*
X54769Y-61320D01*
X55041Y-61208D01*
X55250Y-60999D01*
X55364Y-60727D01*
X55364Y-60431D01*
X55251Y-60158D01*
X55042Y-59949D01*
X54784Y-59842D01*
X55774Y-59842D01*
X55697Y-59874D01*
X55626Y-59944D01*
X55588Y-60036D01*
X55588Y-60136D01*
X55588Y-61120D01*
X55626Y-61212D01*
X55696Y-61282D01*
X55788Y-61320D01*
X55888Y-61320D01*
X56872Y-61320D01*
X56964Y-61282D01*
X57034Y-61212D01*
X57072Y-61120D01*
X57072Y-61021D01*
X57072Y-60037D01*
X57034Y-59945D01*
X56964Y-59874D01*
X56887Y-59842D01*
X61820Y-59842D01*
X61945Y-59817D01*
X61945Y-59817D01*
X62050Y-59747D01*
X62879Y-58919D01*
X62973Y-58958D01*
X63269Y-58958D01*
X63541Y-58846D01*
X63750Y-58637D01*
X63864Y-58364D01*
X63864Y-58069D01*
X63751Y-57796D01*
X63542Y-57587D01*
X63270Y-57474D01*
X62975Y-57474D01*
X62702Y-57587D01*
X62493Y-57795D01*
X62380Y-58068D01*
X62379Y-58363D01*
X62419Y-58459D01*
X61686Y-59192D01*
X57072Y-59192D01*
X57072Y-58659D01*
X57072Y-57674D01*
X57034Y-57582D01*
X56964Y-57512D01*
X56872Y-57474D01*
X56773Y-57474D01*
X55789Y-57474D01*
X55697Y-57512D01*
X55626Y-57582D01*
X55588Y-57674D01*
X55588Y-57773D01*
X55588Y-58758D01*
X55626Y-58850D01*
X55696Y-58920D01*
X55788Y-58958D01*
X55888Y-58958D01*
X56872Y-58958D01*
X56964Y-58920D01*
X57034Y-58850D01*
X57072Y-58758D01*
X57072Y-58659D01*
X57072Y-59192D01*
X48572Y-59192D01*
X48572Y-58659D01*
X48572Y-57674D01*
X48534Y-57582D01*
X48464Y-57512D01*
X48372Y-57474D01*
X48273Y-57474D01*
X47289Y-57474D01*
X47197Y-57512D01*
X47126Y-57582D01*
X47088Y-57674D01*
X47088Y-57773D01*
X47088Y-58758D01*
X47126Y-58850D01*
X47196Y-58920D01*
X47288Y-58958D01*
X47388Y-58958D01*
X48372Y-58958D01*
X48464Y-58920D01*
X48534Y-58850D01*
X48572Y-58758D01*
X48572Y-58659D01*
X48572Y-59192D01*
X47319Y-59192D01*
X46914Y-58787D01*
X46809Y-58717D01*
X46685Y-58692D01*
X45817Y-58692D01*
X45891Y-58662D01*
X45961Y-58591D01*
X45999Y-58499D01*
X46000Y-58400D01*
X46000Y-57800D01*
X45962Y-57708D01*
X45891Y-57638D01*
X45799Y-57600D01*
X45777Y-57600D01*
X45915Y-57461D01*
X45999Y-57259D01*
X46000Y-57041D01*
X45916Y-56838D01*
X45761Y-56684D01*
X45680Y-56650D01*
X45761Y-56616D01*
X45892Y-56485D01*
X48761Y-56485D01*
X50729Y-58453D01*
X50729Y-58453D01*
X50838Y-58526D01*
X50838Y-58526D01*
X50966Y-58551D01*
X50966Y-58551D01*
X53957Y-58551D01*
X53992Y-58636D01*
X54201Y-58845D01*
X54473Y-58958D01*
X54769Y-58958D01*
X55041Y-58846D01*
X55250Y-58637D01*
X55364Y-58364D01*
X55364Y-58069D01*
X55251Y-57796D01*
X55042Y-57587D01*
X54770Y-57474D01*
X54475Y-57474D01*
X54202Y-57587D01*
X53993Y-57795D01*
X53957Y-57881D01*
X51105Y-57881D01*
X49136Y-55913D01*
X49028Y-55840D01*
X48900Y-55815D01*
X45892Y-55815D01*
X45761Y-55684D01*
X45559Y-55600D01*
X45341Y-55599D01*
X45138Y-55683D01*
X44999Y-55823D01*
X45010Y-55767D01*
X45010Y-55521D01*
X45021Y-55509D01*
X45059Y-55417D01*
X45060Y-55318D01*
X45060Y-54818D01*
X45022Y-54726D01*
X44951Y-54655D01*
X44859Y-54617D01*
X44760Y-54617D01*
X44510Y-54617D01*
X44435Y-54648D01*
X44359Y-54617D01*
X44297Y-54617D01*
X44235Y-54680D01*
X44235Y-55067D01*
X44242Y-55067D01*
X44242Y-55167D01*
X44235Y-55167D01*
X44235Y-55555D01*
X44297Y-55617D01*
X44359Y-55617D01*
X44360Y-55617D01*
X44360Y-55633D01*
X44050Y-55942D01*
X43685Y-55942D01*
X43560Y-55967D01*
X43518Y-55995D01*
X43455Y-56037D01*
X43455Y-56037D01*
X43150Y-56342D01*
X43100Y-56342D01*
X42944Y-56407D01*
X42824Y-56526D01*
X42760Y-56682D01*
X42759Y-56815D01*
X42400Y-56815D01*
X42271Y-56840D01*
X42163Y-56913D01*
X40848Y-58228D01*
X40775Y-58336D01*
X40769Y-58367D01*
X40735Y-58367D01*
X40643Y-58405D01*
X40573Y-58475D01*
X40535Y-58567D01*
X40534Y-58667D01*
X40534Y-59467D01*
X40572Y-59559D01*
X40581Y-59567D01*
X40485Y-59567D01*
X40435Y-59588D01*
X40384Y-59567D01*
X40288Y-59567D01*
X40296Y-59559D01*
X40334Y-59467D01*
X40335Y-59368D01*
X40335Y-58577D01*
X42319Y-56592D01*
X42435Y-56592D01*
X42559Y-56567D01*
X42559Y-56567D01*
X42664Y-56497D01*
X43414Y-55747D01*
X43414Y-55747D01*
X43414Y-55747D01*
X43485Y-55642D01*
X43485Y-55642D01*
X43491Y-55610D01*
X43510Y-55617D01*
X43609Y-55617D01*
X43859Y-55617D01*
X43935Y-55586D01*
X44010Y-55617D01*
X44072Y-55617D01*
X44135Y-55555D01*
X44135Y-55167D01*
X44127Y-55167D01*
X44127Y-55067D01*
X44135Y-55067D01*
X44135Y-54680D01*
X44072Y-54617D01*
X44010Y-54617D01*
X44010Y-54617D01*
X44010Y-54517D01*
X43985Y-54393D01*
X43985Y-54393D01*
X43914Y-54287D01*
X43914Y-54287D01*
X43664Y-54037D01*
X43559Y-53967D01*
X43435Y-53942D01*
X42711Y-53942D01*
X42676Y-53907D01*
X42519Y-53842D01*
X42350Y-53842D01*
X42194Y-53907D01*
X42074Y-54026D01*
X42010Y-54182D01*
X42009Y-54351D01*
X42074Y-54508D01*
X42193Y-54627D01*
X42350Y-54692D01*
X42519Y-54692D01*
X42675Y-54628D01*
X42711Y-54592D01*
X43300Y-54592D01*
X43325Y-54617D01*
X43260Y-54617D01*
X43010Y-54617D01*
X42918Y-54655D01*
X42848Y-54725D01*
X42810Y-54817D01*
X42809Y-54917D01*
X42809Y-55417D01*
X42814Y-55428D01*
X42300Y-55942D01*
X42185Y-55942D01*
X42185Y-55942D01*
X42160Y-55947D01*
X42060Y-55967D01*
X41955Y-56037D01*
X41955Y-56037D01*
X39625Y-58367D01*
X39435Y-58367D01*
X39343Y-58405D01*
X39273Y-58475D01*
X39235Y-58567D01*
X39234Y-58667D01*
X39234Y-59467D01*
X39272Y-59559D01*
X39343Y-59629D01*
X39361Y-59637D01*
X39323Y-59675D01*
X39285Y-59767D01*
X39284Y-59867D01*
X39284Y-60467D01*
X39322Y-60559D01*
X39393Y-60629D01*
X39485Y-60667D01*
X39584Y-60667D01*
X40384Y-60667D01*
X40435Y-60646D01*
X40485Y-60667D01*
X40584Y-60667D01*
X41384Y-60667D01*
X41476Y-60629D01*
X41546Y-60559D01*
X41584Y-60467D01*
X41585Y-60368D01*
X41585Y-59768D01*
X41547Y-59676D01*
X41508Y-59637D01*
X41526Y-59629D01*
X41596Y-59559D01*
X41634Y-59467D01*
X41635Y-59368D01*
X41635Y-58568D01*
X41597Y-58476D01*
X41572Y-58451D01*
X42538Y-57485D01*
X45007Y-57485D01*
X45122Y-57599D01*
X45100Y-57599D01*
X45008Y-57637D01*
X44938Y-57708D01*
X44900Y-57800D01*
X44899Y-57899D01*
X44899Y-58499D01*
X44937Y-58591D01*
X45008Y-58661D01*
X45082Y-58692D01*
X44635Y-58692D01*
X44635Y-58568D01*
X44597Y-58476D01*
X44526Y-58405D01*
X44434Y-58367D01*
X44335Y-58367D01*
X43735Y-58367D01*
X43643Y-58405D01*
X43573Y-58475D01*
X43535Y-58567D01*
X43534Y-58667D01*
X43534Y-59467D01*
X43572Y-59559D01*
X43581Y-59567D01*
X43485Y-59567D01*
X43435Y-59588D01*
X43384Y-59567D01*
X43288Y-59567D01*
X43296Y-59559D01*
X43334Y-59467D01*
X43335Y-59368D01*
X43335Y-58568D01*
X43297Y-58476D01*
X43263Y-58442D01*
X43269Y-58442D01*
X43425Y-58378D01*
X43545Y-58258D01*
X43609Y-58102D01*
X43610Y-57933D01*
X43545Y-57777D01*
X43426Y-57657D01*
X43269Y-57592D01*
X43100Y-57592D01*
X42944Y-57657D01*
X42824Y-57776D01*
X42760Y-57932D01*
X42760Y-57983D01*
X42555Y-58187D01*
X42484Y-58293D01*
X42469Y-58367D01*
X42435Y-58367D01*
X42343Y-58405D01*
X42273Y-58475D01*
X42235Y-58567D01*
X42234Y-58667D01*
X42234Y-59467D01*
X42272Y-59559D01*
X42343Y-59629D01*
X42361Y-59637D01*
X42323Y-59675D01*
X42285Y-59767D01*
X42284Y-59867D01*
X42284Y-60467D01*
X42322Y-60559D01*
X42393Y-60629D01*
X42485Y-60667D01*
X42584Y-60667D01*
X43384Y-60667D01*
X43435Y-60646D01*
X43485Y-60667D01*
X43584Y-60667D01*
X44384Y-60667D01*
X44476Y-60629D01*
X44546Y-60559D01*
X44584Y-60467D01*
X44585Y-60368D01*
X44585Y-59768D01*
X44547Y-59676D01*
X44508Y-59637D01*
X44526Y-59629D01*
X44596Y-59559D01*
X44634Y-59467D01*
X44635Y-59368D01*
X44635Y-59342D01*
X45256Y-59342D01*
X45189Y-59408D01*
X45125Y-59565D01*
X45124Y-59734D01*
X45189Y-59890D01*
X45265Y-59966D01*
X45265Y-60500D01*
X45290Y-60628D01*
X45363Y-60736D01*
X46613Y-61986D01*
X46721Y-62059D01*
X46721Y-62059D01*
X46850Y-62085D01*
X61950Y-62085D01*
X62078Y-62059D01*
X62078Y-62059D01*
X62187Y-61986D01*
X62889Y-61285D01*
X62973Y-61320D01*
X63269Y-61320D01*
X63541Y-61208D01*
X63750Y-60999D01*
X63864Y-60727D01*
X63864Y-60431D01*
X63864Y-62793D01*
X63751Y-62521D01*
X63542Y-62312D01*
X63270Y-62198D01*
X62975Y-62198D01*
X62702Y-62311D01*
X62493Y-62520D01*
X62380Y-62792D01*
X62379Y-63087D01*
X62492Y-63360D01*
X62599Y-63467D01*
X57072Y-63467D01*
X57072Y-63383D01*
X57072Y-62399D01*
X57034Y-62307D01*
X56964Y-62237D01*
X56872Y-62198D01*
X56773Y-62198D01*
X55789Y-62198D01*
X55697Y-62236D01*
X55626Y-62307D01*
X55588Y-62398D01*
X55588Y-62498D01*
X55588Y-63467D01*
X55144Y-63467D01*
X55250Y-63361D01*
X55364Y-63089D01*
X55364Y-62793D01*
X55251Y-62521D01*
X55042Y-62312D01*
X54770Y-62198D01*
X54475Y-62198D01*
X54202Y-62311D01*
X53993Y-62520D01*
X53880Y-62792D01*
X53879Y-63087D01*
X53992Y-63360D01*
X54099Y-63467D01*
X48572Y-63467D01*
X48572Y-63383D01*
X48572Y-62399D01*
X48534Y-62307D01*
X48464Y-62237D01*
X48372Y-62198D01*
X48273Y-62198D01*
X47289Y-62198D01*
X47197Y-62236D01*
X47126Y-62307D01*
X47088Y-62398D01*
X47088Y-62498D01*
X47088Y-63467D01*
X45360Y-63467D01*
X45360Y-61433D01*
X45295Y-61277D01*
X45176Y-61157D01*
X45019Y-61092D01*
X44850Y-61092D01*
X44845Y-61094D01*
X44835Y-61092D01*
X44585Y-61092D01*
X44585Y-61068D01*
X44547Y-60976D01*
X44476Y-60905D01*
X44384Y-60867D01*
X44285Y-60867D01*
X43485Y-60867D01*
X43435Y-60888D01*
X43384Y-60867D01*
X43285Y-60867D01*
X42485Y-60867D01*
X42393Y-60905D01*
X42323Y-60975D01*
X42285Y-61067D01*
X42285Y-61092D01*
X41585Y-61092D01*
X41585Y-61068D01*
X41547Y-60976D01*
X41476Y-60905D01*
X41384Y-60867D01*
X41285Y-60867D01*
X40485Y-60867D01*
X40435Y-60888D01*
X40384Y-60867D01*
X40285Y-60867D01*
X39485Y-60867D01*
X39393Y-60905D01*
X39323Y-60975D01*
X39285Y-61067D01*
X39285Y-61092D01*
X39035Y-61092D01*
X39024Y-61094D01*
X39019Y-61092D01*
X38850Y-61092D01*
X38694Y-61157D01*
X38574Y-61276D01*
X38510Y-61432D01*
X38509Y-61601D01*
X38574Y-61758D01*
X38693Y-61877D01*
X38850Y-61942D01*
X39019Y-61942D01*
X39175Y-61878D01*
X39285Y-61768D01*
X39322Y-61859D01*
X39393Y-61929D01*
X39485Y-61967D01*
X39584Y-61967D01*
X40384Y-61967D01*
X40435Y-61946D01*
X40485Y-61967D01*
X40584Y-61967D01*
X41384Y-61967D01*
X41476Y-61929D01*
X41546Y-61859D01*
X41584Y-61767D01*
X41585Y-61742D01*
X42284Y-61742D01*
X42284Y-61767D01*
X42322Y-61859D01*
X42393Y-61929D01*
X42485Y-61967D01*
X42584Y-61967D01*
X43384Y-61967D01*
X43435Y-61946D01*
X43485Y-61967D01*
X43584Y-61967D01*
X44384Y-61967D01*
X44476Y-61929D01*
X44546Y-61859D01*
X44584Y-61768D01*
X44693Y-61877D01*
X44850Y-61942D01*
X45019Y-61942D01*
X45175Y-61878D01*
X45295Y-61758D01*
X45359Y-61602D01*
X45360Y-61433D01*
X45360Y-63467D01*
X41502Y-63467D01*
X41502Y-62127D01*
X33067Y-62127D01*
X33067Y-63329D01*
X25985Y-56247D01*
X25985Y-50317D01*
X26281Y-50317D01*
X26343Y-50379D01*
X26435Y-50417D01*
X26534Y-50417D01*
X27134Y-50417D01*
X27226Y-50379D01*
X27288Y-50317D01*
X27581Y-50317D01*
X27643Y-50379D01*
X27735Y-50417D01*
X27834Y-50417D01*
X28434Y-50417D01*
X28526Y-50379D01*
X28588Y-50317D01*
X30275Y-50317D01*
X30610Y-50652D01*
X30610Y-50767D01*
X30634Y-50892D01*
X30705Y-50997D01*
X30925Y-51217D01*
X30925Y-51217D01*
X31030Y-51287D01*
X31030Y-51287D01*
X31155Y-51312D01*
X42509Y-51312D01*
X42509Y-51351D01*
X42574Y-51508D01*
X42693Y-51627D01*
X42850Y-51692D01*
X43019Y-51692D01*
X43175Y-51628D01*
X43295Y-51508D01*
X43359Y-51352D01*
X43360Y-51183D01*
X43350Y-51159D01*
X43425Y-51128D01*
X43545Y-51008D01*
X43595Y-50887D01*
X43705Y-50997D01*
X43705Y-50997D01*
X43810Y-51067D01*
X43810Y-51067D01*
X43910Y-51087D01*
X43935Y-51092D01*
X43935Y-51092D01*
X43935Y-51092D01*
X48550Y-51092D01*
X49675Y-52217D01*
X49594Y-52217D01*
X48724Y-51347D01*
X48619Y-51277D01*
X48495Y-51252D01*
X43875Y-51252D01*
X43750Y-51277D01*
X43708Y-51305D01*
X43645Y-51347D01*
X43645Y-51347D01*
X42955Y-52037D01*
X42884Y-52143D01*
X42860Y-52267D01*
X42860Y-52514D01*
X42848Y-52525D01*
X42810Y-52617D01*
X42809Y-52717D01*
X42809Y-53217D01*
X42847Y-53309D01*
X42918Y-53379D01*
X43010Y-53417D01*
X43109Y-53417D01*
X43359Y-53417D01*
X43435Y-53386D01*
X43510Y-53417D01*
X43609Y-53417D01*
X43859Y-53417D01*
X43935Y-53386D01*
X44010Y-53417D01*
X44109Y-53417D01*
X44359Y-53417D01*
X44435Y-53386D01*
X44510Y-53417D01*
X44609Y-53417D01*
X44859Y-53417D01*
X44951Y-53379D01*
X45021Y-53309D01*
X45049Y-53242D01*
X46274Y-53242D01*
X46243Y-53255D01*
X46173Y-53325D01*
X46135Y-53417D01*
X46134Y-53517D01*
X46134Y-54117D01*
X46172Y-54209D01*
X46243Y-54279D01*
X46335Y-54317D01*
X46357Y-54317D01*
X46219Y-54455D01*
X46135Y-54657D01*
X46134Y-54876D01*
X46218Y-55078D01*
X46373Y-55233D01*
X46575Y-55317D01*
X46793Y-55317D01*
X46996Y-55234D01*
X47151Y-55079D01*
X47185Y-54997D01*
X47218Y-55078D01*
X47373Y-55233D01*
X47575Y-55317D01*
X47793Y-55317D01*
X47996Y-55234D01*
X48151Y-55079D01*
X48185Y-54997D01*
X48218Y-55078D01*
X48373Y-55233D01*
X48575Y-55317D01*
X48793Y-55317D01*
X48996Y-55234D01*
X49151Y-55079D01*
X49185Y-54997D01*
X49218Y-55078D01*
X49373Y-55233D01*
X49575Y-55317D01*
X49793Y-55317D01*
X49996Y-55234D01*
X50151Y-55079D01*
X50234Y-54877D01*
X50235Y-54658D01*
X50151Y-54456D01*
X49996Y-54301D01*
X49915Y-54267D01*
X49996Y-54234D01*
X50151Y-54079D01*
X50185Y-53997D01*
X50218Y-54078D01*
X50373Y-54233D01*
X50575Y-54317D01*
X50793Y-54317D01*
X50996Y-54234D01*
X51151Y-54079D01*
X51185Y-53997D01*
X51218Y-54078D01*
X51373Y-54233D01*
X51575Y-54317D01*
X51793Y-54317D01*
X51996Y-54234D01*
X52151Y-54079D01*
X52185Y-53997D01*
X52218Y-54078D01*
X52373Y-54233D01*
X52575Y-54317D01*
X52793Y-54317D01*
X52996Y-54234D01*
X53151Y-54079D01*
X53185Y-53997D01*
X53218Y-54078D01*
X53373Y-54233D01*
X53575Y-54317D01*
X53793Y-54317D01*
X53996Y-54234D01*
X54151Y-54079D01*
X54185Y-53997D01*
X54218Y-54078D01*
X54373Y-54233D01*
X54454Y-54267D01*
X54373Y-54301D01*
X54219Y-54455D01*
X54135Y-54657D01*
X54134Y-54876D01*
X54218Y-55078D01*
X54373Y-55233D01*
X54575Y-55317D01*
X54793Y-55317D01*
X54996Y-55234D01*
X55151Y-55079D01*
X55185Y-54997D01*
X55218Y-55078D01*
X55373Y-55233D01*
X55575Y-55317D01*
X55793Y-55317D01*
X55996Y-55234D01*
X56151Y-55079D01*
X56185Y-54997D01*
X56218Y-55078D01*
X56373Y-55233D01*
X56575Y-55317D01*
X56793Y-55317D01*
X56996Y-55234D01*
X57151Y-55079D01*
X57185Y-54997D01*
X57218Y-55078D01*
X57373Y-55233D01*
X57575Y-55317D01*
X57793Y-55317D01*
X57996Y-55234D01*
X58151Y-55079D01*
X58234Y-54877D01*
X58235Y-54658D01*
X58151Y-54456D01*
X57996Y-54301D01*
X57915Y-54267D01*
X57996Y-54234D01*
X58151Y-54079D01*
X58185Y-53997D01*
X58218Y-54078D01*
X58373Y-54233D01*
X58575Y-54317D01*
X58793Y-54317D01*
X58996Y-54234D01*
X59151Y-54079D01*
X59185Y-53997D01*
X59218Y-54078D01*
X59373Y-54233D01*
X59575Y-54317D01*
X59793Y-54317D01*
X59996Y-54234D01*
X60151Y-54079D01*
X60185Y-53997D01*
X60218Y-54078D01*
X60373Y-54233D01*
X60575Y-54317D01*
X60793Y-54317D01*
X60996Y-54234D01*
X61151Y-54079D01*
X61185Y-53997D01*
X61218Y-54078D01*
X61373Y-54233D01*
X61575Y-54317D01*
X61793Y-54317D01*
X61996Y-54234D01*
X62151Y-54079D01*
X62234Y-53877D01*
X62235Y-53658D01*
X62151Y-53456D01*
X62013Y-53317D01*
X62034Y-53317D01*
X62126Y-53279D01*
X62196Y-53209D01*
X62234Y-53117D01*
X62235Y-53018D01*
X62235Y-52418D01*
X62197Y-52326D01*
X62126Y-52255D01*
X62034Y-52217D01*
X62012Y-52217D01*
X62151Y-52079D01*
X62234Y-51877D01*
X62235Y-51658D01*
X62151Y-51456D01*
X61996Y-51301D01*
X61794Y-51217D01*
X61576Y-51217D01*
X61373Y-51301D01*
X61219Y-51455D01*
X61185Y-51537D01*
X61151Y-51456D01*
X60996Y-51301D01*
X60794Y-51217D01*
X60576Y-51217D01*
X60373Y-51301D01*
X60219Y-51455D01*
X60185Y-51537D01*
X60151Y-51456D01*
X59996Y-51301D01*
X59794Y-51217D01*
X59576Y-51217D01*
X59373Y-51301D01*
X59219Y-51455D01*
X59187Y-51531D01*
X59166Y-51479D01*
X59070Y-51452D01*
X58755Y-51767D01*
X59070Y-52082D01*
X59166Y-52055D01*
X59186Y-52000D01*
X59218Y-52078D01*
X59373Y-52233D01*
X59454Y-52267D01*
X59373Y-52301D01*
X59219Y-52455D01*
X59185Y-52537D01*
X59151Y-52456D01*
X58996Y-52301D01*
X58921Y-52270D01*
X58972Y-52248D01*
X59000Y-52153D01*
X58685Y-51838D01*
X58679Y-51843D01*
X58608Y-51773D01*
X58614Y-51767D01*
X58608Y-51762D01*
X58679Y-51691D01*
X58685Y-51697D01*
X59000Y-51381D01*
X58972Y-51286D01*
X58766Y-51212D01*
X58548Y-51223D01*
X58397Y-51286D01*
X58395Y-51293D01*
X58395Y-50317D01*
X64135Y-50317D01*
X64135Y-63467D01*
X64135Y-63467D01*
G37*
G54D30*
X64135Y-63467D02*
X63644Y-63467D01*
X63750Y-63361D01*
X63864Y-63089D01*
X63864Y-62793D01*
X63864Y-60431D01*
X63751Y-60158D01*
X63542Y-59949D01*
X63270Y-59836D01*
X62975Y-59836D01*
X62702Y-59949D01*
X62493Y-60157D01*
X62380Y-60430D01*
X62379Y-60725D01*
X62415Y-60811D01*
X61812Y-61415D01*
X46988Y-61415D01*
X45935Y-60361D01*
X45935Y-59831D01*
X45974Y-59734D01*
X45975Y-59565D01*
X45910Y-59409D01*
X45843Y-59342D01*
X46550Y-59342D01*
X46955Y-59747D01*
X46955Y-59747D01*
X47018Y-59789D01*
X47060Y-59817D01*
X47060Y-59817D01*
X47185Y-59842D01*
X47274Y-59842D01*
X47197Y-59874D01*
X47126Y-59944D01*
X47088Y-60036D01*
X47088Y-60136D01*
X47088Y-61120D01*
X47126Y-61212D01*
X47196Y-61282D01*
X47288Y-61320D01*
X47388Y-61320D01*
X48372Y-61320D01*
X48464Y-61282D01*
X48534Y-61212D01*
X48572Y-61120D01*
X48572Y-61021D01*
X48572Y-60037D01*
X48534Y-59945D01*
X48464Y-59874D01*
X48387Y-59842D01*
X54459Y-59842D01*
X54202Y-59949D01*
X53993Y-60157D01*
X53880Y-60430D01*
X53879Y-60725D01*
X53992Y-60998D01*
X54201Y-61207D01*
X54473Y-61320D01*
X54769Y-61320D01*
X55041Y-61208D01*
X55250Y-60999D01*
X55364Y-60727D01*
X55364Y-60431D01*
X55251Y-60158D01*
X55042Y-59949D01*
X54784Y-59842D01*
X55774Y-59842D01*
X55697Y-59874D01*
X55626Y-59944D01*
X55588Y-60036D01*
X55588Y-60136D01*
X55588Y-61120D01*
X55626Y-61212D01*
X55696Y-61282D01*
X55788Y-61320D01*
X55888Y-61320D01*
X56872Y-61320D01*
X56964Y-61282D01*
X57034Y-61212D01*
X57072Y-61120D01*
X57072Y-61021D01*
X57072Y-60037D01*
X57034Y-59945D01*
X56964Y-59874D01*
X56887Y-59842D01*
X61820Y-59842D01*
X61945Y-59817D01*
X61945Y-59817D01*
X62050Y-59747D01*
X62879Y-58919D01*
X62973Y-58958D01*
X63269Y-58958D01*
X63541Y-58846D01*
X63750Y-58637D01*
X63864Y-58364D01*
X63864Y-58069D01*
X63751Y-57796D01*
X63542Y-57587D01*
X63270Y-57474D01*
X62975Y-57474D01*
X62702Y-57587D01*
X62493Y-57795D01*
X62380Y-58068D01*
X62379Y-58363D01*
X62419Y-58459D01*
X61686Y-59192D01*
X57072Y-59192D01*
X57072Y-58659D01*
X57072Y-57674D01*
X57034Y-57582D01*
X56964Y-57512D01*
X56872Y-57474D01*
X56773Y-57474D01*
X55789Y-57474D01*
X55697Y-57512D01*
X55626Y-57582D01*
X55588Y-57674D01*
X55588Y-57773D01*
X55588Y-58758D01*
X55626Y-58850D01*
X55696Y-58920D01*
X55788Y-58958D01*
X55888Y-58958D01*
X56872Y-58958D01*
X56964Y-58920D01*
X57034Y-58850D01*
X57072Y-58758D01*
X57072Y-58659D01*
X57072Y-59192D01*
X48572Y-59192D01*
X48572Y-58659D01*
X48572Y-57674D01*
X48534Y-57582D01*
X48464Y-57512D01*
X48372Y-57474D01*
X48273Y-57474D01*
X47289Y-57474D01*
X47197Y-57512D01*
X47126Y-57582D01*
X47088Y-57674D01*
X47088Y-57773D01*
X47088Y-58758D01*
X47126Y-58850D01*
X47196Y-58920D01*
X47288Y-58958D01*
X47388Y-58958D01*
X48372Y-58958D01*
X48464Y-58920D01*
X48534Y-58850D01*
X48572Y-58758D01*
X48572Y-58659D01*
X48572Y-59192D01*
X47319Y-59192D01*
X46914Y-58787D01*
X46809Y-58717D01*
X46685Y-58692D01*
X45817Y-58692D01*
X45891Y-58662D01*
X45961Y-58591D01*
X45999Y-58499D01*
X46000Y-58400D01*
X46000Y-57800D01*
X45962Y-57708D01*
X45891Y-57638D01*
X45799Y-57600D01*
X45777Y-57600D01*
X45915Y-57461D01*
X45999Y-57259D01*
X46000Y-57041D01*
X45916Y-56838D01*
X45761Y-56684D01*
X45680Y-56650D01*
X45761Y-56616D01*
X45892Y-56485D01*
X48761Y-56485D01*
X50729Y-58453D01*
X50729Y-58453D01*
X50838Y-58526D01*
X50838Y-58526D01*
X50966Y-58551D01*
X50966Y-58551D01*
X53957Y-58551D01*
X53992Y-58636D01*
X54201Y-58845D01*
X54473Y-58958D01*
X54769Y-58958D01*
X55041Y-58846D01*
X55250Y-58637D01*
X55364Y-58364D01*
X55364Y-58069D01*
X55251Y-57796D01*
X55042Y-57587D01*
X54770Y-57474D01*
X54475Y-57474D01*
X54202Y-57587D01*
X53993Y-57795D01*
X53957Y-57881D01*
X51105Y-57881D01*
X49136Y-55913D01*
X49028Y-55840D01*
X48900Y-55815D01*
X45892Y-55815D01*
X45761Y-55684D01*
X45559Y-55600D01*
X45341Y-55599D01*
X45138Y-55683D01*
X44999Y-55823D01*
X45010Y-55767D01*
X45010Y-55521D01*
X45021Y-55509D01*
X45059Y-55417D01*
X45060Y-55318D01*
X45060Y-54818D01*
X45022Y-54726D01*
X44951Y-54655D01*
X44859Y-54617D01*
X44760Y-54617D01*
X44510Y-54617D01*
X44435Y-54648D01*
X44359Y-54617D01*
X44297Y-54617D01*
X44235Y-54680D01*
X44235Y-55067D01*
X44242Y-55067D01*
X44242Y-55167D01*
X44235Y-55167D01*
X44235Y-55555D01*
X44297Y-55617D01*
X44359Y-55617D01*
X44360Y-55617D01*
X44360Y-55633D01*
X44050Y-55942D01*
X43685Y-55942D01*
X43560Y-55967D01*
X43518Y-55995D01*
X43455Y-56037D01*
X43455Y-56037D01*
X43150Y-56342D01*
X43100Y-56342D01*
X42944Y-56407D01*
X42824Y-56526D01*
X42760Y-56682D01*
X42759Y-56815D01*
X42400Y-56815D01*
X42271Y-56840D01*
X42163Y-56913D01*
X40848Y-58228D01*
X40775Y-58336D01*
X40769Y-58367D01*
X40735Y-58367D01*
X40643Y-58405D01*
X40573Y-58475D01*
X40535Y-58567D01*
X40534Y-58667D01*
X40534Y-59467D01*
X40572Y-59559D01*
X40581Y-59567D01*
X40485Y-59567D01*
X40435Y-59588D01*
X40384Y-59567D01*
X40288Y-59567D01*
X40296Y-59559D01*
X40334Y-59467D01*
X40335Y-59368D01*
X40335Y-58577D01*
X42319Y-56592D01*
X42435Y-56592D01*
X42559Y-56567D01*
X42559Y-56567D01*
X42664Y-56497D01*
X43414Y-55747D01*
X43414Y-55747D01*
X43414Y-55747D01*
X43485Y-55642D01*
X43485Y-55642D01*
X43491Y-55610D01*
X43510Y-55617D01*
X43609Y-55617D01*
X43859Y-55617D01*
X43935Y-55586D01*
X44010Y-55617D01*
X44072Y-55617D01*
X44135Y-55555D01*
X44135Y-55167D01*
X44127Y-55167D01*
X44127Y-55067D01*
X44135Y-55067D01*
X44135Y-54680D01*
X44072Y-54617D01*
X44010Y-54617D01*
X44010Y-54617D01*
X44010Y-54517D01*
X43985Y-54393D01*
X43985Y-54393D01*
X43914Y-54287D01*
X43914Y-54287D01*
X43664Y-54037D01*
X43559Y-53967D01*
X43435Y-53942D01*
X42711Y-53942D01*
X42676Y-53907D01*
X42519Y-53842D01*
X42350Y-53842D01*
X42194Y-53907D01*
X42074Y-54026D01*
X42010Y-54182D01*
X42009Y-54351D01*
X42074Y-54508D01*
X42193Y-54627D01*
X42350Y-54692D01*
X42519Y-54692D01*
X42675Y-54628D01*
X42711Y-54592D01*
X43300Y-54592D01*
X43325Y-54617D01*
X43260Y-54617D01*
X43010Y-54617D01*
X42918Y-54655D01*
X42848Y-54725D01*
X42810Y-54817D01*
X42809Y-54917D01*
X42809Y-55417D01*
X42814Y-55428D01*
X42300Y-55942D01*
X42185Y-55942D01*
X42185Y-55942D01*
X42160Y-55947D01*
X42060Y-55967D01*
X41955Y-56037D01*
X41955Y-56037D01*
X39625Y-58367D01*
X39435Y-58367D01*
X39343Y-58405D01*
X39273Y-58475D01*
X39235Y-58567D01*
X39234Y-58667D01*
X39234Y-59467D01*
X39272Y-59559D01*
X39343Y-59629D01*
X39361Y-59637D01*
X39323Y-59675D01*
X39285Y-59767D01*
X39284Y-59867D01*
X39284Y-60467D01*
X39322Y-60559D01*
X39393Y-60629D01*
X39485Y-60667D01*
X39584Y-60667D01*
X40384Y-60667D01*
X40435Y-60646D01*
X40485Y-60667D01*
X40584Y-60667D01*
X41384Y-60667D01*
X41476Y-60629D01*
X41546Y-60559D01*
X41584Y-60467D01*
X41585Y-60368D01*
X41585Y-59768D01*
X41547Y-59676D01*
X41508Y-59637D01*
X41526Y-59629D01*
X41596Y-59559D01*
X41634Y-59467D01*
X41635Y-59368D01*
X41635Y-58568D01*
X41597Y-58476D01*
X41572Y-58451D01*
X42538Y-57485D01*
X45007Y-57485D01*
X45122Y-57599D01*
X45100Y-57599D01*
X45008Y-57637D01*
X44938Y-57708D01*
X44900Y-57800D01*
X44899Y-57899D01*
X44899Y-58499D01*
X44937Y-58591D01*
X45008Y-58661D01*
X45082Y-58692D01*
X44635Y-58692D01*
X44635Y-58568D01*
X44597Y-58476D01*
X44526Y-58405D01*
X44434Y-58367D01*
X44335Y-58367D01*
X43735Y-58367D01*
X43643Y-58405D01*
X43573Y-58475D01*
X43535Y-58567D01*
X43534Y-58667D01*
X43534Y-59467D01*
X43572Y-59559D01*
X43581Y-59567D01*
X43485Y-59567D01*
X43435Y-59588D01*
X43384Y-59567D01*
X43288Y-59567D01*
X43296Y-59559D01*
X43334Y-59467D01*
X43335Y-59368D01*
X43335Y-58568D01*
X43297Y-58476D01*
X43263Y-58442D01*
X43269Y-58442D01*
X43425Y-58378D01*
X43545Y-58258D01*
X43609Y-58102D01*
X43610Y-57933D01*
X43545Y-57777D01*
X43426Y-57657D01*
X43269Y-57592D01*
X43100Y-57592D01*
X42944Y-57657D01*
X42824Y-57776D01*
X42760Y-57932D01*
X42760Y-57983D01*
X42555Y-58187D01*
X42484Y-58293D01*
X42469Y-58367D01*
X42435Y-58367D01*
X42343Y-58405D01*
X42273Y-58475D01*
X42235Y-58567D01*
X42234Y-58667D01*
X42234Y-59467D01*
X42272Y-59559D01*
X42343Y-59629D01*
X42361Y-59637D01*
X42323Y-59675D01*
X42285Y-59767D01*
X42284Y-59867D01*
X42284Y-60467D01*
X42322Y-60559D01*
X42393Y-60629D01*
X42485Y-60667D01*
X42584Y-60667D01*
X43384Y-60667D01*
X43435Y-60646D01*
X43485Y-60667D01*
X43584Y-60667D01*
X44384Y-60667D01*
X44476Y-60629D01*
X44546Y-60559D01*
X44584Y-60467D01*
X44585Y-60368D01*
X44585Y-59768D01*
X44547Y-59676D01*
X44508Y-59637D01*
X44526Y-59629D01*
X44596Y-59559D01*
X44634Y-59467D01*
X44635Y-59368D01*
X44635Y-59342D01*
X45256Y-59342D01*
X45189Y-59408D01*
X45125Y-59565D01*
X45124Y-59734D01*
X45189Y-59890D01*
X45265Y-59966D01*
X45265Y-60500D01*
X45290Y-60628D01*
X45363Y-60736D01*
X46613Y-61986D01*
X46721Y-62059D01*
X46721Y-62059D01*
X46850Y-62085D01*
X61950Y-62085D01*
X62078Y-62059D01*
X62078Y-62059D01*
X62187Y-61986D01*
X62889Y-61285D01*
X62973Y-61320D01*
X63269Y-61320D01*
X63541Y-61208D01*
X63750Y-60999D01*
X63864Y-60727D01*
X63864Y-60431D01*
X63864Y-62793D01*
X63751Y-62521D01*
X63542Y-62312D01*
X63270Y-62198D01*
X62975Y-62198D01*
X62702Y-62311D01*
X62493Y-62520D01*
X62380Y-62792D01*
X62379Y-63087D01*
X62492Y-63360D01*
X62599Y-63467D01*
X57072Y-63467D01*
X57072Y-63383D01*
X57072Y-62399D01*
X57034Y-62307D01*
X56964Y-62237D01*
X56872Y-62198D01*
X56773Y-62198D01*
X55789Y-62198D01*
X55697Y-62236D01*
X55626Y-62307D01*
X55588Y-62398D01*
X55588Y-62498D01*
X55588Y-63467D01*
X55144Y-63467D01*
X55250Y-63361D01*
X55364Y-63089D01*
X55364Y-62793D01*
X55251Y-62521D01*
X55042Y-62312D01*
X54770Y-62198D01*
X54475Y-62198D01*
X54202Y-62311D01*
X53993Y-62520D01*
X53880Y-62792D01*
X53879Y-63087D01*
X53992Y-63360D01*
X54099Y-63467D01*
X48572Y-63467D01*
X48572Y-63383D01*
X48572Y-62399D01*
X48534Y-62307D01*
X48464Y-62237D01*
X48372Y-62198D01*
X48273Y-62198D01*
X47289Y-62198D01*
X47197Y-62236D01*
X47126Y-62307D01*
X47088Y-62398D01*
X47088Y-62498D01*
X47088Y-63467D01*
X45360Y-63467D01*
X45360Y-61433D01*
X45295Y-61277D01*
X45176Y-61157D01*
X45019Y-61092D01*
X44850Y-61092D01*
X44845Y-61094D01*
X44835Y-61092D01*
X44585Y-61092D01*
X44585Y-61068D01*
X44547Y-60976D01*
X44476Y-60905D01*
X44384Y-60867D01*
X44285Y-60867D01*
X43485Y-60867D01*
X43435Y-60888D01*
X43384Y-60867D01*
X43285Y-60867D01*
X42485Y-60867D01*
X42393Y-60905D01*
X42323Y-60975D01*
X42285Y-61067D01*
X42285Y-61092D01*
X41585Y-61092D01*
X41585Y-61068D01*
X41547Y-60976D01*
X41476Y-60905D01*
X41384Y-60867D01*
X41285Y-60867D01*
X40485Y-60867D01*
X40435Y-60888D01*
X40384Y-60867D01*
X40285Y-60867D01*
X39485Y-60867D01*
X39393Y-60905D01*
X39323Y-60975D01*
X39285Y-61067D01*
X39285Y-61092D01*
X39035Y-61092D01*
X39024Y-61094D01*
X39019Y-61092D01*
X38850Y-61092D01*
X38694Y-61157D01*
X38574Y-61276D01*
X38510Y-61432D01*
X38509Y-61601D01*
X38574Y-61758D01*
X38693Y-61877D01*
X38850Y-61942D01*
X39019Y-61942D01*
X39175Y-61878D01*
X39285Y-61768D01*
X39322Y-61859D01*
X39393Y-61929D01*
X39485Y-61967D01*
X39584Y-61967D01*
X40384Y-61967D01*
X40435Y-61946D01*
X40485Y-61967D01*
X40584Y-61967D01*
X41384Y-61967D01*
X41476Y-61929D01*
X41546Y-61859D01*
X41584Y-61767D01*
X41585Y-61742D01*
X42284Y-61742D01*
X42284Y-61767D01*
X42322Y-61859D01*
X42393Y-61929D01*
X42485Y-61967D01*
X42584Y-61967D01*
X43384Y-61967D01*
X43435Y-61946D01*
X43485Y-61967D01*
X43584Y-61967D01*
X44384Y-61967D01*
X44476Y-61929D01*
X44546Y-61859D01*
X44584Y-61768D01*
X44693Y-61877D01*
X44850Y-61942D01*
X45019Y-61942D01*
X45175Y-61878D01*
X45295Y-61758D01*
X45359Y-61602D01*
X45360Y-61433D01*
X45360Y-63467D01*
X41502Y-63467D01*
X41502Y-62127D01*
X33067Y-62127D01*
X33067Y-63329D01*
X25985Y-56247D01*
X25985Y-50317D01*
X26281Y-50317D01*
X26343Y-50379D01*
X26435Y-50417D01*
X26534Y-50417D01*
X27134Y-50417D01*
X27226Y-50379D01*
X27288Y-50317D01*
X27581Y-50317D01*
X27643Y-50379D01*
X27735Y-50417D01*
X27834Y-50417D01*
X28434Y-50417D01*
X28526Y-50379D01*
X28588Y-50317D01*
X30275Y-50317D01*
X30610Y-50652D01*
X30610Y-50767D01*
X30634Y-50892D01*
X30705Y-50997D01*
X30925Y-51217D01*
X30925Y-51217D01*
X31030Y-51287D01*
X31030Y-51287D01*
X31155Y-51312D01*
X42509Y-51312D01*
X42509Y-51351D01*
X42574Y-51508D01*
X42693Y-51627D01*
X42850Y-51692D01*
X43019Y-51692D01*
X43175Y-51628D01*
X43295Y-51508D01*
X43359Y-51352D01*
X43360Y-51183D01*
X43350Y-51159D01*
X43425Y-51128D01*
X43545Y-51008D01*
X43595Y-50887D01*
X43705Y-50997D01*
X43705Y-50997D01*
X43810Y-51067D01*
X43810Y-51067D01*
X43910Y-51087D01*
X43935Y-51092D01*
X43935Y-51092D01*
X43935Y-51092D01*
X48550Y-51092D01*
X49675Y-52217D01*
X49594Y-52217D01*
X48724Y-51347D01*
X48619Y-51277D01*
X48495Y-51252D01*
X43875Y-51252D01*
X43750Y-51277D01*
X43708Y-51305D01*
X43645Y-51347D01*
X43645Y-51347D01*
X42955Y-52037D01*
X42884Y-52143D01*
X42860Y-52267D01*
X42860Y-52514D01*
X42848Y-52525D01*
X42810Y-52617D01*
X42809Y-52717D01*
X42809Y-53217D01*
X42847Y-53309D01*
X42918Y-53379D01*
X43010Y-53417D01*
X43109Y-53417D01*
X43359Y-53417D01*
X43435Y-53386D01*
X43510Y-53417D01*
X43609Y-53417D01*
X43859Y-53417D01*
X43935Y-53386D01*
X44010Y-53417D01*
X44109Y-53417D01*
X44359Y-53417D01*
X44435Y-53386D01*
X44510Y-53417D01*
X44609Y-53417D01*
X44859Y-53417D01*
X44951Y-53379D01*
X45021Y-53309D01*
X45049Y-53242D01*
X46274Y-53242D01*
X46243Y-53255D01*
X46173Y-53325D01*
X46135Y-53417D01*
X46134Y-53517D01*
X46134Y-54117D01*
X46172Y-54209D01*
X46243Y-54279D01*
X46335Y-54317D01*
X46357Y-54317D01*
X46219Y-54455D01*
X46135Y-54657D01*
X46134Y-54876D01*
X46218Y-55078D01*
X46373Y-55233D01*
X46575Y-55317D01*
X46793Y-55317D01*
X46996Y-55234D01*
X47151Y-55079D01*
X47185Y-54997D01*
X47218Y-55078D01*
X47373Y-55233D01*
X47575Y-55317D01*
X47793Y-55317D01*
X47996Y-55234D01*
X48151Y-55079D01*
X48185Y-54997D01*
X48218Y-55078D01*
X48373Y-55233D01*
X48575Y-55317D01*
X48793Y-55317D01*
X48996Y-55234D01*
X49151Y-55079D01*
X49185Y-54997D01*
X49218Y-55078D01*
X49373Y-55233D01*
X49575Y-55317D01*
X49793Y-55317D01*
X49996Y-55234D01*
X50151Y-55079D01*
X50234Y-54877D01*
X50235Y-54658D01*
X50151Y-54456D01*
X49996Y-54301D01*
X49915Y-54267D01*
X49996Y-54234D01*
X50151Y-54079D01*
X50185Y-53997D01*
X50218Y-54078D01*
X50373Y-54233D01*
X50575Y-54317D01*
X50793Y-54317D01*
X50996Y-54234D01*
X51151Y-54079D01*
X51185Y-53997D01*
X51218Y-54078D01*
X51373Y-54233D01*
X51575Y-54317D01*
X51793Y-54317D01*
X51996Y-54234D01*
X52151Y-54079D01*
X52185Y-53997D01*
X52218Y-54078D01*
X52373Y-54233D01*
X52575Y-54317D01*
X52793Y-54317D01*
X52996Y-54234D01*
X53151Y-54079D01*
X53185Y-53997D01*
X53218Y-54078D01*
X53373Y-54233D01*
X53575Y-54317D01*
X53793Y-54317D01*
X53996Y-54234D01*
X54151Y-54079D01*
X54185Y-53997D01*
X54218Y-54078D01*
X54373Y-54233D01*
X54454Y-54267D01*
X54373Y-54301D01*
X54219Y-54455D01*
X54135Y-54657D01*
X54134Y-54876D01*
X54218Y-55078D01*
X54373Y-55233D01*
X54575Y-55317D01*
X54793Y-55317D01*
X54996Y-55234D01*
X55151Y-55079D01*
X55185Y-54997D01*
X55218Y-55078D01*
X55373Y-55233D01*
X55575Y-55317D01*
X55793Y-55317D01*
X55996Y-55234D01*
X56151Y-55079D01*
X56185Y-54997D01*
X56218Y-55078D01*
X56373Y-55233D01*
X56575Y-55317D01*
X56793Y-55317D01*
X56996Y-55234D01*
X57151Y-55079D01*
X57185Y-54997D01*
X57218Y-55078D01*
X57373Y-55233D01*
X57575Y-55317D01*
X57793Y-55317D01*
X57996Y-55234D01*
X58151Y-55079D01*
X58234Y-54877D01*
X58235Y-54658D01*
X58151Y-54456D01*
X57996Y-54301D01*
X57915Y-54267D01*
X57996Y-54234D01*
X58151Y-54079D01*
X58185Y-53997D01*
X58218Y-54078D01*
X58373Y-54233D01*
X58575Y-54317D01*
X58793Y-54317D01*
X58996Y-54234D01*
X59151Y-54079D01*
X59185Y-53997D01*
X59218Y-54078D01*
X59373Y-54233D01*
X59575Y-54317D01*
X59793Y-54317D01*
X59996Y-54234D01*
X60151Y-54079D01*
X60185Y-53997D01*
X60218Y-54078D01*
X60373Y-54233D01*
X60575Y-54317D01*
X60793Y-54317D01*
X60996Y-54234D01*
X61151Y-54079D01*
X61185Y-53997D01*
X61218Y-54078D01*
X61373Y-54233D01*
X61575Y-54317D01*
X61793Y-54317D01*
X61996Y-54234D01*
X62151Y-54079D01*
X62234Y-53877D01*
X62235Y-53658D01*
X62151Y-53456D01*
X62013Y-53317D01*
X62034Y-53317D01*
X62126Y-53279D01*
X62196Y-53209D01*
X62234Y-53117D01*
X62235Y-53018D01*
X62235Y-52418D01*
X62197Y-52326D01*
X62126Y-52255D01*
X62034Y-52217D01*
X62012Y-52217D01*
X62151Y-52079D01*
X62234Y-51877D01*
X62235Y-51658D01*
X62151Y-51456D01*
X61996Y-51301D01*
X61794Y-51217D01*
X61576Y-51217D01*
X61373Y-51301D01*
X61219Y-51455D01*
X61185Y-51537D01*
X61151Y-51456D01*
X60996Y-51301D01*
X60794Y-51217D01*
X60576Y-51217D01*
X60373Y-51301D01*
X60219Y-51455D01*
X60185Y-51537D01*
X60151Y-51456D01*
X59996Y-51301D01*
X59794Y-51217D01*
X59576Y-51217D01*
X59373Y-51301D01*
X59219Y-51455D01*
X59187Y-51531D01*
X59166Y-51479D01*
X59070Y-51452D01*
X58755Y-51767D01*
X59070Y-52082D01*
X59166Y-52055D01*
X59186Y-52000D01*
X59218Y-52078D01*
X59373Y-52233D01*
X59454Y-52267D01*
X59373Y-52301D01*
X59219Y-52455D01*
X59185Y-52537D01*
X59151Y-52456D01*
X58996Y-52301D01*
X58921Y-52270D01*
X58972Y-52248D01*
X59000Y-52153D01*
X58685Y-51838D01*
X58679Y-51843D01*
X58608Y-51773D01*
X58614Y-51767D01*
X58608Y-51762D01*
X58679Y-51691D01*
X58685Y-51697D01*
X59000Y-51381D01*
X58972Y-51286D01*
X58766Y-51212D01*
X58548Y-51223D01*
X58397Y-51286D01*
X58395Y-51293D01*
X58395Y-50317D01*
X64135Y-50317D01*
X64135Y-63467D01*
M02*
