G04 (created by PCBNEW (2013-07-07 BZR 4022)-stable) date 03/07/2014 16:21:05*
%MOIN*%
G04 Gerber Fmt 3.4, Leading zero omitted, Abs format*
%FSLAX34Y34*%
G01*
G70*
G90*
G04 APERTURE LIST*
%ADD10C,0.00590551*%
%ADD11R,0.06X0.06*%
%ADD12C,0.06*%
%ADD13R,0.0984252X0.0984252*%
%ADD14C,0.0984252*%
%ADD15O,0.062X0.09*%
%ADD16R,0.062X0.09*%
%ADD17C,0.1437*%
%ADD18R,0.0591X0.0591*%
%ADD19C,0.0591*%
%ADD20C,0.0905512*%
%ADD21C,0.0787402*%
%ADD22C,0.035*%
%ADD23C,0.02*%
%ADD24C,0.015*%
%ADD25C,0.017*%
%ADD26C,0.012*%
%ADD27C,0.01*%
G04 APERTURE END LIST*
G54D10*
G54D11*
X60285Y-42667D03*
G54D12*
X59285Y-42667D03*
G54D11*
X26950Y-36000D03*
G54D12*
X27950Y-36000D03*
G54D11*
X35700Y-35750D03*
G54D12*
X36700Y-35750D03*
G54D11*
X60285Y-40667D03*
G54D12*
X59285Y-40667D03*
G54D11*
X60285Y-41667D03*
G54D12*
X59285Y-41667D03*
G54D11*
X60285Y-43667D03*
G54D12*
X59285Y-43667D03*
G54D11*
X61685Y-31767D03*
G54D12*
X55685Y-31767D03*
X60685Y-31767D03*
X54685Y-31767D03*
X59685Y-31767D03*
X53685Y-31767D03*
X58685Y-31767D03*
X52685Y-31767D03*
X57685Y-31767D03*
X51685Y-31767D03*
X56685Y-31767D03*
X50685Y-31767D03*
X49685Y-31767D03*
X48685Y-31767D03*
X47685Y-31767D03*
X46685Y-31767D03*
X50685Y-30767D03*
X51685Y-30767D03*
X52685Y-30767D03*
X53685Y-30767D03*
X58685Y-30767D03*
X59685Y-30767D03*
X60685Y-30767D03*
X61685Y-30767D03*
G54D11*
X61685Y-52767D03*
G54D12*
X55685Y-52767D03*
X60685Y-52767D03*
X54685Y-52767D03*
X59685Y-52767D03*
X53685Y-52767D03*
X58685Y-52767D03*
X52685Y-52767D03*
X57685Y-52767D03*
X51685Y-52767D03*
X56685Y-52767D03*
X50685Y-52767D03*
X49685Y-52767D03*
X48685Y-52767D03*
X47685Y-52767D03*
X46685Y-52767D03*
X50685Y-51767D03*
X51685Y-51767D03*
X52685Y-51767D03*
X53685Y-51767D03*
X58685Y-51767D03*
X59685Y-51767D03*
X60685Y-51767D03*
X61685Y-51767D03*
G54D13*
X42224Y-25885D03*
X42224Y-28248D03*
X42224Y-30610D03*
G54D14*
X35433Y-25885D03*
X35433Y-28248D03*
X35433Y-30610D03*
G54D13*
X33562Y-25885D03*
X33562Y-28248D03*
X33562Y-30610D03*
G54D14*
X26771Y-25885D03*
X26771Y-28248D03*
X26771Y-30610D03*
G54D13*
X56330Y-62940D03*
X56330Y-60578D03*
X56330Y-58216D03*
G54D14*
X63122Y-62940D03*
X63122Y-60578D03*
X63122Y-58216D03*
G54D13*
X47830Y-62940D03*
X47830Y-60578D03*
X47830Y-58216D03*
G54D14*
X54622Y-62940D03*
X54622Y-60578D03*
X54622Y-58216D03*
G54D15*
X47185Y-43767D03*
X46185Y-43767D03*
X45185Y-43767D03*
X44185Y-43767D03*
X43185Y-43767D03*
X42185Y-43767D03*
X41185Y-43767D03*
X40185Y-43767D03*
X39185Y-43767D03*
X38185Y-43767D03*
X37185Y-43767D03*
X36185Y-43767D03*
X35185Y-43767D03*
G54D16*
X48185Y-43767D03*
G54D15*
X35185Y-46767D03*
X36185Y-46767D03*
X37185Y-46767D03*
X38185Y-46767D03*
X39185Y-46767D03*
X40185Y-46767D03*
X41185Y-46767D03*
X42185Y-46767D03*
X43185Y-46767D03*
X44185Y-46767D03*
X45185Y-46767D03*
X46185Y-46767D03*
X47185Y-46767D03*
X48185Y-46767D03*
G54D11*
X46685Y-53767D03*
G54D12*
X52685Y-53767D03*
X47685Y-53767D03*
X53685Y-53767D03*
X48685Y-53767D03*
X54685Y-53767D03*
X49685Y-53767D03*
X55685Y-53767D03*
X50685Y-53767D03*
X56685Y-53767D03*
X51685Y-53767D03*
X57685Y-53767D03*
X58685Y-53767D03*
X59685Y-53767D03*
X60685Y-53767D03*
X61685Y-53767D03*
X57685Y-54767D03*
X56685Y-54767D03*
X55685Y-54767D03*
X54685Y-54767D03*
X49685Y-54767D03*
X48685Y-54767D03*
X47685Y-54767D03*
X46685Y-54767D03*
G54D11*
X33300Y-37500D03*
G54D12*
X32300Y-37500D03*
X31300Y-37500D03*
G54D11*
X45450Y-58150D03*
G54D12*
X45450Y-57150D03*
X45450Y-56150D03*
G54D17*
X28685Y-47517D03*
X28685Y-43017D03*
G54D18*
X31185Y-43517D03*
G54D19*
X32185Y-44017D03*
X31185Y-44517D03*
X32185Y-45017D03*
X31185Y-45517D03*
X32185Y-46017D03*
X31185Y-46517D03*
X32185Y-47017D03*
X27085Y-42667D03*
X27085Y-43642D03*
X27085Y-46867D03*
X27085Y-47867D03*
G54D20*
X29885Y-42217D03*
X29885Y-48317D03*
G54D21*
X60715Y-33476D03*
X63077Y-33476D03*
X60715Y-35248D03*
X63077Y-35248D03*
X60715Y-36626D03*
X63077Y-36626D03*
X60715Y-38398D03*
X63077Y-38398D03*
G54D22*
X50135Y-33317D03*
X45535Y-32317D03*
X58485Y-48417D03*
X49285Y-38067D03*
X49485Y-36867D03*
X52385Y-38067D03*
X51585Y-48417D03*
X50535Y-48417D03*
X53285Y-38067D03*
X51085Y-38067D03*
X52935Y-50767D03*
X51935Y-41017D03*
X52685Y-42767D03*
X50635Y-50717D03*
X51950Y-32800D03*
X50000Y-36350D03*
X51050Y-37450D03*
X42935Y-51267D03*
X43185Y-50767D03*
X55500Y-32850D03*
X51835Y-44667D03*
X51485Y-35867D03*
X46685Y-36067D03*
X44935Y-49767D03*
X42435Y-54267D03*
X38935Y-61517D03*
X44935Y-61517D03*
X29185Y-49767D03*
X50685Y-40767D03*
X43935Y-37267D03*
X49185Y-49767D03*
X40935Y-49767D03*
X36185Y-49767D03*
X35685Y-39267D03*
X28185Y-39767D03*
X56435Y-34767D03*
X56435Y-36767D03*
X56435Y-38767D03*
X41185Y-33517D03*
X32685Y-33517D03*
X43185Y-56767D03*
X43185Y-58017D03*
X45550Y-59650D03*
X35935Y-45517D03*
X33400Y-36200D03*
X56385Y-35917D03*
X52835Y-35717D03*
G54D23*
X45535Y-32317D02*
X46485Y-33267D01*
X50085Y-33267D02*
X46485Y-33267D01*
X50085Y-33267D02*
X50135Y-33317D01*
X53735Y-48367D02*
X58435Y-48367D01*
X53685Y-48417D02*
X53735Y-48367D01*
X51585Y-48417D02*
X53685Y-48417D01*
X58435Y-48367D02*
X58485Y-48417D01*
G54D24*
X49485Y-37867D02*
X49285Y-38067D01*
X49485Y-37867D02*
X49485Y-36867D01*
G54D23*
X50535Y-48417D02*
X51585Y-48417D01*
G54D24*
X51085Y-38067D02*
X52385Y-38067D01*
X52385Y-38067D02*
X53285Y-38067D01*
X51935Y-41017D02*
X52685Y-41767D01*
X52685Y-41767D02*
X52685Y-42767D01*
G54D25*
X52885Y-50717D02*
X50635Y-50717D01*
X52935Y-50767D02*
X52885Y-50717D01*
G54D26*
X50000Y-36350D02*
X50000Y-37000D01*
X50450Y-37450D02*
X51050Y-37450D01*
X50000Y-37000D02*
X50450Y-37450D01*
X53685Y-32264D02*
X53685Y-31767D01*
X53150Y-32800D02*
X53685Y-32264D01*
X51950Y-32800D02*
X53150Y-32800D01*
G54D24*
X47185Y-48267D02*
X47185Y-46767D01*
X44185Y-51267D02*
X47185Y-48267D01*
X42935Y-51267D02*
X44185Y-51267D01*
X46185Y-46767D02*
X46185Y-47767D01*
X46185Y-47767D02*
X43185Y-50767D01*
G54D26*
X54685Y-32035D02*
X54685Y-31767D01*
X55500Y-32850D02*
X54685Y-32035D01*
G54D24*
X43185Y-58017D02*
X43185Y-56767D01*
G54D25*
X45450Y-58150D02*
X45450Y-59550D01*
X45450Y-59550D02*
X45550Y-59650D01*
G54D24*
X36185Y-45267D02*
X36185Y-43767D01*
X35935Y-45517D02*
X36185Y-45267D01*
X31085Y-47667D02*
X35285Y-47667D01*
X35285Y-47667D02*
X36185Y-46767D01*
X31185Y-43517D02*
X30685Y-43517D01*
X30185Y-46767D02*
X31085Y-47667D01*
X30185Y-44017D02*
X30185Y-46767D01*
X30685Y-43517D02*
X30185Y-44017D01*
G54D25*
X33300Y-37500D02*
X33300Y-36300D01*
X33300Y-36300D02*
X33400Y-36200D01*
G54D27*
X53035Y-35917D02*
X56385Y-35917D01*
X52835Y-35717D02*
X53035Y-35917D01*
G54D10*
G36*
X46860Y-48133D02*
X44050Y-50942D01*
X43572Y-50942D01*
X43609Y-50852D01*
X43610Y-50802D01*
X46414Y-47997D01*
X46414Y-47997D01*
X46414Y-47997D01*
X46457Y-47934D01*
X46485Y-47892D01*
X46485Y-47892D01*
X46510Y-47767D01*
X46510Y-47364D01*
X46581Y-47317D01*
X46685Y-47161D01*
X46789Y-47317D01*
X46860Y-47364D01*
X46860Y-48133D01*
X46860Y-48133D01*
G37*
G54D27*
X46860Y-48133D02*
X44050Y-50942D01*
X43572Y-50942D01*
X43609Y-50852D01*
X43610Y-50802D01*
X46414Y-47997D01*
X46414Y-47997D01*
X46414Y-47997D01*
X46457Y-47934D01*
X46485Y-47892D01*
X46485Y-47892D01*
X46510Y-47767D01*
X46510Y-47364D01*
X46581Y-47317D01*
X46685Y-47161D01*
X46789Y-47317D01*
X46860Y-47364D01*
X46860Y-48133D01*
G54D10*
G36*
X64135Y-63467D02*
X63867Y-63467D01*
X63663Y-63467D01*
X63691Y-63439D01*
X63646Y-63395D01*
X63762Y-63344D01*
X63867Y-63068D01*
X63864Y-62935D01*
X63864Y-60431D01*
X63864Y-58069D01*
X63751Y-57796D01*
X63725Y-57771D01*
X63725Y-38502D01*
X63725Y-35352D01*
X63721Y-35239D01*
X63721Y-33348D01*
X63623Y-33112D01*
X63443Y-32930D01*
X63206Y-32832D01*
X62950Y-32832D01*
X62713Y-32930D01*
X62532Y-33111D01*
X62434Y-33347D01*
X62434Y-33603D01*
X62531Y-33840D01*
X62712Y-34021D01*
X62949Y-34119D01*
X63205Y-34120D01*
X63442Y-34022D01*
X63623Y-33841D01*
X63721Y-33604D01*
X63721Y-33348D01*
X63721Y-35239D01*
X63716Y-35096D01*
X63636Y-34903D01*
X63531Y-34864D01*
X63460Y-34935D01*
X63460Y-34794D01*
X63422Y-34689D01*
X63182Y-34600D01*
X62926Y-34609D01*
X62733Y-34689D01*
X62694Y-34794D01*
X63077Y-35177D01*
X63460Y-34794D01*
X63460Y-34935D01*
X63148Y-35248D01*
X63531Y-35631D01*
X63636Y-35592D01*
X63725Y-35352D01*
X63725Y-38502D01*
X63721Y-38389D01*
X63721Y-36498D01*
X63623Y-36262D01*
X63460Y-36098D01*
X63460Y-35701D01*
X63077Y-35318D01*
X63007Y-35389D01*
X63007Y-35248D01*
X62624Y-34864D01*
X62519Y-34903D01*
X62429Y-35143D01*
X62439Y-35399D01*
X62519Y-35592D01*
X62624Y-35631D01*
X63007Y-35248D01*
X63007Y-35389D01*
X62694Y-35701D01*
X62733Y-35806D01*
X62973Y-35896D01*
X63229Y-35886D01*
X63422Y-35806D01*
X63460Y-35701D01*
X63460Y-36098D01*
X63443Y-36080D01*
X63206Y-35982D01*
X62950Y-35982D01*
X62713Y-36080D01*
X62532Y-36261D01*
X62434Y-36497D01*
X62434Y-36753D01*
X62531Y-36990D01*
X62712Y-37171D01*
X62949Y-37269D01*
X63205Y-37270D01*
X63442Y-37172D01*
X63623Y-36991D01*
X63721Y-36754D01*
X63721Y-36498D01*
X63721Y-38389D01*
X63716Y-38246D01*
X63636Y-38053D01*
X63531Y-38014D01*
X63460Y-38085D01*
X63460Y-37944D01*
X63422Y-37839D01*
X63182Y-37750D01*
X62926Y-37759D01*
X62733Y-37839D01*
X62694Y-37944D01*
X63077Y-38327D01*
X63460Y-37944D01*
X63460Y-38085D01*
X63148Y-38398D01*
X63531Y-38781D01*
X63636Y-38742D01*
X63725Y-38502D01*
X63725Y-57771D01*
X63542Y-57587D01*
X63460Y-57553D01*
X63460Y-38851D01*
X63077Y-38468D01*
X63007Y-38539D01*
X63007Y-38398D01*
X62624Y-38014D01*
X62519Y-38053D01*
X62429Y-38293D01*
X62439Y-38549D01*
X62519Y-38742D01*
X62624Y-38781D01*
X63007Y-38398D01*
X63007Y-38539D01*
X62694Y-38851D01*
X62733Y-38956D01*
X62973Y-39046D01*
X63229Y-39036D01*
X63422Y-38956D01*
X63460Y-38851D01*
X63460Y-57553D01*
X63270Y-57474D01*
X62975Y-57474D01*
X62702Y-57587D01*
X62493Y-57795D01*
X62380Y-58068D01*
X62379Y-58363D01*
X62492Y-58636D01*
X62701Y-58845D01*
X62973Y-58958D01*
X63269Y-58958D01*
X63541Y-58846D01*
X63750Y-58637D01*
X63864Y-58364D01*
X63864Y-58069D01*
X63864Y-60431D01*
X63751Y-60158D01*
X63542Y-59949D01*
X63270Y-59836D01*
X62975Y-59836D01*
X62702Y-59949D01*
X62493Y-60157D01*
X62380Y-60430D01*
X62379Y-60725D01*
X62492Y-60998D01*
X62701Y-61207D01*
X62973Y-61320D01*
X63269Y-61320D01*
X63541Y-61208D01*
X63750Y-60999D01*
X63864Y-60727D01*
X63864Y-60431D01*
X63864Y-62935D01*
X63859Y-62773D01*
X63762Y-62537D01*
X63646Y-62486D01*
X63576Y-62557D01*
X63576Y-62416D01*
X63525Y-62300D01*
X63249Y-62195D01*
X62954Y-62203D01*
X62718Y-62300D01*
X62667Y-62416D01*
X63122Y-62870D01*
X63576Y-62416D01*
X63576Y-62557D01*
X63192Y-62940D01*
X63198Y-62946D01*
X63127Y-63017D01*
X63122Y-63011D01*
X63116Y-63017D01*
X63051Y-62952D01*
X63045Y-62946D01*
X63051Y-62940D01*
X62597Y-62486D01*
X62481Y-62537D01*
X62376Y-62813D01*
X62384Y-63108D01*
X62481Y-63344D01*
X62597Y-63395D01*
X62552Y-63439D01*
X62580Y-63467D01*
X62239Y-63467D01*
X62239Y-51849D01*
X62239Y-30849D01*
X62228Y-30630D01*
X62166Y-30479D01*
X62070Y-30452D01*
X62000Y-30523D01*
X62000Y-30381D01*
X61972Y-30286D01*
X61766Y-30212D01*
X61548Y-30223D01*
X61397Y-30286D01*
X61369Y-30381D01*
X61685Y-30697D01*
X62000Y-30381D01*
X62000Y-30523D01*
X61755Y-30767D01*
X62070Y-31082D01*
X62166Y-31055D01*
X62239Y-30849D01*
X62239Y-51849D01*
X62235Y-51754D01*
X62235Y-32018D01*
X62235Y-31418D01*
X62197Y-31326D01*
X62126Y-31255D01*
X62034Y-31217D01*
X61981Y-31217D01*
X62000Y-31153D01*
X61685Y-30838D01*
X61369Y-31153D01*
X61388Y-31217D01*
X61335Y-31217D01*
X61243Y-31255D01*
X61173Y-31325D01*
X61135Y-31417D01*
X61135Y-31440D01*
X60996Y-31301D01*
X60915Y-31267D01*
X60996Y-31234D01*
X61151Y-31079D01*
X61182Y-31004D01*
X61203Y-31055D01*
X61299Y-31082D01*
X61614Y-30767D01*
X61299Y-30452D01*
X61203Y-30479D01*
X61184Y-30535D01*
X61151Y-30456D01*
X60996Y-30301D01*
X60794Y-30217D01*
X60576Y-30217D01*
X60373Y-30301D01*
X60219Y-30455D01*
X60185Y-30537D01*
X60151Y-30456D01*
X59996Y-30301D01*
X59794Y-30217D01*
X59576Y-30217D01*
X59373Y-30301D01*
X59219Y-30455D01*
X59185Y-30537D01*
X59151Y-30456D01*
X58996Y-30301D01*
X58794Y-30217D01*
X58576Y-30217D01*
X58373Y-30301D01*
X58219Y-30455D01*
X58135Y-30657D01*
X58134Y-30876D01*
X58218Y-31078D01*
X58373Y-31233D01*
X58454Y-31267D01*
X58373Y-31301D01*
X58219Y-31455D01*
X58185Y-31537D01*
X58151Y-31456D01*
X57996Y-31301D01*
X57794Y-31217D01*
X57576Y-31217D01*
X57373Y-31301D01*
X57219Y-31455D01*
X57185Y-31537D01*
X57151Y-31456D01*
X56996Y-31301D01*
X56794Y-31217D01*
X56576Y-31217D01*
X56373Y-31301D01*
X56219Y-31455D01*
X56185Y-31537D01*
X56151Y-31456D01*
X55996Y-31301D01*
X55794Y-31217D01*
X55576Y-31217D01*
X55373Y-31301D01*
X55219Y-31455D01*
X55185Y-31537D01*
X55151Y-31456D01*
X54996Y-31301D01*
X54794Y-31217D01*
X54576Y-31217D01*
X54373Y-31301D01*
X54239Y-31435D01*
X54239Y-30849D01*
X54228Y-30630D01*
X54166Y-30479D01*
X54070Y-30452D01*
X54000Y-30523D01*
X54000Y-30381D01*
X53972Y-30286D01*
X53766Y-30212D01*
X53548Y-30223D01*
X53397Y-30286D01*
X53369Y-30381D01*
X53685Y-30697D01*
X54000Y-30381D01*
X54000Y-30523D01*
X53755Y-30767D01*
X54070Y-31082D01*
X54166Y-31055D01*
X54239Y-30849D01*
X54239Y-31435D01*
X54219Y-31455D01*
X54185Y-31537D01*
X54151Y-31456D01*
X53996Y-31301D01*
X53921Y-31270D01*
X53972Y-31248D01*
X54000Y-31153D01*
X53685Y-30838D01*
X53369Y-31153D01*
X53397Y-31248D01*
X53452Y-31268D01*
X53373Y-31301D01*
X53219Y-31455D01*
X53185Y-31537D01*
X53151Y-31456D01*
X52996Y-31301D01*
X52915Y-31267D01*
X52996Y-31234D01*
X53151Y-31079D01*
X53182Y-31004D01*
X53203Y-31055D01*
X53299Y-31082D01*
X53614Y-30767D01*
X53299Y-30452D01*
X53203Y-30479D01*
X53184Y-30535D01*
X53151Y-30456D01*
X52996Y-30301D01*
X52794Y-30217D01*
X52576Y-30217D01*
X52373Y-30301D01*
X52219Y-30455D01*
X52185Y-30537D01*
X52151Y-30456D01*
X51996Y-30301D01*
X51794Y-30217D01*
X51576Y-30217D01*
X51373Y-30301D01*
X51219Y-30455D01*
X51185Y-30537D01*
X51151Y-30456D01*
X50996Y-30301D01*
X50794Y-30217D01*
X50576Y-30217D01*
X50373Y-30301D01*
X50219Y-30455D01*
X50135Y-30657D01*
X50134Y-30876D01*
X50218Y-31078D01*
X50373Y-31233D01*
X50454Y-31267D01*
X50373Y-31301D01*
X50219Y-31455D01*
X50185Y-31537D01*
X50151Y-31456D01*
X49996Y-31301D01*
X49794Y-31217D01*
X49576Y-31217D01*
X49373Y-31301D01*
X49219Y-31455D01*
X49185Y-31537D01*
X49151Y-31456D01*
X48996Y-31301D01*
X48794Y-31217D01*
X48576Y-31217D01*
X48373Y-31301D01*
X48219Y-31455D01*
X48185Y-31537D01*
X48151Y-31456D01*
X47996Y-31301D01*
X47794Y-31217D01*
X47576Y-31217D01*
X47373Y-31301D01*
X47219Y-31455D01*
X47185Y-31537D01*
X47151Y-31456D01*
X46996Y-31301D01*
X46794Y-31217D01*
X46576Y-31217D01*
X46373Y-31301D01*
X46219Y-31455D01*
X46135Y-31657D01*
X46134Y-31876D01*
X46218Y-32078D01*
X46373Y-32233D01*
X46575Y-32317D01*
X46793Y-32317D01*
X46996Y-32234D01*
X47151Y-32079D01*
X47185Y-31997D01*
X47218Y-32078D01*
X47373Y-32233D01*
X47575Y-32317D01*
X47793Y-32317D01*
X47996Y-32234D01*
X48151Y-32079D01*
X48185Y-31997D01*
X48218Y-32078D01*
X48373Y-32233D01*
X48575Y-32317D01*
X48793Y-32317D01*
X48996Y-32234D01*
X49151Y-32079D01*
X49185Y-31997D01*
X49218Y-32078D01*
X49373Y-32233D01*
X49575Y-32317D01*
X49793Y-32317D01*
X49996Y-32234D01*
X50151Y-32079D01*
X50185Y-31997D01*
X50218Y-32078D01*
X50373Y-32233D01*
X50575Y-32317D01*
X50793Y-32317D01*
X50996Y-32234D01*
X51151Y-32079D01*
X51185Y-31997D01*
X51218Y-32078D01*
X51373Y-32233D01*
X51575Y-32317D01*
X51793Y-32317D01*
X51996Y-32234D01*
X52151Y-32079D01*
X52185Y-31997D01*
X52218Y-32078D01*
X52373Y-32233D01*
X52575Y-32317D01*
X52793Y-32317D01*
X52996Y-32234D01*
X53151Y-32079D01*
X53185Y-31997D01*
X53218Y-32078D01*
X53325Y-32186D01*
X53021Y-32490D01*
X52241Y-32490D01*
X52191Y-32439D01*
X52034Y-32375D01*
X51865Y-32374D01*
X51709Y-32439D01*
X51589Y-32558D01*
X51525Y-32715D01*
X51524Y-32884D01*
X51589Y-33040D01*
X51708Y-33160D01*
X51865Y-33224D01*
X52034Y-33225D01*
X52190Y-33160D01*
X52241Y-33110D01*
X53150Y-33110D01*
X53268Y-33086D01*
X53369Y-33019D01*
X53904Y-32484D01*
X53971Y-32383D01*
X53995Y-32264D01*
X53995Y-32234D01*
X53996Y-32234D01*
X54151Y-32079D01*
X54185Y-31997D01*
X54218Y-32078D01*
X54373Y-32233D01*
X54496Y-32284D01*
X55074Y-32863D01*
X55074Y-32934D01*
X55139Y-33090D01*
X55258Y-33210D01*
X55415Y-33274D01*
X55584Y-33275D01*
X55740Y-33210D01*
X55860Y-33091D01*
X55924Y-32934D01*
X55925Y-32765D01*
X55860Y-32609D01*
X55741Y-32489D01*
X55584Y-32425D01*
X55513Y-32425D01*
X55156Y-32067D01*
X55185Y-31997D01*
X55218Y-32078D01*
X55373Y-32233D01*
X55575Y-32317D01*
X55793Y-32317D01*
X55996Y-32234D01*
X56151Y-32079D01*
X56185Y-31997D01*
X56218Y-32078D01*
X56373Y-32233D01*
X56575Y-32317D01*
X56793Y-32317D01*
X56996Y-32234D01*
X57151Y-32079D01*
X57185Y-31997D01*
X57218Y-32078D01*
X57373Y-32233D01*
X57575Y-32317D01*
X57793Y-32317D01*
X57996Y-32234D01*
X58151Y-32079D01*
X58185Y-31997D01*
X58218Y-32078D01*
X58373Y-32233D01*
X58575Y-32317D01*
X58793Y-32317D01*
X58996Y-32234D01*
X59151Y-32079D01*
X59185Y-31997D01*
X59218Y-32078D01*
X59373Y-32233D01*
X59575Y-32317D01*
X59793Y-32317D01*
X59996Y-32234D01*
X60151Y-32079D01*
X60185Y-31997D01*
X60218Y-32078D01*
X60373Y-32233D01*
X60575Y-32317D01*
X60793Y-32317D01*
X60996Y-32234D01*
X61134Y-32095D01*
X61134Y-32117D01*
X61172Y-32209D01*
X61243Y-32279D01*
X61335Y-32317D01*
X61434Y-32317D01*
X62034Y-32317D01*
X62126Y-32279D01*
X62196Y-32209D01*
X62234Y-32117D01*
X62235Y-32018D01*
X62235Y-51754D01*
X62228Y-51630D01*
X62166Y-51479D01*
X62070Y-51452D01*
X62000Y-51523D01*
X62000Y-51381D01*
X61972Y-51286D01*
X61766Y-51212D01*
X61548Y-51223D01*
X61397Y-51286D01*
X61369Y-51381D01*
X61685Y-51697D01*
X62000Y-51381D01*
X62000Y-51523D01*
X61755Y-51767D01*
X62070Y-52082D01*
X62166Y-52055D01*
X62239Y-51849D01*
X62239Y-63467D01*
X62235Y-63467D01*
X62235Y-53658D01*
X62151Y-53456D01*
X62013Y-53317D01*
X62034Y-53317D01*
X62126Y-53279D01*
X62196Y-53209D01*
X62234Y-53117D01*
X62235Y-53018D01*
X62235Y-52418D01*
X62197Y-52326D01*
X62126Y-52255D01*
X62034Y-52217D01*
X61981Y-52217D01*
X62000Y-52153D01*
X61685Y-51838D01*
X61369Y-52153D01*
X61388Y-52217D01*
X61335Y-52217D01*
X61243Y-52255D01*
X61173Y-52325D01*
X61135Y-52417D01*
X61135Y-52440D01*
X60996Y-52301D01*
X60915Y-52267D01*
X60996Y-52234D01*
X61151Y-52079D01*
X61182Y-52004D01*
X61203Y-52055D01*
X61299Y-52082D01*
X61614Y-51767D01*
X61363Y-51517D01*
X61363Y-38502D01*
X61363Y-35352D01*
X61359Y-35239D01*
X61359Y-33348D01*
X61261Y-33112D01*
X61080Y-32930D01*
X60844Y-32832D01*
X60588Y-32832D01*
X60351Y-32930D01*
X60170Y-33111D01*
X60072Y-33347D01*
X60071Y-33603D01*
X60169Y-33840D01*
X60350Y-34021D01*
X60587Y-34119D01*
X60843Y-34120D01*
X61079Y-34022D01*
X61261Y-33841D01*
X61359Y-33604D01*
X61359Y-33348D01*
X61359Y-35239D01*
X61354Y-35096D01*
X61274Y-34903D01*
X61169Y-34864D01*
X61098Y-34935D01*
X61098Y-34794D01*
X61059Y-34689D01*
X60819Y-34600D01*
X60563Y-34609D01*
X60371Y-34689D01*
X60332Y-34794D01*
X60715Y-35177D01*
X61098Y-34794D01*
X61098Y-34935D01*
X60786Y-35248D01*
X61169Y-35631D01*
X61274Y-35592D01*
X61363Y-35352D01*
X61363Y-38502D01*
X61359Y-38389D01*
X61359Y-36498D01*
X61261Y-36262D01*
X61098Y-36098D01*
X61098Y-35701D01*
X60715Y-35318D01*
X60645Y-35389D01*
X60645Y-35248D01*
X60261Y-34864D01*
X60156Y-34903D01*
X60067Y-35143D01*
X60077Y-35399D01*
X60156Y-35592D01*
X60261Y-35631D01*
X60645Y-35248D01*
X60645Y-35389D01*
X60332Y-35701D01*
X60371Y-35806D01*
X60611Y-35896D01*
X60867Y-35886D01*
X61059Y-35806D01*
X61098Y-35701D01*
X61098Y-36098D01*
X61080Y-36080D01*
X60844Y-35982D01*
X60588Y-35982D01*
X60351Y-36080D01*
X60170Y-36261D01*
X60072Y-36497D01*
X60071Y-36753D01*
X60169Y-36990D01*
X60350Y-37171D01*
X60587Y-37269D01*
X60843Y-37270D01*
X61079Y-37172D01*
X61261Y-36991D01*
X61359Y-36754D01*
X61359Y-36498D01*
X61359Y-38389D01*
X61354Y-38246D01*
X61274Y-38053D01*
X61169Y-38014D01*
X61098Y-38085D01*
X61098Y-37944D01*
X61059Y-37839D01*
X60819Y-37750D01*
X60563Y-37759D01*
X60371Y-37839D01*
X60332Y-37944D01*
X60715Y-38327D01*
X61098Y-37944D01*
X61098Y-38085D01*
X60786Y-38398D01*
X61169Y-38781D01*
X61274Y-38742D01*
X61363Y-38502D01*
X61363Y-51517D01*
X61299Y-51452D01*
X61203Y-51479D01*
X61184Y-51535D01*
X61151Y-51456D01*
X61098Y-51403D01*
X61098Y-38851D01*
X60715Y-38468D01*
X60645Y-38539D01*
X60645Y-38398D01*
X60261Y-38014D01*
X60156Y-38053D01*
X60067Y-38293D01*
X60077Y-38549D01*
X60156Y-38742D01*
X60261Y-38781D01*
X60645Y-38398D01*
X60645Y-38539D01*
X60332Y-38851D01*
X60371Y-38956D01*
X60611Y-39046D01*
X60867Y-39036D01*
X61059Y-38956D01*
X61098Y-38851D01*
X61098Y-51403D01*
X60996Y-51301D01*
X60835Y-51234D01*
X60835Y-43918D01*
X60835Y-43318D01*
X60797Y-43226D01*
X60738Y-43167D01*
X60796Y-43109D01*
X60834Y-43017D01*
X60835Y-42918D01*
X60835Y-42318D01*
X60797Y-42226D01*
X60738Y-42167D01*
X60796Y-42109D01*
X60834Y-42017D01*
X60835Y-41918D01*
X60835Y-41318D01*
X60797Y-41226D01*
X60738Y-41167D01*
X60796Y-41109D01*
X60834Y-41017D01*
X60835Y-40918D01*
X60835Y-40318D01*
X60797Y-40226D01*
X60726Y-40155D01*
X60634Y-40117D01*
X60535Y-40117D01*
X59935Y-40117D01*
X59843Y-40155D01*
X59773Y-40225D01*
X59735Y-40317D01*
X59735Y-40340D01*
X59596Y-40201D01*
X59394Y-40117D01*
X59176Y-40117D01*
X58973Y-40201D01*
X58819Y-40355D01*
X58735Y-40557D01*
X58734Y-40776D01*
X58818Y-40978D01*
X58973Y-41133D01*
X59054Y-41167D01*
X58973Y-41201D01*
X58819Y-41355D01*
X58735Y-41557D01*
X58734Y-41776D01*
X58818Y-41978D01*
X58973Y-42133D01*
X59054Y-42167D01*
X58973Y-42201D01*
X58819Y-42355D01*
X58735Y-42557D01*
X58734Y-42776D01*
X58818Y-42978D01*
X58973Y-43133D01*
X59054Y-43167D01*
X58973Y-43201D01*
X58819Y-43355D01*
X58735Y-43557D01*
X58734Y-43776D01*
X58818Y-43978D01*
X58973Y-44133D01*
X59175Y-44217D01*
X59393Y-44217D01*
X59596Y-44134D01*
X59734Y-43995D01*
X59734Y-44017D01*
X59772Y-44109D01*
X59843Y-44179D01*
X59935Y-44217D01*
X60034Y-44217D01*
X60634Y-44217D01*
X60726Y-44179D01*
X60796Y-44109D01*
X60834Y-44017D01*
X60835Y-43918D01*
X60835Y-51234D01*
X60794Y-51217D01*
X60576Y-51217D01*
X60373Y-51301D01*
X60219Y-51455D01*
X60185Y-51537D01*
X60151Y-51456D01*
X59996Y-51301D01*
X59794Y-51217D01*
X59576Y-51217D01*
X59373Y-51301D01*
X59219Y-51455D01*
X59185Y-51537D01*
X59151Y-51456D01*
X58996Y-51301D01*
X58910Y-51265D01*
X58910Y-48333D01*
X58845Y-48177D01*
X58726Y-48057D01*
X58569Y-47992D01*
X58400Y-47992D01*
X58340Y-48017D01*
X56810Y-48017D01*
X56810Y-35833D01*
X56745Y-35677D01*
X56626Y-35557D01*
X56469Y-35492D01*
X56300Y-35492D01*
X56144Y-35557D01*
X56083Y-35617D01*
X53253Y-35617D01*
X53195Y-35477D01*
X53076Y-35357D01*
X52919Y-35292D01*
X52750Y-35292D01*
X52594Y-35357D01*
X52474Y-35476D01*
X52410Y-35632D01*
X52409Y-35801D01*
X52474Y-35958D01*
X52593Y-36077D01*
X52750Y-36142D01*
X52842Y-36142D01*
X52842Y-36142D01*
X52920Y-36194D01*
X53035Y-36217D01*
X56083Y-36217D01*
X56143Y-36277D01*
X56300Y-36342D01*
X56469Y-36342D01*
X56625Y-36278D01*
X56745Y-36158D01*
X56809Y-36002D01*
X56810Y-35833D01*
X56810Y-48017D01*
X53735Y-48017D01*
X53710Y-48022D01*
X53710Y-37983D01*
X53645Y-37827D01*
X53526Y-37707D01*
X53369Y-37642D01*
X53200Y-37642D01*
X53044Y-37707D01*
X53009Y-37742D01*
X52661Y-37742D01*
X52626Y-37707D01*
X52469Y-37642D01*
X52300Y-37642D01*
X52144Y-37707D01*
X52109Y-37742D01*
X51361Y-37742D01*
X51359Y-37741D01*
X51410Y-37691D01*
X51474Y-37534D01*
X51475Y-37365D01*
X51410Y-37209D01*
X51291Y-37089D01*
X51134Y-37025D01*
X50965Y-37024D01*
X50809Y-37089D01*
X50758Y-37140D01*
X50578Y-37140D01*
X50560Y-37121D01*
X50560Y-33233D01*
X50495Y-33077D01*
X50376Y-32957D01*
X50219Y-32892D01*
X50050Y-32892D01*
X49990Y-32917D01*
X46630Y-32917D01*
X45960Y-32247D01*
X45960Y-32233D01*
X45895Y-32077D01*
X45776Y-31957D01*
X45619Y-31892D01*
X45450Y-31892D01*
X45294Y-31957D01*
X45174Y-32076D01*
X45110Y-32232D01*
X45109Y-32401D01*
X45174Y-32558D01*
X45293Y-32677D01*
X45450Y-32742D01*
X45465Y-32742D01*
X46237Y-33515D01*
X46351Y-33591D01*
X46485Y-33617D01*
X49833Y-33617D01*
X49893Y-33677D01*
X50050Y-33742D01*
X50219Y-33742D01*
X50375Y-33678D01*
X50495Y-33558D01*
X50559Y-33402D01*
X50560Y-33233D01*
X50560Y-37121D01*
X50310Y-36871D01*
X50310Y-36641D01*
X50360Y-36591D01*
X50424Y-36434D01*
X50425Y-36265D01*
X50360Y-36109D01*
X50241Y-35989D01*
X50084Y-35925D01*
X49915Y-35924D01*
X49759Y-35989D01*
X49639Y-36108D01*
X49575Y-36265D01*
X49574Y-36434D01*
X49580Y-36447D01*
X49569Y-36442D01*
X49400Y-36442D01*
X49244Y-36507D01*
X49124Y-36626D01*
X49060Y-36782D01*
X49059Y-36951D01*
X49124Y-37108D01*
X49160Y-37143D01*
X49160Y-37659D01*
X49044Y-37707D01*
X48924Y-37826D01*
X48860Y-37982D01*
X48859Y-38151D01*
X48924Y-38308D01*
X49043Y-38427D01*
X49200Y-38492D01*
X49369Y-38492D01*
X49525Y-38428D01*
X49645Y-38308D01*
X49709Y-38152D01*
X49710Y-38102D01*
X49714Y-38097D01*
X49714Y-38097D01*
X49714Y-38097D01*
X49785Y-37992D01*
X49785Y-37992D01*
X49810Y-37867D01*
X49810Y-37248D01*
X50230Y-37669D01*
X50331Y-37736D01*
X50450Y-37760D01*
X50758Y-37760D01*
X50775Y-37776D01*
X50724Y-37826D01*
X50660Y-37982D01*
X50659Y-38151D01*
X50724Y-38308D01*
X50843Y-38427D01*
X51000Y-38492D01*
X51169Y-38492D01*
X51325Y-38428D01*
X51361Y-38392D01*
X52108Y-38392D01*
X52143Y-38427D01*
X52300Y-38492D01*
X52469Y-38492D01*
X52625Y-38428D01*
X52661Y-38392D01*
X53008Y-38392D01*
X53043Y-38427D01*
X53200Y-38492D01*
X53369Y-38492D01*
X53525Y-38428D01*
X53645Y-38308D01*
X53709Y-38152D01*
X53710Y-37983D01*
X53710Y-48022D01*
X53601Y-48044D01*
X53566Y-48067D01*
X53110Y-48067D01*
X53110Y-42683D01*
X53045Y-42527D01*
X53010Y-42491D01*
X53010Y-41767D01*
X53010Y-41767D01*
X53010Y-41767D01*
X53005Y-41742D01*
X52985Y-41643D01*
X52985Y-41643D01*
X52914Y-41537D01*
X52914Y-41537D01*
X52360Y-40983D01*
X52360Y-40933D01*
X52295Y-40777D01*
X52176Y-40657D01*
X52019Y-40592D01*
X51850Y-40592D01*
X51694Y-40657D01*
X51574Y-40776D01*
X51510Y-40932D01*
X51509Y-41101D01*
X51574Y-41258D01*
X51693Y-41377D01*
X51850Y-41442D01*
X51900Y-41442D01*
X52360Y-41902D01*
X52360Y-42491D01*
X52324Y-42526D01*
X52260Y-42682D01*
X52259Y-42851D01*
X52324Y-43008D01*
X52443Y-43127D01*
X52600Y-43192D01*
X52769Y-43192D01*
X52925Y-43128D01*
X53045Y-43008D01*
X53109Y-42852D01*
X53110Y-42683D01*
X53110Y-48067D01*
X51836Y-48067D01*
X51826Y-48057D01*
X51669Y-47992D01*
X51500Y-47992D01*
X51344Y-48057D01*
X51334Y-48067D01*
X50786Y-48067D01*
X50776Y-48057D01*
X50619Y-47992D01*
X50450Y-47992D01*
X50294Y-48057D01*
X50174Y-48176D01*
X50110Y-48332D01*
X50109Y-48501D01*
X50174Y-48658D01*
X50293Y-48777D01*
X50450Y-48842D01*
X50619Y-48842D01*
X50775Y-48778D01*
X50785Y-48767D01*
X51333Y-48767D01*
X51343Y-48777D01*
X51500Y-48842D01*
X51669Y-48842D01*
X51825Y-48778D01*
X51835Y-48767D01*
X53685Y-48767D01*
X53818Y-48741D01*
X53818Y-48741D01*
X53853Y-48717D01*
X53853Y-48717D01*
X58183Y-48717D01*
X58243Y-48777D01*
X58400Y-48842D01*
X58569Y-48842D01*
X58725Y-48778D01*
X58845Y-48658D01*
X58909Y-48502D01*
X58910Y-48333D01*
X58910Y-51265D01*
X58794Y-51217D01*
X58576Y-51217D01*
X58373Y-51301D01*
X58219Y-51455D01*
X58135Y-51657D01*
X58134Y-51876D01*
X58218Y-52078D01*
X58373Y-52233D01*
X58454Y-52267D01*
X58373Y-52301D01*
X58219Y-52455D01*
X58185Y-52537D01*
X58151Y-52456D01*
X57996Y-52301D01*
X57794Y-52217D01*
X57576Y-52217D01*
X57373Y-52301D01*
X57219Y-52455D01*
X57185Y-52537D01*
X57151Y-52456D01*
X56996Y-52301D01*
X56794Y-52217D01*
X56576Y-52217D01*
X56373Y-52301D01*
X56219Y-52455D01*
X56185Y-52537D01*
X56151Y-52456D01*
X55996Y-52301D01*
X55794Y-52217D01*
X55576Y-52217D01*
X55373Y-52301D01*
X55219Y-52455D01*
X55185Y-52537D01*
X55151Y-52456D01*
X54996Y-52301D01*
X54794Y-52217D01*
X54576Y-52217D01*
X54373Y-52301D01*
X54239Y-52435D01*
X54239Y-51849D01*
X54228Y-51630D01*
X54166Y-51479D01*
X54070Y-51452D01*
X54000Y-51523D01*
X54000Y-51381D01*
X53972Y-51286D01*
X53766Y-51212D01*
X53548Y-51223D01*
X53397Y-51286D01*
X53369Y-51381D01*
X53685Y-51697D01*
X54000Y-51381D01*
X54000Y-51523D01*
X53755Y-51767D01*
X54070Y-52082D01*
X54166Y-52055D01*
X54239Y-51849D01*
X54239Y-52435D01*
X54219Y-52455D01*
X54185Y-52537D01*
X54151Y-52456D01*
X53996Y-52301D01*
X53921Y-52270D01*
X53972Y-52248D01*
X54000Y-52153D01*
X53685Y-51838D01*
X53369Y-52153D01*
X53397Y-52248D01*
X53452Y-52268D01*
X53373Y-52301D01*
X53219Y-52455D01*
X53185Y-52537D01*
X53151Y-52456D01*
X52996Y-52301D01*
X52915Y-52267D01*
X52996Y-52234D01*
X53151Y-52079D01*
X53182Y-52004D01*
X53203Y-52055D01*
X53299Y-52082D01*
X53614Y-51767D01*
X53360Y-51513D01*
X53360Y-50683D01*
X53295Y-50527D01*
X53176Y-50407D01*
X53019Y-50342D01*
X52850Y-50342D01*
X52753Y-50382D01*
X50901Y-50382D01*
X50876Y-50357D01*
X50719Y-50292D01*
X50550Y-50292D01*
X50394Y-50357D01*
X50274Y-50476D01*
X50210Y-50632D01*
X50209Y-50801D01*
X50274Y-50958D01*
X50393Y-51077D01*
X50550Y-51142D01*
X50719Y-51142D01*
X50875Y-51078D01*
X50901Y-51052D01*
X52619Y-51052D01*
X52693Y-51127D01*
X52850Y-51192D01*
X53019Y-51192D01*
X53175Y-51128D01*
X53295Y-51008D01*
X53359Y-50852D01*
X53360Y-50683D01*
X53360Y-51513D01*
X53299Y-51452D01*
X53203Y-51479D01*
X53184Y-51535D01*
X53151Y-51456D01*
X52996Y-51301D01*
X52794Y-51217D01*
X52576Y-51217D01*
X52373Y-51301D01*
X52219Y-51455D01*
X52185Y-51537D01*
X52151Y-51456D01*
X51996Y-51301D01*
X51794Y-51217D01*
X51576Y-51217D01*
X51373Y-51301D01*
X51219Y-51455D01*
X51185Y-51537D01*
X51151Y-51456D01*
X50996Y-51301D01*
X50794Y-51217D01*
X50576Y-51217D01*
X50373Y-51301D01*
X50219Y-51455D01*
X50135Y-51657D01*
X50134Y-51876D01*
X50218Y-52078D01*
X50373Y-52233D01*
X50454Y-52267D01*
X50373Y-52301D01*
X50219Y-52455D01*
X50185Y-52537D01*
X50151Y-52456D01*
X49996Y-52301D01*
X49794Y-52217D01*
X49576Y-52217D01*
X49373Y-52301D01*
X49219Y-52455D01*
X49185Y-52537D01*
X49151Y-52456D01*
X48996Y-52301D01*
X48794Y-52217D01*
X48745Y-52217D01*
X48745Y-44168D01*
X48745Y-43268D01*
X48707Y-43176D01*
X48636Y-43105D01*
X48544Y-43067D01*
X48445Y-43067D01*
X47825Y-43067D01*
X47733Y-43105D01*
X47663Y-43175D01*
X47625Y-43267D01*
X47625Y-43294D01*
X47545Y-43196D01*
X47353Y-43091D01*
X47321Y-43084D01*
X47235Y-43132D01*
X47235Y-43717D01*
X47242Y-43717D01*
X47242Y-43817D01*
X47235Y-43817D01*
X47235Y-44402D01*
X47321Y-44450D01*
X47353Y-44444D01*
X47545Y-44339D01*
X47624Y-44240D01*
X47624Y-44267D01*
X47662Y-44359D01*
X47733Y-44429D01*
X47825Y-44467D01*
X47924Y-44467D01*
X48544Y-44467D01*
X48636Y-44429D01*
X48706Y-44359D01*
X48744Y-44267D01*
X48745Y-44168D01*
X48745Y-52217D01*
X48745Y-52217D01*
X48745Y-46921D01*
X48745Y-46614D01*
X48702Y-46399D01*
X48581Y-46218D01*
X48399Y-46096D01*
X48185Y-46054D01*
X47970Y-46096D01*
X47789Y-46218D01*
X47685Y-46373D01*
X47581Y-46218D01*
X47399Y-46096D01*
X47185Y-46054D01*
X47135Y-46063D01*
X47135Y-44402D01*
X47135Y-43817D01*
X47127Y-43817D01*
X47127Y-43717D01*
X47135Y-43717D01*
X47135Y-43132D01*
X47048Y-43084D01*
X47016Y-43091D01*
X46824Y-43196D01*
X46686Y-43367D01*
X46684Y-43373D01*
X46581Y-43218D01*
X46399Y-43096D01*
X46185Y-43054D01*
X45970Y-43096D01*
X45789Y-43218D01*
X45685Y-43373D01*
X45581Y-43218D01*
X45399Y-43096D01*
X45185Y-43054D01*
X44970Y-43096D01*
X44789Y-43218D01*
X44685Y-43373D01*
X44581Y-43218D01*
X44399Y-43096D01*
X44185Y-43054D01*
X43970Y-43096D01*
X43789Y-43218D01*
X43685Y-43373D01*
X43581Y-43218D01*
X43399Y-43096D01*
X43185Y-43054D01*
X42970Y-43096D01*
X42966Y-43099D01*
X42966Y-31151D01*
X42966Y-30068D01*
X42966Y-28789D01*
X42966Y-27706D01*
X42966Y-26427D01*
X42966Y-25344D01*
X42928Y-25252D01*
X42858Y-25181D01*
X42766Y-25143D01*
X42667Y-25143D01*
X42336Y-25143D01*
X42274Y-25206D01*
X42274Y-25835D01*
X42904Y-25835D01*
X42966Y-25773D01*
X42966Y-25344D01*
X42966Y-26427D01*
X42966Y-25998D01*
X42904Y-25935D01*
X42274Y-25935D01*
X42274Y-26565D01*
X42336Y-26627D01*
X42667Y-26627D01*
X42766Y-26627D01*
X42858Y-26589D01*
X42928Y-26519D01*
X42966Y-26427D01*
X42966Y-27706D01*
X42928Y-27614D01*
X42858Y-27544D01*
X42766Y-27505D01*
X42667Y-27505D01*
X42336Y-27505D01*
X42274Y-27568D01*
X42274Y-28198D01*
X42904Y-28198D01*
X42966Y-28135D01*
X42966Y-27706D01*
X42966Y-28789D01*
X42966Y-28360D01*
X42904Y-28298D01*
X42274Y-28298D01*
X42274Y-28927D01*
X42336Y-28990D01*
X42667Y-28990D01*
X42766Y-28990D01*
X42858Y-28951D01*
X42928Y-28881D01*
X42966Y-28789D01*
X42966Y-30068D01*
X42928Y-29976D01*
X42858Y-29906D01*
X42766Y-29868D01*
X42667Y-29868D01*
X42336Y-29868D01*
X42274Y-29930D01*
X42274Y-30560D01*
X42904Y-30560D01*
X42966Y-30497D01*
X42966Y-30068D01*
X42966Y-31151D01*
X42966Y-30722D01*
X42904Y-30660D01*
X42274Y-30660D01*
X42274Y-31289D01*
X42336Y-31352D01*
X42667Y-31352D01*
X42766Y-31352D01*
X42858Y-31314D01*
X42928Y-31243D01*
X42966Y-31151D01*
X42966Y-43099D01*
X42789Y-43218D01*
X42685Y-43373D01*
X42581Y-43218D01*
X42399Y-43096D01*
X42185Y-43054D01*
X42174Y-43056D01*
X42174Y-31289D01*
X42174Y-30660D01*
X42174Y-30560D01*
X42174Y-29930D01*
X42174Y-28927D01*
X42174Y-28298D01*
X42174Y-28198D01*
X42174Y-27568D01*
X42174Y-26565D01*
X42174Y-25935D01*
X42174Y-25835D01*
X42174Y-25206D01*
X42111Y-25143D01*
X41781Y-25143D01*
X41682Y-25143D01*
X41590Y-25181D01*
X41520Y-25252D01*
X41482Y-25344D01*
X41482Y-25773D01*
X41544Y-25835D01*
X42174Y-25835D01*
X42174Y-25935D01*
X41544Y-25935D01*
X41482Y-25998D01*
X41482Y-26427D01*
X41520Y-26519D01*
X41590Y-26589D01*
X41682Y-26627D01*
X41781Y-26627D01*
X42111Y-26627D01*
X42174Y-26565D01*
X42174Y-27568D01*
X42111Y-27505D01*
X41781Y-27505D01*
X41682Y-27505D01*
X41590Y-27544D01*
X41520Y-27614D01*
X41482Y-27706D01*
X41482Y-28135D01*
X41544Y-28198D01*
X42174Y-28198D01*
X42174Y-28298D01*
X41544Y-28298D01*
X41482Y-28360D01*
X41482Y-28789D01*
X41520Y-28881D01*
X41590Y-28951D01*
X41682Y-28990D01*
X41781Y-28990D01*
X42111Y-28990D01*
X42174Y-28927D01*
X42174Y-29930D01*
X42111Y-29868D01*
X41781Y-29868D01*
X41682Y-29868D01*
X41590Y-29906D01*
X41520Y-29976D01*
X41482Y-30068D01*
X41482Y-30497D01*
X41544Y-30560D01*
X42174Y-30560D01*
X42174Y-30660D01*
X41544Y-30660D01*
X41482Y-30722D01*
X41482Y-31151D01*
X41520Y-31243D01*
X41590Y-31314D01*
X41682Y-31352D01*
X41781Y-31352D01*
X42111Y-31352D01*
X42174Y-31289D01*
X42174Y-43056D01*
X41970Y-43096D01*
X41789Y-43218D01*
X41685Y-43373D01*
X41581Y-43218D01*
X41399Y-43096D01*
X41185Y-43054D01*
X40970Y-43096D01*
X40789Y-43218D01*
X40685Y-43373D01*
X40581Y-43218D01*
X40399Y-43096D01*
X40185Y-43054D01*
X39970Y-43096D01*
X39789Y-43218D01*
X39685Y-43373D01*
X39581Y-43218D01*
X39399Y-43096D01*
X39185Y-43054D01*
X38970Y-43096D01*
X38789Y-43218D01*
X38685Y-43373D01*
X38683Y-43367D01*
X38545Y-43196D01*
X38353Y-43091D01*
X38321Y-43084D01*
X38235Y-43132D01*
X38235Y-43717D01*
X38242Y-43717D01*
X38242Y-43817D01*
X38235Y-43817D01*
X38235Y-44402D01*
X38321Y-44450D01*
X38353Y-44444D01*
X38545Y-44339D01*
X38683Y-44168D01*
X38685Y-44161D01*
X38789Y-44317D01*
X38970Y-44438D01*
X39185Y-44481D01*
X39399Y-44438D01*
X39581Y-44317D01*
X39685Y-44161D01*
X39789Y-44317D01*
X39970Y-44438D01*
X40185Y-44481D01*
X40399Y-44438D01*
X40581Y-44317D01*
X40685Y-44161D01*
X40789Y-44317D01*
X40970Y-44438D01*
X41185Y-44481D01*
X41399Y-44438D01*
X41581Y-44317D01*
X41685Y-44161D01*
X41789Y-44317D01*
X41970Y-44438D01*
X42185Y-44481D01*
X42399Y-44438D01*
X42581Y-44317D01*
X42685Y-44161D01*
X42789Y-44317D01*
X42970Y-44438D01*
X43185Y-44481D01*
X43399Y-44438D01*
X43581Y-44317D01*
X43685Y-44161D01*
X43789Y-44317D01*
X43970Y-44438D01*
X44185Y-44481D01*
X44399Y-44438D01*
X44581Y-44317D01*
X44685Y-44161D01*
X44789Y-44317D01*
X44970Y-44438D01*
X45185Y-44481D01*
X45399Y-44438D01*
X45581Y-44317D01*
X45685Y-44161D01*
X45789Y-44317D01*
X45970Y-44438D01*
X46185Y-44481D01*
X46399Y-44438D01*
X46581Y-44317D01*
X46684Y-44161D01*
X46686Y-44168D01*
X46824Y-44339D01*
X47016Y-44444D01*
X47048Y-44450D01*
X47135Y-44402D01*
X47135Y-46063D01*
X46970Y-46096D01*
X46789Y-46218D01*
X46685Y-46373D01*
X46581Y-46218D01*
X46399Y-46096D01*
X46185Y-46054D01*
X45970Y-46096D01*
X45789Y-46218D01*
X45685Y-46373D01*
X45581Y-46218D01*
X45399Y-46096D01*
X45185Y-46054D01*
X44970Y-46096D01*
X44789Y-46218D01*
X44685Y-46373D01*
X44581Y-46218D01*
X44399Y-46096D01*
X44185Y-46054D01*
X43970Y-46096D01*
X43789Y-46218D01*
X43685Y-46373D01*
X43581Y-46218D01*
X43399Y-46096D01*
X43185Y-46054D01*
X42970Y-46096D01*
X42789Y-46218D01*
X42685Y-46373D01*
X42683Y-46367D01*
X42545Y-46196D01*
X42353Y-46091D01*
X42321Y-46084D01*
X42235Y-46132D01*
X42235Y-46717D01*
X42242Y-46717D01*
X42242Y-46817D01*
X42235Y-46817D01*
X42235Y-47402D01*
X42321Y-47450D01*
X42353Y-47444D01*
X42545Y-47339D01*
X42683Y-47168D01*
X42685Y-47161D01*
X42789Y-47317D01*
X42970Y-47438D01*
X43185Y-47481D01*
X43399Y-47438D01*
X43581Y-47317D01*
X43685Y-47161D01*
X43789Y-47317D01*
X43970Y-47438D01*
X44185Y-47481D01*
X44399Y-47438D01*
X44581Y-47317D01*
X44685Y-47161D01*
X44789Y-47317D01*
X44970Y-47438D01*
X45185Y-47481D01*
X45399Y-47438D01*
X45581Y-47317D01*
X45685Y-47161D01*
X45789Y-47317D01*
X45860Y-47364D01*
X45860Y-47633D01*
X43150Y-50342D01*
X43100Y-50342D01*
X42944Y-50407D01*
X42824Y-50526D01*
X42760Y-50682D01*
X42759Y-50851D01*
X42769Y-50876D01*
X42694Y-50907D01*
X42574Y-51026D01*
X42510Y-51182D01*
X42509Y-51351D01*
X42574Y-51508D01*
X42693Y-51627D01*
X42850Y-51692D01*
X43019Y-51692D01*
X43175Y-51628D01*
X43211Y-51592D01*
X44185Y-51592D01*
X44309Y-51567D01*
X44309Y-51567D01*
X44414Y-51497D01*
X47414Y-48497D01*
X47414Y-48497D01*
X47414Y-48497D01*
X47457Y-48434D01*
X47485Y-48392D01*
X47485Y-48392D01*
X47510Y-48267D01*
X47510Y-47364D01*
X47581Y-47317D01*
X47685Y-47161D01*
X47789Y-47317D01*
X47970Y-47438D01*
X48185Y-47481D01*
X48399Y-47438D01*
X48581Y-47317D01*
X48702Y-47135D01*
X48745Y-46921D01*
X48745Y-52217D01*
X48576Y-52217D01*
X48373Y-52301D01*
X48219Y-52455D01*
X48185Y-52537D01*
X48151Y-52456D01*
X47996Y-52301D01*
X47794Y-52217D01*
X47576Y-52217D01*
X47373Y-52301D01*
X47219Y-52455D01*
X47185Y-52537D01*
X47151Y-52456D01*
X46996Y-52301D01*
X46794Y-52217D01*
X46576Y-52217D01*
X46373Y-52301D01*
X46219Y-52455D01*
X46135Y-52657D01*
X46134Y-52876D01*
X46218Y-53078D01*
X46357Y-53217D01*
X46335Y-53217D01*
X46243Y-53255D01*
X46173Y-53325D01*
X46135Y-53417D01*
X46134Y-53517D01*
X46134Y-54117D01*
X46172Y-54209D01*
X46243Y-54279D01*
X46335Y-54317D01*
X46357Y-54317D01*
X46219Y-54455D01*
X46135Y-54657D01*
X46134Y-54876D01*
X46218Y-55078D01*
X46373Y-55233D01*
X46575Y-55317D01*
X46793Y-55317D01*
X46996Y-55234D01*
X47151Y-55079D01*
X47185Y-54997D01*
X47218Y-55078D01*
X47373Y-55233D01*
X47575Y-55317D01*
X47793Y-55317D01*
X47996Y-55234D01*
X48151Y-55079D01*
X48185Y-54997D01*
X48218Y-55078D01*
X48373Y-55233D01*
X48575Y-55317D01*
X48793Y-55317D01*
X48996Y-55234D01*
X49151Y-55079D01*
X49185Y-54997D01*
X49218Y-55078D01*
X49373Y-55233D01*
X49575Y-55317D01*
X49793Y-55317D01*
X49996Y-55234D01*
X50151Y-55079D01*
X50234Y-54877D01*
X50235Y-54658D01*
X50151Y-54456D01*
X49996Y-54301D01*
X49915Y-54267D01*
X49996Y-54234D01*
X50151Y-54079D01*
X50185Y-53997D01*
X50218Y-54078D01*
X50373Y-54233D01*
X50575Y-54317D01*
X50793Y-54317D01*
X50996Y-54234D01*
X51151Y-54079D01*
X51185Y-53997D01*
X51218Y-54078D01*
X51373Y-54233D01*
X51575Y-54317D01*
X51793Y-54317D01*
X51996Y-54234D01*
X52151Y-54079D01*
X52185Y-53997D01*
X52218Y-54078D01*
X52373Y-54233D01*
X52575Y-54317D01*
X52793Y-54317D01*
X52996Y-54234D01*
X53151Y-54079D01*
X53185Y-53997D01*
X53218Y-54078D01*
X53373Y-54233D01*
X53575Y-54317D01*
X53793Y-54317D01*
X53996Y-54234D01*
X54151Y-54079D01*
X54185Y-53997D01*
X54218Y-54078D01*
X54373Y-54233D01*
X54454Y-54267D01*
X54373Y-54301D01*
X54219Y-54455D01*
X54135Y-54657D01*
X54134Y-54876D01*
X54218Y-55078D01*
X54373Y-55233D01*
X54575Y-55317D01*
X54793Y-55317D01*
X54996Y-55234D01*
X55151Y-55079D01*
X55185Y-54997D01*
X55218Y-55078D01*
X55373Y-55233D01*
X55575Y-55317D01*
X55793Y-55317D01*
X55996Y-55234D01*
X56151Y-55079D01*
X56185Y-54997D01*
X56218Y-55078D01*
X56373Y-55233D01*
X56575Y-55317D01*
X56793Y-55317D01*
X56996Y-55234D01*
X57151Y-55079D01*
X57185Y-54997D01*
X57218Y-55078D01*
X57373Y-55233D01*
X57575Y-55317D01*
X57793Y-55317D01*
X57996Y-55234D01*
X58151Y-55079D01*
X58234Y-54877D01*
X58235Y-54658D01*
X58151Y-54456D01*
X57996Y-54301D01*
X57915Y-54267D01*
X57996Y-54234D01*
X58151Y-54079D01*
X58185Y-53997D01*
X58218Y-54078D01*
X58373Y-54233D01*
X58575Y-54317D01*
X58793Y-54317D01*
X58996Y-54234D01*
X59151Y-54079D01*
X59185Y-53997D01*
X59218Y-54078D01*
X59373Y-54233D01*
X59575Y-54317D01*
X59793Y-54317D01*
X59996Y-54234D01*
X60151Y-54079D01*
X60185Y-53997D01*
X60218Y-54078D01*
X60373Y-54233D01*
X60575Y-54317D01*
X60793Y-54317D01*
X60996Y-54234D01*
X61151Y-54079D01*
X61185Y-53997D01*
X61218Y-54078D01*
X61373Y-54233D01*
X61575Y-54317D01*
X61793Y-54317D01*
X61996Y-54234D01*
X62151Y-54079D01*
X62234Y-53877D01*
X62235Y-53658D01*
X62235Y-63467D01*
X57072Y-63467D01*
X57072Y-62399D01*
X57072Y-61120D01*
X57072Y-60037D01*
X57072Y-58758D01*
X57072Y-57674D01*
X57034Y-57582D01*
X56964Y-57512D01*
X56872Y-57474D01*
X56773Y-57474D01*
X56443Y-57474D01*
X56380Y-57536D01*
X56380Y-58166D01*
X57010Y-58166D01*
X57072Y-58104D01*
X57072Y-57674D01*
X57072Y-58758D01*
X57072Y-58329D01*
X57010Y-58266D01*
X56380Y-58266D01*
X56380Y-58896D01*
X56443Y-58958D01*
X56773Y-58958D01*
X56872Y-58958D01*
X56964Y-58920D01*
X57034Y-58850D01*
X57072Y-58758D01*
X57072Y-60037D01*
X57034Y-59945D01*
X56964Y-59874D01*
X56872Y-59836D01*
X56773Y-59836D01*
X56443Y-59836D01*
X56380Y-59899D01*
X56380Y-60528D01*
X57010Y-60528D01*
X57072Y-60466D01*
X57072Y-60037D01*
X57072Y-61120D01*
X57072Y-60691D01*
X57010Y-60628D01*
X56380Y-60628D01*
X56380Y-61258D01*
X56443Y-61320D01*
X56773Y-61320D01*
X56872Y-61320D01*
X56964Y-61282D01*
X57034Y-61212D01*
X57072Y-61120D01*
X57072Y-62399D01*
X57034Y-62307D01*
X56964Y-62237D01*
X56872Y-62198D01*
X56773Y-62198D01*
X56443Y-62198D01*
X56380Y-62261D01*
X56380Y-62890D01*
X57010Y-62890D01*
X57072Y-62828D01*
X57072Y-62399D01*
X57072Y-63467D01*
X57072Y-63467D01*
X57072Y-63053D01*
X57010Y-62990D01*
X56380Y-62990D01*
X56380Y-62998D01*
X56280Y-62998D01*
X56280Y-62990D01*
X56280Y-62890D01*
X56280Y-62261D01*
X56280Y-61258D01*
X56280Y-60628D01*
X56280Y-60528D01*
X56280Y-59899D01*
X56280Y-58896D01*
X56280Y-58266D01*
X56280Y-58166D01*
X56280Y-57536D01*
X56218Y-57474D01*
X55888Y-57474D01*
X55788Y-57474D01*
X55696Y-57512D01*
X55626Y-57582D01*
X55588Y-57674D01*
X55588Y-58104D01*
X55651Y-58166D01*
X56280Y-58166D01*
X56280Y-58266D01*
X55651Y-58266D01*
X55588Y-58329D01*
X55588Y-58758D01*
X55626Y-58850D01*
X55696Y-58920D01*
X55788Y-58958D01*
X55888Y-58958D01*
X56218Y-58958D01*
X56280Y-58896D01*
X56280Y-59899D01*
X56218Y-59836D01*
X55888Y-59836D01*
X55788Y-59836D01*
X55696Y-59874D01*
X55626Y-59945D01*
X55588Y-60037D01*
X55588Y-60466D01*
X55651Y-60528D01*
X56280Y-60528D01*
X56280Y-60628D01*
X55651Y-60628D01*
X55588Y-60691D01*
X55588Y-61120D01*
X55626Y-61212D01*
X55696Y-61282D01*
X55788Y-61320D01*
X55888Y-61320D01*
X56218Y-61320D01*
X56280Y-61258D01*
X56280Y-62261D01*
X56218Y-62198D01*
X55888Y-62198D01*
X55788Y-62198D01*
X55696Y-62237D01*
X55626Y-62307D01*
X55588Y-62399D01*
X55588Y-62828D01*
X55651Y-62890D01*
X56280Y-62890D01*
X56280Y-62990D01*
X55651Y-62990D01*
X55588Y-63053D01*
X55588Y-63467D01*
X55367Y-63467D01*
X55163Y-63467D01*
X55191Y-63439D01*
X55146Y-63395D01*
X55262Y-63344D01*
X55367Y-63068D01*
X55364Y-62935D01*
X55364Y-60431D01*
X55364Y-58069D01*
X55251Y-57796D01*
X55042Y-57587D01*
X54770Y-57474D01*
X54475Y-57474D01*
X54202Y-57587D01*
X53993Y-57795D01*
X53880Y-58068D01*
X53879Y-58363D01*
X53992Y-58636D01*
X54201Y-58845D01*
X54473Y-58958D01*
X54769Y-58958D01*
X55041Y-58846D01*
X55250Y-58637D01*
X55364Y-58364D01*
X55364Y-58069D01*
X55364Y-60431D01*
X55251Y-60158D01*
X55042Y-59949D01*
X54770Y-59836D01*
X54475Y-59836D01*
X54202Y-59949D01*
X53993Y-60157D01*
X53880Y-60430D01*
X53879Y-60725D01*
X53992Y-60998D01*
X54201Y-61207D01*
X54473Y-61320D01*
X54769Y-61320D01*
X55041Y-61208D01*
X55250Y-60999D01*
X55364Y-60727D01*
X55364Y-60431D01*
X55364Y-62935D01*
X55359Y-62773D01*
X55262Y-62537D01*
X55146Y-62486D01*
X55076Y-62557D01*
X55076Y-62416D01*
X55025Y-62300D01*
X54749Y-62195D01*
X54454Y-62203D01*
X54218Y-62300D01*
X54167Y-62416D01*
X54622Y-62870D01*
X55076Y-62416D01*
X55076Y-62557D01*
X54692Y-62940D01*
X54698Y-62946D01*
X54627Y-63017D01*
X54622Y-63011D01*
X54616Y-63017D01*
X54551Y-62952D01*
X54545Y-62946D01*
X54551Y-62940D01*
X54097Y-62486D01*
X53981Y-62537D01*
X53876Y-62813D01*
X53884Y-63108D01*
X53981Y-63344D01*
X54097Y-63395D01*
X54052Y-63439D01*
X54080Y-63467D01*
X48572Y-63467D01*
X48572Y-62399D01*
X48572Y-61120D01*
X48572Y-60037D01*
X48572Y-58758D01*
X48572Y-57674D01*
X48534Y-57582D01*
X48464Y-57512D01*
X48372Y-57474D01*
X48273Y-57474D01*
X47943Y-57474D01*
X47880Y-57536D01*
X47880Y-58166D01*
X48510Y-58166D01*
X48572Y-58104D01*
X48572Y-57674D01*
X48572Y-58758D01*
X48572Y-58329D01*
X48510Y-58266D01*
X47880Y-58266D01*
X47880Y-58896D01*
X47943Y-58958D01*
X48273Y-58958D01*
X48372Y-58958D01*
X48464Y-58920D01*
X48534Y-58850D01*
X48572Y-58758D01*
X48572Y-60037D01*
X48534Y-59945D01*
X48464Y-59874D01*
X48372Y-59836D01*
X48273Y-59836D01*
X47943Y-59836D01*
X47880Y-59899D01*
X47880Y-60528D01*
X48510Y-60528D01*
X48572Y-60466D01*
X48572Y-60037D01*
X48572Y-61120D01*
X48572Y-60691D01*
X48510Y-60628D01*
X47880Y-60628D01*
X47880Y-61258D01*
X47943Y-61320D01*
X48273Y-61320D01*
X48372Y-61320D01*
X48464Y-61282D01*
X48534Y-61212D01*
X48572Y-61120D01*
X48572Y-62399D01*
X48534Y-62307D01*
X48464Y-62237D01*
X48372Y-62198D01*
X48273Y-62198D01*
X47943Y-62198D01*
X47880Y-62261D01*
X47880Y-62890D01*
X48510Y-62890D01*
X48572Y-62828D01*
X48572Y-62399D01*
X48572Y-63467D01*
X48572Y-63467D01*
X48572Y-63053D01*
X48510Y-62990D01*
X47880Y-62990D01*
X47880Y-62998D01*
X47780Y-62998D01*
X47780Y-62990D01*
X47780Y-62890D01*
X47780Y-62261D01*
X47780Y-61258D01*
X47780Y-60628D01*
X47780Y-60528D01*
X47780Y-59899D01*
X47780Y-58896D01*
X47780Y-58266D01*
X47780Y-58166D01*
X47780Y-57536D01*
X47718Y-57474D01*
X47388Y-57474D01*
X47288Y-57474D01*
X47196Y-57512D01*
X47126Y-57582D01*
X47088Y-57674D01*
X47088Y-58104D01*
X47151Y-58166D01*
X47780Y-58166D01*
X47780Y-58266D01*
X47151Y-58266D01*
X47088Y-58329D01*
X47088Y-58758D01*
X47126Y-58850D01*
X47196Y-58920D01*
X47288Y-58958D01*
X47388Y-58958D01*
X47718Y-58958D01*
X47780Y-58896D01*
X47780Y-59899D01*
X47718Y-59836D01*
X47388Y-59836D01*
X47288Y-59836D01*
X47196Y-59874D01*
X47126Y-59945D01*
X47088Y-60037D01*
X47088Y-60466D01*
X47151Y-60528D01*
X47780Y-60528D01*
X47780Y-60628D01*
X47151Y-60628D01*
X47088Y-60691D01*
X47088Y-61120D01*
X47126Y-61212D01*
X47196Y-61282D01*
X47288Y-61320D01*
X47388Y-61320D01*
X47718Y-61320D01*
X47780Y-61258D01*
X47780Y-62261D01*
X47718Y-62198D01*
X47388Y-62198D01*
X47288Y-62198D01*
X47196Y-62237D01*
X47126Y-62307D01*
X47088Y-62399D01*
X47088Y-62828D01*
X47151Y-62890D01*
X47780Y-62890D01*
X47780Y-62990D01*
X47151Y-62990D01*
X47088Y-63053D01*
X47088Y-63467D01*
X46000Y-63467D01*
X46000Y-57041D01*
X45916Y-56838D01*
X45761Y-56684D01*
X45680Y-56650D01*
X45761Y-56616D01*
X45915Y-56461D01*
X45999Y-56259D01*
X46000Y-56041D01*
X45916Y-55838D01*
X45761Y-55684D01*
X45559Y-55600D01*
X45341Y-55599D01*
X45138Y-55683D01*
X44984Y-55838D01*
X44900Y-56040D01*
X44899Y-56258D01*
X44983Y-56461D01*
X45138Y-56615D01*
X45219Y-56649D01*
X45138Y-56683D01*
X44984Y-56838D01*
X44900Y-57040D01*
X44899Y-57258D01*
X44983Y-57461D01*
X45122Y-57599D01*
X45100Y-57599D01*
X45008Y-57637D01*
X44938Y-57708D01*
X44900Y-57800D01*
X44899Y-57899D01*
X44899Y-58499D01*
X44937Y-58591D01*
X45008Y-58661D01*
X45100Y-58699D01*
X45115Y-58699D01*
X45115Y-59550D01*
X45125Y-59600D01*
X45124Y-59734D01*
X45189Y-59890D01*
X45308Y-60010D01*
X45465Y-60074D01*
X45634Y-60075D01*
X45790Y-60010D01*
X45910Y-59891D01*
X45974Y-59734D01*
X45975Y-59565D01*
X45910Y-59409D01*
X45791Y-59289D01*
X45785Y-59287D01*
X45785Y-58700D01*
X45799Y-58700D01*
X45891Y-58662D01*
X45961Y-58591D01*
X45999Y-58499D01*
X46000Y-58400D01*
X46000Y-57800D01*
X45962Y-57708D01*
X45891Y-57638D01*
X45799Y-57600D01*
X45777Y-57600D01*
X45915Y-57461D01*
X45999Y-57259D01*
X46000Y-57041D01*
X46000Y-63467D01*
X43610Y-63467D01*
X43610Y-57933D01*
X43545Y-57777D01*
X43510Y-57741D01*
X43510Y-57043D01*
X43545Y-57008D01*
X43609Y-56852D01*
X43610Y-56683D01*
X43545Y-56527D01*
X43426Y-56407D01*
X43269Y-56342D01*
X43100Y-56342D01*
X42944Y-56407D01*
X42824Y-56526D01*
X42760Y-56682D01*
X42759Y-56851D01*
X42824Y-57008D01*
X42860Y-57043D01*
X42860Y-57741D01*
X42824Y-57776D01*
X42760Y-57932D01*
X42759Y-58101D01*
X42824Y-58258D01*
X42943Y-58377D01*
X43100Y-58442D01*
X43269Y-58442D01*
X43425Y-58378D01*
X43545Y-58258D01*
X43609Y-58102D01*
X43610Y-57933D01*
X43610Y-63467D01*
X42135Y-63467D01*
X42135Y-47402D01*
X42135Y-46817D01*
X42135Y-46717D01*
X42135Y-46132D01*
X42048Y-46084D01*
X42016Y-46091D01*
X41824Y-46196D01*
X41686Y-46367D01*
X41685Y-46373D01*
X41683Y-46367D01*
X41545Y-46196D01*
X41353Y-46091D01*
X41321Y-46084D01*
X41235Y-46132D01*
X41235Y-46717D01*
X41625Y-46717D01*
X41745Y-46717D01*
X42135Y-46717D01*
X42135Y-46817D01*
X41745Y-46817D01*
X41625Y-46817D01*
X41235Y-46817D01*
X41235Y-47402D01*
X41321Y-47450D01*
X41353Y-47444D01*
X41545Y-47339D01*
X41683Y-47168D01*
X41685Y-47162D01*
X41686Y-47168D01*
X41824Y-47339D01*
X42016Y-47444D01*
X42048Y-47450D01*
X42135Y-47402D01*
X42135Y-63467D01*
X41135Y-63467D01*
X41135Y-47402D01*
X41135Y-46817D01*
X41127Y-46817D01*
X41127Y-46717D01*
X41135Y-46717D01*
X41135Y-46132D01*
X41048Y-46084D01*
X41016Y-46091D01*
X40824Y-46196D01*
X40686Y-46367D01*
X40684Y-46373D01*
X40581Y-46218D01*
X40399Y-46096D01*
X40185Y-46054D01*
X39970Y-46096D01*
X39789Y-46218D01*
X39685Y-46373D01*
X39581Y-46218D01*
X39399Y-46096D01*
X39185Y-46054D01*
X38970Y-46096D01*
X38789Y-46218D01*
X38685Y-46373D01*
X38683Y-46367D01*
X38545Y-46196D01*
X38353Y-46091D01*
X38321Y-46084D01*
X38235Y-46132D01*
X38235Y-46717D01*
X38242Y-46717D01*
X38242Y-46817D01*
X38235Y-46817D01*
X38235Y-47402D01*
X38321Y-47450D01*
X38353Y-47444D01*
X38545Y-47339D01*
X38683Y-47168D01*
X38685Y-47161D01*
X38789Y-47317D01*
X38970Y-47438D01*
X39185Y-47481D01*
X39399Y-47438D01*
X39581Y-47317D01*
X39685Y-47161D01*
X39789Y-47317D01*
X39970Y-47438D01*
X40185Y-47481D01*
X40399Y-47438D01*
X40581Y-47317D01*
X40684Y-47161D01*
X40686Y-47168D01*
X40824Y-47339D01*
X41016Y-47444D01*
X41048Y-47450D01*
X41135Y-47402D01*
X41135Y-63467D01*
X38135Y-63467D01*
X38135Y-47402D01*
X38135Y-46817D01*
X38127Y-46817D01*
X38127Y-46717D01*
X38135Y-46717D01*
X38135Y-46132D01*
X38135Y-44402D01*
X38135Y-43817D01*
X38127Y-43817D01*
X38127Y-43717D01*
X38135Y-43717D01*
X38135Y-43132D01*
X38048Y-43084D01*
X38016Y-43091D01*
X37824Y-43196D01*
X37686Y-43367D01*
X37684Y-43373D01*
X37581Y-43218D01*
X37399Y-43096D01*
X37254Y-43067D01*
X37254Y-35831D01*
X37243Y-35613D01*
X37181Y-35462D01*
X37085Y-35434D01*
X37015Y-35505D01*
X37015Y-35364D01*
X36987Y-35268D01*
X36781Y-35195D01*
X36563Y-35206D01*
X36412Y-35268D01*
X36384Y-35364D01*
X36700Y-35679D01*
X37015Y-35364D01*
X37015Y-35505D01*
X36770Y-35750D01*
X37085Y-36065D01*
X37181Y-36037D01*
X37254Y-35831D01*
X37254Y-43067D01*
X37185Y-43054D01*
X37015Y-43087D01*
X37015Y-36135D01*
X36700Y-35820D01*
X36629Y-35891D01*
X36629Y-35750D01*
X36314Y-35434D01*
X36250Y-35453D01*
X36250Y-35400D01*
X36212Y-35308D01*
X36178Y-35275D01*
X36178Y-26013D01*
X36170Y-25718D01*
X36073Y-25482D01*
X35958Y-25431D01*
X35887Y-25502D01*
X35887Y-25360D01*
X35836Y-25245D01*
X35560Y-25140D01*
X35265Y-25147D01*
X35029Y-25245D01*
X34978Y-25360D01*
X35433Y-25815D01*
X35887Y-25360D01*
X35887Y-25502D01*
X35503Y-25885D01*
X35958Y-26340D01*
X36073Y-26289D01*
X36178Y-26013D01*
X36178Y-35275D01*
X36175Y-35271D01*
X36175Y-30463D01*
X36175Y-28101D01*
X36062Y-27828D01*
X35887Y-27652D01*
X35887Y-26410D01*
X35433Y-25956D01*
X35362Y-26027D01*
X35362Y-25885D01*
X34908Y-25431D01*
X34792Y-25482D01*
X34687Y-25758D01*
X34695Y-26053D01*
X34792Y-26289D01*
X34908Y-26340D01*
X35362Y-25885D01*
X35362Y-26027D01*
X34978Y-26410D01*
X35029Y-26526D01*
X35305Y-26631D01*
X35600Y-26623D01*
X35836Y-26526D01*
X35887Y-26410D01*
X35887Y-27652D01*
X35854Y-27619D01*
X35581Y-27506D01*
X35286Y-27505D01*
X35013Y-27618D01*
X34804Y-27827D01*
X34691Y-28099D01*
X34690Y-28395D01*
X34803Y-28667D01*
X35012Y-28876D01*
X35284Y-28990D01*
X35580Y-28990D01*
X35852Y-28877D01*
X36061Y-28668D01*
X36175Y-28396D01*
X36175Y-28101D01*
X36175Y-30463D01*
X36062Y-30190D01*
X35854Y-29981D01*
X35581Y-29868D01*
X35286Y-29867D01*
X35013Y-29980D01*
X34804Y-30189D01*
X34691Y-30461D01*
X34690Y-30757D01*
X34803Y-31030D01*
X35012Y-31239D01*
X35284Y-31352D01*
X35580Y-31352D01*
X35852Y-31239D01*
X36061Y-31031D01*
X36175Y-30758D01*
X36175Y-30463D01*
X36175Y-35271D01*
X36141Y-35238D01*
X36049Y-35200D01*
X35950Y-35199D01*
X35350Y-35199D01*
X35258Y-35237D01*
X35188Y-35308D01*
X35150Y-35400D01*
X35149Y-35499D01*
X35149Y-36099D01*
X35187Y-36191D01*
X35258Y-36261D01*
X35350Y-36299D01*
X35449Y-36300D01*
X36049Y-36300D01*
X36141Y-36262D01*
X36211Y-36191D01*
X36249Y-36099D01*
X36250Y-36046D01*
X36314Y-36065D01*
X36629Y-35750D01*
X36629Y-35891D01*
X36384Y-36135D01*
X36412Y-36231D01*
X36618Y-36304D01*
X36836Y-36293D01*
X36987Y-36231D01*
X37015Y-36135D01*
X37015Y-43087D01*
X36970Y-43096D01*
X36789Y-43218D01*
X36685Y-43373D01*
X36581Y-43218D01*
X36399Y-43096D01*
X36185Y-43054D01*
X35970Y-43096D01*
X35789Y-43218D01*
X35685Y-43373D01*
X35581Y-43218D01*
X35399Y-43096D01*
X35185Y-43054D01*
X34970Y-43096D01*
X34789Y-43218D01*
X34667Y-43399D01*
X34625Y-43614D01*
X34625Y-43921D01*
X34667Y-44135D01*
X34789Y-44317D01*
X34970Y-44438D01*
X35185Y-44481D01*
X35399Y-44438D01*
X35581Y-44317D01*
X35685Y-44161D01*
X35789Y-44317D01*
X35860Y-44364D01*
X35860Y-45092D01*
X35850Y-45092D01*
X35694Y-45157D01*
X35574Y-45276D01*
X35510Y-45432D01*
X35509Y-45601D01*
X35574Y-45758D01*
X35693Y-45877D01*
X35850Y-45942D01*
X36019Y-45942D01*
X36175Y-45878D01*
X36295Y-45758D01*
X36359Y-45602D01*
X36360Y-45552D01*
X36414Y-45497D01*
X36414Y-45497D01*
X36414Y-45497D01*
X36485Y-45392D01*
X36485Y-45392D01*
X36510Y-45267D01*
X36510Y-44364D01*
X36581Y-44317D01*
X36685Y-44161D01*
X36789Y-44317D01*
X36970Y-44438D01*
X37185Y-44481D01*
X37399Y-44438D01*
X37581Y-44317D01*
X37684Y-44161D01*
X37686Y-44168D01*
X37824Y-44339D01*
X38016Y-44444D01*
X38048Y-44450D01*
X38135Y-44402D01*
X38135Y-46132D01*
X38048Y-46084D01*
X38016Y-46091D01*
X37824Y-46196D01*
X37686Y-46367D01*
X37684Y-46373D01*
X37581Y-46218D01*
X37399Y-46096D01*
X37185Y-46054D01*
X36970Y-46096D01*
X36789Y-46218D01*
X36685Y-46373D01*
X36581Y-46218D01*
X36399Y-46096D01*
X36185Y-46054D01*
X35970Y-46096D01*
X35789Y-46218D01*
X35685Y-46373D01*
X35581Y-46218D01*
X35399Y-46096D01*
X35185Y-46054D01*
X34970Y-46096D01*
X34789Y-46218D01*
X34667Y-46399D01*
X34625Y-46614D01*
X34625Y-46921D01*
X34667Y-47135D01*
X34789Y-47317D01*
X34826Y-47342D01*
X34305Y-47342D01*
X34305Y-31151D01*
X34305Y-30068D01*
X34305Y-28789D01*
X34305Y-27706D01*
X34305Y-26427D01*
X34305Y-25344D01*
X34267Y-25252D01*
X34196Y-25181D01*
X34105Y-25143D01*
X34005Y-25143D01*
X33675Y-25143D01*
X33612Y-25206D01*
X33612Y-25835D01*
X34242Y-25835D01*
X34305Y-25773D01*
X34305Y-25344D01*
X34305Y-26427D01*
X34305Y-25998D01*
X34242Y-25935D01*
X33612Y-25935D01*
X33612Y-26565D01*
X33675Y-26627D01*
X34005Y-26627D01*
X34105Y-26627D01*
X34196Y-26589D01*
X34267Y-26519D01*
X34305Y-26427D01*
X34305Y-27706D01*
X34267Y-27614D01*
X34196Y-27544D01*
X34105Y-27505D01*
X34005Y-27505D01*
X33675Y-27505D01*
X33612Y-27568D01*
X33612Y-28198D01*
X34242Y-28198D01*
X34305Y-28135D01*
X34305Y-27706D01*
X34305Y-28789D01*
X34305Y-28360D01*
X34242Y-28298D01*
X33612Y-28298D01*
X33612Y-28927D01*
X33675Y-28990D01*
X34005Y-28990D01*
X34105Y-28990D01*
X34196Y-28951D01*
X34267Y-28881D01*
X34305Y-28789D01*
X34305Y-30068D01*
X34267Y-29976D01*
X34196Y-29906D01*
X34105Y-29868D01*
X34005Y-29868D01*
X33675Y-29868D01*
X33612Y-29930D01*
X33612Y-30560D01*
X34242Y-30560D01*
X34305Y-30497D01*
X34305Y-30068D01*
X34305Y-31151D01*
X34305Y-30722D01*
X34242Y-30660D01*
X33612Y-30660D01*
X33612Y-31289D01*
X33675Y-31352D01*
X34005Y-31352D01*
X34105Y-31352D01*
X34196Y-31314D01*
X34267Y-31243D01*
X34305Y-31151D01*
X34305Y-47342D01*
X33850Y-47342D01*
X33850Y-37750D01*
X33850Y-37150D01*
X33812Y-37058D01*
X33741Y-36988D01*
X33649Y-36950D01*
X33635Y-36950D01*
X33635Y-36562D01*
X33640Y-36560D01*
X33760Y-36441D01*
X33824Y-36284D01*
X33825Y-36115D01*
X33760Y-35959D01*
X33641Y-35839D01*
X33512Y-35786D01*
X33512Y-31289D01*
X33512Y-30660D01*
X33512Y-30560D01*
X33512Y-29930D01*
X33512Y-28927D01*
X33512Y-28298D01*
X33512Y-28198D01*
X33512Y-27568D01*
X33512Y-26565D01*
X33512Y-25935D01*
X33512Y-25835D01*
X33512Y-25206D01*
X33450Y-25143D01*
X33120Y-25143D01*
X33020Y-25143D01*
X32929Y-25181D01*
X32858Y-25252D01*
X32820Y-25344D01*
X32820Y-25773D01*
X32883Y-25835D01*
X33512Y-25835D01*
X33512Y-25935D01*
X32883Y-25935D01*
X32820Y-25998D01*
X32820Y-26427D01*
X32858Y-26519D01*
X32929Y-26589D01*
X33020Y-26627D01*
X33120Y-26627D01*
X33450Y-26627D01*
X33512Y-26565D01*
X33512Y-27568D01*
X33450Y-27505D01*
X33120Y-27505D01*
X33020Y-27505D01*
X32929Y-27544D01*
X32858Y-27614D01*
X32820Y-27706D01*
X32820Y-28135D01*
X32883Y-28198D01*
X33512Y-28198D01*
X33512Y-28298D01*
X32883Y-28298D01*
X32820Y-28360D01*
X32820Y-28789D01*
X32858Y-28881D01*
X32929Y-28951D01*
X33020Y-28990D01*
X33120Y-28990D01*
X33450Y-28990D01*
X33512Y-28927D01*
X33512Y-29930D01*
X33450Y-29868D01*
X33120Y-29868D01*
X33020Y-29868D01*
X32929Y-29906D01*
X32858Y-29976D01*
X32820Y-30068D01*
X32820Y-30497D01*
X32883Y-30560D01*
X33512Y-30560D01*
X33512Y-30660D01*
X32883Y-30660D01*
X32820Y-30722D01*
X32820Y-31151D01*
X32858Y-31243D01*
X32929Y-31314D01*
X33020Y-31352D01*
X33120Y-31352D01*
X33450Y-31352D01*
X33512Y-31289D01*
X33512Y-35786D01*
X33484Y-35775D01*
X33315Y-35774D01*
X33159Y-35839D01*
X33039Y-35958D01*
X32975Y-36115D01*
X32974Y-36249D01*
X32965Y-36300D01*
X32965Y-36949D01*
X32950Y-36949D01*
X32858Y-36987D01*
X32788Y-37058D01*
X32750Y-37150D01*
X32750Y-37172D01*
X32611Y-37034D01*
X32409Y-36950D01*
X32191Y-36949D01*
X31988Y-37033D01*
X31834Y-37188D01*
X31800Y-37269D01*
X31766Y-37188D01*
X31611Y-37034D01*
X31409Y-36950D01*
X31191Y-36949D01*
X30988Y-37033D01*
X30834Y-37188D01*
X30750Y-37390D01*
X30749Y-37608D01*
X30833Y-37811D01*
X30988Y-37965D01*
X31190Y-38049D01*
X31408Y-38050D01*
X31611Y-37966D01*
X31765Y-37811D01*
X31799Y-37730D01*
X31833Y-37811D01*
X31988Y-37965D01*
X32190Y-38049D01*
X32408Y-38050D01*
X32611Y-37966D01*
X32749Y-37827D01*
X32749Y-37849D01*
X32787Y-37941D01*
X32858Y-38011D01*
X32950Y-38049D01*
X33049Y-38050D01*
X33649Y-38050D01*
X33741Y-38012D01*
X33811Y-37941D01*
X33849Y-37849D01*
X33850Y-37750D01*
X33850Y-47342D01*
X32735Y-47342D01*
X32580Y-47342D01*
X32567Y-47329D01*
X32662Y-47302D01*
X32735Y-47098D01*
X32724Y-46881D01*
X32662Y-46732D01*
X32567Y-46705D01*
X32255Y-47017D01*
X32261Y-47023D01*
X32190Y-47093D01*
X32185Y-47088D01*
X32179Y-47093D01*
X32114Y-47028D01*
X32108Y-47023D01*
X32114Y-47017D01*
X31802Y-46705D01*
X31707Y-46732D01*
X31634Y-46937D01*
X31645Y-47153D01*
X31707Y-47302D01*
X31802Y-47329D01*
X31789Y-47342D01*
X31219Y-47342D01*
X30510Y-46633D01*
X30510Y-44152D01*
X30692Y-43969D01*
X30747Y-44025D01*
X30839Y-44063D01*
X30868Y-44063D01*
X30722Y-44208D01*
X30639Y-44408D01*
X30639Y-44625D01*
X30722Y-44826D01*
X30875Y-44979D01*
X30966Y-45017D01*
X30876Y-45054D01*
X30722Y-45208D01*
X30639Y-45408D01*
X30639Y-45625D01*
X30722Y-45826D01*
X30875Y-45979D01*
X30966Y-46017D01*
X30876Y-46054D01*
X30722Y-46208D01*
X30639Y-46408D01*
X30639Y-46625D01*
X30722Y-46826D01*
X30875Y-46979D01*
X31076Y-47063D01*
X31293Y-47063D01*
X31493Y-46980D01*
X31647Y-46827D01*
X31730Y-46626D01*
X31730Y-46409D01*
X31647Y-46209D01*
X31494Y-46055D01*
X31403Y-46017D01*
X31493Y-45980D01*
X31647Y-45827D01*
X31730Y-45626D01*
X31730Y-45409D01*
X31647Y-45209D01*
X31494Y-45055D01*
X31403Y-45017D01*
X31493Y-44980D01*
X31647Y-44827D01*
X31730Y-44626D01*
X31730Y-44409D01*
X31647Y-44209D01*
X31502Y-44063D01*
X31530Y-44063D01*
X31621Y-44025D01*
X31639Y-44007D01*
X31639Y-44125D01*
X31722Y-44326D01*
X31875Y-44479D01*
X31966Y-44517D01*
X31876Y-44554D01*
X31722Y-44708D01*
X31639Y-44908D01*
X31639Y-45125D01*
X31722Y-45326D01*
X31875Y-45479D01*
X31966Y-45517D01*
X31876Y-45554D01*
X31722Y-45708D01*
X31639Y-45908D01*
X31639Y-46125D01*
X31722Y-46326D01*
X31875Y-46479D01*
X31960Y-46515D01*
X31899Y-46540D01*
X31873Y-46635D01*
X32185Y-46947D01*
X32496Y-46635D01*
X32470Y-46540D01*
X32405Y-46517D01*
X32493Y-46480D01*
X32647Y-46327D01*
X32730Y-46126D01*
X32730Y-45909D01*
X32647Y-45709D01*
X32494Y-45555D01*
X32403Y-45517D01*
X32493Y-45480D01*
X32647Y-45327D01*
X32730Y-45126D01*
X32730Y-44909D01*
X32647Y-44709D01*
X32494Y-44555D01*
X32403Y-44517D01*
X32493Y-44480D01*
X32647Y-44327D01*
X32730Y-44126D01*
X32730Y-43909D01*
X32647Y-43709D01*
X32494Y-43555D01*
X32294Y-43472D01*
X32077Y-43472D01*
X31876Y-43554D01*
X31730Y-43700D01*
X31730Y-43172D01*
X31692Y-43080D01*
X31622Y-43010D01*
X31530Y-42972D01*
X31431Y-42972D01*
X30840Y-42972D01*
X30748Y-43010D01*
X30677Y-43080D01*
X30639Y-43172D01*
X30639Y-43201D01*
X30587Y-43212D01*
X30587Y-42078D01*
X30481Y-41820D01*
X30283Y-41622D01*
X30025Y-41515D01*
X29745Y-41514D01*
X29487Y-41621D01*
X29289Y-41819D01*
X29182Y-42077D01*
X29182Y-42175D01*
X28878Y-42049D01*
X28504Y-42049D01*
X28504Y-36081D01*
X28493Y-35863D01*
X28431Y-35712D01*
X28335Y-35684D01*
X28265Y-35755D01*
X28265Y-35614D01*
X28237Y-35518D01*
X28031Y-35445D01*
X27813Y-35456D01*
X27662Y-35518D01*
X27634Y-35614D01*
X27950Y-35929D01*
X28265Y-35614D01*
X28265Y-35755D01*
X28020Y-36000D01*
X28335Y-36315D01*
X28431Y-36287D01*
X28504Y-36081D01*
X28504Y-42049D01*
X28493Y-42049D01*
X28265Y-42143D01*
X28265Y-36385D01*
X27950Y-36070D01*
X27879Y-36141D01*
X27879Y-36000D01*
X27564Y-35684D01*
X27517Y-35698D01*
X27517Y-26013D01*
X27509Y-25718D01*
X27411Y-25482D01*
X27296Y-25431D01*
X27225Y-25502D01*
X27225Y-25360D01*
X27174Y-25245D01*
X26899Y-25140D01*
X26604Y-25147D01*
X26368Y-25245D01*
X26317Y-25360D01*
X26771Y-25815D01*
X27225Y-25360D01*
X27225Y-25502D01*
X26842Y-25885D01*
X27296Y-26340D01*
X27411Y-26289D01*
X27517Y-26013D01*
X27517Y-35698D01*
X27513Y-35699D01*
X27513Y-30463D01*
X27513Y-28101D01*
X27401Y-27828D01*
X27225Y-27652D01*
X27225Y-26410D01*
X26771Y-25956D01*
X26700Y-26027D01*
X26700Y-25885D01*
X26246Y-25431D01*
X26131Y-25482D01*
X26025Y-25758D01*
X26033Y-26053D01*
X26131Y-26289D01*
X26246Y-26340D01*
X26700Y-25885D01*
X26700Y-26027D01*
X26317Y-26410D01*
X26368Y-26526D01*
X26644Y-26631D01*
X26939Y-26623D01*
X27174Y-26526D01*
X27225Y-26410D01*
X27225Y-27652D01*
X27192Y-27619D01*
X26919Y-27506D01*
X26624Y-27505D01*
X26351Y-27618D01*
X26142Y-27827D01*
X26029Y-28099D01*
X26029Y-28395D01*
X26142Y-28667D01*
X26350Y-28876D01*
X26623Y-28990D01*
X26918Y-28990D01*
X27191Y-28877D01*
X27400Y-28668D01*
X27513Y-28396D01*
X27513Y-28101D01*
X27513Y-30463D01*
X27401Y-30190D01*
X27192Y-29981D01*
X26919Y-29868D01*
X26624Y-29867D01*
X26351Y-29980D01*
X26142Y-30189D01*
X26029Y-30461D01*
X26029Y-30757D01*
X26142Y-31030D01*
X26350Y-31239D01*
X26623Y-31352D01*
X26918Y-31352D01*
X27191Y-31239D01*
X27400Y-31031D01*
X27513Y-30758D01*
X27513Y-30463D01*
X27513Y-35699D01*
X27500Y-35703D01*
X27500Y-35650D01*
X27462Y-35558D01*
X27391Y-35488D01*
X27299Y-35450D01*
X27200Y-35449D01*
X26600Y-35449D01*
X26508Y-35487D01*
X26438Y-35558D01*
X26400Y-35650D01*
X26399Y-35749D01*
X26399Y-36349D01*
X26437Y-36441D01*
X26508Y-36511D01*
X26600Y-36549D01*
X26699Y-36550D01*
X27299Y-36550D01*
X27391Y-36512D01*
X27461Y-36441D01*
X27499Y-36349D01*
X27500Y-36296D01*
X27564Y-36315D01*
X27879Y-36000D01*
X27879Y-36141D01*
X27634Y-36385D01*
X27662Y-36481D01*
X27868Y-36554D01*
X28086Y-36543D01*
X28237Y-36481D01*
X28265Y-36385D01*
X28265Y-42143D01*
X28137Y-42196D01*
X27864Y-42468D01*
X27716Y-42824D01*
X27716Y-43209D01*
X27863Y-43565D01*
X28135Y-43838D01*
X28491Y-43986D01*
X28876Y-43986D01*
X29232Y-43839D01*
X29505Y-43567D01*
X29653Y-43211D01*
X29653Y-42882D01*
X29744Y-42920D01*
X30024Y-42920D01*
X30282Y-42813D01*
X30480Y-42616D01*
X30587Y-42358D01*
X30587Y-42078D01*
X30587Y-43212D01*
X30560Y-43217D01*
X30518Y-43245D01*
X30455Y-43287D01*
X30455Y-43287D01*
X29955Y-43787D01*
X29884Y-43893D01*
X29860Y-44017D01*
X29860Y-46767D01*
X29884Y-46892D01*
X29955Y-46997D01*
X30855Y-47897D01*
X30960Y-47967D01*
X30960Y-47967D01*
X31085Y-47992D01*
X35285Y-47992D01*
X35409Y-47967D01*
X35409Y-47967D01*
X35514Y-47897D01*
X35973Y-47439D01*
X36185Y-47481D01*
X36399Y-47438D01*
X36581Y-47317D01*
X36685Y-47161D01*
X36789Y-47317D01*
X36970Y-47438D01*
X37185Y-47481D01*
X37399Y-47438D01*
X37581Y-47317D01*
X37684Y-47161D01*
X37686Y-47168D01*
X37824Y-47339D01*
X38016Y-47444D01*
X38048Y-47450D01*
X38135Y-47402D01*
X38135Y-63467D01*
X33205Y-63467D01*
X30587Y-60849D01*
X30587Y-48178D01*
X30481Y-47920D01*
X30283Y-47722D01*
X30025Y-47615D01*
X29745Y-47614D01*
X29653Y-47653D01*
X29653Y-47325D01*
X29506Y-46969D01*
X29234Y-46697D01*
X28878Y-46549D01*
X28493Y-46549D01*
X28137Y-46696D01*
X27864Y-46968D01*
X27716Y-47324D01*
X27716Y-47709D01*
X27863Y-48065D01*
X28135Y-48338D01*
X28491Y-48486D01*
X28876Y-48486D01*
X29182Y-48360D01*
X29182Y-48456D01*
X29288Y-48715D01*
X29486Y-48913D01*
X29744Y-49020D01*
X30024Y-49020D01*
X30282Y-48913D01*
X30480Y-48716D01*
X30587Y-48458D01*
X30587Y-48178D01*
X30587Y-60849D01*
X27630Y-57892D01*
X27630Y-47759D01*
X27547Y-47559D01*
X27394Y-47405D01*
X27303Y-47367D01*
X27393Y-47330D01*
X27547Y-47177D01*
X27630Y-46976D01*
X27630Y-46759D01*
X27630Y-43534D01*
X27547Y-43334D01*
X27394Y-43180D01*
X27333Y-43155D01*
X27393Y-43130D01*
X27547Y-42977D01*
X27630Y-42776D01*
X27630Y-42559D01*
X27547Y-42359D01*
X27394Y-42205D01*
X27194Y-42122D01*
X26977Y-42122D01*
X26776Y-42204D01*
X26622Y-42358D01*
X26539Y-42558D01*
X26539Y-42775D01*
X26622Y-42976D01*
X26775Y-43129D01*
X26836Y-43155D01*
X26776Y-43179D01*
X26622Y-43333D01*
X26539Y-43533D01*
X26539Y-43750D01*
X26622Y-43951D01*
X26775Y-44104D01*
X26976Y-44188D01*
X27193Y-44188D01*
X27393Y-44105D01*
X27547Y-43952D01*
X27630Y-43751D01*
X27630Y-43534D01*
X27630Y-46759D01*
X27547Y-46559D01*
X27394Y-46405D01*
X27194Y-46322D01*
X26977Y-46322D01*
X26776Y-46404D01*
X26622Y-46558D01*
X26539Y-46758D01*
X26539Y-46975D01*
X26622Y-47176D01*
X26775Y-47329D01*
X26866Y-47367D01*
X26776Y-47404D01*
X26622Y-47558D01*
X26539Y-47758D01*
X26539Y-47975D01*
X26622Y-48176D01*
X26775Y-48329D01*
X26976Y-48413D01*
X27193Y-48413D01*
X27393Y-48330D01*
X27547Y-48177D01*
X27630Y-47976D01*
X27630Y-47759D01*
X27630Y-57892D01*
X25985Y-56247D01*
X25985Y-25072D01*
X56919Y-25072D01*
X64135Y-32288D01*
X64135Y-63467D01*
X64135Y-63467D01*
G37*
G54D27*
X64135Y-63467D02*
X63867Y-63467D01*
X63663Y-63467D01*
X63691Y-63439D01*
X63646Y-63395D01*
X63762Y-63344D01*
X63867Y-63068D01*
X63864Y-62935D01*
X63864Y-60431D01*
X63864Y-58069D01*
X63751Y-57796D01*
X63725Y-57771D01*
X63725Y-38502D01*
X63725Y-35352D01*
X63721Y-35239D01*
X63721Y-33348D01*
X63623Y-33112D01*
X63443Y-32930D01*
X63206Y-32832D01*
X62950Y-32832D01*
X62713Y-32930D01*
X62532Y-33111D01*
X62434Y-33347D01*
X62434Y-33603D01*
X62531Y-33840D01*
X62712Y-34021D01*
X62949Y-34119D01*
X63205Y-34120D01*
X63442Y-34022D01*
X63623Y-33841D01*
X63721Y-33604D01*
X63721Y-33348D01*
X63721Y-35239D01*
X63716Y-35096D01*
X63636Y-34903D01*
X63531Y-34864D01*
X63460Y-34935D01*
X63460Y-34794D01*
X63422Y-34689D01*
X63182Y-34600D01*
X62926Y-34609D01*
X62733Y-34689D01*
X62694Y-34794D01*
X63077Y-35177D01*
X63460Y-34794D01*
X63460Y-34935D01*
X63148Y-35248D01*
X63531Y-35631D01*
X63636Y-35592D01*
X63725Y-35352D01*
X63725Y-38502D01*
X63721Y-38389D01*
X63721Y-36498D01*
X63623Y-36262D01*
X63460Y-36098D01*
X63460Y-35701D01*
X63077Y-35318D01*
X63007Y-35389D01*
X63007Y-35248D01*
X62624Y-34864D01*
X62519Y-34903D01*
X62429Y-35143D01*
X62439Y-35399D01*
X62519Y-35592D01*
X62624Y-35631D01*
X63007Y-35248D01*
X63007Y-35389D01*
X62694Y-35701D01*
X62733Y-35806D01*
X62973Y-35896D01*
X63229Y-35886D01*
X63422Y-35806D01*
X63460Y-35701D01*
X63460Y-36098D01*
X63443Y-36080D01*
X63206Y-35982D01*
X62950Y-35982D01*
X62713Y-36080D01*
X62532Y-36261D01*
X62434Y-36497D01*
X62434Y-36753D01*
X62531Y-36990D01*
X62712Y-37171D01*
X62949Y-37269D01*
X63205Y-37270D01*
X63442Y-37172D01*
X63623Y-36991D01*
X63721Y-36754D01*
X63721Y-36498D01*
X63721Y-38389D01*
X63716Y-38246D01*
X63636Y-38053D01*
X63531Y-38014D01*
X63460Y-38085D01*
X63460Y-37944D01*
X63422Y-37839D01*
X63182Y-37750D01*
X62926Y-37759D01*
X62733Y-37839D01*
X62694Y-37944D01*
X63077Y-38327D01*
X63460Y-37944D01*
X63460Y-38085D01*
X63148Y-38398D01*
X63531Y-38781D01*
X63636Y-38742D01*
X63725Y-38502D01*
X63725Y-57771D01*
X63542Y-57587D01*
X63460Y-57553D01*
X63460Y-38851D01*
X63077Y-38468D01*
X63007Y-38539D01*
X63007Y-38398D01*
X62624Y-38014D01*
X62519Y-38053D01*
X62429Y-38293D01*
X62439Y-38549D01*
X62519Y-38742D01*
X62624Y-38781D01*
X63007Y-38398D01*
X63007Y-38539D01*
X62694Y-38851D01*
X62733Y-38956D01*
X62973Y-39046D01*
X63229Y-39036D01*
X63422Y-38956D01*
X63460Y-38851D01*
X63460Y-57553D01*
X63270Y-57474D01*
X62975Y-57474D01*
X62702Y-57587D01*
X62493Y-57795D01*
X62380Y-58068D01*
X62379Y-58363D01*
X62492Y-58636D01*
X62701Y-58845D01*
X62973Y-58958D01*
X63269Y-58958D01*
X63541Y-58846D01*
X63750Y-58637D01*
X63864Y-58364D01*
X63864Y-58069D01*
X63864Y-60431D01*
X63751Y-60158D01*
X63542Y-59949D01*
X63270Y-59836D01*
X62975Y-59836D01*
X62702Y-59949D01*
X62493Y-60157D01*
X62380Y-60430D01*
X62379Y-60725D01*
X62492Y-60998D01*
X62701Y-61207D01*
X62973Y-61320D01*
X63269Y-61320D01*
X63541Y-61208D01*
X63750Y-60999D01*
X63864Y-60727D01*
X63864Y-60431D01*
X63864Y-62935D01*
X63859Y-62773D01*
X63762Y-62537D01*
X63646Y-62486D01*
X63576Y-62557D01*
X63576Y-62416D01*
X63525Y-62300D01*
X63249Y-62195D01*
X62954Y-62203D01*
X62718Y-62300D01*
X62667Y-62416D01*
X63122Y-62870D01*
X63576Y-62416D01*
X63576Y-62557D01*
X63192Y-62940D01*
X63198Y-62946D01*
X63127Y-63017D01*
X63122Y-63011D01*
X63116Y-63017D01*
X63051Y-62952D01*
X63045Y-62946D01*
X63051Y-62940D01*
X62597Y-62486D01*
X62481Y-62537D01*
X62376Y-62813D01*
X62384Y-63108D01*
X62481Y-63344D01*
X62597Y-63395D01*
X62552Y-63439D01*
X62580Y-63467D01*
X62239Y-63467D01*
X62239Y-51849D01*
X62239Y-30849D01*
X62228Y-30630D01*
X62166Y-30479D01*
X62070Y-30452D01*
X62000Y-30523D01*
X62000Y-30381D01*
X61972Y-30286D01*
X61766Y-30212D01*
X61548Y-30223D01*
X61397Y-30286D01*
X61369Y-30381D01*
X61685Y-30697D01*
X62000Y-30381D01*
X62000Y-30523D01*
X61755Y-30767D01*
X62070Y-31082D01*
X62166Y-31055D01*
X62239Y-30849D01*
X62239Y-51849D01*
X62235Y-51754D01*
X62235Y-32018D01*
X62235Y-31418D01*
X62197Y-31326D01*
X62126Y-31255D01*
X62034Y-31217D01*
X61981Y-31217D01*
X62000Y-31153D01*
X61685Y-30838D01*
X61369Y-31153D01*
X61388Y-31217D01*
X61335Y-31217D01*
X61243Y-31255D01*
X61173Y-31325D01*
X61135Y-31417D01*
X61135Y-31440D01*
X60996Y-31301D01*
X60915Y-31267D01*
X60996Y-31234D01*
X61151Y-31079D01*
X61182Y-31004D01*
X61203Y-31055D01*
X61299Y-31082D01*
X61614Y-30767D01*
X61299Y-30452D01*
X61203Y-30479D01*
X61184Y-30535D01*
X61151Y-30456D01*
X60996Y-30301D01*
X60794Y-30217D01*
X60576Y-30217D01*
X60373Y-30301D01*
X60219Y-30455D01*
X60185Y-30537D01*
X60151Y-30456D01*
X59996Y-30301D01*
X59794Y-30217D01*
X59576Y-30217D01*
X59373Y-30301D01*
X59219Y-30455D01*
X59185Y-30537D01*
X59151Y-30456D01*
X58996Y-30301D01*
X58794Y-30217D01*
X58576Y-30217D01*
X58373Y-30301D01*
X58219Y-30455D01*
X58135Y-30657D01*
X58134Y-30876D01*
X58218Y-31078D01*
X58373Y-31233D01*
X58454Y-31267D01*
X58373Y-31301D01*
X58219Y-31455D01*
X58185Y-31537D01*
X58151Y-31456D01*
X57996Y-31301D01*
X57794Y-31217D01*
X57576Y-31217D01*
X57373Y-31301D01*
X57219Y-31455D01*
X57185Y-31537D01*
X57151Y-31456D01*
X56996Y-31301D01*
X56794Y-31217D01*
X56576Y-31217D01*
X56373Y-31301D01*
X56219Y-31455D01*
X56185Y-31537D01*
X56151Y-31456D01*
X55996Y-31301D01*
X55794Y-31217D01*
X55576Y-31217D01*
X55373Y-31301D01*
X55219Y-31455D01*
X55185Y-31537D01*
X55151Y-31456D01*
X54996Y-31301D01*
X54794Y-31217D01*
X54576Y-31217D01*
X54373Y-31301D01*
X54239Y-31435D01*
X54239Y-30849D01*
X54228Y-30630D01*
X54166Y-30479D01*
X54070Y-30452D01*
X54000Y-30523D01*
X54000Y-30381D01*
X53972Y-30286D01*
X53766Y-30212D01*
X53548Y-30223D01*
X53397Y-30286D01*
X53369Y-30381D01*
X53685Y-30697D01*
X54000Y-30381D01*
X54000Y-30523D01*
X53755Y-30767D01*
X54070Y-31082D01*
X54166Y-31055D01*
X54239Y-30849D01*
X54239Y-31435D01*
X54219Y-31455D01*
X54185Y-31537D01*
X54151Y-31456D01*
X53996Y-31301D01*
X53921Y-31270D01*
X53972Y-31248D01*
X54000Y-31153D01*
X53685Y-30838D01*
X53369Y-31153D01*
X53397Y-31248D01*
X53452Y-31268D01*
X53373Y-31301D01*
X53219Y-31455D01*
X53185Y-31537D01*
X53151Y-31456D01*
X52996Y-31301D01*
X52915Y-31267D01*
X52996Y-31234D01*
X53151Y-31079D01*
X53182Y-31004D01*
X53203Y-31055D01*
X53299Y-31082D01*
X53614Y-30767D01*
X53299Y-30452D01*
X53203Y-30479D01*
X53184Y-30535D01*
X53151Y-30456D01*
X52996Y-30301D01*
X52794Y-30217D01*
X52576Y-30217D01*
X52373Y-30301D01*
X52219Y-30455D01*
X52185Y-30537D01*
X52151Y-30456D01*
X51996Y-30301D01*
X51794Y-30217D01*
X51576Y-30217D01*
X51373Y-30301D01*
X51219Y-30455D01*
X51185Y-30537D01*
X51151Y-30456D01*
X50996Y-30301D01*
X50794Y-30217D01*
X50576Y-30217D01*
X50373Y-30301D01*
X50219Y-30455D01*
X50135Y-30657D01*
X50134Y-30876D01*
X50218Y-31078D01*
X50373Y-31233D01*
X50454Y-31267D01*
X50373Y-31301D01*
X50219Y-31455D01*
X50185Y-31537D01*
X50151Y-31456D01*
X49996Y-31301D01*
X49794Y-31217D01*
X49576Y-31217D01*
X49373Y-31301D01*
X49219Y-31455D01*
X49185Y-31537D01*
X49151Y-31456D01*
X48996Y-31301D01*
X48794Y-31217D01*
X48576Y-31217D01*
X48373Y-31301D01*
X48219Y-31455D01*
X48185Y-31537D01*
X48151Y-31456D01*
X47996Y-31301D01*
X47794Y-31217D01*
X47576Y-31217D01*
X47373Y-31301D01*
X47219Y-31455D01*
X47185Y-31537D01*
X47151Y-31456D01*
X46996Y-31301D01*
X46794Y-31217D01*
X46576Y-31217D01*
X46373Y-31301D01*
X46219Y-31455D01*
X46135Y-31657D01*
X46134Y-31876D01*
X46218Y-32078D01*
X46373Y-32233D01*
X46575Y-32317D01*
X46793Y-32317D01*
X46996Y-32234D01*
X47151Y-32079D01*
X47185Y-31997D01*
X47218Y-32078D01*
X47373Y-32233D01*
X47575Y-32317D01*
X47793Y-32317D01*
X47996Y-32234D01*
X48151Y-32079D01*
X48185Y-31997D01*
X48218Y-32078D01*
X48373Y-32233D01*
X48575Y-32317D01*
X48793Y-32317D01*
X48996Y-32234D01*
X49151Y-32079D01*
X49185Y-31997D01*
X49218Y-32078D01*
X49373Y-32233D01*
X49575Y-32317D01*
X49793Y-32317D01*
X49996Y-32234D01*
X50151Y-32079D01*
X50185Y-31997D01*
X50218Y-32078D01*
X50373Y-32233D01*
X50575Y-32317D01*
X50793Y-32317D01*
X50996Y-32234D01*
X51151Y-32079D01*
X51185Y-31997D01*
X51218Y-32078D01*
X51373Y-32233D01*
X51575Y-32317D01*
X51793Y-32317D01*
X51996Y-32234D01*
X52151Y-32079D01*
X52185Y-31997D01*
X52218Y-32078D01*
X52373Y-32233D01*
X52575Y-32317D01*
X52793Y-32317D01*
X52996Y-32234D01*
X53151Y-32079D01*
X53185Y-31997D01*
X53218Y-32078D01*
X53325Y-32186D01*
X53021Y-32490D01*
X52241Y-32490D01*
X52191Y-32439D01*
X52034Y-32375D01*
X51865Y-32374D01*
X51709Y-32439D01*
X51589Y-32558D01*
X51525Y-32715D01*
X51524Y-32884D01*
X51589Y-33040D01*
X51708Y-33160D01*
X51865Y-33224D01*
X52034Y-33225D01*
X52190Y-33160D01*
X52241Y-33110D01*
X53150Y-33110D01*
X53268Y-33086D01*
X53369Y-33019D01*
X53904Y-32484D01*
X53971Y-32383D01*
X53995Y-32264D01*
X53995Y-32234D01*
X53996Y-32234D01*
X54151Y-32079D01*
X54185Y-31997D01*
X54218Y-32078D01*
X54373Y-32233D01*
X54496Y-32284D01*
X55074Y-32863D01*
X55074Y-32934D01*
X55139Y-33090D01*
X55258Y-33210D01*
X55415Y-33274D01*
X55584Y-33275D01*
X55740Y-33210D01*
X55860Y-33091D01*
X55924Y-32934D01*
X55925Y-32765D01*
X55860Y-32609D01*
X55741Y-32489D01*
X55584Y-32425D01*
X55513Y-32425D01*
X55156Y-32067D01*
X55185Y-31997D01*
X55218Y-32078D01*
X55373Y-32233D01*
X55575Y-32317D01*
X55793Y-32317D01*
X55996Y-32234D01*
X56151Y-32079D01*
X56185Y-31997D01*
X56218Y-32078D01*
X56373Y-32233D01*
X56575Y-32317D01*
X56793Y-32317D01*
X56996Y-32234D01*
X57151Y-32079D01*
X57185Y-31997D01*
X57218Y-32078D01*
X57373Y-32233D01*
X57575Y-32317D01*
X57793Y-32317D01*
X57996Y-32234D01*
X58151Y-32079D01*
X58185Y-31997D01*
X58218Y-32078D01*
X58373Y-32233D01*
X58575Y-32317D01*
X58793Y-32317D01*
X58996Y-32234D01*
X59151Y-32079D01*
X59185Y-31997D01*
X59218Y-32078D01*
X59373Y-32233D01*
X59575Y-32317D01*
X59793Y-32317D01*
X59996Y-32234D01*
X60151Y-32079D01*
X60185Y-31997D01*
X60218Y-32078D01*
X60373Y-32233D01*
X60575Y-32317D01*
X60793Y-32317D01*
X60996Y-32234D01*
X61134Y-32095D01*
X61134Y-32117D01*
X61172Y-32209D01*
X61243Y-32279D01*
X61335Y-32317D01*
X61434Y-32317D01*
X62034Y-32317D01*
X62126Y-32279D01*
X62196Y-32209D01*
X62234Y-32117D01*
X62235Y-32018D01*
X62235Y-51754D01*
X62228Y-51630D01*
X62166Y-51479D01*
X62070Y-51452D01*
X62000Y-51523D01*
X62000Y-51381D01*
X61972Y-51286D01*
X61766Y-51212D01*
X61548Y-51223D01*
X61397Y-51286D01*
X61369Y-51381D01*
X61685Y-51697D01*
X62000Y-51381D01*
X62000Y-51523D01*
X61755Y-51767D01*
X62070Y-52082D01*
X62166Y-52055D01*
X62239Y-51849D01*
X62239Y-63467D01*
X62235Y-63467D01*
X62235Y-53658D01*
X62151Y-53456D01*
X62013Y-53317D01*
X62034Y-53317D01*
X62126Y-53279D01*
X62196Y-53209D01*
X62234Y-53117D01*
X62235Y-53018D01*
X62235Y-52418D01*
X62197Y-52326D01*
X62126Y-52255D01*
X62034Y-52217D01*
X61981Y-52217D01*
X62000Y-52153D01*
X61685Y-51838D01*
X61369Y-52153D01*
X61388Y-52217D01*
X61335Y-52217D01*
X61243Y-52255D01*
X61173Y-52325D01*
X61135Y-52417D01*
X61135Y-52440D01*
X60996Y-52301D01*
X60915Y-52267D01*
X60996Y-52234D01*
X61151Y-52079D01*
X61182Y-52004D01*
X61203Y-52055D01*
X61299Y-52082D01*
X61614Y-51767D01*
X61363Y-51517D01*
X61363Y-38502D01*
X61363Y-35352D01*
X61359Y-35239D01*
X61359Y-33348D01*
X61261Y-33112D01*
X61080Y-32930D01*
X60844Y-32832D01*
X60588Y-32832D01*
X60351Y-32930D01*
X60170Y-33111D01*
X60072Y-33347D01*
X60071Y-33603D01*
X60169Y-33840D01*
X60350Y-34021D01*
X60587Y-34119D01*
X60843Y-34120D01*
X61079Y-34022D01*
X61261Y-33841D01*
X61359Y-33604D01*
X61359Y-33348D01*
X61359Y-35239D01*
X61354Y-35096D01*
X61274Y-34903D01*
X61169Y-34864D01*
X61098Y-34935D01*
X61098Y-34794D01*
X61059Y-34689D01*
X60819Y-34600D01*
X60563Y-34609D01*
X60371Y-34689D01*
X60332Y-34794D01*
X60715Y-35177D01*
X61098Y-34794D01*
X61098Y-34935D01*
X60786Y-35248D01*
X61169Y-35631D01*
X61274Y-35592D01*
X61363Y-35352D01*
X61363Y-38502D01*
X61359Y-38389D01*
X61359Y-36498D01*
X61261Y-36262D01*
X61098Y-36098D01*
X61098Y-35701D01*
X60715Y-35318D01*
X60645Y-35389D01*
X60645Y-35248D01*
X60261Y-34864D01*
X60156Y-34903D01*
X60067Y-35143D01*
X60077Y-35399D01*
X60156Y-35592D01*
X60261Y-35631D01*
X60645Y-35248D01*
X60645Y-35389D01*
X60332Y-35701D01*
X60371Y-35806D01*
X60611Y-35896D01*
X60867Y-35886D01*
X61059Y-35806D01*
X61098Y-35701D01*
X61098Y-36098D01*
X61080Y-36080D01*
X60844Y-35982D01*
X60588Y-35982D01*
X60351Y-36080D01*
X60170Y-36261D01*
X60072Y-36497D01*
X60071Y-36753D01*
X60169Y-36990D01*
X60350Y-37171D01*
X60587Y-37269D01*
X60843Y-37270D01*
X61079Y-37172D01*
X61261Y-36991D01*
X61359Y-36754D01*
X61359Y-36498D01*
X61359Y-38389D01*
X61354Y-38246D01*
X61274Y-38053D01*
X61169Y-38014D01*
X61098Y-38085D01*
X61098Y-37944D01*
X61059Y-37839D01*
X60819Y-37750D01*
X60563Y-37759D01*
X60371Y-37839D01*
X60332Y-37944D01*
X60715Y-38327D01*
X61098Y-37944D01*
X61098Y-38085D01*
X60786Y-38398D01*
X61169Y-38781D01*
X61274Y-38742D01*
X61363Y-38502D01*
X61363Y-51517D01*
X61299Y-51452D01*
X61203Y-51479D01*
X61184Y-51535D01*
X61151Y-51456D01*
X61098Y-51403D01*
X61098Y-38851D01*
X60715Y-38468D01*
X60645Y-38539D01*
X60645Y-38398D01*
X60261Y-38014D01*
X60156Y-38053D01*
X60067Y-38293D01*
X60077Y-38549D01*
X60156Y-38742D01*
X60261Y-38781D01*
X60645Y-38398D01*
X60645Y-38539D01*
X60332Y-38851D01*
X60371Y-38956D01*
X60611Y-39046D01*
X60867Y-39036D01*
X61059Y-38956D01*
X61098Y-38851D01*
X61098Y-51403D01*
X60996Y-51301D01*
X60835Y-51234D01*
X60835Y-43918D01*
X60835Y-43318D01*
X60797Y-43226D01*
X60738Y-43167D01*
X60796Y-43109D01*
X60834Y-43017D01*
X60835Y-42918D01*
X60835Y-42318D01*
X60797Y-42226D01*
X60738Y-42167D01*
X60796Y-42109D01*
X60834Y-42017D01*
X60835Y-41918D01*
X60835Y-41318D01*
X60797Y-41226D01*
X60738Y-41167D01*
X60796Y-41109D01*
X60834Y-41017D01*
X60835Y-40918D01*
X60835Y-40318D01*
X60797Y-40226D01*
X60726Y-40155D01*
X60634Y-40117D01*
X60535Y-40117D01*
X59935Y-40117D01*
X59843Y-40155D01*
X59773Y-40225D01*
X59735Y-40317D01*
X59735Y-40340D01*
X59596Y-40201D01*
X59394Y-40117D01*
X59176Y-40117D01*
X58973Y-40201D01*
X58819Y-40355D01*
X58735Y-40557D01*
X58734Y-40776D01*
X58818Y-40978D01*
X58973Y-41133D01*
X59054Y-41167D01*
X58973Y-41201D01*
X58819Y-41355D01*
X58735Y-41557D01*
X58734Y-41776D01*
X58818Y-41978D01*
X58973Y-42133D01*
X59054Y-42167D01*
X58973Y-42201D01*
X58819Y-42355D01*
X58735Y-42557D01*
X58734Y-42776D01*
X58818Y-42978D01*
X58973Y-43133D01*
X59054Y-43167D01*
X58973Y-43201D01*
X58819Y-43355D01*
X58735Y-43557D01*
X58734Y-43776D01*
X58818Y-43978D01*
X58973Y-44133D01*
X59175Y-44217D01*
X59393Y-44217D01*
X59596Y-44134D01*
X59734Y-43995D01*
X59734Y-44017D01*
X59772Y-44109D01*
X59843Y-44179D01*
X59935Y-44217D01*
X60034Y-44217D01*
X60634Y-44217D01*
X60726Y-44179D01*
X60796Y-44109D01*
X60834Y-44017D01*
X60835Y-43918D01*
X60835Y-51234D01*
X60794Y-51217D01*
X60576Y-51217D01*
X60373Y-51301D01*
X60219Y-51455D01*
X60185Y-51537D01*
X60151Y-51456D01*
X59996Y-51301D01*
X59794Y-51217D01*
X59576Y-51217D01*
X59373Y-51301D01*
X59219Y-51455D01*
X59185Y-51537D01*
X59151Y-51456D01*
X58996Y-51301D01*
X58910Y-51265D01*
X58910Y-48333D01*
X58845Y-48177D01*
X58726Y-48057D01*
X58569Y-47992D01*
X58400Y-47992D01*
X58340Y-48017D01*
X56810Y-48017D01*
X56810Y-35833D01*
X56745Y-35677D01*
X56626Y-35557D01*
X56469Y-35492D01*
X56300Y-35492D01*
X56144Y-35557D01*
X56083Y-35617D01*
X53253Y-35617D01*
X53195Y-35477D01*
X53076Y-35357D01*
X52919Y-35292D01*
X52750Y-35292D01*
X52594Y-35357D01*
X52474Y-35476D01*
X52410Y-35632D01*
X52409Y-35801D01*
X52474Y-35958D01*
X52593Y-36077D01*
X52750Y-36142D01*
X52842Y-36142D01*
X52842Y-36142D01*
X52920Y-36194D01*
X53035Y-36217D01*
X56083Y-36217D01*
X56143Y-36277D01*
X56300Y-36342D01*
X56469Y-36342D01*
X56625Y-36278D01*
X56745Y-36158D01*
X56809Y-36002D01*
X56810Y-35833D01*
X56810Y-48017D01*
X53735Y-48017D01*
X53710Y-48022D01*
X53710Y-37983D01*
X53645Y-37827D01*
X53526Y-37707D01*
X53369Y-37642D01*
X53200Y-37642D01*
X53044Y-37707D01*
X53009Y-37742D01*
X52661Y-37742D01*
X52626Y-37707D01*
X52469Y-37642D01*
X52300Y-37642D01*
X52144Y-37707D01*
X52109Y-37742D01*
X51361Y-37742D01*
X51359Y-37741D01*
X51410Y-37691D01*
X51474Y-37534D01*
X51475Y-37365D01*
X51410Y-37209D01*
X51291Y-37089D01*
X51134Y-37025D01*
X50965Y-37024D01*
X50809Y-37089D01*
X50758Y-37140D01*
X50578Y-37140D01*
X50560Y-37121D01*
X50560Y-33233D01*
X50495Y-33077D01*
X50376Y-32957D01*
X50219Y-32892D01*
X50050Y-32892D01*
X49990Y-32917D01*
X46630Y-32917D01*
X45960Y-32247D01*
X45960Y-32233D01*
X45895Y-32077D01*
X45776Y-31957D01*
X45619Y-31892D01*
X45450Y-31892D01*
X45294Y-31957D01*
X45174Y-32076D01*
X45110Y-32232D01*
X45109Y-32401D01*
X45174Y-32558D01*
X45293Y-32677D01*
X45450Y-32742D01*
X45465Y-32742D01*
X46237Y-33515D01*
X46351Y-33591D01*
X46485Y-33617D01*
X49833Y-33617D01*
X49893Y-33677D01*
X50050Y-33742D01*
X50219Y-33742D01*
X50375Y-33678D01*
X50495Y-33558D01*
X50559Y-33402D01*
X50560Y-33233D01*
X50560Y-37121D01*
X50310Y-36871D01*
X50310Y-36641D01*
X50360Y-36591D01*
X50424Y-36434D01*
X50425Y-36265D01*
X50360Y-36109D01*
X50241Y-35989D01*
X50084Y-35925D01*
X49915Y-35924D01*
X49759Y-35989D01*
X49639Y-36108D01*
X49575Y-36265D01*
X49574Y-36434D01*
X49580Y-36447D01*
X49569Y-36442D01*
X49400Y-36442D01*
X49244Y-36507D01*
X49124Y-36626D01*
X49060Y-36782D01*
X49059Y-36951D01*
X49124Y-37108D01*
X49160Y-37143D01*
X49160Y-37659D01*
X49044Y-37707D01*
X48924Y-37826D01*
X48860Y-37982D01*
X48859Y-38151D01*
X48924Y-38308D01*
X49043Y-38427D01*
X49200Y-38492D01*
X49369Y-38492D01*
X49525Y-38428D01*
X49645Y-38308D01*
X49709Y-38152D01*
X49710Y-38102D01*
X49714Y-38097D01*
X49714Y-38097D01*
X49714Y-38097D01*
X49785Y-37992D01*
X49785Y-37992D01*
X49810Y-37867D01*
X49810Y-37248D01*
X50230Y-37669D01*
X50331Y-37736D01*
X50450Y-37760D01*
X50758Y-37760D01*
X50775Y-37776D01*
X50724Y-37826D01*
X50660Y-37982D01*
X50659Y-38151D01*
X50724Y-38308D01*
X50843Y-38427D01*
X51000Y-38492D01*
X51169Y-38492D01*
X51325Y-38428D01*
X51361Y-38392D01*
X52108Y-38392D01*
X52143Y-38427D01*
X52300Y-38492D01*
X52469Y-38492D01*
X52625Y-38428D01*
X52661Y-38392D01*
X53008Y-38392D01*
X53043Y-38427D01*
X53200Y-38492D01*
X53369Y-38492D01*
X53525Y-38428D01*
X53645Y-38308D01*
X53709Y-38152D01*
X53710Y-37983D01*
X53710Y-48022D01*
X53601Y-48044D01*
X53566Y-48067D01*
X53110Y-48067D01*
X53110Y-42683D01*
X53045Y-42527D01*
X53010Y-42491D01*
X53010Y-41767D01*
X53010Y-41767D01*
X53010Y-41767D01*
X53005Y-41742D01*
X52985Y-41643D01*
X52985Y-41643D01*
X52914Y-41537D01*
X52914Y-41537D01*
X52360Y-40983D01*
X52360Y-40933D01*
X52295Y-40777D01*
X52176Y-40657D01*
X52019Y-40592D01*
X51850Y-40592D01*
X51694Y-40657D01*
X51574Y-40776D01*
X51510Y-40932D01*
X51509Y-41101D01*
X51574Y-41258D01*
X51693Y-41377D01*
X51850Y-41442D01*
X51900Y-41442D01*
X52360Y-41902D01*
X52360Y-42491D01*
X52324Y-42526D01*
X52260Y-42682D01*
X52259Y-42851D01*
X52324Y-43008D01*
X52443Y-43127D01*
X52600Y-43192D01*
X52769Y-43192D01*
X52925Y-43128D01*
X53045Y-43008D01*
X53109Y-42852D01*
X53110Y-42683D01*
X53110Y-48067D01*
X51836Y-48067D01*
X51826Y-48057D01*
X51669Y-47992D01*
X51500Y-47992D01*
X51344Y-48057D01*
X51334Y-48067D01*
X50786Y-48067D01*
X50776Y-48057D01*
X50619Y-47992D01*
X50450Y-47992D01*
X50294Y-48057D01*
X50174Y-48176D01*
X50110Y-48332D01*
X50109Y-48501D01*
X50174Y-48658D01*
X50293Y-48777D01*
X50450Y-48842D01*
X50619Y-48842D01*
X50775Y-48778D01*
X50785Y-48767D01*
X51333Y-48767D01*
X51343Y-48777D01*
X51500Y-48842D01*
X51669Y-48842D01*
X51825Y-48778D01*
X51835Y-48767D01*
X53685Y-48767D01*
X53818Y-48741D01*
X53818Y-48741D01*
X53853Y-48717D01*
X53853Y-48717D01*
X58183Y-48717D01*
X58243Y-48777D01*
X58400Y-48842D01*
X58569Y-48842D01*
X58725Y-48778D01*
X58845Y-48658D01*
X58909Y-48502D01*
X58910Y-48333D01*
X58910Y-51265D01*
X58794Y-51217D01*
X58576Y-51217D01*
X58373Y-51301D01*
X58219Y-51455D01*
X58135Y-51657D01*
X58134Y-51876D01*
X58218Y-52078D01*
X58373Y-52233D01*
X58454Y-52267D01*
X58373Y-52301D01*
X58219Y-52455D01*
X58185Y-52537D01*
X58151Y-52456D01*
X57996Y-52301D01*
X57794Y-52217D01*
X57576Y-52217D01*
X57373Y-52301D01*
X57219Y-52455D01*
X57185Y-52537D01*
X57151Y-52456D01*
X56996Y-52301D01*
X56794Y-52217D01*
X56576Y-52217D01*
X56373Y-52301D01*
X56219Y-52455D01*
X56185Y-52537D01*
X56151Y-52456D01*
X55996Y-52301D01*
X55794Y-52217D01*
X55576Y-52217D01*
X55373Y-52301D01*
X55219Y-52455D01*
X55185Y-52537D01*
X55151Y-52456D01*
X54996Y-52301D01*
X54794Y-52217D01*
X54576Y-52217D01*
X54373Y-52301D01*
X54239Y-52435D01*
X54239Y-51849D01*
X54228Y-51630D01*
X54166Y-51479D01*
X54070Y-51452D01*
X54000Y-51523D01*
X54000Y-51381D01*
X53972Y-51286D01*
X53766Y-51212D01*
X53548Y-51223D01*
X53397Y-51286D01*
X53369Y-51381D01*
X53685Y-51697D01*
X54000Y-51381D01*
X54000Y-51523D01*
X53755Y-51767D01*
X54070Y-52082D01*
X54166Y-52055D01*
X54239Y-51849D01*
X54239Y-52435D01*
X54219Y-52455D01*
X54185Y-52537D01*
X54151Y-52456D01*
X53996Y-52301D01*
X53921Y-52270D01*
X53972Y-52248D01*
X54000Y-52153D01*
X53685Y-51838D01*
X53369Y-52153D01*
X53397Y-52248D01*
X53452Y-52268D01*
X53373Y-52301D01*
X53219Y-52455D01*
X53185Y-52537D01*
X53151Y-52456D01*
X52996Y-52301D01*
X52915Y-52267D01*
X52996Y-52234D01*
X53151Y-52079D01*
X53182Y-52004D01*
X53203Y-52055D01*
X53299Y-52082D01*
X53614Y-51767D01*
X53360Y-51513D01*
X53360Y-50683D01*
X53295Y-50527D01*
X53176Y-50407D01*
X53019Y-50342D01*
X52850Y-50342D01*
X52753Y-50382D01*
X50901Y-50382D01*
X50876Y-50357D01*
X50719Y-50292D01*
X50550Y-50292D01*
X50394Y-50357D01*
X50274Y-50476D01*
X50210Y-50632D01*
X50209Y-50801D01*
X50274Y-50958D01*
X50393Y-51077D01*
X50550Y-51142D01*
X50719Y-51142D01*
X50875Y-51078D01*
X50901Y-51052D01*
X52619Y-51052D01*
X52693Y-51127D01*
X52850Y-51192D01*
X53019Y-51192D01*
X53175Y-51128D01*
X53295Y-51008D01*
X53359Y-50852D01*
X53360Y-50683D01*
X53360Y-51513D01*
X53299Y-51452D01*
X53203Y-51479D01*
X53184Y-51535D01*
X53151Y-51456D01*
X52996Y-51301D01*
X52794Y-51217D01*
X52576Y-51217D01*
X52373Y-51301D01*
X52219Y-51455D01*
X52185Y-51537D01*
X52151Y-51456D01*
X51996Y-51301D01*
X51794Y-51217D01*
X51576Y-51217D01*
X51373Y-51301D01*
X51219Y-51455D01*
X51185Y-51537D01*
X51151Y-51456D01*
X50996Y-51301D01*
X50794Y-51217D01*
X50576Y-51217D01*
X50373Y-51301D01*
X50219Y-51455D01*
X50135Y-51657D01*
X50134Y-51876D01*
X50218Y-52078D01*
X50373Y-52233D01*
X50454Y-52267D01*
X50373Y-52301D01*
X50219Y-52455D01*
X50185Y-52537D01*
X50151Y-52456D01*
X49996Y-52301D01*
X49794Y-52217D01*
X49576Y-52217D01*
X49373Y-52301D01*
X49219Y-52455D01*
X49185Y-52537D01*
X49151Y-52456D01*
X48996Y-52301D01*
X48794Y-52217D01*
X48745Y-52217D01*
X48745Y-44168D01*
X48745Y-43268D01*
X48707Y-43176D01*
X48636Y-43105D01*
X48544Y-43067D01*
X48445Y-43067D01*
X47825Y-43067D01*
X47733Y-43105D01*
X47663Y-43175D01*
X47625Y-43267D01*
X47625Y-43294D01*
X47545Y-43196D01*
X47353Y-43091D01*
X47321Y-43084D01*
X47235Y-43132D01*
X47235Y-43717D01*
X47242Y-43717D01*
X47242Y-43817D01*
X47235Y-43817D01*
X47235Y-44402D01*
X47321Y-44450D01*
X47353Y-44444D01*
X47545Y-44339D01*
X47624Y-44240D01*
X47624Y-44267D01*
X47662Y-44359D01*
X47733Y-44429D01*
X47825Y-44467D01*
X47924Y-44467D01*
X48544Y-44467D01*
X48636Y-44429D01*
X48706Y-44359D01*
X48744Y-44267D01*
X48745Y-44168D01*
X48745Y-52217D01*
X48745Y-52217D01*
X48745Y-46921D01*
X48745Y-46614D01*
X48702Y-46399D01*
X48581Y-46218D01*
X48399Y-46096D01*
X48185Y-46054D01*
X47970Y-46096D01*
X47789Y-46218D01*
X47685Y-46373D01*
X47581Y-46218D01*
X47399Y-46096D01*
X47185Y-46054D01*
X47135Y-46063D01*
X47135Y-44402D01*
X47135Y-43817D01*
X47127Y-43817D01*
X47127Y-43717D01*
X47135Y-43717D01*
X47135Y-43132D01*
X47048Y-43084D01*
X47016Y-43091D01*
X46824Y-43196D01*
X46686Y-43367D01*
X46684Y-43373D01*
X46581Y-43218D01*
X46399Y-43096D01*
X46185Y-43054D01*
X45970Y-43096D01*
X45789Y-43218D01*
X45685Y-43373D01*
X45581Y-43218D01*
X45399Y-43096D01*
X45185Y-43054D01*
X44970Y-43096D01*
X44789Y-43218D01*
X44685Y-43373D01*
X44581Y-43218D01*
X44399Y-43096D01*
X44185Y-43054D01*
X43970Y-43096D01*
X43789Y-43218D01*
X43685Y-43373D01*
X43581Y-43218D01*
X43399Y-43096D01*
X43185Y-43054D01*
X42970Y-43096D01*
X42966Y-43099D01*
X42966Y-31151D01*
X42966Y-30068D01*
X42966Y-28789D01*
X42966Y-27706D01*
X42966Y-26427D01*
X42966Y-25344D01*
X42928Y-25252D01*
X42858Y-25181D01*
X42766Y-25143D01*
X42667Y-25143D01*
X42336Y-25143D01*
X42274Y-25206D01*
X42274Y-25835D01*
X42904Y-25835D01*
X42966Y-25773D01*
X42966Y-25344D01*
X42966Y-26427D01*
X42966Y-25998D01*
X42904Y-25935D01*
X42274Y-25935D01*
X42274Y-26565D01*
X42336Y-26627D01*
X42667Y-26627D01*
X42766Y-26627D01*
X42858Y-26589D01*
X42928Y-26519D01*
X42966Y-26427D01*
X42966Y-27706D01*
X42928Y-27614D01*
X42858Y-27544D01*
X42766Y-27505D01*
X42667Y-27505D01*
X42336Y-27505D01*
X42274Y-27568D01*
X42274Y-28198D01*
X42904Y-28198D01*
X42966Y-28135D01*
X42966Y-27706D01*
X42966Y-28789D01*
X42966Y-28360D01*
X42904Y-28298D01*
X42274Y-28298D01*
X42274Y-28927D01*
X42336Y-28990D01*
X42667Y-28990D01*
X42766Y-28990D01*
X42858Y-28951D01*
X42928Y-28881D01*
X42966Y-28789D01*
X42966Y-30068D01*
X42928Y-29976D01*
X42858Y-29906D01*
X42766Y-29868D01*
X42667Y-29868D01*
X42336Y-29868D01*
X42274Y-29930D01*
X42274Y-30560D01*
X42904Y-30560D01*
X42966Y-30497D01*
X42966Y-30068D01*
X42966Y-31151D01*
X42966Y-30722D01*
X42904Y-30660D01*
X42274Y-30660D01*
X42274Y-31289D01*
X42336Y-31352D01*
X42667Y-31352D01*
X42766Y-31352D01*
X42858Y-31314D01*
X42928Y-31243D01*
X42966Y-31151D01*
X42966Y-43099D01*
X42789Y-43218D01*
X42685Y-43373D01*
X42581Y-43218D01*
X42399Y-43096D01*
X42185Y-43054D01*
X42174Y-43056D01*
X42174Y-31289D01*
X42174Y-30660D01*
X42174Y-30560D01*
X42174Y-29930D01*
X42174Y-28927D01*
X42174Y-28298D01*
X42174Y-28198D01*
X42174Y-27568D01*
X42174Y-26565D01*
X42174Y-25935D01*
X42174Y-25835D01*
X42174Y-25206D01*
X42111Y-25143D01*
X41781Y-25143D01*
X41682Y-25143D01*
X41590Y-25181D01*
X41520Y-25252D01*
X41482Y-25344D01*
X41482Y-25773D01*
X41544Y-25835D01*
X42174Y-25835D01*
X42174Y-25935D01*
X41544Y-25935D01*
X41482Y-25998D01*
X41482Y-26427D01*
X41520Y-26519D01*
X41590Y-26589D01*
X41682Y-26627D01*
X41781Y-26627D01*
X42111Y-26627D01*
X42174Y-26565D01*
X42174Y-27568D01*
X42111Y-27505D01*
X41781Y-27505D01*
X41682Y-27505D01*
X41590Y-27544D01*
X41520Y-27614D01*
X41482Y-27706D01*
X41482Y-28135D01*
X41544Y-28198D01*
X42174Y-28198D01*
X42174Y-28298D01*
X41544Y-28298D01*
X41482Y-28360D01*
X41482Y-28789D01*
X41520Y-28881D01*
X41590Y-28951D01*
X41682Y-28990D01*
X41781Y-28990D01*
X42111Y-28990D01*
X42174Y-28927D01*
X42174Y-29930D01*
X42111Y-29868D01*
X41781Y-29868D01*
X41682Y-29868D01*
X41590Y-29906D01*
X41520Y-29976D01*
X41482Y-30068D01*
X41482Y-30497D01*
X41544Y-30560D01*
X42174Y-30560D01*
X42174Y-30660D01*
X41544Y-30660D01*
X41482Y-30722D01*
X41482Y-31151D01*
X41520Y-31243D01*
X41590Y-31314D01*
X41682Y-31352D01*
X41781Y-31352D01*
X42111Y-31352D01*
X42174Y-31289D01*
X42174Y-43056D01*
X41970Y-43096D01*
X41789Y-43218D01*
X41685Y-43373D01*
X41581Y-43218D01*
X41399Y-43096D01*
X41185Y-43054D01*
X40970Y-43096D01*
X40789Y-43218D01*
X40685Y-43373D01*
X40581Y-43218D01*
X40399Y-43096D01*
X40185Y-43054D01*
X39970Y-43096D01*
X39789Y-43218D01*
X39685Y-43373D01*
X39581Y-43218D01*
X39399Y-43096D01*
X39185Y-43054D01*
X38970Y-43096D01*
X38789Y-43218D01*
X38685Y-43373D01*
X38683Y-43367D01*
X38545Y-43196D01*
X38353Y-43091D01*
X38321Y-43084D01*
X38235Y-43132D01*
X38235Y-43717D01*
X38242Y-43717D01*
X38242Y-43817D01*
X38235Y-43817D01*
X38235Y-44402D01*
X38321Y-44450D01*
X38353Y-44444D01*
X38545Y-44339D01*
X38683Y-44168D01*
X38685Y-44161D01*
X38789Y-44317D01*
X38970Y-44438D01*
X39185Y-44481D01*
X39399Y-44438D01*
X39581Y-44317D01*
X39685Y-44161D01*
X39789Y-44317D01*
X39970Y-44438D01*
X40185Y-44481D01*
X40399Y-44438D01*
X40581Y-44317D01*
X40685Y-44161D01*
X40789Y-44317D01*
X40970Y-44438D01*
X41185Y-44481D01*
X41399Y-44438D01*
X41581Y-44317D01*
X41685Y-44161D01*
X41789Y-44317D01*
X41970Y-44438D01*
X42185Y-44481D01*
X42399Y-44438D01*
X42581Y-44317D01*
X42685Y-44161D01*
X42789Y-44317D01*
X42970Y-44438D01*
X43185Y-44481D01*
X43399Y-44438D01*
X43581Y-44317D01*
X43685Y-44161D01*
X43789Y-44317D01*
X43970Y-44438D01*
X44185Y-44481D01*
X44399Y-44438D01*
X44581Y-44317D01*
X44685Y-44161D01*
X44789Y-44317D01*
X44970Y-44438D01*
X45185Y-44481D01*
X45399Y-44438D01*
X45581Y-44317D01*
X45685Y-44161D01*
X45789Y-44317D01*
X45970Y-44438D01*
X46185Y-44481D01*
X46399Y-44438D01*
X46581Y-44317D01*
X46684Y-44161D01*
X46686Y-44168D01*
X46824Y-44339D01*
X47016Y-44444D01*
X47048Y-44450D01*
X47135Y-44402D01*
X47135Y-46063D01*
X46970Y-46096D01*
X46789Y-46218D01*
X46685Y-46373D01*
X46581Y-46218D01*
X46399Y-46096D01*
X46185Y-46054D01*
X45970Y-46096D01*
X45789Y-46218D01*
X45685Y-46373D01*
X45581Y-46218D01*
X45399Y-46096D01*
X45185Y-46054D01*
X44970Y-46096D01*
X44789Y-46218D01*
X44685Y-46373D01*
X44581Y-46218D01*
X44399Y-46096D01*
X44185Y-46054D01*
X43970Y-46096D01*
X43789Y-46218D01*
X43685Y-46373D01*
X43581Y-46218D01*
X43399Y-46096D01*
X43185Y-46054D01*
X42970Y-46096D01*
X42789Y-46218D01*
X42685Y-46373D01*
X42683Y-46367D01*
X42545Y-46196D01*
X42353Y-46091D01*
X42321Y-46084D01*
X42235Y-46132D01*
X42235Y-46717D01*
X42242Y-46717D01*
X42242Y-46817D01*
X42235Y-46817D01*
X42235Y-47402D01*
X42321Y-47450D01*
X42353Y-47444D01*
X42545Y-47339D01*
X42683Y-47168D01*
X42685Y-47161D01*
X42789Y-47317D01*
X42970Y-47438D01*
X43185Y-47481D01*
X43399Y-47438D01*
X43581Y-47317D01*
X43685Y-47161D01*
X43789Y-47317D01*
X43970Y-47438D01*
X44185Y-47481D01*
X44399Y-47438D01*
X44581Y-47317D01*
X44685Y-47161D01*
X44789Y-47317D01*
X44970Y-47438D01*
X45185Y-47481D01*
X45399Y-47438D01*
X45581Y-47317D01*
X45685Y-47161D01*
X45789Y-47317D01*
X45860Y-47364D01*
X45860Y-47633D01*
X43150Y-50342D01*
X43100Y-50342D01*
X42944Y-50407D01*
X42824Y-50526D01*
X42760Y-50682D01*
X42759Y-50851D01*
X42769Y-50876D01*
X42694Y-50907D01*
X42574Y-51026D01*
X42510Y-51182D01*
X42509Y-51351D01*
X42574Y-51508D01*
X42693Y-51627D01*
X42850Y-51692D01*
X43019Y-51692D01*
X43175Y-51628D01*
X43211Y-51592D01*
X44185Y-51592D01*
X44309Y-51567D01*
X44309Y-51567D01*
X44414Y-51497D01*
X47414Y-48497D01*
X47414Y-48497D01*
X47414Y-48497D01*
X47457Y-48434D01*
X47485Y-48392D01*
X47485Y-48392D01*
X47510Y-48267D01*
X47510Y-47364D01*
X47581Y-47317D01*
X47685Y-47161D01*
X47789Y-47317D01*
X47970Y-47438D01*
X48185Y-47481D01*
X48399Y-47438D01*
X48581Y-47317D01*
X48702Y-47135D01*
X48745Y-46921D01*
X48745Y-52217D01*
X48576Y-52217D01*
X48373Y-52301D01*
X48219Y-52455D01*
X48185Y-52537D01*
X48151Y-52456D01*
X47996Y-52301D01*
X47794Y-52217D01*
X47576Y-52217D01*
X47373Y-52301D01*
X47219Y-52455D01*
X47185Y-52537D01*
X47151Y-52456D01*
X46996Y-52301D01*
X46794Y-52217D01*
X46576Y-52217D01*
X46373Y-52301D01*
X46219Y-52455D01*
X46135Y-52657D01*
X46134Y-52876D01*
X46218Y-53078D01*
X46357Y-53217D01*
X46335Y-53217D01*
X46243Y-53255D01*
X46173Y-53325D01*
X46135Y-53417D01*
X46134Y-53517D01*
X46134Y-54117D01*
X46172Y-54209D01*
X46243Y-54279D01*
X46335Y-54317D01*
X46357Y-54317D01*
X46219Y-54455D01*
X46135Y-54657D01*
X46134Y-54876D01*
X46218Y-55078D01*
X46373Y-55233D01*
X46575Y-55317D01*
X46793Y-55317D01*
X46996Y-55234D01*
X47151Y-55079D01*
X47185Y-54997D01*
X47218Y-55078D01*
X47373Y-55233D01*
X47575Y-55317D01*
X47793Y-55317D01*
X47996Y-55234D01*
X48151Y-55079D01*
X48185Y-54997D01*
X48218Y-55078D01*
X48373Y-55233D01*
X48575Y-55317D01*
X48793Y-55317D01*
X48996Y-55234D01*
X49151Y-55079D01*
X49185Y-54997D01*
X49218Y-55078D01*
X49373Y-55233D01*
X49575Y-55317D01*
X49793Y-55317D01*
X49996Y-55234D01*
X50151Y-55079D01*
X50234Y-54877D01*
X50235Y-54658D01*
X50151Y-54456D01*
X49996Y-54301D01*
X49915Y-54267D01*
X49996Y-54234D01*
X50151Y-54079D01*
X50185Y-53997D01*
X50218Y-54078D01*
X50373Y-54233D01*
X50575Y-54317D01*
X50793Y-54317D01*
X50996Y-54234D01*
X51151Y-54079D01*
X51185Y-53997D01*
X51218Y-54078D01*
X51373Y-54233D01*
X51575Y-54317D01*
X51793Y-54317D01*
X51996Y-54234D01*
X52151Y-54079D01*
X52185Y-53997D01*
X52218Y-54078D01*
X52373Y-54233D01*
X52575Y-54317D01*
X52793Y-54317D01*
X52996Y-54234D01*
X53151Y-54079D01*
X53185Y-53997D01*
X53218Y-54078D01*
X53373Y-54233D01*
X53575Y-54317D01*
X53793Y-54317D01*
X53996Y-54234D01*
X54151Y-54079D01*
X54185Y-53997D01*
X54218Y-54078D01*
X54373Y-54233D01*
X54454Y-54267D01*
X54373Y-54301D01*
X54219Y-54455D01*
X54135Y-54657D01*
X54134Y-54876D01*
X54218Y-55078D01*
X54373Y-55233D01*
X54575Y-55317D01*
X54793Y-55317D01*
X54996Y-55234D01*
X55151Y-55079D01*
X55185Y-54997D01*
X55218Y-55078D01*
X55373Y-55233D01*
X55575Y-55317D01*
X55793Y-55317D01*
X55996Y-55234D01*
X56151Y-55079D01*
X56185Y-54997D01*
X56218Y-55078D01*
X56373Y-55233D01*
X56575Y-55317D01*
X56793Y-55317D01*
X56996Y-55234D01*
X57151Y-55079D01*
X57185Y-54997D01*
X57218Y-55078D01*
X57373Y-55233D01*
X57575Y-55317D01*
X57793Y-55317D01*
X57996Y-55234D01*
X58151Y-55079D01*
X58234Y-54877D01*
X58235Y-54658D01*
X58151Y-54456D01*
X57996Y-54301D01*
X57915Y-54267D01*
X57996Y-54234D01*
X58151Y-54079D01*
X58185Y-53997D01*
X58218Y-54078D01*
X58373Y-54233D01*
X58575Y-54317D01*
X58793Y-54317D01*
X58996Y-54234D01*
X59151Y-54079D01*
X59185Y-53997D01*
X59218Y-54078D01*
X59373Y-54233D01*
X59575Y-54317D01*
X59793Y-54317D01*
X59996Y-54234D01*
X60151Y-54079D01*
X60185Y-53997D01*
X60218Y-54078D01*
X60373Y-54233D01*
X60575Y-54317D01*
X60793Y-54317D01*
X60996Y-54234D01*
X61151Y-54079D01*
X61185Y-53997D01*
X61218Y-54078D01*
X61373Y-54233D01*
X61575Y-54317D01*
X61793Y-54317D01*
X61996Y-54234D01*
X62151Y-54079D01*
X62234Y-53877D01*
X62235Y-53658D01*
X62235Y-63467D01*
X57072Y-63467D01*
X57072Y-62399D01*
X57072Y-61120D01*
X57072Y-60037D01*
X57072Y-58758D01*
X57072Y-57674D01*
X57034Y-57582D01*
X56964Y-57512D01*
X56872Y-57474D01*
X56773Y-57474D01*
X56443Y-57474D01*
X56380Y-57536D01*
X56380Y-58166D01*
X57010Y-58166D01*
X57072Y-58104D01*
X57072Y-57674D01*
X57072Y-58758D01*
X57072Y-58329D01*
X57010Y-58266D01*
X56380Y-58266D01*
X56380Y-58896D01*
X56443Y-58958D01*
X56773Y-58958D01*
X56872Y-58958D01*
X56964Y-58920D01*
X57034Y-58850D01*
X57072Y-58758D01*
X57072Y-60037D01*
X57034Y-59945D01*
X56964Y-59874D01*
X56872Y-59836D01*
X56773Y-59836D01*
X56443Y-59836D01*
X56380Y-59899D01*
X56380Y-60528D01*
X57010Y-60528D01*
X57072Y-60466D01*
X57072Y-60037D01*
X57072Y-61120D01*
X57072Y-60691D01*
X57010Y-60628D01*
X56380Y-60628D01*
X56380Y-61258D01*
X56443Y-61320D01*
X56773Y-61320D01*
X56872Y-61320D01*
X56964Y-61282D01*
X57034Y-61212D01*
X57072Y-61120D01*
X57072Y-62399D01*
X57034Y-62307D01*
X56964Y-62237D01*
X56872Y-62198D01*
X56773Y-62198D01*
X56443Y-62198D01*
X56380Y-62261D01*
X56380Y-62890D01*
X57010Y-62890D01*
X57072Y-62828D01*
X57072Y-62399D01*
X57072Y-63467D01*
X57072Y-63467D01*
X57072Y-63053D01*
X57010Y-62990D01*
X56380Y-62990D01*
X56380Y-62998D01*
X56280Y-62998D01*
X56280Y-62990D01*
X56280Y-62890D01*
X56280Y-62261D01*
X56280Y-61258D01*
X56280Y-60628D01*
X56280Y-60528D01*
X56280Y-59899D01*
X56280Y-58896D01*
X56280Y-58266D01*
X56280Y-58166D01*
X56280Y-57536D01*
X56218Y-57474D01*
X55888Y-57474D01*
X55788Y-57474D01*
X55696Y-57512D01*
X55626Y-57582D01*
X55588Y-57674D01*
X55588Y-58104D01*
X55651Y-58166D01*
X56280Y-58166D01*
X56280Y-58266D01*
X55651Y-58266D01*
X55588Y-58329D01*
X55588Y-58758D01*
X55626Y-58850D01*
X55696Y-58920D01*
X55788Y-58958D01*
X55888Y-58958D01*
X56218Y-58958D01*
X56280Y-58896D01*
X56280Y-59899D01*
X56218Y-59836D01*
X55888Y-59836D01*
X55788Y-59836D01*
X55696Y-59874D01*
X55626Y-59945D01*
X55588Y-60037D01*
X55588Y-60466D01*
X55651Y-60528D01*
X56280Y-60528D01*
X56280Y-60628D01*
X55651Y-60628D01*
X55588Y-60691D01*
X55588Y-61120D01*
X55626Y-61212D01*
X55696Y-61282D01*
X55788Y-61320D01*
X55888Y-61320D01*
X56218Y-61320D01*
X56280Y-61258D01*
X56280Y-62261D01*
X56218Y-62198D01*
X55888Y-62198D01*
X55788Y-62198D01*
X55696Y-62237D01*
X55626Y-62307D01*
X55588Y-62399D01*
X55588Y-62828D01*
X55651Y-62890D01*
X56280Y-62890D01*
X56280Y-62990D01*
X55651Y-62990D01*
X55588Y-63053D01*
X55588Y-63467D01*
X55367Y-63467D01*
X55163Y-63467D01*
X55191Y-63439D01*
X55146Y-63395D01*
X55262Y-63344D01*
X55367Y-63068D01*
X55364Y-62935D01*
X55364Y-60431D01*
X55364Y-58069D01*
X55251Y-57796D01*
X55042Y-57587D01*
X54770Y-57474D01*
X54475Y-57474D01*
X54202Y-57587D01*
X53993Y-57795D01*
X53880Y-58068D01*
X53879Y-58363D01*
X53992Y-58636D01*
X54201Y-58845D01*
X54473Y-58958D01*
X54769Y-58958D01*
X55041Y-58846D01*
X55250Y-58637D01*
X55364Y-58364D01*
X55364Y-58069D01*
X55364Y-60431D01*
X55251Y-60158D01*
X55042Y-59949D01*
X54770Y-59836D01*
X54475Y-59836D01*
X54202Y-59949D01*
X53993Y-60157D01*
X53880Y-60430D01*
X53879Y-60725D01*
X53992Y-60998D01*
X54201Y-61207D01*
X54473Y-61320D01*
X54769Y-61320D01*
X55041Y-61208D01*
X55250Y-60999D01*
X55364Y-60727D01*
X55364Y-60431D01*
X55364Y-62935D01*
X55359Y-62773D01*
X55262Y-62537D01*
X55146Y-62486D01*
X55076Y-62557D01*
X55076Y-62416D01*
X55025Y-62300D01*
X54749Y-62195D01*
X54454Y-62203D01*
X54218Y-62300D01*
X54167Y-62416D01*
X54622Y-62870D01*
X55076Y-62416D01*
X55076Y-62557D01*
X54692Y-62940D01*
X54698Y-62946D01*
X54627Y-63017D01*
X54622Y-63011D01*
X54616Y-63017D01*
X54551Y-62952D01*
X54545Y-62946D01*
X54551Y-62940D01*
X54097Y-62486D01*
X53981Y-62537D01*
X53876Y-62813D01*
X53884Y-63108D01*
X53981Y-63344D01*
X54097Y-63395D01*
X54052Y-63439D01*
X54080Y-63467D01*
X48572Y-63467D01*
X48572Y-62399D01*
X48572Y-61120D01*
X48572Y-60037D01*
X48572Y-58758D01*
X48572Y-57674D01*
X48534Y-57582D01*
X48464Y-57512D01*
X48372Y-57474D01*
X48273Y-57474D01*
X47943Y-57474D01*
X47880Y-57536D01*
X47880Y-58166D01*
X48510Y-58166D01*
X48572Y-58104D01*
X48572Y-57674D01*
X48572Y-58758D01*
X48572Y-58329D01*
X48510Y-58266D01*
X47880Y-58266D01*
X47880Y-58896D01*
X47943Y-58958D01*
X48273Y-58958D01*
X48372Y-58958D01*
X48464Y-58920D01*
X48534Y-58850D01*
X48572Y-58758D01*
X48572Y-60037D01*
X48534Y-59945D01*
X48464Y-59874D01*
X48372Y-59836D01*
X48273Y-59836D01*
X47943Y-59836D01*
X47880Y-59899D01*
X47880Y-60528D01*
X48510Y-60528D01*
X48572Y-60466D01*
X48572Y-60037D01*
X48572Y-61120D01*
X48572Y-60691D01*
X48510Y-60628D01*
X47880Y-60628D01*
X47880Y-61258D01*
X47943Y-61320D01*
X48273Y-61320D01*
X48372Y-61320D01*
X48464Y-61282D01*
X48534Y-61212D01*
X48572Y-61120D01*
X48572Y-62399D01*
X48534Y-62307D01*
X48464Y-62237D01*
X48372Y-62198D01*
X48273Y-62198D01*
X47943Y-62198D01*
X47880Y-62261D01*
X47880Y-62890D01*
X48510Y-62890D01*
X48572Y-62828D01*
X48572Y-62399D01*
X48572Y-63467D01*
X48572Y-63467D01*
X48572Y-63053D01*
X48510Y-62990D01*
X47880Y-62990D01*
X47880Y-62998D01*
X47780Y-62998D01*
X47780Y-62990D01*
X47780Y-62890D01*
X47780Y-62261D01*
X47780Y-61258D01*
X47780Y-60628D01*
X47780Y-60528D01*
X47780Y-59899D01*
X47780Y-58896D01*
X47780Y-58266D01*
X47780Y-58166D01*
X47780Y-57536D01*
X47718Y-57474D01*
X47388Y-57474D01*
X47288Y-57474D01*
X47196Y-57512D01*
X47126Y-57582D01*
X47088Y-57674D01*
X47088Y-58104D01*
X47151Y-58166D01*
X47780Y-58166D01*
X47780Y-58266D01*
X47151Y-58266D01*
X47088Y-58329D01*
X47088Y-58758D01*
X47126Y-58850D01*
X47196Y-58920D01*
X47288Y-58958D01*
X47388Y-58958D01*
X47718Y-58958D01*
X47780Y-58896D01*
X47780Y-59899D01*
X47718Y-59836D01*
X47388Y-59836D01*
X47288Y-59836D01*
X47196Y-59874D01*
X47126Y-59945D01*
X47088Y-60037D01*
X47088Y-60466D01*
X47151Y-60528D01*
X47780Y-60528D01*
X47780Y-60628D01*
X47151Y-60628D01*
X47088Y-60691D01*
X47088Y-61120D01*
X47126Y-61212D01*
X47196Y-61282D01*
X47288Y-61320D01*
X47388Y-61320D01*
X47718Y-61320D01*
X47780Y-61258D01*
X47780Y-62261D01*
X47718Y-62198D01*
X47388Y-62198D01*
X47288Y-62198D01*
X47196Y-62237D01*
X47126Y-62307D01*
X47088Y-62399D01*
X47088Y-62828D01*
X47151Y-62890D01*
X47780Y-62890D01*
X47780Y-62990D01*
X47151Y-62990D01*
X47088Y-63053D01*
X47088Y-63467D01*
X46000Y-63467D01*
X46000Y-57041D01*
X45916Y-56838D01*
X45761Y-56684D01*
X45680Y-56650D01*
X45761Y-56616D01*
X45915Y-56461D01*
X45999Y-56259D01*
X46000Y-56041D01*
X45916Y-55838D01*
X45761Y-55684D01*
X45559Y-55600D01*
X45341Y-55599D01*
X45138Y-55683D01*
X44984Y-55838D01*
X44900Y-56040D01*
X44899Y-56258D01*
X44983Y-56461D01*
X45138Y-56615D01*
X45219Y-56649D01*
X45138Y-56683D01*
X44984Y-56838D01*
X44900Y-57040D01*
X44899Y-57258D01*
X44983Y-57461D01*
X45122Y-57599D01*
X45100Y-57599D01*
X45008Y-57637D01*
X44938Y-57708D01*
X44900Y-57800D01*
X44899Y-57899D01*
X44899Y-58499D01*
X44937Y-58591D01*
X45008Y-58661D01*
X45100Y-58699D01*
X45115Y-58699D01*
X45115Y-59550D01*
X45125Y-59600D01*
X45124Y-59734D01*
X45189Y-59890D01*
X45308Y-60010D01*
X45465Y-60074D01*
X45634Y-60075D01*
X45790Y-60010D01*
X45910Y-59891D01*
X45974Y-59734D01*
X45975Y-59565D01*
X45910Y-59409D01*
X45791Y-59289D01*
X45785Y-59287D01*
X45785Y-58700D01*
X45799Y-58700D01*
X45891Y-58662D01*
X45961Y-58591D01*
X45999Y-58499D01*
X46000Y-58400D01*
X46000Y-57800D01*
X45962Y-57708D01*
X45891Y-57638D01*
X45799Y-57600D01*
X45777Y-57600D01*
X45915Y-57461D01*
X45999Y-57259D01*
X46000Y-57041D01*
X46000Y-63467D01*
X43610Y-63467D01*
X43610Y-57933D01*
X43545Y-57777D01*
X43510Y-57741D01*
X43510Y-57043D01*
X43545Y-57008D01*
X43609Y-56852D01*
X43610Y-56683D01*
X43545Y-56527D01*
X43426Y-56407D01*
X43269Y-56342D01*
X43100Y-56342D01*
X42944Y-56407D01*
X42824Y-56526D01*
X42760Y-56682D01*
X42759Y-56851D01*
X42824Y-57008D01*
X42860Y-57043D01*
X42860Y-57741D01*
X42824Y-57776D01*
X42760Y-57932D01*
X42759Y-58101D01*
X42824Y-58258D01*
X42943Y-58377D01*
X43100Y-58442D01*
X43269Y-58442D01*
X43425Y-58378D01*
X43545Y-58258D01*
X43609Y-58102D01*
X43610Y-57933D01*
X43610Y-63467D01*
X42135Y-63467D01*
X42135Y-47402D01*
X42135Y-46817D01*
X42135Y-46717D01*
X42135Y-46132D01*
X42048Y-46084D01*
X42016Y-46091D01*
X41824Y-46196D01*
X41686Y-46367D01*
X41685Y-46373D01*
X41683Y-46367D01*
X41545Y-46196D01*
X41353Y-46091D01*
X41321Y-46084D01*
X41235Y-46132D01*
X41235Y-46717D01*
X41625Y-46717D01*
X41745Y-46717D01*
X42135Y-46717D01*
X42135Y-46817D01*
X41745Y-46817D01*
X41625Y-46817D01*
X41235Y-46817D01*
X41235Y-47402D01*
X41321Y-47450D01*
X41353Y-47444D01*
X41545Y-47339D01*
X41683Y-47168D01*
X41685Y-47162D01*
X41686Y-47168D01*
X41824Y-47339D01*
X42016Y-47444D01*
X42048Y-47450D01*
X42135Y-47402D01*
X42135Y-63467D01*
X41135Y-63467D01*
X41135Y-47402D01*
X41135Y-46817D01*
X41127Y-46817D01*
X41127Y-46717D01*
X41135Y-46717D01*
X41135Y-46132D01*
X41048Y-46084D01*
X41016Y-46091D01*
X40824Y-46196D01*
X40686Y-46367D01*
X40684Y-46373D01*
X40581Y-46218D01*
X40399Y-46096D01*
X40185Y-46054D01*
X39970Y-46096D01*
X39789Y-46218D01*
X39685Y-46373D01*
X39581Y-46218D01*
X39399Y-46096D01*
X39185Y-46054D01*
X38970Y-46096D01*
X38789Y-46218D01*
X38685Y-46373D01*
X38683Y-46367D01*
X38545Y-46196D01*
X38353Y-46091D01*
X38321Y-46084D01*
X38235Y-46132D01*
X38235Y-46717D01*
X38242Y-46717D01*
X38242Y-46817D01*
X38235Y-46817D01*
X38235Y-47402D01*
X38321Y-47450D01*
X38353Y-47444D01*
X38545Y-47339D01*
X38683Y-47168D01*
X38685Y-47161D01*
X38789Y-47317D01*
X38970Y-47438D01*
X39185Y-47481D01*
X39399Y-47438D01*
X39581Y-47317D01*
X39685Y-47161D01*
X39789Y-47317D01*
X39970Y-47438D01*
X40185Y-47481D01*
X40399Y-47438D01*
X40581Y-47317D01*
X40684Y-47161D01*
X40686Y-47168D01*
X40824Y-47339D01*
X41016Y-47444D01*
X41048Y-47450D01*
X41135Y-47402D01*
X41135Y-63467D01*
X38135Y-63467D01*
X38135Y-47402D01*
X38135Y-46817D01*
X38127Y-46817D01*
X38127Y-46717D01*
X38135Y-46717D01*
X38135Y-46132D01*
X38135Y-44402D01*
X38135Y-43817D01*
X38127Y-43817D01*
X38127Y-43717D01*
X38135Y-43717D01*
X38135Y-43132D01*
X38048Y-43084D01*
X38016Y-43091D01*
X37824Y-43196D01*
X37686Y-43367D01*
X37684Y-43373D01*
X37581Y-43218D01*
X37399Y-43096D01*
X37254Y-43067D01*
X37254Y-35831D01*
X37243Y-35613D01*
X37181Y-35462D01*
X37085Y-35434D01*
X37015Y-35505D01*
X37015Y-35364D01*
X36987Y-35268D01*
X36781Y-35195D01*
X36563Y-35206D01*
X36412Y-35268D01*
X36384Y-35364D01*
X36700Y-35679D01*
X37015Y-35364D01*
X37015Y-35505D01*
X36770Y-35750D01*
X37085Y-36065D01*
X37181Y-36037D01*
X37254Y-35831D01*
X37254Y-43067D01*
X37185Y-43054D01*
X37015Y-43087D01*
X37015Y-36135D01*
X36700Y-35820D01*
X36629Y-35891D01*
X36629Y-35750D01*
X36314Y-35434D01*
X36250Y-35453D01*
X36250Y-35400D01*
X36212Y-35308D01*
X36178Y-35275D01*
X36178Y-26013D01*
X36170Y-25718D01*
X36073Y-25482D01*
X35958Y-25431D01*
X35887Y-25502D01*
X35887Y-25360D01*
X35836Y-25245D01*
X35560Y-25140D01*
X35265Y-25147D01*
X35029Y-25245D01*
X34978Y-25360D01*
X35433Y-25815D01*
X35887Y-25360D01*
X35887Y-25502D01*
X35503Y-25885D01*
X35958Y-26340D01*
X36073Y-26289D01*
X36178Y-26013D01*
X36178Y-35275D01*
X36175Y-35271D01*
X36175Y-30463D01*
X36175Y-28101D01*
X36062Y-27828D01*
X35887Y-27652D01*
X35887Y-26410D01*
X35433Y-25956D01*
X35362Y-26027D01*
X35362Y-25885D01*
X34908Y-25431D01*
X34792Y-25482D01*
X34687Y-25758D01*
X34695Y-26053D01*
X34792Y-26289D01*
X34908Y-26340D01*
X35362Y-25885D01*
X35362Y-26027D01*
X34978Y-26410D01*
X35029Y-26526D01*
X35305Y-26631D01*
X35600Y-26623D01*
X35836Y-26526D01*
X35887Y-26410D01*
X35887Y-27652D01*
X35854Y-27619D01*
X35581Y-27506D01*
X35286Y-27505D01*
X35013Y-27618D01*
X34804Y-27827D01*
X34691Y-28099D01*
X34690Y-28395D01*
X34803Y-28667D01*
X35012Y-28876D01*
X35284Y-28990D01*
X35580Y-28990D01*
X35852Y-28877D01*
X36061Y-28668D01*
X36175Y-28396D01*
X36175Y-28101D01*
X36175Y-30463D01*
X36062Y-30190D01*
X35854Y-29981D01*
X35581Y-29868D01*
X35286Y-29867D01*
X35013Y-29980D01*
X34804Y-30189D01*
X34691Y-30461D01*
X34690Y-30757D01*
X34803Y-31030D01*
X35012Y-31239D01*
X35284Y-31352D01*
X35580Y-31352D01*
X35852Y-31239D01*
X36061Y-31031D01*
X36175Y-30758D01*
X36175Y-30463D01*
X36175Y-35271D01*
X36141Y-35238D01*
X36049Y-35200D01*
X35950Y-35199D01*
X35350Y-35199D01*
X35258Y-35237D01*
X35188Y-35308D01*
X35150Y-35400D01*
X35149Y-35499D01*
X35149Y-36099D01*
X35187Y-36191D01*
X35258Y-36261D01*
X35350Y-36299D01*
X35449Y-36300D01*
X36049Y-36300D01*
X36141Y-36262D01*
X36211Y-36191D01*
X36249Y-36099D01*
X36250Y-36046D01*
X36314Y-36065D01*
X36629Y-35750D01*
X36629Y-35891D01*
X36384Y-36135D01*
X36412Y-36231D01*
X36618Y-36304D01*
X36836Y-36293D01*
X36987Y-36231D01*
X37015Y-36135D01*
X37015Y-43087D01*
X36970Y-43096D01*
X36789Y-43218D01*
X36685Y-43373D01*
X36581Y-43218D01*
X36399Y-43096D01*
X36185Y-43054D01*
X35970Y-43096D01*
X35789Y-43218D01*
X35685Y-43373D01*
X35581Y-43218D01*
X35399Y-43096D01*
X35185Y-43054D01*
X34970Y-43096D01*
X34789Y-43218D01*
X34667Y-43399D01*
X34625Y-43614D01*
X34625Y-43921D01*
X34667Y-44135D01*
X34789Y-44317D01*
X34970Y-44438D01*
X35185Y-44481D01*
X35399Y-44438D01*
X35581Y-44317D01*
X35685Y-44161D01*
X35789Y-44317D01*
X35860Y-44364D01*
X35860Y-45092D01*
X35850Y-45092D01*
X35694Y-45157D01*
X35574Y-45276D01*
X35510Y-45432D01*
X35509Y-45601D01*
X35574Y-45758D01*
X35693Y-45877D01*
X35850Y-45942D01*
X36019Y-45942D01*
X36175Y-45878D01*
X36295Y-45758D01*
X36359Y-45602D01*
X36360Y-45552D01*
X36414Y-45497D01*
X36414Y-45497D01*
X36414Y-45497D01*
X36485Y-45392D01*
X36485Y-45392D01*
X36510Y-45267D01*
X36510Y-44364D01*
X36581Y-44317D01*
X36685Y-44161D01*
X36789Y-44317D01*
X36970Y-44438D01*
X37185Y-44481D01*
X37399Y-44438D01*
X37581Y-44317D01*
X37684Y-44161D01*
X37686Y-44168D01*
X37824Y-44339D01*
X38016Y-44444D01*
X38048Y-44450D01*
X38135Y-44402D01*
X38135Y-46132D01*
X38048Y-46084D01*
X38016Y-46091D01*
X37824Y-46196D01*
X37686Y-46367D01*
X37684Y-46373D01*
X37581Y-46218D01*
X37399Y-46096D01*
X37185Y-46054D01*
X36970Y-46096D01*
X36789Y-46218D01*
X36685Y-46373D01*
X36581Y-46218D01*
X36399Y-46096D01*
X36185Y-46054D01*
X35970Y-46096D01*
X35789Y-46218D01*
X35685Y-46373D01*
X35581Y-46218D01*
X35399Y-46096D01*
X35185Y-46054D01*
X34970Y-46096D01*
X34789Y-46218D01*
X34667Y-46399D01*
X34625Y-46614D01*
X34625Y-46921D01*
X34667Y-47135D01*
X34789Y-47317D01*
X34826Y-47342D01*
X34305Y-47342D01*
X34305Y-31151D01*
X34305Y-30068D01*
X34305Y-28789D01*
X34305Y-27706D01*
X34305Y-26427D01*
X34305Y-25344D01*
X34267Y-25252D01*
X34196Y-25181D01*
X34105Y-25143D01*
X34005Y-25143D01*
X33675Y-25143D01*
X33612Y-25206D01*
X33612Y-25835D01*
X34242Y-25835D01*
X34305Y-25773D01*
X34305Y-25344D01*
X34305Y-26427D01*
X34305Y-25998D01*
X34242Y-25935D01*
X33612Y-25935D01*
X33612Y-26565D01*
X33675Y-26627D01*
X34005Y-26627D01*
X34105Y-26627D01*
X34196Y-26589D01*
X34267Y-26519D01*
X34305Y-26427D01*
X34305Y-27706D01*
X34267Y-27614D01*
X34196Y-27544D01*
X34105Y-27505D01*
X34005Y-27505D01*
X33675Y-27505D01*
X33612Y-27568D01*
X33612Y-28198D01*
X34242Y-28198D01*
X34305Y-28135D01*
X34305Y-27706D01*
X34305Y-28789D01*
X34305Y-28360D01*
X34242Y-28298D01*
X33612Y-28298D01*
X33612Y-28927D01*
X33675Y-28990D01*
X34005Y-28990D01*
X34105Y-28990D01*
X34196Y-28951D01*
X34267Y-28881D01*
X34305Y-28789D01*
X34305Y-30068D01*
X34267Y-29976D01*
X34196Y-29906D01*
X34105Y-29868D01*
X34005Y-29868D01*
X33675Y-29868D01*
X33612Y-29930D01*
X33612Y-30560D01*
X34242Y-30560D01*
X34305Y-30497D01*
X34305Y-30068D01*
X34305Y-31151D01*
X34305Y-30722D01*
X34242Y-30660D01*
X33612Y-30660D01*
X33612Y-31289D01*
X33675Y-31352D01*
X34005Y-31352D01*
X34105Y-31352D01*
X34196Y-31314D01*
X34267Y-31243D01*
X34305Y-31151D01*
X34305Y-47342D01*
X33850Y-47342D01*
X33850Y-37750D01*
X33850Y-37150D01*
X33812Y-37058D01*
X33741Y-36988D01*
X33649Y-36950D01*
X33635Y-36950D01*
X33635Y-36562D01*
X33640Y-36560D01*
X33760Y-36441D01*
X33824Y-36284D01*
X33825Y-36115D01*
X33760Y-35959D01*
X33641Y-35839D01*
X33512Y-35786D01*
X33512Y-31289D01*
X33512Y-30660D01*
X33512Y-30560D01*
X33512Y-29930D01*
X33512Y-28927D01*
X33512Y-28298D01*
X33512Y-28198D01*
X33512Y-27568D01*
X33512Y-26565D01*
X33512Y-25935D01*
X33512Y-25835D01*
X33512Y-25206D01*
X33450Y-25143D01*
X33120Y-25143D01*
X33020Y-25143D01*
X32929Y-25181D01*
X32858Y-25252D01*
X32820Y-25344D01*
X32820Y-25773D01*
X32883Y-25835D01*
X33512Y-25835D01*
X33512Y-25935D01*
X32883Y-25935D01*
X32820Y-25998D01*
X32820Y-26427D01*
X32858Y-26519D01*
X32929Y-26589D01*
X33020Y-26627D01*
X33120Y-26627D01*
X33450Y-26627D01*
X33512Y-26565D01*
X33512Y-27568D01*
X33450Y-27505D01*
X33120Y-27505D01*
X33020Y-27505D01*
X32929Y-27544D01*
X32858Y-27614D01*
X32820Y-27706D01*
X32820Y-28135D01*
X32883Y-28198D01*
X33512Y-28198D01*
X33512Y-28298D01*
X32883Y-28298D01*
X32820Y-28360D01*
X32820Y-28789D01*
X32858Y-28881D01*
X32929Y-28951D01*
X33020Y-28990D01*
X33120Y-28990D01*
X33450Y-28990D01*
X33512Y-28927D01*
X33512Y-29930D01*
X33450Y-29868D01*
X33120Y-29868D01*
X33020Y-29868D01*
X32929Y-29906D01*
X32858Y-29976D01*
X32820Y-30068D01*
X32820Y-30497D01*
X32883Y-30560D01*
X33512Y-30560D01*
X33512Y-30660D01*
X32883Y-30660D01*
X32820Y-30722D01*
X32820Y-31151D01*
X32858Y-31243D01*
X32929Y-31314D01*
X33020Y-31352D01*
X33120Y-31352D01*
X33450Y-31352D01*
X33512Y-31289D01*
X33512Y-35786D01*
X33484Y-35775D01*
X33315Y-35774D01*
X33159Y-35839D01*
X33039Y-35958D01*
X32975Y-36115D01*
X32974Y-36249D01*
X32965Y-36300D01*
X32965Y-36949D01*
X32950Y-36949D01*
X32858Y-36987D01*
X32788Y-37058D01*
X32750Y-37150D01*
X32750Y-37172D01*
X32611Y-37034D01*
X32409Y-36950D01*
X32191Y-36949D01*
X31988Y-37033D01*
X31834Y-37188D01*
X31800Y-37269D01*
X31766Y-37188D01*
X31611Y-37034D01*
X31409Y-36950D01*
X31191Y-36949D01*
X30988Y-37033D01*
X30834Y-37188D01*
X30750Y-37390D01*
X30749Y-37608D01*
X30833Y-37811D01*
X30988Y-37965D01*
X31190Y-38049D01*
X31408Y-38050D01*
X31611Y-37966D01*
X31765Y-37811D01*
X31799Y-37730D01*
X31833Y-37811D01*
X31988Y-37965D01*
X32190Y-38049D01*
X32408Y-38050D01*
X32611Y-37966D01*
X32749Y-37827D01*
X32749Y-37849D01*
X32787Y-37941D01*
X32858Y-38011D01*
X32950Y-38049D01*
X33049Y-38050D01*
X33649Y-38050D01*
X33741Y-38012D01*
X33811Y-37941D01*
X33849Y-37849D01*
X33850Y-37750D01*
X33850Y-47342D01*
X32735Y-47342D01*
X32580Y-47342D01*
X32567Y-47329D01*
X32662Y-47302D01*
X32735Y-47098D01*
X32724Y-46881D01*
X32662Y-46732D01*
X32567Y-46705D01*
X32255Y-47017D01*
X32261Y-47023D01*
X32190Y-47093D01*
X32185Y-47088D01*
X32179Y-47093D01*
X32114Y-47028D01*
X32108Y-47023D01*
X32114Y-47017D01*
X31802Y-46705D01*
X31707Y-46732D01*
X31634Y-46937D01*
X31645Y-47153D01*
X31707Y-47302D01*
X31802Y-47329D01*
X31789Y-47342D01*
X31219Y-47342D01*
X30510Y-46633D01*
X30510Y-44152D01*
X30692Y-43969D01*
X30747Y-44025D01*
X30839Y-44063D01*
X30868Y-44063D01*
X30722Y-44208D01*
X30639Y-44408D01*
X30639Y-44625D01*
X30722Y-44826D01*
X30875Y-44979D01*
X30966Y-45017D01*
X30876Y-45054D01*
X30722Y-45208D01*
X30639Y-45408D01*
X30639Y-45625D01*
X30722Y-45826D01*
X30875Y-45979D01*
X30966Y-46017D01*
X30876Y-46054D01*
X30722Y-46208D01*
X30639Y-46408D01*
X30639Y-46625D01*
X30722Y-46826D01*
X30875Y-46979D01*
X31076Y-47063D01*
X31293Y-47063D01*
X31493Y-46980D01*
X31647Y-46827D01*
X31730Y-46626D01*
X31730Y-46409D01*
X31647Y-46209D01*
X31494Y-46055D01*
X31403Y-46017D01*
X31493Y-45980D01*
X31647Y-45827D01*
X31730Y-45626D01*
X31730Y-45409D01*
X31647Y-45209D01*
X31494Y-45055D01*
X31403Y-45017D01*
X31493Y-44980D01*
X31647Y-44827D01*
X31730Y-44626D01*
X31730Y-44409D01*
X31647Y-44209D01*
X31502Y-44063D01*
X31530Y-44063D01*
X31621Y-44025D01*
X31639Y-44007D01*
X31639Y-44125D01*
X31722Y-44326D01*
X31875Y-44479D01*
X31966Y-44517D01*
X31876Y-44554D01*
X31722Y-44708D01*
X31639Y-44908D01*
X31639Y-45125D01*
X31722Y-45326D01*
X31875Y-45479D01*
X31966Y-45517D01*
X31876Y-45554D01*
X31722Y-45708D01*
X31639Y-45908D01*
X31639Y-46125D01*
X31722Y-46326D01*
X31875Y-46479D01*
X31960Y-46515D01*
X31899Y-46540D01*
X31873Y-46635D01*
X32185Y-46947D01*
X32496Y-46635D01*
X32470Y-46540D01*
X32405Y-46517D01*
X32493Y-46480D01*
X32647Y-46327D01*
X32730Y-46126D01*
X32730Y-45909D01*
X32647Y-45709D01*
X32494Y-45555D01*
X32403Y-45517D01*
X32493Y-45480D01*
X32647Y-45327D01*
X32730Y-45126D01*
X32730Y-44909D01*
X32647Y-44709D01*
X32494Y-44555D01*
X32403Y-44517D01*
X32493Y-44480D01*
X32647Y-44327D01*
X32730Y-44126D01*
X32730Y-43909D01*
X32647Y-43709D01*
X32494Y-43555D01*
X32294Y-43472D01*
X32077Y-43472D01*
X31876Y-43554D01*
X31730Y-43700D01*
X31730Y-43172D01*
X31692Y-43080D01*
X31622Y-43010D01*
X31530Y-42972D01*
X31431Y-42972D01*
X30840Y-42972D01*
X30748Y-43010D01*
X30677Y-43080D01*
X30639Y-43172D01*
X30639Y-43201D01*
X30587Y-43212D01*
X30587Y-42078D01*
X30481Y-41820D01*
X30283Y-41622D01*
X30025Y-41515D01*
X29745Y-41514D01*
X29487Y-41621D01*
X29289Y-41819D01*
X29182Y-42077D01*
X29182Y-42175D01*
X28878Y-42049D01*
X28504Y-42049D01*
X28504Y-36081D01*
X28493Y-35863D01*
X28431Y-35712D01*
X28335Y-35684D01*
X28265Y-35755D01*
X28265Y-35614D01*
X28237Y-35518D01*
X28031Y-35445D01*
X27813Y-35456D01*
X27662Y-35518D01*
X27634Y-35614D01*
X27950Y-35929D01*
X28265Y-35614D01*
X28265Y-35755D01*
X28020Y-36000D01*
X28335Y-36315D01*
X28431Y-36287D01*
X28504Y-36081D01*
X28504Y-42049D01*
X28493Y-42049D01*
X28265Y-42143D01*
X28265Y-36385D01*
X27950Y-36070D01*
X27879Y-36141D01*
X27879Y-36000D01*
X27564Y-35684D01*
X27517Y-35698D01*
X27517Y-26013D01*
X27509Y-25718D01*
X27411Y-25482D01*
X27296Y-25431D01*
X27225Y-25502D01*
X27225Y-25360D01*
X27174Y-25245D01*
X26899Y-25140D01*
X26604Y-25147D01*
X26368Y-25245D01*
X26317Y-25360D01*
X26771Y-25815D01*
X27225Y-25360D01*
X27225Y-25502D01*
X26842Y-25885D01*
X27296Y-26340D01*
X27411Y-26289D01*
X27517Y-26013D01*
X27517Y-35698D01*
X27513Y-35699D01*
X27513Y-30463D01*
X27513Y-28101D01*
X27401Y-27828D01*
X27225Y-27652D01*
X27225Y-26410D01*
X26771Y-25956D01*
X26700Y-26027D01*
X26700Y-25885D01*
X26246Y-25431D01*
X26131Y-25482D01*
X26025Y-25758D01*
X26033Y-26053D01*
X26131Y-26289D01*
X26246Y-26340D01*
X26700Y-25885D01*
X26700Y-26027D01*
X26317Y-26410D01*
X26368Y-26526D01*
X26644Y-26631D01*
X26939Y-26623D01*
X27174Y-26526D01*
X27225Y-26410D01*
X27225Y-27652D01*
X27192Y-27619D01*
X26919Y-27506D01*
X26624Y-27505D01*
X26351Y-27618D01*
X26142Y-27827D01*
X26029Y-28099D01*
X26029Y-28395D01*
X26142Y-28667D01*
X26350Y-28876D01*
X26623Y-28990D01*
X26918Y-28990D01*
X27191Y-28877D01*
X27400Y-28668D01*
X27513Y-28396D01*
X27513Y-28101D01*
X27513Y-30463D01*
X27401Y-30190D01*
X27192Y-29981D01*
X26919Y-29868D01*
X26624Y-29867D01*
X26351Y-29980D01*
X26142Y-30189D01*
X26029Y-30461D01*
X26029Y-30757D01*
X26142Y-31030D01*
X26350Y-31239D01*
X26623Y-31352D01*
X26918Y-31352D01*
X27191Y-31239D01*
X27400Y-31031D01*
X27513Y-30758D01*
X27513Y-30463D01*
X27513Y-35699D01*
X27500Y-35703D01*
X27500Y-35650D01*
X27462Y-35558D01*
X27391Y-35488D01*
X27299Y-35450D01*
X27200Y-35449D01*
X26600Y-35449D01*
X26508Y-35487D01*
X26438Y-35558D01*
X26400Y-35650D01*
X26399Y-35749D01*
X26399Y-36349D01*
X26437Y-36441D01*
X26508Y-36511D01*
X26600Y-36549D01*
X26699Y-36550D01*
X27299Y-36550D01*
X27391Y-36512D01*
X27461Y-36441D01*
X27499Y-36349D01*
X27500Y-36296D01*
X27564Y-36315D01*
X27879Y-36000D01*
X27879Y-36141D01*
X27634Y-36385D01*
X27662Y-36481D01*
X27868Y-36554D01*
X28086Y-36543D01*
X28237Y-36481D01*
X28265Y-36385D01*
X28265Y-42143D01*
X28137Y-42196D01*
X27864Y-42468D01*
X27716Y-42824D01*
X27716Y-43209D01*
X27863Y-43565D01*
X28135Y-43838D01*
X28491Y-43986D01*
X28876Y-43986D01*
X29232Y-43839D01*
X29505Y-43567D01*
X29653Y-43211D01*
X29653Y-42882D01*
X29744Y-42920D01*
X30024Y-42920D01*
X30282Y-42813D01*
X30480Y-42616D01*
X30587Y-42358D01*
X30587Y-42078D01*
X30587Y-43212D01*
X30560Y-43217D01*
X30518Y-43245D01*
X30455Y-43287D01*
X30455Y-43287D01*
X29955Y-43787D01*
X29884Y-43893D01*
X29860Y-44017D01*
X29860Y-46767D01*
X29884Y-46892D01*
X29955Y-46997D01*
X30855Y-47897D01*
X30960Y-47967D01*
X30960Y-47967D01*
X31085Y-47992D01*
X35285Y-47992D01*
X35409Y-47967D01*
X35409Y-47967D01*
X35514Y-47897D01*
X35973Y-47439D01*
X36185Y-47481D01*
X36399Y-47438D01*
X36581Y-47317D01*
X36685Y-47161D01*
X36789Y-47317D01*
X36970Y-47438D01*
X37185Y-47481D01*
X37399Y-47438D01*
X37581Y-47317D01*
X37684Y-47161D01*
X37686Y-47168D01*
X37824Y-47339D01*
X38016Y-47444D01*
X38048Y-47450D01*
X38135Y-47402D01*
X38135Y-63467D01*
X33205Y-63467D01*
X30587Y-60849D01*
X30587Y-48178D01*
X30481Y-47920D01*
X30283Y-47722D01*
X30025Y-47615D01*
X29745Y-47614D01*
X29653Y-47653D01*
X29653Y-47325D01*
X29506Y-46969D01*
X29234Y-46697D01*
X28878Y-46549D01*
X28493Y-46549D01*
X28137Y-46696D01*
X27864Y-46968D01*
X27716Y-47324D01*
X27716Y-47709D01*
X27863Y-48065D01*
X28135Y-48338D01*
X28491Y-48486D01*
X28876Y-48486D01*
X29182Y-48360D01*
X29182Y-48456D01*
X29288Y-48715D01*
X29486Y-48913D01*
X29744Y-49020D01*
X30024Y-49020D01*
X30282Y-48913D01*
X30480Y-48716D01*
X30587Y-48458D01*
X30587Y-48178D01*
X30587Y-60849D01*
X27630Y-57892D01*
X27630Y-47759D01*
X27547Y-47559D01*
X27394Y-47405D01*
X27303Y-47367D01*
X27393Y-47330D01*
X27547Y-47177D01*
X27630Y-46976D01*
X27630Y-46759D01*
X27630Y-43534D01*
X27547Y-43334D01*
X27394Y-43180D01*
X27333Y-43155D01*
X27393Y-43130D01*
X27547Y-42977D01*
X27630Y-42776D01*
X27630Y-42559D01*
X27547Y-42359D01*
X27394Y-42205D01*
X27194Y-42122D01*
X26977Y-42122D01*
X26776Y-42204D01*
X26622Y-42358D01*
X26539Y-42558D01*
X26539Y-42775D01*
X26622Y-42976D01*
X26775Y-43129D01*
X26836Y-43155D01*
X26776Y-43179D01*
X26622Y-43333D01*
X26539Y-43533D01*
X26539Y-43750D01*
X26622Y-43951D01*
X26775Y-44104D01*
X26976Y-44188D01*
X27193Y-44188D01*
X27393Y-44105D01*
X27547Y-43952D01*
X27630Y-43751D01*
X27630Y-43534D01*
X27630Y-46759D01*
X27547Y-46559D01*
X27394Y-46405D01*
X27194Y-46322D01*
X26977Y-46322D01*
X26776Y-46404D01*
X26622Y-46558D01*
X26539Y-46758D01*
X26539Y-46975D01*
X26622Y-47176D01*
X26775Y-47329D01*
X26866Y-47367D01*
X26776Y-47404D01*
X26622Y-47558D01*
X26539Y-47758D01*
X26539Y-47975D01*
X26622Y-48176D01*
X26775Y-48329D01*
X26976Y-48413D01*
X27193Y-48413D01*
X27393Y-48330D01*
X27547Y-48177D01*
X27630Y-47976D01*
X27630Y-47759D01*
X27630Y-57892D01*
X25985Y-56247D01*
X25985Y-25072D01*
X56919Y-25072D01*
X64135Y-32288D01*
X64135Y-63467D01*
M02*
