M48
INCH,TZ
T1C0.025
T2C0.032
T3C0.035
T4C0.040
T5C0.040
T6C0.047
T7C0.055
T8C0.064
%
G90
G05
T1
X28185Y-39768
X29185Y-49768
X32685Y-33518
X33400Y-36200
X35685Y-39268
X35935Y-45518
X36185Y-49768
X38935Y-61518
X40935Y-49768
X41185Y-33518
X42435Y-54268
X42935Y-51268
X43185Y-50768
X43185Y-56768
X43185Y-58018
X43935Y-37268
X44935Y-49768
X44935Y-61518
X45535Y-32318
X45550Y-59650
X46685Y-36068
X49185Y-49768
X49285Y-38068
X49485Y-36868
X50000Y-36350
X50135Y-33318
X50535Y-48418
X50635Y-50718
X50685Y-40768
X51050Y-37450
X51085Y-38068
X51485Y-35868
X51585Y-48418
X51835Y-44668
X51935Y-41018
X51950Y-32800
X52385Y-38068
X52685Y-42768
X52835Y-35718
X52935Y-50768
X53285Y-38068
X55500Y-32850
X56385Y-35918
X56435Y-34768
X56435Y-36768
X56435Y-38768
X58485Y-48418
T2
X35185Y-43768
X35185Y-46768
X36185Y-43768
X36185Y-46768
X37185Y-43768
X37185Y-46768
X38185Y-43768
X38185Y-46768
X39185Y-43768
X39185Y-46768
X40185Y-43768
X40185Y-46768
X41185Y-43768
X41185Y-46768
X42185Y-43768
X42185Y-46768
X43185Y-43768
X43185Y-46768
X44185Y-43768
X44185Y-46768
X45185Y-43768
X45185Y-46768
X46185Y-43768
X46185Y-46768
X47185Y-43768
X47185Y-46768
X48185Y-43768
X48185Y-46768
T3
X31185Y-43518
X31185Y-44518
X31185Y-45518
X31185Y-46518
X32185Y-44018
X32185Y-45018
X32185Y-46018
X32185Y-47018
T4
X26950Y-36000
X27950Y-36000
X31300Y-37500
X32300Y-37500
X33300Y-37500
X35700Y-35750
X36700Y-35750
X45450Y-56150
X45450Y-57150
X45450Y-58150
X46685Y-31768
X46685Y-52768
X46685Y-53768
X46685Y-54768
X47685Y-31768
X47685Y-52768
X47685Y-53768
X47685Y-54768
X48685Y-31768
X48685Y-52768
X48685Y-53768
X48685Y-54768
X49685Y-31768
X49685Y-52768
X49685Y-53768
X49685Y-54768
X50685Y-30768
X50685Y-31768
X50685Y-51768
X50685Y-52768
X50685Y-53768
X51685Y-30768
X51685Y-31768
X51685Y-51768
X51685Y-52768
X51685Y-53768
X52685Y-30768
X52685Y-31768
X52685Y-51768
X52685Y-52768
X52685Y-53768
X53685Y-30768
X53685Y-31768
X53685Y-51768
X53685Y-52768
X53685Y-53768
X54685Y-31768
X54685Y-52768
X54685Y-53768
X54685Y-54768
X55685Y-31768
X55685Y-52768
X55685Y-53768
X55685Y-54768
X56685Y-31768
X56685Y-52768
X56685Y-53768
X56685Y-54768
X57685Y-31768
X57685Y-52768
X57685Y-53768
X57685Y-54768
X58685Y-30768
X58685Y-31768
X58685Y-51768
X58685Y-52768
X58685Y-53768
X59285Y-40668
X59285Y-41668
X59285Y-42668
X59285Y-43668
X59685Y-30768
X59685Y-31768
X59685Y-51768
X59685Y-52768
X59685Y-53768
X60285Y-40668
X60285Y-41668
X60285Y-42668
X60285Y-43668
X60685Y-30768
X60685Y-31768
X60685Y-51768
X60685Y-52768
X60685Y-53768
X61685Y-30768
X61685Y-31768
X61685Y-51768
X61685Y-52768
X61685Y-53768
T5
X27085Y-42668
X27085Y-43643
X27085Y-46868
X27085Y-47868
T6
X60716Y-33476
X60716Y-35248
X60716Y-36626
X60716Y-38398
X63078Y-33476
X63078Y-35248
X63078Y-36626
X63078Y-38398
T7
X26772Y-25886
X26772Y-28248
X26772Y-30610
X33563Y-25886
X33563Y-28248
X33563Y-30610
X35433Y-25886
X35433Y-28248
X35433Y-30610
X42224Y-25886
X42224Y-28248
X42224Y-30610
X47831Y-58217
X47831Y-60579
X47831Y-62941
X54622Y-58217
X54622Y-60579
X54622Y-62941
X56331Y-58217
X56331Y-60579
X56331Y-62941
X63122Y-58217
X63122Y-60579
X63122Y-62941
T8
X29885Y-42218
X29885Y-48318
T0
M30
