G04 (created by PCBNEW (2013-07-07 BZR 4022)-stable) date 15/01/2015 15:50:08*
%MOIN*%
G04 Gerber Fmt 3.4, Leading zero omitted, Abs format*
%FSLAX34Y34*%
G01*
G70*
G90*
G04 APERTURE LIST*
%ADD10C,0.00590551*%
%ADD11C,0.015*%
%ADD12C,0.012*%
%ADD13C,0.01*%
%ADD14C,0.006*%
G04 APERTURE END LIST*
G54D10*
X50180Y-25000D02*
X50180Y-25500D01*
X46180Y-25500D02*
X50180Y-25500D01*
X50180Y-25000D02*
X50180Y-24500D01*
X50180Y-24500D02*
X42180Y-24500D01*
X42180Y-24500D02*
X42180Y-24550D01*
X46180Y-25500D02*
X42180Y-25500D01*
X42180Y-24525D02*
X42180Y-26525D01*
X42180Y-26525D02*
X46180Y-26525D01*
X46180Y-26525D02*
X46180Y-25525D01*
G54D11*
X47250Y-29450D02*
X46750Y-29450D01*
X46750Y-29450D02*
X46750Y-28450D01*
X46750Y-28450D02*
X47250Y-28450D01*
X47250Y-29950D02*
X43250Y-29950D01*
X43250Y-29950D02*
X43250Y-27950D01*
X43250Y-27950D02*
X47250Y-27950D01*
X47250Y-27950D02*
X47250Y-29950D01*
G54D12*
X42350Y-30300D02*
X42350Y-27500D01*
X42350Y-27500D02*
X43150Y-27500D01*
X43150Y-27500D02*
X43150Y-30300D01*
X43150Y-30300D02*
X42350Y-30300D01*
X42550Y-30300D02*
X42350Y-30100D01*
G54D11*
X49606Y-27074D02*
X49606Y-26074D01*
X50165Y-27074D02*
G75*
G03X50165Y-27074I-559J0D01*
G74*
G01*
G54D13*
X47380Y-25700D02*
X47380Y-26700D01*
G54D14*
X48460Y-26584D02*
G75*
G03X48600Y-26200I-460J384D01*
G74*
G01*
X48599Y-26200D02*
G75*
G03X48448Y-25802I-599J0D01*
G74*
G01*
X47400Y-26200D02*
G75*
G03X47544Y-26589I599J0D01*
G74*
G01*
X47539Y-25815D02*
G75*
G03X47400Y-26200I460J-384D01*
G74*
G01*
X47512Y-26549D02*
G75*
G03X48000Y-26800I487J349D01*
G74*
G01*
X48000Y-26800D02*
G75*
G03X48479Y-26560I0J600D01*
G74*
G01*
X48000Y-25600D02*
G75*
G03X47527Y-25831I0J-599D01*
G74*
G01*
X48473Y-25831D02*
G75*
G03X48000Y-25600I-473J-368D01*
G74*
G01*
X48000Y-26450D02*
G75*
G03X48250Y-26200I0J250D01*
G74*
G01*
X48000Y-26600D02*
G75*
G03X48400Y-26200I0J400D01*
G74*
G01*
X48000Y-25950D02*
G75*
G03X47750Y-26200I0J-250D01*
G74*
G01*
X48000Y-25800D02*
G75*
G03X47600Y-26200I0J-400D01*
G74*
G01*
G54D13*
X47386Y-26713D02*
G75*
G03X48000Y-27000I613J513D01*
G74*
G01*
X48000Y-26999D02*
G75*
G03X48704Y-26576I0J799D01*
G74*
G01*
X47998Y-25401D02*
G75*
G03X47389Y-25684I1J-798D01*
G74*
G01*
X48694Y-25802D02*
G75*
G03X48000Y-25400I-694J-397D01*
G74*
G01*
X48704Y-26579D02*
G75*
G03X48800Y-26200I-704J379D01*
G74*
G01*
X48799Y-26200D02*
G75*
G03X48681Y-25781I-799J0D01*
G74*
G01*
G54D10*
X48139Y-28468D02*
X48045Y-28498D01*
X48548Y-27817D02*
X48670Y-28192D01*
X48670Y-28192D02*
X48607Y-28316D01*
X48607Y-28316D02*
X48139Y-28468D01*
X48045Y-28498D02*
X47921Y-28435D01*
X47921Y-28435D02*
X47799Y-28061D01*
X48480Y-28564D02*
X48199Y-28655D01*
X48199Y-28655D02*
X48595Y-29872D01*
X48595Y-29872D02*
X48876Y-29781D01*
X48876Y-29781D02*
X48480Y-28564D01*
X48543Y-28440D02*
X48075Y-28592D01*
X48075Y-28592D02*
X48532Y-29996D01*
X48532Y-29996D02*
X49000Y-29844D01*
X49000Y-29844D02*
X48543Y-28440D01*
X48829Y-27726D02*
X47518Y-28152D01*
X47518Y-28152D02*
X48340Y-30679D01*
X48340Y-30679D02*
X49650Y-30253D01*
X49650Y-30253D02*
X48829Y-27726D01*
M02*
