G04 (created by PCBNEW (2013-07-07 BZR 4022)-stable) date 15/01/2015 15:50:08*
%MOIN*%
G04 Gerber Fmt 3.4, Leading zero omitted, Abs format*
%FSLAX34Y34*%
G01*
G70*
G90*
G04 APERTURE LIST*
%ADD10C,0.00590551*%
%ADD11R,0.06X0.06*%
%ADD12C,0.06*%
%ADD13R,0.062X0.09*%
%ADD14O,0.062X0.09*%
%ADD15C,0.055*%
%ADD16C,0.066*%
%ADD17C,0.035*%
%ADD18C,0.017*%
%ADD19C,0.01*%
G04 APERTURE END LIST*
G54D10*
G54D11*
X42680Y-25000D03*
G54D12*
X48680Y-25000D03*
X43680Y-25000D03*
X49680Y-25000D03*
X44680Y-25000D03*
X45680Y-25000D03*
X46680Y-25000D03*
X47680Y-25000D03*
X45680Y-26000D03*
X44680Y-26000D03*
X43680Y-26000D03*
X42680Y-26000D03*
G54D13*
X46750Y-27450D03*
G54D14*
X45750Y-27450D03*
X44750Y-27450D03*
X43750Y-27450D03*
X43750Y-30450D03*
X44750Y-30450D03*
X45750Y-30450D03*
X46750Y-30450D03*
G54D15*
X42750Y-29900D03*
X42750Y-27900D03*
X49606Y-27074D03*
X49606Y-26074D03*
G54D16*
X48600Y-26200D03*
X47600Y-26200D03*
G54D17*
X43750Y-28500D03*
X44600Y-29100D03*
X48750Y-29950D03*
X45250Y-28150D03*
X47200Y-29650D03*
G54D18*
X48750Y-29950D02*
X47700Y-28900D01*
X43750Y-28500D02*
X43700Y-28500D01*
X44800Y-28900D02*
X44600Y-29100D01*
X47700Y-28900D02*
X44800Y-28900D01*
X47600Y-26200D02*
X47600Y-27250D01*
X48750Y-28400D02*
X48750Y-29950D01*
X47600Y-27250D02*
X48750Y-28400D01*
X48750Y-29950D02*
X48700Y-29950D01*
G54D19*
X43750Y-30450D02*
X43750Y-29250D01*
X44150Y-25530D02*
X44680Y-25000D01*
X44150Y-26450D02*
X44150Y-25530D01*
X44250Y-26550D02*
X44150Y-26450D01*
X44250Y-28750D02*
X44250Y-26550D01*
X43750Y-29250D02*
X44250Y-28750D01*
G54D18*
X44680Y-26000D02*
X44750Y-26000D01*
X45250Y-26500D02*
X45250Y-28150D01*
X44750Y-26000D02*
X45250Y-26500D01*
G54D19*
X45750Y-30450D02*
X45750Y-30200D01*
X46300Y-29650D02*
X47200Y-29650D01*
X45750Y-30200D02*
X46300Y-29650D01*
G54D10*
G36*
X43950Y-28625D02*
X43700Y-28875D01*
X43700Y-28084D01*
X43700Y-27500D01*
X43700Y-27400D01*
X43700Y-26815D01*
X43613Y-26766D01*
X43581Y-26773D01*
X43389Y-26878D01*
X43251Y-27049D01*
X43190Y-27260D01*
X43190Y-27400D01*
X43700Y-27400D01*
X43700Y-27500D01*
X43190Y-27500D01*
X43190Y-27621D01*
X43117Y-27602D01*
X43047Y-27673D01*
X43047Y-27532D01*
X43022Y-27439D01*
X42995Y-27429D01*
X42825Y-27370D01*
X42617Y-27381D01*
X42477Y-27439D01*
X42452Y-27532D01*
X42750Y-27829D01*
X43047Y-27532D01*
X43047Y-27673D01*
X42820Y-27900D01*
X43117Y-28197D01*
X43210Y-28172D01*
X43279Y-27975D01*
X43274Y-27878D01*
X43389Y-28021D01*
X43581Y-28126D01*
X43613Y-28133D01*
X43700Y-28084D01*
X43700Y-28875D01*
X43537Y-29037D01*
X43472Y-29135D01*
X43450Y-29250D01*
X43450Y-29836D01*
X43354Y-29900D01*
X43259Y-30041D01*
X43274Y-30004D01*
X43275Y-29796D01*
X43195Y-29603D01*
X43047Y-29455D01*
X43047Y-29454D01*
X43047Y-28267D01*
X42750Y-27970D01*
X42452Y-28267D01*
X42477Y-28360D01*
X42674Y-28429D01*
X42882Y-28418D01*
X43022Y-28360D01*
X43047Y-28267D01*
X43047Y-29454D01*
X42854Y-29375D01*
X42646Y-29374D01*
X42453Y-29454D01*
X42319Y-29587D01*
X42319Y-28180D01*
X42382Y-28197D01*
X42679Y-27900D01*
X42382Y-27602D01*
X42319Y-27619D01*
X42319Y-26431D01*
X42364Y-26385D01*
X42392Y-26481D01*
X42598Y-26554D01*
X42816Y-26543D01*
X42967Y-26481D01*
X42995Y-26385D01*
X42680Y-26070D01*
X42674Y-26076D01*
X42603Y-26005D01*
X42609Y-26000D01*
X42603Y-25994D01*
X42674Y-25923D01*
X42680Y-25929D01*
X42995Y-25614D01*
X42976Y-25550D01*
X43029Y-25550D01*
X43121Y-25512D01*
X43191Y-25441D01*
X43229Y-25349D01*
X43229Y-25327D01*
X43368Y-25465D01*
X43449Y-25499D01*
X43368Y-25533D01*
X43214Y-25688D01*
X43182Y-25763D01*
X43161Y-25712D01*
X43065Y-25684D01*
X42750Y-26000D01*
X43065Y-26315D01*
X43161Y-26287D01*
X43180Y-26232D01*
X43213Y-26311D01*
X43368Y-26465D01*
X43570Y-26549D01*
X43788Y-26550D01*
X43863Y-26519D01*
X43872Y-26564D01*
X43937Y-26662D01*
X43950Y-26674D01*
X43950Y-26790D01*
X43918Y-26773D01*
X43886Y-26766D01*
X43800Y-26815D01*
X43800Y-27400D01*
X43807Y-27400D01*
X43807Y-27500D01*
X43800Y-27500D01*
X43800Y-28084D01*
X43886Y-28133D01*
X43918Y-28126D01*
X43950Y-28109D01*
X43950Y-28625D01*
X43950Y-28625D01*
G37*
G54D19*
X43950Y-28625D02*
X43700Y-28875D01*
X43700Y-28084D01*
X43700Y-27500D01*
X43700Y-27400D01*
X43700Y-26815D01*
X43613Y-26766D01*
X43581Y-26773D01*
X43389Y-26878D01*
X43251Y-27049D01*
X43190Y-27260D01*
X43190Y-27400D01*
X43700Y-27400D01*
X43700Y-27500D01*
X43190Y-27500D01*
X43190Y-27621D01*
X43117Y-27602D01*
X43047Y-27673D01*
X43047Y-27532D01*
X43022Y-27439D01*
X42995Y-27429D01*
X42825Y-27370D01*
X42617Y-27381D01*
X42477Y-27439D01*
X42452Y-27532D01*
X42750Y-27829D01*
X43047Y-27532D01*
X43047Y-27673D01*
X42820Y-27900D01*
X43117Y-28197D01*
X43210Y-28172D01*
X43279Y-27975D01*
X43274Y-27878D01*
X43389Y-28021D01*
X43581Y-28126D01*
X43613Y-28133D01*
X43700Y-28084D01*
X43700Y-28875D01*
X43537Y-29037D01*
X43472Y-29135D01*
X43450Y-29250D01*
X43450Y-29836D01*
X43354Y-29900D01*
X43259Y-30041D01*
X43274Y-30004D01*
X43275Y-29796D01*
X43195Y-29603D01*
X43047Y-29455D01*
X43047Y-29454D01*
X43047Y-28267D01*
X42750Y-27970D01*
X42452Y-28267D01*
X42477Y-28360D01*
X42674Y-28429D01*
X42882Y-28418D01*
X43022Y-28360D01*
X43047Y-28267D01*
X43047Y-29454D01*
X42854Y-29375D01*
X42646Y-29374D01*
X42453Y-29454D01*
X42319Y-29587D01*
X42319Y-28180D01*
X42382Y-28197D01*
X42679Y-27900D01*
X42382Y-27602D01*
X42319Y-27619D01*
X42319Y-26431D01*
X42364Y-26385D01*
X42392Y-26481D01*
X42598Y-26554D01*
X42816Y-26543D01*
X42967Y-26481D01*
X42995Y-26385D01*
X42680Y-26070D01*
X42674Y-26076D01*
X42603Y-26005D01*
X42609Y-26000D01*
X42603Y-25994D01*
X42674Y-25923D01*
X42680Y-25929D01*
X42995Y-25614D01*
X42976Y-25550D01*
X43029Y-25550D01*
X43121Y-25512D01*
X43191Y-25441D01*
X43229Y-25349D01*
X43229Y-25327D01*
X43368Y-25465D01*
X43449Y-25499D01*
X43368Y-25533D01*
X43214Y-25688D01*
X43182Y-25763D01*
X43161Y-25712D01*
X43065Y-25684D01*
X42750Y-26000D01*
X43065Y-26315D01*
X43161Y-26287D01*
X43180Y-26232D01*
X43213Y-26311D01*
X43368Y-26465D01*
X43570Y-26549D01*
X43788Y-26550D01*
X43863Y-26519D01*
X43872Y-26564D01*
X43937Y-26662D01*
X43950Y-26674D01*
X43950Y-26790D01*
X43918Y-26773D01*
X43886Y-26766D01*
X43800Y-26815D01*
X43800Y-27400D01*
X43807Y-27400D01*
X43807Y-27500D01*
X43800Y-27500D01*
X43800Y-28084D01*
X43886Y-28133D01*
X43918Y-28126D01*
X43950Y-28109D01*
X43950Y-28625D01*
G54D10*
G36*
X49980Y-31380D02*
X47936Y-31380D01*
X47936Y-26607D01*
X47600Y-26270D01*
X47529Y-26341D01*
X47529Y-26200D01*
X47192Y-25863D01*
X47093Y-25894D01*
X47015Y-26111D01*
X47025Y-26341D01*
X47093Y-26505D01*
X47192Y-26536D01*
X47529Y-26200D01*
X47529Y-26341D01*
X47263Y-26607D01*
X47294Y-26706D01*
X47511Y-26784D01*
X47741Y-26774D01*
X47905Y-26706D01*
X47936Y-26607D01*
X47936Y-31380D01*
X42319Y-31380D01*
X42319Y-30212D01*
X42452Y-30344D01*
X42645Y-30424D01*
X42853Y-30425D01*
X43047Y-30345D01*
X43194Y-30197D01*
X43223Y-30129D01*
X43190Y-30296D01*
X43190Y-30603D01*
X43232Y-30818D01*
X43354Y-30999D01*
X43535Y-31121D01*
X43750Y-31163D01*
X43964Y-31121D01*
X44145Y-30999D01*
X44250Y-30844D01*
X44354Y-30999D01*
X44535Y-31121D01*
X44750Y-31163D01*
X44964Y-31121D01*
X45145Y-30999D01*
X45250Y-30844D01*
X45354Y-30999D01*
X45535Y-31121D01*
X45750Y-31163D01*
X45964Y-31121D01*
X46145Y-30999D01*
X46250Y-30844D01*
X46354Y-30999D01*
X46535Y-31121D01*
X46750Y-31163D01*
X46964Y-31121D01*
X47145Y-30999D01*
X47267Y-30818D01*
X47310Y-30603D01*
X47310Y-30296D01*
X47267Y-30081D01*
X47262Y-30075D01*
X47284Y-30075D01*
X47440Y-30010D01*
X47560Y-29891D01*
X47624Y-29734D01*
X47625Y-29565D01*
X47560Y-29409D01*
X47441Y-29289D01*
X47284Y-29225D01*
X47115Y-29224D01*
X46959Y-29289D01*
X46898Y-29350D01*
X46300Y-29350D01*
X46185Y-29372D01*
X46087Y-29437D01*
X45782Y-29742D01*
X45750Y-29736D01*
X45535Y-29778D01*
X45354Y-29900D01*
X45249Y-30055D01*
X45145Y-29900D01*
X44964Y-29778D01*
X44750Y-29736D01*
X44535Y-29778D01*
X44354Y-29900D01*
X44249Y-30055D01*
X44145Y-29900D01*
X44050Y-29836D01*
X44050Y-29374D01*
X44462Y-28962D01*
X44462Y-28962D01*
X44527Y-28864D01*
X44549Y-28750D01*
X44550Y-28750D01*
X44550Y-28123D01*
X44750Y-28163D01*
X44825Y-28148D01*
X44824Y-28234D01*
X44889Y-28390D01*
X45008Y-28510D01*
X45165Y-28574D01*
X45334Y-28575D01*
X45490Y-28510D01*
X45610Y-28391D01*
X45674Y-28234D01*
X45675Y-28148D01*
X45750Y-28163D01*
X45964Y-28121D01*
X46145Y-27999D01*
X46189Y-27933D01*
X46189Y-27949D01*
X46227Y-28041D01*
X46298Y-28111D01*
X46390Y-28149D01*
X46489Y-28150D01*
X47109Y-28150D01*
X47201Y-28112D01*
X47271Y-28041D01*
X47309Y-27949D01*
X47310Y-27850D01*
X47310Y-26950D01*
X47272Y-26858D01*
X47201Y-26788D01*
X47109Y-26750D01*
X47010Y-26749D01*
X46390Y-26749D01*
X46298Y-26787D01*
X46228Y-26858D01*
X46190Y-26950D01*
X46190Y-26966D01*
X46145Y-26900D01*
X45964Y-26778D01*
X45750Y-26736D01*
X45585Y-26769D01*
X45585Y-26549D01*
X45788Y-26550D01*
X45991Y-26466D01*
X46145Y-26311D01*
X46229Y-26109D01*
X46230Y-25891D01*
X46146Y-25688D01*
X45991Y-25534D01*
X45910Y-25500D01*
X45991Y-25466D01*
X46145Y-25311D01*
X46179Y-25230D01*
X46213Y-25311D01*
X46368Y-25465D01*
X46570Y-25549D01*
X46788Y-25550D01*
X46991Y-25466D01*
X47145Y-25311D01*
X47179Y-25230D01*
X47213Y-25311D01*
X47368Y-25465D01*
X47570Y-25549D01*
X47788Y-25550D01*
X47991Y-25466D01*
X48145Y-25311D01*
X48179Y-25230D01*
X48213Y-25311D01*
X48368Y-25465D01*
X48570Y-25549D01*
X48788Y-25550D01*
X48991Y-25466D01*
X49145Y-25311D01*
X49179Y-25230D01*
X49213Y-25311D01*
X49368Y-25465D01*
X49569Y-25549D01*
X49502Y-25549D01*
X49309Y-25629D01*
X49161Y-25777D01*
X49107Y-25908D01*
X49091Y-25871D01*
X48928Y-25708D01*
X48715Y-25620D01*
X48485Y-25619D01*
X48271Y-25708D01*
X48108Y-25871D01*
X48099Y-25892D01*
X48007Y-25863D01*
X47936Y-25933D01*
X47936Y-25792D01*
X47905Y-25693D01*
X47688Y-25615D01*
X47458Y-25625D01*
X47294Y-25693D01*
X47263Y-25792D01*
X47600Y-26129D01*
X47936Y-25792D01*
X47936Y-25933D01*
X47670Y-26200D01*
X48007Y-26536D01*
X48099Y-26507D01*
X48108Y-26528D01*
X48271Y-26691D01*
X48484Y-26779D01*
X48714Y-26780D01*
X48928Y-26691D01*
X49091Y-26528D01*
X49158Y-26366D01*
X49160Y-26371D01*
X49308Y-26519D01*
X49441Y-26574D01*
X49309Y-26629D01*
X49161Y-26777D01*
X49081Y-26969D01*
X49081Y-27178D01*
X49160Y-27371D01*
X49308Y-27519D01*
X49501Y-27599D01*
X49710Y-27599D01*
X49903Y-27520D01*
X49980Y-27443D01*
X49980Y-31380D01*
X49980Y-31380D01*
G37*
G54D19*
X49980Y-31380D02*
X47936Y-31380D01*
X47936Y-26607D01*
X47600Y-26270D01*
X47529Y-26341D01*
X47529Y-26200D01*
X47192Y-25863D01*
X47093Y-25894D01*
X47015Y-26111D01*
X47025Y-26341D01*
X47093Y-26505D01*
X47192Y-26536D01*
X47529Y-26200D01*
X47529Y-26341D01*
X47263Y-26607D01*
X47294Y-26706D01*
X47511Y-26784D01*
X47741Y-26774D01*
X47905Y-26706D01*
X47936Y-26607D01*
X47936Y-31380D01*
X42319Y-31380D01*
X42319Y-30212D01*
X42452Y-30344D01*
X42645Y-30424D01*
X42853Y-30425D01*
X43047Y-30345D01*
X43194Y-30197D01*
X43223Y-30129D01*
X43190Y-30296D01*
X43190Y-30603D01*
X43232Y-30818D01*
X43354Y-30999D01*
X43535Y-31121D01*
X43750Y-31163D01*
X43964Y-31121D01*
X44145Y-30999D01*
X44250Y-30844D01*
X44354Y-30999D01*
X44535Y-31121D01*
X44750Y-31163D01*
X44964Y-31121D01*
X45145Y-30999D01*
X45250Y-30844D01*
X45354Y-30999D01*
X45535Y-31121D01*
X45750Y-31163D01*
X45964Y-31121D01*
X46145Y-30999D01*
X46250Y-30844D01*
X46354Y-30999D01*
X46535Y-31121D01*
X46750Y-31163D01*
X46964Y-31121D01*
X47145Y-30999D01*
X47267Y-30818D01*
X47310Y-30603D01*
X47310Y-30296D01*
X47267Y-30081D01*
X47262Y-30075D01*
X47284Y-30075D01*
X47440Y-30010D01*
X47560Y-29891D01*
X47624Y-29734D01*
X47625Y-29565D01*
X47560Y-29409D01*
X47441Y-29289D01*
X47284Y-29225D01*
X47115Y-29224D01*
X46959Y-29289D01*
X46898Y-29350D01*
X46300Y-29350D01*
X46185Y-29372D01*
X46087Y-29437D01*
X45782Y-29742D01*
X45750Y-29736D01*
X45535Y-29778D01*
X45354Y-29900D01*
X45249Y-30055D01*
X45145Y-29900D01*
X44964Y-29778D01*
X44750Y-29736D01*
X44535Y-29778D01*
X44354Y-29900D01*
X44249Y-30055D01*
X44145Y-29900D01*
X44050Y-29836D01*
X44050Y-29374D01*
X44462Y-28962D01*
X44462Y-28962D01*
X44527Y-28864D01*
X44549Y-28750D01*
X44550Y-28750D01*
X44550Y-28123D01*
X44750Y-28163D01*
X44825Y-28148D01*
X44824Y-28234D01*
X44889Y-28390D01*
X45008Y-28510D01*
X45165Y-28574D01*
X45334Y-28575D01*
X45490Y-28510D01*
X45610Y-28391D01*
X45674Y-28234D01*
X45675Y-28148D01*
X45750Y-28163D01*
X45964Y-28121D01*
X46145Y-27999D01*
X46189Y-27933D01*
X46189Y-27949D01*
X46227Y-28041D01*
X46298Y-28111D01*
X46390Y-28149D01*
X46489Y-28150D01*
X47109Y-28150D01*
X47201Y-28112D01*
X47271Y-28041D01*
X47309Y-27949D01*
X47310Y-27850D01*
X47310Y-26950D01*
X47272Y-26858D01*
X47201Y-26788D01*
X47109Y-26750D01*
X47010Y-26749D01*
X46390Y-26749D01*
X46298Y-26787D01*
X46228Y-26858D01*
X46190Y-26950D01*
X46190Y-26966D01*
X46145Y-26900D01*
X45964Y-26778D01*
X45750Y-26736D01*
X45585Y-26769D01*
X45585Y-26549D01*
X45788Y-26550D01*
X45991Y-26466D01*
X46145Y-26311D01*
X46229Y-26109D01*
X46230Y-25891D01*
X46146Y-25688D01*
X45991Y-25534D01*
X45910Y-25500D01*
X45991Y-25466D01*
X46145Y-25311D01*
X46179Y-25230D01*
X46213Y-25311D01*
X46368Y-25465D01*
X46570Y-25549D01*
X46788Y-25550D01*
X46991Y-25466D01*
X47145Y-25311D01*
X47179Y-25230D01*
X47213Y-25311D01*
X47368Y-25465D01*
X47570Y-25549D01*
X47788Y-25550D01*
X47991Y-25466D01*
X48145Y-25311D01*
X48179Y-25230D01*
X48213Y-25311D01*
X48368Y-25465D01*
X48570Y-25549D01*
X48788Y-25550D01*
X48991Y-25466D01*
X49145Y-25311D01*
X49179Y-25230D01*
X49213Y-25311D01*
X49368Y-25465D01*
X49569Y-25549D01*
X49502Y-25549D01*
X49309Y-25629D01*
X49161Y-25777D01*
X49107Y-25908D01*
X49091Y-25871D01*
X48928Y-25708D01*
X48715Y-25620D01*
X48485Y-25619D01*
X48271Y-25708D01*
X48108Y-25871D01*
X48099Y-25892D01*
X48007Y-25863D01*
X47936Y-25933D01*
X47936Y-25792D01*
X47905Y-25693D01*
X47688Y-25615D01*
X47458Y-25625D01*
X47294Y-25693D01*
X47263Y-25792D01*
X47600Y-26129D01*
X47936Y-25792D01*
X47936Y-25933D01*
X47670Y-26200D01*
X48007Y-26536D01*
X48099Y-26507D01*
X48108Y-26528D01*
X48271Y-26691D01*
X48484Y-26779D01*
X48714Y-26780D01*
X48928Y-26691D01*
X49091Y-26528D01*
X49158Y-26366D01*
X49160Y-26371D01*
X49308Y-26519D01*
X49441Y-26574D01*
X49309Y-26629D01*
X49161Y-26777D01*
X49081Y-26969D01*
X49081Y-27178D01*
X49160Y-27371D01*
X49308Y-27519D01*
X49501Y-27599D01*
X49710Y-27599D01*
X49903Y-27520D01*
X49980Y-27443D01*
X49980Y-31380D01*
M02*
