M48
INCH,TZ
T1C0.025
T2C0.032
T3C0.040
%
G90
G05
T1
X43750Y-28500
X44600Y-29100
X45250Y-28150
X47200Y-29650
X48750Y-29950
T2
X42750Y-27900
X42750Y-29900
X43750Y-27450
X43750Y-30450
X44750Y-27450
X44750Y-30450
X45750Y-27450
X45750Y-30450
X46750Y-27450
X46750Y-30450
X47600Y-26200
X48600Y-26200
X49606Y-26075
X49606Y-27075
T3
X42680Y-25000
X42680Y-26000
X43680Y-25000
X43680Y-26000
X44680Y-25000
X44680Y-26000
X45680Y-25000
X45680Y-26000
X46680Y-25000
X47680Y-25000
X48680Y-25000
X49680Y-25000
T0
M30
