G04 (created by PCBNEW (2013-07-07 BZR 4022)-stable) date 15/01/2015 15:50:08*
%MOIN*%
G04 Gerber Fmt 3.4, Leading zero omitted, Abs format*
%FSLAX34Y34*%
G01*
G70*
G90*
G04 APERTURE LIST*
%ADD10C,0.00590551*%
%ADD11R,0.06X0.06*%
%ADD12C,0.06*%
%ADD13R,0.062X0.09*%
%ADD14O,0.062X0.09*%
%ADD15C,0.055*%
%ADD16C,0.066*%
%ADD17C,0.035*%
%ADD18C,0.017*%
%ADD19C,0.01*%
G04 APERTURE END LIST*
G54D10*
G54D11*
X42680Y-25000D03*
G54D12*
X48680Y-25000D03*
X43680Y-25000D03*
X49680Y-25000D03*
X44680Y-25000D03*
X45680Y-25000D03*
X46680Y-25000D03*
X47680Y-25000D03*
X45680Y-26000D03*
X44680Y-26000D03*
X43680Y-26000D03*
X42680Y-26000D03*
G54D13*
X46750Y-27450D03*
G54D14*
X45750Y-27450D03*
X44750Y-27450D03*
X43750Y-27450D03*
X43750Y-30450D03*
X44750Y-30450D03*
X45750Y-30450D03*
X46750Y-30450D03*
G54D15*
X42750Y-29900D03*
X42750Y-27900D03*
X49606Y-27074D03*
X49606Y-26074D03*
G54D16*
X48600Y-26200D03*
X47600Y-26200D03*
G54D10*
G36*
X47594Y-27173D02*
X48193Y-26979D01*
X48450Y-27769D01*
X47850Y-27963D01*
X47594Y-27173D01*
X47594Y-27173D01*
G37*
G36*
X48719Y-30637D02*
X49318Y-30442D01*
X49575Y-31232D01*
X48976Y-31427D01*
X48719Y-30637D01*
X48719Y-30637D01*
G37*
G54D17*
X43750Y-28500D03*
X44600Y-29100D03*
X48750Y-29950D03*
X45250Y-28150D03*
X47200Y-29650D03*
G54D18*
X44000Y-28500D02*
X43750Y-28500D01*
X44600Y-29100D02*
X44000Y-28500D01*
X49147Y-30934D02*
X49147Y-30347D01*
X49147Y-30347D02*
X48750Y-29950D01*
G54D19*
X48600Y-26200D02*
X48731Y-26200D01*
X48731Y-26200D02*
X49606Y-27074D01*
X42680Y-25000D02*
X42680Y-25130D01*
X44750Y-30150D02*
X44750Y-30450D01*
X43350Y-28750D02*
X44750Y-30150D01*
X43350Y-27850D02*
X43350Y-28750D01*
X43150Y-27650D02*
X43350Y-27850D01*
X43150Y-27400D02*
X43150Y-27650D01*
X43150Y-27350D02*
X43150Y-27400D01*
X43150Y-26750D02*
X43150Y-27350D01*
X43150Y-25600D02*
X43150Y-26750D01*
X42680Y-25130D02*
X43150Y-25600D01*
X43680Y-25000D02*
X43680Y-25080D01*
X44950Y-26650D02*
X45750Y-27450D01*
X44400Y-26650D02*
X44950Y-26650D01*
X44150Y-26400D02*
X44400Y-26650D01*
X44150Y-25550D02*
X44150Y-26400D01*
X43680Y-25080D02*
X44150Y-25550D01*
X45680Y-25000D02*
X45680Y-25130D01*
X46750Y-26200D02*
X46750Y-27450D01*
X45680Y-25130D02*
X46750Y-26200D01*
G54D18*
X46750Y-29650D02*
X46750Y-30450D01*
X45250Y-28150D02*
X46750Y-29650D01*
X42750Y-29900D02*
X42750Y-30850D01*
X45900Y-31300D02*
X46750Y-30450D01*
X43200Y-31300D02*
X45900Y-31300D01*
X42750Y-30850D02*
X43200Y-31300D01*
G54D19*
X47000Y-25320D02*
X46680Y-25000D01*
X47000Y-26500D02*
X47000Y-25320D01*
X47300Y-26800D02*
X47000Y-26500D01*
X47300Y-27400D02*
X47300Y-26800D01*
X47400Y-27500D02*
X47300Y-27400D01*
X47400Y-29450D02*
X47400Y-27500D01*
X47200Y-29650D02*
X47400Y-29450D01*
X48022Y-27471D02*
X48022Y-26627D01*
X48100Y-25580D02*
X48680Y-25000D01*
X48100Y-26550D02*
X48100Y-25580D01*
X48022Y-26627D02*
X48100Y-26550D01*
X49606Y-26074D02*
X49606Y-25073D01*
X49606Y-25073D02*
X49680Y-25000D01*
M02*
