G04 (created by PCBNEW (2013-07-07 BZR 4022)-stable) date 07/09/2014 13:51:04*
%MOIN*%
G04 Gerber Fmt 3.4, Leading zero omitted, Abs format*
%FSLAX34Y34*%
G01*
G70*
G90*
G04 APERTURE LIST*
%ADD10C,0.00590551*%
%ADD11R,0.06X0.06*%
%ADD12C,0.06*%
%ADD13C,0.1063*%
%ADD14C,0.0787402*%
%ADD15C,0.055*%
%ADD16C,0.066*%
%ADD17R,0.062X0.09*%
%ADD18O,0.062X0.09*%
%ADD19C,0.035*%
%ADD20C,0.01*%
G04 APERTURE END LIST*
G54D10*
G54D11*
X56476Y-22362D03*
G54D12*
X53476Y-22362D03*
X55476Y-22362D03*
X52476Y-22362D03*
X54476Y-22362D03*
X51476Y-22362D03*
X45956Y-25865D03*
X46956Y-25865D03*
X46956Y-25078D03*
X45956Y-25078D03*
G54D13*
X44094Y-24015D03*
X48818Y-24015D03*
G54D14*
X59744Y-29724D03*
X59744Y-27362D03*
X61515Y-29724D03*
X61515Y-27362D03*
X59744Y-26181D03*
X59744Y-23818D03*
X61515Y-26181D03*
X61515Y-23818D03*
G54D15*
X54724Y-30208D03*
X54724Y-31208D03*
X55905Y-30814D03*
X55905Y-29814D03*
X57086Y-30208D03*
X57086Y-31208D03*
X51968Y-30208D03*
X51968Y-31208D03*
G54D11*
X61500Y-22362D03*
G54D12*
X60500Y-22362D03*
X59500Y-22362D03*
X58500Y-22362D03*
G54D11*
X55000Y-23400D03*
G54D12*
X56000Y-23400D03*
G54D11*
X56000Y-24400D03*
G54D12*
X55000Y-24400D03*
G54D16*
X45669Y-31208D03*
X45669Y-30208D03*
X47637Y-31208D03*
X47637Y-30208D03*
G54D17*
X50937Y-28665D03*
G54D18*
X51937Y-28665D03*
X52937Y-28665D03*
X53937Y-28665D03*
X54937Y-28665D03*
X55937Y-28665D03*
X56937Y-28665D03*
X56937Y-25665D03*
X55937Y-25665D03*
X54937Y-25665D03*
X53937Y-25665D03*
X52937Y-25665D03*
X51937Y-25665D03*
X50937Y-25665D03*
G54D19*
X58740Y-24566D03*
X53937Y-27440D03*
X57637Y-24173D03*
X57047Y-24173D03*
X51082Y-31594D03*
X50295Y-30807D03*
G54D20*
X56937Y-25665D02*
X57248Y-25665D01*
X58346Y-24566D02*
X58740Y-24566D01*
X57248Y-25665D02*
X58346Y-24566D01*
X59500Y-22362D02*
X59330Y-22362D01*
X52937Y-28440D02*
X52937Y-28665D01*
X53937Y-27440D02*
X52937Y-28440D01*
X57637Y-24055D02*
X57637Y-24173D01*
X59330Y-22362D02*
X57637Y-24055D01*
X56000Y-24400D02*
X56820Y-24400D01*
X56820Y-24400D02*
X57047Y-24173D01*
X50295Y-30807D02*
X51082Y-31594D01*
G54D10*
G36*
X62722Y-25478D02*
X62407Y-25793D01*
X62349Y-25881D01*
X62328Y-25984D01*
X62328Y-30596D01*
X62159Y-30766D01*
X62159Y-29596D01*
X62159Y-27234D01*
X62061Y-26998D01*
X61880Y-26816D01*
X61772Y-26771D01*
X61879Y-26727D01*
X62061Y-26546D01*
X62159Y-26309D01*
X62159Y-26053D01*
X62159Y-23691D01*
X62061Y-23454D01*
X61880Y-23273D01*
X61644Y-23175D01*
X61388Y-23175D01*
X61151Y-23272D01*
X60970Y-23453D01*
X60872Y-23690D01*
X60871Y-23946D01*
X60969Y-24183D01*
X61150Y-24364D01*
X61387Y-24462D01*
X61643Y-24462D01*
X61879Y-24364D01*
X62061Y-24184D01*
X62159Y-23947D01*
X62159Y-23691D01*
X62159Y-26053D01*
X62061Y-25816D01*
X61880Y-25635D01*
X61644Y-25537D01*
X61388Y-25537D01*
X61151Y-25635D01*
X60970Y-25815D01*
X60872Y-26052D01*
X60871Y-26308D01*
X60969Y-26545D01*
X61150Y-26726D01*
X61259Y-26771D01*
X61151Y-26816D01*
X60970Y-26997D01*
X60872Y-27233D01*
X60871Y-27489D01*
X60969Y-27726D01*
X61150Y-27907D01*
X61387Y-28005D01*
X61643Y-28006D01*
X61879Y-27908D01*
X62061Y-27727D01*
X62159Y-27490D01*
X62159Y-27234D01*
X62159Y-29596D01*
X62061Y-29360D01*
X61880Y-29179D01*
X61644Y-29080D01*
X61388Y-29080D01*
X61151Y-29178D01*
X60970Y-29359D01*
X60872Y-29595D01*
X60871Y-29851D01*
X60969Y-30088D01*
X61150Y-30269D01*
X61387Y-30367D01*
X61643Y-30368D01*
X61879Y-30270D01*
X62061Y-30089D01*
X62159Y-29853D01*
X62159Y-29596D01*
X62159Y-30766D01*
X61699Y-31226D01*
X61135Y-31226D01*
X60820Y-30911D01*
X60733Y-30853D01*
X60629Y-30832D01*
X60392Y-30832D01*
X60392Y-27466D01*
X60392Y-23923D01*
X60382Y-23667D01*
X60302Y-23474D01*
X60197Y-23435D01*
X60127Y-23506D01*
X60127Y-23365D01*
X60088Y-23260D01*
X59848Y-23170D01*
X59592Y-23180D01*
X59399Y-23260D01*
X59361Y-23365D01*
X59744Y-23748D01*
X60127Y-23365D01*
X60127Y-23506D01*
X59814Y-23818D01*
X60197Y-24201D01*
X60302Y-24163D01*
X60392Y-23923D01*
X60392Y-27466D01*
X60387Y-27353D01*
X60387Y-26053D01*
X60290Y-25816D01*
X60127Y-25653D01*
X60127Y-24272D01*
X59744Y-23889D01*
X59673Y-23960D01*
X59673Y-23818D01*
X59290Y-23435D01*
X59185Y-23474D01*
X59096Y-23714D01*
X59105Y-23970D01*
X59185Y-24163D01*
X59290Y-24201D01*
X59673Y-23818D01*
X59673Y-23960D01*
X59361Y-24272D01*
X59399Y-24377D01*
X59639Y-24466D01*
X59895Y-24457D01*
X60088Y-24377D01*
X60127Y-24272D01*
X60127Y-25653D01*
X60109Y-25635D01*
X59872Y-25537D01*
X59616Y-25537D01*
X59379Y-25635D01*
X59198Y-25815D01*
X59165Y-25896D01*
X59165Y-24482D01*
X59100Y-24326D01*
X58981Y-24206D01*
X58825Y-24142D01*
X58655Y-24141D01*
X58499Y-24206D01*
X58439Y-24266D01*
X58346Y-24266D01*
X58231Y-24289D01*
X58134Y-24354D01*
X57349Y-25139D01*
X57332Y-25115D01*
X57151Y-24994D01*
X56937Y-24951D01*
X56722Y-24994D01*
X56541Y-25115D01*
X56437Y-25271D01*
X56332Y-25115D01*
X56151Y-24994D01*
X55937Y-24951D01*
X55722Y-24994D01*
X55541Y-25115D01*
X55437Y-25271D01*
X55332Y-25115D01*
X55151Y-24994D01*
X54937Y-24951D01*
X54722Y-24994D01*
X54541Y-25115D01*
X54437Y-25271D01*
X54332Y-25115D01*
X54151Y-24994D01*
X53937Y-24951D01*
X53791Y-24980D01*
X53791Y-22748D01*
X53476Y-22432D01*
X53161Y-22748D01*
X53188Y-22843D01*
X53394Y-22916D01*
X53613Y-22906D01*
X53764Y-22843D01*
X53791Y-22748D01*
X53791Y-24980D01*
X53722Y-24994D01*
X53541Y-25115D01*
X53437Y-25271D01*
X53332Y-25115D01*
X53151Y-24994D01*
X52937Y-24951D01*
X52722Y-24994D01*
X52541Y-25115D01*
X52437Y-25271D01*
X52332Y-25115D01*
X52151Y-24994D01*
X51937Y-24951D01*
X51722Y-24994D01*
X51541Y-25115D01*
X51437Y-25271D01*
X51435Y-25264D01*
X51297Y-25094D01*
X51105Y-24988D01*
X51073Y-24982D01*
X50987Y-25030D01*
X50987Y-25615D01*
X50994Y-25615D01*
X50994Y-25715D01*
X50987Y-25715D01*
X50987Y-26300D01*
X51073Y-26348D01*
X51105Y-26341D01*
X51297Y-26236D01*
X51435Y-26065D01*
X51437Y-26059D01*
X51541Y-26215D01*
X51722Y-26336D01*
X51937Y-26379D01*
X52151Y-26336D01*
X52332Y-26215D01*
X52437Y-26059D01*
X52541Y-26215D01*
X52722Y-26336D01*
X52937Y-26379D01*
X53151Y-26336D01*
X53332Y-26215D01*
X53437Y-26059D01*
X53541Y-26215D01*
X53722Y-26336D01*
X53937Y-26379D01*
X54151Y-26336D01*
X54332Y-26215D01*
X54437Y-26059D01*
X54541Y-26215D01*
X54722Y-26336D01*
X54937Y-26379D01*
X55151Y-26336D01*
X55332Y-26215D01*
X55437Y-26059D01*
X55541Y-26215D01*
X55722Y-26336D01*
X55937Y-26379D01*
X56151Y-26336D01*
X56332Y-26215D01*
X56437Y-26059D01*
X56541Y-26215D01*
X56722Y-26336D01*
X56937Y-26379D01*
X57151Y-26336D01*
X57332Y-26215D01*
X57454Y-26033D01*
X57491Y-25845D01*
X58454Y-24882D01*
X58499Y-24927D01*
X58655Y-24991D01*
X58824Y-24992D01*
X58980Y-24927D01*
X59100Y-24807D01*
X59165Y-24651D01*
X59165Y-24482D01*
X59165Y-25896D01*
X59100Y-26052D01*
X59100Y-26308D01*
X59198Y-26545D01*
X59378Y-26726D01*
X59482Y-26769D01*
X59399Y-26803D01*
X59361Y-26908D01*
X59744Y-27291D01*
X60127Y-26908D01*
X60088Y-26803D01*
X60001Y-26771D01*
X60108Y-26727D01*
X60289Y-26546D01*
X60387Y-26309D01*
X60387Y-26053D01*
X60387Y-27353D01*
X60382Y-27210D01*
X60302Y-27018D01*
X60197Y-26979D01*
X59814Y-27362D01*
X60197Y-27745D01*
X60302Y-27706D01*
X60392Y-27466D01*
X60392Y-30832D01*
X60387Y-30832D01*
X60387Y-29596D01*
X60290Y-29360D01*
X60127Y-29196D01*
X60127Y-27815D01*
X59744Y-27432D01*
X59673Y-27503D01*
X59673Y-27362D01*
X59290Y-26979D01*
X59185Y-27018D01*
X59096Y-27258D01*
X59105Y-27513D01*
X59185Y-27706D01*
X59290Y-27745D01*
X59673Y-27362D01*
X59673Y-27503D01*
X59361Y-27815D01*
X59399Y-27921D01*
X59639Y-28010D01*
X59895Y-28000D01*
X60088Y-27921D01*
X60127Y-27815D01*
X60127Y-29196D01*
X60109Y-29179D01*
X59872Y-29080D01*
X59616Y-29080D01*
X59379Y-29178D01*
X59198Y-29359D01*
X59100Y-29595D01*
X59100Y-29851D01*
X59198Y-30088D01*
X59378Y-30269D01*
X59615Y-30367D01*
X59871Y-30368D01*
X60108Y-30270D01*
X60289Y-30089D01*
X60387Y-29853D01*
X60387Y-29596D01*
X60387Y-30832D01*
X59448Y-30832D01*
X59345Y-30853D01*
X59258Y-30911D01*
X58864Y-31305D01*
X58805Y-31392D01*
X58785Y-31496D01*
X58785Y-32171D01*
X58549Y-32407D01*
X57611Y-32407D01*
X57611Y-31104D01*
X57531Y-30911D01*
X57384Y-30763D01*
X57251Y-30708D01*
X57383Y-30653D01*
X57531Y-30506D01*
X57611Y-30313D01*
X57611Y-30104D01*
X57531Y-29911D01*
X57497Y-29876D01*
X57497Y-28819D01*
X57497Y-28511D01*
X57454Y-28297D01*
X57332Y-28115D01*
X57151Y-27994D01*
X56937Y-27951D01*
X56722Y-27994D01*
X56541Y-28115D01*
X56437Y-28271D01*
X56332Y-28115D01*
X56151Y-27994D01*
X55937Y-27951D01*
X55722Y-27994D01*
X55541Y-28115D01*
X55437Y-28271D01*
X55332Y-28115D01*
X55151Y-27994D01*
X54937Y-27951D01*
X54722Y-27994D01*
X54541Y-28115D01*
X54437Y-28271D01*
X54332Y-28115D01*
X54151Y-27994D01*
X53937Y-27951D01*
X53829Y-27973D01*
X53936Y-27865D01*
X54021Y-27866D01*
X54177Y-27801D01*
X54297Y-27682D01*
X54361Y-27525D01*
X54362Y-27356D01*
X54297Y-27200D01*
X54178Y-27080D01*
X54021Y-27016D01*
X53852Y-27015D01*
X53696Y-27080D01*
X53576Y-27199D01*
X53512Y-27356D01*
X53512Y-27441D01*
X52991Y-27962D01*
X52937Y-27951D01*
X52722Y-27994D01*
X52541Y-28115D01*
X52437Y-28271D01*
X52332Y-28115D01*
X52151Y-27994D01*
X51937Y-27951D01*
X51722Y-27994D01*
X51541Y-28115D01*
X51497Y-28181D01*
X51497Y-28165D01*
X51459Y-28073D01*
X51388Y-28003D01*
X51296Y-27965D01*
X51197Y-27965D01*
X50887Y-27965D01*
X50887Y-26300D01*
X50887Y-25715D01*
X50887Y-25615D01*
X50887Y-25030D01*
X50800Y-24982D01*
X50768Y-24988D01*
X50576Y-25094D01*
X50438Y-25264D01*
X50377Y-25475D01*
X50377Y-25615D01*
X50887Y-25615D01*
X50887Y-25715D01*
X50377Y-25715D01*
X50377Y-25855D01*
X50438Y-26065D01*
X50576Y-26236D01*
X50768Y-26341D01*
X50800Y-26348D01*
X50887Y-26300D01*
X50887Y-27965D01*
X50577Y-27965D01*
X50485Y-28003D01*
X50415Y-28073D01*
X50377Y-28165D01*
X50376Y-28264D01*
X50376Y-29164D01*
X50414Y-29256D01*
X50485Y-29327D01*
X50577Y-29365D01*
X50676Y-29365D01*
X51296Y-29365D01*
X51388Y-29327D01*
X51458Y-29257D01*
X51496Y-29165D01*
X51496Y-29149D01*
X51541Y-29215D01*
X51722Y-29336D01*
X51937Y-29379D01*
X52151Y-29336D01*
X52332Y-29215D01*
X52437Y-29059D01*
X52541Y-29215D01*
X52722Y-29336D01*
X52937Y-29379D01*
X53151Y-29336D01*
X53332Y-29215D01*
X53437Y-29059D01*
X53541Y-29215D01*
X53722Y-29336D01*
X53937Y-29379D01*
X54151Y-29336D01*
X54332Y-29215D01*
X54437Y-29059D01*
X54541Y-29215D01*
X54722Y-29336D01*
X54937Y-29379D01*
X55151Y-29336D01*
X55332Y-29215D01*
X55437Y-29059D01*
X55541Y-29215D01*
X55709Y-29327D01*
X55608Y-29369D01*
X55460Y-29517D01*
X55380Y-29710D01*
X55380Y-29918D01*
X55460Y-30111D01*
X55607Y-30259D01*
X55740Y-30314D01*
X55608Y-30369D01*
X55460Y-30517D01*
X55380Y-30710D01*
X55380Y-30918D01*
X55460Y-31111D01*
X55607Y-31259D01*
X55800Y-31339D01*
X56009Y-31340D01*
X56202Y-31260D01*
X56350Y-31112D01*
X56430Y-30919D01*
X56430Y-30710D01*
X56350Y-30517D01*
X56203Y-30370D01*
X56070Y-30314D01*
X56202Y-30260D01*
X56350Y-30112D01*
X56430Y-29919D01*
X56430Y-29710D01*
X56350Y-29517D01*
X56203Y-29370D01*
X56131Y-29340D01*
X56151Y-29336D01*
X56332Y-29215D01*
X56437Y-29059D01*
X56541Y-29215D01*
X56722Y-29336D01*
X56937Y-29379D01*
X57151Y-29336D01*
X57332Y-29215D01*
X57454Y-29033D01*
X57497Y-28819D01*
X57497Y-29876D01*
X57384Y-29763D01*
X57191Y-29683D01*
X56982Y-29683D01*
X56789Y-29763D01*
X56641Y-29910D01*
X56561Y-30103D01*
X56561Y-30312D01*
X56641Y-30505D01*
X56788Y-30653D01*
X56921Y-30708D01*
X56789Y-30763D01*
X56641Y-30910D01*
X56561Y-31103D01*
X56561Y-31312D01*
X56641Y-31505D01*
X56788Y-31653D01*
X56981Y-31733D01*
X57190Y-31733D01*
X57383Y-31653D01*
X57531Y-31506D01*
X57611Y-31313D01*
X57611Y-31104D01*
X57611Y-32407D01*
X55249Y-32407D01*
X55249Y-31104D01*
X55169Y-30911D01*
X55022Y-30763D01*
X54889Y-30708D01*
X55021Y-30653D01*
X55169Y-30506D01*
X55249Y-30313D01*
X55249Y-30104D01*
X55169Y-29911D01*
X55022Y-29763D01*
X54829Y-29683D01*
X54620Y-29683D01*
X54427Y-29763D01*
X54279Y-29910D01*
X54199Y-30103D01*
X54199Y-30312D01*
X54279Y-30505D01*
X54426Y-30653D01*
X54559Y-30708D01*
X54427Y-30763D01*
X54279Y-30910D01*
X54199Y-31103D01*
X54199Y-31312D01*
X54279Y-31505D01*
X54426Y-31653D01*
X54619Y-31733D01*
X54828Y-31733D01*
X55021Y-31653D01*
X55169Y-31506D01*
X55249Y-31313D01*
X55249Y-31104D01*
X55249Y-32407D01*
X54442Y-32407D01*
X54127Y-32092D01*
X54040Y-32034D01*
X53937Y-32013D01*
X53543Y-32013D01*
X53440Y-32034D01*
X53352Y-32092D01*
X53037Y-32407D01*
X52493Y-32407D01*
X52493Y-31104D01*
X52413Y-30911D01*
X52266Y-30763D01*
X52133Y-30708D01*
X52265Y-30653D01*
X52413Y-30506D01*
X52493Y-30313D01*
X52493Y-30104D01*
X52413Y-29911D01*
X52266Y-29763D01*
X52073Y-29683D01*
X51864Y-29683D01*
X51671Y-29763D01*
X51523Y-29910D01*
X51443Y-30103D01*
X51443Y-30312D01*
X51523Y-30505D01*
X51670Y-30653D01*
X51803Y-30708D01*
X51671Y-30763D01*
X51523Y-30910D01*
X51443Y-31103D01*
X51443Y-31312D01*
X51523Y-31505D01*
X51670Y-31653D01*
X51863Y-31733D01*
X52072Y-31733D01*
X52265Y-31653D01*
X52413Y-31506D01*
X52493Y-31313D01*
X52493Y-31104D01*
X52493Y-32407D01*
X51507Y-32407D01*
X51507Y-31510D01*
X51443Y-31354D01*
X51323Y-31234D01*
X51167Y-31169D01*
X51081Y-31169D01*
X50720Y-30807D01*
X50720Y-30722D01*
X50655Y-30566D01*
X50536Y-30446D01*
X50380Y-30382D01*
X50211Y-30382D01*
X50054Y-30446D01*
X49935Y-30566D01*
X49870Y-30722D01*
X49870Y-30891D01*
X49934Y-31047D01*
X50054Y-31167D01*
X50210Y-31232D01*
X50296Y-31232D01*
X50657Y-31593D01*
X50657Y-31678D01*
X50722Y-31834D01*
X50841Y-31954D01*
X50997Y-32019D01*
X51166Y-32019D01*
X51323Y-31954D01*
X51442Y-31835D01*
X51507Y-31679D01*
X51507Y-31510D01*
X51507Y-32407D01*
X49603Y-32407D01*
X49603Y-24152D01*
X49596Y-23841D01*
X49491Y-23588D01*
X49372Y-23533D01*
X49301Y-23603D01*
X49301Y-23462D01*
X49245Y-23342D01*
X48955Y-23230D01*
X48644Y-23238D01*
X48391Y-23342D01*
X48336Y-23462D01*
X48818Y-23945D01*
X49301Y-23462D01*
X49301Y-23603D01*
X48889Y-24015D01*
X49372Y-24498D01*
X49491Y-24442D01*
X49603Y-24152D01*
X49603Y-32407D01*
X49301Y-32407D01*
X49301Y-24569D01*
X48818Y-24086D01*
X48747Y-24157D01*
X48747Y-24015D01*
X48265Y-23533D01*
X48145Y-23588D01*
X48033Y-23878D01*
X48041Y-24189D01*
X48145Y-24442D01*
X48265Y-24498D01*
X48747Y-24015D01*
X48747Y-24157D01*
X48336Y-24569D01*
X48391Y-24688D01*
X48681Y-24800D01*
X48992Y-24793D01*
X49245Y-24688D01*
X49301Y-24569D01*
X49301Y-32407D01*
X48222Y-32407D01*
X48222Y-30297D01*
X48211Y-30067D01*
X48143Y-29902D01*
X48045Y-29871D01*
X47974Y-29942D01*
X47974Y-29801D01*
X47943Y-29702D01*
X47726Y-29624D01*
X47506Y-29634D01*
X47506Y-25756D01*
X47423Y-25554D01*
X47341Y-25472D01*
X47422Y-25390D01*
X47506Y-25188D01*
X47506Y-24969D01*
X47423Y-24767D01*
X47268Y-24612D01*
X47066Y-24528D01*
X46847Y-24528D01*
X46645Y-24612D01*
X46490Y-24766D01*
X46459Y-24842D01*
X46437Y-24790D01*
X46342Y-24763D01*
X46271Y-24834D01*
X46271Y-24692D01*
X46244Y-24597D01*
X46038Y-24523D01*
X45819Y-24534D01*
X45668Y-24597D01*
X45641Y-24692D01*
X45956Y-25008D01*
X46271Y-24692D01*
X46271Y-24834D01*
X46027Y-25078D01*
X46342Y-25393D01*
X46437Y-25366D01*
X46457Y-25311D01*
X46490Y-25389D01*
X46572Y-25472D01*
X46490Y-25553D01*
X46456Y-25635D01*
X46423Y-25554D01*
X46268Y-25399D01*
X46163Y-25355D01*
X45956Y-25149D01*
X45885Y-25220D01*
X45885Y-25078D01*
X45570Y-24763D01*
X45475Y-24790D01*
X45401Y-24996D01*
X45412Y-25215D01*
X45475Y-25366D01*
X45570Y-25393D01*
X45885Y-25078D01*
X45885Y-25220D01*
X45750Y-25355D01*
X45645Y-25399D01*
X45490Y-25553D01*
X45406Y-25755D01*
X45406Y-25974D01*
X45490Y-26176D01*
X45644Y-26331D01*
X45846Y-26415D01*
X46065Y-26415D01*
X46267Y-26332D01*
X46422Y-26177D01*
X46456Y-26095D01*
X46490Y-26176D01*
X46644Y-26331D01*
X46846Y-26415D01*
X47065Y-26415D01*
X47267Y-26332D01*
X47422Y-26177D01*
X47506Y-25975D01*
X47506Y-25756D01*
X47506Y-29634D01*
X47496Y-29634D01*
X47331Y-29702D01*
X47300Y-29801D01*
X47637Y-30137D01*
X47974Y-29801D01*
X47974Y-29942D01*
X47708Y-30208D01*
X48045Y-30545D01*
X48143Y-30514D01*
X48222Y-30297D01*
X48222Y-32407D01*
X48217Y-32407D01*
X48217Y-31093D01*
X48129Y-30880D01*
X47966Y-30717D01*
X47945Y-30708D01*
X47974Y-30616D01*
X47637Y-30279D01*
X47567Y-30350D01*
X47567Y-30208D01*
X47230Y-29871D01*
X47131Y-29902D01*
X47053Y-30119D01*
X47063Y-30350D01*
X47131Y-30514D01*
X47230Y-30545D01*
X47567Y-30208D01*
X47567Y-30350D01*
X47300Y-30616D01*
X47329Y-30708D01*
X47309Y-30716D01*
X47146Y-30879D01*
X47057Y-31092D01*
X47057Y-31323D01*
X47145Y-31536D01*
X47308Y-31700D01*
X47521Y-31788D01*
X47752Y-31788D01*
X47965Y-31700D01*
X48129Y-31537D01*
X48217Y-31324D01*
X48217Y-31093D01*
X48217Y-32407D01*
X47749Y-32407D01*
X47041Y-31699D01*
X46953Y-31640D01*
X46850Y-31620D01*
X46253Y-31620D01*
X46253Y-30297D01*
X46243Y-30067D01*
X46175Y-29902D01*
X46076Y-29871D01*
X46006Y-29942D01*
X46006Y-29801D01*
X45975Y-29702D01*
X45758Y-29624D01*
X45527Y-29634D01*
X45363Y-29702D01*
X45332Y-29801D01*
X45669Y-30137D01*
X46006Y-29801D01*
X46006Y-29942D01*
X45740Y-30208D01*
X46076Y-30545D01*
X46175Y-30514D01*
X46253Y-30297D01*
X46253Y-31620D01*
X46078Y-31620D01*
X46160Y-31537D01*
X46249Y-31324D01*
X46249Y-31093D01*
X46161Y-30880D01*
X45998Y-30717D01*
X45977Y-30708D01*
X46006Y-30616D01*
X45669Y-30279D01*
X45598Y-30350D01*
X45598Y-30208D01*
X45261Y-29871D01*
X45163Y-29902D01*
X45084Y-30119D01*
X45095Y-30350D01*
X45163Y-30514D01*
X45261Y-30545D01*
X45598Y-30208D01*
X45598Y-30350D01*
X45332Y-30616D01*
X45361Y-30708D01*
X45341Y-30716D01*
X45177Y-30879D01*
X45089Y-31092D01*
X45089Y-31323D01*
X45177Y-31536D01*
X45260Y-31620D01*
X44881Y-31620D01*
X44879Y-31620D01*
X44879Y-24152D01*
X44872Y-23841D01*
X44767Y-23588D01*
X44648Y-23533D01*
X44577Y-23603D01*
X44165Y-24015D01*
X44648Y-24498D01*
X44767Y-24442D01*
X44879Y-24152D01*
X44879Y-31620D01*
X44778Y-31640D01*
X44691Y-31699D01*
X44577Y-31812D01*
X43982Y-32407D01*
X43576Y-32407D01*
X43576Y-24604D01*
X43612Y-24569D01*
X43667Y-24688D01*
X43957Y-24800D01*
X44268Y-24793D01*
X44521Y-24688D01*
X44577Y-24569D01*
X44094Y-24086D01*
X44089Y-24092D01*
X44018Y-24021D01*
X44023Y-24015D01*
X44018Y-24010D01*
X44089Y-23939D01*
X44094Y-23945D01*
X44577Y-23462D01*
X44521Y-23342D01*
X44231Y-23230D01*
X43920Y-23238D01*
X43667Y-23342D01*
X43612Y-23462D01*
X43576Y-23427D01*
X43576Y-21923D01*
X44881Y-21923D01*
X44985Y-21902D01*
X44988Y-21900D01*
X51160Y-21900D01*
X51010Y-22050D01*
X50926Y-22252D01*
X50926Y-22471D01*
X51009Y-22673D01*
X51164Y-22828D01*
X51366Y-22912D01*
X51585Y-22912D01*
X51787Y-22828D01*
X51942Y-22674D01*
X51976Y-22592D01*
X52009Y-22673D01*
X52164Y-22828D01*
X52366Y-22912D01*
X52585Y-22912D01*
X52787Y-22828D01*
X52942Y-22674D01*
X52973Y-22598D01*
X52995Y-22650D01*
X53090Y-22677D01*
X53405Y-22362D01*
X53090Y-22047D01*
X52995Y-22074D01*
X52975Y-22129D01*
X52942Y-22051D01*
X52792Y-21900D01*
X53182Y-21900D01*
X53161Y-21976D01*
X53476Y-22291D01*
X53791Y-21976D01*
X53769Y-21900D01*
X54160Y-21900D01*
X54010Y-22050D01*
X53978Y-22125D01*
X53957Y-22074D01*
X53862Y-22047D01*
X53547Y-22362D01*
X53862Y-22677D01*
X53957Y-22650D01*
X53977Y-22594D01*
X54009Y-22673D01*
X54164Y-22828D01*
X54366Y-22912D01*
X54534Y-22912D01*
X54488Y-22958D01*
X54450Y-23050D01*
X54449Y-23149D01*
X54449Y-23749D01*
X54487Y-23841D01*
X54558Y-23911D01*
X54650Y-23949D01*
X54672Y-23949D01*
X54534Y-24088D01*
X54450Y-24290D01*
X54449Y-24508D01*
X54533Y-24711D01*
X54688Y-24865D01*
X54890Y-24949D01*
X55108Y-24950D01*
X55311Y-24866D01*
X55449Y-24727D01*
X55449Y-24749D01*
X55487Y-24841D01*
X55558Y-24911D01*
X55650Y-24949D01*
X55749Y-24950D01*
X56349Y-24950D01*
X56441Y-24912D01*
X56511Y-24841D01*
X56549Y-24749D01*
X56549Y-24700D01*
X56820Y-24700D01*
X56820Y-24699D01*
X56935Y-24677D01*
X56935Y-24677D01*
X57032Y-24612D01*
X57046Y-24598D01*
X57131Y-24598D01*
X57287Y-24533D01*
X57342Y-24478D01*
X57396Y-24533D01*
X57552Y-24598D01*
X57721Y-24598D01*
X57878Y-24533D01*
X57997Y-24414D01*
X58062Y-24258D01*
X58062Y-24089D01*
X58052Y-24064D01*
X59259Y-22857D01*
X59390Y-22912D01*
X59608Y-22912D01*
X59811Y-22828D01*
X59965Y-22674D01*
X59999Y-22592D01*
X60033Y-22673D01*
X60188Y-22828D01*
X60390Y-22912D01*
X60608Y-22912D01*
X60811Y-22828D01*
X60949Y-22690D01*
X60949Y-22711D01*
X60987Y-22803D01*
X61058Y-22874D01*
X61150Y-22912D01*
X61249Y-22912D01*
X61849Y-22912D01*
X61941Y-22874D01*
X62011Y-22804D01*
X62049Y-22712D01*
X62050Y-22612D01*
X62050Y-22012D01*
X62013Y-21923D01*
X62093Y-21923D01*
X62722Y-22552D01*
X62722Y-25478D01*
X62722Y-25478D01*
G37*
G54D20*
X62722Y-25478D02*
X62407Y-25793D01*
X62349Y-25881D01*
X62328Y-25984D01*
X62328Y-30596D01*
X62159Y-30766D01*
X62159Y-29596D01*
X62159Y-27234D01*
X62061Y-26998D01*
X61880Y-26816D01*
X61772Y-26771D01*
X61879Y-26727D01*
X62061Y-26546D01*
X62159Y-26309D01*
X62159Y-26053D01*
X62159Y-23691D01*
X62061Y-23454D01*
X61880Y-23273D01*
X61644Y-23175D01*
X61388Y-23175D01*
X61151Y-23272D01*
X60970Y-23453D01*
X60872Y-23690D01*
X60871Y-23946D01*
X60969Y-24183D01*
X61150Y-24364D01*
X61387Y-24462D01*
X61643Y-24462D01*
X61879Y-24364D01*
X62061Y-24184D01*
X62159Y-23947D01*
X62159Y-23691D01*
X62159Y-26053D01*
X62061Y-25816D01*
X61880Y-25635D01*
X61644Y-25537D01*
X61388Y-25537D01*
X61151Y-25635D01*
X60970Y-25815D01*
X60872Y-26052D01*
X60871Y-26308D01*
X60969Y-26545D01*
X61150Y-26726D01*
X61259Y-26771D01*
X61151Y-26816D01*
X60970Y-26997D01*
X60872Y-27233D01*
X60871Y-27489D01*
X60969Y-27726D01*
X61150Y-27907D01*
X61387Y-28005D01*
X61643Y-28006D01*
X61879Y-27908D01*
X62061Y-27727D01*
X62159Y-27490D01*
X62159Y-27234D01*
X62159Y-29596D01*
X62061Y-29360D01*
X61880Y-29179D01*
X61644Y-29080D01*
X61388Y-29080D01*
X61151Y-29178D01*
X60970Y-29359D01*
X60872Y-29595D01*
X60871Y-29851D01*
X60969Y-30088D01*
X61150Y-30269D01*
X61387Y-30367D01*
X61643Y-30368D01*
X61879Y-30270D01*
X62061Y-30089D01*
X62159Y-29853D01*
X62159Y-29596D01*
X62159Y-30766D01*
X61699Y-31226D01*
X61135Y-31226D01*
X60820Y-30911D01*
X60733Y-30853D01*
X60629Y-30832D01*
X60392Y-30832D01*
X60392Y-27466D01*
X60392Y-23923D01*
X60382Y-23667D01*
X60302Y-23474D01*
X60197Y-23435D01*
X60127Y-23506D01*
X60127Y-23365D01*
X60088Y-23260D01*
X59848Y-23170D01*
X59592Y-23180D01*
X59399Y-23260D01*
X59361Y-23365D01*
X59744Y-23748D01*
X60127Y-23365D01*
X60127Y-23506D01*
X59814Y-23818D01*
X60197Y-24201D01*
X60302Y-24163D01*
X60392Y-23923D01*
X60392Y-27466D01*
X60387Y-27353D01*
X60387Y-26053D01*
X60290Y-25816D01*
X60127Y-25653D01*
X60127Y-24272D01*
X59744Y-23889D01*
X59673Y-23960D01*
X59673Y-23818D01*
X59290Y-23435D01*
X59185Y-23474D01*
X59096Y-23714D01*
X59105Y-23970D01*
X59185Y-24163D01*
X59290Y-24201D01*
X59673Y-23818D01*
X59673Y-23960D01*
X59361Y-24272D01*
X59399Y-24377D01*
X59639Y-24466D01*
X59895Y-24457D01*
X60088Y-24377D01*
X60127Y-24272D01*
X60127Y-25653D01*
X60109Y-25635D01*
X59872Y-25537D01*
X59616Y-25537D01*
X59379Y-25635D01*
X59198Y-25815D01*
X59165Y-25896D01*
X59165Y-24482D01*
X59100Y-24326D01*
X58981Y-24206D01*
X58825Y-24142D01*
X58655Y-24141D01*
X58499Y-24206D01*
X58439Y-24266D01*
X58346Y-24266D01*
X58231Y-24289D01*
X58134Y-24354D01*
X57349Y-25139D01*
X57332Y-25115D01*
X57151Y-24994D01*
X56937Y-24951D01*
X56722Y-24994D01*
X56541Y-25115D01*
X56437Y-25271D01*
X56332Y-25115D01*
X56151Y-24994D01*
X55937Y-24951D01*
X55722Y-24994D01*
X55541Y-25115D01*
X55437Y-25271D01*
X55332Y-25115D01*
X55151Y-24994D01*
X54937Y-24951D01*
X54722Y-24994D01*
X54541Y-25115D01*
X54437Y-25271D01*
X54332Y-25115D01*
X54151Y-24994D01*
X53937Y-24951D01*
X53791Y-24980D01*
X53791Y-22748D01*
X53476Y-22432D01*
X53161Y-22748D01*
X53188Y-22843D01*
X53394Y-22916D01*
X53613Y-22906D01*
X53764Y-22843D01*
X53791Y-22748D01*
X53791Y-24980D01*
X53722Y-24994D01*
X53541Y-25115D01*
X53437Y-25271D01*
X53332Y-25115D01*
X53151Y-24994D01*
X52937Y-24951D01*
X52722Y-24994D01*
X52541Y-25115D01*
X52437Y-25271D01*
X52332Y-25115D01*
X52151Y-24994D01*
X51937Y-24951D01*
X51722Y-24994D01*
X51541Y-25115D01*
X51437Y-25271D01*
X51435Y-25264D01*
X51297Y-25094D01*
X51105Y-24988D01*
X51073Y-24982D01*
X50987Y-25030D01*
X50987Y-25615D01*
X50994Y-25615D01*
X50994Y-25715D01*
X50987Y-25715D01*
X50987Y-26300D01*
X51073Y-26348D01*
X51105Y-26341D01*
X51297Y-26236D01*
X51435Y-26065D01*
X51437Y-26059D01*
X51541Y-26215D01*
X51722Y-26336D01*
X51937Y-26379D01*
X52151Y-26336D01*
X52332Y-26215D01*
X52437Y-26059D01*
X52541Y-26215D01*
X52722Y-26336D01*
X52937Y-26379D01*
X53151Y-26336D01*
X53332Y-26215D01*
X53437Y-26059D01*
X53541Y-26215D01*
X53722Y-26336D01*
X53937Y-26379D01*
X54151Y-26336D01*
X54332Y-26215D01*
X54437Y-26059D01*
X54541Y-26215D01*
X54722Y-26336D01*
X54937Y-26379D01*
X55151Y-26336D01*
X55332Y-26215D01*
X55437Y-26059D01*
X55541Y-26215D01*
X55722Y-26336D01*
X55937Y-26379D01*
X56151Y-26336D01*
X56332Y-26215D01*
X56437Y-26059D01*
X56541Y-26215D01*
X56722Y-26336D01*
X56937Y-26379D01*
X57151Y-26336D01*
X57332Y-26215D01*
X57454Y-26033D01*
X57491Y-25845D01*
X58454Y-24882D01*
X58499Y-24927D01*
X58655Y-24991D01*
X58824Y-24992D01*
X58980Y-24927D01*
X59100Y-24807D01*
X59165Y-24651D01*
X59165Y-24482D01*
X59165Y-25896D01*
X59100Y-26052D01*
X59100Y-26308D01*
X59198Y-26545D01*
X59378Y-26726D01*
X59482Y-26769D01*
X59399Y-26803D01*
X59361Y-26908D01*
X59744Y-27291D01*
X60127Y-26908D01*
X60088Y-26803D01*
X60001Y-26771D01*
X60108Y-26727D01*
X60289Y-26546D01*
X60387Y-26309D01*
X60387Y-26053D01*
X60387Y-27353D01*
X60382Y-27210D01*
X60302Y-27018D01*
X60197Y-26979D01*
X59814Y-27362D01*
X60197Y-27745D01*
X60302Y-27706D01*
X60392Y-27466D01*
X60392Y-30832D01*
X60387Y-30832D01*
X60387Y-29596D01*
X60290Y-29360D01*
X60127Y-29196D01*
X60127Y-27815D01*
X59744Y-27432D01*
X59673Y-27503D01*
X59673Y-27362D01*
X59290Y-26979D01*
X59185Y-27018D01*
X59096Y-27258D01*
X59105Y-27513D01*
X59185Y-27706D01*
X59290Y-27745D01*
X59673Y-27362D01*
X59673Y-27503D01*
X59361Y-27815D01*
X59399Y-27921D01*
X59639Y-28010D01*
X59895Y-28000D01*
X60088Y-27921D01*
X60127Y-27815D01*
X60127Y-29196D01*
X60109Y-29179D01*
X59872Y-29080D01*
X59616Y-29080D01*
X59379Y-29178D01*
X59198Y-29359D01*
X59100Y-29595D01*
X59100Y-29851D01*
X59198Y-30088D01*
X59378Y-30269D01*
X59615Y-30367D01*
X59871Y-30368D01*
X60108Y-30270D01*
X60289Y-30089D01*
X60387Y-29853D01*
X60387Y-29596D01*
X60387Y-30832D01*
X59448Y-30832D01*
X59345Y-30853D01*
X59258Y-30911D01*
X58864Y-31305D01*
X58805Y-31392D01*
X58785Y-31496D01*
X58785Y-32171D01*
X58549Y-32407D01*
X57611Y-32407D01*
X57611Y-31104D01*
X57531Y-30911D01*
X57384Y-30763D01*
X57251Y-30708D01*
X57383Y-30653D01*
X57531Y-30506D01*
X57611Y-30313D01*
X57611Y-30104D01*
X57531Y-29911D01*
X57497Y-29876D01*
X57497Y-28819D01*
X57497Y-28511D01*
X57454Y-28297D01*
X57332Y-28115D01*
X57151Y-27994D01*
X56937Y-27951D01*
X56722Y-27994D01*
X56541Y-28115D01*
X56437Y-28271D01*
X56332Y-28115D01*
X56151Y-27994D01*
X55937Y-27951D01*
X55722Y-27994D01*
X55541Y-28115D01*
X55437Y-28271D01*
X55332Y-28115D01*
X55151Y-27994D01*
X54937Y-27951D01*
X54722Y-27994D01*
X54541Y-28115D01*
X54437Y-28271D01*
X54332Y-28115D01*
X54151Y-27994D01*
X53937Y-27951D01*
X53829Y-27973D01*
X53936Y-27865D01*
X54021Y-27866D01*
X54177Y-27801D01*
X54297Y-27682D01*
X54361Y-27525D01*
X54362Y-27356D01*
X54297Y-27200D01*
X54178Y-27080D01*
X54021Y-27016D01*
X53852Y-27015D01*
X53696Y-27080D01*
X53576Y-27199D01*
X53512Y-27356D01*
X53512Y-27441D01*
X52991Y-27962D01*
X52937Y-27951D01*
X52722Y-27994D01*
X52541Y-28115D01*
X52437Y-28271D01*
X52332Y-28115D01*
X52151Y-27994D01*
X51937Y-27951D01*
X51722Y-27994D01*
X51541Y-28115D01*
X51497Y-28181D01*
X51497Y-28165D01*
X51459Y-28073D01*
X51388Y-28003D01*
X51296Y-27965D01*
X51197Y-27965D01*
X50887Y-27965D01*
X50887Y-26300D01*
X50887Y-25715D01*
X50887Y-25615D01*
X50887Y-25030D01*
X50800Y-24982D01*
X50768Y-24988D01*
X50576Y-25094D01*
X50438Y-25264D01*
X50377Y-25475D01*
X50377Y-25615D01*
X50887Y-25615D01*
X50887Y-25715D01*
X50377Y-25715D01*
X50377Y-25855D01*
X50438Y-26065D01*
X50576Y-26236D01*
X50768Y-26341D01*
X50800Y-26348D01*
X50887Y-26300D01*
X50887Y-27965D01*
X50577Y-27965D01*
X50485Y-28003D01*
X50415Y-28073D01*
X50377Y-28165D01*
X50376Y-28264D01*
X50376Y-29164D01*
X50414Y-29256D01*
X50485Y-29327D01*
X50577Y-29365D01*
X50676Y-29365D01*
X51296Y-29365D01*
X51388Y-29327D01*
X51458Y-29257D01*
X51496Y-29165D01*
X51496Y-29149D01*
X51541Y-29215D01*
X51722Y-29336D01*
X51937Y-29379D01*
X52151Y-29336D01*
X52332Y-29215D01*
X52437Y-29059D01*
X52541Y-29215D01*
X52722Y-29336D01*
X52937Y-29379D01*
X53151Y-29336D01*
X53332Y-29215D01*
X53437Y-29059D01*
X53541Y-29215D01*
X53722Y-29336D01*
X53937Y-29379D01*
X54151Y-29336D01*
X54332Y-29215D01*
X54437Y-29059D01*
X54541Y-29215D01*
X54722Y-29336D01*
X54937Y-29379D01*
X55151Y-29336D01*
X55332Y-29215D01*
X55437Y-29059D01*
X55541Y-29215D01*
X55709Y-29327D01*
X55608Y-29369D01*
X55460Y-29517D01*
X55380Y-29710D01*
X55380Y-29918D01*
X55460Y-30111D01*
X55607Y-30259D01*
X55740Y-30314D01*
X55608Y-30369D01*
X55460Y-30517D01*
X55380Y-30710D01*
X55380Y-30918D01*
X55460Y-31111D01*
X55607Y-31259D01*
X55800Y-31339D01*
X56009Y-31340D01*
X56202Y-31260D01*
X56350Y-31112D01*
X56430Y-30919D01*
X56430Y-30710D01*
X56350Y-30517D01*
X56203Y-30370D01*
X56070Y-30314D01*
X56202Y-30260D01*
X56350Y-30112D01*
X56430Y-29919D01*
X56430Y-29710D01*
X56350Y-29517D01*
X56203Y-29370D01*
X56131Y-29340D01*
X56151Y-29336D01*
X56332Y-29215D01*
X56437Y-29059D01*
X56541Y-29215D01*
X56722Y-29336D01*
X56937Y-29379D01*
X57151Y-29336D01*
X57332Y-29215D01*
X57454Y-29033D01*
X57497Y-28819D01*
X57497Y-29876D01*
X57384Y-29763D01*
X57191Y-29683D01*
X56982Y-29683D01*
X56789Y-29763D01*
X56641Y-29910D01*
X56561Y-30103D01*
X56561Y-30312D01*
X56641Y-30505D01*
X56788Y-30653D01*
X56921Y-30708D01*
X56789Y-30763D01*
X56641Y-30910D01*
X56561Y-31103D01*
X56561Y-31312D01*
X56641Y-31505D01*
X56788Y-31653D01*
X56981Y-31733D01*
X57190Y-31733D01*
X57383Y-31653D01*
X57531Y-31506D01*
X57611Y-31313D01*
X57611Y-31104D01*
X57611Y-32407D01*
X55249Y-32407D01*
X55249Y-31104D01*
X55169Y-30911D01*
X55022Y-30763D01*
X54889Y-30708D01*
X55021Y-30653D01*
X55169Y-30506D01*
X55249Y-30313D01*
X55249Y-30104D01*
X55169Y-29911D01*
X55022Y-29763D01*
X54829Y-29683D01*
X54620Y-29683D01*
X54427Y-29763D01*
X54279Y-29910D01*
X54199Y-30103D01*
X54199Y-30312D01*
X54279Y-30505D01*
X54426Y-30653D01*
X54559Y-30708D01*
X54427Y-30763D01*
X54279Y-30910D01*
X54199Y-31103D01*
X54199Y-31312D01*
X54279Y-31505D01*
X54426Y-31653D01*
X54619Y-31733D01*
X54828Y-31733D01*
X55021Y-31653D01*
X55169Y-31506D01*
X55249Y-31313D01*
X55249Y-31104D01*
X55249Y-32407D01*
X54442Y-32407D01*
X54127Y-32092D01*
X54040Y-32034D01*
X53937Y-32013D01*
X53543Y-32013D01*
X53440Y-32034D01*
X53352Y-32092D01*
X53037Y-32407D01*
X52493Y-32407D01*
X52493Y-31104D01*
X52413Y-30911D01*
X52266Y-30763D01*
X52133Y-30708D01*
X52265Y-30653D01*
X52413Y-30506D01*
X52493Y-30313D01*
X52493Y-30104D01*
X52413Y-29911D01*
X52266Y-29763D01*
X52073Y-29683D01*
X51864Y-29683D01*
X51671Y-29763D01*
X51523Y-29910D01*
X51443Y-30103D01*
X51443Y-30312D01*
X51523Y-30505D01*
X51670Y-30653D01*
X51803Y-30708D01*
X51671Y-30763D01*
X51523Y-30910D01*
X51443Y-31103D01*
X51443Y-31312D01*
X51523Y-31505D01*
X51670Y-31653D01*
X51863Y-31733D01*
X52072Y-31733D01*
X52265Y-31653D01*
X52413Y-31506D01*
X52493Y-31313D01*
X52493Y-31104D01*
X52493Y-32407D01*
X51507Y-32407D01*
X51507Y-31510D01*
X51443Y-31354D01*
X51323Y-31234D01*
X51167Y-31169D01*
X51081Y-31169D01*
X50720Y-30807D01*
X50720Y-30722D01*
X50655Y-30566D01*
X50536Y-30446D01*
X50380Y-30382D01*
X50211Y-30382D01*
X50054Y-30446D01*
X49935Y-30566D01*
X49870Y-30722D01*
X49870Y-30891D01*
X49934Y-31047D01*
X50054Y-31167D01*
X50210Y-31232D01*
X50296Y-31232D01*
X50657Y-31593D01*
X50657Y-31678D01*
X50722Y-31834D01*
X50841Y-31954D01*
X50997Y-32019D01*
X51166Y-32019D01*
X51323Y-31954D01*
X51442Y-31835D01*
X51507Y-31679D01*
X51507Y-31510D01*
X51507Y-32407D01*
X49603Y-32407D01*
X49603Y-24152D01*
X49596Y-23841D01*
X49491Y-23588D01*
X49372Y-23533D01*
X49301Y-23603D01*
X49301Y-23462D01*
X49245Y-23342D01*
X48955Y-23230D01*
X48644Y-23238D01*
X48391Y-23342D01*
X48336Y-23462D01*
X48818Y-23945D01*
X49301Y-23462D01*
X49301Y-23603D01*
X48889Y-24015D01*
X49372Y-24498D01*
X49491Y-24442D01*
X49603Y-24152D01*
X49603Y-32407D01*
X49301Y-32407D01*
X49301Y-24569D01*
X48818Y-24086D01*
X48747Y-24157D01*
X48747Y-24015D01*
X48265Y-23533D01*
X48145Y-23588D01*
X48033Y-23878D01*
X48041Y-24189D01*
X48145Y-24442D01*
X48265Y-24498D01*
X48747Y-24015D01*
X48747Y-24157D01*
X48336Y-24569D01*
X48391Y-24688D01*
X48681Y-24800D01*
X48992Y-24793D01*
X49245Y-24688D01*
X49301Y-24569D01*
X49301Y-32407D01*
X48222Y-32407D01*
X48222Y-30297D01*
X48211Y-30067D01*
X48143Y-29902D01*
X48045Y-29871D01*
X47974Y-29942D01*
X47974Y-29801D01*
X47943Y-29702D01*
X47726Y-29624D01*
X47506Y-29634D01*
X47506Y-25756D01*
X47423Y-25554D01*
X47341Y-25472D01*
X47422Y-25390D01*
X47506Y-25188D01*
X47506Y-24969D01*
X47423Y-24767D01*
X47268Y-24612D01*
X47066Y-24528D01*
X46847Y-24528D01*
X46645Y-24612D01*
X46490Y-24766D01*
X46459Y-24842D01*
X46437Y-24790D01*
X46342Y-24763D01*
X46271Y-24834D01*
X46271Y-24692D01*
X46244Y-24597D01*
X46038Y-24523D01*
X45819Y-24534D01*
X45668Y-24597D01*
X45641Y-24692D01*
X45956Y-25008D01*
X46271Y-24692D01*
X46271Y-24834D01*
X46027Y-25078D01*
X46342Y-25393D01*
X46437Y-25366D01*
X46457Y-25311D01*
X46490Y-25389D01*
X46572Y-25472D01*
X46490Y-25553D01*
X46456Y-25635D01*
X46423Y-25554D01*
X46268Y-25399D01*
X46163Y-25355D01*
X45956Y-25149D01*
X45885Y-25220D01*
X45885Y-25078D01*
X45570Y-24763D01*
X45475Y-24790D01*
X45401Y-24996D01*
X45412Y-25215D01*
X45475Y-25366D01*
X45570Y-25393D01*
X45885Y-25078D01*
X45885Y-25220D01*
X45750Y-25355D01*
X45645Y-25399D01*
X45490Y-25553D01*
X45406Y-25755D01*
X45406Y-25974D01*
X45490Y-26176D01*
X45644Y-26331D01*
X45846Y-26415D01*
X46065Y-26415D01*
X46267Y-26332D01*
X46422Y-26177D01*
X46456Y-26095D01*
X46490Y-26176D01*
X46644Y-26331D01*
X46846Y-26415D01*
X47065Y-26415D01*
X47267Y-26332D01*
X47422Y-26177D01*
X47506Y-25975D01*
X47506Y-25756D01*
X47506Y-29634D01*
X47496Y-29634D01*
X47331Y-29702D01*
X47300Y-29801D01*
X47637Y-30137D01*
X47974Y-29801D01*
X47974Y-29942D01*
X47708Y-30208D01*
X48045Y-30545D01*
X48143Y-30514D01*
X48222Y-30297D01*
X48222Y-32407D01*
X48217Y-32407D01*
X48217Y-31093D01*
X48129Y-30880D01*
X47966Y-30717D01*
X47945Y-30708D01*
X47974Y-30616D01*
X47637Y-30279D01*
X47567Y-30350D01*
X47567Y-30208D01*
X47230Y-29871D01*
X47131Y-29902D01*
X47053Y-30119D01*
X47063Y-30350D01*
X47131Y-30514D01*
X47230Y-30545D01*
X47567Y-30208D01*
X47567Y-30350D01*
X47300Y-30616D01*
X47329Y-30708D01*
X47309Y-30716D01*
X47146Y-30879D01*
X47057Y-31092D01*
X47057Y-31323D01*
X47145Y-31536D01*
X47308Y-31700D01*
X47521Y-31788D01*
X47752Y-31788D01*
X47965Y-31700D01*
X48129Y-31537D01*
X48217Y-31324D01*
X48217Y-31093D01*
X48217Y-32407D01*
X47749Y-32407D01*
X47041Y-31699D01*
X46953Y-31640D01*
X46850Y-31620D01*
X46253Y-31620D01*
X46253Y-30297D01*
X46243Y-30067D01*
X46175Y-29902D01*
X46076Y-29871D01*
X46006Y-29942D01*
X46006Y-29801D01*
X45975Y-29702D01*
X45758Y-29624D01*
X45527Y-29634D01*
X45363Y-29702D01*
X45332Y-29801D01*
X45669Y-30137D01*
X46006Y-29801D01*
X46006Y-29942D01*
X45740Y-30208D01*
X46076Y-30545D01*
X46175Y-30514D01*
X46253Y-30297D01*
X46253Y-31620D01*
X46078Y-31620D01*
X46160Y-31537D01*
X46249Y-31324D01*
X46249Y-31093D01*
X46161Y-30880D01*
X45998Y-30717D01*
X45977Y-30708D01*
X46006Y-30616D01*
X45669Y-30279D01*
X45598Y-30350D01*
X45598Y-30208D01*
X45261Y-29871D01*
X45163Y-29902D01*
X45084Y-30119D01*
X45095Y-30350D01*
X45163Y-30514D01*
X45261Y-30545D01*
X45598Y-30208D01*
X45598Y-30350D01*
X45332Y-30616D01*
X45361Y-30708D01*
X45341Y-30716D01*
X45177Y-30879D01*
X45089Y-31092D01*
X45089Y-31323D01*
X45177Y-31536D01*
X45260Y-31620D01*
X44881Y-31620D01*
X44879Y-31620D01*
X44879Y-24152D01*
X44872Y-23841D01*
X44767Y-23588D01*
X44648Y-23533D01*
X44577Y-23603D01*
X44165Y-24015D01*
X44648Y-24498D01*
X44767Y-24442D01*
X44879Y-24152D01*
X44879Y-31620D01*
X44778Y-31640D01*
X44691Y-31699D01*
X44577Y-31812D01*
X43982Y-32407D01*
X43576Y-32407D01*
X43576Y-24604D01*
X43612Y-24569D01*
X43667Y-24688D01*
X43957Y-24800D01*
X44268Y-24793D01*
X44521Y-24688D01*
X44577Y-24569D01*
X44094Y-24086D01*
X44089Y-24092D01*
X44018Y-24021D01*
X44023Y-24015D01*
X44018Y-24010D01*
X44089Y-23939D01*
X44094Y-23945D01*
X44577Y-23462D01*
X44521Y-23342D01*
X44231Y-23230D01*
X43920Y-23238D01*
X43667Y-23342D01*
X43612Y-23462D01*
X43576Y-23427D01*
X43576Y-21923D01*
X44881Y-21923D01*
X44985Y-21902D01*
X44988Y-21900D01*
X51160Y-21900D01*
X51010Y-22050D01*
X50926Y-22252D01*
X50926Y-22471D01*
X51009Y-22673D01*
X51164Y-22828D01*
X51366Y-22912D01*
X51585Y-22912D01*
X51787Y-22828D01*
X51942Y-22674D01*
X51976Y-22592D01*
X52009Y-22673D01*
X52164Y-22828D01*
X52366Y-22912D01*
X52585Y-22912D01*
X52787Y-22828D01*
X52942Y-22674D01*
X52973Y-22598D01*
X52995Y-22650D01*
X53090Y-22677D01*
X53405Y-22362D01*
X53090Y-22047D01*
X52995Y-22074D01*
X52975Y-22129D01*
X52942Y-22051D01*
X52792Y-21900D01*
X53182Y-21900D01*
X53161Y-21976D01*
X53476Y-22291D01*
X53791Y-21976D01*
X53769Y-21900D01*
X54160Y-21900D01*
X54010Y-22050D01*
X53978Y-22125D01*
X53957Y-22074D01*
X53862Y-22047D01*
X53547Y-22362D01*
X53862Y-22677D01*
X53957Y-22650D01*
X53977Y-22594D01*
X54009Y-22673D01*
X54164Y-22828D01*
X54366Y-22912D01*
X54534Y-22912D01*
X54488Y-22958D01*
X54450Y-23050D01*
X54449Y-23149D01*
X54449Y-23749D01*
X54487Y-23841D01*
X54558Y-23911D01*
X54650Y-23949D01*
X54672Y-23949D01*
X54534Y-24088D01*
X54450Y-24290D01*
X54449Y-24508D01*
X54533Y-24711D01*
X54688Y-24865D01*
X54890Y-24949D01*
X55108Y-24950D01*
X55311Y-24866D01*
X55449Y-24727D01*
X55449Y-24749D01*
X55487Y-24841D01*
X55558Y-24911D01*
X55650Y-24949D01*
X55749Y-24950D01*
X56349Y-24950D01*
X56441Y-24912D01*
X56511Y-24841D01*
X56549Y-24749D01*
X56549Y-24700D01*
X56820Y-24700D01*
X56820Y-24699D01*
X56935Y-24677D01*
X56935Y-24677D01*
X57032Y-24612D01*
X57046Y-24598D01*
X57131Y-24598D01*
X57287Y-24533D01*
X57342Y-24478D01*
X57396Y-24533D01*
X57552Y-24598D01*
X57721Y-24598D01*
X57878Y-24533D01*
X57997Y-24414D01*
X58062Y-24258D01*
X58062Y-24089D01*
X58052Y-24064D01*
X59259Y-22857D01*
X59390Y-22912D01*
X59608Y-22912D01*
X59811Y-22828D01*
X59965Y-22674D01*
X59999Y-22592D01*
X60033Y-22673D01*
X60188Y-22828D01*
X60390Y-22912D01*
X60608Y-22912D01*
X60811Y-22828D01*
X60949Y-22690D01*
X60949Y-22711D01*
X60987Y-22803D01*
X61058Y-22874D01*
X61150Y-22912D01*
X61249Y-22912D01*
X61849Y-22912D01*
X61941Y-22874D01*
X62011Y-22804D01*
X62049Y-22712D01*
X62050Y-22612D01*
X62050Y-22012D01*
X62013Y-21923D01*
X62093Y-21923D01*
X62722Y-22552D01*
X62722Y-25478D01*
M02*
