G04 (created by PCBNEW (2013-07-07 BZR 4022)-stable) date 07/09/2014 13:51:04*
%MOIN*%
G04 Gerber Fmt 3.4, Leading zero omitted, Abs format*
%FSLAX34Y34*%
G01*
G70*
G90*
G04 APERTURE LIST*
%ADD10C,0.00590551*%
%ADD11R,0.06X0.06*%
%ADD12C,0.06*%
%ADD13C,0.1063*%
%ADD14C,0.0787402*%
%ADD15C,0.055*%
%ADD16C,0.066*%
%ADD17R,0.062X0.09*%
%ADD18O,0.062X0.09*%
%ADD19C,0.035*%
%ADD20C,0.01*%
%ADD21C,0.02*%
G04 APERTURE END LIST*
G54D10*
G54D11*
X56476Y-22362D03*
G54D12*
X53476Y-22362D03*
X55476Y-22362D03*
X52476Y-22362D03*
X54476Y-22362D03*
X51476Y-22362D03*
X45956Y-25865D03*
X46956Y-25865D03*
X46956Y-25078D03*
X45956Y-25078D03*
G54D13*
X44094Y-24015D03*
X48818Y-24015D03*
G54D14*
X59744Y-29724D03*
X59744Y-27362D03*
X61515Y-29724D03*
X61515Y-27362D03*
X59744Y-26181D03*
X59744Y-23818D03*
X61515Y-26181D03*
X61515Y-23818D03*
G54D15*
X54724Y-30208D03*
X54724Y-31208D03*
X55905Y-30814D03*
X55905Y-29814D03*
X57086Y-30208D03*
X57086Y-31208D03*
X51968Y-30208D03*
X51968Y-31208D03*
G54D11*
X61500Y-22362D03*
G54D12*
X60500Y-22362D03*
X59500Y-22362D03*
X58500Y-22362D03*
G54D11*
X55000Y-23400D03*
G54D12*
X56000Y-23400D03*
G54D11*
X56000Y-24400D03*
G54D12*
X55000Y-24400D03*
G54D16*
X45669Y-31208D03*
X45669Y-30208D03*
X47637Y-31208D03*
X47637Y-30208D03*
G54D17*
X50937Y-28665D03*
G54D18*
X51937Y-28665D03*
X52937Y-28665D03*
X53937Y-28665D03*
X54937Y-28665D03*
X55937Y-28665D03*
X56937Y-28665D03*
X56937Y-25665D03*
X55937Y-25665D03*
X54937Y-25665D03*
X53937Y-25665D03*
X52937Y-25665D03*
X51937Y-25665D03*
X50937Y-25665D03*
G54D19*
X58740Y-24566D03*
X53937Y-27440D03*
X57637Y-24173D03*
X57047Y-24173D03*
X51082Y-31594D03*
X50295Y-30807D03*
G54D20*
X54724Y-30208D02*
X55178Y-30208D01*
X58748Y-30720D02*
X59744Y-29724D01*
X56610Y-30720D02*
X58748Y-30720D01*
X56170Y-30280D02*
X56610Y-30720D01*
X55250Y-30280D02*
X56170Y-30280D01*
X55178Y-30208D02*
X55250Y-30280D01*
X54724Y-30208D02*
X54724Y-28877D01*
X54724Y-28877D02*
X54937Y-28665D01*
X55937Y-28665D02*
X55937Y-28192D01*
X58261Y-27270D02*
X59744Y-25787D01*
X56860Y-27270D02*
X58261Y-27270D01*
X55937Y-28192D02*
X56860Y-27270D01*
X55905Y-29814D02*
X55905Y-28696D01*
X55905Y-28696D02*
X55937Y-28665D01*
X60708Y-23153D02*
X61500Y-22362D01*
X60708Y-24291D02*
X60708Y-23153D01*
X60433Y-24566D02*
X60708Y-24291D01*
X58740Y-24566D02*
X60433Y-24566D01*
X46956Y-25078D02*
X49330Y-25078D01*
X51937Y-25165D02*
X51937Y-25665D01*
X51574Y-24803D02*
X51937Y-25165D01*
X49606Y-24803D02*
X51574Y-24803D01*
X49330Y-25078D02*
X49606Y-24803D01*
X46956Y-25865D02*
X49487Y-25865D01*
X52937Y-26000D02*
X52937Y-25665D01*
X52362Y-26574D02*
X52937Y-26000D01*
X50196Y-26574D02*
X52362Y-26574D01*
X49487Y-25865D02*
X50196Y-26574D01*
X55476Y-22362D02*
X55476Y-22876D01*
X55476Y-22876D02*
X56000Y-23400D01*
X55937Y-25665D02*
X55937Y-25657D01*
X56274Y-23400D02*
X56000Y-23400D01*
X56692Y-23818D02*
X56274Y-23400D01*
X56692Y-24901D02*
X56692Y-23818D01*
X55937Y-25657D02*
X56692Y-24901D01*
X54476Y-22362D02*
X54476Y-22649D01*
X54636Y-24400D02*
X55000Y-24400D01*
X54330Y-24094D02*
X54636Y-24400D01*
X54330Y-22795D02*
X54330Y-24094D01*
X54476Y-22649D02*
X54330Y-22795D01*
X54937Y-25665D02*
X54937Y-24462D01*
X54937Y-24462D02*
X55000Y-24400D01*
X51968Y-30208D02*
X51968Y-28696D01*
X51968Y-28696D02*
X51937Y-28665D01*
X57086Y-30208D02*
X57086Y-28814D01*
X57086Y-28814D02*
X56937Y-28665D01*
X55000Y-23400D02*
X55000Y-21968D01*
X57791Y-21653D02*
X58500Y-22362D01*
X55314Y-21653D02*
X57791Y-21653D01*
X55000Y-21968D02*
X55314Y-21653D01*
X56338Y-27440D02*
X53937Y-27440D01*
X57637Y-26141D02*
X56338Y-27440D01*
X57637Y-24173D02*
X57637Y-26141D01*
X60500Y-22767D02*
X60500Y-22362D01*
X60157Y-23110D02*
X60500Y-22767D01*
X58110Y-23110D02*
X60157Y-23110D01*
X57047Y-24173D02*
X58110Y-23110D01*
X51476Y-22362D02*
X51496Y-22362D01*
X53937Y-28070D02*
X53937Y-28665D01*
X53425Y-27559D02*
X53937Y-28070D01*
X53425Y-24566D02*
X53425Y-27559D01*
X52992Y-24133D02*
X53425Y-24566D01*
X52992Y-21968D02*
X52992Y-24133D01*
X52795Y-21771D02*
X52992Y-21968D01*
X52086Y-21771D02*
X52795Y-21771D01*
X51496Y-22362D02*
X52086Y-21771D01*
X47637Y-31208D02*
X51968Y-31208D01*
X45669Y-31208D02*
X45759Y-31208D01*
X56503Y-31791D02*
X57086Y-31208D01*
X51279Y-31791D02*
X56503Y-31791D01*
X51082Y-31594D02*
X51279Y-31791D01*
X49114Y-29625D02*
X50295Y-30807D01*
X47342Y-29625D02*
X49114Y-29625D01*
X45759Y-31208D02*
X47342Y-29625D01*
G54D21*
X52476Y-22362D02*
X52476Y-22838D01*
X45314Y-25224D02*
X45956Y-25865D01*
X45314Y-24212D02*
X45314Y-25224D01*
X46417Y-23110D02*
X45314Y-24212D01*
X52204Y-23110D02*
X46417Y-23110D01*
X52476Y-22838D02*
X52204Y-23110D01*
G54D20*
X54724Y-31208D02*
X55511Y-31208D01*
X55511Y-31208D02*
X55905Y-30814D01*
X50937Y-28665D02*
X50937Y-30207D01*
X54225Y-30710D02*
X54724Y-31208D01*
X51440Y-30710D02*
X54225Y-30710D01*
X50937Y-30207D02*
X51440Y-30710D01*
G54D21*
X45956Y-25865D02*
X45956Y-26096D01*
X50071Y-27800D02*
X50937Y-28665D01*
X47660Y-27800D02*
X50071Y-27800D01*
X45956Y-26096D02*
X47660Y-27800D01*
M02*
