G04 (created by PCBNEW (2013-07-07 BZR 4022)-stable) date 07/09/2014 13:51:04*
%MOIN*%
G04 Gerber Fmt 3.4, Leading zero omitted, Abs format*
%FSLAX34Y34*%
G01*
G70*
G90*
G04 APERTURE LIST*
%ADD10C,0.00590551*%
%ADD11C,0.011811*%
G04 APERTURE END LIST*
G54D10*
G54D11*
X49437Y-22089D02*
X49437Y-21498D01*
X49296Y-21498D01*
X49212Y-21526D01*
X49156Y-21583D01*
X49128Y-21639D01*
X49100Y-21751D01*
X49100Y-21836D01*
X49128Y-21948D01*
X49156Y-22005D01*
X49212Y-22061D01*
X49296Y-22089D01*
X49437Y-22089D01*
X48847Y-22089D02*
X48847Y-21695D01*
X48847Y-21498D02*
X48875Y-21526D01*
X48847Y-21555D01*
X48818Y-21526D01*
X48847Y-21498D01*
X48847Y-21555D01*
X48340Y-22061D02*
X48397Y-22089D01*
X48509Y-22089D01*
X48565Y-22061D01*
X48593Y-22005D01*
X48593Y-21780D01*
X48565Y-21723D01*
X48509Y-21695D01*
X48397Y-21695D01*
X48340Y-21723D01*
X48312Y-21780D01*
X48312Y-21836D01*
X48593Y-21892D01*
X47806Y-21695D02*
X47806Y-22173D01*
X47834Y-22230D01*
X47862Y-22258D01*
X47919Y-22286D01*
X48003Y-22286D01*
X48059Y-22258D01*
X47806Y-22061D02*
X47862Y-22089D01*
X47975Y-22089D01*
X48031Y-22061D01*
X48059Y-22033D01*
X48087Y-21976D01*
X48087Y-21808D01*
X48059Y-21751D01*
X48031Y-21723D01*
X47975Y-21695D01*
X47862Y-21695D01*
X47806Y-21723D01*
X47440Y-22089D02*
X47497Y-22061D01*
X47525Y-22033D01*
X47553Y-21976D01*
X47553Y-21808D01*
X47525Y-21751D01*
X47497Y-21723D01*
X47440Y-21695D01*
X47356Y-21695D01*
X47300Y-21723D01*
X47272Y-21751D01*
X47244Y-21808D01*
X47244Y-21976D01*
X47272Y-22033D01*
X47300Y-22061D01*
X47356Y-22089D01*
X47440Y-22089D01*
X46203Y-22089D02*
X46400Y-21808D01*
X46541Y-22089D02*
X46541Y-21498D01*
X46316Y-21498D01*
X46259Y-21526D01*
X46231Y-21555D01*
X46203Y-21611D01*
X46203Y-21695D01*
X46231Y-21751D01*
X46259Y-21780D01*
X46316Y-21808D01*
X46541Y-21808D01*
X47201Y-27404D02*
X47089Y-27404D01*
X47033Y-27432D01*
X46976Y-27488D01*
X46948Y-27601D01*
X46948Y-27798D01*
X46976Y-27910D01*
X47033Y-27966D01*
X47089Y-27994D01*
X47201Y-27994D01*
X47258Y-27966D01*
X47314Y-27910D01*
X47342Y-27798D01*
X47342Y-27601D01*
X47314Y-27488D01*
X47258Y-27432D01*
X47201Y-27404D01*
X46695Y-27601D02*
X46695Y-28191D01*
X46695Y-27629D02*
X46639Y-27601D01*
X46526Y-27601D01*
X46470Y-27629D01*
X46442Y-27657D01*
X46414Y-27713D01*
X46414Y-27882D01*
X46442Y-27938D01*
X46470Y-27966D01*
X46526Y-27994D01*
X46639Y-27994D01*
X46695Y-27966D01*
X45936Y-27966D02*
X45992Y-27994D01*
X46105Y-27994D01*
X46161Y-27966D01*
X46189Y-27910D01*
X46189Y-27685D01*
X46161Y-27629D01*
X46105Y-27601D01*
X45992Y-27601D01*
X45936Y-27629D01*
X45908Y-27685D01*
X45908Y-27741D01*
X46189Y-27798D01*
X45655Y-27601D02*
X45655Y-27994D01*
X45655Y-27657D02*
X45627Y-27629D01*
X45570Y-27601D01*
X45486Y-27601D01*
X45430Y-27629D01*
X45402Y-27685D01*
X45402Y-27994D01*
X48256Y-28939D02*
X48256Y-28349D01*
X48256Y-28630D02*
X47919Y-28630D01*
X47919Y-28939D02*
X47919Y-28349D01*
X47384Y-28939D02*
X47384Y-28630D01*
X47412Y-28574D01*
X47469Y-28546D01*
X47581Y-28546D01*
X47637Y-28574D01*
X47384Y-28911D02*
X47440Y-28939D01*
X47581Y-28939D01*
X47637Y-28911D01*
X47665Y-28855D01*
X47665Y-28799D01*
X47637Y-28742D01*
X47581Y-28714D01*
X47440Y-28714D01*
X47384Y-28686D01*
X47103Y-28939D02*
X47103Y-28546D01*
X47103Y-28658D02*
X47075Y-28602D01*
X47047Y-28574D01*
X46991Y-28546D01*
X46934Y-28546D01*
X46484Y-28939D02*
X46484Y-28349D01*
X46484Y-28911D02*
X46541Y-28939D01*
X46653Y-28939D01*
X46709Y-28911D01*
X46737Y-28883D01*
X46766Y-28827D01*
X46766Y-28658D01*
X46737Y-28602D01*
X46709Y-28574D01*
X46653Y-28546D01*
X46541Y-28546D01*
X46484Y-28574D01*
X46259Y-28546D02*
X46147Y-28939D01*
X46034Y-28658D01*
X45922Y-28939D01*
X45809Y-28546D01*
X45331Y-28939D02*
X45331Y-28630D01*
X45359Y-28574D01*
X45416Y-28546D01*
X45528Y-28546D01*
X45584Y-28574D01*
X45331Y-28911D02*
X45388Y-28939D01*
X45528Y-28939D01*
X45584Y-28911D01*
X45613Y-28855D01*
X45613Y-28799D01*
X45584Y-28742D01*
X45528Y-28714D01*
X45388Y-28714D01*
X45331Y-28686D01*
X45050Y-28939D02*
X45050Y-28546D01*
X45050Y-28658D02*
X45022Y-28602D01*
X44994Y-28574D01*
X44938Y-28546D01*
X44881Y-28546D01*
X44460Y-28911D02*
X44516Y-28939D01*
X44628Y-28939D01*
X44685Y-28911D01*
X44713Y-28855D01*
X44713Y-28630D01*
X44685Y-28574D01*
X44628Y-28546D01*
X44516Y-28546D01*
X44460Y-28574D01*
X44431Y-28630D01*
X44431Y-28686D01*
X44713Y-28742D01*
M02*
