G04 (created by PCBNEW (2013-07-07 BZR 4022)-stable) date 07/09/2014 13:51:04*
%MOIN*%
G04 Gerber Fmt 3.4, Leading zero omitted, Abs format*
%FSLAX34Y34*%
G01*
G70*
G90*
G04 APERTURE LIST*
%ADD10C,0.00590551*%
%ADD11C,0.00393701*%
G04 APERTURE END LIST*
G54D10*
G54D11*
X59133Y-21377D02*
X59409Y-21653D01*
X54724Y-21535D02*
X54685Y-21535D01*
X54881Y-21377D02*
X54724Y-21535D01*
X54881Y-21377D02*
X59133Y-21377D01*
X51574Y-21259D02*
X51771Y-21456D01*
X52047Y-21456D02*
X51771Y-21456D01*
X52322Y-21456D02*
X52047Y-21456D01*
X52322Y-21220D02*
X52322Y-21456D01*
X52716Y-21220D02*
X52322Y-21220D01*
X53031Y-21535D02*
X52716Y-21220D01*
X54724Y-21535D02*
X53031Y-21535D01*
X62204Y-21653D02*
X59409Y-21653D01*
X54330Y-32677D02*
X58661Y-32677D01*
X53937Y-32283D02*
X54330Y-32677D01*
X53543Y-32283D02*
X53937Y-32283D01*
X53149Y-32677D02*
X53543Y-32283D01*
X47637Y-32677D02*
X53149Y-32677D01*
X46850Y-31889D02*
X47637Y-32677D01*
X44881Y-31889D02*
X46850Y-31889D01*
X44094Y-32677D02*
X44881Y-31889D01*
X43307Y-32677D02*
X44094Y-32677D01*
X59055Y-32283D02*
X58661Y-32677D01*
X59055Y-31496D02*
X59055Y-32283D01*
X59448Y-31102D02*
X59055Y-31496D01*
X60629Y-31102D02*
X59448Y-31102D01*
X61023Y-31496D02*
X60629Y-31102D01*
X61811Y-31496D02*
X61023Y-31496D01*
X62598Y-30708D02*
X61811Y-31496D01*
X62598Y-25984D02*
X62598Y-30708D01*
X62992Y-25590D02*
X62598Y-25984D01*
X62992Y-22440D02*
X62992Y-25590D01*
X62204Y-21653D02*
X62992Y-22440D01*
X45275Y-21259D02*
X51574Y-21259D01*
X44881Y-21653D02*
X45275Y-21259D01*
X43307Y-21653D02*
X44881Y-21653D01*
X43307Y-32677D02*
X43307Y-21653D01*
M02*
