M48
INCH,TZ
T1C0.025
T2C0.032
T3C0.040
T4C0.047
T5C0.091
%
G90
G05
T1
X50295Y-30807
X51083Y-31594
X53937Y-27441
X57047Y-24173
X57638Y-24173
X58740Y-24567
T2
X45669Y-30209
X45669Y-31209
X45957Y-25079
X45957Y-25866
X46957Y-25079
X46957Y-25866
X47638Y-30209
X47638Y-31209
X50937Y-25665
X50937Y-28665
X51937Y-25665
X51937Y-28665
X51969Y-30209
X51969Y-31209
X52937Y-25665
X52937Y-28665
X53937Y-25665
X53937Y-28665
X54724Y-30209
X54724Y-31209
X54937Y-25665
X54937Y-28665
X55906Y-29815
X55906Y-30815
X55937Y-25665
X55937Y-28665
X56937Y-25665
X56937Y-28665
X57087Y-30209
X57087Y-31209
T3
X51476Y-22362
X52476Y-22362
X53476Y-22362
X54476Y-22362
X55000Y-23400
X55000Y-24400
X55476Y-22362
X56000Y-23400
X56000Y-24400
X56476Y-22362
X58500Y-22362
X59500Y-22362
X60500Y-22362
X61500Y-22362
T4
X59744Y-23819
X59744Y-26181
X59744Y-27362
X59744Y-29724
X61516Y-23819
X61516Y-26181
X61516Y-27362
X61516Y-29724
T5
X44095Y-24016
X48819Y-24016
T0
M30
