G04 (created by PCBNEW (2013-07-07 BZR 4022)-stable) date 07/09/2014 13:52:51*
%MOIN*%
G04 Gerber Fmt 3.4, Leading zero omitted, Abs format*
%FSLAX34Y34*%
G01*
G70*
G90*
G04 APERTURE LIST*
%ADD10C,0.00590551*%
%ADD11C,0.00787402*%
%ADD12C,0.011811*%
%ADD13C,0.005*%
%ADD14C,0.015*%
%ADD15C,0.01*%
%ADD16C,0.006*%
%ADD17C,0.0001*%
%ADD18C,0.008*%
%ADD19C,0.012*%
%ADD20C,0.0035*%
%ADD21C,0.01125*%
G04 APERTURE END LIST*
G54D10*
G54D11*
X58070Y-23661D02*
X57834Y-23897D01*
X58070Y-23622D02*
X57834Y-23385D01*
X57795Y-23622D02*
X58070Y-23622D01*
X57559Y-23385D02*
X57795Y-23622D01*
X57559Y-22637D02*
X57559Y-23385D01*
X57755Y-22440D02*
X57559Y-22637D01*
X57992Y-22440D02*
X57755Y-22440D01*
X58070Y-30118D02*
X58070Y-23129D01*
X59153Y-30118D02*
X58070Y-30118D01*
X59153Y-23129D02*
X59153Y-30118D01*
X58070Y-23129D02*
X59153Y-23129D01*
G54D12*
X58323Y-23326D02*
X58914Y-23326D01*
X58492Y-23523D01*
X58914Y-23720D01*
X58323Y-23720D01*
X58323Y-24001D02*
X58914Y-24001D01*
X58352Y-24311D02*
X58323Y-24311D01*
X58267Y-24282D01*
X58239Y-24254D01*
X58323Y-25014D02*
X58914Y-25014D01*
X58492Y-25210D01*
X58914Y-25407D01*
X58323Y-25407D01*
X58914Y-25801D02*
X58914Y-25913D01*
X58886Y-25970D01*
X58830Y-26026D01*
X58717Y-26054D01*
X58520Y-26054D01*
X58408Y-26026D01*
X58352Y-25970D01*
X58323Y-25913D01*
X58323Y-25801D01*
X58352Y-25745D01*
X58408Y-25688D01*
X58520Y-25660D01*
X58717Y-25660D01*
X58830Y-25688D01*
X58886Y-25745D01*
X58914Y-25801D01*
X58352Y-26335D02*
X58323Y-26335D01*
X58267Y-26307D01*
X58239Y-26279D01*
X58380Y-27376D02*
X58352Y-27348D01*
X58323Y-27263D01*
X58323Y-27207D01*
X58352Y-27123D01*
X58408Y-27066D01*
X58464Y-27038D01*
X58577Y-27010D01*
X58661Y-27010D01*
X58773Y-27038D01*
X58830Y-27066D01*
X58886Y-27123D01*
X58914Y-27207D01*
X58914Y-27263D01*
X58886Y-27348D01*
X58858Y-27376D01*
X58323Y-27629D02*
X58914Y-27629D01*
X58323Y-27966D02*
X58661Y-27713D01*
X58914Y-27966D02*
X58577Y-27629D01*
X58352Y-28248D02*
X58323Y-28248D01*
X58267Y-28219D01*
X58239Y-28191D01*
X58380Y-29288D02*
X58352Y-29260D01*
X58323Y-29176D01*
X58323Y-29119D01*
X58352Y-29035D01*
X58408Y-28979D01*
X58464Y-28951D01*
X58577Y-28922D01*
X58661Y-28922D01*
X58773Y-28951D01*
X58830Y-28979D01*
X58886Y-29035D01*
X58914Y-29119D01*
X58914Y-29176D01*
X58886Y-29260D01*
X58858Y-29288D01*
X58352Y-29513D02*
X58323Y-29597D01*
X58323Y-29738D01*
X58352Y-29794D01*
X58380Y-29822D01*
X58436Y-29850D01*
X58492Y-29850D01*
X58548Y-29822D01*
X58577Y-29794D01*
X58605Y-29738D01*
X58633Y-29625D01*
X58661Y-29569D01*
X58689Y-29541D01*
X58745Y-29513D01*
X58802Y-29513D01*
X58858Y-29541D01*
X58886Y-29569D01*
X58914Y-29625D01*
X58914Y-29766D01*
X58886Y-29850D01*
X48383Y-32522D02*
X48186Y-32241D01*
X48045Y-32522D02*
X48045Y-31931D01*
X48270Y-31931D01*
X48326Y-31960D01*
X48354Y-31988D01*
X48383Y-32044D01*
X48383Y-32128D01*
X48354Y-32185D01*
X48326Y-32213D01*
X48270Y-32241D01*
X48045Y-32241D01*
X48861Y-32494D02*
X48804Y-32522D01*
X48692Y-32522D01*
X48636Y-32494D01*
X48607Y-32438D01*
X48607Y-32213D01*
X48636Y-32156D01*
X48692Y-32128D01*
X48804Y-32128D01*
X48861Y-32156D01*
X48889Y-32213D01*
X48889Y-32269D01*
X48607Y-32325D01*
X49086Y-32128D02*
X49226Y-32522D01*
X49367Y-32128D01*
X50351Y-32522D02*
X50014Y-32522D01*
X50182Y-32522D02*
X50182Y-31931D01*
X50126Y-32016D01*
X50070Y-32072D01*
X50014Y-32100D01*
X50604Y-32466D02*
X50632Y-32494D01*
X50604Y-32522D01*
X50576Y-32494D01*
X50604Y-32466D01*
X50604Y-32522D01*
X50998Y-31931D02*
X51054Y-31931D01*
X51110Y-31960D01*
X51138Y-31988D01*
X51167Y-32044D01*
X51195Y-32156D01*
X51195Y-32297D01*
X51167Y-32410D01*
X51138Y-32466D01*
X51110Y-32494D01*
X51054Y-32522D01*
X50998Y-32522D01*
X50942Y-32494D01*
X50913Y-32466D01*
X50885Y-32410D01*
X50857Y-32297D01*
X50857Y-32156D01*
X50885Y-32044D01*
X50913Y-31988D01*
X50942Y-31960D01*
X50998Y-31931D01*
G54D10*
X56476Y-22862D02*
X56976Y-22862D01*
X56476Y-22862D02*
X50976Y-22862D01*
X50976Y-22862D02*
X50976Y-21862D01*
X50976Y-21862D02*
X56976Y-21862D01*
X56976Y-21862D02*
X56976Y-22862D01*
G54D13*
X48856Y-19965D02*
X44056Y-19965D01*
X44056Y-19965D02*
X44056Y-26665D01*
X44056Y-26665D02*
X48856Y-26665D01*
X48856Y-26665D02*
X48856Y-19965D01*
G54D10*
X60467Y-28740D02*
X60467Y-28840D01*
X60467Y-28840D02*
X60767Y-28840D01*
X60767Y-28840D02*
X60767Y-28740D01*
X60367Y-28740D02*
X60867Y-28740D01*
X61567Y-29040D02*
X61567Y-28040D01*
X60767Y-28540D02*
X61567Y-28540D01*
X59667Y-28540D02*
X60467Y-28540D01*
X59667Y-29040D02*
X59667Y-28040D01*
X61260Y-28543D02*
G75*
G03X61260Y-28543I-630J0D01*
G74*
G01*
X59153Y-30314D02*
X62106Y-30314D01*
X62106Y-30314D02*
X62106Y-26771D01*
X62106Y-26771D02*
X59153Y-26771D01*
X59153Y-26771D02*
X59153Y-30314D01*
X60467Y-25196D02*
X60467Y-25296D01*
X60467Y-25296D02*
X60767Y-25296D01*
X60767Y-25296D02*
X60767Y-25196D01*
X60367Y-25196D02*
X60867Y-25196D01*
X61567Y-25496D02*
X61567Y-24496D01*
X60767Y-24996D02*
X61567Y-24996D01*
X59667Y-24996D02*
X60467Y-24996D01*
X59667Y-25496D02*
X59667Y-24496D01*
X61260Y-25000D02*
G75*
G03X61260Y-25000I-630J0D01*
G74*
G01*
X59153Y-26771D02*
X62106Y-26771D01*
X62106Y-26771D02*
X62106Y-23228D01*
X62106Y-23228D02*
X59153Y-23228D01*
X59153Y-23228D02*
X59153Y-26771D01*
G54D14*
X54724Y-30208D02*
X54724Y-31208D01*
X55283Y-30208D02*
G75*
G03X55283Y-30208I-559J0D01*
G74*
G01*
X55905Y-30814D02*
X55905Y-29814D01*
X56464Y-30814D02*
G75*
G03X56464Y-30814I-559J0D01*
G74*
G01*
X57086Y-30208D02*
X57086Y-31208D01*
X57645Y-30208D02*
G75*
G03X57645Y-30208I-559J0D01*
G74*
G01*
X51968Y-30208D02*
X51968Y-31208D01*
X52527Y-30208D02*
G75*
G03X52527Y-30208I-559J0D01*
G74*
G01*
G54D15*
X58000Y-21862D02*
X62000Y-21862D01*
X58000Y-22862D02*
X62000Y-22862D01*
X62000Y-22862D02*
X62000Y-21862D01*
X58000Y-21862D02*
X58000Y-22862D01*
G54D16*
X54500Y-23900D02*
X54500Y-22900D01*
X54500Y-22900D02*
X56500Y-22900D01*
X56500Y-22900D02*
X56500Y-23900D01*
X56500Y-23900D02*
X54500Y-23900D01*
X56500Y-23900D02*
X56500Y-24900D01*
X56500Y-24900D02*
X54500Y-24900D01*
X54500Y-24900D02*
X54500Y-23900D01*
X54500Y-23900D02*
X56500Y-23900D01*
G54D15*
X46169Y-29988D02*
X45169Y-29988D01*
G54D16*
X45285Y-31069D02*
G75*
G03X45669Y-31208I384J460D01*
G74*
G01*
X45669Y-31207D02*
G75*
G03X46067Y-31056I0J599D01*
G74*
G01*
X45669Y-30009D02*
G75*
G03X45279Y-30153I0J-599D01*
G74*
G01*
X46053Y-30147D02*
G75*
G03X45669Y-30008I-384J-460D01*
G74*
G01*
X45320Y-30120D02*
G75*
G03X45069Y-30608I349J-487D01*
G74*
G01*
X45069Y-30608D02*
G75*
G03X45309Y-31088I600J0D01*
G74*
G01*
X46268Y-30608D02*
G75*
G03X46037Y-30135I-599J0D01*
G74*
G01*
X46037Y-31082D02*
G75*
G03X46269Y-30608I-368J473D01*
G74*
G01*
X45419Y-30608D02*
G75*
G03X45669Y-30858I250J0D01*
G74*
G01*
X45269Y-30608D02*
G75*
G03X45669Y-31008I400J0D01*
G74*
G01*
X45919Y-30608D02*
G75*
G03X45669Y-30358I-250J0D01*
G74*
G01*
X46069Y-30608D02*
G75*
G03X45669Y-30208I-400J0D01*
G74*
G01*
G54D15*
X45156Y-29994D02*
G75*
G03X44869Y-30608I513J-613D01*
G74*
G01*
X44870Y-30608D02*
G75*
G03X45292Y-31313I799J0D01*
G74*
G01*
X46468Y-30607D02*
G75*
G03X46184Y-29998I-798J-1D01*
G74*
G01*
X46066Y-31302D02*
G75*
G03X46469Y-30608I-397J694D01*
G74*
G01*
X45290Y-31313D02*
G75*
G03X45669Y-31408I379J704D01*
G74*
G01*
X45669Y-31408D02*
G75*
G03X46088Y-31289I0J799D01*
G74*
G01*
X48137Y-29988D02*
X47137Y-29988D01*
G54D16*
X47253Y-31069D02*
G75*
G03X47637Y-31208I384J460D01*
G74*
G01*
X47637Y-31207D02*
G75*
G03X48035Y-31056I0J599D01*
G74*
G01*
X47637Y-30009D02*
G75*
G03X47247Y-30153I0J-599D01*
G74*
G01*
X48021Y-30147D02*
G75*
G03X47637Y-30008I-384J-460D01*
G74*
G01*
X47288Y-30120D02*
G75*
G03X47037Y-30608I349J-487D01*
G74*
G01*
X47037Y-30608D02*
G75*
G03X47277Y-31088I600J0D01*
G74*
G01*
X48237Y-30608D02*
G75*
G03X48005Y-30135I-599J0D01*
G74*
G01*
X48006Y-31082D02*
G75*
G03X48237Y-30608I-368J473D01*
G74*
G01*
X47387Y-30608D02*
G75*
G03X47637Y-30858I250J0D01*
G74*
G01*
X47237Y-30608D02*
G75*
G03X47637Y-31008I400J0D01*
G74*
G01*
X47887Y-30608D02*
G75*
G03X47637Y-30358I-250J0D01*
G74*
G01*
X48037Y-30608D02*
G75*
G03X47637Y-30208I-400J0D01*
G74*
G01*
G54D15*
X47124Y-29994D02*
G75*
G03X46837Y-30608I513J-613D01*
G74*
G01*
X46838Y-30608D02*
G75*
G03X47261Y-31313I799J0D01*
G74*
G01*
X48436Y-30607D02*
G75*
G03X48153Y-29998I-798J-1D01*
G74*
G01*
X48035Y-31302D02*
G75*
G03X48437Y-30608I-397J694D01*
G74*
G01*
X47258Y-31313D02*
G75*
G03X47637Y-31408I379J704D01*
G74*
G01*
X47637Y-31408D02*
G75*
G03X48056Y-31289I0J799D01*
G74*
G01*
G54D14*
X49937Y-26165D02*
X57937Y-26165D01*
X57937Y-28165D02*
X49937Y-28165D01*
X49937Y-28165D02*
X49937Y-26165D01*
X49937Y-26665D02*
X50437Y-26665D01*
X50437Y-26665D02*
X50437Y-27665D01*
X50437Y-27665D02*
X49937Y-27665D01*
X57937Y-26165D02*
X57937Y-28165D01*
G54D17*
G36*
X45378Y-29356D02*
X45340Y-29357D01*
X45313Y-29352D01*
X45274Y-29316D01*
X45223Y-29231D01*
X45170Y-29112D01*
X45168Y-29107D01*
X45076Y-28873D01*
X45015Y-28877D01*
X45015Y-28718D01*
X44999Y-28645D01*
X44970Y-28580D01*
X44926Y-28501D01*
X44888Y-28612D01*
X44866Y-28693D01*
X44877Y-28737D01*
X44891Y-28749D01*
X44964Y-28775D01*
X45008Y-28752D01*
X45015Y-28718D01*
X45015Y-28877D01*
X44938Y-28883D01*
X44800Y-28893D01*
X44735Y-29118D01*
X44695Y-29244D01*
X44659Y-29315D01*
X44622Y-29342D01*
X44610Y-29343D01*
X44560Y-29334D01*
X44550Y-29324D01*
X44560Y-29278D01*
X44588Y-29184D01*
X44630Y-29055D01*
X44680Y-28904D01*
X44735Y-28744D01*
X44789Y-28589D01*
X44839Y-28450D01*
X44880Y-28340D01*
X44908Y-28274D01*
X44916Y-28260D01*
X44954Y-28269D01*
X44978Y-28301D01*
X45004Y-28358D01*
X45046Y-28460D01*
X45098Y-28592D01*
X45157Y-28743D01*
X45217Y-28900D01*
X45273Y-29052D01*
X45322Y-29185D01*
X45358Y-29287D01*
X45377Y-29346D01*
X45378Y-29356D01*
X45378Y-29356D01*
X45378Y-29356D01*
G37*
G36*
X46083Y-28910D02*
X46082Y-29098D01*
X46078Y-29229D01*
X46071Y-29313D01*
X46059Y-29358D01*
X46041Y-29375D01*
X46033Y-29377D01*
X45989Y-29357D01*
X45983Y-29340D01*
X45955Y-29318D01*
X45892Y-29325D01*
X45769Y-29353D01*
X45690Y-29363D01*
X45632Y-29357D01*
X45594Y-29344D01*
X45535Y-29308D01*
X45492Y-29249D01*
X45462Y-29156D01*
X45441Y-29020D01*
X45427Y-28828D01*
X45426Y-28807D01*
X45418Y-28646D01*
X45417Y-28540D01*
X45423Y-28478D01*
X45437Y-28450D01*
X45458Y-28443D01*
X45483Y-28455D01*
X45501Y-28497D01*
X45516Y-28581D01*
X45528Y-28716D01*
X45534Y-28795D01*
X45550Y-28979D01*
X45573Y-29107D01*
X45605Y-29187D01*
X45651Y-29229D01*
X45716Y-29243D01*
X45728Y-29243D01*
X45812Y-29224D01*
X45876Y-29191D01*
X45909Y-29163D01*
X45931Y-29125D01*
X45943Y-29063D01*
X45948Y-28964D01*
X45950Y-28814D01*
X45950Y-28791D01*
X45951Y-28636D01*
X45955Y-28535D01*
X45964Y-28477D01*
X45981Y-28450D01*
X46009Y-28443D01*
X46017Y-28443D01*
X46043Y-28447D01*
X46061Y-28464D01*
X46073Y-28505D01*
X46080Y-28581D01*
X46082Y-28700D01*
X46083Y-28875D01*
X46083Y-28910D01*
X46083Y-28910D01*
X46083Y-28910D01*
G37*
G36*
X46950Y-28812D02*
X46949Y-29020D01*
X46947Y-29170D01*
X46942Y-29271D01*
X46934Y-29332D01*
X46922Y-29363D01*
X46904Y-29371D01*
X46893Y-29370D01*
X46842Y-29333D01*
X46836Y-29321D01*
X46836Y-28826D01*
X46797Y-28676D01*
X46769Y-28625D01*
X46691Y-28562D01*
X46587Y-28541D01*
X46480Y-28565D01*
X46418Y-28608D01*
X46355Y-28706D01*
X46311Y-28840D01*
X46292Y-28981D01*
X46298Y-29064D01*
X46347Y-29173D01*
X46433Y-29246D01*
X46540Y-29277D01*
X46648Y-29257D01*
X46686Y-29234D01*
X46778Y-29125D01*
X46829Y-28982D01*
X46836Y-28826D01*
X46836Y-29321D01*
X46813Y-29276D01*
X46795Y-29229D01*
X46786Y-29234D01*
X46755Y-29278D01*
X46685Y-29325D01*
X46599Y-29361D01*
X46526Y-29374D01*
X46447Y-29360D01*
X46392Y-29342D01*
X46333Y-29295D01*
X46270Y-29211D01*
X46245Y-29165D01*
X46191Y-28987D01*
X46202Y-28815D01*
X46279Y-28653D01*
X46354Y-28565D01*
X46432Y-28490D01*
X46493Y-28454D01*
X46565Y-28445D01*
X46667Y-28453D01*
X46850Y-28472D01*
X46850Y-28357D01*
X46861Y-28272D01*
X46897Y-28243D01*
X46900Y-28243D01*
X46918Y-28252D01*
X46932Y-28283D01*
X46941Y-28347D01*
X46946Y-28451D01*
X46949Y-28604D01*
X46950Y-28812D01*
X46950Y-28812D01*
X46950Y-28812D01*
G37*
G36*
X48045Y-28797D02*
X48040Y-28970D01*
X47989Y-29141D01*
X47935Y-29226D01*
X47935Y-28894D01*
X47931Y-28796D01*
X47930Y-28792D01*
X47875Y-28693D01*
X47779Y-28615D01*
X47668Y-28577D01*
X47651Y-28577D01*
X47546Y-28607D01*
X47470Y-28693D01*
X47427Y-28830D01*
X47426Y-28839D01*
X47424Y-29003D01*
X47460Y-29135D01*
X47529Y-29225D01*
X47625Y-29266D01*
X47695Y-29263D01*
X47783Y-29234D01*
X47844Y-29197D01*
X47886Y-29124D01*
X47918Y-29013D01*
X47935Y-28894D01*
X47935Y-29226D01*
X47896Y-29289D01*
X47884Y-29302D01*
X47789Y-29359D01*
X47664Y-29379D01*
X47535Y-29359D01*
X47440Y-29310D01*
X47376Y-29227D01*
X47327Y-29103D01*
X47299Y-28965D01*
X47300Y-28838D01*
X47304Y-28816D01*
X47369Y-28649D01*
X47467Y-28527D01*
X47591Y-28457D01*
X47683Y-28443D01*
X47803Y-28471D01*
X47918Y-28544D01*
X47999Y-28642D01*
X48045Y-28797D01*
X48045Y-28797D01*
X48045Y-28797D01*
G37*
G36*
X47183Y-28893D02*
X47182Y-29078D01*
X47178Y-29205D01*
X47170Y-29285D01*
X47158Y-29328D01*
X47139Y-29343D01*
X47133Y-29343D01*
X47113Y-29334D01*
X47099Y-29299D01*
X47090Y-29229D01*
X47085Y-29114D01*
X47083Y-28944D01*
X47083Y-28893D01*
X47084Y-28709D01*
X47088Y-28581D01*
X47096Y-28501D01*
X47109Y-28458D01*
X47128Y-28444D01*
X47133Y-28443D01*
X47154Y-28453D01*
X47168Y-28488D01*
X47177Y-28558D01*
X47181Y-28673D01*
X47183Y-28842D01*
X47183Y-28893D01*
X47183Y-28893D01*
X47183Y-28893D01*
G37*
G36*
X47178Y-28295D02*
X47146Y-28353D01*
X47122Y-28369D01*
X47089Y-28359D01*
X47088Y-28325D01*
X47120Y-28266D01*
X47145Y-28250D01*
X47178Y-28260D01*
X47178Y-28295D01*
X47178Y-28295D01*
X47178Y-28295D01*
G37*
G36*
X45325Y-27472D02*
X45318Y-27505D01*
X45250Y-27662D01*
X45155Y-27780D01*
X45041Y-27854D01*
X44920Y-27877D01*
X44802Y-27845D01*
X44762Y-27817D01*
X44661Y-27700D01*
X44596Y-27548D01*
X44565Y-27378D01*
X44568Y-27205D01*
X44607Y-27045D01*
X44680Y-26914D01*
X44762Y-26841D01*
X44908Y-26783D01*
X45047Y-26788D01*
X45167Y-26851D01*
X45258Y-26969D01*
X45270Y-26996D01*
X45304Y-27081D01*
X45312Y-27123D01*
X45294Y-27144D01*
X45267Y-27155D01*
X45219Y-27144D01*
X45173Y-27071D01*
X45168Y-27059D01*
X45097Y-26948D01*
X45003Y-26892D01*
X44897Y-26894D01*
X44856Y-26912D01*
X44756Y-27000D01*
X44700Y-27129D01*
X44684Y-27286D01*
X44701Y-27456D01*
X44751Y-27596D01*
X44828Y-27692D01*
X44866Y-27716D01*
X44936Y-27736D01*
X45000Y-27717D01*
X45042Y-27688D01*
X45122Y-27608D01*
X45181Y-27516D01*
X45230Y-27440D01*
X45280Y-27407D01*
X45316Y-27417D01*
X45325Y-27472D01*
X45325Y-27472D01*
X45325Y-27472D01*
G37*
G36*
X46111Y-27562D02*
X46104Y-27703D01*
X46080Y-27799D01*
X46041Y-27842D01*
X46032Y-27843D01*
X46006Y-27829D01*
X45991Y-27777D01*
X45984Y-27677D01*
X45983Y-27598D01*
X45978Y-27460D01*
X45965Y-27334D01*
X45947Y-27248D01*
X45889Y-27155D01*
X45807Y-27117D01*
X45718Y-27137D01*
X45674Y-27171D01*
X45639Y-27218D01*
X45615Y-27284D01*
X45600Y-27385D01*
X45590Y-27533D01*
X45581Y-27689D01*
X45569Y-27789D01*
X45551Y-27842D01*
X45524Y-27859D01*
X45492Y-27853D01*
X45470Y-27814D01*
X45457Y-27723D01*
X45450Y-27594D01*
X45449Y-27440D01*
X45454Y-27275D01*
X45463Y-27112D01*
X45478Y-26964D01*
X45496Y-26844D01*
X45517Y-26766D01*
X45538Y-26743D01*
X45569Y-26770D01*
X45582Y-26853D01*
X45583Y-26895D01*
X45587Y-26988D01*
X45602Y-27029D01*
X45635Y-27032D01*
X45642Y-27030D01*
X45765Y-26997D01*
X45845Y-26987D01*
X45904Y-27004D01*
X45961Y-27049D01*
X45979Y-27067D01*
X46036Y-27136D01*
X46071Y-27215D01*
X46093Y-27328D01*
X46100Y-27387D01*
X46111Y-27562D01*
X46111Y-27562D01*
X46111Y-27562D01*
G37*
G36*
X46948Y-27364D02*
X46931Y-27526D01*
X46871Y-27683D01*
X46835Y-27732D01*
X46835Y-27394D01*
X46831Y-27296D01*
X46830Y-27292D01*
X46775Y-27185D01*
X46686Y-27114D01*
X46579Y-27083D01*
X46473Y-27099D01*
X46386Y-27164D01*
X46338Y-27265D01*
X46320Y-27393D01*
X46330Y-27526D01*
X46364Y-27646D01*
X46422Y-27732D01*
X46457Y-27755D01*
X46537Y-27765D01*
X46638Y-27748D01*
X46724Y-27713D01*
X46744Y-27697D01*
X46786Y-27624D01*
X46818Y-27513D01*
X46835Y-27394D01*
X46835Y-27732D01*
X46784Y-27802D01*
X46689Y-27859D01*
X46565Y-27879D01*
X46436Y-27859D01*
X46342Y-27811D01*
X46255Y-27703D01*
X46207Y-27560D01*
X46199Y-27399D01*
X46230Y-27241D01*
X46300Y-27102D01*
X46339Y-27056D01*
X46461Y-26967D01*
X46589Y-26944D01*
X46732Y-26984D01*
X46751Y-26994D01*
X46858Y-27084D01*
X46924Y-27212D01*
X46948Y-27364D01*
X46948Y-27364D01*
X46948Y-27364D01*
G37*
G36*
X47201Y-27488D02*
X47199Y-27651D01*
X47194Y-27760D01*
X47184Y-27825D01*
X47168Y-27857D01*
X47142Y-27870D01*
X47120Y-27869D01*
X47105Y-27852D01*
X47094Y-27810D01*
X47088Y-27733D01*
X47085Y-27613D01*
X47083Y-27440D01*
X47083Y-27309D01*
X47084Y-27093D01*
X47088Y-26936D01*
X47094Y-26831D01*
X47105Y-26772D01*
X47119Y-26751D01*
X47125Y-26751D01*
X47155Y-26796D01*
X47178Y-26906D01*
X47193Y-27081D01*
X47200Y-27323D01*
X47201Y-27488D01*
X47201Y-27488D01*
X47201Y-27488D01*
G37*
G36*
X47983Y-27410D02*
X47982Y-27600D01*
X47978Y-27732D01*
X47970Y-27816D01*
X47957Y-27861D01*
X47939Y-27876D01*
X47936Y-27877D01*
X47885Y-27853D01*
X47876Y-27838D01*
X47850Y-27816D01*
X47787Y-27826D01*
X47751Y-27838D01*
X47653Y-27867D01*
X47582Y-27870D01*
X47505Y-27848D01*
X47494Y-27843D01*
X47435Y-27807D01*
X47392Y-27749D01*
X47362Y-27657D01*
X47341Y-27520D01*
X47327Y-27328D01*
X47326Y-27307D01*
X47318Y-27146D01*
X47317Y-27040D01*
X47323Y-26978D01*
X47337Y-26950D01*
X47358Y-26943D01*
X47384Y-26955D01*
X47403Y-26999D01*
X47417Y-27086D01*
X47430Y-27226D01*
X47433Y-27268D01*
X47444Y-27414D01*
X47456Y-27540D01*
X47467Y-27626D01*
X47471Y-27651D01*
X47518Y-27708D01*
X47602Y-27734D01*
X47700Y-27725D01*
X47748Y-27705D01*
X47786Y-27681D01*
X47811Y-27649D01*
X47826Y-27598D01*
X47835Y-27512D01*
X47840Y-27379D01*
X47843Y-27300D01*
X47848Y-27142D01*
X47855Y-27039D01*
X47866Y-26979D01*
X47884Y-26951D01*
X47910Y-26943D01*
X47918Y-26943D01*
X47944Y-26947D01*
X47962Y-26965D01*
X47973Y-27007D01*
X47980Y-27084D01*
X47982Y-27206D01*
X47983Y-27383D01*
X47983Y-27410D01*
X47983Y-27410D01*
X47983Y-27410D01*
G37*
G36*
X48211Y-27589D02*
X48207Y-27720D01*
X48194Y-27806D01*
X48170Y-27854D01*
X48142Y-27870D01*
X48120Y-27870D01*
X48105Y-27853D01*
X48094Y-27810D01*
X48088Y-27733D01*
X48085Y-27612D01*
X48083Y-27439D01*
X48083Y-27309D01*
X48084Y-27093D01*
X48088Y-26936D01*
X48094Y-26831D01*
X48105Y-26772D01*
X48119Y-26751D01*
X48125Y-26751D01*
X48147Y-26790D01*
X48167Y-26891D01*
X48184Y-27055D01*
X48192Y-27163D01*
X48206Y-27405D01*
X48211Y-27589D01*
X48211Y-27589D01*
X48211Y-27589D01*
G37*
G36*
X49049Y-27725D02*
X49044Y-27795D01*
X49031Y-27831D01*
X49011Y-27843D01*
X49004Y-27843D01*
X48957Y-27817D01*
X48950Y-27790D01*
X48931Y-27753D01*
X48931Y-27430D01*
X48900Y-27356D01*
X48828Y-27314D01*
X48787Y-27310D01*
X48633Y-27329D01*
X48516Y-27381D01*
X48444Y-27456D01*
X48423Y-27548D01*
X48458Y-27647D01*
X48498Y-27695D01*
X48574Y-27757D01*
X48644Y-27771D01*
X48729Y-27737D01*
X48784Y-27702D01*
X48873Y-27617D01*
X48922Y-27522D01*
X48931Y-27430D01*
X48931Y-27753D01*
X48930Y-27752D01*
X48908Y-27753D01*
X48851Y-27777D01*
X48765Y-27812D01*
X48750Y-27819D01*
X48617Y-27850D01*
X48526Y-27838D01*
X48407Y-27776D01*
X48337Y-27676D01*
X48321Y-27550D01*
X48353Y-27432D01*
X48424Y-27345D01*
X48538Y-27272D01*
X48673Y-27223D01*
X48779Y-27210D01*
X48867Y-27205D01*
X48906Y-27185D01*
X48916Y-27138D01*
X48917Y-27129D01*
X48892Y-27053D01*
X48852Y-27027D01*
X48778Y-27027D01*
X48680Y-27054D01*
X48588Y-27095D01*
X48535Y-27140D01*
X48485Y-27173D01*
X48463Y-27177D01*
X48434Y-27158D01*
X48447Y-27114D01*
X48492Y-27058D01*
X48560Y-27007D01*
X48576Y-26998D01*
X48736Y-26939D01*
X48868Y-26934D01*
X48954Y-26973D01*
X48986Y-27004D01*
X49008Y-27045D01*
X49023Y-27108D01*
X49033Y-27206D01*
X49040Y-27352D01*
X49044Y-27439D01*
X49049Y-27610D01*
X49049Y-27725D01*
X49049Y-27725D01*
X49049Y-27725D01*
G37*
G54D18*
X50255Y-22563D02*
X50255Y-22163D01*
X50408Y-22163D01*
X50446Y-22182D01*
X50465Y-22201D01*
X50484Y-22239D01*
X50484Y-22296D01*
X50465Y-22334D01*
X50446Y-22353D01*
X50408Y-22373D01*
X50255Y-22373D01*
X50865Y-22563D02*
X50636Y-22563D01*
X50751Y-22563D02*
X50751Y-22163D01*
X50713Y-22220D01*
X50674Y-22258D01*
X50636Y-22277D01*
G54D19*
X46256Y-22280D02*
X46256Y-22709D01*
X46228Y-22794D01*
X46170Y-22852D01*
X46085Y-22880D01*
X46028Y-22880D01*
X46856Y-22880D02*
X46513Y-22880D01*
X46685Y-22880D02*
X46685Y-22280D01*
X46628Y-22366D01*
X46570Y-22423D01*
X46513Y-22452D01*
G54D10*
X60400Y-30849D02*
X60456Y-30868D01*
X60550Y-30868D01*
X60587Y-30849D01*
X60606Y-30830D01*
X60625Y-30793D01*
X60625Y-30755D01*
X60606Y-30718D01*
X60587Y-30699D01*
X60550Y-30680D01*
X60475Y-30661D01*
X60437Y-30643D01*
X60419Y-30624D01*
X60400Y-30586D01*
X60400Y-30549D01*
X60419Y-30511D01*
X60437Y-30493D01*
X60475Y-30474D01*
X60568Y-30474D01*
X60625Y-30493D01*
X60756Y-30474D02*
X60850Y-30868D01*
X60925Y-30586D01*
X61000Y-30868D01*
X61093Y-30474D01*
X61450Y-30868D02*
X61225Y-30868D01*
X61337Y-30868D02*
X61337Y-30474D01*
X61300Y-30530D01*
X61262Y-30568D01*
X61225Y-30586D01*
X62640Y-25524D02*
X62659Y-25468D01*
X62659Y-25374D01*
X62640Y-25337D01*
X62621Y-25318D01*
X62584Y-25299D01*
X62546Y-25299D01*
X62509Y-25318D01*
X62490Y-25337D01*
X62471Y-25374D01*
X62453Y-25449D01*
X62434Y-25487D01*
X62415Y-25506D01*
X62378Y-25524D01*
X62340Y-25524D01*
X62303Y-25506D01*
X62284Y-25487D01*
X62265Y-25449D01*
X62265Y-25356D01*
X62284Y-25299D01*
X62265Y-25168D02*
X62659Y-25074D01*
X62378Y-24999D01*
X62659Y-24925D01*
X62265Y-24831D01*
X62303Y-24700D02*
X62284Y-24681D01*
X62265Y-24643D01*
X62265Y-24550D01*
X62284Y-24512D01*
X62303Y-24493D01*
X62340Y-24475D01*
X62378Y-24475D01*
X62434Y-24493D01*
X62659Y-24718D01*
X62659Y-24475D01*
G54D18*
X54641Y-32309D02*
X54474Y-32047D01*
X54355Y-32309D02*
X54355Y-31759D01*
X54545Y-31759D01*
X54593Y-31785D01*
X54617Y-31811D01*
X54641Y-31863D01*
X54641Y-31942D01*
X54617Y-31994D01*
X54593Y-32021D01*
X54545Y-32047D01*
X54355Y-32047D01*
X55117Y-32309D02*
X54831Y-32309D01*
X54974Y-32309D02*
X54974Y-31759D01*
X54926Y-31837D01*
X54879Y-31890D01*
X54831Y-31916D01*
X55822Y-32309D02*
X55655Y-32047D01*
X55536Y-32309D02*
X55536Y-31759D01*
X55726Y-31759D01*
X55774Y-31785D01*
X55798Y-31811D01*
X55822Y-31863D01*
X55822Y-31942D01*
X55798Y-31994D01*
X55774Y-32021D01*
X55726Y-32047D01*
X55536Y-32047D01*
X56012Y-31811D02*
X56036Y-31785D01*
X56084Y-31759D01*
X56203Y-31759D01*
X56250Y-31785D01*
X56274Y-31811D01*
X56298Y-31863D01*
X56298Y-31916D01*
X56274Y-31994D01*
X55988Y-32309D01*
X56298Y-32309D01*
X57200Y-32309D02*
X57033Y-32047D01*
X56914Y-32309D02*
X56914Y-31759D01*
X57104Y-31759D01*
X57152Y-31785D01*
X57176Y-31811D01*
X57200Y-31863D01*
X57200Y-31942D01*
X57176Y-31994D01*
X57152Y-32021D01*
X57104Y-32047D01*
X56914Y-32047D01*
X57366Y-31759D02*
X57676Y-31759D01*
X57509Y-31968D01*
X57581Y-31968D01*
X57628Y-31994D01*
X57652Y-32021D01*
X57676Y-32073D01*
X57676Y-32204D01*
X57652Y-32256D01*
X57628Y-32283D01*
X57581Y-32309D01*
X57438Y-32309D01*
X57390Y-32283D01*
X57366Y-32256D01*
X51885Y-32309D02*
X51718Y-32047D01*
X51599Y-32309D02*
X51599Y-31759D01*
X51789Y-31759D01*
X51837Y-31785D01*
X51861Y-31811D01*
X51885Y-31863D01*
X51885Y-31942D01*
X51861Y-31994D01*
X51837Y-32021D01*
X51789Y-32047D01*
X51599Y-32047D01*
X52313Y-31942D02*
X52313Y-32309D01*
X52194Y-31733D02*
X52075Y-32125D01*
X52385Y-32125D01*
X62185Y-22878D02*
X62185Y-22478D01*
X62337Y-22478D01*
X62375Y-22497D01*
X62394Y-22516D01*
X62413Y-22554D01*
X62413Y-22611D01*
X62394Y-22649D01*
X62375Y-22668D01*
X62337Y-22687D01*
X62185Y-22687D01*
X62566Y-22516D02*
X62585Y-22497D01*
X62623Y-22478D01*
X62718Y-22478D01*
X62756Y-22497D01*
X62775Y-22516D01*
X62794Y-22554D01*
X62794Y-22592D01*
X62775Y-22649D01*
X62546Y-22878D01*
X62794Y-22878D01*
G54D16*
X56738Y-23296D02*
X56738Y-23510D01*
X56723Y-23553D01*
X56695Y-23581D01*
X56652Y-23596D01*
X56623Y-23596D01*
X56881Y-23596D02*
X56881Y-23296D01*
X56995Y-23296D01*
X57023Y-23310D01*
X57038Y-23324D01*
X57052Y-23353D01*
X57052Y-23396D01*
X57038Y-23424D01*
X57023Y-23439D01*
X56995Y-23453D01*
X56881Y-23453D01*
X57166Y-23324D02*
X57181Y-23310D01*
X57209Y-23296D01*
X57281Y-23296D01*
X57309Y-23310D01*
X57323Y-23324D01*
X57338Y-23353D01*
X57338Y-23381D01*
X57323Y-23424D01*
X57152Y-23596D01*
X57338Y-23596D01*
X53805Y-24191D02*
X53805Y-24405D01*
X53790Y-24448D01*
X53762Y-24477D01*
X53719Y-24491D01*
X53690Y-24491D01*
X53947Y-24491D02*
X53947Y-24191D01*
X54062Y-24191D01*
X54090Y-24205D01*
X54105Y-24220D01*
X54119Y-24248D01*
X54119Y-24291D01*
X54105Y-24320D01*
X54090Y-24334D01*
X54062Y-24348D01*
X53947Y-24348D01*
X54405Y-24491D02*
X54233Y-24491D01*
X54319Y-24491D02*
X54319Y-24191D01*
X54290Y-24234D01*
X54262Y-24262D01*
X54233Y-24277D01*
G54D20*
X44708Y-30930D02*
X44408Y-30930D01*
X44408Y-30858D01*
X44422Y-30815D01*
X44450Y-30787D01*
X44479Y-30772D01*
X44536Y-30758D01*
X44579Y-30758D01*
X44636Y-30772D01*
X44665Y-30787D01*
X44693Y-30815D01*
X44708Y-30858D01*
X44708Y-30930D01*
X44708Y-30472D02*
X44708Y-30644D01*
X44708Y-30558D02*
X44408Y-30558D01*
X44450Y-30587D01*
X44479Y-30615D01*
X44493Y-30644D01*
X48940Y-30930D02*
X48640Y-30930D01*
X48640Y-30858D01*
X48654Y-30815D01*
X48683Y-30787D01*
X48711Y-30772D01*
X48768Y-30758D01*
X48811Y-30758D01*
X48868Y-30772D01*
X48897Y-30787D01*
X48926Y-30815D01*
X48940Y-30858D01*
X48940Y-30930D01*
X48668Y-30644D02*
X48654Y-30630D01*
X48640Y-30601D01*
X48640Y-30530D01*
X48654Y-30501D01*
X48668Y-30487D01*
X48697Y-30472D01*
X48726Y-30472D01*
X48768Y-30487D01*
X48940Y-30658D01*
X48940Y-30472D01*
G54D21*
X51112Y-26908D02*
X51112Y-26308D01*
X51262Y-26736D01*
X51412Y-26308D01*
X51412Y-26908D01*
X51883Y-26851D02*
X51862Y-26879D01*
X51797Y-26908D01*
X51754Y-26908D01*
X51690Y-26879D01*
X51647Y-26822D01*
X51626Y-26765D01*
X51604Y-26651D01*
X51604Y-26565D01*
X51626Y-26451D01*
X51647Y-26393D01*
X51690Y-26336D01*
X51754Y-26308D01*
X51797Y-26308D01*
X51862Y-26336D01*
X51883Y-26365D01*
X52076Y-26308D02*
X52076Y-26793D01*
X52097Y-26851D01*
X52119Y-26879D01*
X52162Y-26908D01*
X52247Y-26908D01*
X52290Y-26879D01*
X52312Y-26851D01*
X52333Y-26793D01*
X52333Y-26308D01*
X52783Y-26908D02*
X52526Y-26908D01*
X52654Y-26908D02*
X52654Y-26308D01*
X52612Y-26393D01*
X52569Y-26451D01*
X52526Y-26479D01*
G54D19*
M02*
