G04 (created by PCBNEW (2013-07-07 BZR 4022)-stable) date 12/07/2014 15:53:44*
%MOIN*%
G04 Gerber Fmt 3.4, Leading zero omitted, Abs format*
%FSLAX34Y34*%
G01*
G70*
G90*
G04 APERTURE LIST*
%ADD10C,0.00590551*%
%ADD11C,0.00787402*%
%ADD12C,0.011811*%
G04 APERTURE END LIST*
G54D10*
G54D11*
X52800Y-38800D02*
X53000Y-39000D01*
X52400Y-38800D02*
X52600Y-39000D01*
X52000Y-38800D02*
X52200Y-39000D01*
X51800Y-39000D02*
X52000Y-39000D01*
X51600Y-38800D02*
X51800Y-39000D01*
X51200Y-38800D02*
X51400Y-39000D01*
X50800Y-38800D02*
X51000Y-39000D01*
X50400Y-38800D02*
X50600Y-39000D01*
X50000Y-38800D02*
X50200Y-39000D01*
X50000Y-38800D02*
X53200Y-38800D01*
X53200Y-37800D02*
X50000Y-37800D01*
X53200Y-39000D02*
X53200Y-37800D01*
X50000Y-39000D02*
X53200Y-39000D01*
X50000Y-37800D02*
X50000Y-39000D01*
G54D12*
X52584Y-38048D02*
X52471Y-38048D01*
X52415Y-38076D01*
X52359Y-38132D01*
X52331Y-38245D01*
X52331Y-38442D01*
X52359Y-38554D01*
X52415Y-38610D01*
X52471Y-38639D01*
X52584Y-38639D01*
X52640Y-38610D01*
X52696Y-38554D01*
X52724Y-38442D01*
X52724Y-38245D01*
X52696Y-38132D01*
X52640Y-38076D01*
X52584Y-38048D01*
X52106Y-38610D02*
X52021Y-38639D01*
X51881Y-38639D01*
X51824Y-38610D01*
X51796Y-38582D01*
X51768Y-38526D01*
X51768Y-38470D01*
X51796Y-38414D01*
X51824Y-38385D01*
X51881Y-38357D01*
X51993Y-38329D01*
X52049Y-38301D01*
X52078Y-38273D01*
X52106Y-38217D01*
X52106Y-38160D01*
X52078Y-38104D01*
X52049Y-38076D01*
X51993Y-38048D01*
X51853Y-38048D01*
X51768Y-38076D01*
X51515Y-38639D02*
X51515Y-38048D01*
X51515Y-38329D02*
X51178Y-38329D01*
X51178Y-38639D02*
X51178Y-38048D01*
X50953Y-38048D02*
X50812Y-38639D01*
X50700Y-38217D01*
X50587Y-38639D01*
X50447Y-38048D01*
X62451Y-27529D02*
X62366Y-27557D01*
X62338Y-27585D01*
X62310Y-27642D01*
X62310Y-27726D01*
X62338Y-27782D01*
X62366Y-27810D01*
X62423Y-27839D01*
X62648Y-27839D01*
X62648Y-27248D01*
X62451Y-27248D01*
X62395Y-27276D01*
X62366Y-27304D01*
X62338Y-27360D01*
X62338Y-27417D01*
X62366Y-27473D01*
X62395Y-27501D01*
X62451Y-27529D01*
X62648Y-27529D01*
X62113Y-27445D02*
X61973Y-27839D01*
X61832Y-27445D02*
X61973Y-27839D01*
X62029Y-27979D01*
X62057Y-28007D01*
X62113Y-28035D01*
X61157Y-27839D02*
X61157Y-27248D01*
X61017Y-27248D01*
X60932Y-27276D01*
X60876Y-27332D01*
X60848Y-27389D01*
X60820Y-27501D01*
X60820Y-27585D01*
X60848Y-27698D01*
X60876Y-27754D01*
X60932Y-27810D01*
X61017Y-27839D01*
X61157Y-27839D01*
X60567Y-27839D02*
X60567Y-27445D01*
X60567Y-27248D02*
X60595Y-27276D01*
X60567Y-27304D01*
X60539Y-27276D01*
X60567Y-27248D01*
X60567Y-27304D01*
X60060Y-27810D02*
X60117Y-27839D01*
X60229Y-27839D01*
X60285Y-27810D01*
X60314Y-27754D01*
X60314Y-27529D01*
X60285Y-27473D01*
X60229Y-27445D01*
X60117Y-27445D01*
X60060Y-27473D01*
X60032Y-27529D01*
X60032Y-27585D01*
X60314Y-27642D01*
X59526Y-27445D02*
X59526Y-27923D01*
X59554Y-27979D01*
X59582Y-28007D01*
X59639Y-28035D01*
X59723Y-28035D01*
X59779Y-28007D01*
X59526Y-27810D02*
X59582Y-27839D01*
X59695Y-27839D01*
X59751Y-27810D01*
X59779Y-27782D01*
X59807Y-27726D01*
X59807Y-27557D01*
X59779Y-27501D01*
X59751Y-27473D01*
X59695Y-27445D01*
X59582Y-27445D01*
X59526Y-27473D01*
X59161Y-27839D02*
X59217Y-27810D01*
X59245Y-27782D01*
X59273Y-27726D01*
X59273Y-27557D01*
X59245Y-27501D01*
X59217Y-27473D01*
X59161Y-27445D01*
X59076Y-27445D01*
X59020Y-27473D01*
X58992Y-27501D01*
X58964Y-27557D01*
X58964Y-27726D01*
X58992Y-27782D01*
X59020Y-27810D01*
X59076Y-27839D01*
X59161Y-27839D01*
X57923Y-27839D02*
X58120Y-27557D01*
X58261Y-27839D02*
X58261Y-27248D01*
X58036Y-27248D01*
X57979Y-27276D01*
X57951Y-27304D01*
X57923Y-27360D01*
X57923Y-27445D01*
X57951Y-27501D01*
X57979Y-27529D01*
X58036Y-27557D01*
X58261Y-27557D01*
M02*
