G04 (created by PCBNEW (2013-07-07 BZR 4022)-stable) date 12/07/2014 15:53:44*
%MOIN*%
G04 Gerber Fmt 3.4, Leading zero omitted, Abs format*
%FSLAX34Y34*%
G01*
G70*
G90*
G04 APERTURE LIST*
%ADD10C,0.00590551*%
%ADD11C,0.011811*%
%ADD12O,0.0593X0.1187*%
%ADD13C,0.07*%
%ADD14R,0.07X0.07*%
%ADD15C,0.055*%
%ADD16R,0.06X0.06*%
%ADD17C,0.066*%
%ADD18C,0.189*%
%ADD19R,0.189X0.189*%
%ADD20C,0.062*%
%ADD21C,0.06*%
%ADD22C,0.035*%
%ADD23C,0.025*%
G04 APERTURE END LIST*
G54D10*
G54D11*
X50875Y-33514D02*
X51324Y-33514D01*
X51100Y-33739D02*
X51100Y-33289D01*
X59475Y-28314D02*
X59924Y-28314D01*
X59700Y-28539D02*
X59700Y-28089D01*
G54D12*
X59768Y-40200D03*
X57800Y-40200D03*
X55831Y-40200D03*
G54D13*
X48600Y-32700D03*
X48600Y-31700D03*
G54D14*
X48600Y-30700D03*
G54D15*
X54800Y-36700D03*
X54800Y-37700D03*
X61946Y-31946D03*
X62653Y-32653D03*
X58446Y-37046D03*
X59153Y-37753D03*
X58200Y-31600D03*
X57200Y-31600D03*
X56800Y-32700D03*
X57800Y-32700D03*
X48500Y-36000D03*
X48500Y-37000D03*
X49900Y-36000D03*
X49900Y-37000D03*
G54D16*
X61200Y-38600D03*
X61200Y-39800D03*
X61200Y-41000D03*
G54D17*
X51800Y-35900D03*
X51800Y-36900D03*
G54D18*
X55600Y-27700D03*
G54D19*
X55600Y-30100D03*
G54D18*
X53600Y-28600D03*
G54D10*
G36*
X59801Y-31641D02*
X60437Y-32277D01*
X59998Y-32716D01*
X59362Y-32079D01*
X59801Y-31641D01*
X59801Y-31641D01*
G37*
G54D20*
X59291Y-32984D02*
X59093Y-32786D01*
X58584Y-33691D02*
X58386Y-33493D01*
X57877Y-34398D02*
X57679Y-34201D01*
X59998Y-36520D02*
X59801Y-36322D01*
X60706Y-35813D02*
X60508Y-35615D01*
X61413Y-35106D02*
X61215Y-34908D01*
X62120Y-34398D02*
X61922Y-34201D01*
G54D14*
X51100Y-32700D03*
G54D13*
X53100Y-32700D03*
G54D14*
X59600Y-29200D03*
G54D13*
X61600Y-29200D03*
G54D15*
X51700Y-29000D03*
X49700Y-29000D03*
X53600Y-35200D03*
X53600Y-37200D03*
X62146Y-36153D03*
X62853Y-35446D03*
G54D10*
G36*
X51025Y-40495D02*
X51144Y-39904D01*
X51655Y-39904D01*
X51774Y-40495D01*
X51025Y-40495D01*
X51025Y-40495D01*
G37*
G36*
X52994Y-40495D02*
X53112Y-39904D01*
X53624Y-39904D01*
X53742Y-40495D01*
X52994Y-40495D01*
X52994Y-40495D01*
G37*
G36*
X49057Y-40495D02*
X49175Y-39904D01*
X49687Y-39904D01*
X49805Y-40495D01*
X49057Y-40495D01*
X49057Y-40495D01*
G37*
G36*
X55722Y-34746D02*
X56146Y-34322D01*
X56570Y-34746D01*
X56146Y-35170D01*
X55722Y-34746D01*
X55722Y-34746D01*
G37*
G54D21*
X56853Y-35453D03*
G54D16*
X54800Y-34500D03*
G54D21*
X54800Y-35500D03*
G54D22*
X51700Y-31700D03*
X50600Y-31700D03*
G54D23*
X51700Y-29000D02*
X51700Y-29400D01*
X52400Y-30100D02*
X55600Y-30100D01*
X51700Y-29400D02*
X52400Y-30100D01*
X56146Y-34746D02*
X56146Y-33946D01*
X58800Y-29200D02*
X59600Y-29200D01*
X55700Y-32300D02*
X58800Y-29200D01*
X55700Y-33500D02*
X55700Y-32300D01*
X56146Y-33946D02*
X55700Y-33500D01*
X59768Y-40200D02*
X59768Y-39768D01*
X59768Y-39768D02*
X58600Y-38600D01*
X56146Y-34746D02*
X56146Y-35153D01*
X58100Y-38600D02*
X58600Y-38600D01*
X58600Y-38600D02*
X61200Y-38600D01*
X56100Y-36600D02*
X58100Y-38600D01*
X56100Y-35200D02*
X56100Y-36600D01*
X56146Y-35153D02*
X56100Y-35200D01*
X54800Y-34500D02*
X55900Y-34500D01*
X55900Y-34500D02*
X56146Y-34746D01*
X48600Y-31700D02*
X50600Y-31700D01*
X52300Y-33900D02*
X53600Y-35200D01*
X52300Y-32300D02*
X52300Y-33900D01*
X51700Y-31700D02*
X52300Y-32300D01*
X48500Y-36000D02*
X48500Y-34000D01*
X47900Y-32400D02*
X48600Y-31700D01*
X47900Y-33400D02*
X47900Y-32400D01*
X48500Y-34000D02*
X47900Y-33400D01*
X54800Y-34500D02*
X54300Y-34500D01*
X54300Y-34500D02*
X53600Y-35200D01*
X59153Y-37753D02*
X62546Y-37753D01*
X62546Y-37753D02*
X62853Y-37446D01*
X62853Y-35446D02*
X62853Y-37446D01*
X62853Y-37446D02*
X62853Y-39046D01*
X62100Y-39800D02*
X61200Y-39800D01*
X62853Y-39046D02*
X62100Y-39800D01*
X61314Y-35007D02*
X62414Y-35007D01*
X62414Y-35007D02*
X62853Y-35446D01*
X57800Y-40200D02*
X57800Y-40600D01*
X57800Y-40600D02*
X58400Y-41200D01*
X58400Y-41200D02*
X60000Y-41200D01*
X60000Y-41200D02*
X60400Y-40800D01*
X60400Y-40800D02*
X60400Y-40200D01*
X60400Y-40200D02*
X60800Y-39800D01*
X60800Y-39800D02*
X61200Y-39800D01*
X57800Y-32700D02*
X57800Y-32907D01*
X57800Y-32907D02*
X58485Y-33592D01*
X57800Y-32700D02*
X57800Y-32000D01*
X57800Y-32000D02*
X58200Y-31600D01*
X49431Y-40200D02*
X49431Y-38831D01*
X48500Y-37900D02*
X48500Y-37000D01*
X49431Y-38831D02*
X48500Y-37900D01*
X49431Y-40200D02*
X51400Y-40200D01*
X48600Y-32700D02*
X48600Y-33000D01*
X48600Y-33000D02*
X49200Y-33600D01*
X49200Y-33600D02*
X49200Y-36300D01*
X49200Y-36300D02*
X48500Y-37000D01*
X57778Y-34300D02*
X59900Y-34300D01*
X61546Y-32653D02*
X62653Y-32653D01*
X59900Y-34300D02*
X61546Y-32653D01*
X54800Y-36700D02*
X54800Y-35500D01*
X56853Y-35453D02*
X59546Y-35453D01*
X60700Y-34300D02*
X62021Y-34300D01*
X59546Y-35453D02*
X60700Y-34300D01*
X56800Y-32700D02*
X56800Y-34200D01*
X57000Y-35307D02*
X56853Y-35453D01*
X57000Y-34400D02*
X57000Y-35307D01*
X56800Y-34200D02*
X57000Y-34400D01*
X59900Y-36421D02*
X59921Y-36421D01*
X61600Y-36700D02*
X62146Y-36153D01*
X60200Y-36700D02*
X61600Y-36700D01*
X59921Y-36421D02*
X60200Y-36700D01*
X59753Y-33446D02*
X60153Y-33446D01*
X61653Y-31946D02*
X61946Y-31946D01*
X60153Y-33446D02*
X61653Y-31946D01*
X59753Y-33446D02*
X59192Y-32885D01*
X51100Y-31500D02*
X51100Y-30400D01*
X51100Y-30400D02*
X49700Y-29000D01*
X51100Y-32700D02*
X51100Y-31500D01*
X51100Y-31500D02*
X50300Y-30700D01*
X48600Y-30700D02*
X50300Y-30700D01*
X49900Y-36000D02*
X49900Y-33900D01*
X49900Y-33900D02*
X51100Y-32700D01*
X49900Y-37000D02*
X50100Y-37000D01*
X51200Y-35900D02*
X51800Y-35900D01*
X50100Y-37000D02*
X51200Y-35900D01*
M02*
