G04 (created by PCBNEW (2013-07-07 BZR 4022)-stable) date 14/09/2014 21:51:55*
%MOIN*%
G04 Gerber Fmt 3.4, Leading zero omitted, Abs format*
%FSLAX34Y34*%
G01*
G70*
G90*
G04 APERTURE LIST*
%ADD10C,0.00590551*%
%ADD11C,0.00787402*%
%ADD12C,0.011811*%
G04 APERTURE END LIST*
G54D10*
G54D11*
X52800Y-38800D02*
X53000Y-39000D01*
X52400Y-38800D02*
X52600Y-39000D01*
X52000Y-38800D02*
X52200Y-39000D01*
X51800Y-39000D02*
X52000Y-39000D01*
X51600Y-38800D02*
X51800Y-39000D01*
X51200Y-38800D02*
X51400Y-39000D01*
X50800Y-38800D02*
X51000Y-39000D01*
X50400Y-38800D02*
X50600Y-39000D01*
X50000Y-38800D02*
X50200Y-39000D01*
X50000Y-38800D02*
X53200Y-38800D01*
X53200Y-37800D02*
X50000Y-37800D01*
X53200Y-39000D02*
X53200Y-37800D01*
X50000Y-39000D02*
X53200Y-39000D01*
X50000Y-37800D02*
X50000Y-39000D01*
G54D12*
X52584Y-38048D02*
X52471Y-38048D01*
X52415Y-38076D01*
X52359Y-38132D01*
X52331Y-38245D01*
X52331Y-38442D01*
X52359Y-38554D01*
X52415Y-38610D01*
X52471Y-38639D01*
X52584Y-38639D01*
X52640Y-38610D01*
X52696Y-38554D01*
X52724Y-38442D01*
X52724Y-38245D01*
X52696Y-38132D01*
X52640Y-38076D01*
X52584Y-38048D01*
X52106Y-38610D02*
X52021Y-38639D01*
X51881Y-38639D01*
X51824Y-38610D01*
X51796Y-38582D01*
X51768Y-38526D01*
X51768Y-38470D01*
X51796Y-38414D01*
X51824Y-38385D01*
X51881Y-38357D01*
X51993Y-38329D01*
X52049Y-38301D01*
X52078Y-38273D01*
X52106Y-38217D01*
X52106Y-38160D01*
X52078Y-38104D01*
X52049Y-38076D01*
X51993Y-38048D01*
X51853Y-38048D01*
X51768Y-38076D01*
X51515Y-38639D02*
X51515Y-38048D01*
X51515Y-38329D02*
X51178Y-38329D01*
X51178Y-38639D02*
X51178Y-38048D01*
X50953Y-38048D02*
X50812Y-38639D01*
X50700Y-38217D01*
X50587Y-38639D01*
X50447Y-38048D01*
M02*
