M48
INCH,TZ
T1C0.025
T2C0.032
T3C0.039
T4C0.039
T5C0.040
T6C0.100
T7C0.102
%
G90
G05
T1
X50600Y-31700
X51700Y-31700
T2
X48500Y-36000
X48500Y-37000
X49700Y-29000
X49900Y-36000
X49900Y-37000
X51700Y-29000
X51800Y-35900
X51800Y-36900
X53600Y-35200
X53600Y-37200
X54800Y-36700
X54800Y-37700
X56800Y-32700
X57200Y-31600
X57779Y-34300
X57800Y-32700
X58200Y-31600
X58446Y-37046
X58486Y-33593
X59154Y-37754
X59193Y-32886
X59900Y-32179
X59900Y-36421
X60607Y-35714
X61314Y-35007
X61946Y-31946
X62021Y-34300
X62146Y-36154
X62654Y-32654
X62854Y-35446
T3
X55831Y-40200
X57800Y-40200
X59769Y-40200
T4
X49431Y-40200
X51400Y-40200
X53369Y-40200
T5
X48600Y-30700
X48600Y-31700
X48600Y-32700
X51100Y-32700
X53100Y-32700
X54800Y-34500
X54800Y-35500
X56146Y-34746
X56854Y-35454
X59600Y-29200
X61200Y-38600
X61200Y-39800
X61200Y-41000
X61600Y-29200
T6
X53600Y-28600
X55600Y-27700
T7
X55600Y-30100
T0
M30
