G04 (created by PCBNEW (2013-07-07 BZR 4022)-stable) date 30/09/2014 17:21:41*
%MOIN*%
G04 Gerber Fmt 3.4, Leading zero omitted, Abs format*
%FSLAX34Y34*%
G01*
G70*
G90*
G04 APERTURE LIST*
%ADD10C,0.00590551*%
%ADD11C,0.00787402*%
%ADD12C,0.00472441*%
%ADD13C,0.0065*%
%ADD14C,0.006*%
%ADD15C,0.005*%
%ADD16C,0.0125*%
%ADD17C,0.012*%
G04 APERTURE END LIST*
G54D10*
G54D11*
X44291Y-18208D02*
X44291Y-17814D01*
X44094Y-18405D02*
X44291Y-18208D01*
X43011Y-18405D02*
X44094Y-18405D01*
X42913Y-18307D02*
X43011Y-18405D01*
X42618Y-18011D02*
X42913Y-18307D01*
X42618Y-17125D02*
X42618Y-18011D01*
G54D12*
X42819Y-17498D02*
X42819Y-17065D01*
X42984Y-17065D01*
X43025Y-17085D01*
X43046Y-17106D01*
X43067Y-17147D01*
X43067Y-17209D01*
X43046Y-17250D01*
X43025Y-17271D01*
X42984Y-17291D01*
X42819Y-17291D01*
X43458Y-17498D02*
X43252Y-17498D01*
X43252Y-17065D01*
X43809Y-17498D02*
X43603Y-17498D01*
X43603Y-17065D01*
X42778Y-17718D02*
X42881Y-18151D01*
X42964Y-17842D01*
X43046Y-18151D01*
X43149Y-17718D01*
X43314Y-18151D02*
X43314Y-17862D01*
X43314Y-17718D02*
X43293Y-17739D01*
X43314Y-17759D01*
X43335Y-17739D01*
X43314Y-17718D01*
X43314Y-17759D01*
X43520Y-17862D02*
X43520Y-18151D01*
X43520Y-17904D02*
X43541Y-17883D01*
X43582Y-17862D01*
X43644Y-17862D01*
X43685Y-17883D01*
X43706Y-17924D01*
X43706Y-18151D01*
X44098Y-17862D02*
X44098Y-18213D01*
X44077Y-18254D01*
X44056Y-18275D01*
X44015Y-18296D01*
X43953Y-18296D01*
X43912Y-18275D01*
X44098Y-18131D02*
X44056Y-18151D01*
X43974Y-18151D01*
X43933Y-18131D01*
X43912Y-18110D01*
X43892Y-18069D01*
X43892Y-17945D01*
X43912Y-17904D01*
X43933Y-17883D01*
X43974Y-17862D01*
X44056Y-17862D01*
X44098Y-17883D01*
G54D13*
X40724Y-20877D02*
X43724Y-20877D01*
X43724Y-19477D02*
X40724Y-19477D01*
X40724Y-20877D02*
X40724Y-19477D01*
G54D14*
X43724Y-19477D02*
X43724Y-20877D01*
G54D15*
X43665Y-19677D02*
G75*
G03X43665Y-19677I-141J0D01*
G74*
G01*
X43724Y-20427D02*
X43424Y-20427D01*
X43424Y-20427D02*
X43424Y-19927D01*
X43424Y-19927D02*
X43724Y-19927D01*
X45922Y-19275D02*
X45922Y-19175D01*
X45922Y-19175D02*
X45022Y-19175D01*
X45022Y-19175D02*
X45022Y-19275D01*
X45922Y-19275D02*
X45022Y-19275D01*
X45022Y-19275D02*
X45022Y-19925D01*
X45922Y-20625D02*
X45922Y-21275D01*
X45922Y-21275D02*
X45022Y-21275D01*
X45022Y-21275D02*
X45022Y-20625D01*
X45922Y-19925D02*
X45922Y-19275D01*
X41296Y-22129D02*
X41296Y-22029D01*
X41296Y-22029D02*
X40396Y-22029D01*
X40396Y-22029D02*
X40396Y-22129D01*
X41296Y-22129D02*
X40396Y-22129D01*
X40396Y-22129D02*
X40396Y-22779D01*
X41296Y-23479D02*
X41296Y-24129D01*
X41296Y-24129D02*
X40396Y-24129D01*
X40396Y-24129D02*
X40396Y-23479D01*
X41296Y-22779D02*
X41296Y-22129D01*
X45022Y-19110D02*
X45922Y-19110D01*
X45922Y-19110D02*
X45922Y-18460D01*
X45022Y-17760D02*
X45022Y-17110D01*
X45022Y-17110D02*
X45922Y-17110D01*
X45922Y-17110D02*
X45922Y-17760D01*
X45022Y-18460D02*
X45022Y-19110D01*
X42379Y-22129D02*
X41479Y-22129D01*
X41479Y-22129D02*
X41479Y-22779D01*
X42379Y-23479D02*
X42379Y-24129D01*
X42379Y-24129D02*
X41479Y-24129D01*
X41479Y-24129D02*
X41479Y-23479D01*
X42379Y-22779D02*
X42379Y-22129D01*
X43461Y-22129D02*
X42561Y-22129D01*
X42561Y-22129D02*
X42561Y-22779D01*
X43461Y-23479D02*
X43461Y-24129D01*
X43461Y-24129D02*
X42561Y-24129D01*
X42561Y-24129D02*
X42561Y-23479D01*
X43461Y-22779D02*
X43461Y-22129D01*
X44544Y-22129D02*
X43644Y-22129D01*
X43644Y-22129D02*
X43644Y-22779D01*
X44544Y-23479D02*
X44544Y-24129D01*
X44544Y-24129D02*
X43644Y-24129D01*
X43644Y-24129D02*
X43644Y-23479D01*
X44544Y-22779D02*
X44544Y-22129D01*
G54D10*
X46082Y-16338D02*
X46082Y-16838D01*
X42082Y-16838D02*
X46082Y-16838D01*
X46082Y-16338D02*
X46082Y-15838D01*
X46082Y-15838D02*
X38082Y-15838D01*
X38082Y-15838D02*
X38082Y-15888D01*
X42082Y-16838D02*
X38082Y-16838D01*
X38082Y-15863D02*
X38082Y-17863D01*
X38082Y-17863D02*
X42082Y-17863D01*
X42082Y-17863D02*
X42082Y-16863D01*
G54D16*
X40173Y-21427D02*
X40173Y-18927D01*
X38173Y-21427D02*
X38173Y-18927D01*
X39173Y-17927D02*
G75*
G03X38173Y-18927I0J-1000D01*
G74*
G01*
X40173Y-18927D02*
G75*
G03X39173Y-17927I-1000J0D01*
G74*
G01*
X38173Y-21427D02*
G75*
G03X39173Y-22427I1000J0D01*
G74*
G01*
X39173Y-22427D02*
G75*
G03X40173Y-21427I0J1000D01*
G74*
G01*
G54D15*
X41071Y-20692D02*
X41071Y-20392D01*
X41185Y-20392D01*
X41214Y-20406D01*
X41228Y-20420D01*
X41242Y-20449D01*
X41242Y-20492D01*
X41228Y-20520D01*
X41214Y-20535D01*
X41185Y-20549D01*
X41071Y-20549D01*
X41514Y-20692D02*
X41371Y-20692D01*
X41371Y-20392D01*
X41756Y-20692D02*
X41614Y-20692D01*
X41614Y-20392D01*
X42014Y-20692D02*
X41842Y-20692D01*
X41928Y-20692D02*
X41928Y-20392D01*
X41899Y-20435D01*
X41871Y-20463D01*
X41842Y-20478D01*
X45422Y-20368D02*
X45408Y-20382D01*
X45365Y-20397D01*
X45336Y-20397D01*
X45293Y-20382D01*
X45265Y-20354D01*
X45251Y-20325D01*
X45236Y-20268D01*
X45236Y-20225D01*
X45251Y-20168D01*
X45265Y-20139D01*
X45293Y-20111D01*
X45336Y-20097D01*
X45365Y-20097D01*
X45408Y-20111D01*
X45422Y-20125D01*
X45708Y-20397D02*
X45536Y-20397D01*
X45622Y-20397D02*
X45622Y-20097D01*
X45593Y-20139D01*
X45565Y-20168D01*
X45536Y-20182D01*
X40796Y-23222D02*
X40782Y-23237D01*
X40739Y-23251D01*
X40710Y-23251D01*
X40667Y-23237D01*
X40639Y-23208D01*
X40625Y-23179D01*
X40610Y-23122D01*
X40610Y-23079D01*
X40625Y-23022D01*
X40639Y-22994D01*
X40667Y-22965D01*
X40710Y-22951D01*
X40739Y-22951D01*
X40782Y-22965D01*
X40796Y-22979D01*
X40910Y-22979D02*
X40925Y-22965D01*
X40953Y-22951D01*
X41025Y-22951D01*
X41053Y-22965D01*
X41067Y-22979D01*
X41082Y-23008D01*
X41082Y-23037D01*
X41067Y-23079D01*
X40896Y-23251D01*
X41082Y-23251D01*
X45422Y-18203D02*
X45408Y-18217D01*
X45365Y-18231D01*
X45336Y-18231D01*
X45293Y-18217D01*
X45265Y-18188D01*
X45251Y-18160D01*
X45236Y-18103D01*
X45236Y-18060D01*
X45251Y-18003D01*
X45265Y-17974D01*
X45293Y-17945D01*
X45336Y-17931D01*
X45365Y-17931D01*
X45408Y-17945D01*
X45422Y-17960D01*
X45522Y-17931D02*
X45708Y-17931D01*
X45608Y-18045D01*
X45651Y-18045D01*
X45679Y-18060D01*
X45693Y-18074D01*
X45708Y-18103D01*
X45708Y-18174D01*
X45693Y-18203D01*
X45679Y-18217D01*
X45651Y-18231D01*
X45565Y-18231D01*
X45536Y-18217D01*
X45522Y-18203D01*
X41879Y-23222D02*
X41864Y-23237D01*
X41821Y-23251D01*
X41793Y-23251D01*
X41750Y-23237D01*
X41721Y-23208D01*
X41707Y-23179D01*
X41693Y-23122D01*
X41693Y-23079D01*
X41707Y-23022D01*
X41721Y-22994D01*
X41750Y-22965D01*
X41793Y-22951D01*
X41821Y-22951D01*
X41864Y-22965D01*
X41879Y-22979D01*
X42136Y-23051D02*
X42136Y-23251D01*
X42064Y-22937D02*
X41993Y-23151D01*
X42179Y-23151D01*
X42961Y-23222D02*
X42947Y-23237D01*
X42904Y-23251D01*
X42876Y-23251D01*
X42833Y-23237D01*
X42804Y-23208D01*
X42790Y-23179D01*
X42776Y-23122D01*
X42776Y-23079D01*
X42790Y-23022D01*
X42804Y-22994D01*
X42833Y-22965D01*
X42876Y-22951D01*
X42904Y-22951D01*
X42947Y-22965D01*
X42961Y-22979D01*
X43233Y-22951D02*
X43090Y-22951D01*
X43076Y-23094D01*
X43090Y-23079D01*
X43118Y-23065D01*
X43190Y-23065D01*
X43218Y-23079D01*
X43233Y-23094D01*
X43247Y-23122D01*
X43247Y-23194D01*
X43233Y-23222D01*
X43218Y-23237D01*
X43190Y-23251D01*
X43118Y-23251D01*
X43090Y-23237D01*
X43076Y-23222D01*
X44044Y-23222D02*
X44030Y-23237D01*
X43987Y-23251D01*
X43958Y-23251D01*
X43915Y-23237D01*
X43887Y-23208D01*
X43873Y-23179D01*
X43858Y-23122D01*
X43858Y-23079D01*
X43873Y-23022D01*
X43887Y-22994D01*
X43915Y-22965D01*
X43958Y-22951D01*
X43987Y-22951D01*
X44030Y-22965D01*
X44044Y-22979D01*
X44301Y-22951D02*
X44244Y-22951D01*
X44215Y-22965D01*
X44201Y-22979D01*
X44173Y-23022D01*
X44158Y-23079D01*
X44158Y-23194D01*
X44173Y-23222D01*
X44187Y-23237D01*
X44215Y-23251D01*
X44273Y-23251D01*
X44301Y-23237D01*
X44315Y-23222D01*
X44330Y-23194D01*
X44330Y-23122D01*
X44315Y-23094D01*
X44301Y-23079D01*
X44273Y-23065D01*
X44215Y-23065D01*
X44187Y-23079D01*
X44173Y-23094D01*
X44158Y-23122D01*
G54D17*
X38816Y-20564D02*
X39416Y-20164D01*
X38816Y-20164D02*
X39416Y-20564D01*
X39416Y-19621D02*
X39416Y-19964D01*
X39416Y-19793D02*
X38816Y-19793D01*
X38901Y-19850D01*
X38958Y-19907D01*
X38987Y-19964D01*
M02*
