M48
INCH,TZ
T1C0.025
T2C0.030
T3C0.040
%
G90
G05
T1
X41240Y-19783
X41339Y-23130
X41732Y-19783
X42717Y-20669
X43110Y-19783
X44685Y-20177
X44685Y-21358
X45079Y-18110
T2
X39173Y-19177
X39173Y-21177
T3
X38583Y-16339
X38583Y-17339
X39583Y-16339
X39583Y-17339
X40583Y-16339
X40583Y-17339
X41583Y-16339
X41583Y-17339
X42583Y-16339
X43583Y-16339
X44583Y-16339
X45583Y-16339
T0
M30
