G04 (created by PCBNEW (2013-07-07 BZR 4022)-stable) date 30/09/2014 17:20:54*
%MOIN*%
G04 Gerber Fmt 3.4, Leading zero omitted, Abs format*
%FSLAX34Y34*%
G01*
G70*
G90*
G04 APERTURE LIST*
%ADD10C,0.00590551*%
%ADD11C,0.00472441*%
%ADD12R,0.016X0.0787402*%
%ADD13R,0.08X0.06*%
%ADD14R,0.06X0.06*%
%ADD15C,0.06*%
%ADD16C,0.056*%
%ADD17C,0.035*%
%ADD18C,0.016*%
%ADD19C,0.01*%
G04 APERTURE END LIST*
G54D10*
G54D11*
X45533Y-23804D02*
X45139Y-23804D01*
X45139Y-23711D01*
X45158Y-23654D01*
X45195Y-23617D01*
X45233Y-23598D01*
X45308Y-23579D01*
X45364Y-23579D01*
X45439Y-23598D01*
X45477Y-23617D01*
X45514Y-23654D01*
X45533Y-23711D01*
X45533Y-23804D01*
X45533Y-23411D02*
X45270Y-23411D01*
X45139Y-23411D02*
X45158Y-23429D01*
X45177Y-23411D01*
X45158Y-23392D01*
X45139Y-23411D01*
X45177Y-23411D01*
X45514Y-23073D02*
X45533Y-23111D01*
X45533Y-23186D01*
X45514Y-23223D01*
X45477Y-23242D01*
X45327Y-23242D01*
X45289Y-23223D01*
X45270Y-23186D01*
X45270Y-23111D01*
X45289Y-23073D01*
X45327Y-23054D01*
X45364Y-23054D01*
X45402Y-23242D01*
X45270Y-22717D02*
X45589Y-22717D01*
X45627Y-22736D01*
X45645Y-22754D01*
X45664Y-22792D01*
X45664Y-22848D01*
X45645Y-22886D01*
X45514Y-22717D02*
X45533Y-22754D01*
X45533Y-22829D01*
X45514Y-22867D01*
X45495Y-22886D01*
X45458Y-22904D01*
X45345Y-22904D01*
X45308Y-22886D01*
X45289Y-22867D01*
X45270Y-22829D01*
X45270Y-22754D01*
X45289Y-22717D01*
X45533Y-22473D02*
X45514Y-22511D01*
X45495Y-22529D01*
X45458Y-22548D01*
X45345Y-22548D01*
X45308Y-22529D01*
X45289Y-22511D01*
X45270Y-22473D01*
X45270Y-22417D01*
X45289Y-22380D01*
X45308Y-22361D01*
X45345Y-22342D01*
X45458Y-22342D01*
X45495Y-22361D01*
X45514Y-22380D01*
X45533Y-22417D01*
X45533Y-22473D01*
X45533Y-21648D02*
X45345Y-21780D01*
X45533Y-21873D02*
X45139Y-21873D01*
X45139Y-21723D01*
X45158Y-21686D01*
X45177Y-21667D01*
X45214Y-21648D01*
X45270Y-21648D01*
X45308Y-21667D01*
X45327Y-21686D01*
X45345Y-21723D01*
X45345Y-21873D01*
X38474Y-23054D02*
X38456Y-23073D01*
X38399Y-23092D01*
X38362Y-23092D01*
X38306Y-23073D01*
X38268Y-23036D01*
X38249Y-22998D01*
X38231Y-22923D01*
X38231Y-22867D01*
X38249Y-22792D01*
X38268Y-22754D01*
X38306Y-22717D01*
X38362Y-22698D01*
X38399Y-22698D01*
X38456Y-22717D01*
X38474Y-22736D01*
X38643Y-23092D02*
X38643Y-22698D01*
X38812Y-23092D02*
X38812Y-22886D01*
X38793Y-22848D01*
X38756Y-22829D01*
X38699Y-22829D01*
X38662Y-22848D01*
X38643Y-22867D01*
X39056Y-23092D02*
X39018Y-23073D01*
X38999Y-23054D01*
X38981Y-23017D01*
X38981Y-22904D01*
X38999Y-22867D01*
X39018Y-22848D01*
X39056Y-22829D01*
X39112Y-22829D01*
X39149Y-22848D01*
X39168Y-22867D01*
X39187Y-22904D01*
X39187Y-23017D01*
X39168Y-23054D01*
X39149Y-23073D01*
X39112Y-23092D01*
X39056Y-23092D01*
X39412Y-23092D02*
X39374Y-23073D01*
X39356Y-23036D01*
X39356Y-22698D01*
X39730Y-22829D02*
X39730Y-23092D01*
X39562Y-22829D02*
X39562Y-23036D01*
X39580Y-23073D01*
X39618Y-23092D01*
X39674Y-23092D01*
X39712Y-23073D01*
X39730Y-23054D01*
X39974Y-23092D02*
X39937Y-23073D01*
X39918Y-23036D01*
X39918Y-22698D01*
X40293Y-23092D02*
X40293Y-22886D01*
X40274Y-22848D01*
X40237Y-22829D01*
X40162Y-22829D01*
X40124Y-22848D01*
X40293Y-23073D02*
X40255Y-23092D01*
X40162Y-23092D01*
X40124Y-23073D01*
X40105Y-23036D01*
X40105Y-22998D01*
X40124Y-22961D01*
X40162Y-22942D01*
X40255Y-22942D01*
X40293Y-22923D01*
X38549Y-23578D02*
X38737Y-23578D01*
X38512Y-23690D02*
X38643Y-23297D01*
X38774Y-23690D01*
X39074Y-23428D02*
X39074Y-23690D01*
X38906Y-23428D02*
X38906Y-23634D01*
X38924Y-23672D01*
X38962Y-23690D01*
X39018Y-23690D01*
X39056Y-23672D01*
X39074Y-23653D01*
X39431Y-23690D02*
X39431Y-23297D01*
X39431Y-23672D02*
X39393Y-23690D01*
X39318Y-23690D01*
X39281Y-23672D01*
X39262Y-23653D01*
X39243Y-23615D01*
X39243Y-23503D01*
X39262Y-23465D01*
X39281Y-23447D01*
X39318Y-23428D01*
X39393Y-23428D01*
X39431Y-23447D01*
X39618Y-23690D02*
X39618Y-23428D01*
X39618Y-23297D02*
X39599Y-23315D01*
X39618Y-23334D01*
X39637Y-23315D01*
X39618Y-23297D01*
X39618Y-23334D01*
X39862Y-23690D02*
X39824Y-23672D01*
X39805Y-23653D01*
X39787Y-23615D01*
X39787Y-23503D01*
X39805Y-23465D01*
X39824Y-23447D01*
X39862Y-23428D01*
X39918Y-23428D01*
X39955Y-23447D01*
X39974Y-23465D01*
X39993Y-23503D01*
X39993Y-23615D01*
X39974Y-23653D01*
X39955Y-23672D01*
X39918Y-23690D01*
X39862Y-23690D01*
G54D12*
X43374Y-18930D03*
X43124Y-18930D03*
X42864Y-18930D03*
X42604Y-18930D03*
X42354Y-18930D03*
X42094Y-18930D03*
X41834Y-18930D03*
X41584Y-18930D03*
X41324Y-18930D03*
X41074Y-18930D03*
X41074Y-21424D03*
X41324Y-21424D03*
X41584Y-21424D03*
X41834Y-21424D03*
X42094Y-21424D03*
X42354Y-21424D03*
X42604Y-21424D03*
X42864Y-21424D03*
X43124Y-21424D03*
X43374Y-21424D03*
G54D13*
X45472Y-19625D03*
X45472Y-20925D03*
X40846Y-22479D03*
X40846Y-23779D03*
X45472Y-18760D03*
X45472Y-17460D03*
X41929Y-22479D03*
X41929Y-23779D03*
X43011Y-22479D03*
X43011Y-23779D03*
X44094Y-22479D03*
X44094Y-23779D03*
G54D14*
X38582Y-16338D03*
G54D15*
X44582Y-16338D03*
X39582Y-16338D03*
X45582Y-16338D03*
X40582Y-16338D03*
X41582Y-16338D03*
X42582Y-16338D03*
X43582Y-16338D03*
X41582Y-17338D03*
X40582Y-17338D03*
X39582Y-17338D03*
X38582Y-17338D03*
G54D16*
X39173Y-21177D03*
X39173Y-19177D03*
G54D17*
X43110Y-19783D03*
X44685Y-20177D03*
X41732Y-19783D03*
X41338Y-23129D03*
X45078Y-18110D03*
X41240Y-19783D03*
X42716Y-20669D03*
X44685Y-21358D03*
G54D18*
X44094Y-22479D02*
X44094Y-20767D01*
X44094Y-20767D02*
X44685Y-20177D01*
X43011Y-22479D02*
X43011Y-22440D01*
X43011Y-22440D02*
X43374Y-22078D01*
X43374Y-22078D02*
X43374Y-21424D01*
X41929Y-22479D02*
X41929Y-22440D01*
X41929Y-22440D02*
X41584Y-22096D01*
X41584Y-22096D02*
X41584Y-21424D01*
X41929Y-22479D02*
X40846Y-22479D01*
X43011Y-22479D02*
X41929Y-22479D01*
X44094Y-22479D02*
X43011Y-22479D01*
X41732Y-19783D02*
X41584Y-19635D01*
X41584Y-19635D02*
X41584Y-18930D01*
X45472Y-19625D02*
X45236Y-19625D01*
X45236Y-19625D02*
X44685Y-20177D01*
X45472Y-18760D02*
X45472Y-19625D01*
G54D19*
X43374Y-19519D02*
X43374Y-18930D01*
X43110Y-19783D02*
X43374Y-19519D01*
X41584Y-18930D02*
X41584Y-19635D01*
X41929Y-22440D02*
X41584Y-22096D01*
X41584Y-22096D02*
X41584Y-21424D01*
X43011Y-22440D02*
X43374Y-22078D01*
X43374Y-22078D02*
X43374Y-21424D01*
X39074Y-17027D02*
X39074Y-16830D01*
X41324Y-20851D02*
X41141Y-20669D01*
X41141Y-20669D02*
X38877Y-20669D01*
X38877Y-20669D02*
X38484Y-20275D01*
X38484Y-20275D02*
X38484Y-18799D01*
X38484Y-18799D02*
X39074Y-18208D01*
X39074Y-18208D02*
X39074Y-17027D01*
X41324Y-21424D02*
X41324Y-20851D01*
X39074Y-16830D02*
X38582Y-16338D01*
X42354Y-18930D02*
X42354Y-17110D01*
X42354Y-17110D02*
X41582Y-16338D01*
X42094Y-18930D02*
X42094Y-18373D01*
X41043Y-16799D02*
X40582Y-16338D01*
X41043Y-17618D02*
X41043Y-16799D01*
X41338Y-17913D02*
X41043Y-17618D01*
X41633Y-17913D02*
X41338Y-17913D01*
X42094Y-18373D02*
X41633Y-17913D01*
X41834Y-21424D02*
X41834Y-20468D01*
X43910Y-20177D02*
X44485Y-19602D01*
X42125Y-20177D02*
X43910Y-20177D01*
X41834Y-20468D02*
X42125Y-20177D01*
X44485Y-18503D02*
X44485Y-16436D01*
X44485Y-16436D02*
X44582Y-16338D01*
X44485Y-19602D02*
X44485Y-18503D01*
X42094Y-21424D02*
X42094Y-20684D01*
X44685Y-19685D02*
X44685Y-18503D01*
X43996Y-20374D02*
X44685Y-19685D01*
X44685Y-18503D02*
X44685Y-17027D01*
X45078Y-16633D02*
X45275Y-16437D01*
X45275Y-16437D02*
X45484Y-16437D01*
X45484Y-16437D02*
X45582Y-16338D01*
X44685Y-17027D02*
X45078Y-16633D01*
X42094Y-20684D02*
X42421Y-20357D01*
X42421Y-20357D02*
X44012Y-20357D01*
X44012Y-20357D02*
X43996Y-20374D01*
X43124Y-18930D02*
X43124Y-16796D01*
X43124Y-16796D02*
X43582Y-16338D01*
X42864Y-18930D02*
X42864Y-16620D01*
X42864Y-16620D02*
X42582Y-16338D01*
X39582Y-16338D02*
X39582Y-16354D01*
X41834Y-18409D02*
X41834Y-18930D01*
X41732Y-18307D02*
X41834Y-18409D01*
X40846Y-18307D02*
X41732Y-18307D01*
X40059Y-17519D02*
X40846Y-18307D01*
X40059Y-16830D02*
X40059Y-17519D01*
X39582Y-16354D02*
X40059Y-16830D01*
G54D18*
X40846Y-23779D02*
X40846Y-23622D01*
X40846Y-23622D02*
X41338Y-23129D01*
X45472Y-17460D02*
X45472Y-17716D01*
X45472Y-17716D02*
X45078Y-18110D01*
X43011Y-23779D02*
X44094Y-23779D01*
X41929Y-23779D02*
X43011Y-23779D01*
X40846Y-23779D02*
X41929Y-23779D01*
G54D19*
X42604Y-18930D02*
X42604Y-19797D01*
X41324Y-19699D02*
X41240Y-19783D01*
X41324Y-19699D02*
X41324Y-18930D01*
X41633Y-20177D02*
X41240Y-19783D01*
X41830Y-20177D02*
X41633Y-20177D01*
X42010Y-19997D02*
X41830Y-20177D01*
X42404Y-19997D02*
X42010Y-19997D01*
X42604Y-19797D02*
X42404Y-19997D01*
X42604Y-21424D02*
X42604Y-20781D01*
X42604Y-20781D02*
X42716Y-20669D01*
X45472Y-20925D02*
X45117Y-20925D01*
X45117Y-20925D02*
X44685Y-21358D01*
X42354Y-21424D02*
X42604Y-21424D01*
X39173Y-19177D02*
X40827Y-19177D01*
X40827Y-19177D02*
X41074Y-18930D01*
X39173Y-21177D02*
X40827Y-21177D01*
X40827Y-21177D02*
X41074Y-21424D01*
M02*
