G04 (created by PCBNEW (2013-07-07 BZR 4022)-stable) date 30/09/2014 17:20:54*
%MOIN*%
G04 Gerber Fmt 3.4, Leading zero omitted, Abs format*
%FSLAX34Y34*%
G01*
G70*
G90*
G04 APERTURE LIST*
%ADD10C,0.00590551*%
%ADD11C,0.0001*%
G04 APERTURE END LIST*
G54D10*
G54D11*
G36*
X43816Y-22196D02*
X43716Y-22220D01*
X43650Y-22235D01*
X43650Y-21880D01*
X43650Y-21700D01*
X43450Y-21656D01*
X43294Y-21619D01*
X43189Y-21583D01*
X43119Y-21539D01*
X43071Y-21478D01*
X43029Y-21392D01*
X42978Y-21275D01*
X42928Y-21164D01*
X42911Y-21127D01*
X42887Y-21069D01*
X42882Y-21021D01*
X42904Y-20964D01*
X42956Y-20880D01*
X42991Y-20827D01*
X43060Y-20724D01*
X43115Y-20640D01*
X43145Y-20593D01*
X43138Y-20546D01*
X43089Y-20469D01*
X43046Y-20417D01*
X42975Y-20340D01*
X42929Y-20306D01*
X42889Y-20308D01*
X42838Y-20338D01*
X42837Y-20339D01*
X42757Y-20390D01*
X42652Y-20457D01*
X42592Y-20494D01*
X42435Y-20592D01*
X42167Y-20483D01*
X42044Y-20432D01*
X41947Y-20387D01*
X41890Y-20356D01*
X41883Y-20350D01*
X41869Y-20306D01*
X41846Y-20216D01*
X41819Y-20097D01*
X41815Y-20080D01*
X41785Y-19958D01*
X41754Y-19863D01*
X41726Y-19812D01*
X41723Y-19810D01*
X41653Y-19789D01*
X41557Y-19785D01*
X41466Y-19797D01*
X41409Y-19823D01*
X41408Y-19825D01*
X41385Y-19877D01*
X41358Y-19974D01*
X41334Y-20089D01*
X41305Y-20210D01*
X41270Y-20308D01*
X41238Y-20359D01*
X41180Y-20395D01*
X41082Y-20444D01*
X40963Y-20497D01*
X40958Y-20499D01*
X40733Y-20593D01*
X40575Y-20495D01*
X40467Y-20427D01*
X40369Y-20365D01*
X40328Y-20338D01*
X40269Y-20304D01*
X40225Y-20304D01*
X40167Y-20343D01*
X40139Y-20367D01*
X40057Y-20446D01*
X40020Y-20518D01*
X40029Y-20599D01*
X40082Y-20705D01*
X40134Y-20785D01*
X40201Y-20888D01*
X40240Y-20969D01*
X40250Y-21045D01*
X40232Y-21135D01*
X40186Y-21254D01*
X40135Y-21367D01*
X40094Y-21455D01*
X40058Y-21518D01*
X40013Y-21561D01*
X39947Y-21593D01*
X39848Y-21620D01*
X39702Y-21649D01*
X39608Y-21668D01*
X39546Y-21683D01*
X39513Y-21710D01*
X39501Y-21768D01*
X39500Y-21870D01*
X39504Y-21972D01*
X39527Y-22040D01*
X39578Y-22083D01*
X39672Y-22111D01*
X39819Y-22134D01*
X39831Y-22136D01*
X39933Y-22156D01*
X40007Y-22182D01*
X40027Y-22196D01*
X40051Y-22242D01*
X40093Y-22334D01*
X40143Y-22454D01*
X40161Y-22499D01*
X40267Y-22764D01*
X40173Y-22915D01*
X40109Y-23017D01*
X40052Y-23107D01*
X40031Y-23141D01*
X40008Y-23187D01*
X40014Y-23229D01*
X40055Y-23285D01*
X40114Y-23347D01*
X40179Y-23413D01*
X40230Y-23448D01*
X40280Y-23450D01*
X40347Y-23419D01*
X40445Y-23353D01*
X40513Y-23304D01*
X40613Y-23238D01*
X40680Y-23211D01*
X40730Y-23215D01*
X40741Y-23221D01*
X40811Y-23242D01*
X40846Y-23239D01*
X40872Y-23204D01*
X40914Y-23122D01*
X40965Y-23010D01*
X41019Y-22882D01*
X41069Y-22755D01*
X41108Y-22644D01*
X41130Y-22567D01*
X41133Y-22546D01*
X41112Y-22501D01*
X41060Y-22428D01*
X41029Y-22390D01*
X40909Y-22220D01*
X40846Y-22040D01*
X40833Y-21883D01*
X40862Y-21672D01*
X40943Y-21490D01*
X41065Y-21343D01*
X41221Y-21234D01*
X41399Y-21167D01*
X41590Y-21146D01*
X41784Y-21175D01*
X41973Y-21258D01*
X42105Y-21358D01*
X42226Y-21510D01*
X42299Y-21698D01*
X42316Y-21786D01*
X42317Y-21988D01*
X42257Y-22183D01*
X42134Y-22378D01*
X42132Y-22380D01*
X41999Y-22548D01*
X42101Y-22803D01*
X42171Y-22978D01*
X42224Y-23099D01*
X42266Y-23176D01*
X42303Y-23217D01*
X42342Y-23233D01*
X42390Y-23231D01*
X42408Y-23229D01*
X42485Y-23227D01*
X42563Y-23254D01*
X42666Y-23318D01*
X42683Y-23331D01*
X42779Y-23394D01*
X42861Y-23437D01*
X42901Y-23450D01*
X42954Y-23427D01*
X43028Y-23370D01*
X43065Y-23335D01*
X43176Y-23220D01*
X43032Y-22998D01*
X42887Y-22777D01*
X42948Y-22622D01*
X42997Y-22493D01*
X43045Y-22362D01*
X43057Y-22326D01*
X43089Y-22246D01*
X43128Y-22200D01*
X43192Y-22171D01*
X43295Y-22148D01*
X43450Y-22115D01*
X43552Y-22089D01*
X43612Y-22061D01*
X43640Y-22021D01*
X43649Y-21962D01*
X43650Y-21880D01*
X43650Y-22235D01*
X43626Y-22241D01*
X43504Y-22267D01*
X43426Y-22283D01*
X43236Y-22321D01*
X43168Y-22503D01*
X43130Y-22613D01*
X43106Y-22703D01*
X43100Y-22743D01*
X43117Y-22798D01*
X43164Y-22888D01*
X43229Y-22994D01*
X43233Y-23000D01*
X43298Y-23103D01*
X43346Y-23186D01*
X43366Y-23233D01*
X43366Y-23234D01*
X43343Y-23276D01*
X43283Y-23347D01*
X43200Y-23433D01*
X43108Y-23519D01*
X43023Y-23593D01*
X42958Y-23640D01*
X42934Y-23650D01*
X42885Y-23633D01*
X42798Y-23587D01*
X42692Y-23522D01*
X42679Y-23514D01*
X42570Y-23445D01*
X42497Y-23408D01*
X42443Y-23397D01*
X42387Y-23408D01*
X42351Y-23420D01*
X42254Y-23444D01*
X42201Y-23432D01*
X42177Y-23390D01*
X42133Y-23300D01*
X42077Y-23175D01*
X42016Y-23033D01*
X41933Y-22837D01*
X41874Y-22693D01*
X41835Y-22592D01*
X41817Y-22523D01*
X41818Y-22477D01*
X41835Y-22443D01*
X41869Y-22412D01*
X41916Y-22375D01*
X41916Y-22374D01*
X42056Y-22221D01*
X42137Y-22045D01*
X42159Y-21855D01*
X42117Y-21663D01*
X42103Y-21630D01*
X42001Y-21479D01*
X41861Y-21371D01*
X41697Y-21310D01*
X41523Y-21297D01*
X41353Y-21338D01*
X41207Y-21429D01*
X41079Y-21581D01*
X41010Y-21754D01*
X40999Y-21936D01*
X41048Y-22118D01*
X41155Y-22288D01*
X41212Y-22348D01*
X41282Y-22423D01*
X41326Y-22487D01*
X41333Y-22509D01*
X41320Y-22559D01*
X41287Y-22655D01*
X41238Y-22784D01*
X41179Y-22932D01*
X41117Y-23083D01*
X41057Y-23224D01*
X41005Y-23340D01*
X40967Y-23418D01*
X40953Y-23440D01*
X40912Y-23461D01*
X40846Y-23445D01*
X40808Y-23428D01*
X40751Y-23402D01*
X40704Y-23396D01*
X40649Y-23414D01*
X40569Y-23461D01*
X40489Y-23512D01*
X40381Y-23579D01*
X40290Y-23628D01*
X40234Y-23649D01*
X40230Y-23650D01*
X40185Y-23627D01*
X40109Y-23567D01*
X40015Y-23481D01*
X39974Y-23441D01*
X39767Y-23232D01*
X39916Y-23009D01*
X39987Y-22899D01*
X40039Y-22807D01*
X40065Y-22750D01*
X40066Y-22743D01*
X40051Y-22667D01*
X40015Y-22563D01*
X39966Y-22456D01*
X39917Y-22369D01*
X39885Y-22330D01*
X39819Y-22302D01*
X39717Y-22276D01*
X39655Y-22265D01*
X39509Y-22244D01*
X39416Y-22218D01*
X39363Y-22175D01*
X39339Y-22100D01*
X39333Y-21980D01*
X39333Y-21886D01*
X39336Y-21751D01*
X39344Y-21644D01*
X39356Y-21579D01*
X39362Y-21569D01*
X39408Y-21553D01*
X39500Y-21530D01*
X39619Y-21503D01*
X39635Y-21499D01*
X39759Y-21470D01*
X39859Y-21440D01*
X39916Y-21416D01*
X39919Y-21414D01*
X39953Y-21366D01*
X39999Y-21278D01*
X40032Y-21201D01*
X40105Y-21022D01*
X39935Y-20779D01*
X39764Y-20537D01*
X39973Y-20327D01*
X40073Y-20232D01*
X40162Y-20160D01*
X40226Y-20120D01*
X40242Y-20117D01*
X40298Y-20135D01*
X40387Y-20185D01*
X40488Y-20254D01*
X40614Y-20339D01*
X40713Y-20380D01*
X40809Y-20381D01*
X40923Y-20345D01*
X40974Y-20324D01*
X41060Y-20282D01*
X41110Y-20239D01*
X41140Y-20174D01*
X41165Y-20065D01*
X41165Y-20061D01*
X41191Y-19936D01*
X41216Y-19821D01*
X41228Y-19767D01*
X41252Y-19667D01*
X41546Y-19657D01*
X41702Y-19656D01*
X41818Y-19665D01*
X41881Y-19682D01*
X41883Y-19684D01*
X41910Y-19733D01*
X41940Y-19828D01*
X41967Y-19950D01*
X41968Y-19960D01*
X41998Y-20108D01*
X42034Y-20207D01*
X42089Y-20272D01*
X42174Y-20322D01*
X42253Y-20355D01*
X42332Y-20382D01*
X42395Y-20394D01*
X42456Y-20383D01*
X42532Y-20347D01*
X42635Y-20280D01*
X42743Y-20206D01*
X42936Y-20071D01*
X43151Y-20285D01*
X43246Y-20383D01*
X43320Y-20465D01*
X43361Y-20520D01*
X43366Y-20533D01*
X43349Y-20575D01*
X43302Y-20656D01*
X43236Y-20761D01*
X43216Y-20791D01*
X43146Y-20899D01*
X43094Y-20986D01*
X43067Y-21039D01*
X43066Y-21045D01*
X43079Y-21089D01*
X43112Y-21174D01*
X43148Y-21260D01*
X43196Y-21362D01*
X43238Y-21421D01*
X43297Y-21454D01*
X43394Y-21477D01*
X43423Y-21483D01*
X43548Y-21509D01*
X43663Y-21534D01*
X43716Y-21546D01*
X43816Y-21571D01*
X43816Y-21883D01*
X43816Y-22196D01*
X43816Y-22196D01*
X43816Y-22196D01*
G37*
M02*
