G04 (created by PCBNEW (2013-07-07 BZR 4022)-stable) date 15/01/2015 16:28:21*
%MOIN*%
G04 Gerber Fmt 3.4, Leading zero omitted, Abs format*
%FSLAX34Y34*%
G01*
G70*
G90*
G04 APERTURE LIST*
%ADD10C,0.00590551*%
%ADD11R,0.06X0.06*%
%ADD12C,0.06*%
%ADD13C,0.055*%
%ADD14R,0.0830709X0.0629921*%
%ADD15C,0.035*%
%ADD16C,0.01*%
G04 APERTURE END LIST*
G54D10*
G54D11*
X71850Y-46550D03*
G54D12*
X72850Y-46550D03*
X73850Y-46550D03*
X74850Y-46550D03*
X75850Y-46550D03*
X76850Y-46550D03*
X77750Y-46550D03*
X78850Y-46550D03*
G54D13*
X73550Y-43800D03*
X73550Y-44800D03*
G54D11*
X71850Y-41400D03*
G54D12*
X77850Y-41400D03*
X72850Y-41400D03*
X78850Y-41400D03*
X73850Y-41400D03*
X74850Y-41400D03*
X75850Y-41400D03*
X76850Y-41400D03*
X74850Y-42400D03*
X73850Y-42400D03*
X72850Y-42400D03*
X71850Y-42400D03*
G54D14*
X78745Y-44850D03*
X75103Y-44850D03*
X78745Y-43375D03*
X75103Y-43375D03*
G54D15*
X74750Y-44150D03*
X77200Y-45900D03*
X74425Y-45925D03*
X76575Y-43350D03*
G54D16*
X75103Y-44125D02*
X74775Y-44125D01*
X74775Y-44125D02*
X74750Y-44150D01*
X75103Y-43375D02*
X75103Y-44125D01*
X75103Y-44125D02*
X75103Y-44850D01*
X78745Y-43375D02*
X78745Y-42820D01*
X77850Y-41925D02*
X77850Y-41400D01*
X78745Y-42820D02*
X77850Y-41925D01*
X72850Y-46550D02*
X72850Y-43750D01*
X73350Y-41900D02*
X72850Y-41400D01*
X73350Y-42800D02*
X73350Y-41900D01*
X72850Y-43300D02*
X73350Y-42800D01*
X72850Y-43750D02*
X72850Y-43300D01*
X71850Y-41400D02*
X71850Y-41600D01*
X72325Y-46075D02*
X71850Y-46550D01*
X72325Y-42075D02*
X72325Y-46075D01*
X71850Y-41600D02*
X72325Y-42075D01*
X74850Y-46550D02*
X74850Y-46375D01*
X75900Y-42450D02*
X74850Y-41400D01*
X75900Y-45325D02*
X75900Y-42450D01*
X74850Y-46375D02*
X75900Y-45325D01*
X75850Y-46550D02*
X75850Y-45875D01*
X76225Y-41775D02*
X75850Y-41400D01*
X76225Y-45500D02*
X76225Y-41775D01*
X75850Y-45875D02*
X76225Y-45500D01*
X73550Y-43800D02*
X73550Y-43700D01*
X73550Y-43700D02*
X74850Y-42400D01*
X73550Y-44800D02*
X73550Y-45050D01*
X77750Y-46450D02*
X77750Y-46550D01*
X77200Y-45900D02*
X77750Y-46450D01*
X73550Y-45050D02*
X74425Y-45925D01*
X76600Y-46300D02*
X76850Y-46550D01*
X76600Y-43375D02*
X76600Y-46300D01*
X76575Y-43350D02*
X76600Y-43375D01*
X76850Y-41400D02*
X76850Y-42954D01*
X76850Y-42954D02*
X78745Y-44850D01*
X73850Y-46550D02*
X73850Y-46049D01*
X74350Y-41900D02*
X73850Y-41400D01*
X74350Y-42575D02*
X74350Y-41900D01*
X73950Y-42975D02*
X74350Y-42575D01*
X73457Y-42975D02*
X73950Y-42975D01*
X73050Y-43382D02*
X73457Y-42975D01*
X73050Y-45250D02*
X73050Y-43382D01*
X73850Y-46049D02*
X73050Y-45250D01*
M02*
