G04 (created by PCBNEW (2013-07-07 BZR 4022)-stable) date 15/01/2015 16:28:21*
%MOIN*%
G04 Gerber Fmt 3.4, Leading zero omitted, Abs format*
%FSLAX34Y34*%
G01*
G70*
G90*
G04 APERTURE LIST*
%ADD10C,0.00590551*%
%ADD11R,0.06X0.06*%
%ADD12C,0.06*%
%ADD13C,0.055*%
%ADD14C,0.035*%
%ADD15C,0.01*%
G04 APERTURE END LIST*
G54D10*
G54D11*
X71850Y-46550D03*
G54D12*
X72850Y-46550D03*
X73850Y-46550D03*
X74850Y-46550D03*
X75850Y-46550D03*
X76850Y-46550D03*
X77750Y-46550D03*
X78850Y-46550D03*
G54D13*
X73550Y-43800D03*
X73550Y-44800D03*
G54D11*
X71850Y-41400D03*
G54D12*
X77850Y-41400D03*
X72850Y-41400D03*
X78850Y-41400D03*
X73850Y-41400D03*
X74850Y-41400D03*
X75850Y-41400D03*
X76850Y-41400D03*
X74850Y-42400D03*
X73850Y-42400D03*
X72850Y-42400D03*
X71850Y-42400D03*
G54D14*
X74750Y-44150D03*
X77200Y-45900D03*
X74425Y-45925D03*
X76575Y-43350D03*
G54D15*
X74450Y-45900D02*
X77200Y-45900D01*
X74425Y-45925D02*
X74450Y-45900D01*
X73850Y-42400D02*
X73850Y-42375D01*
X76575Y-42425D02*
X76575Y-43350D01*
X76025Y-41875D02*
X76575Y-42425D01*
X74350Y-41875D02*
X76025Y-41875D01*
X73850Y-42375D02*
X74350Y-41875D01*
G54D10*
G36*
X79130Y-46066D02*
X78931Y-45995D01*
X78713Y-46006D01*
X78562Y-46068D01*
X78534Y-46164D01*
X78850Y-46479D01*
X78855Y-46473D01*
X78926Y-46544D01*
X78920Y-46550D01*
X78926Y-46555D01*
X78855Y-46626D01*
X78850Y-46620D01*
X78844Y-46626D01*
X78773Y-46555D01*
X78779Y-46550D01*
X78464Y-46234D01*
X78368Y-46262D01*
X78300Y-46454D01*
X78300Y-46441D01*
X78216Y-46238D01*
X78061Y-46084D01*
X77859Y-46000D01*
X77641Y-45999D01*
X77614Y-46011D01*
X77624Y-45984D01*
X77625Y-45815D01*
X77560Y-45659D01*
X77441Y-45539D01*
X77284Y-45475D01*
X77115Y-45474D01*
X76959Y-45539D01*
X76898Y-45600D01*
X74701Y-45600D01*
X74666Y-45564D01*
X74509Y-45500D01*
X74340Y-45499D01*
X74184Y-45564D01*
X74075Y-45673D01*
X74075Y-44696D01*
X73995Y-44503D01*
X73847Y-44355D01*
X73714Y-44299D01*
X73847Y-44245D01*
X73994Y-44097D01*
X74074Y-43904D01*
X74075Y-43696D01*
X73995Y-43503D01*
X73847Y-43355D01*
X73654Y-43275D01*
X73446Y-43274D01*
X73253Y-43354D01*
X73105Y-43502D01*
X73025Y-43695D01*
X73024Y-43903D01*
X73104Y-44097D01*
X73252Y-44244D01*
X73385Y-44300D01*
X73253Y-44354D01*
X73105Y-44502D01*
X73025Y-44695D01*
X73024Y-44903D01*
X73104Y-45097D01*
X73252Y-45244D01*
X73445Y-45324D01*
X73653Y-45325D01*
X73847Y-45245D01*
X73994Y-45097D01*
X74074Y-44904D01*
X74075Y-44696D01*
X74075Y-45673D01*
X74064Y-45683D01*
X74000Y-45840D01*
X73999Y-46009D01*
X74003Y-46018D01*
X73959Y-46000D01*
X73741Y-45999D01*
X73538Y-46083D01*
X73384Y-46238D01*
X73350Y-46319D01*
X73316Y-46238D01*
X73161Y-46084D01*
X72959Y-46000D01*
X72741Y-45999D01*
X72538Y-46083D01*
X72400Y-46222D01*
X72400Y-46200D01*
X72362Y-46108D01*
X72291Y-46038D01*
X72199Y-46000D01*
X72165Y-46000D01*
X72100Y-45999D01*
X71519Y-45999D01*
X71519Y-42801D01*
X71534Y-42785D01*
X71562Y-42881D01*
X71768Y-42954D01*
X71986Y-42943D01*
X72137Y-42881D01*
X72165Y-42785D01*
X71850Y-42470D01*
X71844Y-42476D01*
X71773Y-42405D01*
X71779Y-42400D01*
X71773Y-42394D01*
X71844Y-42323D01*
X71850Y-42329D01*
X72165Y-42014D01*
X72146Y-41950D01*
X72199Y-41950D01*
X72291Y-41912D01*
X72361Y-41841D01*
X72399Y-41749D01*
X72399Y-41727D01*
X72538Y-41865D01*
X72619Y-41899D01*
X72538Y-41933D01*
X72384Y-42088D01*
X72352Y-42163D01*
X72331Y-42112D01*
X72235Y-42084D01*
X71920Y-42400D01*
X72235Y-42715D01*
X72331Y-42687D01*
X72350Y-42632D01*
X72383Y-42711D01*
X72538Y-42865D01*
X72740Y-42949D01*
X72958Y-42950D01*
X73161Y-42866D01*
X73315Y-42711D01*
X73349Y-42630D01*
X73383Y-42711D01*
X73538Y-42865D01*
X73740Y-42949D01*
X73958Y-42950D01*
X74161Y-42866D01*
X74315Y-42711D01*
X74349Y-42630D01*
X74383Y-42711D01*
X74538Y-42865D01*
X74740Y-42949D01*
X74958Y-42950D01*
X75161Y-42866D01*
X75315Y-42711D01*
X75399Y-42509D01*
X75400Y-42291D01*
X75352Y-42175D01*
X75900Y-42175D01*
X76275Y-42549D01*
X76275Y-43048D01*
X76214Y-43108D01*
X76150Y-43265D01*
X76149Y-43434D01*
X76214Y-43590D01*
X76333Y-43710D01*
X76490Y-43774D01*
X76659Y-43775D01*
X76815Y-43710D01*
X76935Y-43591D01*
X76999Y-43434D01*
X77000Y-43265D01*
X76935Y-43109D01*
X76875Y-43048D01*
X76875Y-42425D01*
X76852Y-42310D01*
X76787Y-42212D01*
X76787Y-42212D01*
X76301Y-41726D01*
X76315Y-41711D01*
X76349Y-41630D01*
X76383Y-41711D01*
X76538Y-41865D01*
X76740Y-41949D01*
X76958Y-41950D01*
X77161Y-41866D01*
X77315Y-41711D01*
X77349Y-41630D01*
X77383Y-41711D01*
X77538Y-41865D01*
X77740Y-41949D01*
X77958Y-41950D01*
X78161Y-41866D01*
X78315Y-41711D01*
X78349Y-41630D01*
X78383Y-41711D01*
X78538Y-41865D01*
X78740Y-41949D01*
X78958Y-41950D01*
X79130Y-41879D01*
X79130Y-46066D01*
X79130Y-46066D01*
G37*
G54D15*
X79130Y-46066D02*
X78931Y-45995D01*
X78713Y-46006D01*
X78562Y-46068D01*
X78534Y-46164D01*
X78850Y-46479D01*
X78855Y-46473D01*
X78926Y-46544D01*
X78920Y-46550D01*
X78926Y-46555D01*
X78855Y-46626D01*
X78850Y-46620D01*
X78844Y-46626D01*
X78773Y-46555D01*
X78779Y-46550D01*
X78464Y-46234D01*
X78368Y-46262D01*
X78300Y-46454D01*
X78300Y-46441D01*
X78216Y-46238D01*
X78061Y-46084D01*
X77859Y-46000D01*
X77641Y-45999D01*
X77614Y-46011D01*
X77624Y-45984D01*
X77625Y-45815D01*
X77560Y-45659D01*
X77441Y-45539D01*
X77284Y-45475D01*
X77115Y-45474D01*
X76959Y-45539D01*
X76898Y-45600D01*
X74701Y-45600D01*
X74666Y-45564D01*
X74509Y-45500D01*
X74340Y-45499D01*
X74184Y-45564D01*
X74075Y-45673D01*
X74075Y-44696D01*
X73995Y-44503D01*
X73847Y-44355D01*
X73714Y-44299D01*
X73847Y-44245D01*
X73994Y-44097D01*
X74074Y-43904D01*
X74075Y-43696D01*
X73995Y-43503D01*
X73847Y-43355D01*
X73654Y-43275D01*
X73446Y-43274D01*
X73253Y-43354D01*
X73105Y-43502D01*
X73025Y-43695D01*
X73024Y-43903D01*
X73104Y-44097D01*
X73252Y-44244D01*
X73385Y-44300D01*
X73253Y-44354D01*
X73105Y-44502D01*
X73025Y-44695D01*
X73024Y-44903D01*
X73104Y-45097D01*
X73252Y-45244D01*
X73445Y-45324D01*
X73653Y-45325D01*
X73847Y-45245D01*
X73994Y-45097D01*
X74074Y-44904D01*
X74075Y-44696D01*
X74075Y-45673D01*
X74064Y-45683D01*
X74000Y-45840D01*
X73999Y-46009D01*
X74003Y-46018D01*
X73959Y-46000D01*
X73741Y-45999D01*
X73538Y-46083D01*
X73384Y-46238D01*
X73350Y-46319D01*
X73316Y-46238D01*
X73161Y-46084D01*
X72959Y-46000D01*
X72741Y-45999D01*
X72538Y-46083D01*
X72400Y-46222D01*
X72400Y-46200D01*
X72362Y-46108D01*
X72291Y-46038D01*
X72199Y-46000D01*
X72165Y-46000D01*
X72100Y-45999D01*
X71519Y-45999D01*
X71519Y-42801D01*
X71534Y-42785D01*
X71562Y-42881D01*
X71768Y-42954D01*
X71986Y-42943D01*
X72137Y-42881D01*
X72165Y-42785D01*
X71850Y-42470D01*
X71844Y-42476D01*
X71773Y-42405D01*
X71779Y-42400D01*
X71773Y-42394D01*
X71844Y-42323D01*
X71850Y-42329D01*
X72165Y-42014D01*
X72146Y-41950D01*
X72199Y-41950D01*
X72291Y-41912D01*
X72361Y-41841D01*
X72399Y-41749D01*
X72399Y-41727D01*
X72538Y-41865D01*
X72619Y-41899D01*
X72538Y-41933D01*
X72384Y-42088D01*
X72352Y-42163D01*
X72331Y-42112D01*
X72235Y-42084D01*
X71920Y-42400D01*
X72235Y-42715D01*
X72331Y-42687D01*
X72350Y-42632D01*
X72383Y-42711D01*
X72538Y-42865D01*
X72740Y-42949D01*
X72958Y-42950D01*
X73161Y-42866D01*
X73315Y-42711D01*
X73349Y-42630D01*
X73383Y-42711D01*
X73538Y-42865D01*
X73740Y-42949D01*
X73958Y-42950D01*
X74161Y-42866D01*
X74315Y-42711D01*
X74349Y-42630D01*
X74383Y-42711D01*
X74538Y-42865D01*
X74740Y-42949D01*
X74958Y-42950D01*
X75161Y-42866D01*
X75315Y-42711D01*
X75399Y-42509D01*
X75400Y-42291D01*
X75352Y-42175D01*
X75900Y-42175D01*
X76275Y-42549D01*
X76275Y-43048D01*
X76214Y-43108D01*
X76150Y-43265D01*
X76149Y-43434D01*
X76214Y-43590D01*
X76333Y-43710D01*
X76490Y-43774D01*
X76659Y-43775D01*
X76815Y-43710D01*
X76935Y-43591D01*
X76999Y-43434D01*
X77000Y-43265D01*
X76935Y-43109D01*
X76875Y-43048D01*
X76875Y-42425D01*
X76852Y-42310D01*
X76787Y-42212D01*
X76787Y-42212D01*
X76301Y-41726D01*
X76315Y-41711D01*
X76349Y-41630D01*
X76383Y-41711D01*
X76538Y-41865D01*
X76740Y-41949D01*
X76958Y-41950D01*
X77161Y-41866D01*
X77315Y-41711D01*
X77349Y-41630D01*
X77383Y-41711D01*
X77538Y-41865D01*
X77740Y-41949D01*
X77958Y-41950D01*
X78161Y-41866D01*
X78315Y-41711D01*
X78349Y-41630D01*
X78383Y-41711D01*
X78538Y-41865D01*
X78740Y-41949D01*
X78958Y-41950D01*
X79130Y-41879D01*
X79130Y-46066D01*
M02*
