M48
INCH,TZ
T1C0.025
T2C0.032
T3C0.040
%
G90
G05
T1
X74425Y-45925
X74750Y-44150
X76575Y-43350
X77200Y-45900
T2
X73550Y-43800
X73550Y-44800
T3
X71850Y-41400
X71850Y-42400
X71850Y-46550
X72850Y-41400
X72850Y-42400
X72850Y-46550
X73850Y-41400
X73850Y-42400
X73850Y-46550
X74850Y-41400
X74850Y-42400
X74850Y-46550
X75850Y-41400
X75850Y-46550
X76850Y-41400
X76850Y-46550
X77750Y-46550
X77850Y-41400
X78850Y-41400
X78850Y-46550
T0
M30
