M48
INCH,TZ
T1C0.025
T2C0.032
T3C0.040
T4C0.047
T5C0.057
T6C0.063
T7C0.091
%
G90
G05
T1
X37000Y-45700
X39900Y-34900
X39980Y-46840
X40000Y-34400
X40030Y-47500
X40100Y-33800
X40130Y-33180
X40190Y-32590
X40350Y-30430
X41200Y-34300
X41200Y-34800
X41240Y-30320
X41400Y-35300
X42040Y-32850
X42100Y-33800
X42110Y-46480
X42140Y-53150
X42180Y-48540
X42180Y-51110
X42190Y-52230
X42200Y-50640
X42200Y-52700
X42200Y-57200
X42210Y-49710
X42980Y-32430
X42980Y-52680
X42990Y-53220
X43000Y-46500
X43000Y-51100
X43010Y-48480
X43010Y-52250
X43020Y-49810
X43020Y-50630
X43040Y-47090
X43040Y-47540
X43200Y-34400
X45260Y-32200
X45890Y-30360
X45900Y-24900
X46200Y-25600
X46300Y-29400
X47890Y-29520
X48800Y-34700
X49200Y-55760
X49500Y-29500
X49500Y-30300
X49850Y-55480
X50000Y-29500
X50000Y-30300
X50000Y-34400
X50150Y-56730
X50300Y-28300
X52700Y-31600
X54810Y-56750
X55100Y-52520
X55440Y-53180
X61500Y-43000
X61800Y-44500
X64300Y-51800
X64500Y-46300
X64700Y-51100
T2
X37870Y-45980
X37870Y-46980
X37870Y-47980
X37870Y-48980
X37870Y-49980
X37870Y-50980
X37870Y-51980
X37870Y-52980
X37870Y-53980
X40870Y-45980
X40870Y-46980
X40870Y-47980
X40870Y-48980
X40870Y-49980
X40870Y-50980
X40870Y-51980
X40870Y-52980
X40870Y-53980
X41626Y-25866
X41626Y-26653
X42594Y-56299
X42626Y-25866
X42626Y-26653
X42866Y-28224
X42866Y-31224
X43594Y-44882
X43594Y-53937
X43866Y-28224
X43866Y-31224
X44594Y-44882
X44594Y-53937
X44866Y-28224
X44866Y-31224
X45594Y-56299
X45866Y-28224
X45866Y-31224
X46016Y-32555
X46016Y-35555
X46457Y-43382
X46457Y-46382
X46457Y-48500
X46457Y-51500
X46457Y-52831
X46457Y-55831
X46866Y-28224
X46866Y-31224
X47016Y-32555
X47016Y-35555
X47713Y-56299
X47866Y-28224
X47866Y-31224
X48016Y-32555
X48016Y-35555
X48713Y-44882
X48713Y-53937
X48866Y-28224
X48866Y-31224
X49016Y-32555
X49016Y-35555
X49713Y-44882
X49713Y-53937
X50016Y-32555
X50016Y-35555
X50713Y-56299
X51016Y-32555
X51016Y-35555
X51575Y-43382
X51575Y-46382
X51575Y-48500
X51575Y-51500
X51575Y-52831
X51575Y-55831
X52016Y-32555
X52016Y-35555
X52437Y-56299
X53437Y-44882
X53437Y-53937
X54437Y-44882
X54437Y-53937
X55437Y-56299
X56299Y-43382
X56299Y-46382
X56299Y-48500
X56299Y-51500
X56299Y-52831
X56299Y-55831
X57161Y-56299
X58161Y-44882
X58161Y-53937
X59161Y-44882
X59161Y-53937
X60161Y-56299
X61024Y-43382
X61024Y-46382
X61024Y-48500
X61024Y-51500
X61024Y-52831
X61024Y-55831
X63200Y-46000
X63200Y-47000
X63200Y-48000
X63200Y-49000
X63200Y-50000
X63200Y-51000
X63200Y-52000
X63200Y-53000
X63200Y-54000
X66200Y-46000
X66200Y-47000
X66200Y-48000
X66200Y-49000
X66200Y-50000
X66200Y-51000
X66200Y-52000
X66200Y-53000
X66200Y-54000
T3
X45925Y-24016
X46925Y-24016
X47700Y-25700
X47700Y-26700
X47925Y-24016
X48700Y-25700
X48700Y-26700
X48925Y-24016
X49925Y-24016
X50925Y-24016
T4
X43110Y-41831
X43110Y-57382
X43110Y-59154
X44094Y-41831
X45079Y-41831
X45472Y-57382
X45472Y-59154
X48216Y-57376
X48216Y-59148
X48228Y-41831
X49213Y-41831
X50197Y-41831
X50578Y-57376
X50578Y-59148
X52916Y-57376
X52916Y-59148
X52953Y-41831
X53937Y-41831
X54921Y-41831
X55278Y-57376
X55278Y-59148
X57677Y-41831
X57677Y-57382
X57677Y-59154
X58661Y-41831
X59646Y-41831
X60039Y-57382
X60039Y-59154
T5
X44263Y-47894
X44263Y-49744
X44263Y-51594
X49381Y-47894
X49381Y-49744
X49381Y-51594
X54106Y-47894
X54106Y-49744
X54106Y-51594
X58830Y-47894
X58830Y-49744
X58830Y-51594
T7
X44488Y-24803
T6
X42421Y-38839G85X42421Y-39114
G05
X45669Y-38937G85X45669Y-39213
G05
X47539Y-38839G85X47539Y-39114
G05
X50787Y-38937G85X50787Y-39213
G05
X52264Y-38839G85X52264Y-39114
G05
X55512Y-38937G85X55512Y-39213
G05
X56988Y-38839G85X56988Y-39114
G05
X60236Y-38937G85X60236Y-39213
G05
T0
M30
