G04 (created by PCBNEW (2013-07-07 BZR 4022)-stable) date 05/09/2014 18:07:36*
%MOIN*%
G04 Gerber Fmt 3.4, Leading zero omitted, Abs format*
%FSLAX34Y34*%
G01*
G70*
G90*
G04 APERTURE LIST*
%ADD10C,0.00590551*%
%ADD11C,0.06*%
%ADD12C,0.1063*%
%ADD13C,0.0787402*%
%ADD14C,0.08*%
%ADD15C,0.055*%
%ADD16R,0.0787402X0.102362*%
%ADD17R,0.062X0.09*%
%ADD18O,0.062X0.09*%
%ADD19R,0.06X0.06*%
%ADD20R,0.09X0.062*%
%ADD21O,0.09X0.062*%
%ADD22C,0.066*%
%ADD23C,0.035*%
%ADD24C,0.008*%
%ADD25C,0.01*%
%ADD26C,0.02*%
%ADD27C,0.014*%
%ADD28C,0.016*%
%ADD29C,0.024*%
G04 APERTURE END LIST*
G54D10*
G54D11*
X41625Y-26653D03*
X42625Y-26653D03*
X42625Y-25866D03*
X41625Y-25866D03*
G54D12*
X39763Y-24803D03*
X44487Y-24803D03*
G54D13*
X48215Y-57376D03*
X50577Y-57376D03*
X48215Y-59148D03*
X50577Y-59148D03*
X52915Y-57376D03*
X55277Y-57376D03*
X52915Y-59148D03*
X55277Y-59148D03*
X57677Y-57381D03*
X60039Y-57381D03*
X57677Y-59153D03*
X60039Y-59153D03*
X43110Y-57381D03*
X45472Y-57381D03*
X43110Y-59153D03*
X45472Y-59153D03*
G54D14*
X44263Y-51594D03*
X44263Y-49744D03*
X44263Y-47894D03*
X49381Y-51594D03*
X49381Y-49744D03*
X49381Y-47894D03*
X54105Y-51594D03*
X54105Y-49744D03*
X54105Y-47894D03*
X58830Y-51594D03*
X58830Y-49744D03*
X58830Y-47894D03*
G54D15*
X51574Y-51500D03*
X51574Y-48500D03*
X45594Y-56299D03*
X42594Y-56299D03*
X60161Y-56299D03*
X57161Y-56299D03*
X55437Y-56299D03*
X52437Y-56299D03*
X50712Y-56299D03*
X47712Y-56299D03*
X61023Y-51500D03*
X61023Y-48500D03*
X56299Y-51500D03*
X56299Y-48500D03*
X46456Y-51500D03*
X46456Y-48500D03*
G54D10*
G36*
X57322Y-42106D02*
X57401Y-41555D01*
X57952Y-41555D01*
X58031Y-42106D01*
X57322Y-42106D01*
X57322Y-42106D01*
G37*
G36*
X58307Y-42106D02*
X58385Y-41555D01*
X58937Y-41555D01*
X59015Y-42106D01*
X58307Y-42106D01*
X58307Y-42106D01*
G37*
G36*
X59291Y-42106D02*
X59370Y-41555D01*
X59921Y-41555D01*
X60000Y-42106D01*
X59291Y-42106D01*
X59291Y-42106D01*
G37*
G54D16*
X56988Y-38976D03*
X60236Y-39074D03*
G54D10*
G36*
X52598Y-42106D02*
X52677Y-41555D01*
X53228Y-41555D01*
X53307Y-42106D01*
X52598Y-42106D01*
X52598Y-42106D01*
G37*
G36*
X53582Y-42106D02*
X53661Y-41555D01*
X54212Y-41555D01*
X54291Y-42106D01*
X53582Y-42106D01*
X53582Y-42106D01*
G37*
G36*
X54566Y-42106D02*
X54645Y-41555D01*
X55196Y-41555D01*
X55275Y-42106D01*
X54566Y-42106D01*
X54566Y-42106D01*
G37*
G54D16*
X52263Y-38976D03*
X55511Y-39074D03*
G54D10*
G36*
X47874Y-42106D02*
X47952Y-41555D01*
X48503Y-41555D01*
X48582Y-42106D01*
X47874Y-42106D01*
X47874Y-42106D01*
G37*
G36*
X48858Y-42106D02*
X48937Y-41555D01*
X49488Y-41555D01*
X49566Y-42106D01*
X48858Y-42106D01*
X48858Y-42106D01*
G37*
G36*
X49842Y-42106D02*
X49921Y-41555D01*
X50472Y-41555D01*
X50551Y-42106D01*
X49842Y-42106D01*
X49842Y-42106D01*
G37*
G54D16*
X47539Y-38976D03*
X50787Y-39074D03*
G54D10*
G36*
X42755Y-42106D02*
X42834Y-41555D01*
X43385Y-41555D01*
X43464Y-42106D01*
X42755Y-42106D01*
X42755Y-42106D01*
G37*
G36*
X43740Y-42106D02*
X43818Y-41555D01*
X44370Y-41555D01*
X44448Y-42106D01*
X43740Y-42106D01*
X43740Y-42106D01*
G37*
G36*
X44724Y-42106D02*
X44803Y-41555D01*
X45354Y-41555D01*
X45433Y-42106D01*
X44724Y-42106D01*
X44724Y-42106D01*
G37*
G54D16*
X42421Y-38976D03*
X45669Y-39074D03*
G54D17*
X42866Y-31224D03*
G54D18*
X43866Y-31224D03*
X44866Y-31224D03*
X45866Y-31224D03*
X46866Y-31224D03*
X47866Y-31224D03*
X48866Y-31224D03*
X48866Y-28224D03*
X47866Y-28224D03*
X46866Y-28224D03*
X45866Y-28224D03*
X44866Y-28224D03*
X43866Y-28224D03*
X42866Y-28224D03*
G54D19*
X50925Y-24015D03*
G54D11*
X49925Y-24015D03*
X48925Y-24015D03*
X47925Y-24015D03*
X46925Y-24015D03*
X45925Y-24015D03*
G54D19*
X48700Y-26700D03*
G54D11*
X47700Y-26700D03*
G54D19*
X48700Y-25700D03*
G54D11*
X47700Y-25700D03*
G54D17*
X46015Y-35555D03*
G54D18*
X47015Y-35555D03*
X48015Y-35555D03*
X49015Y-35555D03*
X50015Y-35555D03*
X51015Y-35555D03*
X52015Y-35555D03*
X52015Y-32555D03*
X51015Y-32555D03*
X50015Y-32555D03*
X49015Y-32555D03*
X48015Y-32555D03*
X47015Y-32555D03*
X46015Y-32555D03*
G54D20*
X37870Y-45980D03*
G54D21*
X37870Y-46980D03*
X37870Y-47980D03*
X37870Y-48980D03*
X37870Y-49980D03*
X37870Y-50980D03*
X37870Y-51980D03*
X37870Y-52980D03*
X37870Y-53980D03*
X40870Y-53980D03*
X40870Y-52980D03*
X40870Y-51980D03*
X40870Y-50980D03*
X40870Y-49980D03*
X40870Y-48980D03*
X40870Y-47980D03*
X40870Y-46980D03*
X40870Y-45980D03*
G54D15*
X46456Y-43381D03*
X46456Y-46381D03*
X51574Y-43381D03*
X51574Y-46381D03*
X56299Y-43381D03*
X56299Y-46381D03*
X61023Y-43381D03*
X61023Y-46381D03*
X46456Y-52830D03*
X46456Y-55830D03*
X51574Y-52830D03*
X51574Y-55830D03*
X56299Y-52830D03*
X56299Y-55830D03*
X61023Y-52830D03*
X61023Y-55830D03*
G54D22*
X58161Y-53937D03*
X59161Y-53937D03*
X53437Y-53937D03*
X54437Y-53937D03*
X48712Y-53937D03*
X49712Y-53937D03*
X43594Y-53937D03*
X44594Y-53937D03*
X58161Y-44881D03*
X59161Y-44881D03*
X53437Y-44881D03*
X54437Y-44881D03*
X48712Y-44881D03*
X49712Y-44881D03*
X43594Y-44881D03*
X44594Y-44881D03*
G54D20*
X63200Y-46000D03*
G54D21*
X63200Y-47000D03*
X63200Y-48000D03*
X63200Y-49000D03*
X63200Y-50000D03*
X63200Y-51000D03*
X63200Y-52000D03*
X63200Y-53000D03*
X63200Y-54000D03*
X66200Y-54000D03*
X66200Y-53000D03*
X66200Y-52000D03*
X66200Y-51000D03*
X66200Y-50000D03*
X66200Y-49000D03*
X66200Y-48000D03*
X66200Y-47000D03*
X66200Y-46000D03*
G54D23*
X54810Y-56750D03*
X49850Y-55480D03*
X49200Y-55760D03*
X43010Y-52250D03*
X42190Y-52230D03*
X50150Y-56730D03*
X42980Y-52680D03*
X42200Y-52700D03*
X42140Y-53150D03*
X42990Y-53220D03*
X50300Y-28300D03*
X52700Y-31600D03*
X64700Y-51100D03*
X64300Y-51800D03*
X45890Y-30360D03*
X45260Y-32200D03*
X42980Y-32430D03*
X40190Y-32590D03*
X47890Y-29520D03*
X41240Y-30320D03*
X40350Y-30430D03*
X55440Y-53180D03*
X55100Y-52520D03*
X50000Y-34400D03*
X41200Y-34800D03*
X40000Y-34400D03*
X37000Y-45700D03*
X50000Y-29500D03*
X50000Y-30300D03*
X43040Y-47540D03*
X40030Y-47500D03*
X43200Y-34400D03*
X41200Y-34300D03*
X40100Y-33800D03*
X43040Y-47090D03*
X39980Y-46840D03*
X42100Y-33800D03*
X61500Y-43000D03*
X61800Y-44500D03*
X42040Y-32850D03*
X40130Y-33180D03*
X48800Y-34700D03*
X41400Y-35300D03*
X39900Y-34900D03*
X49500Y-30300D03*
X49500Y-29500D03*
X43000Y-46500D03*
X42110Y-46480D03*
X43000Y-51100D03*
X42180Y-51110D03*
X43020Y-50630D03*
X42200Y-50640D03*
X42210Y-49710D03*
X43020Y-49810D03*
X43010Y-48480D03*
X42180Y-48540D03*
X45900Y-24900D03*
X46200Y-25600D03*
X46300Y-29400D03*
X42200Y-57200D03*
X64500Y-46300D03*
G54D24*
X40870Y-53980D02*
X40870Y-55750D01*
X43350Y-56299D02*
X45594Y-56299D01*
X42850Y-56800D02*
X43350Y-56299D01*
X41920Y-56800D02*
X42850Y-56800D01*
X40870Y-55750D02*
X41920Y-56800D01*
X45472Y-57381D02*
X45472Y-56421D01*
X45472Y-56421D02*
X45594Y-56299D01*
X43110Y-57381D02*
X45472Y-57381D01*
X40870Y-50980D02*
X40940Y-50980D01*
X54030Y-56750D02*
X54810Y-56750D01*
X52590Y-55310D02*
X54030Y-56750D01*
X50020Y-55310D02*
X52590Y-55310D01*
X49850Y-55480D02*
X50020Y-55310D01*
X48232Y-55760D02*
X49200Y-55760D01*
X45082Y-52609D02*
X48232Y-55760D01*
X43369Y-52609D02*
X45082Y-52609D01*
X43010Y-52250D02*
X43369Y-52609D01*
X40940Y-50980D02*
X42190Y-52230D01*
X60161Y-56299D02*
X60161Y-57259D01*
X60161Y-57259D02*
X60039Y-57381D01*
X57677Y-57381D02*
X60039Y-57381D01*
X40870Y-51980D02*
X41480Y-51980D01*
X48976Y-56730D02*
X50150Y-56730D01*
X45016Y-52770D02*
X48976Y-56730D01*
X43070Y-52770D02*
X45016Y-52770D01*
X42980Y-52680D02*
X43070Y-52770D01*
X41480Y-51980D02*
X42200Y-52700D01*
X55437Y-56299D02*
X55437Y-57259D01*
X55437Y-57259D02*
X55314Y-57381D01*
X52952Y-57381D02*
X55314Y-57381D01*
X48228Y-57381D02*
X48228Y-56208D01*
X41970Y-52980D02*
X40870Y-52980D01*
X42140Y-53150D02*
X41970Y-52980D01*
X45240Y-53220D02*
X42990Y-53220D01*
X48228Y-56208D02*
X45240Y-53220D01*
X50590Y-57381D02*
X50590Y-56421D01*
X50590Y-56421D02*
X50712Y-56299D01*
X48228Y-57381D02*
X50590Y-57381D01*
X52015Y-32555D02*
X52015Y-30015D01*
X52015Y-30015D02*
X50300Y-28300D01*
G54D25*
X63200Y-52000D02*
X64100Y-52000D01*
X52700Y-32659D02*
X52700Y-31600D01*
X57420Y-37379D02*
X52700Y-32659D01*
X60179Y-37379D02*
X57420Y-37379D01*
X61300Y-38500D02*
X60179Y-37379D01*
X61300Y-39900D02*
X61300Y-38500D01*
X66900Y-45500D02*
X61300Y-39900D01*
X66900Y-50100D02*
X66900Y-45500D01*
X66500Y-50500D02*
X66900Y-50100D01*
X65300Y-50500D02*
X66500Y-50500D01*
X64700Y-51100D02*
X65300Y-50500D01*
X64100Y-52000D02*
X64300Y-51800D01*
G54D24*
X37870Y-51980D02*
X37863Y-51980D01*
X48041Y-30400D02*
X48866Y-31224D01*
X45930Y-30400D02*
X48041Y-30400D01*
X45890Y-30360D02*
X45930Y-30400D01*
X45090Y-32030D02*
X45260Y-32200D01*
X43379Y-32030D02*
X45090Y-32030D01*
X42980Y-32430D02*
X43379Y-32030D01*
X36309Y-36470D02*
X40190Y-32590D01*
X36309Y-50426D02*
X36309Y-36470D01*
X37863Y-51980D02*
X36309Y-50426D01*
G54D25*
X42625Y-25866D02*
X42333Y-25866D01*
X43241Y-27600D02*
X43866Y-28224D01*
X42900Y-27600D02*
X43241Y-27600D01*
X42100Y-26800D02*
X42900Y-27600D01*
X42100Y-26100D02*
X42100Y-26800D01*
X42333Y-25866D02*
X42100Y-26100D01*
X42625Y-26653D02*
X43294Y-26653D01*
X43294Y-26653D02*
X44866Y-28224D01*
G54D24*
X47700Y-25700D02*
X47700Y-25500D01*
X49240Y-24700D02*
X49925Y-24015D01*
X48500Y-24700D02*
X49240Y-24700D01*
X47700Y-25500D02*
X48500Y-24700D01*
X47866Y-28224D02*
X47866Y-27433D01*
X48200Y-26200D02*
X47700Y-25700D01*
X48200Y-27100D02*
X48200Y-26200D01*
X47866Y-27433D02*
X48200Y-27100D01*
X47700Y-26700D02*
X47300Y-26700D01*
X48240Y-24700D02*
X48925Y-24015D01*
X47900Y-24700D02*
X48240Y-24700D01*
X47100Y-25500D02*
X47900Y-24700D01*
X47100Y-26500D02*
X47100Y-25500D01*
X47300Y-26700D02*
X47100Y-26500D01*
X46866Y-28224D02*
X46866Y-27533D01*
X46866Y-27533D02*
X47700Y-26700D01*
X37870Y-52980D02*
X37640Y-52980D01*
X47690Y-29720D02*
X47890Y-29520D01*
X41840Y-29720D02*
X47690Y-29720D01*
X41240Y-30320D02*
X41840Y-29720D01*
X36149Y-34630D02*
X40350Y-30430D01*
X36149Y-51489D02*
X36149Y-34630D01*
X37640Y-52980D02*
X36149Y-51489D01*
G54D26*
X46015Y-35555D02*
X46015Y-36267D01*
X44094Y-38188D02*
X44094Y-41830D01*
X46015Y-36267D02*
X44094Y-38188D01*
X47015Y-35555D02*
X47015Y-36385D01*
X49212Y-38582D02*
X49212Y-41830D01*
X47015Y-36385D02*
X49212Y-38582D01*
X48015Y-35555D02*
X48015Y-36795D01*
X53937Y-41141D02*
X53937Y-41830D01*
X51377Y-41141D02*
X53937Y-41141D01*
X49606Y-39370D02*
X51377Y-41141D01*
X49606Y-38385D02*
X49606Y-39370D01*
X48015Y-36795D02*
X49606Y-38385D01*
X49015Y-35555D02*
X49015Y-36023D01*
X58661Y-41535D02*
X58661Y-41830D01*
X58070Y-40944D02*
X58661Y-41535D01*
X55118Y-40944D02*
X58070Y-40944D01*
X54133Y-39960D02*
X55118Y-40944D01*
X54133Y-39370D02*
X54133Y-39960D01*
X52952Y-38188D02*
X54133Y-39370D01*
X51181Y-38188D02*
X52952Y-38188D01*
X49015Y-36023D02*
X51181Y-38188D01*
G54D24*
X46456Y-43381D02*
X50451Y-43381D01*
X64999Y-48799D02*
X66200Y-50000D01*
X64999Y-45058D02*
X64999Y-48799D01*
X64091Y-44150D02*
X64999Y-45058D01*
X59930Y-44150D02*
X64091Y-44150D01*
X59830Y-44050D02*
X59930Y-44150D01*
X51120Y-44050D02*
X59830Y-44050D01*
X50451Y-43381D02*
X51120Y-44050D01*
X51574Y-43381D02*
X55421Y-43381D01*
X65159Y-47959D02*
X66200Y-49000D01*
X65159Y-44992D02*
X65159Y-47959D01*
X64157Y-43990D02*
X65159Y-44992D01*
X60140Y-43990D02*
X64157Y-43990D01*
X60040Y-43890D02*
X60140Y-43990D01*
X55930Y-43890D02*
X60040Y-43890D01*
X55421Y-43381D02*
X55930Y-43890D01*
X56299Y-43381D02*
X60141Y-43381D01*
X65319Y-47119D02*
X66200Y-48000D01*
X65319Y-44926D02*
X65319Y-47119D01*
X64223Y-43830D02*
X65319Y-44926D01*
X60590Y-43830D02*
X64223Y-43830D01*
X60141Y-43381D02*
X60590Y-43830D01*
X61023Y-43381D02*
X64001Y-43381D01*
X65480Y-46280D02*
X66200Y-47000D01*
X65480Y-44860D02*
X65480Y-46280D01*
X64001Y-43381D02*
X65480Y-44860D01*
X46456Y-52830D02*
X50529Y-52830D01*
X67050Y-51850D02*
X66200Y-51000D01*
X67050Y-54240D02*
X67050Y-51850D01*
X66730Y-54560D02*
X67050Y-54240D01*
X61580Y-54560D02*
X66730Y-54560D01*
X60010Y-52990D02*
X61580Y-54560D01*
X57690Y-52990D02*
X60010Y-52990D01*
X57430Y-53250D02*
X57690Y-52990D01*
X55510Y-53250D02*
X57430Y-53250D01*
X55440Y-53180D02*
X55510Y-53250D01*
X54961Y-52381D02*
X55100Y-52520D01*
X50978Y-52381D02*
X54961Y-52381D01*
X50529Y-52830D02*
X50978Y-52381D01*
X51574Y-52830D02*
X55569Y-52830D01*
X65690Y-51490D02*
X66200Y-52000D01*
X62470Y-51490D02*
X65690Y-51490D01*
X61770Y-52189D02*
X62470Y-51490D01*
X60183Y-52189D02*
X61770Y-52189D01*
X59703Y-52670D02*
X60183Y-52189D01*
X56970Y-52670D02*
X59703Y-52670D01*
X56680Y-52381D02*
X56970Y-52670D01*
X56018Y-52381D02*
X56680Y-52381D01*
X55569Y-52830D02*
X56018Y-52381D01*
X56299Y-52830D02*
X59769Y-52830D01*
X65690Y-52490D02*
X66200Y-53000D01*
X62350Y-52490D02*
X65690Y-52490D01*
X62210Y-52350D02*
X62350Y-52490D01*
X60250Y-52350D02*
X62210Y-52350D01*
X59769Y-52830D02*
X60250Y-52350D01*
X61023Y-52830D02*
X61023Y-52833D01*
X65700Y-53500D02*
X66200Y-54000D01*
X61690Y-53500D02*
X65700Y-53500D01*
X61023Y-52833D02*
X61690Y-53500D01*
X44500Y-34400D02*
X50000Y-34400D01*
X44100Y-34800D02*
X44500Y-34400D01*
X41200Y-34800D02*
X44100Y-34800D01*
X39362Y-34400D02*
X40000Y-34400D01*
X36831Y-36931D02*
X39362Y-34400D01*
X36831Y-37268D02*
X36831Y-36931D01*
X36800Y-37300D02*
X36831Y-37268D01*
X36800Y-37900D02*
X36800Y-37300D01*
X36800Y-45500D02*
X36800Y-37900D01*
X37000Y-45700D02*
X36800Y-45500D01*
X48700Y-25700D02*
X48900Y-25700D01*
X48900Y-25700D02*
X50000Y-26800D01*
X50000Y-26800D02*
X50000Y-29500D01*
X50000Y-30300D02*
X50015Y-30315D01*
X50015Y-30315D02*
X50015Y-32555D01*
X37870Y-47980D02*
X39550Y-47980D01*
X62430Y-48000D02*
X63200Y-48000D01*
X61660Y-47230D02*
X62430Y-48000D01*
X43349Y-47230D02*
X61660Y-47230D01*
X43040Y-47540D02*
X43349Y-47230D01*
X39550Y-47980D02*
X40030Y-47500D01*
X37870Y-46980D02*
X37410Y-46980D01*
X41300Y-34400D02*
X43200Y-34400D01*
X41200Y-34300D02*
X41300Y-34400D01*
X39736Y-33800D02*
X40100Y-33800D01*
X36630Y-36906D02*
X39736Y-33800D01*
X36630Y-46200D02*
X36630Y-36906D01*
X37410Y-46980D02*
X36630Y-46200D01*
X37870Y-46980D02*
X39690Y-46980D01*
X63129Y-47070D02*
X63200Y-47000D01*
X43059Y-47070D02*
X63129Y-47070D01*
X43040Y-47090D02*
X43059Y-47070D01*
X39830Y-46840D02*
X39980Y-46840D01*
X39690Y-46980D02*
X39830Y-46840D01*
G54D27*
X44866Y-31224D02*
X44866Y-30330D01*
X44866Y-30330D02*
X45275Y-29921D01*
X45275Y-29921D02*
X50393Y-29921D01*
X50393Y-29921D02*
X51015Y-30543D01*
X51015Y-30543D02*
X51015Y-32555D01*
G54D24*
X63200Y-51000D02*
X63600Y-51000D01*
X42348Y-34048D02*
X42100Y-33800D01*
X53848Y-34048D02*
X42348Y-34048D01*
X57900Y-38100D02*
X53848Y-34048D01*
X57900Y-39000D02*
X57900Y-38100D01*
X60300Y-41400D02*
X57900Y-39000D01*
X60300Y-41800D02*
X60300Y-41400D01*
X61500Y-43000D02*
X60300Y-41800D01*
X61989Y-44310D02*
X61800Y-44500D01*
X64024Y-44310D02*
X61989Y-44310D01*
X64800Y-45085D02*
X64024Y-44310D01*
X64800Y-49800D02*
X64800Y-45085D01*
X63600Y-51000D02*
X64800Y-49800D01*
X37870Y-50980D02*
X37090Y-50980D01*
X46220Y-31870D02*
X46866Y-31224D01*
X43020Y-31870D02*
X46220Y-31870D01*
X42040Y-32850D02*
X43020Y-31870D01*
X36470Y-36840D02*
X40130Y-33180D01*
X36470Y-50360D02*
X36470Y-36840D01*
X37090Y-50980D02*
X36470Y-50360D01*
X37870Y-45980D02*
X37870Y-45570D01*
X48660Y-34560D02*
X48800Y-34700D01*
X45000Y-34560D02*
X48660Y-34560D01*
X44560Y-35000D02*
X45000Y-34560D01*
X44179Y-35000D02*
X44560Y-35000D01*
X44139Y-34960D02*
X44179Y-35000D01*
X41739Y-34960D02*
X44139Y-34960D01*
X41400Y-35300D02*
X41739Y-34960D01*
X39088Y-34900D02*
X39900Y-34900D01*
X37144Y-36844D02*
X39088Y-34900D01*
X37144Y-37255D02*
X37144Y-36844D01*
X36960Y-37439D02*
X37144Y-37255D01*
X36960Y-44660D02*
X36960Y-37439D01*
X37870Y-45570D02*
X36960Y-44660D01*
X49015Y-32555D02*
X49015Y-32284D01*
X49015Y-32284D02*
X49500Y-31800D01*
X49500Y-31800D02*
X49500Y-30300D01*
X49500Y-29500D02*
X49500Y-27700D01*
X49500Y-27700D02*
X48712Y-26912D01*
X48712Y-26912D02*
X48712Y-26771D01*
X37870Y-45980D02*
X38430Y-45980D01*
X62290Y-46910D02*
X63200Y-46000D01*
X43410Y-46910D02*
X62290Y-46910D01*
X43000Y-46500D02*
X43410Y-46910D01*
X38930Y-46480D02*
X42110Y-46480D01*
X38430Y-45980D02*
X38930Y-46480D01*
X40870Y-49980D02*
X41050Y-49980D01*
X45896Y-50940D02*
X46456Y-51500D01*
X43160Y-50940D02*
X45896Y-50940D01*
X43000Y-51100D02*
X43160Y-50940D01*
X41050Y-49980D02*
X42180Y-51110D01*
X40870Y-48980D02*
X40980Y-48980D01*
X50854Y-50779D02*
X51574Y-51500D01*
X43169Y-50779D02*
X50854Y-50779D01*
X43020Y-50630D02*
X43169Y-50779D01*
X42200Y-50200D02*
X42200Y-50640D01*
X40980Y-48980D02*
X42200Y-50200D01*
X45180Y-50619D02*
X55419Y-50619D01*
X41160Y-47980D02*
X42210Y-49030D01*
X42210Y-49030D02*
X42210Y-49710D01*
X43020Y-49810D02*
X43829Y-50619D01*
X43829Y-50619D02*
X45180Y-50619D01*
X40870Y-47980D02*
X41160Y-47980D01*
X55419Y-50619D02*
X56299Y-51500D01*
X40870Y-46980D02*
X41060Y-46980D01*
X59983Y-50459D02*
X61023Y-51500D01*
X43896Y-50459D02*
X59983Y-50459D01*
X43473Y-50036D02*
X43896Y-50459D01*
X43473Y-48943D02*
X43473Y-50036D01*
X43010Y-48480D02*
X43473Y-48943D01*
X42180Y-48100D02*
X42180Y-48540D01*
X41060Y-46980D02*
X42180Y-48100D01*
G54D25*
X45925Y-24874D02*
X45925Y-24015D01*
X45900Y-24900D02*
X45925Y-24874D01*
X46400Y-25800D02*
X46200Y-25600D01*
X46400Y-29300D02*
X46400Y-25800D01*
X46300Y-29400D02*
X46400Y-29300D01*
G54D24*
X58161Y-53937D02*
X58161Y-54421D01*
X59570Y-55830D02*
X61023Y-55830D01*
X58161Y-54421D02*
X59570Y-55830D01*
X53437Y-53937D02*
X53437Y-54421D01*
X54846Y-55830D02*
X56299Y-55830D01*
X53437Y-54421D02*
X54846Y-55830D01*
X48712Y-53937D02*
X48712Y-54814D01*
X49728Y-55830D02*
X51574Y-55830D01*
X48712Y-54814D02*
X49728Y-55830D01*
X43594Y-53937D02*
X43594Y-54421D01*
X45003Y-55830D02*
X46456Y-55830D01*
X43594Y-54421D02*
X45003Y-55830D01*
G54D26*
X58161Y-44881D02*
X58161Y-45169D01*
X59374Y-46381D02*
X61023Y-46381D01*
X58161Y-45169D02*
X59374Y-46381D01*
X53437Y-44881D02*
X53437Y-45169D01*
X54649Y-46381D02*
X56299Y-46381D01*
X53437Y-45169D02*
X54649Y-46381D01*
X48712Y-44881D02*
X48712Y-45366D01*
X49728Y-46381D02*
X51574Y-46381D01*
X48712Y-45366D02*
X49728Y-46381D01*
X44263Y-49744D02*
X45212Y-49744D01*
X45212Y-49744D02*
X46456Y-48500D01*
X49381Y-49744D02*
X50330Y-49744D01*
X50330Y-49744D02*
X51574Y-48500D01*
X54105Y-49744D02*
X55055Y-49744D01*
X55055Y-49744D02*
X56299Y-48500D01*
X58830Y-49744D02*
X59779Y-49744D01*
X59779Y-49744D02*
X61023Y-48500D01*
X43594Y-44881D02*
X43594Y-45366D01*
X44610Y-46381D02*
X46456Y-46381D01*
X43594Y-45366D02*
X44610Y-46381D01*
X45800Y-58342D02*
X42642Y-58342D01*
X42200Y-57900D02*
X42200Y-57200D01*
X42642Y-58342D02*
X42200Y-57900D01*
G54D25*
X46925Y-24015D02*
X46925Y-24374D01*
X41153Y-26653D02*
X41625Y-26653D01*
X40800Y-26300D02*
X41153Y-26653D01*
X40800Y-25400D02*
X40800Y-26300D01*
X41100Y-25100D02*
X40800Y-25400D01*
X42800Y-25100D02*
X41100Y-25100D01*
X43300Y-25600D02*
X42800Y-25100D01*
X45700Y-25600D02*
X43300Y-25600D01*
X46925Y-24374D02*
X45700Y-25600D01*
G54D28*
X63200Y-49000D02*
X63400Y-49000D01*
X64500Y-47900D02*
X64500Y-46300D01*
X63400Y-49000D02*
X64500Y-47900D01*
X63200Y-50000D02*
X63200Y-49000D01*
X58830Y-51594D02*
X60094Y-51594D01*
X62300Y-50900D02*
X63200Y-50000D01*
X62300Y-51089D02*
X62300Y-50900D01*
X61400Y-51989D02*
X62300Y-51089D01*
X60489Y-51989D02*
X61400Y-51989D01*
X60094Y-51594D02*
X60489Y-51989D01*
G54D29*
X41212Y-45966D02*
X41829Y-45966D01*
X46015Y-32555D02*
X47015Y-32555D01*
X40748Y-33267D02*
X45303Y-33267D01*
X45303Y-33267D02*
X46015Y-32555D01*
X41625Y-26653D02*
X41625Y-28255D01*
X40748Y-29133D02*
X40748Y-33267D01*
X40748Y-33267D02*
X40748Y-33342D01*
X41625Y-28255D02*
X40748Y-29133D01*
X42519Y-43897D02*
X42322Y-43897D01*
X40748Y-33342D02*
X42866Y-31224D01*
X40748Y-42322D02*
X40748Y-33342D01*
X42322Y-43897D02*
X40748Y-42322D01*
X42519Y-45275D02*
X42519Y-43897D01*
X43700Y-42716D02*
X44685Y-42716D01*
X42519Y-43897D02*
X43700Y-42716D01*
X41829Y-45966D02*
X42519Y-45275D01*
X42519Y-45275D02*
X42594Y-45200D01*
G54D26*
X53538Y-52161D02*
X58263Y-52161D01*
X58263Y-52161D02*
X58830Y-51594D01*
X48814Y-52161D02*
X53538Y-52161D01*
X53538Y-52161D02*
X54105Y-51594D01*
X44263Y-51594D02*
X45098Y-51594D01*
X48810Y-52165D02*
X48814Y-52161D01*
X48814Y-52161D02*
X49381Y-51594D01*
X45669Y-52165D02*
X48810Y-52165D01*
X45098Y-51594D02*
X45669Y-52165D01*
X42594Y-51771D02*
X44085Y-51771D01*
X44085Y-51771D02*
X44263Y-51594D01*
X54724Y-42716D02*
X59251Y-42716D01*
X59251Y-42716D02*
X59645Y-42322D01*
X59645Y-42322D02*
X59645Y-41830D01*
X49803Y-42716D02*
X54724Y-42716D01*
X54921Y-42519D02*
X54921Y-41830D01*
X54724Y-42716D02*
X54921Y-42519D01*
X44685Y-42716D02*
X49803Y-42716D01*
X50196Y-42322D02*
X50196Y-41830D01*
X49803Y-42716D02*
X50196Y-42322D01*
X45078Y-42322D02*
X45078Y-41830D01*
X44685Y-42716D02*
X45078Y-42322D01*
X42594Y-56299D02*
X42594Y-51771D01*
X42594Y-51771D02*
X42594Y-45200D01*
X42594Y-45200D02*
X42594Y-44956D01*
X50590Y-58342D02*
X55437Y-58342D01*
X57161Y-56618D02*
X57161Y-56299D01*
X55437Y-58342D02*
X57161Y-56618D01*
X45669Y-58342D02*
X45800Y-58342D01*
X45800Y-58342D02*
X50590Y-58342D01*
X50590Y-58342D02*
X50712Y-58342D01*
X52437Y-56618D02*
X52437Y-56299D01*
X50712Y-58342D02*
X52437Y-56618D01*
X42594Y-56299D02*
X42594Y-56421D01*
X45669Y-58342D02*
X47712Y-56299D01*
M02*
