G04 (created by PCBNEW (2013-07-07 BZR 4022)-stable) date 05/09/2014 18:07:36*
%MOIN*%
G04 Gerber Fmt 3.4, Leading zero omitted, Abs format*
%FSLAX34Y34*%
G01*
G70*
G90*
G04 APERTURE LIST*
%ADD10C,0.00590551*%
%ADD11C,0.06*%
%ADD12C,0.1063*%
%ADD13C,0.0787402*%
%ADD14C,0.08*%
%ADD15C,0.055*%
%ADD16R,0.0787402X0.102362*%
%ADD17R,0.062X0.09*%
%ADD18O,0.062X0.09*%
%ADD19R,0.06X0.06*%
%ADD20R,0.09X0.062*%
%ADD21O,0.09X0.062*%
%ADD22C,0.066*%
%ADD23C,0.035*%
%ADD24C,0.008*%
%ADD25C,0.01*%
%ADD26C,0.02*%
%ADD27C,0.016*%
G04 APERTURE END LIST*
G54D10*
G54D11*
X41625Y-26653D03*
X42625Y-26653D03*
X42625Y-25866D03*
X41625Y-25866D03*
G54D12*
X39763Y-24803D03*
X44487Y-24803D03*
G54D13*
X48215Y-57376D03*
X50577Y-57376D03*
X48215Y-59148D03*
X50577Y-59148D03*
X52915Y-57376D03*
X55277Y-57376D03*
X52915Y-59148D03*
X55277Y-59148D03*
X57677Y-57381D03*
X60039Y-57381D03*
X57677Y-59153D03*
X60039Y-59153D03*
X43110Y-57381D03*
X45472Y-57381D03*
X43110Y-59153D03*
X45472Y-59153D03*
G54D14*
X44263Y-51594D03*
X44263Y-49744D03*
X44263Y-47894D03*
X49381Y-51594D03*
X49381Y-49744D03*
X49381Y-47894D03*
X54105Y-51594D03*
X54105Y-49744D03*
X54105Y-47894D03*
X58830Y-51594D03*
X58830Y-49744D03*
X58830Y-47894D03*
G54D15*
X51574Y-51500D03*
X51574Y-48500D03*
X45594Y-56299D03*
X42594Y-56299D03*
X60161Y-56299D03*
X57161Y-56299D03*
X55437Y-56299D03*
X52437Y-56299D03*
X50712Y-56299D03*
X47712Y-56299D03*
X61023Y-51500D03*
X61023Y-48500D03*
X56299Y-51500D03*
X56299Y-48500D03*
X46456Y-51500D03*
X46456Y-48500D03*
G54D10*
G36*
X57322Y-42106D02*
X57401Y-41555D01*
X57952Y-41555D01*
X58031Y-42106D01*
X57322Y-42106D01*
X57322Y-42106D01*
G37*
G36*
X58307Y-42106D02*
X58385Y-41555D01*
X58937Y-41555D01*
X59015Y-42106D01*
X58307Y-42106D01*
X58307Y-42106D01*
G37*
G36*
X59291Y-42106D02*
X59370Y-41555D01*
X59921Y-41555D01*
X60000Y-42106D01*
X59291Y-42106D01*
X59291Y-42106D01*
G37*
G54D16*
X56988Y-38976D03*
X60236Y-39074D03*
G54D10*
G36*
X52598Y-42106D02*
X52677Y-41555D01*
X53228Y-41555D01*
X53307Y-42106D01*
X52598Y-42106D01*
X52598Y-42106D01*
G37*
G36*
X53582Y-42106D02*
X53661Y-41555D01*
X54212Y-41555D01*
X54291Y-42106D01*
X53582Y-42106D01*
X53582Y-42106D01*
G37*
G36*
X54566Y-42106D02*
X54645Y-41555D01*
X55196Y-41555D01*
X55275Y-42106D01*
X54566Y-42106D01*
X54566Y-42106D01*
G37*
G54D16*
X52263Y-38976D03*
X55511Y-39074D03*
G54D10*
G36*
X47874Y-42106D02*
X47952Y-41555D01*
X48503Y-41555D01*
X48582Y-42106D01*
X47874Y-42106D01*
X47874Y-42106D01*
G37*
G36*
X48858Y-42106D02*
X48937Y-41555D01*
X49488Y-41555D01*
X49566Y-42106D01*
X48858Y-42106D01*
X48858Y-42106D01*
G37*
G36*
X49842Y-42106D02*
X49921Y-41555D01*
X50472Y-41555D01*
X50551Y-42106D01*
X49842Y-42106D01*
X49842Y-42106D01*
G37*
G54D16*
X47539Y-38976D03*
X50787Y-39074D03*
G54D10*
G36*
X42755Y-42106D02*
X42834Y-41555D01*
X43385Y-41555D01*
X43464Y-42106D01*
X42755Y-42106D01*
X42755Y-42106D01*
G37*
G36*
X43740Y-42106D02*
X43818Y-41555D01*
X44370Y-41555D01*
X44448Y-42106D01*
X43740Y-42106D01*
X43740Y-42106D01*
G37*
G36*
X44724Y-42106D02*
X44803Y-41555D01*
X45354Y-41555D01*
X45433Y-42106D01*
X44724Y-42106D01*
X44724Y-42106D01*
G37*
G54D16*
X42421Y-38976D03*
X45669Y-39074D03*
G54D17*
X42866Y-31224D03*
G54D18*
X43866Y-31224D03*
X44866Y-31224D03*
X45866Y-31224D03*
X46866Y-31224D03*
X47866Y-31224D03*
X48866Y-31224D03*
X48866Y-28224D03*
X47866Y-28224D03*
X46866Y-28224D03*
X45866Y-28224D03*
X44866Y-28224D03*
X43866Y-28224D03*
X42866Y-28224D03*
G54D19*
X50925Y-24015D03*
G54D11*
X49925Y-24015D03*
X48925Y-24015D03*
X47925Y-24015D03*
X46925Y-24015D03*
X45925Y-24015D03*
G54D19*
X48700Y-26700D03*
G54D11*
X47700Y-26700D03*
G54D19*
X48700Y-25700D03*
G54D11*
X47700Y-25700D03*
G54D17*
X46015Y-35555D03*
G54D18*
X47015Y-35555D03*
X48015Y-35555D03*
X49015Y-35555D03*
X50015Y-35555D03*
X51015Y-35555D03*
X52015Y-35555D03*
X52015Y-32555D03*
X51015Y-32555D03*
X50015Y-32555D03*
X49015Y-32555D03*
X48015Y-32555D03*
X47015Y-32555D03*
X46015Y-32555D03*
G54D20*
X37870Y-45980D03*
G54D21*
X37870Y-46980D03*
X37870Y-47980D03*
X37870Y-48980D03*
X37870Y-49980D03*
X37870Y-50980D03*
X37870Y-51980D03*
X37870Y-52980D03*
X37870Y-53980D03*
X40870Y-53980D03*
X40870Y-52980D03*
X40870Y-51980D03*
X40870Y-50980D03*
X40870Y-49980D03*
X40870Y-48980D03*
X40870Y-47980D03*
X40870Y-46980D03*
X40870Y-45980D03*
G54D15*
X46456Y-43381D03*
X46456Y-46381D03*
X51574Y-43381D03*
X51574Y-46381D03*
X56299Y-43381D03*
X56299Y-46381D03*
X61023Y-43381D03*
X61023Y-46381D03*
X46456Y-52830D03*
X46456Y-55830D03*
X51574Y-52830D03*
X51574Y-55830D03*
X56299Y-52830D03*
X56299Y-55830D03*
X61023Y-52830D03*
X61023Y-55830D03*
G54D22*
X58161Y-53937D03*
X59161Y-53937D03*
X53437Y-53937D03*
X54437Y-53937D03*
X48712Y-53937D03*
X49712Y-53937D03*
X43594Y-53937D03*
X44594Y-53937D03*
X58161Y-44881D03*
X59161Y-44881D03*
X53437Y-44881D03*
X54437Y-44881D03*
X48712Y-44881D03*
X49712Y-44881D03*
X43594Y-44881D03*
X44594Y-44881D03*
G54D20*
X63200Y-46000D03*
G54D21*
X63200Y-47000D03*
X63200Y-48000D03*
X63200Y-49000D03*
X63200Y-50000D03*
X63200Y-51000D03*
X63200Y-52000D03*
X63200Y-53000D03*
X63200Y-54000D03*
X66200Y-54000D03*
X66200Y-53000D03*
X66200Y-52000D03*
X66200Y-51000D03*
X66200Y-50000D03*
X66200Y-49000D03*
X66200Y-48000D03*
X66200Y-47000D03*
X66200Y-46000D03*
G54D23*
X54810Y-56750D03*
X49850Y-55480D03*
X49200Y-55760D03*
X43010Y-52250D03*
X42190Y-52230D03*
X50150Y-56730D03*
X42980Y-52680D03*
X42200Y-52700D03*
X42140Y-53150D03*
X42990Y-53220D03*
X50300Y-28300D03*
X52700Y-31600D03*
X64700Y-51100D03*
X64300Y-51800D03*
X45890Y-30360D03*
X45260Y-32200D03*
X42980Y-32430D03*
X40190Y-32590D03*
X47890Y-29520D03*
X41240Y-30320D03*
X40350Y-30430D03*
X55440Y-53180D03*
X55100Y-52520D03*
X50000Y-34400D03*
X41200Y-34800D03*
X40000Y-34400D03*
X37000Y-45700D03*
X50000Y-29500D03*
X50000Y-30300D03*
X43040Y-47540D03*
X40030Y-47500D03*
X43200Y-34400D03*
X41200Y-34300D03*
X40100Y-33800D03*
X43040Y-47090D03*
X39980Y-46840D03*
X42100Y-33800D03*
X61500Y-43000D03*
X61800Y-44500D03*
X42040Y-32850D03*
X40130Y-33180D03*
X48800Y-34700D03*
X41400Y-35300D03*
X39900Y-34900D03*
X49500Y-30300D03*
X49500Y-29500D03*
X43000Y-46500D03*
X42110Y-46480D03*
X43000Y-51100D03*
X42180Y-51110D03*
X43020Y-50630D03*
X42200Y-50640D03*
X42210Y-49710D03*
X43020Y-49810D03*
X43010Y-48480D03*
X42180Y-48540D03*
X45900Y-24900D03*
X46200Y-25600D03*
X46300Y-29400D03*
X42200Y-57200D03*
X64500Y-46300D03*
G54D24*
X57055Y-56760D02*
X57677Y-57381D01*
X54820Y-56760D02*
X57055Y-56760D01*
X54810Y-56750D02*
X54820Y-56760D01*
X49480Y-55480D02*
X49850Y-55480D01*
X49200Y-55760D02*
X49480Y-55480D01*
X42210Y-52250D02*
X43010Y-52250D01*
X42190Y-52230D02*
X42210Y-52250D01*
X52330Y-56760D02*
X52952Y-57381D01*
X50180Y-56760D02*
X52330Y-56760D01*
X50150Y-56730D02*
X50180Y-56760D01*
X42220Y-52680D02*
X42980Y-52680D01*
X42200Y-52700D02*
X42220Y-52680D01*
X42920Y-53150D02*
X42140Y-53150D01*
X42990Y-53220D02*
X42920Y-53150D01*
X50224Y-28224D02*
X48866Y-28224D01*
X50300Y-28300D02*
X50224Y-28224D01*
G54D25*
X52324Y-31224D02*
X48866Y-31224D01*
X52700Y-31600D02*
X52324Y-31224D01*
X64700Y-51400D02*
X64700Y-51100D01*
X64300Y-51800D02*
X64700Y-51400D01*
G54D24*
X45690Y-30360D02*
X45890Y-30360D01*
X45360Y-30690D02*
X45690Y-30360D01*
X45360Y-32100D02*
X45360Y-30690D01*
X45260Y-32200D02*
X45360Y-32100D01*
X40350Y-32430D02*
X42980Y-32430D01*
X40190Y-32590D02*
X40350Y-32430D01*
X47866Y-29543D02*
X47866Y-31224D01*
X47890Y-29520D02*
X47866Y-29543D01*
X40460Y-30320D02*
X41240Y-30320D01*
X40350Y-30430D02*
X40460Y-30320D01*
X55400Y-53140D02*
X55440Y-53180D01*
X55400Y-52820D02*
X55400Y-53140D01*
X55100Y-52520D02*
X55400Y-52820D01*
X37870Y-47980D02*
X37580Y-47980D01*
X50015Y-34384D02*
X50015Y-32555D01*
X50000Y-34400D02*
X50015Y-34384D01*
X40400Y-34800D02*
X41200Y-34800D01*
X40000Y-34400D02*
X40400Y-34800D01*
X37000Y-47400D02*
X37000Y-45700D01*
X37580Y-47980D02*
X37000Y-47400D01*
X50000Y-29500D02*
X50000Y-30300D01*
X42980Y-47480D02*
X43040Y-47540D01*
X40050Y-47480D02*
X42980Y-47480D01*
X40030Y-47500D02*
X40050Y-47480D01*
X44866Y-32733D02*
X44866Y-31224D01*
X43200Y-34400D02*
X44866Y-32733D01*
X40600Y-34300D02*
X41200Y-34300D01*
X40100Y-33800D02*
X40600Y-34300D01*
X42110Y-47090D02*
X43040Y-47090D01*
X41490Y-46470D02*
X42110Y-47090D01*
X40350Y-46470D02*
X41490Y-46470D01*
X39980Y-46840D02*
X40350Y-46470D01*
X42040Y-33740D02*
X42040Y-32850D01*
X42100Y-33800D02*
X42040Y-33740D01*
X61500Y-44200D02*
X61500Y-43000D01*
X61800Y-44500D02*
X61500Y-44200D01*
X40460Y-32850D02*
X42040Y-32850D01*
X40130Y-33180D02*
X40460Y-32850D01*
X49015Y-34484D02*
X49015Y-32555D01*
X48800Y-34700D02*
X49015Y-34484D01*
X40300Y-35300D02*
X41400Y-35300D01*
X39900Y-34900D02*
X40300Y-35300D01*
X49500Y-30300D02*
X49500Y-29500D01*
X42130Y-46500D02*
X43000Y-46500D01*
X42110Y-46480D02*
X42130Y-46500D01*
X42190Y-51100D02*
X43000Y-51100D01*
X42180Y-51110D02*
X42190Y-51100D01*
X42210Y-50630D02*
X43020Y-50630D01*
X42200Y-50640D02*
X42210Y-50630D01*
X42210Y-49710D02*
X42310Y-49810D01*
X42310Y-49810D02*
X43020Y-49810D01*
X42240Y-48480D02*
X43010Y-48480D01*
X42180Y-48540D02*
X42240Y-48480D01*
G54D25*
X45866Y-31224D02*
X45866Y-30933D01*
X45900Y-25300D02*
X45900Y-24900D01*
X46200Y-25600D02*
X45900Y-25300D01*
X46300Y-30500D02*
X46300Y-29400D01*
X45866Y-30933D02*
X46300Y-30500D01*
G54D26*
X57677Y-41830D02*
X56791Y-41830D01*
X56791Y-41830D02*
X56692Y-41929D01*
X52952Y-41830D02*
X52263Y-41830D01*
X52263Y-41830D02*
X52165Y-41929D01*
X48228Y-41830D02*
X47539Y-41830D01*
X47539Y-41830D02*
X47440Y-41732D01*
X43110Y-41830D02*
X42421Y-41830D01*
X42421Y-41830D02*
X42322Y-41929D01*
X42594Y-56805D02*
X42594Y-56299D01*
X42200Y-57200D02*
X42594Y-56805D01*
G54D27*
X64800Y-46000D02*
X66200Y-46000D01*
X64500Y-46300D02*
X64800Y-46000D01*
G54D10*
G36*
X67446Y-55006D02*
X66913Y-55539D01*
X66913Y-54000D01*
X66871Y-53785D01*
X66749Y-53604D01*
X66594Y-53500D01*
X66749Y-53395D01*
X66871Y-53214D01*
X66913Y-53000D01*
X66871Y-52785D01*
X66749Y-52604D01*
X66594Y-52500D01*
X66749Y-52395D01*
X66871Y-52214D01*
X66913Y-52000D01*
X66871Y-51785D01*
X66749Y-51604D01*
X66594Y-51500D01*
X66749Y-51395D01*
X66871Y-51214D01*
X66913Y-51000D01*
X66871Y-50785D01*
X66749Y-50604D01*
X66594Y-50499D01*
X66749Y-50395D01*
X66871Y-50214D01*
X66913Y-50000D01*
X66871Y-49785D01*
X66749Y-49604D01*
X66594Y-49499D01*
X66749Y-49395D01*
X66871Y-49214D01*
X66913Y-49000D01*
X66871Y-48785D01*
X66749Y-48604D01*
X66594Y-48499D01*
X66749Y-48395D01*
X66871Y-48214D01*
X66913Y-48000D01*
X66871Y-47785D01*
X66749Y-47604D01*
X66594Y-47499D01*
X66749Y-47395D01*
X66871Y-47214D01*
X66913Y-47000D01*
X66871Y-46785D01*
X66749Y-46604D01*
X66594Y-46499D01*
X66749Y-46395D01*
X66871Y-46214D01*
X66913Y-46000D01*
X66871Y-45785D01*
X66749Y-45604D01*
X66568Y-45482D01*
X66353Y-45440D01*
X66046Y-45440D01*
X65831Y-45482D01*
X65650Y-45604D01*
X65606Y-45670D01*
X64800Y-45670D01*
X64799Y-45670D01*
X64774Y-45674D01*
X64673Y-45695D01*
X64566Y-45766D01*
X64566Y-45766D01*
X64458Y-45874D01*
X64415Y-45874D01*
X64259Y-45939D01*
X64139Y-46058D01*
X64075Y-46215D01*
X64074Y-46384D01*
X64139Y-46540D01*
X64258Y-46660D01*
X64415Y-46724D01*
X64584Y-46725D01*
X64740Y-46660D01*
X64860Y-46541D01*
X64924Y-46384D01*
X64924Y-46341D01*
X64936Y-46330D01*
X65606Y-46330D01*
X65650Y-46395D01*
X65805Y-46499D01*
X65650Y-46604D01*
X65528Y-46785D01*
X65486Y-47000D01*
X65528Y-47214D01*
X65650Y-47395D01*
X65805Y-47499D01*
X65650Y-47604D01*
X65528Y-47785D01*
X65486Y-48000D01*
X65528Y-48214D01*
X65650Y-48395D01*
X65805Y-48499D01*
X65650Y-48604D01*
X65528Y-48785D01*
X65486Y-49000D01*
X65528Y-49214D01*
X65650Y-49395D01*
X65805Y-49499D01*
X65650Y-49604D01*
X65528Y-49785D01*
X65486Y-50000D01*
X65528Y-50214D01*
X65650Y-50395D01*
X65805Y-50499D01*
X65650Y-50604D01*
X65528Y-50785D01*
X65486Y-51000D01*
X65528Y-51214D01*
X65650Y-51395D01*
X65805Y-51500D01*
X65650Y-51604D01*
X65528Y-51785D01*
X65486Y-52000D01*
X65528Y-52214D01*
X65650Y-52395D01*
X65805Y-52500D01*
X65650Y-52604D01*
X65528Y-52785D01*
X65486Y-53000D01*
X65528Y-53214D01*
X65650Y-53395D01*
X65805Y-53500D01*
X65650Y-53604D01*
X65528Y-53785D01*
X65486Y-54000D01*
X65528Y-54214D01*
X65650Y-54395D01*
X65831Y-54517D01*
X66046Y-54560D01*
X66353Y-54560D01*
X66568Y-54517D01*
X66749Y-54395D01*
X66871Y-54214D01*
X66913Y-54000D01*
X66913Y-55539D01*
X66738Y-55714D01*
X65125Y-57328D01*
X65125Y-51015D01*
X65060Y-50859D01*
X64941Y-50739D01*
X64784Y-50675D01*
X64615Y-50674D01*
X64459Y-50739D01*
X64339Y-50858D01*
X64275Y-51015D01*
X64274Y-51184D01*
X64338Y-51337D01*
X64300Y-51375D01*
X64215Y-51374D01*
X64059Y-51439D01*
X63939Y-51558D01*
X63875Y-51715D01*
X63874Y-51805D01*
X63871Y-51785D01*
X63749Y-51604D01*
X63594Y-51500D01*
X63749Y-51395D01*
X63871Y-51214D01*
X63913Y-51000D01*
X63871Y-50785D01*
X63749Y-50604D01*
X63594Y-50499D01*
X63749Y-50395D01*
X63871Y-50214D01*
X63913Y-50000D01*
X63871Y-49785D01*
X63749Y-49604D01*
X63594Y-49499D01*
X63749Y-49395D01*
X63871Y-49214D01*
X63913Y-49000D01*
X63871Y-48785D01*
X63749Y-48604D01*
X63594Y-48499D01*
X63749Y-48395D01*
X63871Y-48214D01*
X63913Y-48000D01*
X63871Y-47785D01*
X63749Y-47604D01*
X63594Y-47499D01*
X63749Y-47395D01*
X63871Y-47214D01*
X63913Y-47000D01*
X63871Y-46785D01*
X63749Y-46604D01*
X63683Y-46560D01*
X63699Y-46560D01*
X63791Y-46522D01*
X63861Y-46451D01*
X63899Y-46359D01*
X63900Y-46260D01*
X63900Y-45640D01*
X63862Y-45548D01*
X63791Y-45478D01*
X63699Y-45440D01*
X63600Y-45439D01*
X62700Y-45439D01*
X62608Y-45477D01*
X62538Y-45548D01*
X62500Y-45640D01*
X62499Y-45739D01*
X62499Y-46359D01*
X62537Y-46451D01*
X62608Y-46521D01*
X62700Y-46559D01*
X62716Y-46559D01*
X62650Y-46604D01*
X62528Y-46785D01*
X62486Y-47000D01*
X62528Y-47214D01*
X62650Y-47395D01*
X62805Y-47499D01*
X62650Y-47604D01*
X62528Y-47785D01*
X62486Y-48000D01*
X62528Y-48214D01*
X62650Y-48395D01*
X62805Y-48499D01*
X62650Y-48604D01*
X62528Y-48785D01*
X62486Y-49000D01*
X62528Y-49214D01*
X62650Y-49395D01*
X62805Y-49499D01*
X62650Y-49604D01*
X62528Y-49785D01*
X62486Y-50000D01*
X62528Y-50214D01*
X62650Y-50395D01*
X62805Y-50499D01*
X62650Y-50604D01*
X62528Y-50785D01*
X62486Y-51000D01*
X62528Y-51214D01*
X62650Y-51395D01*
X62805Y-51500D01*
X62650Y-51604D01*
X62528Y-51785D01*
X62486Y-52000D01*
X62528Y-52214D01*
X62650Y-52395D01*
X62805Y-52500D01*
X62650Y-52604D01*
X62528Y-52785D01*
X62486Y-53000D01*
X62528Y-53214D01*
X62650Y-53395D01*
X62805Y-53499D01*
X62799Y-53501D01*
X62628Y-53639D01*
X62523Y-53831D01*
X62516Y-53863D01*
X62565Y-53950D01*
X63150Y-53950D01*
X63150Y-53942D01*
X63250Y-53942D01*
X63250Y-53950D01*
X63834Y-53950D01*
X63883Y-53863D01*
X63876Y-53831D01*
X63771Y-53639D01*
X63600Y-53501D01*
X63594Y-53499D01*
X63749Y-53395D01*
X63871Y-53214D01*
X63913Y-53000D01*
X63871Y-52785D01*
X63749Y-52604D01*
X63594Y-52500D01*
X63749Y-52395D01*
X63871Y-52214D01*
X63913Y-52000D01*
X63905Y-51957D01*
X63939Y-52040D01*
X64058Y-52160D01*
X64215Y-52224D01*
X64384Y-52225D01*
X64540Y-52160D01*
X64660Y-52041D01*
X64724Y-51884D01*
X64725Y-51799D01*
X64912Y-51612D01*
X64912Y-51612D01*
X64977Y-51514D01*
X64999Y-51401D01*
X64999Y-51401D01*
X65060Y-51341D01*
X65124Y-51184D01*
X65125Y-51015D01*
X65125Y-57328D01*
X63883Y-58570D01*
X63883Y-54136D01*
X63834Y-54050D01*
X63250Y-54050D01*
X63250Y-54560D01*
X63390Y-54560D01*
X63600Y-54498D01*
X63771Y-54360D01*
X63876Y-54168D01*
X63883Y-54136D01*
X63883Y-58570D01*
X63150Y-59303D01*
X63150Y-54560D01*
X63150Y-54050D01*
X62565Y-54050D01*
X62516Y-54136D01*
X62523Y-54168D01*
X62628Y-54360D01*
X62799Y-54498D01*
X63010Y-54560D01*
X63150Y-54560D01*
X63150Y-59303D01*
X62407Y-60045D01*
X62407Y-60045D01*
X62225Y-60228D01*
X62225Y-44415D01*
X62160Y-44259D01*
X62041Y-44139D01*
X61884Y-44075D01*
X61790Y-44074D01*
X61790Y-43311D01*
X61860Y-43241D01*
X61924Y-43084D01*
X61925Y-42915D01*
X61860Y-42759D01*
X61741Y-42639D01*
X61584Y-42575D01*
X61415Y-42574D01*
X61259Y-42639D01*
X61139Y-42758D01*
X61099Y-42856D01*
X60919Y-42856D01*
X60879Y-42873D01*
X60879Y-39537D01*
X60879Y-38513D01*
X60841Y-38421D01*
X60771Y-38351D01*
X60679Y-38313D01*
X60580Y-38312D01*
X59793Y-38312D01*
X59701Y-38350D01*
X59630Y-38421D01*
X59592Y-38513D01*
X59592Y-38612D01*
X59592Y-39636D01*
X59630Y-39728D01*
X59700Y-39798D01*
X59792Y-39836D01*
X59892Y-39836D01*
X60679Y-39836D01*
X60771Y-39798D01*
X60841Y-39728D01*
X60879Y-39636D01*
X60879Y-39537D01*
X60879Y-42873D01*
X60726Y-42936D01*
X60578Y-43084D01*
X60498Y-43277D01*
X60498Y-43485D01*
X60578Y-43678D01*
X60725Y-43826D01*
X60918Y-43906D01*
X61127Y-43906D01*
X61210Y-43872D01*
X61210Y-44200D01*
X61232Y-44310D01*
X61294Y-44405D01*
X61375Y-44485D01*
X61374Y-44584D01*
X61439Y-44740D01*
X61558Y-44860D01*
X61715Y-44924D01*
X61884Y-44925D01*
X62040Y-44860D01*
X62160Y-44741D01*
X62224Y-44584D01*
X62225Y-44415D01*
X62225Y-60228D01*
X62093Y-60360D01*
X61548Y-60360D01*
X61548Y-55726D01*
X61548Y-52726D01*
X61548Y-51396D01*
X61548Y-48396D01*
X61548Y-46277D01*
X61468Y-46084D01*
X61321Y-45937D01*
X61128Y-45856D01*
X60919Y-45856D01*
X60726Y-45936D01*
X60578Y-46084D01*
X60498Y-46277D01*
X60498Y-46485D01*
X60578Y-46678D01*
X60725Y-46826D01*
X60918Y-46906D01*
X61127Y-46906D01*
X61320Y-46827D01*
X61468Y-46679D01*
X61548Y-46486D01*
X61548Y-46277D01*
X61548Y-48396D01*
X61468Y-48203D01*
X61321Y-48055D01*
X61128Y-47975D01*
X60919Y-47974D01*
X60726Y-48054D01*
X60578Y-48202D01*
X60498Y-48395D01*
X60498Y-48603D01*
X60578Y-48797D01*
X60725Y-48944D01*
X60918Y-49024D01*
X61127Y-49025D01*
X61320Y-48945D01*
X61468Y-48797D01*
X61548Y-48604D01*
X61548Y-48396D01*
X61548Y-51396D01*
X61468Y-51203D01*
X61321Y-51055D01*
X61128Y-50975D01*
X60919Y-50974D01*
X60726Y-51054D01*
X60578Y-51202D01*
X60498Y-51395D01*
X60498Y-51603D01*
X60578Y-51797D01*
X60725Y-51944D01*
X60918Y-52024D01*
X61127Y-52025D01*
X61320Y-51945D01*
X61468Y-51797D01*
X61548Y-51604D01*
X61548Y-51396D01*
X61548Y-52726D01*
X61468Y-52533D01*
X61321Y-52385D01*
X61128Y-52305D01*
X60919Y-52305D01*
X60726Y-52385D01*
X60578Y-52532D01*
X60498Y-52725D01*
X60498Y-52934D01*
X60578Y-53127D01*
X60725Y-53275D01*
X60918Y-53355D01*
X61127Y-53355D01*
X61320Y-53276D01*
X61468Y-53128D01*
X61548Y-52935D01*
X61548Y-52726D01*
X61548Y-55726D01*
X61468Y-55533D01*
X61321Y-55385D01*
X61128Y-55305D01*
X60919Y-55305D01*
X60726Y-55385D01*
X60578Y-55532D01*
X60498Y-55725D01*
X60498Y-55893D01*
X60459Y-55854D01*
X60266Y-55774D01*
X60250Y-55774D01*
X60250Y-42056D01*
X60250Y-41505D01*
X60212Y-41413D01*
X60141Y-41343D01*
X60049Y-41305D01*
X59950Y-41305D01*
X59241Y-41305D01*
X59153Y-41341D01*
X59065Y-41305D01*
X58966Y-41305D01*
X58257Y-41305D01*
X58169Y-41341D01*
X58081Y-41305D01*
X57981Y-41305D01*
X57631Y-41305D01*
X57631Y-39438D01*
X57631Y-38415D01*
X57593Y-38323D01*
X57523Y-38252D01*
X57431Y-38214D01*
X57332Y-38214D01*
X56544Y-38214D01*
X56453Y-38252D01*
X56382Y-38322D01*
X56344Y-38414D01*
X56344Y-38514D01*
X56344Y-39537D01*
X56382Y-39629D01*
X56452Y-39700D01*
X56544Y-39738D01*
X56643Y-39738D01*
X57431Y-39738D01*
X57523Y-39700D01*
X57593Y-39629D01*
X57631Y-39538D01*
X57631Y-39438D01*
X57631Y-41305D01*
X57273Y-41305D01*
X57181Y-41343D01*
X57111Y-41413D01*
X57072Y-41505D01*
X57072Y-41604D01*
X57072Y-42155D01*
X57110Y-42247D01*
X57181Y-42318D01*
X57272Y-42356D01*
X57372Y-42356D01*
X58081Y-42356D01*
X58169Y-42319D01*
X58257Y-42356D01*
X58356Y-42356D01*
X59065Y-42356D01*
X59153Y-42319D01*
X59241Y-42356D01*
X59340Y-42356D01*
X60049Y-42356D01*
X60141Y-42318D01*
X60211Y-42248D01*
X60249Y-42156D01*
X60250Y-42056D01*
X60250Y-55774D01*
X60057Y-55774D01*
X59864Y-55853D01*
X59746Y-55972D01*
X59746Y-54025D01*
X59746Y-44970D01*
X59735Y-44740D01*
X59667Y-44575D01*
X59569Y-44544D01*
X59498Y-44615D01*
X59498Y-44474D01*
X59467Y-44375D01*
X59250Y-44297D01*
X59019Y-44307D01*
X58855Y-44375D01*
X58824Y-44474D01*
X59161Y-44811D01*
X59498Y-44474D01*
X59498Y-44615D01*
X59232Y-44881D01*
X59569Y-45218D01*
X59667Y-45187D01*
X59746Y-44970D01*
X59746Y-54025D01*
X59735Y-53795D01*
X59667Y-53631D01*
X59569Y-53600D01*
X59498Y-53670D01*
X59498Y-53529D01*
X59498Y-45289D01*
X59161Y-44952D01*
X59090Y-45023D01*
X59090Y-44881D01*
X58753Y-44544D01*
X58661Y-44573D01*
X58653Y-44553D01*
X58490Y-44390D01*
X58277Y-44301D01*
X58046Y-44301D01*
X57833Y-44389D01*
X57670Y-44552D01*
X57581Y-44766D01*
X57581Y-44996D01*
X57669Y-45210D01*
X57832Y-45373D01*
X58045Y-45461D01*
X58276Y-45461D01*
X58489Y-45373D01*
X58652Y-45210D01*
X58661Y-45189D01*
X58753Y-45218D01*
X59090Y-44881D01*
X59090Y-45023D01*
X58824Y-45289D01*
X58855Y-45387D01*
X59072Y-45466D01*
X59302Y-45456D01*
X59467Y-45387D01*
X59498Y-45289D01*
X59498Y-53529D01*
X59484Y-53485D01*
X59484Y-47999D01*
X59475Y-47741D01*
X59394Y-47546D01*
X59288Y-47506D01*
X59217Y-47577D01*
X59217Y-47435D01*
X59178Y-47330D01*
X58935Y-47239D01*
X58677Y-47249D01*
X58482Y-47330D01*
X58442Y-47435D01*
X58830Y-47823D01*
X59217Y-47435D01*
X59217Y-47577D01*
X58901Y-47894D01*
X59288Y-48281D01*
X59394Y-48242D01*
X59484Y-47999D01*
X59484Y-53485D01*
X59480Y-53472D01*
X59480Y-51465D01*
X59480Y-49615D01*
X59381Y-49376D01*
X59217Y-49212D01*
X59217Y-48352D01*
X58830Y-47964D01*
X58759Y-48035D01*
X58759Y-47894D01*
X58372Y-47506D01*
X58266Y-47546D01*
X58176Y-47788D01*
X58185Y-48046D01*
X58266Y-48242D01*
X58372Y-48281D01*
X58759Y-47894D01*
X58759Y-48035D01*
X58442Y-48352D01*
X58482Y-48458D01*
X58724Y-48548D01*
X58983Y-48538D01*
X59178Y-48458D01*
X59217Y-48352D01*
X59217Y-49212D01*
X59198Y-49193D01*
X58960Y-49094D01*
X58701Y-49093D01*
X58462Y-49192D01*
X58279Y-49375D01*
X58180Y-49614D01*
X58180Y-49872D01*
X58278Y-50111D01*
X58461Y-50294D01*
X58700Y-50393D01*
X58959Y-50394D01*
X59198Y-50295D01*
X59381Y-50112D01*
X59480Y-49873D01*
X59480Y-49615D01*
X59480Y-51465D01*
X59381Y-51226D01*
X59198Y-51043D01*
X58960Y-50944D01*
X58701Y-50943D01*
X58462Y-51042D01*
X58279Y-51225D01*
X58180Y-51464D01*
X58180Y-51722D01*
X58278Y-51961D01*
X58461Y-52144D01*
X58700Y-52243D01*
X58959Y-52244D01*
X59198Y-52145D01*
X59381Y-51962D01*
X59480Y-51723D01*
X59480Y-51465D01*
X59480Y-53472D01*
X59467Y-53430D01*
X59250Y-53352D01*
X59019Y-53362D01*
X58855Y-53430D01*
X58824Y-53529D01*
X59161Y-53866D01*
X59498Y-53529D01*
X59498Y-53670D01*
X59232Y-53937D01*
X59569Y-54273D01*
X59667Y-54242D01*
X59746Y-54025D01*
X59746Y-55972D01*
X59716Y-56001D01*
X59636Y-56194D01*
X59636Y-56403D01*
X59716Y-56596D01*
X59863Y-56744D01*
X59880Y-56751D01*
X59675Y-56835D01*
X59498Y-57012D01*
X59498Y-54344D01*
X59161Y-54007D01*
X59090Y-54078D01*
X59090Y-53937D01*
X58753Y-53600D01*
X58661Y-53629D01*
X58653Y-53608D01*
X58490Y-53445D01*
X58277Y-53357D01*
X58046Y-53356D01*
X57833Y-53445D01*
X57670Y-53608D01*
X57581Y-53821D01*
X57581Y-54051D01*
X57669Y-54265D01*
X57832Y-54428D01*
X58045Y-54516D01*
X58276Y-54517D01*
X58489Y-54428D01*
X58652Y-54265D01*
X58661Y-54244D01*
X58753Y-54273D01*
X59090Y-53937D01*
X59090Y-54078D01*
X58824Y-54344D01*
X58855Y-54443D01*
X59072Y-54521D01*
X59302Y-54511D01*
X59467Y-54443D01*
X59498Y-54344D01*
X59498Y-57012D01*
X59493Y-57016D01*
X59395Y-57253D01*
X59395Y-57509D01*
X59493Y-57746D01*
X59674Y-57927D01*
X59910Y-58025D01*
X60166Y-58025D01*
X60403Y-57927D01*
X60584Y-57746D01*
X60682Y-57510D01*
X60683Y-57254D01*
X60585Y-57017D01*
X60404Y-56836D01*
X60320Y-56801D01*
X60458Y-56744D01*
X60606Y-56596D01*
X60686Y-56404D01*
X60686Y-56236D01*
X60725Y-56275D01*
X60918Y-56355D01*
X61127Y-56355D01*
X61320Y-56276D01*
X61468Y-56128D01*
X61548Y-55935D01*
X61548Y-55726D01*
X61548Y-60360D01*
X60687Y-60360D01*
X60687Y-59257D01*
X60677Y-59001D01*
X60598Y-58809D01*
X60493Y-58770D01*
X60422Y-58841D01*
X60422Y-58699D01*
X60383Y-58594D01*
X60143Y-58505D01*
X59887Y-58515D01*
X59695Y-58594D01*
X59656Y-58699D01*
X60039Y-59082D01*
X60422Y-58699D01*
X60422Y-58841D01*
X60110Y-59153D01*
X60493Y-59536D01*
X60598Y-59497D01*
X60687Y-59257D01*
X60687Y-60360D01*
X60422Y-60360D01*
X60422Y-59607D01*
X60039Y-59224D01*
X59968Y-59294D01*
X59968Y-59153D01*
X59585Y-58770D01*
X59480Y-58809D01*
X59391Y-59049D01*
X59400Y-59305D01*
X59480Y-59497D01*
X59585Y-59536D01*
X59968Y-59153D01*
X59968Y-59294D01*
X59656Y-59607D01*
X59695Y-59712D01*
X59935Y-59801D01*
X60191Y-59792D01*
X60383Y-59712D01*
X60422Y-59607D01*
X60422Y-60360D01*
X58325Y-60360D01*
X58325Y-59257D01*
X58320Y-59144D01*
X58320Y-57254D01*
X58223Y-57017D01*
X58042Y-56836D01*
X57805Y-56738D01*
X57549Y-56738D01*
X57474Y-56769D01*
X57452Y-56747D01*
X57458Y-56744D01*
X57606Y-56596D01*
X57686Y-56404D01*
X57686Y-56195D01*
X57606Y-56002D01*
X57459Y-55854D01*
X57266Y-55774D01*
X57057Y-55774D01*
X56864Y-55853D01*
X56824Y-55894D01*
X56824Y-55726D01*
X56824Y-52726D01*
X56824Y-51396D01*
X56824Y-48396D01*
X56824Y-46277D01*
X56824Y-43277D01*
X56744Y-43084D01*
X56596Y-42937D01*
X56404Y-42856D01*
X56195Y-42856D01*
X56155Y-42873D01*
X56155Y-39537D01*
X56155Y-38513D01*
X56117Y-38421D01*
X56047Y-38351D01*
X55955Y-38313D01*
X55856Y-38312D01*
X55068Y-38312D01*
X54976Y-38350D01*
X54906Y-38421D01*
X54868Y-38513D01*
X54868Y-38612D01*
X54868Y-39636D01*
X54906Y-39728D01*
X54976Y-39798D01*
X55068Y-39836D01*
X55167Y-39836D01*
X55955Y-39836D01*
X56046Y-39798D01*
X56117Y-39728D01*
X56155Y-39636D01*
X56155Y-39537D01*
X56155Y-42873D01*
X56002Y-42936D01*
X55854Y-43084D01*
X55774Y-43277D01*
X55774Y-43485D01*
X55853Y-43678D01*
X56001Y-43826D01*
X56194Y-43906D01*
X56403Y-43906D01*
X56596Y-43827D01*
X56744Y-43679D01*
X56824Y-43486D01*
X56824Y-43277D01*
X56824Y-46277D01*
X56744Y-46084D01*
X56596Y-45937D01*
X56404Y-45856D01*
X56195Y-45856D01*
X56002Y-45936D01*
X55854Y-46084D01*
X55774Y-46277D01*
X55774Y-46485D01*
X55853Y-46678D01*
X56001Y-46826D01*
X56194Y-46906D01*
X56403Y-46906D01*
X56596Y-46827D01*
X56744Y-46679D01*
X56824Y-46486D01*
X56824Y-46277D01*
X56824Y-48396D01*
X56744Y-48203D01*
X56596Y-48055D01*
X56404Y-47975D01*
X56195Y-47974D01*
X56002Y-48054D01*
X55854Y-48202D01*
X55774Y-48395D01*
X55774Y-48603D01*
X55853Y-48797D01*
X56001Y-48944D01*
X56194Y-49024D01*
X56403Y-49025D01*
X56596Y-48945D01*
X56744Y-48797D01*
X56824Y-48604D01*
X56824Y-48396D01*
X56824Y-51396D01*
X56744Y-51203D01*
X56596Y-51055D01*
X56404Y-50975D01*
X56195Y-50974D01*
X56002Y-51054D01*
X55854Y-51202D01*
X55774Y-51395D01*
X55774Y-51603D01*
X55853Y-51797D01*
X56001Y-51944D01*
X56194Y-52024D01*
X56403Y-52025D01*
X56596Y-51945D01*
X56744Y-51797D01*
X56824Y-51604D01*
X56824Y-51396D01*
X56824Y-52726D01*
X56744Y-52533D01*
X56596Y-52385D01*
X56404Y-52305D01*
X56195Y-52305D01*
X56002Y-52385D01*
X55854Y-52532D01*
X55774Y-52725D01*
X55774Y-52913D01*
X55690Y-52828D01*
X55690Y-52820D01*
X55689Y-52819D01*
X55690Y-52819D01*
X55667Y-52709D01*
X55605Y-52614D01*
X55605Y-52614D01*
X55525Y-52535D01*
X55525Y-42056D01*
X55525Y-41505D01*
X55487Y-41413D01*
X55417Y-41343D01*
X55325Y-41305D01*
X55226Y-41305D01*
X54517Y-41305D01*
X54429Y-41341D01*
X54341Y-41305D01*
X54241Y-41305D01*
X53533Y-41305D01*
X53444Y-41341D01*
X53357Y-41305D01*
X53257Y-41305D01*
X53125Y-41305D01*
X53125Y-31515D01*
X53060Y-31359D01*
X52941Y-31239D01*
X52784Y-31175D01*
X52699Y-31174D01*
X52536Y-31012D01*
X52439Y-30947D01*
X52324Y-30924D01*
X50725Y-30924D01*
X50725Y-28215D01*
X50660Y-28059D01*
X50541Y-27939D01*
X50384Y-27875D01*
X50215Y-27874D01*
X50071Y-27934D01*
X49399Y-27934D01*
X49383Y-27856D01*
X49262Y-27674D01*
X49250Y-27666D01*
X49250Y-26950D01*
X49250Y-26350D01*
X49212Y-26258D01*
X49153Y-26199D01*
X49211Y-26141D01*
X49249Y-26049D01*
X49250Y-25950D01*
X49250Y-25350D01*
X49212Y-25258D01*
X49141Y-25188D01*
X49049Y-25150D01*
X48950Y-25149D01*
X48350Y-25149D01*
X48258Y-25187D01*
X48240Y-25206D01*
X48240Y-24401D01*
X47925Y-24086D01*
X47609Y-24401D01*
X47637Y-24497D01*
X47843Y-24570D01*
X48061Y-24559D01*
X48213Y-24497D01*
X48240Y-24401D01*
X48240Y-25206D01*
X48188Y-25258D01*
X48150Y-25350D01*
X48150Y-25372D01*
X48011Y-25234D01*
X47809Y-25150D01*
X47591Y-25149D01*
X47388Y-25233D01*
X47234Y-25388D01*
X47150Y-25590D01*
X47149Y-25808D01*
X47233Y-26011D01*
X47388Y-26165D01*
X47469Y-26199D01*
X47388Y-26233D01*
X47234Y-26388D01*
X47150Y-26590D01*
X47149Y-26808D01*
X47233Y-27011D01*
X47388Y-27165D01*
X47590Y-27249D01*
X47808Y-27250D01*
X48011Y-27166D01*
X48149Y-27027D01*
X48149Y-27049D01*
X48187Y-27141D01*
X48258Y-27211D01*
X48350Y-27249D01*
X48449Y-27250D01*
X49049Y-27250D01*
X49141Y-27212D01*
X49211Y-27141D01*
X49249Y-27049D01*
X49250Y-26950D01*
X49250Y-27666D01*
X49080Y-27553D01*
X48866Y-27510D01*
X48651Y-27553D01*
X48470Y-27674D01*
X48366Y-27830D01*
X48262Y-27674D01*
X48080Y-27553D01*
X47866Y-27510D01*
X47651Y-27553D01*
X47470Y-27674D01*
X47366Y-27830D01*
X47262Y-27674D01*
X47080Y-27553D01*
X46866Y-27510D01*
X46651Y-27553D01*
X46470Y-27674D01*
X46366Y-27830D01*
X46262Y-27674D01*
X46080Y-27553D01*
X45866Y-27510D01*
X45651Y-27553D01*
X45470Y-27674D01*
X45366Y-27830D01*
X45272Y-27690D01*
X45272Y-24940D01*
X45265Y-24629D01*
X45160Y-24376D01*
X45041Y-24320D01*
X44970Y-24391D01*
X44970Y-24249D01*
X44914Y-24130D01*
X44625Y-24018D01*
X44314Y-24025D01*
X44061Y-24130D01*
X44005Y-24249D01*
X44487Y-24732D01*
X44970Y-24249D01*
X44970Y-24391D01*
X44558Y-24803D01*
X45041Y-25285D01*
X45160Y-25230D01*
X45272Y-24940D01*
X45272Y-27690D01*
X45262Y-27674D01*
X45080Y-27553D01*
X44970Y-27531D01*
X44970Y-25356D01*
X44487Y-24873D01*
X44417Y-24944D01*
X44417Y-24803D01*
X43934Y-24320D01*
X43815Y-24376D01*
X43703Y-24666D01*
X43710Y-24976D01*
X43815Y-25230D01*
X43934Y-25285D01*
X44417Y-24803D01*
X44417Y-24944D01*
X44005Y-25356D01*
X44061Y-25475D01*
X44350Y-25588D01*
X44661Y-25580D01*
X44914Y-25475D01*
X44970Y-25356D01*
X44970Y-27531D01*
X44866Y-27510D01*
X44651Y-27553D01*
X44470Y-27674D01*
X44366Y-27830D01*
X44262Y-27674D01*
X44080Y-27553D01*
X43866Y-27510D01*
X43651Y-27553D01*
X43470Y-27674D01*
X43366Y-27830D01*
X43364Y-27823D01*
X43226Y-27653D01*
X43176Y-27625D01*
X43176Y-26544D01*
X43092Y-26342D01*
X43010Y-26259D01*
X43091Y-26178D01*
X43175Y-25976D01*
X43176Y-25757D01*
X43092Y-25555D01*
X42937Y-25400D01*
X42735Y-25316D01*
X42517Y-25316D01*
X42314Y-25399D01*
X42159Y-25554D01*
X42128Y-25629D01*
X42107Y-25578D01*
X42011Y-25550D01*
X41941Y-25621D01*
X41941Y-25480D01*
X41913Y-25384D01*
X41707Y-25311D01*
X41489Y-25322D01*
X41338Y-25384D01*
X41310Y-25480D01*
X41625Y-25795D01*
X41941Y-25480D01*
X41941Y-25621D01*
X41696Y-25866D01*
X42011Y-26181D01*
X42107Y-26154D01*
X42126Y-26098D01*
X42159Y-26177D01*
X42241Y-26259D01*
X42159Y-26341D01*
X42126Y-26423D01*
X42092Y-26342D01*
X41937Y-26187D01*
X41832Y-26143D01*
X41625Y-25936D01*
X41555Y-26007D01*
X41555Y-25866D01*
X41240Y-25550D01*
X41144Y-25578D01*
X41071Y-25784D01*
X41082Y-26002D01*
X41144Y-26154D01*
X41240Y-26181D01*
X41555Y-25866D01*
X41555Y-26007D01*
X41419Y-26143D01*
X41314Y-26186D01*
X41159Y-26341D01*
X41076Y-26543D01*
X41075Y-26762D01*
X41159Y-26964D01*
X41314Y-27119D01*
X41516Y-27203D01*
X41734Y-27203D01*
X41937Y-27119D01*
X42091Y-26965D01*
X42125Y-26883D01*
X42159Y-26964D01*
X42314Y-27119D01*
X42516Y-27203D01*
X42734Y-27203D01*
X42937Y-27119D01*
X43091Y-26965D01*
X43175Y-26763D01*
X43176Y-26544D01*
X43176Y-27625D01*
X43034Y-27547D01*
X43002Y-27541D01*
X42916Y-27589D01*
X42916Y-28174D01*
X42924Y-28174D01*
X42924Y-28274D01*
X42916Y-28274D01*
X42916Y-28859D01*
X43002Y-28907D01*
X43034Y-28900D01*
X43226Y-28795D01*
X43364Y-28624D01*
X43366Y-28618D01*
X43470Y-28774D01*
X43651Y-28895D01*
X43866Y-28938D01*
X44080Y-28895D01*
X44262Y-28774D01*
X44366Y-28618D01*
X44470Y-28774D01*
X44651Y-28895D01*
X44866Y-28938D01*
X45080Y-28895D01*
X45262Y-28774D01*
X45366Y-28618D01*
X45470Y-28774D01*
X45651Y-28895D01*
X45866Y-28938D01*
X46080Y-28895D01*
X46262Y-28774D01*
X46366Y-28618D01*
X46470Y-28774D01*
X46651Y-28895D01*
X46866Y-28938D01*
X47080Y-28895D01*
X47262Y-28774D01*
X47366Y-28618D01*
X47470Y-28774D01*
X47651Y-28895D01*
X47866Y-28938D01*
X48080Y-28895D01*
X48262Y-28774D01*
X48366Y-28618D01*
X48470Y-28774D01*
X48651Y-28895D01*
X48866Y-28938D01*
X49080Y-28895D01*
X49262Y-28774D01*
X49383Y-28592D01*
X49399Y-28514D01*
X49928Y-28514D01*
X49939Y-28540D01*
X50058Y-28660D01*
X50215Y-28724D01*
X50384Y-28725D01*
X50540Y-28660D01*
X50660Y-28541D01*
X50724Y-28384D01*
X50725Y-28215D01*
X50725Y-30924D01*
X50425Y-30924D01*
X50425Y-30215D01*
X50360Y-30059D01*
X50290Y-29988D01*
X50290Y-29811D01*
X50360Y-29741D01*
X50424Y-29584D01*
X50425Y-29415D01*
X50360Y-29259D01*
X50241Y-29139D01*
X50084Y-29075D01*
X49915Y-29074D01*
X49759Y-29139D01*
X49750Y-29148D01*
X49741Y-29139D01*
X49584Y-29075D01*
X49415Y-29074D01*
X49259Y-29139D01*
X49139Y-29258D01*
X49075Y-29415D01*
X49074Y-29584D01*
X49139Y-29740D01*
X49210Y-29811D01*
X49210Y-29988D01*
X49139Y-30058D01*
X49075Y-30215D01*
X49074Y-30384D01*
X49139Y-30540D01*
X49258Y-30660D01*
X49415Y-30724D01*
X49584Y-30725D01*
X49740Y-30660D01*
X49749Y-30651D01*
X49758Y-30660D01*
X49915Y-30724D01*
X50084Y-30725D01*
X50240Y-30660D01*
X50360Y-30541D01*
X50424Y-30384D01*
X50425Y-30215D01*
X50425Y-30924D01*
X49397Y-30924D01*
X49383Y-30856D01*
X49262Y-30674D01*
X49080Y-30553D01*
X48866Y-30510D01*
X48651Y-30553D01*
X48470Y-30674D01*
X48366Y-30830D01*
X48262Y-30674D01*
X48156Y-30603D01*
X48156Y-29854D01*
X48250Y-29761D01*
X48314Y-29604D01*
X48315Y-29435D01*
X48250Y-29279D01*
X48131Y-29159D01*
X47974Y-29095D01*
X47805Y-29094D01*
X47649Y-29159D01*
X47529Y-29278D01*
X47465Y-29435D01*
X47464Y-29604D01*
X47529Y-29760D01*
X47576Y-29807D01*
X47576Y-30603D01*
X47470Y-30674D01*
X47366Y-30830D01*
X47262Y-30674D01*
X47080Y-30553D01*
X46866Y-30510D01*
X46651Y-30553D01*
X46579Y-30601D01*
X46599Y-30500D01*
X46600Y-30500D01*
X46600Y-29701D01*
X46660Y-29641D01*
X46724Y-29484D01*
X46725Y-29315D01*
X46660Y-29159D01*
X46541Y-29039D01*
X46384Y-28975D01*
X46215Y-28974D01*
X46059Y-29039D01*
X45939Y-29158D01*
X45875Y-29315D01*
X45874Y-29484D01*
X45939Y-29640D01*
X46000Y-29701D01*
X46000Y-29945D01*
X45974Y-29935D01*
X45805Y-29934D01*
X45649Y-29999D01*
X45529Y-30118D01*
X45526Y-30127D01*
X45484Y-30154D01*
X45484Y-30154D01*
X45154Y-30484D01*
X45100Y-30566D01*
X45080Y-30553D01*
X44866Y-30510D01*
X44651Y-30553D01*
X44470Y-30674D01*
X44366Y-30830D01*
X44262Y-30674D01*
X44080Y-30553D01*
X43866Y-30510D01*
X43651Y-30553D01*
X43470Y-30674D01*
X43426Y-30740D01*
X43426Y-30724D01*
X43388Y-30632D01*
X43317Y-30562D01*
X43226Y-30524D01*
X43126Y-30524D01*
X42816Y-30524D01*
X42816Y-28859D01*
X42816Y-28274D01*
X42816Y-28174D01*
X42816Y-27589D01*
X42729Y-27541D01*
X42698Y-27547D01*
X42505Y-27653D01*
X42367Y-27823D01*
X42306Y-28034D01*
X42306Y-28174D01*
X42816Y-28174D01*
X42816Y-28274D01*
X42306Y-28274D01*
X42306Y-28414D01*
X42367Y-28624D01*
X42505Y-28795D01*
X42698Y-28900D01*
X42729Y-28907D01*
X42816Y-28859D01*
X42816Y-30524D01*
X42506Y-30524D01*
X42414Y-30562D01*
X42344Y-30632D01*
X42306Y-30724D01*
X42306Y-30823D01*
X42306Y-31723D01*
X42344Y-31815D01*
X42414Y-31886D01*
X42506Y-31924D01*
X42605Y-31924D01*
X43225Y-31924D01*
X43317Y-31886D01*
X43387Y-31816D01*
X43426Y-31724D01*
X43426Y-31708D01*
X43470Y-31774D01*
X43651Y-31895D01*
X43866Y-31938D01*
X44080Y-31895D01*
X44262Y-31774D01*
X44366Y-31618D01*
X44470Y-31774D01*
X44576Y-31844D01*
X44576Y-32613D01*
X43405Y-33784D01*
X43405Y-32345D01*
X43340Y-32189D01*
X43221Y-32069D01*
X43064Y-32005D01*
X42895Y-32004D01*
X42739Y-32069D01*
X42668Y-32140D01*
X41665Y-32140D01*
X41665Y-30235D01*
X41600Y-30079D01*
X41481Y-29959D01*
X41324Y-29895D01*
X41155Y-29894D01*
X40999Y-29959D01*
X40928Y-30030D01*
X40548Y-30030D01*
X40548Y-24940D01*
X40541Y-24629D01*
X40436Y-24376D01*
X40317Y-24320D01*
X40246Y-24391D01*
X40246Y-24249D01*
X40190Y-24130D01*
X39901Y-24018D01*
X39590Y-24025D01*
X39337Y-24130D01*
X39281Y-24249D01*
X39763Y-24732D01*
X40246Y-24249D01*
X40246Y-24391D01*
X39834Y-24803D01*
X40317Y-25285D01*
X40436Y-25230D01*
X40548Y-24940D01*
X40548Y-30030D01*
X40494Y-30030D01*
X40434Y-30005D01*
X40265Y-30004D01*
X40246Y-30012D01*
X40246Y-25356D01*
X39763Y-24873D01*
X39693Y-24944D01*
X39693Y-24803D01*
X39210Y-24320D01*
X39091Y-24376D01*
X38979Y-24666D01*
X38986Y-24976D01*
X39091Y-25230D01*
X39210Y-25285D01*
X39693Y-24803D01*
X39693Y-24944D01*
X39281Y-25356D01*
X39337Y-25475D01*
X39626Y-25588D01*
X39937Y-25580D01*
X40190Y-25475D01*
X40246Y-25356D01*
X40246Y-30012D01*
X40109Y-30069D01*
X39989Y-30188D01*
X39925Y-30345D01*
X39924Y-30514D01*
X39989Y-30670D01*
X40108Y-30790D01*
X40265Y-30854D01*
X40434Y-30855D01*
X40590Y-30790D01*
X40710Y-30671D01*
X40735Y-30610D01*
X40928Y-30610D01*
X40998Y-30680D01*
X41155Y-30744D01*
X41324Y-30745D01*
X41480Y-30680D01*
X41600Y-30561D01*
X41664Y-30404D01*
X41665Y-30235D01*
X41665Y-32140D01*
X40350Y-32140D01*
X40239Y-32162D01*
X40234Y-32165D01*
X40105Y-32164D01*
X39949Y-32229D01*
X39829Y-32348D01*
X39765Y-32505D01*
X39764Y-32674D01*
X39829Y-32830D01*
X39854Y-32854D01*
X39769Y-32938D01*
X39705Y-33095D01*
X39704Y-33264D01*
X39769Y-33420D01*
X39823Y-33475D01*
X39739Y-33558D01*
X39675Y-33715D01*
X39674Y-33884D01*
X39739Y-34040D01*
X39749Y-34049D01*
X39639Y-34158D01*
X39575Y-34315D01*
X39574Y-34484D01*
X39615Y-34583D01*
X39539Y-34658D01*
X39475Y-34815D01*
X39474Y-34984D01*
X39539Y-35140D01*
X39658Y-35260D01*
X39815Y-35324D01*
X39914Y-35325D01*
X40094Y-35505D01*
X40094Y-35505D01*
X40189Y-35567D01*
X40281Y-35586D01*
X40299Y-35590D01*
X40299Y-35589D01*
X40300Y-35590D01*
X41088Y-35590D01*
X41158Y-35660D01*
X41315Y-35724D01*
X41484Y-35725D01*
X41640Y-35660D01*
X41760Y-35541D01*
X41824Y-35384D01*
X41825Y-35215D01*
X41760Y-35059D01*
X41641Y-34939D01*
X41607Y-34926D01*
X41624Y-34884D01*
X41625Y-34715D01*
X41560Y-34559D01*
X41551Y-34550D01*
X41560Y-34541D01*
X41624Y-34384D01*
X41625Y-34215D01*
X41560Y-34059D01*
X41441Y-33939D01*
X41284Y-33875D01*
X41115Y-33874D01*
X40959Y-33939D01*
X40888Y-34010D01*
X40720Y-34010D01*
X40524Y-33814D01*
X40525Y-33715D01*
X40460Y-33559D01*
X40406Y-33504D01*
X40490Y-33421D01*
X40554Y-33264D01*
X40555Y-33165D01*
X40580Y-33140D01*
X41728Y-33140D01*
X41750Y-33161D01*
X41750Y-33548D01*
X41739Y-33558D01*
X41675Y-33715D01*
X41674Y-33884D01*
X41739Y-34040D01*
X41858Y-34160D01*
X42015Y-34224D01*
X42184Y-34225D01*
X42340Y-34160D01*
X42460Y-34041D01*
X42524Y-33884D01*
X42525Y-33715D01*
X42460Y-33559D01*
X42341Y-33439D01*
X42330Y-33435D01*
X42330Y-33161D01*
X42400Y-33091D01*
X42464Y-32934D01*
X42465Y-32765D01*
X42446Y-32720D01*
X42668Y-32720D01*
X42738Y-32790D01*
X42895Y-32854D01*
X43064Y-32855D01*
X43220Y-32790D01*
X43340Y-32671D01*
X43404Y-32514D01*
X43405Y-32345D01*
X43405Y-33784D01*
X43214Y-33975D01*
X43115Y-33974D01*
X42959Y-34039D01*
X42839Y-34158D01*
X42775Y-34315D01*
X42774Y-34484D01*
X42839Y-34640D01*
X42958Y-34760D01*
X43115Y-34824D01*
X43284Y-34825D01*
X43440Y-34760D01*
X43560Y-34641D01*
X43624Y-34484D01*
X43625Y-34385D01*
X45071Y-32938D01*
X45071Y-32938D01*
X45071Y-32938D01*
X45134Y-32844D01*
X45156Y-32733D01*
X45156Y-32733D01*
X45156Y-32733D01*
X45156Y-32617D01*
X45175Y-32624D01*
X45344Y-32625D01*
X45455Y-32578D01*
X45455Y-32708D01*
X45498Y-32923D01*
X45619Y-33104D01*
X45801Y-33226D01*
X46015Y-33268D01*
X46230Y-33226D01*
X46411Y-33104D01*
X46515Y-32949D01*
X46619Y-33104D01*
X46801Y-33226D01*
X47015Y-33268D01*
X47230Y-33226D01*
X47411Y-33104D01*
X47515Y-32949D01*
X47517Y-32955D01*
X47655Y-33126D01*
X47847Y-33231D01*
X47879Y-33238D01*
X47965Y-33190D01*
X47965Y-32605D01*
X47957Y-32605D01*
X47957Y-32505D01*
X47965Y-32505D01*
X47965Y-32497D01*
X48065Y-32497D01*
X48065Y-32505D01*
X48073Y-32505D01*
X48073Y-32605D01*
X48065Y-32605D01*
X48065Y-33190D01*
X48152Y-33238D01*
X48183Y-33231D01*
X48376Y-33126D01*
X48513Y-32955D01*
X48515Y-32949D01*
X48619Y-33104D01*
X48725Y-33175D01*
X48725Y-34274D01*
X48715Y-34274D01*
X48559Y-34339D01*
X48439Y-34458D01*
X48375Y-34615D01*
X48374Y-34784D01*
X48439Y-34940D01*
X48558Y-35060D01*
X48577Y-35067D01*
X48515Y-35161D01*
X48411Y-35005D01*
X48230Y-34884D01*
X48015Y-34841D01*
X47801Y-34884D01*
X47619Y-35005D01*
X47515Y-35161D01*
X47411Y-35005D01*
X47230Y-34884D01*
X47015Y-34841D01*
X46801Y-34884D01*
X46619Y-35005D01*
X46575Y-35071D01*
X46575Y-35055D01*
X46537Y-34963D01*
X46467Y-34893D01*
X46375Y-34855D01*
X46276Y-34855D01*
X45656Y-34855D01*
X45564Y-34893D01*
X45493Y-34963D01*
X45455Y-35055D01*
X45455Y-35154D01*
X45455Y-36054D01*
X45493Y-36146D01*
X45563Y-36216D01*
X45655Y-36255D01*
X45755Y-36255D01*
X46375Y-36255D01*
X46467Y-36217D01*
X46537Y-36146D01*
X46575Y-36055D01*
X46575Y-36038D01*
X46619Y-36104D01*
X46801Y-36226D01*
X47015Y-36268D01*
X47230Y-36226D01*
X47411Y-36104D01*
X47515Y-35949D01*
X47619Y-36104D01*
X47801Y-36226D01*
X48015Y-36268D01*
X48230Y-36226D01*
X48411Y-36104D01*
X48515Y-35949D01*
X48619Y-36104D01*
X48801Y-36226D01*
X49015Y-36268D01*
X49230Y-36226D01*
X49411Y-36104D01*
X49515Y-35949D01*
X49619Y-36104D01*
X49801Y-36226D01*
X50015Y-36268D01*
X50230Y-36226D01*
X50411Y-36104D01*
X50515Y-35949D01*
X50619Y-36104D01*
X50801Y-36226D01*
X51015Y-36268D01*
X51230Y-36226D01*
X51411Y-36104D01*
X51515Y-35949D01*
X51517Y-35955D01*
X51655Y-36126D01*
X51847Y-36231D01*
X51879Y-36238D01*
X51965Y-36190D01*
X51965Y-35605D01*
X51957Y-35605D01*
X51957Y-35505D01*
X51965Y-35505D01*
X51965Y-34920D01*
X51879Y-34872D01*
X51847Y-34878D01*
X51655Y-34983D01*
X51517Y-35154D01*
X51515Y-35160D01*
X51411Y-35005D01*
X51230Y-34884D01*
X51015Y-34841D01*
X50801Y-34884D01*
X50619Y-35005D01*
X50515Y-35161D01*
X50411Y-35005D01*
X50230Y-34884D01*
X50015Y-34841D01*
X49801Y-34884D01*
X49619Y-35005D01*
X49515Y-35161D01*
X49411Y-35005D01*
X49230Y-34884D01*
X49187Y-34875D01*
X49224Y-34784D01*
X49225Y-34683D01*
X49283Y-34595D01*
X49305Y-34484D01*
X49305Y-33175D01*
X49411Y-33104D01*
X49515Y-32949D01*
X49619Y-33104D01*
X49725Y-33175D01*
X49725Y-34073D01*
X49639Y-34158D01*
X49575Y-34315D01*
X49574Y-34484D01*
X49639Y-34640D01*
X49758Y-34760D01*
X49915Y-34824D01*
X50084Y-34825D01*
X50240Y-34760D01*
X50360Y-34641D01*
X50424Y-34484D01*
X50425Y-34315D01*
X50360Y-34159D01*
X50305Y-34104D01*
X50305Y-33175D01*
X50411Y-33104D01*
X50515Y-32949D01*
X50619Y-33104D01*
X50801Y-33226D01*
X51015Y-33268D01*
X51230Y-33226D01*
X51411Y-33104D01*
X51515Y-32949D01*
X51619Y-33104D01*
X51801Y-33226D01*
X52015Y-33268D01*
X52230Y-33226D01*
X52411Y-33104D01*
X52533Y-32923D01*
X52575Y-32708D01*
X52575Y-32401D01*
X52533Y-32187D01*
X52411Y-32005D01*
X52230Y-31884D01*
X52015Y-31841D01*
X51801Y-31884D01*
X51619Y-32005D01*
X51515Y-32161D01*
X51411Y-32005D01*
X51230Y-31884D01*
X51015Y-31841D01*
X50801Y-31884D01*
X50619Y-32005D01*
X50515Y-32161D01*
X50411Y-32005D01*
X50230Y-31884D01*
X50015Y-31841D01*
X49801Y-31884D01*
X49619Y-32005D01*
X49515Y-32161D01*
X49411Y-32005D01*
X49230Y-31884D01*
X49127Y-31863D01*
X49262Y-31774D01*
X49383Y-31592D01*
X49397Y-31524D01*
X52200Y-31524D01*
X52275Y-31599D01*
X52274Y-31684D01*
X52339Y-31840D01*
X52458Y-31960D01*
X52615Y-32024D01*
X52784Y-32025D01*
X52940Y-31960D01*
X53060Y-31841D01*
X53124Y-31684D01*
X53125Y-31515D01*
X53125Y-41305D01*
X52907Y-41305D01*
X52907Y-39438D01*
X52907Y-38415D01*
X52869Y-38323D01*
X52799Y-38252D01*
X52707Y-38214D01*
X52607Y-38214D01*
X52575Y-38214D01*
X52575Y-35745D01*
X52575Y-35605D01*
X52575Y-35505D01*
X52575Y-35365D01*
X52513Y-35154D01*
X52376Y-34983D01*
X52183Y-34878D01*
X52152Y-34872D01*
X52065Y-34920D01*
X52065Y-35505D01*
X52575Y-35505D01*
X52575Y-35605D01*
X52065Y-35605D01*
X52065Y-36190D01*
X52152Y-36238D01*
X52183Y-36231D01*
X52376Y-36126D01*
X52513Y-35955D01*
X52575Y-35745D01*
X52575Y-38214D01*
X51820Y-38214D01*
X51728Y-38252D01*
X51658Y-38322D01*
X51620Y-38414D01*
X51620Y-38514D01*
X51620Y-39537D01*
X51658Y-39629D01*
X51728Y-39700D01*
X51820Y-39738D01*
X51919Y-39738D01*
X52706Y-39738D01*
X52798Y-39700D01*
X52869Y-39629D01*
X52907Y-39538D01*
X52907Y-39438D01*
X52907Y-41305D01*
X52548Y-41305D01*
X52456Y-41343D01*
X52386Y-41413D01*
X52348Y-41505D01*
X52348Y-41604D01*
X52348Y-42155D01*
X52386Y-42247D01*
X52456Y-42318D01*
X52548Y-42356D01*
X52647Y-42356D01*
X53356Y-42356D01*
X53444Y-42319D01*
X53532Y-42356D01*
X53632Y-42356D01*
X54340Y-42356D01*
X54429Y-42319D01*
X54516Y-42356D01*
X54616Y-42356D01*
X55325Y-42356D01*
X55417Y-42318D01*
X55487Y-42248D01*
X55525Y-42156D01*
X55525Y-42056D01*
X55525Y-52535D01*
X55524Y-52534D01*
X55525Y-52435D01*
X55460Y-52279D01*
X55341Y-52159D01*
X55184Y-52095D01*
X55021Y-52094D01*
X55021Y-44970D01*
X55011Y-44740D01*
X54943Y-44575D01*
X54844Y-44544D01*
X54773Y-44615D01*
X54773Y-44474D01*
X54742Y-44375D01*
X54525Y-44297D01*
X54295Y-44307D01*
X54131Y-44375D01*
X54100Y-44474D01*
X54437Y-44811D01*
X54773Y-44474D01*
X54773Y-44615D01*
X54507Y-44881D01*
X54844Y-45218D01*
X54943Y-45187D01*
X55021Y-44970D01*
X55021Y-52094D01*
X55015Y-52094D01*
X54859Y-52159D01*
X54773Y-52244D01*
X54773Y-45289D01*
X54437Y-44952D01*
X54366Y-45023D01*
X54366Y-44881D01*
X54029Y-44544D01*
X53937Y-44573D01*
X53928Y-44553D01*
X53765Y-44390D01*
X53552Y-44301D01*
X53322Y-44301D01*
X53108Y-44389D01*
X52945Y-44552D01*
X52857Y-44766D01*
X52856Y-44996D01*
X52945Y-45210D01*
X53108Y-45373D01*
X53321Y-45461D01*
X53551Y-45461D01*
X53765Y-45373D01*
X53928Y-45210D01*
X53937Y-45189D01*
X54029Y-45218D01*
X54366Y-44881D01*
X54366Y-45023D01*
X54100Y-45289D01*
X54131Y-45387D01*
X54348Y-45466D01*
X54578Y-45456D01*
X54742Y-45387D01*
X54773Y-45289D01*
X54773Y-52244D01*
X54760Y-52258D01*
X54760Y-47999D01*
X54750Y-47741D01*
X54669Y-47546D01*
X54564Y-47506D01*
X54493Y-47577D01*
X54493Y-47435D01*
X54453Y-47330D01*
X54211Y-47239D01*
X53953Y-47249D01*
X53757Y-47330D01*
X53718Y-47435D01*
X54105Y-47823D01*
X54493Y-47435D01*
X54493Y-47577D01*
X54176Y-47894D01*
X54564Y-48281D01*
X54669Y-48242D01*
X54760Y-47999D01*
X54760Y-52258D01*
X54756Y-52262D01*
X54756Y-51465D01*
X54756Y-49615D01*
X54657Y-49376D01*
X54493Y-49212D01*
X54493Y-48352D01*
X54105Y-47964D01*
X54035Y-48035D01*
X54035Y-47894D01*
X53647Y-47506D01*
X53541Y-47546D01*
X53451Y-47788D01*
X53461Y-48046D01*
X53541Y-48242D01*
X53647Y-48281D01*
X54035Y-47894D01*
X54035Y-48035D01*
X53718Y-48352D01*
X53757Y-48458D01*
X54000Y-48548D01*
X54258Y-48538D01*
X54453Y-48458D01*
X54493Y-48352D01*
X54493Y-49212D01*
X54474Y-49193D01*
X54235Y-49094D01*
X53977Y-49093D01*
X53738Y-49192D01*
X53555Y-49375D01*
X53456Y-49614D01*
X53455Y-49872D01*
X53554Y-50111D01*
X53737Y-50294D01*
X53976Y-50393D01*
X54234Y-50394D01*
X54473Y-50295D01*
X54656Y-50112D01*
X54755Y-49873D01*
X54756Y-49615D01*
X54756Y-51465D01*
X54657Y-51226D01*
X54474Y-51043D01*
X54235Y-50944D01*
X53977Y-50943D01*
X53738Y-51042D01*
X53555Y-51225D01*
X53456Y-51464D01*
X53455Y-51722D01*
X53554Y-51961D01*
X53737Y-52144D01*
X53976Y-52243D01*
X54234Y-52244D01*
X54473Y-52145D01*
X54656Y-51962D01*
X54755Y-51723D01*
X54756Y-51465D01*
X54756Y-52262D01*
X54739Y-52278D01*
X54675Y-52435D01*
X54674Y-52604D01*
X54739Y-52760D01*
X54858Y-52880D01*
X55015Y-52944D01*
X55077Y-52944D01*
X55015Y-53095D01*
X55014Y-53264D01*
X55079Y-53420D01*
X55198Y-53540D01*
X55355Y-53604D01*
X55524Y-53605D01*
X55680Y-53540D01*
X55800Y-53421D01*
X55864Y-53264D01*
X55865Y-53138D01*
X56001Y-53275D01*
X56194Y-53355D01*
X56403Y-53355D01*
X56596Y-53276D01*
X56744Y-53128D01*
X56824Y-52935D01*
X56824Y-52726D01*
X56824Y-55726D01*
X56744Y-55533D01*
X56596Y-55385D01*
X56404Y-55305D01*
X56195Y-55305D01*
X56002Y-55385D01*
X55854Y-55532D01*
X55774Y-55725D01*
X55774Y-55893D01*
X55734Y-55854D01*
X55541Y-55774D01*
X55333Y-55774D01*
X55140Y-55853D01*
X55021Y-55972D01*
X55021Y-54025D01*
X55011Y-53795D01*
X54943Y-53631D01*
X54844Y-53600D01*
X54773Y-53670D01*
X54773Y-53529D01*
X54742Y-53430D01*
X54525Y-53352D01*
X54295Y-53362D01*
X54131Y-53430D01*
X54100Y-53529D01*
X54437Y-53866D01*
X54773Y-53529D01*
X54773Y-53670D01*
X54507Y-53937D01*
X54844Y-54273D01*
X54943Y-54242D01*
X55021Y-54025D01*
X55021Y-55972D01*
X54992Y-56001D01*
X54912Y-56194D01*
X54911Y-56332D01*
X54894Y-56325D01*
X54773Y-56324D01*
X54773Y-54344D01*
X54437Y-54007D01*
X54366Y-54078D01*
X54366Y-53937D01*
X54029Y-53600D01*
X53937Y-53629D01*
X53928Y-53608D01*
X53765Y-53445D01*
X53552Y-53357D01*
X53322Y-53356D01*
X53108Y-53445D01*
X52945Y-53608D01*
X52857Y-53821D01*
X52856Y-54051D01*
X52945Y-54265D01*
X53108Y-54428D01*
X53321Y-54516D01*
X53551Y-54517D01*
X53765Y-54428D01*
X53928Y-54265D01*
X53937Y-54244D01*
X54029Y-54273D01*
X54366Y-53937D01*
X54366Y-54078D01*
X54100Y-54344D01*
X54131Y-54443D01*
X54348Y-54521D01*
X54578Y-54511D01*
X54742Y-54443D01*
X54773Y-54344D01*
X54773Y-56324D01*
X54725Y-56324D01*
X54569Y-56389D01*
X54449Y-56508D01*
X54385Y-56665D01*
X54384Y-56834D01*
X54449Y-56990D01*
X54568Y-57110D01*
X54673Y-57153D01*
X54634Y-57247D01*
X54634Y-57503D01*
X54731Y-57740D01*
X54912Y-57921D01*
X55149Y-58019D01*
X55405Y-58020D01*
X55642Y-57922D01*
X55823Y-57741D01*
X55921Y-57504D01*
X55921Y-57248D01*
X55839Y-57050D01*
X56935Y-57050D01*
X57064Y-57179D01*
X57033Y-57253D01*
X57033Y-57509D01*
X57131Y-57746D01*
X57312Y-57927D01*
X57548Y-58025D01*
X57804Y-58025D01*
X58041Y-57927D01*
X58222Y-57746D01*
X58320Y-57510D01*
X58320Y-57254D01*
X58320Y-59144D01*
X58315Y-59001D01*
X58235Y-58809D01*
X58130Y-58770D01*
X58060Y-58841D01*
X58060Y-58699D01*
X58021Y-58594D01*
X57781Y-58505D01*
X57525Y-58515D01*
X57332Y-58594D01*
X57294Y-58699D01*
X57677Y-59082D01*
X58060Y-58699D01*
X58060Y-58841D01*
X57747Y-59153D01*
X58130Y-59536D01*
X58235Y-59497D01*
X58325Y-59257D01*
X58325Y-60360D01*
X58060Y-60360D01*
X58060Y-59607D01*
X57677Y-59224D01*
X57606Y-59294D01*
X57606Y-59153D01*
X57223Y-58770D01*
X57118Y-58809D01*
X57029Y-59049D01*
X57038Y-59305D01*
X57118Y-59497D01*
X57223Y-59536D01*
X57606Y-59153D01*
X57606Y-59294D01*
X57294Y-59607D01*
X57332Y-59712D01*
X57573Y-59801D01*
X57828Y-59792D01*
X58021Y-59712D01*
X58060Y-59607D01*
X58060Y-60360D01*
X55925Y-60360D01*
X55925Y-59252D01*
X55916Y-58996D01*
X55836Y-58803D01*
X55731Y-58764D01*
X55660Y-58835D01*
X55660Y-58694D01*
X55622Y-58589D01*
X55382Y-58500D01*
X55126Y-58509D01*
X54933Y-58589D01*
X54894Y-58694D01*
X55277Y-59077D01*
X55660Y-58694D01*
X55660Y-58835D01*
X55348Y-59148D01*
X55731Y-59531D01*
X55836Y-59492D01*
X55925Y-59252D01*
X55925Y-60360D01*
X55660Y-60360D01*
X55660Y-59601D01*
X55277Y-59218D01*
X55207Y-59289D01*
X55207Y-59148D01*
X54824Y-58764D01*
X54719Y-58803D01*
X54629Y-59043D01*
X54639Y-59299D01*
X54719Y-59492D01*
X54824Y-59531D01*
X55207Y-59148D01*
X55207Y-59289D01*
X54894Y-59601D01*
X54933Y-59706D01*
X55173Y-59796D01*
X55429Y-59786D01*
X55622Y-59706D01*
X55660Y-59601D01*
X55660Y-60360D01*
X53563Y-60360D01*
X53563Y-59252D01*
X53559Y-59139D01*
X53559Y-57248D01*
X53461Y-57012D01*
X53280Y-56830D01*
X53044Y-56732D01*
X52788Y-56732D01*
X52735Y-56754D01*
X52728Y-56747D01*
X52734Y-56744D01*
X52881Y-56596D01*
X52961Y-56404D01*
X52962Y-56195D01*
X52882Y-56002D01*
X52734Y-55854D01*
X52541Y-55774D01*
X52333Y-55774D01*
X52140Y-55853D01*
X52099Y-55894D01*
X52099Y-55726D01*
X52099Y-52726D01*
X52099Y-51396D01*
X52099Y-48396D01*
X52099Y-46277D01*
X52099Y-43277D01*
X52020Y-43084D01*
X51872Y-42937D01*
X51679Y-42856D01*
X51470Y-42856D01*
X51431Y-42873D01*
X51431Y-39537D01*
X51431Y-38513D01*
X51393Y-38421D01*
X51322Y-38351D01*
X51231Y-38313D01*
X51131Y-38312D01*
X50344Y-38312D01*
X50252Y-38350D01*
X50181Y-38421D01*
X50143Y-38513D01*
X50143Y-38612D01*
X50143Y-39636D01*
X50181Y-39728D01*
X50251Y-39798D01*
X50343Y-39836D01*
X50443Y-39836D01*
X51230Y-39836D01*
X51322Y-39798D01*
X51392Y-39728D01*
X51431Y-39636D01*
X51431Y-39537D01*
X51431Y-42873D01*
X51277Y-42936D01*
X51129Y-43084D01*
X51049Y-43277D01*
X51049Y-43485D01*
X51129Y-43678D01*
X51277Y-43826D01*
X51469Y-43906D01*
X51678Y-43906D01*
X51871Y-43827D01*
X52019Y-43679D01*
X52099Y-43486D01*
X52099Y-43277D01*
X52099Y-46277D01*
X52020Y-46084D01*
X51872Y-45937D01*
X51679Y-45856D01*
X51470Y-45856D01*
X51277Y-45936D01*
X51129Y-46084D01*
X51049Y-46277D01*
X51049Y-46485D01*
X51129Y-46678D01*
X51277Y-46826D01*
X51469Y-46906D01*
X51678Y-46906D01*
X51871Y-46827D01*
X52019Y-46679D01*
X52099Y-46486D01*
X52099Y-46277D01*
X52099Y-48396D01*
X52020Y-48203D01*
X51872Y-48055D01*
X51679Y-47975D01*
X51470Y-47974D01*
X51277Y-48054D01*
X51129Y-48202D01*
X51049Y-48395D01*
X51049Y-48603D01*
X51129Y-48797D01*
X51277Y-48944D01*
X51469Y-49024D01*
X51678Y-49025D01*
X51871Y-48945D01*
X52019Y-48797D01*
X52099Y-48604D01*
X52099Y-48396D01*
X52099Y-51396D01*
X52020Y-51203D01*
X51872Y-51055D01*
X51679Y-50975D01*
X51470Y-50974D01*
X51277Y-51054D01*
X51129Y-51202D01*
X51049Y-51395D01*
X51049Y-51603D01*
X51129Y-51797D01*
X51277Y-51944D01*
X51469Y-52024D01*
X51678Y-52025D01*
X51871Y-51945D01*
X52019Y-51797D01*
X52099Y-51604D01*
X52099Y-51396D01*
X52099Y-52726D01*
X52020Y-52533D01*
X51872Y-52385D01*
X51679Y-52305D01*
X51470Y-52305D01*
X51277Y-52385D01*
X51129Y-52532D01*
X51049Y-52725D01*
X51049Y-52934D01*
X51129Y-53127D01*
X51277Y-53275D01*
X51469Y-53355D01*
X51678Y-53355D01*
X51871Y-53276D01*
X52019Y-53128D01*
X52099Y-52935D01*
X52099Y-52726D01*
X52099Y-55726D01*
X52020Y-55533D01*
X51872Y-55385D01*
X51679Y-55305D01*
X51470Y-55305D01*
X51277Y-55385D01*
X51129Y-55532D01*
X51049Y-55725D01*
X51049Y-55893D01*
X51010Y-55854D01*
X50817Y-55774D01*
X50801Y-55774D01*
X50801Y-42056D01*
X50801Y-41505D01*
X50763Y-41413D01*
X50692Y-41343D01*
X50601Y-41305D01*
X50501Y-41305D01*
X49793Y-41305D01*
X49704Y-41341D01*
X49616Y-41305D01*
X49517Y-41305D01*
X48808Y-41305D01*
X48720Y-41341D01*
X48632Y-41305D01*
X48533Y-41305D01*
X48183Y-41305D01*
X48183Y-39438D01*
X48183Y-38415D01*
X48145Y-38323D01*
X48074Y-38252D01*
X47983Y-38214D01*
X47883Y-38214D01*
X47096Y-38214D01*
X47004Y-38252D01*
X46933Y-38322D01*
X46895Y-38414D01*
X46895Y-38514D01*
X46895Y-39537D01*
X46933Y-39629D01*
X47003Y-39700D01*
X47095Y-39738D01*
X47195Y-39738D01*
X47982Y-39738D01*
X48074Y-39700D01*
X48144Y-39629D01*
X48183Y-39538D01*
X48183Y-39438D01*
X48183Y-41305D01*
X47824Y-41305D01*
X47732Y-41343D01*
X47662Y-41413D01*
X47624Y-41505D01*
X47623Y-41604D01*
X47623Y-42155D01*
X47661Y-42247D01*
X47732Y-42318D01*
X47824Y-42356D01*
X47923Y-42356D01*
X48632Y-42356D01*
X48720Y-42319D01*
X48808Y-42356D01*
X48907Y-42356D01*
X49616Y-42356D01*
X49704Y-42319D01*
X49792Y-42356D01*
X49892Y-42356D01*
X50600Y-42356D01*
X50692Y-42318D01*
X50762Y-42248D01*
X50801Y-42156D01*
X50801Y-42056D01*
X50801Y-55774D01*
X50608Y-55774D01*
X50415Y-55853D01*
X50297Y-55972D01*
X50297Y-54025D01*
X50297Y-44970D01*
X50286Y-44740D01*
X50218Y-44575D01*
X50120Y-44544D01*
X50049Y-44615D01*
X50049Y-44474D01*
X50018Y-44375D01*
X49801Y-44297D01*
X49571Y-44307D01*
X49406Y-44375D01*
X49375Y-44474D01*
X49712Y-44811D01*
X50049Y-44474D01*
X50049Y-44615D01*
X49783Y-44881D01*
X50120Y-45218D01*
X50218Y-45187D01*
X50297Y-44970D01*
X50297Y-54025D01*
X50286Y-53795D01*
X50218Y-53631D01*
X50120Y-53600D01*
X50049Y-53670D01*
X50049Y-53529D01*
X50049Y-45289D01*
X49712Y-44952D01*
X49641Y-45023D01*
X49641Y-44881D01*
X49304Y-44544D01*
X49212Y-44573D01*
X49204Y-44553D01*
X49041Y-44390D01*
X48828Y-44301D01*
X48597Y-44301D01*
X48384Y-44389D01*
X48221Y-44552D01*
X48132Y-44766D01*
X48132Y-44996D01*
X48220Y-45210D01*
X48383Y-45373D01*
X48596Y-45461D01*
X48827Y-45461D01*
X49040Y-45373D01*
X49204Y-45210D01*
X49212Y-45189D01*
X49304Y-45218D01*
X49641Y-44881D01*
X49641Y-45023D01*
X49375Y-45289D01*
X49406Y-45387D01*
X49623Y-45466D01*
X49854Y-45456D01*
X50018Y-45387D01*
X50049Y-45289D01*
X50049Y-53529D01*
X50035Y-53485D01*
X50035Y-47999D01*
X50026Y-47741D01*
X49945Y-47546D01*
X49839Y-47506D01*
X49769Y-47577D01*
X49769Y-47435D01*
X49729Y-47330D01*
X49487Y-47239D01*
X49228Y-47249D01*
X49033Y-47330D01*
X48993Y-47435D01*
X49381Y-47823D01*
X49769Y-47435D01*
X49769Y-47577D01*
X49452Y-47894D01*
X49839Y-48281D01*
X49945Y-48242D01*
X50035Y-47999D01*
X50035Y-53485D01*
X50031Y-53472D01*
X50031Y-51465D01*
X50031Y-49615D01*
X49932Y-49376D01*
X49769Y-49212D01*
X49769Y-48352D01*
X49381Y-47964D01*
X49310Y-48035D01*
X49310Y-47894D01*
X48923Y-47506D01*
X48817Y-47546D01*
X48727Y-47788D01*
X48736Y-48046D01*
X48817Y-48242D01*
X48923Y-48281D01*
X49310Y-47894D01*
X49310Y-48035D01*
X48993Y-48352D01*
X49033Y-48458D01*
X49275Y-48548D01*
X49534Y-48538D01*
X49729Y-48458D01*
X49769Y-48352D01*
X49769Y-49212D01*
X49750Y-49193D01*
X49511Y-49094D01*
X49252Y-49093D01*
X49013Y-49192D01*
X48830Y-49375D01*
X48731Y-49614D01*
X48731Y-49872D01*
X48830Y-50111D01*
X49012Y-50294D01*
X49251Y-50393D01*
X49510Y-50394D01*
X49749Y-50295D01*
X49932Y-50112D01*
X50031Y-49873D01*
X50031Y-49615D01*
X50031Y-51465D01*
X49932Y-51226D01*
X49750Y-51043D01*
X49511Y-50944D01*
X49252Y-50943D01*
X49013Y-51042D01*
X48830Y-51225D01*
X48731Y-51464D01*
X48731Y-51722D01*
X48830Y-51961D01*
X49012Y-52144D01*
X49251Y-52243D01*
X49510Y-52244D01*
X49749Y-52145D01*
X49932Y-51962D01*
X50031Y-51723D01*
X50031Y-51465D01*
X50031Y-53472D01*
X50018Y-53430D01*
X49801Y-53352D01*
X49571Y-53362D01*
X49406Y-53430D01*
X49375Y-53529D01*
X49712Y-53866D01*
X50049Y-53529D01*
X50049Y-53670D01*
X49783Y-53937D01*
X50120Y-54273D01*
X50218Y-54242D01*
X50297Y-54025D01*
X50297Y-55972D01*
X50275Y-55994D01*
X50275Y-55395D01*
X50210Y-55239D01*
X50091Y-55119D01*
X50049Y-55102D01*
X50049Y-54344D01*
X49712Y-54007D01*
X49641Y-54078D01*
X49641Y-53937D01*
X49304Y-53600D01*
X49212Y-53629D01*
X49204Y-53608D01*
X49041Y-53445D01*
X48828Y-53357D01*
X48597Y-53356D01*
X48384Y-53445D01*
X48221Y-53608D01*
X48132Y-53821D01*
X48132Y-54051D01*
X48220Y-54265D01*
X48383Y-54428D01*
X48596Y-54516D01*
X48827Y-54517D01*
X49040Y-54428D01*
X49204Y-54265D01*
X49212Y-54244D01*
X49304Y-54273D01*
X49641Y-53937D01*
X49641Y-54078D01*
X49375Y-54344D01*
X49406Y-54443D01*
X49623Y-54521D01*
X49854Y-54511D01*
X50018Y-54443D01*
X50049Y-54344D01*
X50049Y-55102D01*
X49934Y-55055D01*
X49765Y-55054D01*
X49609Y-55119D01*
X49538Y-55190D01*
X49480Y-55190D01*
X49369Y-55212D01*
X49274Y-55274D01*
X49274Y-55274D01*
X49214Y-55335D01*
X49115Y-55334D01*
X48959Y-55399D01*
X48839Y-55518D01*
X48775Y-55675D01*
X48774Y-55844D01*
X48839Y-56000D01*
X48958Y-56120D01*
X49115Y-56184D01*
X49284Y-56185D01*
X49440Y-56120D01*
X49560Y-56001D01*
X49624Y-55846D01*
X49765Y-55904D01*
X49934Y-55905D01*
X50090Y-55840D01*
X50210Y-55721D01*
X50274Y-55564D01*
X50275Y-55395D01*
X50275Y-55994D01*
X50267Y-56001D01*
X50187Y-56194D01*
X50187Y-56305D01*
X50065Y-56304D01*
X49909Y-56369D01*
X49789Y-56488D01*
X49725Y-56645D01*
X49724Y-56814D01*
X49789Y-56970D01*
X49908Y-57090D01*
X49986Y-57122D01*
X49934Y-57247D01*
X49934Y-57503D01*
X50031Y-57740D01*
X50212Y-57921D01*
X50449Y-58019D01*
X50705Y-58020D01*
X50942Y-57922D01*
X51123Y-57741D01*
X51221Y-57504D01*
X51221Y-57248D01*
X51139Y-57050D01*
X52210Y-57050D01*
X52312Y-57151D01*
X52272Y-57247D01*
X52271Y-57503D01*
X52369Y-57740D01*
X52550Y-57921D01*
X52787Y-58019D01*
X53043Y-58020D01*
X53279Y-57922D01*
X53461Y-57741D01*
X53559Y-57504D01*
X53559Y-57248D01*
X53559Y-59139D01*
X53554Y-58996D01*
X53474Y-58803D01*
X53369Y-58764D01*
X53298Y-58835D01*
X53298Y-58694D01*
X53259Y-58589D01*
X53019Y-58500D01*
X52763Y-58509D01*
X52571Y-58589D01*
X52532Y-58694D01*
X52915Y-59077D01*
X53298Y-58694D01*
X53298Y-58835D01*
X52986Y-59148D01*
X53369Y-59531D01*
X53474Y-59492D01*
X53563Y-59252D01*
X53563Y-60360D01*
X53298Y-60360D01*
X53298Y-59601D01*
X52915Y-59218D01*
X52845Y-59289D01*
X52845Y-59148D01*
X52461Y-58764D01*
X52356Y-58803D01*
X52267Y-59043D01*
X52277Y-59299D01*
X52356Y-59492D01*
X52461Y-59531D01*
X52845Y-59148D01*
X52845Y-59289D01*
X52532Y-59601D01*
X52571Y-59706D01*
X52811Y-59796D01*
X53067Y-59786D01*
X53259Y-59706D01*
X53298Y-59601D01*
X53298Y-60360D01*
X51225Y-60360D01*
X51225Y-59252D01*
X51216Y-58996D01*
X51136Y-58803D01*
X51031Y-58764D01*
X50960Y-58835D01*
X50960Y-58694D01*
X50922Y-58589D01*
X50682Y-58500D01*
X50426Y-58509D01*
X50233Y-58589D01*
X50194Y-58694D01*
X50577Y-59077D01*
X50960Y-58694D01*
X50960Y-58835D01*
X50648Y-59148D01*
X51031Y-59531D01*
X51136Y-59492D01*
X51225Y-59252D01*
X51225Y-60360D01*
X50960Y-60360D01*
X50960Y-59601D01*
X50577Y-59218D01*
X50507Y-59289D01*
X50507Y-59148D01*
X50124Y-58764D01*
X50019Y-58803D01*
X49929Y-59043D01*
X49939Y-59299D01*
X50019Y-59492D01*
X50124Y-59531D01*
X50507Y-59148D01*
X50507Y-59289D01*
X50194Y-59601D01*
X50233Y-59706D01*
X50473Y-59796D01*
X50729Y-59786D01*
X50922Y-59706D01*
X50960Y-59601D01*
X50960Y-60360D01*
X48863Y-60360D01*
X48863Y-59252D01*
X48859Y-59139D01*
X48859Y-57248D01*
X48761Y-57012D01*
X48580Y-56830D01*
X48344Y-56732D01*
X48237Y-56732D01*
X48237Y-56195D01*
X48157Y-56002D01*
X48010Y-55854D01*
X47817Y-55774D01*
X47608Y-55774D01*
X47415Y-55853D01*
X47267Y-56001D01*
X47187Y-56194D01*
X47187Y-56403D01*
X47267Y-56596D01*
X47414Y-56744D01*
X47607Y-56824D01*
X47816Y-56824D01*
X48009Y-56744D01*
X48157Y-56596D01*
X48237Y-56404D01*
X48237Y-56195D01*
X48237Y-56732D01*
X48088Y-56732D01*
X47851Y-56830D01*
X47670Y-57011D01*
X47572Y-57247D01*
X47571Y-57503D01*
X47669Y-57740D01*
X47850Y-57921D01*
X48087Y-58019D01*
X48343Y-58020D01*
X48579Y-57922D01*
X48761Y-57741D01*
X48859Y-57504D01*
X48859Y-57248D01*
X48859Y-59139D01*
X48854Y-58996D01*
X48774Y-58803D01*
X48669Y-58764D01*
X48598Y-58835D01*
X48598Y-58694D01*
X48559Y-58589D01*
X48319Y-58500D01*
X48063Y-58509D01*
X47871Y-58589D01*
X47832Y-58694D01*
X48215Y-59077D01*
X48598Y-58694D01*
X48598Y-58835D01*
X48286Y-59148D01*
X48669Y-59531D01*
X48774Y-59492D01*
X48863Y-59252D01*
X48863Y-60360D01*
X48598Y-60360D01*
X48598Y-59601D01*
X48215Y-59218D01*
X48145Y-59289D01*
X48145Y-59148D01*
X47761Y-58764D01*
X47656Y-58803D01*
X47567Y-59043D01*
X47577Y-59299D01*
X47656Y-59492D01*
X47761Y-59531D01*
X48145Y-59148D01*
X48145Y-59289D01*
X47832Y-59601D01*
X47871Y-59706D01*
X48111Y-59796D01*
X48367Y-59786D01*
X48559Y-59706D01*
X48598Y-59601D01*
X48598Y-60360D01*
X46981Y-60360D01*
X46981Y-55726D01*
X46981Y-52726D01*
X46981Y-51396D01*
X46981Y-48396D01*
X46981Y-46277D01*
X46981Y-43277D01*
X46902Y-43084D01*
X46754Y-42937D01*
X46561Y-42856D01*
X46352Y-42856D01*
X46313Y-42873D01*
X46313Y-39537D01*
X46313Y-38513D01*
X46275Y-38421D01*
X46204Y-38351D01*
X46112Y-38313D01*
X46013Y-38312D01*
X45226Y-38312D01*
X45134Y-38350D01*
X45063Y-38421D01*
X45025Y-38513D01*
X45025Y-38612D01*
X45025Y-39636D01*
X45063Y-39728D01*
X45133Y-39798D01*
X45225Y-39836D01*
X45325Y-39836D01*
X46112Y-39836D01*
X46204Y-39798D01*
X46274Y-39728D01*
X46312Y-39636D01*
X46313Y-39537D01*
X46313Y-42873D01*
X46159Y-42936D01*
X46011Y-43084D01*
X45931Y-43277D01*
X45931Y-43485D01*
X46011Y-43678D01*
X46158Y-43826D01*
X46351Y-43906D01*
X46560Y-43906D01*
X46753Y-43827D01*
X46901Y-43679D01*
X46981Y-43486D01*
X46981Y-43277D01*
X46981Y-46277D01*
X46902Y-46084D01*
X46754Y-45937D01*
X46561Y-45856D01*
X46352Y-45856D01*
X46159Y-45936D01*
X46011Y-46084D01*
X45931Y-46277D01*
X45931Y-46485D01*
X46011Y-46678D01*
X46158Y-46826D01*
X46351Y-46906D01*
X46560Y-46906D01*
X46753Y-46827D01*
X46901Y-46679D01*
X46981Y-46486D01*
X46981Y-46277D01*
X46981Y-48396D01*
X46902Y-48203D01*
X46754Y-48055D01*
X46561Y-47975D01*
X46352Y-47974D01*
X46159Y-48054D01*
X46011Y-48202D01*
X45931Y-48395D01*
X45931Y-48603D01*
X46011Y-48797D01*
X46158Y-48944D01*
X46351Y-49024D01*
X46560Y-49025D01*
X46753Y-48945D01*
X46901Y-48797D01*
X46981Y-48604D01*
X46981Y-48396D01*
X46981Y-51396D01*
X46902Y-51203D01*
X46754Y-51055D01*
X46561Y-50975D01*
X46352Y-50974D01*
X46159Y-51054D01*
X46011Y-51202D01*
X45931Y-51395D01*
X45931Y-51603D01*
X46011Y-51797D01*
X46158Y-51944D01*
X46351Y-52024D01*
X46560Y-52025D01*
X46753Y-51945D01*
X46901Y-51797D01*
X46981Y-51604D01*
X46981Y-51396D01*
X46981Y-52726D01*
X46902Y-52533D01*
X46754Y-52385D01*
X46561Y-52305D01*
X46352Y-52305D01*
X46159Y-52385D01*
X46011Y-52532D01*
X45931Y-52725D01*
X45931Y-52934D01*
X46011Y-53127D01*
X46158Y-53275D01*
X46351Y-53355D01*
X46560Y-53355D01*
X46753Y-53276D01*
X46901Y-53128D01*
X46981Y-52935D01*
X46981Y-52726D01*
X46981Y-55726D01*
X46902Y-55533D01*
X46754Y-55385D01*
X46561Y-55305D01*
X46352Y-55305D01*
X46159Y-55385D01*
X46011Y-55532D01*
X45931Y-55725D01*
X45931Y-55893D01*
X45892Y-55854D01*
X45699Y-55774D01*
X45683Y-55774D01*
X45683Y-42056D01*
X45683Y-41505D01*
X45645Y-41413D01*
X45574Y-41343D01*
X45483Y-41305D01*
X45383Y-41305D01*
X44674Y-41305D01*
X44586Y-41341D01*
X44498Y-41305D01*
X44399Y-41305D01*
X43690Y-41305D01*
X43602Y-41341D01*
X43514Y-41305D01*
X43415Y-41305D01*
X43065Y-41305D01*
X43065Y-39438D01*
X43065Y-38415D01*
X43027Y-38323D01*
X42956Y-38252D01*
X42864Y-38214D01*
X42765Y-38214D01*
X41978Y-38214D01*
X41886Y-38252D01*
X41815Y-38322D01*
X41777Y-38414D01*
X41777Y-38514D01*
X41777Y-39537D01*
X41815Y-39629D01*
X41885Y-39700D01*
X41977Y-39738D01*
X42077Y-39738D01*
X42864Y-39738D01*
X42956Y-39700D01*
X43026Y-39629D01*
X43064Y-39538D01*
X43065Y-39438D01*
X43065Y-41305D01*
X42706Y-41305D01*
X42614Y-41343D01*
X42544Y-41413D01*
X42505Y-41505D01*
X42505Y-41604D01*
X42505Y-42155D01*
X42543Y-42247D01*
X42614Y-42318D01*
X42705Y-42356D01*
X42805Y-42356D01*
X43514Y-42356D01*
X43602Y-42319D01*
X43690Y-42356D01*
X43789Y-42356D01*
X44498Y-42356D01*
X44586Y-42319D01*
X44674Y-42356D01*
X44773Y-42356D01*
X45482Y-42356D01*
X45574Y-42318D01*
X45644Y-42248D01*
X45683Y-42156D01*
X45683Y-42056D01*
X45683Y-55774D01*
X45490Y-55774D01*
X45297Y-55853D01*
X45179Y-55972D01*
X45179Y-54025D01*
X45179Y-44970D01*
X45168Y-44740D01*
X45100Y-44575D01*
X45002Y-44544D01*
X44931Y-44615D01*
X44931Y-44474D01*
X44900Y-44375D01*
X44683Y-44297D01*
X44452Y-44307D01*
X44288Y-44375D01*
X44257Y-44474D01*
X44594Y-44811D01*
X44931Y-44474D01*
X44931Y-44615D01*
X44665Y-44881D01*
X45002Y-45218D01*
X45100Y-45187D01*
X45179Y-44970D01*
X45179Y-54025D01*
X45168Y-53795D01*
X45100Y-53631D01*
X45002Y-53600D01*
X44931Y-53670D01*
X44931Y-53529D01*
X44931Y-45289D01*
X44594Y-44952D01*
X44523Y-45023D01*
X44523Y-44881D01*
X44186Y-44544D01*
X44094Y-44573D01*
X44086Y-44553D01*
X43923Y-44390D01*
X43710Y-44301D01*
X43479Y-44301D01*
X43266Y-44389D01*
X43103Y-44552D01*
X43014Y-44766D01*
X43014Y-44996D01*
X43102Y-45210D01*
X43265Y-45373D01*
X43478Y-45461D01*
X43709Y-45461D01*
X43922Y-45373D01*
X44085Y-45210D01*
X44094Y-45189D01*
X44186Y-45218D01*
X44523Y-44881D01*
X44523Y-45023D01*
X44257Y-45289D01*
X44288Y-45387D01*
X44505Y-45466D01*
X44736Y-45456D01*
X44900Y-45387D01*
X44931Y-45289D01*
X44931Y-53529D01*
X44917Y-53485D01*
X44917Y-47999D01*
X44908Y-47741D01*
X44827Y-47546D01*
X44721Y-47506D01*
X44650Y-47577D01*
X44650Y-47435D01*
X44611Y-47330D01*
X44369Y-47239D01*
X44110Y-47249D01*
X43915Y-47330D01*
X43875Y-47435D01*
X44263Y-47823D01*
X44650Y-47435D01*
X44650Y-47577D01*
X44334Y-47894D01*
X44721Y-48281D01*
X44827Y-48242D01*
X44917Y-47999D01*
X44917Y-53485D01*
X44913Y-53472D01*
X44913Y-51465D01*
X44913Y-49615D01*
X44814Y-49376D01*
X44650Y-49212D01*
X44650Y-48352D01*
X44263Y-47964D01*
X44192Y-48035D01*
X44192Y-47894D01*
X43805Y-47506D01*
X43699Y-47546D01*
X43609Y-47788D01*
X43618Y-48046D01*
X43699Y-48242D01*
X43805Y-48281D01*
X44192Y-47894D01*
X44192Y-48035D01*
X43875Y-48352D01*
X43915Y-48458D01*
X44157Y-48548D01*
X44416Y-48538D01*
X44611Y-48458D01*
X44650Y-48352D01*
X44650Y-49212D01*
X44632Y-49193D01*
X44393Y-49094D01*
X44134Y-49093D01*
X43895Y-49192D01*
X43712Y-49375D01*
X43613Y-49614D01*
X43613Y-49872D01*
X43712Y-50111D01*
X43894Y-50294D01*
X44133Y-50393D01*
X44392Y-50394D01*
X44631Y-50295D01*
X44814Y-50112D01*
X44913Y-49873D01*
X44913Y-49615D01*
X44913Y-51465D01*
X44814Y-51226D01*
X44632Y-51043D01*
X44393Y-50944D01*
X44134Y-50943D01*
X43895Y-51042D01*
X43712Y-51225D01*
X43613Y-51464D01*
X43613Y-51722D01*
X43712Y-51961D01*
X43894Y-52144D01*
X44133Y-52243D01*
X44392Y-52244D01*
X44631Y-52145D01*
X44814Y-51962D01*
X44913Y-51723D01*
X44913Y-51465D01*
X44913Y-53472D01*
X44900Y-53430D01*
X44683Y-53352D01*
X44452Y-53362D01*
X44288Y-53430D01*
X44257Y-53529D01*
X44594Y-53866D01*
X44931Y-53529D01*
X44931Y-53670D01*
X44665Y-53937D01*
X45002Y-54273D01*
X45100Y-54242D01*
X45179Y-54025D01*
X45179Y-55972D01*
X45149Y-56001D01*
X45069Y-56194D01*
X45069Y-56403D01*
X45149Y-56596D01*
X45296Y-56744D01*
X45313Y-56751D01*
X45108Y-56835D01*
X44931Y-57012D01*
X44931Y-54344D01*
X44594Y-54007D01*
X44523Y-54078D01*
X44523Y-53937D01*
X44186Y-53600D01*
X44094Y-53629D01*
X44086Y-53608D01*
X43923Y-53445D01*
X43710Y-53357D01*
X43479Y-53356D01*
X43465Y-53362D01*
X43465Y-47455D01*
X43406Y-47314D01*
X43464Y-47174D01*
X43465Y-47005D01*
X43400Y-46849D01*
X43326Y-46775D01*
X43360Y-46741D01*
X43424Y-46584D01*
X43425Y-46415D01*
X43360Y-46259D01*
X43241Y-46139D01*
X43084Y-46075D01*
X42915Y-46074D01*
X42759Y-46139D01*
X42688Y-46210D01*
X42440Y-46210D01*
X42351Y-46119D01*
X42194Y-46055D01*
X42025Y-46054D01*
X41869Y-46119D01*
X41749Y-46238D01*
X41726Y-46296D01*
X41695Y-46264D01*
X41600Y-46202D01*
X41541Y-46190D01*
X41583Y-45980D01*
X41541Y-45765D01*
X41419Y-45584D01*
X41238Y-45462D01*
X41023Y-45420D01*
X40716Y-45420D01*
X40501Y-45462D01*
X40320Y-45584D01*
X40198Y-45765D01*
X40156Y-45980D01*
X40198Y-46194D01*
X40214Y-46218D01*
X40144Y-46264D01*
X40144Y-46264D01*
X39994Y-46415D01*
X39895Y-46414D01*
X39739Y-46479D01*
X39619Y-46598D01*
X39555Y-46755D01*
X39554Y-46924D01*
X39619Y-47080D01*
X39733Y-47195D01*
X39669Y-47258D01*
X39605Y-47415D01*
X39604Y-47584D01*
X39669Y-47740D01*
X39788Y-47860D01*
X39945Y-47924D01*
X40114Y-47925D01*
X40171Y-47901D01*
X40156Y-47980D01*
X40198Y-48194D01*
X40320Y-48375D01*
X40475Y-48479D01*
X40320Y-48584D01*
X40198Y-48765D01*
X40156Y-48980D01*
X40198Y-49194D01*
X40320Y-49375D01*
X40475Y-49479D01*
X40320Y-49584D01*
X40198Y-49765D01*
X40156Y-49980D01*
X40198Y-50194D01*
X40320Y-50375D01*
X40475Y-50479D01*
X40320Y-50584D01*
X40198Y-50765D01*
X40156Y-50980D01*
X40198Y-51194D01*
X40320Y-51375D01*
X40475Y-51480D01*
X40320Y-51584D01*
X40198Y-51765D01*
X40156Y-51980D01*
X40198Y-52194D01*
X40320Y-52375D01*
X40475Y-52480D01*
X40320Y-52584D01*
X40198Y-52765D01*
X40156Y-52980D01*
X40198Y-53194D01*
X40320Y-53375D01*
X40475Y-53480D01*
X40320Y-53584D01*
X40198Y-53765D01*
X40156Y-53980D01*
X40198Y-54194D01*
X40320Y-54375D01*
X40501Y-54497D01*
X40716Y-54540D01*
X41023Y-54540D01*
X41238Y-54497D01*
X41419Y-54375D01*
X41541Y-54194D01*
X41583Y-53980D01*
X41541Y-53765D01*
X41419Y-53584D01*
X41264Y-53480D01*
X41419Y-53375D01*
X41541Y-53194D01*
X41583Y-52980D01*
X41541Y-52765D01*
X41419Y-52584D01*
X41264Y-52480D01*
X41419Y-52375D01*
X41541Y-52194D01*
X41583Y-51980D01*
X41541Y-51765D01*
X41419Y-51584D01*
X41264Y-51480D01*
X41419Y-51375D01*
X41541Y-51194D01*
X41583Y-50980D01*
X41541Y-50765D01*
X41419Y-50584D01*
X41264Y-50479D01*
X41419Y-50375D01*
X41541Y-50194D01*
X41583Y-49980D01*
X41541Y-49765D01*
X41419Y-49584D01*
X41264Y-49479D01*
X41419Y-49375D01*
X41541Y-49194D01*
X41583Y-48980D01*
X41541Y-48765D01*
X41419Y-48584D01*
X41264Y-48479D01*
X41419Y-48375D01*
X41541Y-48194D01*
X41583Y-47980D01*
X41541Y-47770D01*
X42675Y-47770D01*
X42679Y-47780D01*
X42798Y-47900D01*
X42955Y-47964D01*
X43124Y-47965D01*
X43280Y-47900D01*
X43400Y-47781D01*
X43464Y-47624D01*
X43465Y-47455D01*
X43465Y-53362D01*
X43445Y-53371D01*
X43445Y-50545D01*
X43380Y-50389D01*
X43261Y-50269D01*
X43140Y-50219D01*
X43260Y-50170D01*
X43380Y-50051D01*
X43444Y-49894D01*
X43445Y-49725D01*
X43435Y-49701D01*
X43435Y-48395D01*
X43370Y-48239D01*
X43251Y-48119D01*
X43094Y-48055D01*
X42925Y-48054D01*
X42769Y-48119D01*
X42698Y-48190D01*
X42431Y-48190D01*
X42421Y-48179D01*
X42264Y-48115D01*
X42095Y-48114D01*
X41939Y-48179D01*
X41819Y-48298D01*
X41755Y-48455D01*
X41754Y-48624D01*
X41819Y-48780D01*
X41938Y-48900D01*
X42095Y-48964D01*
X42264Y-48965D01*
X42420Y-48900D01*
X42540Y-48781D01*
X42544Y-48770D01*
X42698Y-48770D01*
X42768Y-48840D01*
X42925Y-48904D01*
X43094Y-48905D01*
X43250Y-48840D01*
X43370Y-48721D01*
X43434Y-48564D01*
X43435Y-48395D01*
X43435Y-49701D01*
X43380Y-49569D01*
X43261Y-49449D01*
X43104Y-49385D01*
X42935Y-49384D01*
X42779Y-49449D01*
X42708Y-49520D01*
X42591Y-49520D01*
X42570Y-49469D01*
X42451Y-49349D01*
X42294Y-49285D01*
X42125Y-49284D01*
X41969Y-49349D01*
X41849Y-49468D01*
X41785Y-49625D01*
X41784Y-49794D01*
X41849Y-49950D01*
X41968Y-50070D01*
X42125Y-50134D01*
X42294Y-50135D01*
X42379Y-50100D01*
X42708Y-50100D01*
X42778Y-50170D01*
X42899Y-50220D01*
X42779Y-50269D01*
X42708Y-50340D01*
X42501Y-50340D01*
X42441Y-50279D01*
X42284Y-50215D01*
X42115Y-50214D01*
X41959Y-50279D01*
X41839Y-50398D01*
X41775Y-50555D01*
X41774Y-50724D01*
X41830Y-50858D01*
X41819Y-50868D01*
X41755Y-51025D01*
X41754Y-51194D01*
X41819Y-51350D01*
X41938Y-51470D01*
X42095Y-51534D01*
X42264Y-51535D01*
X42420Y-51470D01*
X42501Y-51390D01*
X42688Y-51390D01*
X42758Y-51460D01*
X42915Y-51524D01*
X43084Y-51525D01*
X43240Y-51460D01*
X43360Y-51341D01*
X43424Y-51184D01*
X43425Y-51015D01*
X43369Y-50881D01*
X43380Y-50871D01*
X43444Y-50714D01*
X43445Y-50545D01*
X43445Y-53371D01*
X43375Y-53399D01*
X43414Y-53304D01*
X43415Y-53135D01*
X43350Y-52979D01*
X43316Y-52945D01*
X43340Y-52921D01*
X43404Y-52764D01*
X43405Y-52595D01*
X43364Y-52496D01*
X43370Y-52491D01*
X43434Y-52334D01*
X43435Y-52165D01*
X43370Y-52009D01*
X43251Y-51889D01*
X43094Y-51825D01*
X42925Y-51824D01*
X42769Y-51889D01*
X42698Y-51960D01*
X42520Y-51960D01*
X42431Y-51869D01*
X42274Y-51805D01*
X42105Y-51804D01*
X41949Y-51869D01*
X41829Y-51988D01*
X41765Y-52145D01*
X41764Y-52314D01*
X41829Y-52470D01*
X41833Y-52474D01*
X41775Y-52615D01*
X41774Y-52784D01*
X41812Y-52876D01*
X41779Y-52908D01*
X41715Y-53065D01*
X41714Y-53234D01*
X41779Y-53390D01*
X41898Y-53510D01*
X42055Y-53574D01*
X42224Y-53575D01*
X42380Y-53510D01*
X42451Y-53440D01*
X42621Y-53440D01*
X42629Y-53460D01*
X42748Y-53580D01*
X42905Y-53644D01*
X43074Y-53645D01*
X43090Y-53638D01*
X43014Y-53821D01*
X43014Y-54051D01*
X43102Y-54265D01*
X43265Y-54428D01*
X43478Y-54516D01*
X43709Y-54517D01*
X43922Y-54428D01*
X44085Y-54265D01*
X44094Y-54244D01*
X44186Y-54273D01*
X44523Y-53937D01*
X44523Y-54078D01*
X44257Y-54344D01*
X44288Y-54443D01*
X44505Y-54521D01*
X44736Y-54511D01*
X44900Y-54443D01*
X44931Y-54344D01*
X44931Y-57012D01*
X44927Y-57016D01*
X44828Y-57253D01*
X44828Y-57509D01*
X44926Y-57746D01*
X45107Y-57927D01*
X45343Y-58025D01*
X45599Y-58025D01*
X45836Y-57927D01*
X46017Y-57746D01*
X46116Y-57510D01*
X46116Y-57254D01*
X46018Y-57017D01*
X45837Y-56836D01*
X45753Y-56801D01*
X45891Y-56744D01*
X46039Y-56596D01*
X46119Y-56404D01*
X46119Y-56236D01*
X46158Y-56275D01*
X46351Y-56355D01*
X46560Y-56355D01*
X46753Y-56276D01*
X46901Y-56128D01*
X46981Y-55935D01*
X46981Y-55726D01*
X46981Y-60360D01*
X46120Y-60360D01*
X46120Y-59257D01*
X46110Y-59001D01*
X46031Y-58809D01*
X45926Y-58770D01*
X45855Y-58841D01*
X45855Y-58699D01*
X45816Y-58594D01*
X45576Y-58505D01*
X45320Y-58515D01*
X45128Y-58594D01*
X45089Y-58699D01*
X45472Y-59082D01*
X45855Y-58699D01*
X45855Y-58841D01*
X45543Y-59153D01*
X45926Y-59536D01*
X46031Y-59497D01*
X46120Y-59257D01*
X46120Y-60360D01*
X45855Y-60360D01*
X45855Y-59607D01*
X45472Y-59224D01*
X45401Y-59294D01*
X45401Y-59153D01*
X45018Y-58770D01*
X44913Y-58809D01*
X44824Y-59049D01*
X44833Y-59305D01*
X44913Y-59497D01*
X45018Y-59536D01*
X45401Y-59153D01*
X45401Y-59294D01*
X45089Y-59607D01*
X45128Y-59712D01*
X45368Y-59801D01*
X45624Y-59792D01*
X45816Y-59712D01*
X45855Y-59607D01*
X45855Y-60360D01*
X43758Y-60360D01*
X43758Y-59257D01*
X43754Y-59144D01*
X43754Y-57254D01*
X43656Y-57017D01*
X43475Y-56836D01*
X43238Y-56738D01*
X42982Y-56738D01*
X42944Y-56753D01*
X42944Y-56691D01*
X43039Y-56596D01*
X43119Y-56404D01*
X43119Y-56195D01*
X43039Y-56002D01*
X42892Y-55854D01*
X42699Y-55774D01*
X42490Y-55774D01*
X42297Y-55853D01*
X42149Y-56001D01*
X42069Y-56194D01*
X42069Y-56403D01*
X42149Y-56596D01*
X42228Y-56676D01*
X42130Y-56774D01*
X42115Y-56774D01*
X41959Y-56839D01*
X41839Y-56958D01*
X41775Y-57115D01*
X41774Y-57284D01*
X41839Y-57440D01*
X41958Y-57560D01*
X42115Y-57624D01*
X42284Y-57625D01*
X42440Y-57560D01*
X42473Y-57527D01*
X42564Y-57746D01*
X42745Y-57927D01*
X42981Y-58025D01*
X43237Y-58025D01*
X43474Y-57927D01*
X43655Y-57746D01*
X43753Y-57510D01*
X43754Y-57254D01*
X43754Y-59144D01*
X43748Y-59001D01*
X43669Y-58809D01*
X43563Y-58770D01*
X43493Y-58841D01*
X43493Y-58699D01*
X43454Y-58594D01*
X43214Y-58505D01*
X42958Y-58515D01*
X42766Y-58594D01*
X42727Y-58699D01*
X43110Y-59082D01*
X43493Y-58699D01*
X43493Y-58841D01*
X43180Y-59153D01*
X43563Y-59536D01*
X43669Y-59497D01*
X43758Y-59257D01*
X43758Y-60360D01*
X43493Y-60360D01*
X43493Y-59607D01*
X43110Y-59224D01*
X43039Y-59294D01*
X43039Y-59153D01*
X42656Y-58770D01*
X42551Y-58809D01*
X42462Y-59049D01*
X42471Y-59305D01*
X42551Y-59497D01*
X42656Y-59536D01*
X43039Y-59153D01*
X43039Y-59294D01*
X42727Y-59607D01*
X42766Y-59712D01*
X43006Y-59801D01*
X43261Y-59792D01*
X43454Y-59712D01*
X43493Y-59607D01*
X43493Y-60360D01*
X38583Y-60360D01*
X38583Y-52980D01*
X38541Y-52765D01*
X38419Y-52584D01*
X38264Y-52480D01*
X38419Y-52375D01*
X38541Y-52194D01*
X38583Y-51980D01*
X38541Y-51765D01*
X38419Y-51584D01*
X38264Y-51480D01*
X38419Y-51375D01*
X38541Y-51194D01*
X38583Y-50980D01*
X38583Y-47980D01*
X38541Y-47765D01*
X38419Y-47584D01*
X38264Y-47479D01*
X38419Y-47375D01*
X38541Y-47194D01*
X38583Y-46980D01*
X38541Y-46765D01*
X38419Y-46584D01*
X38353Y-46540D01*
X38369Y-46540D01*
X38461Y-46502D01*
X38531Y-46431D01*
X38569Y-46339D01*
X38570Y-46240D01*
X38570Y-45620D01*
X38532Y-45528D01*
X38461Y-45458D01*
X38369Y-45420D01*
X38270Y-45419D01*
X37370Y-45419D01*
X37335Y-45434D01*
X37241Y-45339D01*
X37084Y-45275D01*
X36915Y-45274D01*
X36759Y-45339D01*
X36639Y-45458D01*
X36575Y-45615D01*
X36574Y-45784D01*
X36639Y-45940D01*
X36710Y-46011D01*
X36710Y-47400D01*
X36732Y-47510D01*
X36794Y-47605D01*
X37158Y-47968D01*
X37156Y-47980D01*
X37198Y-48194D01*
X37320Y-48375D01*
X37475Y-48479D01*
X37469Y-48481D01*
X37298Y-48619D01*
X37193Y-48811D01*
X37186Y-48843D01*
X37235Y-48930D01*
X37820Y-48930D01*
X37820Y-48922D01*
X37920Y-48922D01*
X37920Y-48930D01*
X38504Y-48930D01*
X38553Y-48843D01*
X38546Y-48811D01*
X38441Y-48619D01*
X38270Y-48481D01*
X38264Y-48479D01*
X38419Y-48375D01*
X38541Y-48194D01*
X38583Y-47980D01*
X38583Y-50980D01*
X38541Y-50765D01*
X38419Y-50584D01*
X38264Y-50480D01*
X38270Y-50478D01*
X38441Y-50340D01*
X38546Y-50148D01*
X38553Y-50116D01*
X38553Y-49843D01*
X38546Y-49811D01*
X38441Y-49619D01*
X38270Y-49481D01*
X38264Y-49480D01*
X38270Y-49478D01*
X38441Y-49340D01*
X38546Y-49148D01*
X38553Y-49116D01*
X38504Y-49030D01*
X37920Y-49030D01*
X37920Y-49420D01*
X37920Y-49540D01*
X37920Y-49930D01*
X38504Y-49930D01*
X38553Y-49843D01*
X38553Y-50116D01*
X38504Y-50030D01*
X37920Y-50030D01*
X37920Y-50037D01*
X37820Y-50037D01*
X37820Y-50030D01*
X37820Y-49930D01*
X37820Y-49540D01*
X37820Y-49420D01*
X37820Y-49030D01*
X37235Y-49030D01*
X37186Y-49116D01*
X37193Y-49148D01*
X37298Y-49340D01*
X37469Y-49478D01*
X37475Y-49480D01*
X37469Y-49481D01*
X37298Y-49619D01*
X37193Y-49811D01*
X37186Y-49843D01*
X37235Y-49930D01*
X37820Y-49930D01*
X37820Y-50030D01*
X37235Y-50030D01*
X37186Y-50116D01*
X37193Y-50148D01*
X37298Y-50340D01*
X37469Y-50478D01*
X37475Y-50480D01*
X37320Y-50584D01*
X37198Y-50765D01*
X37156Y-50980D01*
X37198Y-51194D01*
X37320Y-51375D01*
X37475Y-51480D01*
X37320Y-51584D01*
X37198Y-51765D01*
X37156Y-51980D01*
X37198Y-52194D01*
X37320Y-52375D01*
X37475Y-52480D01*
X37320Y-52584D01*
X37198Y-52765D01*
X37156Y-52980D01*
X37198Y-53194D01*
X37320Y-53375D01*
X37475Y-53479D01*
X37469Y-53481D01*
X37298Y-53619D01*
X37193Y-53811D01*
X37186Y-53843D01*
X37235Y-53930D01*
X37820Y-53930D01*
X37820Y-53922D01*
X37920Y-53922D01*
X37920Y-53930D01*
X38504Y-53930D01*
X38553Y-53843D01*
X38546Y-53811D01*
X38441Y-53619D01*
X38270Y-53481D01*
X38264Y-53479D01*
X38419Y-53375D01*
X38541Y-53194D01*
X38583Y-52980D01*
X38583Y-60360D01*
X38553Y-60360D01*
X38553Y-54116D01*
X38504Y-54030D01*
X37920Y-54030D01*
X37920Y-54540D01*
X38060Y-54540D01*
X38270Y-54478D01*
X38441Y-54340D01*
X38546Y-54148D01*
X38553Y-54116D01*
X38553Y-60360D01*
X37820Y-60360D01*
X37820Y-54540D01*
X37820Y-54030D01*
X37235Y-54030D01*
X37186Y-54116D01*
X37193Y-54148D01*
X37298Y-54340D01*
X37469Y-54478D01*
X37680Y-54540D01*
X37820Y-54540D01*
X37820Y-60360D01*
X35702Y-60360D01*
X35702Y-29245D01*
X38773Y-26174D01*
X38831Y-26087D01*
X38852Y-25984D01*
X38852Y-25984D01*
X38852Y-23672D01*
X45491Y-23672D01*
X45459Y-23703D01*
X45375Y-23905D01*
X45375Y-24124D01*
X45458Y-24326D01*
X45613Y-24481D01*
X45706Y-24520D01*
X45659Y-24539D01*
X45539Y-24658D01*
X45475Y-24815D01*
X45474Y-24984D01*
X45539Y-25140D01*
X45600Y-25201D01*
X45600Y-25300D01*
X45622Y-25414D01*
X45687Y-25512D01*
X45775Y-25599D01*
X45774Y-25684D01*
X45839Y-25840D01*
X45958Y-25960D01*
X46115Y-26024D01*
X46284Y-26025D01*
X46440Y-25960D01*
X46560Y-25841D01*
X46624Y-25684D01*
X46625Y-25515D01*
X46560Y-25359D01*
X46441Y-25239D01*
X46284Y-25175D01*
X46226Y-25175D01*
X46260Y-25141D01*
X46324Y-24984D01*
X46325Y-24815D01*
X46260Y-24659D01*
X46141Y-24539D01*
X46119Y-24530D01*
X46236Y-24482D01*
X46391Y-24327D01*
X46425Y-24245D01*
X46458Y-24326D01*
X46613Y-24481D01*
X46815Y-24565D01*
X47034Y-24565D01*
X47236Y-24482D01*
X47391Y-24327D01*
X47422Y-24252D01*
X47443Y-24303D01*
X47539Y-24330D01*
X47854Y-24015D01*
X47848Y-24010D01*
X47919Y-23939D01*
X47925Y-23945D01*
X47930Y-23939D01*
X48001Y-24010D01*
X47995Y-24015D01*
X48311Y-24330D01*
X48406Y-24303D01*
X48426Y-24248D01*
X48458Y-24326D01*
X48613Y-24481D01*
X48815Y-24565D01*
X49034Y-24565D01*
X49236Y-24482D01*
X49391Y-24327D01*
X49425Y-24245D01*
X49458Y-24326D01*
X49613Y-24481D01*
X49815Y-24565D01*
X50034Y-24565D01*
X50236Y-24482D01*
X50375Y-24343D01*
X50375Y-24365D01*
X50413Y-24457D01*
X50483Y-24527D01*
X50575Y-24565D01*
X50674Y-24565D01*
X51274Y-24565D01*
X51366Y-24527D01*
X51437Y-24457D01*
X51475Y-24365D01*
X51475Y-24266D01*
X51475Y-23672D01*
X52092Y-23672D01*
X52092Y-29133D01*
X52113Y-29237D01*
X52171Y-29324D01*
X58864Y-36017D01*
X58864Y-36017D01*
X58951Y-36075D01*
X59055Y-36096D01*
X61541Y-36096D01*
X61541Y-37795D01*
X61561Y-37898D01*
X61620Y-37985D01*
X67446Y-43812D01*
X67446Y-55006D01*
X67446Y-55006D01*
G37*
G54D25*
X67446Y-55006D02*
X66913Y-55539D01*
X66913Y-54000D01*
X66871Y-53785D01*
X66749Y-53604D01*
X66594Y-53500D01*
X66749Y-53395D01*
X66871Y-53214D01*
X66913Y-53000D01*
X66871Y-52785D01*
X66749Y-52604D01*
X66594Y-52500D01*
X66749Y-52395D01*
X66871Y-52214D01*
X66913Y-52000D01*
X66871Y-51785D01*
X66749Y-51604D01*
X66594Y-51500D01*
X66749Y-51395D01*
X66871Y-51214D01*
X66913Y-51000D01*
X66871Y-50785D01*
X66749Y-50604D01*
X66594Y-50499D01*
X66749Y-50395D01*
X66871Y-50214D01*
X66913Y-50000D01*
X66871Y-49785D01*
X66749Y-49604D01*
X66594Y-49499D01*
X66749Y-49395D01*
X66871Y-49214D01*
X66913Y-49000D01*
X66871Y-48785D01*
X66749Y-48604D01*
X66594Y-48499D01*
X66749Y-48395D01*
X66871Y-48214D01*
X66913Y-48000D01*
X66871Y-47785D01*
X66749Y-47604D01*
X66594Y-47499D01*
X66749Y-47395D01*
X66871Y-47214D01*
X66913Y-47000D01*
X66871Y-46785D01*
X66749Y-46604D01*
X66594Y-46499D01*
X66749Y-46395D01*
X66871Y-46214D01*
X66913Y-46000D01*
X66871Y-45785D01*
X66749Y-45604D01*
X66568Y-45482D01*
X66353Y-45440D01*
X66046Y-45440D01*
X65831Y-45482D01*
X65650Y-45604D01*
X65606Y-45670D01*
X64800Y-45670D01*
X64799Y-45670D01*
X64774Y-45674D01*
X64673Y-45695D01*
X64566Y-45766D01*
X64566Y-45766D01*
X64458Y-45874D01*
X64415Y-45874D01*
X64259Y-45939D01*
X64139Y-46058D01*
X64075Y-46215D01*
X64074Y-46384D01*
X64139Y-46540D01*
X64258Y-46660D01*
X64415Y-46724D01*
X64584Y-46725D01*
X64740Y-46660D01*
X64860Y-46541D01*
X64924Y-46384D01*
X64924Y-46341D01*
X64936Y-46330D01*
X65606Y-46330D01*
X65650Y-46395D01*
X65805Y-46499D01*
X65650Y-46604D01*
X65528Y-46785D01*
X65486Y-47000D01*
X65528Y-47214D01*
X65650Y-47395D01*
X65805Y-47499D01*
X65650Y-47604D01*
X65528Y-47785D01*
X65486Y-48000D01*
X65528Y-48214D01*
X65650Y-48395D01*
X65805Y-48499D01*
X65650Y-48604D01*
X65528Y-48785D01*
X65486Y-49000D01*
X65528Y-49214D01*
X65650Y-49395D01*
X65805Y-49499D01*
X65650Y-49604D01*
X65528Y-49785D01*
X65486Y-50000D01*
X65528Y-50214D01*
X65650Y-50395D01*
X65805Y-50499D01*
X65650Y-50604D01*
X65528Y-50785D01*
X65486Y-51000D01*
X65528Y-51214D01*
X65650Y-51395D01*
X65805Y-51500D01*
X65650Y-51604D01*
X65528Y-51785D01*
X65486Y-52000D01*
X65528Y-52214D01*
X65650Y-52395D01*
X65805Y-52500D01*
X65650Y-52604D01*
X65528Y-52785D01*
X65486Y-53000D01*
X65528Y-53214D01*
X65650Y-53395D01*
X65805Y-53500D01*
X65650Y-53604D01*
X65528Y-53785D01*
X65486Y-54000D01*
X65528Y-54214D01*
X65650Y-54395D01*
X65831Y-54517D01*
X66046Y-54560D01*
X66353Y-54560D01*
X66568Y-54517D01*
X66749Y-54395D01*
X66871Y-54214D01*
X66913Y-54000D01*
X66913Y-55539D01*
X66738Y-55714D01*
X65125Y-57328D01*
X65125Y-51015D01*
X65060Y-50859D01*
X64941Y-50739D01*
X64784Y-50675D01*
X64615Y-50674D01*
X64459Y-50739D01*
X64339Y-50858D01*
X64275Y-51015D01*
X64274Y-51184D01*
X64338Y-51337D01*
X64300Y-51375D01*
X64215Y-51374D01*
X64059Y-51439D01*
X63939Y-51558D01*
X63875Y-51715D01*
X63874Y-51805D01*
X63871Y-51785D01*
X63749Y-51604D01*
X63594Y-51500D01*
X63749Y-51395D01*
X63871Y-51214D01*
X63913Y-51000D01*
X63871Y-50785D01*
X63749Y-50604D01*
X63594Y-50499D01*
X63749Y-50395D01*
X63871Y-50214D01*
X63913Y-50000D01*
X63871Y-49785D01*
X63749Y-49604D01*
X63594Y-49499D01*
X63749Y-49395D01*
X63871Y-49214D01*
X63913Y-49000D01*
X63871Y-48785D01*
X63749Y-48604D01*
X63594Y-48499D01*
X63749Y-48395D01*
X63871Y-48214D01*
X63913Y-48000D01*
X63871Y-47785D01*
X63749Y-47604D01*
X63594Y-47499D01*
X63749Y-47395D01*
X63871Y-47214D01*
X63913Y-47000D01*
X63871Y-46785D01*
X63749Y-46604D01*
X63683Y-46560D01*
X63699Y-46560D01*
X63791Y-46522D01*
X63861Y-46451D01*
X63899Y-46359D01*
X63900Y-46260D01*
X63900Y-45640D01*
X63862Y-45548D01*
X63791Y-45478D01*
X63699Y-45440D01*
X63600Y-45439D01*
X62700Y-45439D01*
X62608Y-45477D01*
X62538Y-45548D01*
X62500Y-45640D01*
X62499Y-45739D01*
X62499Y-46359D01*
X62537Y-46451D01*
X62608Y-46521D01*
X62700Y-46559D01*
X62716Y-46559D01*
X62650Y-46604D01*
X62528Y-46785D01*
X62486Y-47000D01*
X62528Y-47214D01*
X62650Y-47395D01*
X62805Y-47499D01*
X62650Y-47604D01*
X62528Y-47785D01*
X62486Y-48000D01*
X62528Y-48214D01*
X62650Y-48395D01*
X62805Y-48499D01*
X62650Y-48604D01*
X62528Y-48785D01*
X62486Y-49000D01*
X62528Y-49214D01*
X62650Y-49395D01*
X62805Y-49499D01*
X62650Y-49604D01*
X62528Y-49785D01*
X62486Y-50000D01*
X62528Y-50214D01*
X62650Y-50395D01*
X62805Y-50499D01*
X62650Y-50604D01*
X62528Y-50785D01*
X62486Y-51000D01*
X62528Y-51214D01*
X62650Y-51395D01*
X62805Y-51500D01*
X62650Y-51604D01*
X62528Y-51785D01*
X62486Y-52000D01*
X62528Y-52214D01*
X62650Y-52395D01*
X62805Y-52500D01*
X62650Y-52604D01*
X62528Y-52785D01*
X62486Y-53000D01*
X62528Y-53214D01*
X62650Y-53395D01*
X62805Y-53499D01*
X62799Y-53501D01*
X62628Y-53639D01*
X62523Y-53831D01*
X62516Y-53863D01*
X62565Y-53950D01*
X63150Y-53950D01*
X63150Y-53942D01*
X63250Y-53942D01*
X63250Y-53950D01*
X63834Y-53950D01*
X63883Y-53863D01*
X63876Y-53831D01*
X63771Y-53639D01*
X63600Y-53501D01*
X63594Y-53499D01*
X63749Y-53395D01*
X63871Y-53214D01*
X63913Y-53000D01*
X63871Y-52785D01*
X63749Y-52604D01*
X63594Y-52500D01*
X63749Y-52395D01*
X63871Y-52214D01*
X63913Y-52000D01*
X63905Y-51957D01*
X63939Y-52040D01*
X64058Y-52160D01*
X64215Y-52224D01*
X64384Y-52225D01*
X64540Y-52160D01*
X64660Y-52041D01*
X64724Y-51884D01*
X64725Y-51799D01*
X64912Y-51612D01*
X64912Y-51612D01*
X64977Y-51514D01*
X64999Y-51401D01*
X64999Y-51401D01*
X65060Y-51341D01*
X65124Y-51184D01*
X65125Y-51015D01*
X65125Y-57328D01*
X63883Y-58570D01*
X63883Y-54136D01*
X63834Y-54050D01*
X63250Y-54050D01*
X63250Y-54560D01*
X63390Y-54560D01*
X63600Y-54498D01*
X63771Y-54360D01*
X63876Y-54168D01*
X63883Y-54136D01*
X63883Y-58570D01*
X63150Y-59303D01*
X63150Y-54560D01*
X63150Y-54050D01*
X62565Y-54050D01*
X62516Y-54136D01*
X62523Y-54168D01*
X62628Y-54360D01*
X62799Y-54498D01*
X63010Y-54560D01*
X63150Y-54560D01*
X63150Y-59303D01*
X62407Y-60045D01*
X62407Y-60045D01*
X62225Y-60228D01*
X62225Y-44415D01*
X62160Y-44259D01*
X62041Y-44139D01*
X61884Y-44075D01*
X61790Y-44074D01*
X61790Y-43311D01*
X61860Y-43241D01*
X61924Y-43084D01*
X61925Y-42915D01*
X61860Y-42759D01*
X61741Y-42639D01*
X61584Y-42575D01*
X61415Y-42574D01*
X61259Y-42639D01*
X61139Y-42758D01*
X61099Y-42856D01*
X60919Y-42856D01*
X60879Y-42873D01*
X60879Y-39537D01*
X60879Y-38513D01*
X60841Y-38421D01*
X60771Y-38351D01*
X60679Y-38313D01*
X60580Y-38312D01*
X59793Y-38312D01*
X59701Y-38350D01*
X59630Y-38421D01*
X59592Y-38513D01*
X59592Y-38612D01*
X59592Y-39636D01*
X59630Y-39728D01*
X59700Y-39798D01*
X59792Y-39836D01*
X59892Y-39836D01*
X60679Y-39836D01*
X60771Y-39798D01*
X60841Y-39728D01*
X60879Y-39636D01*
X60879Y-39537D01*
X60879Y-42873D01*
X60726Y-42936D01*
X60578Y-43084D01*
X60498Y-43277D01*
X60498Y-43485D01*
X60578Y-43678D01*
X60725Y-43826D01*
X60918Y-43906D01*
X61127Y-43906D01*
X61210Y-43872D01*
X61210Y-44200D01*
X61232Y-44310D01*
X61294Y-44405D01*
X61375Y-44485D01*
X61374Y-44584D01*
X61439Y-44740D01*
X61558Y-44860D01*
X61715Y-44924D01*
X61884Y-44925D01*
X62040Y-44860D01*
X62160Y-44741D01*
X62224Y-44584D01*
X62225Y-44415D01*
X62225Y-60228D01*
X62093Y-60360D01*
X61548Y-60360D01*
X61548Y-55726D01*
X61548Y-52726D01*
X61548Y-51396D01*
X61548Y-48396D01*
X61548Y-46277D01*
X61468Y-46084D01*
X61321Y-45937D01*
X61128Y-45856D01*
X60919Y-45856D01*
X60726Y-45936D01*
X60578Y-46084D01*
X60498Y-46277D01*
X60498Y-46485D01*
X60578Y-46678D01*
X60725Y-46826D01*
X60918Y-46906D01*
X61127Y-46906D01*
X61320Y-46827D01*
X61468Y-46679D01*
X61548Y-46486D01*
X61548Y-46277D01*
X61548Y-48396D01*
X61468Y-48203D01*
X61321Y-48055D01*
X61128Y-47975D01*
X60919Y-47974D01*
X60726Y-48054D01*
X60578Y-48202D01*
X60498Y-48395D01*
X60498Y-48603D01*
X60578Y-48797D01*
X60725Y-48944D01*
X60918Y-49024D01*
X61127Y-49025D01*
X61320Y-48945D01*
X61468Y-48797D01*
X61548Y-48604D01*
X61548Y-48396D01*
X61548Y-51396D01*
X61468Y-51203D01*
X61321Y-51055D01*
X61128Y-50975D01*
X60919Y-50974D01*
X60726Y-51054D01*
X60578Y-51202D01*
X60498Y-51395D01*
X60498Y-51603D01*
X60578Y-51797D01*
X60725Y-51944D01*
X60918Y-52024D01*
X61127Y-52025D01*
X61320Y-51945D01*
X61468Y-51797D01*
X61548Y-51604D01*
X61548Y-51396D01*
X61548Y-52726D01*
X61468Y-52533D01*
X61321Y-52385D01*
X61128Y-52305D01*
X60919Y-52305D01*
X60726Y-52385D01*
X60578Y-52532D01*
X60498Y-52725D01*
X60498Y-52934D01*
X60578Y-53127D01*
X60725Y-53275D01*
X60918Y-53355D01*
X61127Y-53355D01*
X61320Y-53276D01*
X61468Y-53128D01*
X61548Y-52935D01*
X61548Y-52726D01*
X61548Y-55726D01*
X61468Y-55533D01*
X61321Y-55385D01*
X61128Y-55305D01*
X60919Y-55305D01*
X60726Y-55385D01*
X60578Y-55532D01*
X60498Y-55725D01*
X60498Y-55893D01*
X60459Y-55854D01*
X60266Y-55774D01*
X60250Y-55774D01*
X60250Y-42056D01*
X60250Y-41505D01*
X60212Y-41413D01*
X60141Y-41343D01*
X60049Y-41305D01*
X59950Y-41305D01*
X59241Y-41305D01*
X59153Y-41341D01*
X59065Y-41305D01*
X58966Y-41305D01*
X58257Y-41305D01*
X58169Y-41341D01*
X58081Y-41305D01*
X57981Y-41305D01*
X57631Y-41305D01*
X57631Y-39438D01*
X57631Y-38415D01*
X57593Y-38323D01*
X57523Y-38252D01*
X57431Y-38214D01*
X57332Y-38214D01*
X56544Y-38214D01*
X56453Y-38252D01*
X56382Y-38322D01*
X56344Y-38414D01*
X56344Y-38514D01*
X56344Y-39537D01*
X56382Y-39629D01*
X56452Y-39700D01*
X56544Y-39738D01*
X56643Y-39738D01*
X57431Y-39738D01*
X57523Y-39700D01*
X57593Y-39629D01*
X57631Y-39538D01*
X57631Y-39438D01*
X57631Y-41305D01*
X57273Y-41305D01*
X57181Y-41343D01*
X57111Y-41413D01*
X57072Y-41505D01*
X57072Y-41604D01*
X57072Y-42155D01*
X57110Y-42247D01*
X57181Y-42318D01*
X57272Y-42356D01*
X57372Y-42356D01*
X58081Y-42356D01*
X58169Y-42319D01*
X58257Y-42356D01*
X58356Y-42356D01*
X59065Y-42356D01*
X59153Y-42319D01*
X59241Y-42356D01*
X59340Y-42356D01*
X60049Y-42356D01*
X60141Y-42318D01*
X60211Y-42248D01*
X60249Y-42156D01*
X60250Y-42056D01*
X60250Y-55774D01*
X60057Y-55774D01*
X59864Y-55853D01*
X59746Y-55972D01*
X59746Y-54025D01*
X59746Y-44970D01*
X59735Y-44740D01*
X59667Y-44575D01*
X59569Y-44544D01*
X59498Y-44615D01*
X59498Y-44474D01*
X59467Y-44375D01*
X59250Y-44297D01*
X59019Y-44307D01*
X58855Y-44375D01*
X58824Y-44474D01*
X59161Y-44811D01*
X59498Y-44474D01*
X59498Y-44615D01*
X59232Y-44881D01*
X59569Y-45218D01*
X59667Y-45187D01*
X59746Y-44970D01*
X59746Y-54025D01*
X59735Y-53795D01*
X59667Y-53631D01*
X59569Y-53600D01*
X59498Y-53670D01*
X59498Y-53529D01*
X59498Y-45289D01*
X59161Y-44952D01*
X59090Y-45023D01*
X59090Y-44881D01*
X58753Y-44544D01*
X58661Y-44573D01*
X58653Y-44553D01*
X58490Y-44390D01*
X58277Y-44301D01*
X58046Y-44301D01*
X57833Y-44389D01*
X57670Y-44552D01*
X57581Y-44766D01*
X57581Y-44996D01*
X57669Y-45210D01*
X57832Y-45373D01*
X58045Y-45461D01*
X58276Y-45461D01*
X58489Y-45373D01*
X58652Y-45210D01*
X58661Y-45189D01*
X58753Y-45218D01*
X59090Y-44881D01*
X59090Y-45023D01*
X58824Y-45289D01*
X58855Y-45387D01*
X59072Y-45466D01*
X59302Y-45456D01*
X59467Y-45387D01*
X59498Y-45289D01*
X59498Y-53529D01*
X59484Y-53485D01*
X59484Y-47999D01*
X59475Y-47741D01*
X59394Y-47546D01*
X59288Y-47506D01*
X59217Y-47577D01*
X59217Y-47435D01*
X59178Y-47330D01*
X58935Y-47239D01*
X58677Y-47249D01*
X58482Y-47330D01*
X58442Y-47435D01*
X58830Y-47823D01*
X59217Y-47435D01*
X59217Y-47577D01*
X58901Y-47894D01*
X59288Y-48281D01*
X59394Y-48242D01*
X59484Y-47999D01*
X59484Y-53485D01*
X59480Y-53472D01*
X59480Y-51465D01*
X59480Y-49615D01*
X59381Y-49376D01*
X59217Y-49212D01*
X59217Y-48352D01*
X58830Y-47964D01*
X58759Y-48035D01*
X58759Y-47894D01*
X58372Y-47506D01*
X58266Y-47546D01*
X58176Y-47788D01*
X58185Y-48046D01*
X58266Y-48242D01*
X58372Y-48281D01*
X58759Y-47894D01*
X58759Y-48035D01*
X58442Y-48352D01*
X58482Y-48458D01*
X58724Y-48548D01*
X58983Y-48538D01*
X59178Y-48458D01*
X59217Y-48352D01*
X59217Y-49212D01*
X59198Y-49193D01*
X58960Y-49094D01*
X58701Y-49093D01*
X58462Y-49192D01*
X58279Y-49375D01*
X58180Y-49614D01*
X58180Y-49872D01*
X58278Y-50111D01*
X58461Y-50294D01*
X58700Y-50393D01*
X58959Y-50394D01*
X59198Y-50295D01*
X59381Y-50112D01*
X59480Y-49873D01*
X59480Y-49615D01*
X59480Y-51465D01*
X59381Y-51226D01*
X59198Y-51043D01*
X58960Y-50944D01*
X58701Y-50943D01*
X58462Y-51042D01*
X58279Y-51225D01*
X58180Y-51464D01*
X58180Y-51722D01*
X58278Y-51961D01*
X58461Y-52144D01*
X58700Y-52243D01*
X58959Y-52244D01*
X59198Y-52145D01*
X59381Y-51962D01*
X59480Y-51723D01*
X59480Y-51465D01*
X59480Y-53472D01*
X59467Y-53430D01*
X59250Y-53352D01*
X59019Y-53362D01*
X58855Y-53430D01*
X58824Y-53529D01*
X59161Y-53866D01*
X59498Y-53529D01*
X59498Y-53670D01*
X59232Y-53937D01*
X59569Y-54273D01*
X59667Y-54242D01*
X59746Y-54025D01*
X59746Y-55972D01*
X59716Y-56001D01*
X59636Y-56194D01*
X59636Y-56403D01*
X59716Y-56596D01*
X59863Y-56744D01*
X59880Y-56751D01*
X59675Y-56835D01*
X59498Y-57012D01*
X59498Y-54344D01*
X59161Y-54007D01*
X59090Y-54078D01*
X59090Y-53937D01*
X58753Y-53600D01*
X58661Y-53629D01*
X58653Y-53608D01*
X58490Y-53445D01*
X58277Y-53357D01*
X58046Y-53356D01*
X57833Y-53445D01*
X57670Y-53608D01*
X57581Y-53821D01*
X57581Y-54051D01*
X57669Y-54265D01*
X57832Y-54428D01*
X58045Y-54516D01*
X58276Y-54517D01*
X58489Y-54428D01*
X58652Y-54265D01*
X58661Y-54244D01*
X58753Y-54273D01*
X59090Y-53937D01*
X59090Y-54078D01*
X58824Y-54344D01*
X58855Y-54443D01*
X59072Y-54521D01*
X59302Y-54511D01*
X59467Y-54443D01*
X59498Y-54344D01*
X59498Y-57012D01*
X59493Y-57016D01*
X59395Y-57253D01*
X59395Y-57509D01*
X59493Y-57746D01*
X59674Y-57927D01*
X59910Y-58025D01*
X60166Y-58025D01*
X60403Y-57927D01*
X60584Y-57746D01*
X60682Y-57510D01*
X60683Y-57254D01*
X60585Y-57017D01*
X60404Y-56836D01*
X60320Y-56801D01*
X60458Y-56744D01*
X60606Y-56596D01*
X60686Y-56404D01*
X60686Y-56236D01*
X60725Y-56275D01*
X60918Y-56355D01*
X61127Y-56355D01*
X61320Y-56276D01*
X61468Y-56128D01*
X61548Y-55935D01*
X61548Y-55726D01*
X61548Y-60360D01*
X60687Y-60360D01*
X60687Y-59257D01*
X60677Y-59001D01*
X60598Y-58809D01*
X60493Y-58770D01*
X60422Y-58841D01*
X60422Y-58699D01*
X60383Y-58594D01*
X60143Y-58505D01*
X59887Y-58515D01*
X59695Y-58594D01*
X59656Y-58699D01*
X60039Y-59082D01*
X60422Y-58699D01*
X60422Y-58841D01*
X60110Y-59153D01*
X60493Y-59536D01*
X60598Y-59497D01*
X60687Y-59257D01*
X60687Y-60360D01*
X60422Y-60360D01*
X60422Y-59607D01*
X60039Y-59224D01*
X59968Y-59294D01*
X59968Y-59153D01*
X59585Y-58770D01*
X59480Y-58809D01*
X59391Y-59049D01*
X59400Y-59305D01*
X59480Y-59497D01*
X59585Y-59536D01*
X59968Y-59153D01*
X59968Y-59294D01*
X59656Y-59607D01*
X59695Y-59712D01*
X59935Y-59801D01*
X60191Y-59792D01*
X60383Y-59712D01*
X60422Y-59607D01*
X60422Y-60360D01*
X58325Y-60360D01*
X58325Y-59257D01*
X58320Y-59144D01*
X58320Y-57254D01*
X58223Y-57017D01*
X58042Y-56836D01*
X57805Y-56738D01*
X57549Y-56738D01*
X57474Y-56769D01*
X57452Y-56747D01*
X57458Y-56744D01*
X57606Y-56596D01*
X57686Y-56404D01*
X57686Y-56195D01*
X57606Y-56002D01*
X57459Y-55854D01*
X57266Y-55774D01*
X57057Y-55774D01*
X56864Y-55853D01*
X56824Y-55894D01*
X56824Y-55726D01*
X56824Y-52726D01*
X56824Y-51396D01*
X56824Y-48396D01*
X56824Y-46277D01*
X56824Y-43277D01*
X56744Y-43084D01*
X56596Y-42937D01*
X56404Y-42856D01*
X56195Y-42856D01*
X56155Y-42873D01*
X56155Y-39537D01*
X56155Y-38513D01*
X56117Y-38421D01*
X56047Y-38351D01*
X55955Y-38313D01*
X55856Y-38312D01*
X55068Y-38312D01*
X54976Y-38350D01*
X54906Y-38421D01*
X54868Y-38513D01*
X54868Y-38612D01*
X54868Y-39636D01*
X54906Y-39728D01*
X54976Y-39798D01*
X55068Y-39836D01*
X55167Y-39836D01*
X55955Y-39836D01*
X56046Y-39798D01*
X56117Y-39728D01*
X56155Y-39636D01*
X56155Y-39537D01*
X56155Y-42873D01*
X56002Y-42936D01*
X55854Y-43084D01*
X55774Y-43277D01*
X55774Y-43485D01*
X55853Y-43678D01*
X56001Y-43826D01*
X56194Y-43906D01*
X56403Y-43906D01*
X56596Y-43827D01*
X56744Y-43679D01*
X56824Y-43486D01*
X56824Y-43277D01*
X56824Y-46277D01*
X56744Y-46084D01*
X56596Y-45937D01*
X56404Y-45856D01*
X56195Y-45856D01*
X56002Y-45936D01*
X55854Y-46084D01*
X55774Y-46277D01*
X55774Y-46485D01*
X55853Y-46678D01*
X56001Y-46826D01*
X56194Y-46906D01*
X56403Y-46906D01*
X56596Y-46827D01*
X56744Y-46679D01*
X56824Y-46486D01*
X56824Y-46277D01*
X56824Y-48396D01*
X56744Y-48203D01*
X56596Y-48055D01*
X56404Y-47975D01*
X56195Y-47974D01*
X56002Y-48054D01*
X55854Y-48202D01*
X55774Y-48395D01*
X55774Y-48603D01*
X55853Y-48797D01*
X56001Y-48944D01*
X56194Y-49024D01*
X56403Y-49025D01*
X56596Y-48945D01*
X56744Y-48797D01*
X56824Y-48604D01*
X56824Y-48396D01*
X56824Y-51396D01*
X56744Y-51203D01*
X56596Y-51055D01*
X56404Y-50975D01*
X56195Y-50974D01*
X56002Y-51054D01*
X55854Y-51202D01*
X55774Y-51395D01*
X55774Y-51603D01*
X55853Y-51797D01*
X56001Y-51944D01*
X56194Y-52024D01*
X56403Y-52025D01*
X56596Y-51945D01*
X56744Y-51797D01*
X56824Y-51604D01*
X56824Y-51396D01*
X56824Y-52726D01*
X56744Y-52533D01*
X56596Y-52385D01*
X56404Y-52305D01*
X56195Y-52305D01*
X56002Y-52385D01*
X55854Y-52532D01*
X55774Y-52725D01*
X55774Y-52913D01*
X55690Y-52828D01*
X55690Y-52820D01*
X55689Y-52819D01*
X55690Y-52819D01*
X55667Y-52709D01*
X55605Y-52614D01*
X55605Y-52614D01*
X55525Y-52535D01*
X55525Y-42056D01*
X55525Y-41505D01*
X55487Y-41413D01*
X55417Y-41343D01*
X55325Y-41305D01*
X55226Y-41305D01*
X54517Y-41305D01*
X54429Y-41341D01*
X54341Y-41305D01*
X54241Y-41305D01*
X53533Y-41305D01*
X53444Y-41341D01*
X53357Y-41305D01*
X53257Y-41305D01*
X53125Y-41305D01*
X53125Y-31515D01*
X53060Y-31359D01*
X52941Y-31239D01*
X52784Y-31175D01*
X52699Y-31174D01*
X52536Y-31012D01*
X52439Y-30947D01*
X52324Y-30924D01*
X50725Y-30924D01*
X50725Y-28215D01*
X50660Y-28059D01*
X50541Y-27939D01*
X50384Y-27875D01*
X50215Y-27874D01*
X50071Y-27934D01*
X49399Y-27934D01*
X49383Y-27856D01*
X49262Y-27674D01*
X49250Y-27666D01*
X49250Y-26950D01*
X49250Y-26350D01*
X49212Y-26258D01*
X49153Y-26199D01*
X49211Y-26141D01*
X49249Y-26049D01*
X49250Y-25950D01*
X49250Y-25350D01*
X49212Y-25258D01*
X49141Y-25188D01*
X49049Y-25150D01*
X48950Y-25149D01*
X48350Y-25149D01*
X48258Y-25187D01*
X48240Y-25206D01*
X48240Y-24401D01*
X47925Y-24086D01*
X47609Y-24401D01*
X47637Y-24497D01*
X47843Y-24570D01*
X48061Y-24559D01*
X48213Y-24497D01*
X48240Y-24401D01*
X48240Y-25206D01*
X48188Y-25258D01*
X48150Y-25350D01*
X48150Y-25372D01*
X48011Y-25234D01*
X47809Y-25150D01*
X47591Y-25149D01*
X47388Y-25233D01*
X47234Y-25388D01*
X47150Y-25590D01*
X47149Y-25808D01*
X47233Y-26011D01*
X47388Y-26165D01*
X47469Y-26199D01*
X47388Y-26233D01*
X47234Y-26388D01*
X47150Y-26590D01*
X47149Y-26808D01*
X47233Y-27011D01*
X47388Y-27165D01*
X47590Y-27249D01*
X47808Y-27250D01*
X48011Y-27166D01*
X48149Y-27027D01*
X48149Y-27049D01*
X48187Y-27141D01*
X48258Y-27211D01*
X48350Y-27249D01*
X48449Y-27250D01*
X49049Y-27250D01*
X49141Y-27212D01*
X49211Y-27141D01*
X49249Y-27049D01*
X49250Y-26950D01*
X49250Y-27666D01*
X49080Y-27553D01*
X48866Y-27510D01*
X48651Y-27553D01*
X48470Y-27674D01*
X48366Y-27830D01*
X48262Y-27674D01*
X48080Y-27553D01*
X47866Y-27510D01*
X47651Y-27553D01*
X47470Y-27674D01*
X47366Y-27830D01*
X47262Y-27674D01*
X47080Y-27553D01*
X46866Y-27510D01*
X46651Y-27553D01*
X46470Y-27674D01*
X46366Y-27830D01*
X46262Y-27674D01*
X46080Y-27553D01*
X45866Y-27510D01*
X45651Y-27553D01*
X45470Y-27674D01*
X45366Y-27830D01*
X45272Y-27690D01*
X45272Y-24940D01*
X45265Y-24629D01*
X45160Y-24376D01*
X45041Y-24320D01*
X44970Y-24391D01*
X44970Y-24249D01*
X44914Y-24130D01*
X44625Y-24018D01*
X44314Y-24025D01*
X44061Y-24130D01*
X44005Y-24249D01*
X44487Y-24732D01*
X44970Y-24249D01*
X44970Y-24391D01*
X44558Y-24803D01*
X45041Y-25285D01*
X45160Y-25230D01*
X45272Y-24940D01*
X45272Y-27690D01*
X45262Y-27674D01*
X45080Y-27553D01*
X44970Y-27531D01*
X44970Y-25356D01*
X44487Y-24873D01*
X44417Y-24944D01*
X44417Y-24803D01*
X43934Y-24320D01*
X43815Y-24376D01*
X43703Y-24666D01*
X43710Y-24976D01*
X43815Y-25230D01*
X43934Y-25285D01*
X44417Y-24803D01*
X44417Y-24944D01*
X44005Y-25356D01*
X44061Y-25475D01*
X44350Y-25588D01*
X44661Y-25580D01*
X44914Y-25475D01*
X44970Y-25356D01*
X44970Y-27531D01*
X44866Y-27510D01*
X44651Y-27553D01*
X44470Y-27674D01*
X44366Y-27830D01*
X44262Y-27674D01*
X44080Y-27553D01*
X43866Y-27510D01*
X43651Y-27553D01*
X43470Y-27674D01*
X43366Y-27830D01*
X43364Y-27823D01*
X43226Y-27653D01*
X43176Y-27625D01*
X43176Y-26544D01*
X43092Y-26342D01*
X43010Y-26259D01*
X43091Y-26178D01*
X43175Y-25976D01*
X43176Y-25757D01*
X43092Y-25555D01*
X42937Y-25400D01*
X42735Y-25316D01*
X42517Y-25316D01*
X42314Y-25399D01*
X42159Y-25554D01*
X42128Y-25629D01*
X42107Y-25578D01*
X42011Y-25550D01*
X41941Y-25621D01*
X41941Y-25480D01*
X41913Y-25384D01*
X41707Y-25311D01*
X41489Y-25322D01*
X41338Y-25384D01*
X41310Y-25480D01*
X41625Y-25795D01*
X41941Y-25480D01*
X41941Y-25621D01*
X41696Y-25866D01*
X42011Y-26181D01*
X42107Y-26154D01*
X42126Y-26098D01*
X42159Y-26177D01*
X42241Y-26259D01*
X42159Y-26341D01*
X42126Y-26423D01*
X42092Y-26342D01*
X41937Y-26187D01*
X41832Y-26143D01*
X41625Y-25936D01*
X41555Y-26007D01*
X41555Y-25866D01*
X41240Y-25550D01*
X41144Y-25578D01*
X41071Y-25784D01*
X41082Y-26002D01*
X41144Y-26154D01*
X41240Y-26181D01*
X41555Y-25866D01*
X41555Y-26007D01*
X41419Y-26143D01*
X41314Y-26186D01*
X41159Y-26341D01*
X41076Y-26543D01*
X41075Y-26762D01*
X41159Y-26964D01*
X41314Y-27119D01*
X41516Y-27203D01*
X41734Y-27203D01*
X41937Y-27119D01*
X42091Y-26965D01*
X42125Y-26883D01*
X42159Y-26964D01*
X42314Y-27119D01*
X42516Y-27203D01*
X42734Y-27203D01*
X42937Y-27119D01*
X43091Y-26965D01*
X43175Y-26763D01*
X43176Y-26544D01*
X43176Y-27625D01*
X43034Y-27547D01*
X43002Y-27541D01*
X42916Y-27589D01*
X42916Y-28174D01*
X42924Y-28174D01*
X42924Y-28274D01*
X42916Y-28274D01*
X42916Y-28859D01*
X43002Y-28907D01*
X43034Y-28900D01*
X43226Y-28795D01*
X43364Y-28624D01*
X43366Y-28618D01*
X43470Y-28774D01*
X43651Y-28895D01*
X43866Y-28938D01*
X44080Y-28895D01*
X44262Y-28774D01*
X44366Y-28618D01*
X44470Y-28774D01*
X44651Y-28895D01*
X44866Y-28938D01*
X45080Y-28895D01*
X45262Y-28774D01*
X45366Y-28618D01*
X45470Y-28774D01*
X45651Y-28895D01*
X45866Y-28938D01*
X46080Y-28895D01*
X46262Y-28774D01*
X46366Y-28618D01*
X46470Y-28774D01*
X46651Y-28895D01*
X46866Y-28938D01*
X47080Y-28895D01*
X47262Y-28774D01*
X47366Y-28618D01*
X47470Y-28774D01*
X47651Y-28895D01*
X47866Y-28938D01*
X48080Y-28895D01*
X48262Y-28774D01*
X48366Y-28618D01*
X48470Y-28774D01*
X48651Y-28895D01*
X48866Y-28938D01*
X49080Y-28895D01*
X49262Y-28774D01*
X49383Y-28592D01*
X49399Y-28514D01*
X49928Y-28514D01*
X49939Y-28540D01*
X50058Y-28660D01*
X50215Y-28724D01*
X50384Y-28725D01*
X50540Y-28660D01*
X50660Y-28541D01*
X50724Y-28384D01*
X50725Y-28215D01*
X50725Y-30924D01*
X50425Y-30924D01*
X50425Y-30215D01*
X50360Y-30059D01*
X50290Y-29988D01*
X50290Y-29811D01*
X50360Y-29741D01*
X50424Y-29584D01*
X50425Y-29415D01*
X50360Y-29259D01*
X50241Y-29139D01*
X50084Y-29075D01*
X49915Y-29074D01*
X49759Y-29139D01*
X49750Y-29148D01*
X49741Y-29139D01*
X49584Y-29075D01*
X49415Y-29074D01*
X49259Y-29139D01*
X49139Y-29258D01*
X49075Y-29415D01*
X49074Y-29584D01*
X49139Y-29740D01*
X49210Y-29811D01*
X49210Y-29988D01*
X49139Y-30058D01*
X49075Y-30215D01*
X49074Y-30384D01*
X49139Y-30540D01*
X49258Y-30660D01*
X49415Y-30724D01*
X49584Y-30725D01*
X49740Y-30660D01*
X49749Y-30651D01*
X49758Y-30660D01*
X49915Y-30724D01*
X50084Y-30725D01*
X50240Y-30660D01*
X50360Y-30541D01*
X50424Y-30384D01*
X50425Y-30215D01*
X50425Y-30924D01*
X49397Y-30924D01*
X49383Y-30856D01*
X49262Y-30674D01*
X49080Y-30553D01*
X48866Y-30510D01*
X48651Y-30553D01*
X48470Y-30674D01*
X48366Y-30830D01*
X48262Y-30674D01*
X48156Y-30603D01*
X48156Y-29854D01*
X48250Y-29761D01*
X48314Y-29604D01*
X48315Y-29435D01*
X48250Y-29279D01*
X48131Y-29159D01*
X47974Y-29095D01*
X47805Y-29094D01*
X47649Y-29159D01*
X47529Y-29278D01*
X47465Y-29435D01*
X47464Y-29604D01*
X47529Y-29760D01*
X47576Y-29807D01*
X47576Y-30603D01*
X47470Y-30674D01*
X47366Y-30830D01*
X47262Y-30674D01*
X47080Y-30553D01*
X46866Y-30510D01*
X46651Y-30553D01*
X46579Y-30601D01*
X46599Y-30500D01*
X46600Y-30500D01*
X46600Y-29701D01*
X46660Y-29641D01*
X46724Y-29484D01*
X46725Y-29315D01*
X46660Y-29159D01*
X46541Y-29039D01*
X46384Y-28975D01*
X46215Y-28974D01*
X46059Y-29039D01*
X45939Y-29158D01*
X45875Y-29315D01*
X45874Y-29484D01*
X45939Y-29640D01*
X46000Y-29701D01*
X46000Y-29945D01*
X45974Y-29935D01*
X45805Y-29934D01*
X45649Y-29999D01*
X45529Y-30118D01*
X45526Y-30127D01*
X45484Y-30154D01*
X45484Y-30154D01*
X45154Y-30484D01*
X45100Y-30566D01*
X45080Y-30553D01*
X44866Y-30510D01*
X44651Y-30553D01*
X44470Y-30674D01*
X44366Y-30830D01*
X44262Y-30674D01*
X44080Y-30553D01*
X43866Y-30510D01*
X43651Y-30553D01*
X43470Y-30674D01*
X43426Y-30740D01*
X43426Y-30724D01*
X43388Y-30632D01*
X43317Y-30562D01*
X43226Y-30524D01*
X43126Y-30524D01*
X42816Y-30524D01*
X42816Y-28859D01*
X42816Y-28274D01*
X42816Y-28174D01*
X42816Y-27589D01*
X42729Y-27541D01*
X42698Y-27547D01*
X42505Y-27653D01*
X42367Y-27823D01*
X42306Y-28034D01*
X42306Y-28174D01*
X42816Y-28174D01*
X42816Y-28274D01*
X42306Y-28274D01*
X42306Y-28414D01*
X42367Y-28624D01*
X42505Y-28795D01*
X42698Y-28900D01*
X42729Y-28907D01*
X42816Y-28859D01*
X42816Y-30524D01*
X42506Y-30524D01*
X42414Y-30562D01*
X42344Y-30632D01*
X42306Y-30724D01*
X42306Y-30823D01*
X42306Y-31723D01*
X42344Y-31815D01*
X42414Y-31886D01*
X42506Y-31924D01*
X42605Y-31924D01*
X43225Y-31924D01*
X43317Y-31886D01*
X43387Y-31816D01*
X43426Y-31724D01*
X43426Y-31708D01*
X43470Y-31774D01*
X43651Y-31895D01*
X43866Y-31938D01*
X44080Y-31895D01*
X44262Y-31774D01*
X44366Y-31618D01*
X44470Y-31774D01*
X44576Y-31844D01*
X44576Y-32613D01*
X43405Y-33784D01*
X43405Y-32345D01*
X43340Y-32189D01*
X43221Y-32069D01*
X43064Y-32005D01*
X42895Y-32004D01*
X42739Y-32069D01*
X42668Y-32140D01*
X41665Y-32140D01*
X41665Y-30235D01*
X41600Y-30079D01*
X41481Y-29959D01*
X41324Y-29895D01*
X41155Y-29894D01*
X40999Y-29959D01*
X40928Y-30030D01*
X40548Y-30030D01*
X40548Y-24940D01*
X40541Y-24629D01*
X40436Y-24376D01*
X40317Y-24320D01*
X40246Y-24391D01*
X40246Y-24249D01*
X40190Y-24130D01*
X39901Y-24018D01*
X39590Y-24025D01*
X39337Y-24130D01*
X39281Y-24249D01*
X39763Y-24732D01*
X40246Y-24249D01*
X40246Y-24391D01*
X39834Y-24803D01*
X40317Y-25285D01*
X40436Y-25230D01*
X40548Y-24940D01*
X40548Y-30030D01*
X40494Y-30030D01*
X40434Y-30005D01*
X40265Y-30004D01*
X40246Y-30012D01*
X40246Y-25356D01*
X39763Y-24873D01*
X39693Y-24944D01*
X39693Y-24803D01*
X39210Y-24320D01*
X39091Y-24376D01*
X38979Y-24666D01*
X38986Y-24976D01*
X39091Y-25230D01*
X39210Y-25285D01*
X39693Y-24803D01*
X39693Y-24944D01*
X39281Y-25356D01*
X39337Y-25475D01*
X39626Y-25588D01*
X39937Y-25580D01*
X40190Y-25475D01*
X40246Y-25356D01*
X40246Y-30012D01*
X40109Y-30069D01*
X39989Y-30188D01*
X39925Y-30345D01*
X39924Y-30514D01*
X39989Y-30670D01*
X40108Y-30790D01*
X40265Y-30854D01*
X40434Y-30855D01*
X40590Y-30790D01*
X40710Y-30671D01*
X40735Y-30610D01*
X40928Y-30610D01*
X40998Y-30680D01*
X41155Y-30744D01*
X41324Y-30745D01*
X41480Y-30680D01*
X41600Y-30561D01*
X41664Y-30404D01*
X41665Y-30235D01*
X41665Y-32140D01*
X40350Y-32140D01*
X40239Y-32162D01*
X40234Y-32165D01*
X40105Y-32164D01*
X39949Y-32229D01*
X39829Y-32348D01*
X39765Y-32505D01*
X39764Y-32674D01*
X39829Y-32830D01*
X39854Y-32854D01*
X39769Y-32938D01*
X39705Y-33095D01*
X39704Y-33264D01*
X39769Y-33420D01*
X39823Y-33475D01*
X39739Y-33558D01*
X39675Y-33715D01*
X39674Y-33884D01*
X39739Y-34040D01*
X39749Y-34049D01*
X39639Y-34158D01*
X39575Y-34315D01*
X39574Y-34484D01*
X39615Y-34583D01*
X39539Y-34658D01*
X39475Y-34815D01*
X39474Y-34984D01*
X39539Y-35140D01*
X39658Y-35260D01*
X39815Y-35324D01*
X39914Y-35325D01*
X40094Y-35505D01*
X40094Y-35505D01*
X40189Y-35567D01*
X40281Y-35586D01*
X40299Y-35590D01*
X40299Y-35589D01*
X40300Y-35590D01*
X41088Y-35590D01*
X41158Y-35660D01*
X41315Y-35724D01*
X41484Y-35725D01*
X41640Y-35660D01*
X41760Y-35541D01*
X41824Y-35384D01*
X41825Y-35215D01*
X41760Y-35059D01*
X41641Y-34939D01*
X41607Y-34926D01*
X41624Y-34884D01*
X41625Y-34715D01*
X41560Y-34559D01*
X41551Y-34550D01*
X41560Y-34541D01*
X41624Y-34384D01*
X41625Y-34215D01*
X41560Y-34059D01*
X41441Y-33939D01*
X41284Y-33875D01*
X41115Y-33874D01*
X40959Y-33939D01*
X40888Y-34010D01*
X40720Y-34010D01*
X40524Y-33814D01*
X40525Y-33715D01*
X40460Y-33559D01*
X40406Y-33504D01*
X40490Y-33421D01*
X40554Y-33264D01*
X40555Y-33165D01*
X40580Y-33140D01*
X41728Y-33140D01*
X41750Y-33161D01*
X41750Y-33548D01*
X41739Y-33558D01*
X41675Y-33715D01*
X41674Y-33884D01*
X41739Y-34040D01*
X41858Y-34160D01*
X42015Y-34224D01*
X42184Y-34225D01*
X42340Y-34160D01*
X42460Y-34041D01*
X42524Y-33884D01*
X42525Y-33715D01*
X42460Y-33559D01*
X42341Y-33439D01*
X42330Y-33435D01*
X42330Y-33161D01*
X42400Y-33091D01*
X42464Y-32934D01*
X42465Y-32765D01*
X42446Y-32720D01*
X42668Y-32720D01*
X42738Y-32790D01*
X42895Y-32854D01*
X43064Y-32855D01*
X43220Y-32790D01*
X43340Y-32671D01*
X43404Y-32514D01*
X43405Y-32345D01*
X43405Y-33784D01*
X43214Y-33975D01*
X43115Y-33974D01*
X42959Y-34039D01*
X42839Y-34158D01*
X42775Y-34315D01*
X42774Y-34484D01*
X42839Y-34640D01*
X42958Y-34760D01*
X43115Y-34824D01*
X43284Y-34825D01*
X43440Y-34760D01*
X43560Y-34641D01*
X43624Y-34484D01*
X43625Y-34385D01*
X45071Y-32938D01*
X45071Y-32938D01*
X45071Y-32938D01*
X45134Y-32844D01*
X45156Y-32733D01*
X45156Y-32733D01*
X45156Y-32733D01*
X45156Y-32617D01*
X45175Y-32624D01*
X45344Y-32625D01*
X45455Y-32578D01*
X45455Y-32708D01*
X45498Y-32923D01*
X45619Y-33104D01*
X45801Y-33226D01*
X46015Y-33268D01*
X46230Y-33226D01*
X46411Y-33104D01*
X46515Y-32949D01*
X46619Y-33104D01*
X46801Y-33226D01*
X47015Y-33268D01*
X47230Y-33226D01*
X47411Y-33104D01*
X47515Y-32949D01*
X47517Y-32955D01*
X47655Y-33126D01*
X47847Y-33231D01*
X47879Y-33238D01*
X47965Y-33190D01*
X47965Y-32605D01*
X47957Y-32605D01*
X47957Y-32505D01*
X47965Y-32505D01*
X47965Y-32497D01*
X48065Y-32497D01*
X48065Y-32505D01*
X48073Y-32505D01*
X48073Y-32605D01*
X48065Y-32605D01*
X48065Y-33190D01*
X48152Y-33238D01*
X48183Y-33231D01*
X48376Y-33126D01*
X48513Y-32955D01*
X48515Y-32949D01*
X48619Y-33104D01*
X48725Y-33175D01*
X48725Y-34274D01*
X48715Y-34274D01*
X48559Y-34339D01*
X48439Y-34458D01*
X48375Y-34615D01*
X48374Y-34784D01*
X48439Y-34940D01*
X48558Y-35060D01*
X48577Y-35067D01*
X48515Y-35161D01*
X48411Y-35005D01*
X48230Y-34884D01*
X48015Y-34841D01*
X47801Y-34884D01*
X47619Y-35005D01*
X47515Y-35161D01*
X47411Y-35005D01*
X47230Y-34884D01*
X47015Y-34841D01*
X46801Y-34884D01*
X46619Y-35005D01*
X46575Y-35071D01*
X46575Y-35055D01*
X46537Y-34963D01*
X46467Y-34893D01*
X46375Y-34855D01*
X46276Y-34855D01*
X45656Y-34855D01*
X45564Y-34893D01*
X45493Y-34963D01*
X45455Y-35055D01*
X45455Y-35154D01*
X45455Y-36054D01*
X45493Y-36146D01*
X45563Y-36216D01*
X45655Y-36255D01*
X45755Y-36255D01*
X46375Y-36255D01*
X46467Y-36217D01*
X46537Y-36146D01*
X46575Y-36055D01*
X46575Y-36038D01*
X46619Y-36104D01*
X46801Y-36226D01*
X47015Y-36268D01*
X47230Y-36226D01*
X47411Y-36104D01*
X47515Y-35949D01*
X47619Y-36104D01*
X47801Y-36226D01*
X48015Y-36268D01*
X48230Y-36226D01*
X48411Y-36104D01*
X48515Y-35949D01*
X48619Y-36104D01*
X48801Y-36226D01*
X49015Y-36268D01*
X49230Y-36226D01*
X49411Y-36104D01*
X49515Y-35949D01*
X49619Y-36104D01*
X49801Y-36226D01*
X50015Y-36268D01*
X50230Y-36226D01*
X50411Y-36104D01*
X50515Y-35949D01*
X50619Y-36104D01*
X50801Y-36226D01*
X51015Y-36268D01*
X51230Y-36226D01*
X51411Y-36104D01*
X51515Y-35949D01*
X51517Y-35955D01*
X51655Y-36126D01*
X51847Y-36231D01*
X51879Y-36238D01*
X51965Y-36190D01*
X51965Y-35605D01*
X51957Y-35605D01*
X51957Y-35505D01*
X51965Y-35505D01*
X51965Y-34920D01*
X51879Y-34872D01*
X51847Y-34878D01*
X51655Y-34983D01*
X51517Y-35154D01*
X51515Y-35160D01*
X51411Y-35005D01*
X51230Y-34884D01*
X51015Y-34841D01*
X50801Y-34884D01*
X50619Y-35005D01*
X50515Y-35161D01*
X50411Y-35005D01*
X50230Y-34884D01*
X50015Y-34841D01*
X49801Y-34884D01*
X49619Y-35005D01*
X49515Y-35161D01*
X49411Y-35005D01*
X49230Y-34884D01*
X49187Y-34875D01*
X49224Y-34784D01*
X49225Y-34683D01*
X49283Y-34595D01*
X49305Y-34484D01*
X49305Y-33175D01*
X49411Y-33104D01*
X49515Y-32949D01*
X49619Y-33104D01*
X49725Y-33175D01*
X49725Y-34073D01*
X49639Y-34158D01*
X49575Y-34315D01*
X49574Y-34484D01*
X49639Y-34640D01*
X49758Y-34760D01*
X49915Y-34824D01*
X50084Y-34825D01*
X50240Y-34760D01*
X50360Y-34641D01*
X50424Y-34484D01*
X50425Y-34315D01*
X50360Y-34159D01*
X50305Y-34104D01*
X50305Y-33175D01*
X50411Y-33104D01*
X50515Y-32949D01*
X50619Y-33104D01*
X50801Y-33226D01*
X51015Y-33268D01*
X51230Y-33226D01*
X51411Y-33104D01*
X51515Y-32949D01*
X51619Y-33104D01*
X51801Y-33226D01*
X52015Y-33268D01*
X52230Y-33226D01*
X52411Y-33104D01*
X52533Y-32923D01*
X52575Y-32708D01*
X52575Y-32401D01*
X52533Y-32187D01*
X52411Y-32005D01*
X52230Y-31884D01*
X52015Y-31841D01*
X51801Y-31884D01*
X51619Y-32005D01*
X51515Y-32161D01*
X51411Y-32005D01*
X51230Y-31884D01*
X51015Y-31841D01*
X50801Y-31884D01*
X50619Y-32005D01*
X50515Y-32161D01*
X50411Y-32005D01*
X50230Y-31884D01*
X50015Y-31841D01*
X49801Y-31884D01*
X49619Y-32005D01*
X49515Y-32161D01*
X49411Y-32005D01*
X49230Y-31884D01*
X49127Y-31863D01*
X49262Y-31774D01*
X49383Y-31592D01*
X49397Y-31524D01*
X52200Y-31524D01*
X52275Y-31599D01*
X52274Y-31684D01*
X52339Y-31840D01*
X52458Y-31960D01*
X52615Y-32024D01*
X52784Y-32025D01*
X52940Y-31960D01*
X53060Y-31841D01*
X53124Y-31684D01*
X53125Y-31515D01*
X53125Y-41305D01*
X52907Y-41305D01*
X52907Y-39438D01*
X52907Y-38415D01*
X52869Y-38323D01*
X52799Y-38252D01*
X52707Y-38214D01*
X52607Y-38214D01*
X52575Y-38214D01*
X52575Y-35745D01*
X52575Y-35605D01*
X52575Y-35505D01*
X52575Y-35365D01*
X52513Y-35154D01*
X52376Y-34983D01*
X52183Y-34878D01*
X52152Y-34872D01*
X52065Y-34920D01*
X52065Y-35505D01*
X52575Y-35505D01*
X52575Y-35605D01*
X52065Y-35605D01*
X52065Y-36190D01*
X52152Y-36238D01*
X52183Y-36231D01*
X52376Y-36126D01*
X52513Y-35955D01*
X52575Y-35745D01*
X52575Y-38214D01*
X51820Y-38214D01*
X51728Y-38252D01*
X51658Y-38322D01*
X51620Y-38414D01*
X51620Y-38514D01*
X51620Y-39537D01*
X51658Y-39629D01*
X51728Y-39700D01*
X51820Y-39738D01*
X51919Y-39738D01*
X52706Y-39738D01*
X52798Y-39700D01*
X52869Y-39629D01*
X52907Y-39538D01*
X52907Y-39438D01*
X52907Y-41305D01*
X52548Y-41305D01*
X52456Y-41343D01*
X52386Y-41413D01*
X52348Y-41505D01*
X52348Y-41604D01*
X52348Y-42155D01*
X52386Y-42247D01*
X52456Y-42318D01*
X52548Y-42356D01*
X52647Y-42356D01*
X53356Y-42356D01*
X53444Y-42319D01*
X53532Y-42356D01*
X53632Y-42356D01*
X54340Y-42356D01*
X54429Y-42319D01*
X54516Y-42356D01*
X54616Y-42356D01*
X55325Y-42356D01*
X55417Y-42318D01*
X55487Y-42248D01*
X55525Y-42156D01*
X55525Y-42056D01*
X55525Y-52535D01*
X55524Y-52534D01*
X55525Y-52435D01*
X55460Y-52279D01*
X55341Y-52159D01*
X55184Y-52095D01*
X55021Y-52094D01*
X55021Y-44970D01*
X55011Y-44740D01*
X54943Y-44575D01*
X54844Y-44544D01*
X54773Y-44615D01*
X54773Y-44474D01*
X54742Y-44375D01*
X54525Y-44297D01*
X54295Y-44307D01*
X54131Y-44375D01*
X54100Y-44474D01*
X54437Y-44811D01*
X54773Y-44474D01*
X54773Y-44615D01*
X54507Y-44881D01*
X54844Y-45218D01*
X54943Y-45187D01*
X55021Y-44970D01*
X55021Y-52094D01*
X55015Y-52094D01*
X54859Y-52159D01*
X54773Y-52244D01*
X54773Y-45289D01*
X54437Y-44952D01*
X54366Y-45023D01*
X54366Y-44881D01*
X54029Y-44544D01*
X53937Y-44573D01*
X53928Y-44553D01*
X53765Y-44390D01*
X53552Y-44301D01*
X53322Y-44301D01*
X53108Y-44389D01*
X52945Y-44552D01*
X52857Y-44766D01*
X52856Y-44996D01*
X52945Y-45210D01*
X53108Y-45373D01*
X53321Y-45461D01*
X53551Y-45461D01*
X53765Y-45373D01*
X53928Y-45210D01*
X53937Y-45189D01*
X54029Y-45218D01*
X54366Y-44881D01*
X54366Y-45023D01*
X54100Y-45289D01*
X54131Y-45387D01*
X54348Y-45466D01*
X54578Y-45456D01*
X54742Y-45387D01*
X54773Y-45289D01*
X54773Y-52244D01*
X54760Y-52258D01*
X54760Y-47999D01*
X54750Y-47741D01*
X54669Y-47546D01*
X54564Y-47506D01*
X54493Y-47577D01*
X54493Y-47435D01*
X54453Y-47330D01*
X54211Y-47239D01*
X53953Y-47249D01*
X53757Y-47330D01*
X53718Y-47435D01*
X54105Y-47823D01*
X54493Y-47435D01*
X54493Y-47577D01*
X54176Y-47894D01*
X54564Y-48281D01*
X54669Y-48242D01*
X54760Y-47999D01*
X54760Y-52258D01*
X54756Y-52262D01*
X54756Y-51465D01*
X54756Y-49615D01*
X54657Y-49376D01*
X54493Y-49212D01*
X54493Y-48352D01*
X54105Y-47964D01*
X54035Y-48035D01*
X54035Y-47894D01*
X53647Y-47506D01*
X53541Y-47546D01*
X53451Y-47788D01*
X53461Y-48046D01*
X53541Y-48242D01*
X53647Y-48281D01*
X54035Y-47894D01*
X54035Y-48035D01*
X53718Y-48352D01*
X53757Y-48458D01*
X54000Y-48548D01*
X54258Y-48538D01*
X54453Y-48458D01*
X54493Y-48352D01*
X54493Y-49212D01*
X54474Y-49193D01*
X54235Y-49094D01*
X53977Y-49093D01*
X53738Y-49192D01*
X53555Y-49375D01*
X53456Y-49614D01*
X53455Y-49872D01*
X53554Y-50111D01*
X53737Y-50294D01*
X53976Y-50393D01*
X54234Y-50394D01*
X54473Y-50295D01*
X54656Y-50112D01*
X54755Y-49873D01*
X54756Y-49615D01*
X54756Y-51465D01*
X54657Y-51226D01*
X54474Y-51043D01*
X54235Y-50944D01*
X53977Y-50943D01*
X53738Y-51042D01*
X53555Y-51225D01*
X53456Y-51464D01*
X53455Y-51722D01*
X53554Y-51961D01*
X53737Y-52144D01*
X53976Y-52243D01*
X54234Y-52244D01*
X54473Y-52145D01*
X54656Y-51962D01*
X54755Y-51723D01*
X54756Y-51465D01*
X54756Y-52262D01*
X54739Y-52278D01*
X54675Y-52435D01*
X54674Y-52604D01*
X54739Y-52760D01*
X54858Y-52880D01*
X55015Y-52944D01*
X55077Y-52944D01*
X55015Y-53095D01*
X55014Y-53264D01*
X55079Y-53420D01*
X55198Y-53540D01*
X55355Y-53604D01*
X55524Y-53605D01*
X55680Y-53540D01*
X55800Y-53421D01*
X55864Y-53264D01*
X55865Y-53138D01*
X56001Y-53275D01*
X56194Y-53355D01*
X56403Y-53355D01*
X56596Y-53276D01*
X56744Y-53128D01*
X56824Y-52935D01*
X56824Y-52726D01*
X56824Y-55726D01*
X56744Y-55533D01*
X56596Y-55385D01*
X56404Y-55305D01*
X56195Y-55305D01*
X56002Y-55385D01*
X55854Y-55532D01*
X55774Y-55725D01*
X55774Y-55893D01*
X55734Y-55854D01*
X55541Y-55774D01*
X55333Y-55774D01*
X55140Y-55853D01*
X55021Y-55972D01*
X55021Y-54025D01*
X55011Y-53795D01*
X54943Y-53631D01*
X54844Y-53600D01*
X54773Y-53670D01*
X54773Y-53529D01*
X54742Y-53430D01*
X54525Y-53352D01*
X54295Y-53362D01*
X54131Y-53430D01*
X54100Y-53529D01*
X54437Y-53866D01*
X54773Y-53529D01*
X54773Y-53670D01*
X54507Y-53937D01*
X54844Y-54273D01*
X54943Y-54242D01*
X55021Y-54025D01*
X55021Y-55972D01*
X54992Y-56001D01*
X54912Y-56194D01*
X54911Y-56332D01*
X54894Y-56325D01*
X54773Y-56324D01*
X54773Y-54344D01*
X54437Y-54007D01*
X54366Y-54078D01*
X54366Y-53937D01*
X54029Y-53600D01*
X53937Y-53629D01*
X53928Y-53608D01*
X53765Y-53445D01*
X53552Y-53357D01*
X53322Y-53356D01*
X53108Y-53445D01*
X52945Y-53608D01*
X52857Y-53821D01*
X52856Y-54051D01*
X52945Y-54265D01*
X53108Y-54428D01*
X53321Y-54516D01*
X53551Y-54517D01*
X53765Y-54428D01*
X53928Y-54265D01*
X53937Y-54244D01*
X54029Y-54273D01*
X54366Y-53937D01*
X54366Y-54078D01*
X54100Y-54344D01*
X54131Y-54443D01*
X54348Y-54521D01*
X54578Y-54511D01*
X54742Y-54443D01*
X54773Y-54344D01*
X54773Y-56324D01*
X54725Y-56324D01*
X54569Y-56389D01*
X54449Y-56508D01*
X54385Y-56665D01*
X54384Y-56834D01*
X54449Y-56990D01*
X54568Y-57110D01*
X54673Y-57153D01*
X54634Y-57247D01*
X54634Y-57503D01*
X54731Y-57740D01*
X54912Y-57921D01*
X55149Y-58019D01*
X55405Y-58020D01*
X55642Y-57922D01*
X55823Y-57741D01*
X55921Y-57504D01*
X55921Y-57248D01*
X55839Y-57050D01*
X56935Y-57050D01*
X57064Y-57179D01*
X57033Y-57253D01*
X57033Y-57509D01*
X57131Y-57746D01*
X57312Y-57927D01*
X57548Y-58025D01*
X57804Y-58025D01*
X58041Y-57927D01*
X58222Y-57746D01*
X58320Y-57510D01*
X58320Y-57254D01*
X58320Y-59144D01*
X58315Y-59001D01*
X58235Y-58809D01*
X58130Y-58770D01*
X58060Y-58841D01*
X58060Y-58699D01*
X58021Y-58594D01*
X57781Y-58505D01*
X57525Y-58515D01*
X57332Y-58594D01*
X57294Y-58699D01*
X57677Y-59082D01*
X58060Y-58699D01*
X58060Y-58841D01*
X57747Y-59153D01*
X58130Y-59536D01*
X58235Y-59497D01*
X58325Y-59257D01*
X58325Y-60360D01*
X58060Y-60360D01*
X58060Y-59607D01*
X57677Y-59224D01*
X57606Y-59294D01*
X57606Y-59153D01*
X57223Y-58770D01*
X57118Y-58809D01*
X57029Y-59049D01*
X57038Y-59305D01*
X57118Y-59497D01*
X57223Y-59536D01*
X57606Y-59153D01*
X57606Y-59294D01*
X57294Y-59607D01*
X57332Y-59712D01*
X57573Y-59801D01*
X57828Y-59792D01*
X58021Y-59712D01*
X58060Y-59607D01*
X58060Y-60360D01*
X55925Y-60360D01*
X55925Y-59252D01*
X55916Y-58996D01*
X55836Y-58803D01*
X55731Y-58764D01*
X55660Y-58835D01*
X55660Y-58694D01*
X55622Y-58589D01*
X55382Y-58500D01*
X55126Y-58509D01*
X54933Y-58589D01*
X54894Y-58694D01*
X55277Y-59077D01*
X55660Y-58694D01*
X55660Y-58835D01*
X55348Y-59148D01*
X55731Y-59531D01*
X55836Y-59492D01*
X55925Y-59252D01*
X55925Y-60360D01*
X55660Y-60360D01*
X55660Y-59601D01*
X55277Y-59218D01*
X55207Y-59289D01*
X55207Y-59148D01*
X54824Y-58764D01*
X54719Y-58803D01*
X54629Y-59043D01*
X54639Y-59299D01*
X54719Y-59492D01*
X54824Y-59531D01*
X55207Y-59148D01*
X55207Y-59289D01*
X54894Y-59601D01*
X54933Y-59706D01*
X55173Y-59796D01*
X55429Y-59786D01*
X55622Y-59706D01*
X55660Y-59601D01*
X55660Y-60360D01*
X53563Y-60360D01*
X53563Y-59252D01*
X53559Y-59139D01*
X53559Y-57248D01*
X53461Y-57012D01*
X53280Y-56830D01*
X53044Y-56732D01*
X52788Y-56732D01*
X52735Y-56754D01*
X52728Y-56747D01*
X52734Y-56744D01*
X52881Y-56596D01*
X52961Y-56404D01*
X52962Y-56195D01*
X52882Y-56002D01*
X52734Y-55854D01*
X52541Y-55774D01*
X52333Y-55774D01*
X52140Y-55853D01*
X52099Y-55894D01*
X52099Y-55726D01*
X52099Y-52726D01*
X52099Y-51396D01*
X52099Y-48396D01*
X52099Y-46277D01*
X52099Y-43277D01*
X52020Y-43084D01*
X51872Y-42937D01*
X51679Y-42856D01*
X51470Y-42856D01*
X51431Y-42873D01*
X51431Y-39537D01*
X51431Y-38513D01*
X51393Y-38421D01*
X51322Y-38351D01*
X51231Y-38313D01*
X51131Y-38312D01*
X50344Y-38312D01*
X50252Y-38350D01*
X50181Y-38421D01*
X50143Y-38513D01*
X50143Y-38612D01*
X50143Y-39636D01*
X50181Y-39728D01*
X50251Y-39798D01*
X50343Y-39836D01*
X50443Y-39836D01*
X51230Y-39836D01*
X51322Y-39798D01*
X51392Y-39728D01*
X51431Y-39636D01*
X51431Y-39537D01*
X51431Y-42873D01*
X51277Y-42936D01*
X51129Y-43084D01*
X51049Y-43277D01*
X51049Y-43485D01*
X51129Y-43678D01*
X51277Y-43826D01*
X51469Y-43906D01*
X51678Y-43906D01*
X51871Y-43827D01*
X52019Y-43679D01*
X52099Y-43486D01*
X52099Y-43277D01*
X52099Y-46277D01*
X52020Y-46084D01*
X51872Y-45937D01*
X51679Y-45856D01*
X51470Y-45856D01*
X51277Y-45936D01*
X51129Y-46084D01*
X51049Y-46277D01*
X51049Y-46485D01*
X51129Y-46678D01*
X51277Y-46826D01*
X51469Y-46906D01*
X51678Y-46906D01*
X51871Y-46827D01*
X52019Y-46679D01*
X52099Y-46486D01*
X52099Y-46277D01*
X52099Y-48396D01*
X52020Y-48203D01*
X51872Y-48055D01*
X51679Y-47975D01*
X51470Y-47974D01*
X51277Y-48054D01*
X51129Y-48202D01*
X51049Y-48395D01*
X51049Y-48603D01*
X51129Y-48797D01*
X51277Y-48944D01*
X51469Y-49024D01*
X51678Y-49025D01*
X51871Y-48945D01*
X52019Y-48797D01*
X52099Y-48604D01*
X52099Y-48396D01*
X52099Y-51396D01*
X52020Y-51203D01*
X51872Y-51055D01*
X51679Y-50975D01*
X51470Y-50974D01*
X51277Y-51054D01*
X51129Y-51202D01*
X51049Y-51395D01*
X51049Y-51603D01*
X51129Y-51797D01*
X51277Y-51944D01*
X51469Y-52024D01*
X51678Y-52025D01*
X51871Y-51945D01*
X52019Y-51797D01*
X52099Y-51604D01*
X52099Y-51396D01*
X52099Y-52726D01*
X52020Y-52533D01*
X51872Y-52385D01*
X51679Y-52305D01*
X51470Y-52305D01*
X51277Y-52385D01*
X51129Y-52532D01*
X51049Y-52725D01*
X51049Y-52934D01*
X51129Y-53127D01*
X51277Y-53275D01*
X51469Y-53355D01*
X51678Y-53355D01*
X51871Y-53276D01*
X52019Y-53128D01*
X52099Y-52935D01*
X52099Y-52726D01*
X52099Y-55726D01*
X52020Y-55533D01*
X51872Y-55385D01*
X51679Y-55305D01*
X51470Y-55305D01*
X51277Y-55385D01*
X51129Y-55532D01*
X51049Y-55725D01*
X51049Y-55893D01*
X51010Y-55854D01*
X50817Y-55774D01*
X50801Y-55774D01*
X50801Y-42056D01*
X50801Y-41505D01*
X50763Y-41413D01*
X50692Y-41343D01*
X50601Y-41305D01*
X50501Y-41305D01*
X49793Y-41305D01*
X49704Y-41341D01*
X49616Y-41305D01*
X49517Y-41305D01*
X48808Y-41305D01*
X48720Y-41341D01*
X48632Y-41305D01*
X48533Y-41305D01*
X48183Y-41305D01*
X48183Y-39438D01*
X48183Y-38415D01*
X48145Y-38323D01*
X48074Y-38252D01*
X47983Y-38214D01*
X47883Y-38214D01*
X47096Y-38214D01*
X47004Y-38252D01*
X46933Y-38322D01*
X46895Y-38414D01*
X46895Y-38514D01*
X46895Y-39537D01*
X46933Y-39629D01*
X47003Y-39700D01*
X47095Y-39738D01*
X47195Y-39738D01*
X47982Y-39738D01*
X48074Y-39700D01*
X48144Y-39629D01*
X48183Y-39538D01*
X48183Y-39438D01*
X48183Y-41305D01*
X47824Y-41305D01*
X47732Y-41343D01*
X47662Y-41413D01*
X47624Y-41505D01*
X47623Y-41604D01*
X47623Y-42155D01*
X47661Y-42247D01*
X47732Y-42318D01*
X47824Y-42356D01*
X47923Y-42356D01*
X48632Y-42356D01*
X48720Y-42319D01*
X48808Y-42356D01*
X48907Y-42356D01*
X49616Y-42356D01*
X49704Y-42319D01*
X49792Y-42356D01*
X49892Y-42356D01*
X50600Y-42356D01*
X50692Y-42318D01*
X50762Y-42248D01*
X50801Y-42156D01*
X50801Y-42056D01*
X50801Y-55774D01*
X50608Y-55774D01*
X50415Y-55853D01*
X50297Y-55972D01*
X50297Y-54025D01*
X50297Y-44970D01*
X50286Y-44740D01*
X50218Y-44575D01*
X50120Y-44544D01*
X50049Y-44615D01*
X50049Y-44474D01*
X50018Y-44375D01*
X49801Y-44297D01*
X49571Y-44307D01*
X49406Y-44375D01*
X49375Y-44474D01*
X49712Y-44811D01*
X50049Y-44474D01*
X50049Y-44615D01*
X49783Y-44881D01*
X50120Y-45218D01*
X50218Y-45187D01*
X50297Y-44970D01*
X50297Y-54025D01*
X50286Y-53795D01*
X50218Y-53631D01*
X50120Y-53600D01*
X50049Y-53670D01*
X50049Y-53529D01*
X50049Y-45289D01*
X49712Y-44952D01*
X49641Y-45023D01*
X49641Y-44881D01*
X49304Y-44544D01*
X49212Y-44573D01*
X49204Y-44553D01*
X49041Y-44390D01*
X48828Y-44301D01*
X48597Y-44301D01*
X48384Y-44389D01*
X48221Y-44552D01*
X48132Y-44766D01*
X48132Y-44996D01*
X48220Y-45210D01*
X48383Y-45373D01*
X48596Y-45461D01*
X48827Y-45461D01*
X49040Y-45373D01*
X49204Y-45210D01*
X49212Y-45189D01*
X49304Y-45218D01*
X49641Y-44881D01*
X49641Y-45023D01*
X49375Y-45289D01*
X49406Y-45387D01*
X49623Y-45466D01*
X49854Y-45456D01*
X50018Y-45387D01*
X50049Y-45289D01*
X50049Y-53529D01*
X50035Y-53485D01*
X50035Y-47999D01*
X50026Y-47741D01*
X49945Y-47546D01*
X49839Y-47506D01*
X49769Y-47577D01*
X49769Y-47435D01*
X49729Y-47330D01*
X49487Y-47239D01*
X49228Y-47249D01*
X49033Y-47330D01*
X48993Y-47435D01*
X49381Y-47823D01*
X49769Y-47435D01*
X49769Y-47577D01*
X49452Y-47894D01*
X49839Y-48281D01*
X49945Y-48242D01*
X50035Y-47999D01*
X50035Y-53485D01*
X50031Y-53472D01*
X50031Y-51465D01*
X50031Y-49615D01*
X49932Y-49376D01*
X49769Y-49212D01*
X49769Y-48352D01*
X49381Y-47964D01*
X49310Y-48035D01*
X49310Y-47894D01*
X48923Y-47506D01*
X48817Y-47546D01*
X48727Y-47788D01*
X48736Y-48046D01*
X48817Y-48242D01*
X48923Y-48281D01*
X49310Y-47894D01*
X49310Y-48035D01*
X48993Y-48352D01*
X49033Y-48458D01*
X49275Y-48548D01*
X49534Y-48538D01*
X49729Y-48458D01*
X49769Y-48352D01*
X49769Y-49212D01*
X49750Y-49193D01*
X49511Y-49094D01*
X49252Y-49093D01*
X49013Y-49192D01*
X48830Y-49375D01*
X48731Y-49614D01*
X48731Y-49872D01*
X48830Y-50111D01*
X49012Y-50294D01*
X49251Y-50393D01*
X49510Y-50394D01*
X49749Y-50295D01*
X49932Y-50112D01*
X50031Y-49873D01*
X50031Y-49615D01*
X50031Y-51465D01*
X49932Y-51226D01*
X49750Y-51043D01*
X49511Y-50944D01*
X49252Y-50943D01*
X49013Y-51042D01*
X48830Y-51225D01*
X48731Y-51464D01*
X48731Y-51722D01*
X48830Y-51961D01*
X49012Y-52144D01*
X49251Y-52243D01*
X49510Y-52244D01*
X49749Y-52145D01*
X49932Y-51962D01*
X50031Y-51723D01*
X50031Y-51465D01*
X50031Y-53472D01*
X50018Y-53430D01*
X49801Y-53352D01*
X49571Y-53362D01*
X49406Y-53430D01*
X49375Y-53529D01*
X49712Y-53866D01*
X50049Y-53529D01*
X50049Y-53670D01*
X49783Y-53937D01*
X50120Y-54273D01*
X50218Y-54242D01*
X50297Y-54025D01*
X50297Y-55972D01*
X50275Y-55994D01*
X50275Y-55395D01*
X50210Y-55239D01*
X50091Y-55119D01*
X50049Y-55102D01*
X50049Y-54344D01*
X49712Y-54007D01*
X49641Y-54078D01*
X49641Y-53937D01*
X49304Y-53600D01*
X49212Y-53629D01*
X49204Y-53608D01*
X49041Y-53445D01*
X48828Y-53357D01*
X48597Y-53356D01*
X48384Y-53445D01*
X48221Y-53608D01*
X48132Y-53821D01*
X48132Y-54051D01*
X48220Y-54265D01*
X48383Y-54428D01*
X48596Y-54516D01*
X48827Y-54517D01*
X49040Y-54428D01*
X49204Y-54265D01*
X49212Y-54244D01*
X49304Y-54273D01*
X49641Y-53937D01*
X49641Y-54078D01*
X49375Y-54344D01*
X49406Y-54443D01*
X49623Y-54521D01*
X49854Y-54511D01*
X50018Y-54443D01*
X50049Y-54344D01*
X50049Y-55102D01*
X49934Y-55055D01*
X49765Y-55054D01*
X49609Y-55119D01*
X49538Y-55190D01*
X49480Y-55190D01*
X49369Y-55212D01*
X49274Y-55274D01*
X49274Y-55274D01*
X49214Y-55335D01*
X49115Y-55334D01*
X48959Y-55399D01*
X48839Y-55518D01*
X48775Y-55675D01*
X48774Y-55844D01*
X48839Y-56000D01*
X48958Y-56120D01*
X49115Y-56184D01*
X49284Y-56185D01*
X49440Y-56120D01*
X49560Y-56001D01*
X49624Y-55846D01*
X49765Y-55904D01*
X49934Y-55905D01*
X50090Y-55840D01*
X50210Y-55721D01*
X50274Y-55564D01*
X50275Y-55395D01*
X50275Y-55994D01*
X50267Y-56001D01*
X50187Y-56194D01*
X50187Y-56305D01*
X50065Y-56304D01*
X49909Y-56369D01*
X49789Y-56488D01*
X49725Y-56645D01*
X49724Y-56814D01*
X49789Y-56970D01*
X49908Y-57090D01*
X49986Y-57122D01*
X49934Y-57247D01*
X49934Y-57503D01*
X50031Y-57740D01*
X50212Y-57921D01*
X50449Y-58019D01*
X50705Y-58020D01*
X50942Y-57922D01*
X51123Y-57741D01*
X51221Y-57504D01*
X51221Y-57248D01*
X51139Y-57050D01*
X52210Y-57050D01*
X52312Y-57151D01*
X52272Y-57247D01*
X52271Y-57503D01*
X52369Y-57740D01*
X52550Y-57921D01*
X52787Y-58019D01*
X53043Y-58020D01*
X53279Y-57922D01*
X53461Y-57741D01*
X53559Y-57504D01*
X53559Y-57248D01*
X53559Y-59139D01*
X53554Y-58996D01*
X53474Y-58803D01*
X53369Y-58764D01*
X53298Y-58835D01*
X53298Y-58694D01*
X53259Y-58589D01*
X53019Y-58500D01*
X52763Y-58509D01*
X52571Y-58589D01*
X52532Y-58694D01*
X52915Y-59077D01*
X53298Y-58694D01*
X53298Y-58835D01*
X52986Y-59148D01*
X53369Y-59531D01*
X53474Y-59492D01*
X53563Y-59252D01*
X53563Y-60360D01*
X53298Y-60360D01*
X53298Y-59601D01*
X52915Y-59218D01*
X52845Y-59289D01*
X52845Y-59148D01*
X52461Y-58764D01*
X52356Y-58803D01*
X52267Y-59043D01*
X52277Y-59299D01*
X52356Y-59492D01*
X52461Y-59531D01*
X52845Y-59148D01*
X52845Y-59289D01*
X52532Y-59601D01*
X52571Y-59706D01*
X52811Y-59796D01*
X53067Y-59786D01*
X53259Y-59706D01*
X53298Y-59601D01*
X53298Y-60360D01*
X51225Y-60360D01*
X51225Y-59252D01*
X51216Y-58996D01*
X51136Y-58803D01*
X51031Y-58764D01*
X50960Y-58835D01*
X50960Y-58694D01*
X50922Y-58589D01*
X50682Y-58500D01*
X50426Y-58509D01*
X50233Y-58589D01*
X50194Y-58694D01*
X50577Y-59077D01*
X50960Y-58694D01*
X50960Y-58835D01*
X50648Y-59148D01*
X51031Y-59531D01*
X51136Y-59492D01*
X51225Y-59252D01*
X51225Y-60360D01*
X50960Y-60360D01*
X50960Y-59601D01*
X50577Y-59218D01*
X50507Y-59289D01*
X50507Y-59148D01*
X50124Y-58764D01*
X50019Y-58803D01*
X49929Y-59043D01*
X49939Y-59299D01*
X50019Y-59492D01*
X50124Y-59531D01*
X50507Y-59148D01*
X50507Y-59289D01*
X50194Y-59601D01*
X50233Y-59706D01*
X50473Y-59796D01*
X50729Y-59786D01*
X50922Y-59706D01*
X50960Y-59601D01*
X50960Y-60360D01*
X48863Y-60360D01*
X48863Y-59252D01*
X48859Y-59139D01*
X48859Y-57248D01*
X48761Y-57012D01*
X48580Y-56830D01*
X48344Y-56732D01*
X48237Y-56732D01*
X48237Y-56195D01*
X48157Y-56002D01*
X48010Y-55854D01*
X47817Y-55774D01*
X47608Y-55774D01*
X47415Y-55853D01*
X47267Y-56001D01*
X47187Y-56194D01*
X47187Y-56403D01*
X47267Y-56596D01*
X47414Y-56744D01*
X47607Y-56824D01*
X47816Y-56824D01*
X48009Y-56744D01*
X48157Y-56596D01*
X48237Y-56404D01*
X48237Y-56195D01*
X48237Y-56732D01*
X48088Y-56732D01*
X47851Y-56830D01*
X47670Y-57011D01*
X47572Y-57247D01*
X47571Y-57503D01*
X47669Y-57740D01*
X47850Y-57921D01*
X48087Y-58019D01*
X48343Y-58020D01*
X48579Y-57922D01*
X48761Y-57741D01*
X48859Y-57504D01*
X48859Y-57248D01*
X48859Y-59139D01*
X48854Y-58996D01*
X48774Y-58803D01*
X48669Y-58764D01*
X48598Y-58835D01*
X48598Y-58694D01*
X48559Y-58589D01*
X48319Y-58500D01*
X48063Y-58509D01*
X47871Y-58589D01*
X47832Y-58694D01*
X48215Y-59077D01*
X48598Y-58694D01*
X48598Y-58835D01*
X48286Y-59148D01*
X48669Y-59531D01*
X48774Y-59492D01*
X48863Y-59252D01*
X48863Y-60360D01*
X48598Y-60360D01*
X48598Y-59601D01*
X48215Y-59218D01*
X48145Y-59289D01*
X48145Y-59148D01*
X47761Y-58764D01*
X47656Y-58803D01*
X47567Y-59043D01*
X47577Y-59299D01*
X47656Y-59492D01*
X47761Y-59531D01*
X48145Y-59148D01*
X48145Y-59289D01*
X47832Y-59601D01*
X47871Y-59706D01*
X48111Y-59796D01*
X48367Y-59786D01*
X48559Y-59706D01*
X48598Y-59601D01*
X48598Y-60360D01*
X46981Y-60360D01*
X46981Y-55726D01*
X46981Y-52726D01*
X46981Y-51396D01*
X46981Y-48396D01*
X46981Y-46277D01*
X46981Y-43277D01*
X46902Y-43084D01*
X46754Y-42937D01*
X46561Y-42856D01*
X46352Y-42856D01*
X46313Y-42873D01*
X46313Y-39537D01*
X46313Y-38513D01*
X46275Y-38421D01*
X46204Y-38351D01*
X46112Y-38313D01*
X46013Y-38312D01*
X45226Y-38312D01*
X45134Y-38350D01*
X45063Y-38421D01*
X45025Y-38513D01*
X45025Y-38612D01*
X45025Y-39636D01*
X45063Y-39728D01*
X45133Y-39798D01*
X45225Y-39836D01*
X45325Y-39836D01*
X46112Y-39836D01*
X46204Y-39798D01*
X46274Y-39728D01*
X46312Y-39636D01*
X46313Y-39537D01*
X46313Y-42873D01*
X46159Y-42936D01*
X46011Y-43084D01*
X45931Y-43277D01*
X45931Y-43485D01*
X46011Y-43678D01*
X46158Y-43826D01*
X46351Y-43906D01*
X46560Y-43906D01*
X46753Y-43827D01*
X46901Y-43679D01*
X46981Y-43486D01*
X46981Y-43277D01*
X46981Y-46277D01*
X46902Y-46084D01*
X46754Y-45937D01*
X46561Y-45856D01*
X46352Y-45856D01*
X46159Y-45936D01*
X46011Y-46084D01*
X45931Y-46277D01*
X45931Y-46485D01*
X46011Y-46678D01*
X46158Y-46826D01*
X46351Y-46906D01*
X46560Y-46906D01*
X46753Y-46827D01*
X46901Y-46679D01*
X46981Y-46486D01*
X46981Y-46277D01*
X46981Y-48396D01*
X46902Y-48203D01*
X46754Y-48055D01*
X46561Y-47975D01*
X46352Y-47974D01*
X46159Y-48054D01*
X46011Y-48202D01*
X45931Y-48395D01*
X45931Y-48603D01*
X46011Y-48797D01*
X46158Y-48944D01*
X46351Y-49024D01*
X46560Y-49025D01*
X46753Y-48945D01*
X46901Y-48797D01*
X46981Y-48604D01*
X46981Y-48396D01*
X46981Y-51396D01*
X46902Y-51203D01*
X46754Y-51055D01*
X46561Y-50975D01*
X46352Y-50974D01*
X46159Y-51054D01*
X46011Y-51202D01*
X45931Y-51395D01*
X45931Y-51603D01*
X46011Y-51797D01*
X46158Y-51944D01*
X46351Y-52024D01*
X46560Y-52025D01*
X46753Y-51945D01*
X46901Y-51797D01*
X46981Y-51604D01*
X46981Y-51396D01*
X46981Y-52726D01*
X46902Y-52533D01*
X46754Y-52385D01*
X46561Y-52305D01*
X46352Y-52305D01*
X46159Y-52385D01*
X46011Y-52532D01*
X45931Y-52725D01*
X45931Y-52934D01*
X46011Y-53127D01*
X46158Y-53275D01*
X46351Y-53355D01*
X46560Y-53355D01*
X46753Y-53276D01*
X46901Y-53128D01*
X46981Y-52935D01*
X46981Y-52726D01*
X46981Y-55726D01*
X46902Y-55533D01*
X46754Y-55385D01*
X46561Y-55305D01*
X46352Y-55305D01*
X46159Y-55385D01*
X46011Y-55532D01*
X45931Y-55725D01*
X45931Y-55893D01*
X45892Y-55854D01*
X45699Y-55774D01*
X45683Y-55774D01*
X45683Y-42056D01*
X45683Y-41505D01*
X45645Y-41413D01*
X45574Y-41343D01*
X45483Y-41305D01*
X45383Y-41305D01*
X44674Y-41305D01*
X44586Y-41341D01*
X44498Y-41305D01*
X44399Y-41305D01*
X43690Y-41305D01*
X43602Y-41341D01*
X43514Y-41305D01*
X43415Y-41305D01*
X43065Y-41305D01*
X43065Y-39438D01*
X43065Y-38415D01*
X43027Y-38323D01*
X42956Y-38252D01*
X42864Y-38214D01*
X42765Y-38214D01*
X41978Y-38214D01*
X41886Y-38252D01*
X41815Y-38322D01*
X41777Y-38414D01*
X41777Y-38514D01*
X41777Y-39537D01*
X41815Y-39629D01*
X41885Y-39700D01*
X41977Y-39738D01*
X42077Y-39738D01*
X42864Y-39738D01*
X42956Y-39700D01*
X43026Y-39629D01*
X43064Y-39538D01*
X43065Y-39438D01*
X43065Y-41305D01*
X42706Y-41305D01*
X42614Y-41343D01*
X42544Y-41413D01*
X42505Y-41505D01*
X42505Y-41604D01*
X42505Y-42155D01*
X42543Y-42247D01*
X42614Y-42318D01*
X42705Y-42356D01*
X42805Y-42356D01*
X43514Y-42356D01*
X43602Y-42319D01*
X43690Y-42356D01*
X43789Y-42356D01*
X44498Y-42356D01*
X44586Y-42319D01*
X44674Y-42356D01*
X44773Y-42356D01*
X45482Y-42356D01*
X45574Y-42318D01*
X45644Y-42248D01*
X45683Y-42156D01*
X45683Y-42056D01*
X45683Y-55774D01*
X45490Y-55774D01*
X45297Y-55853D01*
X45179Y-55972D01*
X45179Y-54025D01*
X45179Y-44970D01*
X45168Y-44740D01*
X45100Y-44575D01*
X45002Y-44544D01*
X44931Y-44615D01*
X44931Y-44474D01*
X44900Y-44375D01*
X44683Y-44297D01*
X44452Y-44307D01*
X44288Y-44375D01*
X44257Y-44474D01*
X44594Y-44811D01*
X44931Y-44474D01*
X44931Y-44615D01*
X44665Y-44881D01*
X45002Y-45218D01*
X45100Y-45187D01*
X45179Y-44970D01*
X45179Y-54025D01*
X45168Y-53795D01*
X45100Y-53631D01*
X45002Y-53600D01*
X44931Y-53670D01*
X44931Y-53529D01*
X44931Y-45289D01*
X44594Y-44952D01*
X44523Y-45023D01*
X44523Y-44881D01*
X44186Y-44544D01*
X44094Y-44573D01*
X44086Y-44553D01*
X43923Y-44390D01*
X43710Y-44301D01*
X43479Y-44301D01*
X43266Y-44389D01*
X43103Y-44552D01*
X43014Y-44766D01*
X43014Y-44996D01*
X43102Y-45210D01*
X43265Y-45373D01*
X43478Y-45461D01*
X43709Y-45461D01*
X43922Y-45373D01*
X44085Y-45210D01*
X44094Y-45189D01*
X44186Y-45218D01*
X44523Y-44881D01*
X44523Y-45023D01*
X44257Y-45289D01*
X44288Y-45387D01*
X44505Y-45466D01*
X44736Y-45456D01*
X44900Y-45387D01*
X44931Y-45289D01*
X44931Y-53529D01*
X44917Y-53485D01*
X44917Y-47999D01*
X44908Y-47741D01*
X44827Y-47546D01*
X44721Y-47506D01*
X44650Y-47577D01*
X44650Y-47435D01*
X44611Y-47330D01*
X44369Y-47239D01*
X44110Y-47249D01*
X43915Y-47330D01*
X43875Y-47435D01*
X44263Y-47823D01*
X44650Y-47435D01*
X44650Y-47577D01*
X44334Y-47894D01*
X44721Y-48281D01*
X44827Y-48242D01*
X44917Y-47999D01*
X44917Y-53485D01*
X44913Y-53472D01*
X44913Y-51465D01*
X44913Y-49615D01*
X44814Y-49376D01*
X44650Y-49212D01*
X44650Y-48352D01*
X44263Y-47964D01*
X44192Y-48035D01*
X44192Y-47894D01*
X43805Y-47506D01*
X43699Y-47546D01*
X43609Y-47788D01*
X43618Y-48046D01*
X43699Y-48242D01*
X43805Y-48281D01*
X44192Y-47894D01*
X44192Y-48035D01*
X43875Y-48352D01*
X43915Y-48458D01*
X44157Y-48548D01*
X44416Y-48538D01*
X44611Y-48458D01*
X44650Y-48352D01*
X44650Y-49212D01*
X44632Y-49193D01*
X44393Y-49094D01*
X44134Y-49093D01*
X43895Y-49192D01*
X43712Y-49375D01*
X43613Y-49614D01*
X43613Y-49872D01*
X43712Y-50111D01*
X43894Y-50294D01*
X44133Y-50393D01*
X44392Y-50394D01*
X44631Y-50295D01*
X44814Y-50112D01*
X44913Y-49873D01*
X44913Y-49615D01*
X44913Y-51465D01*
X44814Y-51226D01*
X44632Y-51043D01*
X44393Y-50944D01*
X44134Y-50943D01*
X43895Y-51042D01*
X43712Y-51225D01*
X43613Y-51464D01*
X43613Y-51722D01*
X43712Y-51961D01*
X43894Y-52144D01*
X44133Y-52243D01*
X44392Y-52244D01*
X44631Y-52145D01*
X44814Y-51962D01*
X44913Y-51723D01*
X44913Y-51465D01*
X44913Y-53472D01*
X44900Y-53430D01*
X44683Y-53352D01*
X44452Y-53362D01*
X44288Y-53430D01*
X44257Y-53529D01*
X44594Y-53866D01*
X44931Y-53529D01*
X44931Y-53670D01*
X44665Y-53937D01*
X45002Y-54273D01*
X45100Y-54242D01*
X45179Y-54025D01*
X45179Y-55972D01*
X45149Y-56001D01*
X45069Y-56194D01*
X45069Y-56403D01*
X45149Y-56596D01*
X45296Y-56744D01*
X45313Y-56751D01*
X45108Y-56835D01*
X44931Y-57012D01*
X44931Y-54344D01*
X44594Y-54007D01*
X44523Y-54078D01*
X44523Y-53937D01*
X44186Y-53600D01*
X44094Y-53629D01*
X44086Y-53608D01*
X43923Y-53445D01*
X43710Y-53357D01*
X43479Y-53356D01*
X43465Y-53362D01*
X43465Y-47455D01*
X43406Y-47314D01*
X43464Y-47174D01*
X43465Y-47005D01*
X43400Y-46849D01*
X43326Y-46775D01*
X43360Y-46741D01*
X43424Y-46584D01*
X43425Y-46415D01*
X43360Y-46259D01*
X43241Y-46139D01*
X43084Y-46075D01*
X42915Y-46074D01*
X42759Y-46139D01*
X42688Y-46210D01*
X42440Y-46210D01*
X42351Y-46119D01*
X42194Y-46055D01*
X42025Y-46054D01*
X41869Y-46119D01*
X41749Y-46238D01*
X41726Y-46296D01*
X41695Y-46264D01*
X41600Y-46202D01*
X41541Y-46190D01*
X41583Y-45980D01*
X41541Y-45765D01*
X41419Y-45584D01*
X41238Y-45462D01*
X41023Y-45420D01*
X40716Y-45420D01*
X40501Y-45462D01*
X40320Y-45584D01*
X40198Y-45765D01*
X40156Y-45980D01*
X40198Y-46194D01*
X40214Y-46218D01*
X40144Y-46264D01*
X40144Y-46264D01*
X39994Y-46415D01*
X39895Y-46414D01*
X39739Y-46479D01*
X39619Y-46598D01*
X39555Y-46755D01*
X39554Y-46924D01*
X39619Y-47080D01*
X39733Y-47195D01*
X39669Y-47258D01*
X39605Y-47415D01*
X39604Y-47584D01*
X39669Y-47740D01*
X39788Y-47860D01*
X39945Y-47924D01*
X40114Y-47925D01*
X40171Y-47901D01*
X40156Y-47980D01*
X40198Y-48194D01*
X40320Y-48375D01*
X40475Y-48479D01*
X40320Y-48584D01*
X40198Y-48765D01*
X40156Y-48980D01*
X40198Y-49194D01*
X40320Y-49375D01*
X40475Y-49479D01*
X40320Y-49584D01*
X40198Y-49765D01*
X40156Y-49980D01*
X40198Y-50194D01*
X40320Y-50375D01*
X40475Y-50479D01*
X40320Y-50584D01*
X40198Y-50765D01*
X40156Y-50980D01*
X40198Y-51194D01*
X40320Y-51375D01*
X40475Y-51480D01*
X40320Y-51584D01*
X40198Y-51765D01*
X40156Y-51980D01*
X40198Y-52194D01*
X40320Y-52375D01*
X40475Y-52480D01*
X40320Y-52584D01*
X40198Y-52765D01*
X40156Y-52980D01*
X40198Y-53194D01*
X40320Y-53375D01*
X40475Y-53480D01*
X40320Y-53584D01*
X40198Y-53765D01*
X40156Y-53980D01*
X40198Y-54194D01*
X40320Y-54375D01*
X40501Y-54497D01*
X40716Y-54540D01*
X41023Y-54540D01*
X41238Y-54497D01*
X41419Y-54375D01*
X41541Y-54194D01*
X41583Y-53980D01*
X41541Y-53765D01*
X41419Y-53584D01*
X41264Y-53480D01*
X41419Y-53375D01*
X41541Y-53194D01*
X41583Y-52980D01*
X41541Y-52765D01*
X41419Y-52584D01*
X41264Y-52480D01*
X41419Y-52375D01*
X41541Y-52194D01*
X41583Y-51980D01*
X41541Y-51765D01*
X41419Y-51584D01*
X41264Y-51480D01*
X41419Y-51375D01*
X41541Y-51194D01*
X41583Y-50980D01*
X41541Y-50765D01*
X41419Y-50584D01*
X41264Y-50479D01*
X41419Y-50375D01*
X41541Y-50194D01*
X41583Y-49980D01*
X41541Y-49765D01*
X41419Y-49584D01*
X41264Y-49479D01*
X41419Y-49375D01*
X41541Y-49194D01*
X41583Y-48980D01*
X41541Y-48765D01*
X41419Y-48584D01*
X41264Y-48479D01*
X41419Y-48375D01*
X41541Y-48194D01*
X41583Y-47980D01*
X41541Y-47770D01*
X42675Y-47770D01*
X42679Y-47780D01*
X42798Y-47900D01*
X42955Y-47964D01*
X43124Y-47965D01*
X43280Y-47900D01*
X43400Y-47781D01*
X43464Y-47624D01*
X43465Y-47455D01*
X43465Y-53362D01*
X43445Y-53371D01*
X43445Y-50545D01*
X43380Y-50389D01*
X43261Y-50269D01*
X43140Y-50219D01*
X43260Y-50170D01*
X43380Y-50051D01*
X43444Y-49894D01*
X43445Y-49725D01*
X43435Y-49701D01*
X43435Y-48395D01*
X43370Y-48239D01*
X43251Y-48119D01*
X43094Y-48055D01*
X42925Y-48054D01*
X42769Y-48119D01*
X42698Y-48190D01*
X42431Y-48190D01*
X42421Y-48179D01*
X42264Y-48115D01*
X42095Y-48114D01*
X41939Y-48179D01*
X41819Y-48298D01*
X41755Y-48455D01*
X41754Y-48624D01*
X41819Y-48780D01*
X41938Y-48900D01*
X42095Y-48964D01*
X42264Y-48965D01*
X42420Y-48900D01*
X42540Y-48781D01*
X42544Y-48770D01*
X42698Y-48770D01*
X42768Y-48840D01*
X42925Y-48904D01*
X43094Y-48905D01*
X43250Y-48840D01*
X43370Y-48721D01*
X43434Y-48564D01*
X43435Y-48395D01*
X43435Y-49701D01*
X43380Y-49569D01*
X43261Y-49449D01*
X43104Y-49385D01*
X42935Y-49384D01*
X42779Y-49449D01*
X42708Y-49520D01*
X42591Y-49520D01*
X42570Y-49469D01*
X42451Y-49349D01*
X42294Y-49285D01*
X42125Y-49284D01*
X41969Y-49349D01*
X41849Y-49468D01*
X41785Y-49625D01*
X41784Y-49794D01*
X41849Y-49950D01*
X41968Y-50070D01*
X42125Y-50134D01*
X42294Y-50135D01*
X42379Y-50100D01*
X42708Y-50100D01*
X42778Y-50170D01*
X42899Y-50220D01*
X42779Y-50269D01*
X42708Y-50340D01*
X42501Y-50340D01*
X42441Y-50279D01*
X42284Y-50215D01*
X42115Y-50214D01*
X41959Y-50279D01*
X41839Y-50398D01*
X41775Y-50555D01*
X41774Y-50724D01*
X41830Y-50858D01*
X41819Y-50868D01*
X41755Y-51025D01*
X41754Y-51194D01*
X41819Y-51350D01*
X41938Y-51470D01*
X42095Y-51534D01*
X42264Y-51535D01*
X42420Y-51470D01*
X42501Y-51390D01*
X42688Y-51390D01*
X42758Y-51460D01*
X42915Y-51524D01*
X43084Y-51525D01*
X43240Y-51460D01*
X43360Y-51341D01*
X43424Y-51184D01*
X43425Y-51015D01*
X43369Y-50881D01*
X43380Y-50871D01*
X43444Y-50714D01*
X43445Y-50545D01*
X43445Y-53371D01*
X43375Y-53399D01*
X43414Y-53304D01*
X43415Y-53135D01*
X43350Y-52979D01*
X43316Y-52945D01*
X43340Y-52921D01*
X43404Y-52764D01*
X43405Y-52595D01*
X43364Y-52496D01*
X43370Y-52491D01*
X43434Y-52334D01*
X43435Y-52165D01*
X43370Y-52009D01*
X43251Y-51889D01*
X43094Y-51825D01*
X42925Y-51824D01*
X42769Y-51889D01*
X42698Y-51960D01*
X42520Y-51960D01*
X42431Y-51869D01*
X42274Y-51805D01*
X42105Y-51804D01*
X41949Y-51869D01*
X41829Y-51988D01*
X41765Y-52145D01*
X41764Y-52314D01*
X41829Y-52470D01*
X41833Y-52474D01*
X41775Y-52615D01*
X41774Y-52784D01*
X41812Y-52876D01*
X41779Y-52908D01*
X41715Y-53065D01*
X41714Y-53234D01*
X41779Y-53390D01*
X41898Y-53510D01*
X42055Y-53574D01*
X42224Y-53575D01*
X42380Y-53510D01*
X42451Y-53440D01*
X42621Y-53440D01*
X42629Y-53460D01*
X42748Y-53580D01*
X42905Y-53644D01*
X43074Y-53645D01*
X43090Y-53638D01*
X43014Y-53821D01*
X43014Y-54051D01*
X43102Y-54265D01*
X43265Y-54428D01*
X43478Y-54516D01*
X43709Y-54517D01*
X43922Y-54428D01*
X44085Y-54265D01*
X44094Y-54244D01*
X44186Y-54273D01*
X44523Y-53937D01*
X44523Y-54078D01*
X44257Y-54344D01*
X44288Y-54443D01*
X44505Y-54521D01*
X44736Y-54511D01*
X44900Y-54443D01*
X44931Y-54344D01*
X44931Y-57012D01*
X44927Y-57016D01*
X44828Y-57253D01*
X44828Y-57509D01*
X44926Y-57746D01*
X45107Y-57927D01*
X45343Y-58025D01*
X45599Y-58025D01*
X45836Y-57927D01*
X46017Y-57746D01*
X46116Y-57510D01*
X46116Y-57254D01*
X46018Y-57017D01*
X45837Y-56836D01*
X45753Y-56801D01*
X45891Y-56744D01*
X46039Y-56596D01*
X46119Y-56404D01*
X46119Y-56236D01*
X46158Y-56275D01*
X46351Y-56355D01*
X46560Y-56355D01*
X46753Y-56276D01*
X46901Y-56128D01*
X46981Y-55935D01*
X46981Y-55726D01*
X46981Y-60360D01*
X46120Y-60360D01*
X46120Y-59257D01*
X46110Y-59001D01*
X46031Y-58809D01*
X45926Y-58770D01*
X45855Y-58841D01*
X45855Y-58699D01*
X45816Y-58594D01*
X45576Y-58505D01*
X45320Y-58515D01*
X45128Y-58594D01*
X45089Y-58699D01*
X45472Y-59082D01*
X45855Y-58699D01*
X45855Y-58841D01*
X45543Y-59153D01*
X45926Y-59536D01*
X46031Y-59497D01*
X46120Y-59257D01*
X46120Y-60360D01*
X45855Y-60360D01*
X45855Y-59607D01*
X45472Y-59224D01*
X45401Y-59294D01*
X45401Y-59153D01*
X45018Y-58770D01*
X44913Y-58809D01*
X44824Y-59049D01*
X44833Y-59305D01*
X44913Y-59497D01*
X45018Y-59536D01*
X45401Y-59153D01*
X45401Y-59294D01*
X45089Y-59607D01*
X45128Y-59712D01*
X45368Y-59801D01*
X45624Y-59792D01*
X45816Y-59712D01*
X45855Y-59607D01*
X45855Y-60360D01*
X43758Y-60360D01*
X43758Y-59257D01*
X43754Y-59144D01*
X43754Y-57254D01*
X43656Y-57017D01*
X43475Y-56836D01*
X43238Y-56738D01*
X42982Y-56738D01*
X42944Y-56753D01*
X42944Y-56691D01*
X43039Y-56596D01*
X43119Y-56404D01*
X43119Y-56195D01*
X43039Y-56002D01*
X42892Y-55854D01*
X42699Y-55774D01*
X42490Y-55774D01*
X42297Y-55853D01*
X42149Y-56001D01*
X42069Y-56194D01*
X42069Y-56403D01*
X42149Y-56596D01*
X42228Y-56676D01*
X42130Y-56774D01*
X42115Y-56774D01*
X41959Y-56839D01*
X41839Y-56958D01*
X41775Y-57115D01*
X41774Y-57284D01*
X41839Y-57440D01*
X41958Y-57560D01*
X42115Y-57624D01*
X42284Y-57625D01*
X42440Y-57560D01*
X42473Y-57527D01*
X42564Y-57746D01*
X42745Y-57927D01*
X42981Y-58025D01*
X43237Y-58025D01*
X43474Y-57927D01*
X43655Y-57746D01*
X43753Y-57510D01*
X43754Y-57254D01*
X43754Y-59144D01*
X43748Y-59001D01*
X43669Y-58809D01*
X43563Y-58770D01*
X43493Y-58841D01*
X43493Y-58699D01*
X43454Y-58594D01*
X43214Y-58505D01*
X42958Y-58515D01*
X42766Y-58594D01*
X42727Y-58699D01*
X43110Y-59082D01*
X43493Y-58699D01*
X43493Y-58841D01*
X43180Y-59153D01*
X43563Y-59536D01*
X43669Y-59497D01*
X43758Y-59257D01*
X43758Y-60360D01*
X43493Y-60360D01*
X43493Y-59607D01*
X43110Y-59224D01*
X43039Y-59294D01*
X43039Y-59153D01*
X42656Y-58770D01*
X42551Y-58809D01*
X42462Y-59049D01*
X42471Y-59305D01*
X42551Y-59497D01*
X42656Y-59536D01*
X43039Y-59153D01*
X43039Y-59294D01*
X42727Y-59607D01*
X42766Y-59712D01*
X43006Y-59801D01*
X43261Y-59792D01*
X43454Y-59712D01*
X43493Y-59607D01*
X43493Y-60360D01*
X38583Y-60360D01*
X38583Y-52980D01*
X38541Y-52765D01*
X38419Y-52584D01*
X38264Y-52480D01*
X38419Y-52375D01*
X38541Y-52194D01*
X38583Y-51980D01*
X38541Y-51765D01*
X38419Y-51584D01*
X38264Y-51480D01*
X38419Y-51375D01*
X38541Y-51194D01*
X38583Y-50980D01*
X38583Y-47980D01*
X38541Y-47765D01*
X38419Y-47584D01*
X38264Y-47479D01*
X38419Y-47375D01*
X38541Y-47194D01*
X38583Y-46980D01*
X38541Y-46765D01*
X38419Y-46584D01*
X38353Y-46540D01*
X38369Y-46540D01*
X38461Y-46502D01*
X38531Y-46431D01*
X38569Y-46339D01*
X38570Y-46240D01*
X38570Y-45620D01*
X38532Y-45528D01*
X38461Y-45458D01*
X38369Y-45420D01*
X38270Y-45419D01*
X37370Y-45419D01*
X37335Y-45434D01*
X37241Y-45339D01*
X37084Y-45275D01*
X36915Y-45274D01*
X36759Y-45339D01*
X36639Y-45458D01*
X36575Y-45615D01*
X36574Y-45784D01*
X36639Y-45940D01*
X36710Y-46011D01*
X36710Y-47400D01*
X36732Y-47510D01*
X36794Y-47605D01*
X37158Y-47968D01*
X37156Y-47980D01*
X37198Y-48194D01*
X37320Y-48375D01*
X37475Y-48479D01*
X37469Y-48481D01*
X37298Y-48619D01*
X37193Y-48811D01*
X37186Y-48843D01*
X37235Y-48930D01*
X37820Y-48930D01*
X37820Y-48922D01*
X37920Y-48922D01*
X37920Y-48930D01*
X38504Y-48930D01*
X38553Y-48843D01*
X38546Y-48811D01*
X38441Y-48619D01*
X38270Y-48481D01*
X38264Y-48479D01*
X38419Y-48375D01*
X38541Y-48194D01*
X38583Y-47980D01*
X38583Y-50980D01*
X38541Y-50765D01*
X38419Y-50584D01*
X38264Y-50480D01*
X38270Y-50478D01*
X38441Y-50340D01*
X38546Y-50148D01*
X38553Y-50116D01*
X38553Y-49843D01*
X38546Y-49811D01*
X38441Y-49619D01*
X38270Y-49481D01*
X38264Y-49480D01*
X38270Y-49478D01*
X38441Y-49340D01*
X38546Y-49148D01*
X38553Y-49116D01*
X38504Y-49030D01*
X37920Y-49030D01*
X37920Y-49420D01*
X37920Y-49540D01*
X37920Y-49930D01*
X38504Y-49930D01*
X38553Y-49843D01*
X38553Y-50116D01*
X38504Y-50030D01*
X37920Y-50030D01*
X37920Y-50037D01*
X37820Y-50037D01*
X37820Y-50030D01*
X37820Y-49930D01*
X37820Y-49540D01*
X37820Y-49420D01*
X37820Y-49030D01*
X37235Y-49030D01*
X37186Y-49116D01*
X37193Y-49148D01*
X37298Y-49340D01*
X37469Y-49478D01*
X37475Y-49480D01*
X37469Y-49481D01*
X37298Y-49619D01*
X37193Y-49811D01*
X37186Y-49843D01*
X37235Y-49930D01*
X37820Y-49930D01*
X37820Y-50030D01*
X37235Y-50030D01*
X37186Y-50116D01*
X37193Y-50148D01*
X37298Y-50340D01*
X37469Y-50478D01*
X37475Y-50480D01*
X37320Y-50584D01*
X37198Y-50765D01*
X37156Y-50980D01*
X37198Y-51194D01*
X37320Y-51375D01*
X37475Y-51480D01*
X37320Y-51584D01*
X37198Y-51765D01*
X37156Y-51980D01*
X37198Y-52194D01*
X37320Y-52375D01*
X37475Y-52480D01*
X37320Y-52584D01*
X37198Y-52765D01*
X37156Y-52980D01*
X37198Y-53194D01*
X37320Y-53375D01*
X37475Y-53479D01*
X37469Y-53481D01*
X37298Y-53619D01*
X37193Y-53811D01*
X37186Y-53843D01*
X37235Y-53930D01*
X37820Y-53930D01*
X37820Y-53922D01*
X37920Y-53922D01*
X37920Y-53930D01*
X38504Y-53930D01*
X38553Y-53843D01*
X38546Y-53811D01*
X38441Y-53619D01*
X38270Y-53481D01*
X38264Y-53479D01*
X38419Y-53375D01*
X38541Y-53194D01*
X38583Y-52980D01*
X38583Y-60360D01*
X38553Y-60360D01*
X38553Y-54116D01*
X38504Y-54030D01*
X37920Y-54030D01*
X37920Y-54540D01*
X38060Y-54540D01*
X38270Y-54478D01*
X38441Y-54340D01*
X38546Y-54148D01*
X38553Y-54116D01*
X38553Y-60360D01*
X37820Y-60360D01*
X37820Y-54540D01*
X37820Y-54030D01*
X37235Y-54030D01*
X37186Y-54116D01*
X37193Y-54148D01*
X37298Y-54340D01*
X37469Y-54478D01*
X37680Y-54540D01*
X37820Y-54540D01*
X37820Y-60360D01*
X35702Y-60360D01*
X35702Y-29245D01*
X38773Y-26174D01*
X38831Y-26087D01*
X38852Y-25984D01*
X38852Y-25984D01*
X38852Y-23672D01*
X45491Y-23672D01*
X45459Y-23703D01*
X45375Y-23905D01*
X45375Y-24124D01*
X45458Y-24326D01*
X45613Y-24481D01*
X45706Y-24520D01*
X45659Y-24539D01*
X45539Y-24658D01*
X45475Y-24815D01*
X45474Y-24984D01*
X45539Y-25140D01*
X45600Y-25201D01*
X45600Y-25300D01*
X45622Y-25414D01*
X45687Y-25512D01*
X45775Y-25599D01*
X45774Y-25684D01*
X45839Y-25840D01*
X45958Y-25960D01*
X46115Y-26024D01*
X46284Y-26025D01*
X46440Y-25960D01*
X46560Y-25841D01*
X46624Y-25684D01*
X46625Y-25515D01*
X46560Y-25359D01*
X46441Y-25239D01*
X46284Y-25175D01*
X46226Y-25175D01*
X46260Y-25141D01*
X46324Y-24984D01*
X46325Y-24815D01*
X46260Y-24659D01*
X46141Y-24539D01*
X46119Y-24530D01*
X46236Y-24482D01*
X46391Y-24327D01*
X46425Y-24245D01*
X46458Y-24326D01*
X46613Y-24481D01*
X46815Y-24565D01*
X47034Y-24565D01*
X47236Y-24482D01*
X47391Y-24327D01*
X47422Y-24252D01*
X47443Y-24303D01*
X47539Y-24330D01*
X47854Y-24015D01*
X47848Y-24010D01*
X47919Y-23939D01*
X47925Y-23945D01*
X47930Y-23939D01*
X48001Y-24010D01*
X47995Y-24015D01*
X48311Y-24330D01*
X48406Y-24303D01*
X48426Y-24248D01*
X48458Y-24326D01*
X48613Y-24481D01*
X48815Y-24565D01*
X49034Y-24565D01*
X49236Y-24482D01*
X49391Y-24327D01*
X49425Y-24245D01*
X49458Y-24326D01*
X49613Y-24481D01*
X49815Y-24565D01*
X50034Y-24565D01*
X50236Y-24482D01*
X50375Y-24343D01*
X50375Y-24365D01*
X50413Y-24457D01*
X50483Y-24527D01*
X50575Y-24565D01*
X50674Y-24565D01*
X51274Y-24565D01*
X51366Y-24527D01*
X51437Y-24457D01*
X51475Y-24365D01*
X51475Y-24266D01*
X51475Y-23672D01*
X52092Y-23672D01*
X52092Y-29133D01*
X52113Y-29237D01*
X52171Y-29324D01*
X58864Y-36017D01*
X58864Y-36017D01*
X58951Y-36075D01*
X59055Y-36096D01*
X61541Y-36096D01*
X61541Y-37795D01*
X61561Y-37898D01*
X61620Y-37985D01*
X67446Y-43812D01*
X67446Y-55006D01*
M02*
